<svg xmlns="http://www.w3.org/2000/svg" xmlns:xlink="http://www.w3.org/1999/xlink" width="43.2" height="46.761" viewBox="0 0 43.2 46.761">
  <defs>
    <clipPath id="clip-path">
      <rect id="Retângulo_115" data-name="Retângulo 115" width="43.2" height="46.761" fill="#294667"/>
    </clipPath>
  </defs>
  <g id="dica-icon" transform="translate(0 0)">
    <g id="Grupo_155" data-name="Grupo 155" transform="translate(0 0)" clip-path="url(#clip-path)">
      <path id="Caminho_179" data-name="Caminho 179" d="M39.193,8.651C35.441,2.91,29.523,0,21.6,0S7.757,2.91,4.007,8.651C.391,14.178,0,20.754,0,23.324c0,3.671,3.554,8.72,10.566,15A127.121,127.121,0,0,0,20.8,46.514a1.4,1.4,0,0,0,1.6,0,126.273,126.273,0,0,0,10.231-8.181C39.645,32.044,43.2,27,43.2,23.324c0-2.57-.391-9.147-4.007-14.672M21.6,2.8c6.914,0,12.044,2.485,15.247,7.382S40.4,21,40.4,23.324c0,4.973-11.107,14.764-18.8,20.315C13.909,38.088,2.8,28.3,2.8,23.324c0-2.319.346-8.243,3.549-13.138S14.686,2.8,21.6,2.8" transform="translate(0 0)" fill="#294667"/>
      <path id="Caminho_180" data-name="Caminho 180" d="M18.409,27.741,17.234,34.6a1.383,1.383,0,0,0,.556,1.372,1.441,1.441,0,0,0,1.475.109l6.161-3.242,6.16,3.242a1.417,1.417,0,0,0,.651.16,1.4,1.4,0,0,0,1.381-1.64l-1.176-6.861,4.985-4.856a1.4,1.4,0,0,0-.778-2.392l-6.887-1L26.68,13.252a1.4,1.4,0,0,0-2.51,0l-3.082,6.24-6.889,1a1.4,1.4,0,0,0-.774,2.392Zm11.546-1.487a1.407,1.407,0,0,0-.4,1.238l.821,4.788-4.3-2.263a1.427,1.427,0,0,0-1.3,0l-4.3,2.262.819-4.785a1.4,1.4,0,0,0-.4-1.243l-3.48-3.392,4.807-.7a1.405,1.405,0,0,0,1.054-.766l2.149-4.356,2.151,4.355a1.406,1.406,0,0,0,1.056.767l4.8.7Z" transform="translate(-3.827 -3.671)" fill="#294667"/>
    </g>
  </g>
</svg>
