<svg id="exemplo-icon" xmlns="http://www.w3.org/2000/svg" xmlns:xlink="http://www.w3.org/1999/xlink" width="80" height="79.968" viewBox="0 0 80 79.968">
  <defs>
    <clipPath id="clip-path">
      <rect id="Ret창ngulo_95" data-name="Ret창ngulo 95" width="80" height="79.968" fill="#294667"/>
    </clipPath>
  </defs>
  <g id="Grupo_130" data-name="Grupo 130" clip-path="url(#clip-path)">
    <path id="Caminho_81" data-name="Caminho 81" d="M78.71,69.646H67.1V48.123a6.452,6.452,0,0,0-5.262-6.341L46.452,38.9V35.642a12.937,12.937,0,0,0,6.193-8.577h1.548a3.871,3.871,0,0,0,0-7.742H53.008l1.266-2.93A10.427,10.427,0,0,0,49.021,2.777l-3.6-1.639a13.229,13.229,0,0,0-13.2,1.432L30.183,4.1a8.03,8.03,0,0,0-5.177,11.37l1.929,3.856H25.807a3.871,3.871,0,0,0,0,7.742h1.548a12.93,12.93,0,0,0,6.194,8.575V38.9L18.165,41.781A6.452,6.452,0,0,0,12.9,48.122V69.646H1.29A1.29,1.29,0,0,0,0,70.936v7.742a1.29,1.29,0,0,0,1.29,1.29H78.71A1.29,1.29,0,0,0,80,78.678V70.936a1.29,1.29,0,0,0-1.29-1.29m-52.9-5.162h3.871a1.29,1.29,0,0,1,1.29,1.291v2.58a1.29,1.29,0,0,1-1.29,1.291H25.807Zm3.871-2.58H25.807V48.071L38.71,51.3V69.646h-5.4a3.833,3.833,0,0,0,.24-1.291v-2.58A3.871,3.871,0,0,0,29.678,61.9M41.291,51.3l12.9-3.226V61.9H50.323a3.871,3.871,0,0,0-3.871,3.871v2.58a3.82,3.82,0,0,0,.237,1.291h-5.4Zm7.742,17.057v-2.58a1.291,1.291,0,0,1,1.291-1.291h3.871v5.162H50.316a1.291,1.291,0,0,1-1.284-1.291M56.774,61.9h7.742v7.742H56.774Zm-1.29-38.71a1.29,1.29,0,0,1-1.291,1.29H52.9V21.9h1.29a1.29,1.29,0,0,1,1.291,1.29M27.519,9.069A5.48,5.48,0,0,1,32.2,6.42a6.024,6.024,0,0,1,5.024,2.688l.4.608,2.148-1.431-.405-.608A8.587,8.587,0,0,0,34.5,4.162a10.611,10.611,0,0,1,9.85-.675l3.6,1.643A7.844,7.844,0,0,1,51.9,15.373l-.387.887-1.336-2.671a1.291,1.291,0,0,0-.857-.68,1.308,1.308,0,0,0-1.073.225l-2.065,1.548a10.323,10.323,0,0,1-12.387,0l-2.065-1.548a1.289,1.289,0,0,0-1.935.455l-1.413,2.858-1.065-2.132a5.419,5.419,0,0,1,.2-5.246m-3,14.125a1.29,1.29,0,0,1,1.29-1.29H27.1v2.58h-1.29a1.29,1.29,0,0,1-1.29-1.29m5.161,1.29V19.627l1.752-3.506.828.62a12.9,12.9,0,0,0,15.484,0l.827-.62,1.754,3.506v4.857a10.323,10.323,0,1,1-20.645,0M40,37.387a12.871,12.871,0,0,0,3.871-.595v2.64L40,43.3l-3.871-3.871V36.791a12.846,12.846,0,0,0,3.871.6M18.64,44.318l15.766-2.956,4.682,4.68a1.29,1.29,0,0,0,1.824,0l4.679-4.68,15.766,2.956a3.871,3.871,0,0,1,3.159,3.8v11.2H56.774V46.42a1.29,1.29,0,0,0-1.6-1.253L40,48.96,24.83,45.167a1.291,1.291,0,0,0-1.6,1.253v12.9H15.484v-11.2a3.87,3.87,0,0,1,3.156-3.8M15.484,61.9h7.742v7.742H15.484ZM77.42,77.387H2.581V72.226H77.42Z" transform="translate(0 0)" fill="#294667"/>
    <path id="Caminho_82" data-name="Caminho 82" d="M82.387,49.431a1.936,1.936,0,1,0,1.935,1.935,1.935,1.935,0,0,0-1.935-1.935" transform="translate(-46.903 -28.818)" fill="#294667"/>
    <path id="Caminho_83" data-name="Caminho 83" d="M104.047,53.3a1.936,1.936,0,1,0-1.935-1.935,1.935,1.935,0,0,0,1.935,1.935" transform="translate(-59.531 -28.818)" fill="#294667"/>
    <rect id="Ret창ngulo_94" data-name="Ret창ngulo 94" width="5.16" height="2.581" transform="translate(37.418 29.645)" fill="#294667"/>
  </g>
</svg>
