<svg xmlns="http://www.w3.org/2000/svg" xmlns:xlink="http://www.w3.org/1999/xlink" width="61.68" height="38.003" viewBox="0 0 61.68 38.003">
  <defs>
    <clipPath id="clip-path">
      <rect id="Retângulo_1481" data-name="Retângulo 1481" width="38.003" height="61.68" fill="#294667"/>
    </clipPath>
  </defs>
  <g id="Grupo_1736" data-name="Grupo 1736" transform="translate(61.68) rotate(90)" clip-path="url(#clip-path)">
    <path id="Caminho_31868" data-name="Caminho 31868" d="M23.561,13.608a5.6,5.6,0,0,0-3.739,1.438,5.553,5.553,0,0,0-5.179-3.538,5.468,5.468,0,0,0-3.481,1.237V5.783A5.688,5.688,0,0,0,5.581,0,5.688,5.688,0,0,0,0,5.783V42.175A19.364,19.364,0,0,0,19.188,61.68C29.574,61.68,38,52.934,38,42.175V21.318a5.555,5.555,0,0,0-5.552-5.552A5.476,5.476,0,0,0,28.74,17.2a5.563,5.563,0,0,0-5.179-3.6M17.98,17.089v12.83H11.335V17.089a3.323,3.323,0,0,1,6.645,0M5.581,2.244A3.5,3.5,0,0,1,9,5.783V29.891H6.646a7.12,7.12,0,0,0-4.488,1.15V5.783A3.5,3.5,0,0,1,5.581,2.244M19.188,59.436a17.147,17.147,0,0,1-17-17.261V35.932a4.524,4.524,0,0,1,1.064-2.877,4.62,4.62,0,0,1,3.4-.92H23.878a3.308,3.308,0,1,1,0,6.617H11.249a1.434,1.434,0,0,0-.346.057h-.316a1.122,1.122,0,1,0,0,2.244,12.549,12.549,0,0,1,11.68,9.465,1.082,1.082,0,0,0,1.381.748,1.105,1.105,0,0,0,.806-1.065,1.22,1.22,0,0,0-.058-.317,14.718,14.718,0,0,0-6.617-8.861h6.1a5.574,5.574,0,0,0,5.553-5.552V35.3a5.4,5.4,0,0,0,3.02.892,5.617,5.617,0,0,0,3.394-1.15v7.134c0,9.522-7.479,17.261-16.657,17.261M35.76,21.318v9.321a3.308,3.308,0,0,1-6.617,0V21.318a3.308,3.308,0,1,1,6.617,0M26.87,19.16V30.783a5.618,5.618,0,0,0-2.992-.892H20.253V19.16a3.308,3.308,0,0,1,6.617,0" transform="translate(0 0)" fill="#294667"/>
  </g>
</svg>
