<svg xmlns="http://www.w3.org/2000/svg" xmlns:xlink="http://www.w3.org/1999/xlink" width="72" height="72" viewBox="0 0 72 72">
  <defs>
    <clipPath id="clip-path">
      <rect id="Retângulo_983" data-name="Retângulo 983" width="72" height="72" transform="translate(179.64 0)" fill="#fff"/>
    </clipPath>
  </defs>
  <g id="Grupo_1977" data-name="Grupo 1977" transform="translate(-189 11)">
    <g id="icon-interação-social" transform="translate(9.36 -11)" clip-path="url(#clip-path)">
      <path id="Caminho_1411" data-name="Caminho 1411" d="M241.821,29.721h-.667l-1.927-5.188a9.258,9.258,0,0,0-9.042-16.158,9.034,9.034,0,0,0-4.373,5.633l-6.892-.741a6,6,0,0,0-11.932.89,6.433,6.433,0,0,0,.815,3.038l-8.3,8.153a9.059,9.059,0,0,0-5.484-1.853,9.264,9.264,0,0,0,0,18.529l1.853,11.117a6.025,6.025,0,1,0,8.226,3.78l6.522-3.409a11.488,11.488,0,0,0,20.011-7.634,9.731,9.731,0,0,0-.3-2.52l7.189-3.706a6.038,6.038,0,1,0,9.042-8,7.442,7.442,0,0,0-4.743-1.927m0,2.223a1.7,1.7,0,1,1-1.705,1.7,1.677,1.677,0,0,1,1.705-1.7m-7.115-21.123a2.594,2.594,0,1,1-2.594,2.594,2.578,2.578,0,0,1,2.594-2.594m-5.262,8.45a1.413,1.413,0,0,1,.519-1.038,7.846,7.846,0,0,1,2.52-1.186,6.861,6.861,0,0,1,2.149-.3,10.036,10.036,0,0,1,2.149.3,6.722,6.722,0,0,1,2.52,1.26,1.417,1.417,0,0,1,.519,1.038v2H229.444Zm-16.527-8.894a1.7,1.7,0,1,1-1.705,1.7,1.724,1.724,0,0,1,1.705-1.7m-3.484,5.558a.781.781,0,0,1,.371-.667,4.986,4.986,0,0,1,1.705-.741,4.576,4.576,0,0,1,2.816,0,4.812,4.812,0,0,1,1.63.815.885.885,0,0,1,.371.667v1.335h-6.819V15.935ZM193.87,27.127a2.594,2.594,0,1,1-2.594,2.594,2.677,2.677,0,0,1,2.594-2.594m-5.188,10.45v-2a1.415,1.415,0,0,1,.519-1.038,7.87,7.87,0,0,1,2.519-1.185,6.839,6.839,0,0,1,2.15-.3,9.972,9.972,0,0,1,2.149.3,6.722,6.722,0,0,1,2.52,1.26,1.416,1.416,0,0,1,.519,1.037v2ZM201.5,61.739h-6.892V60.4a.778.778,0,0,1,.37-.667,5.15,5.15,0,0,1,1.705-.815,4.556,4.556,0,0,1,2.816,0,4.808,4.808,0,0,1,1.631.815.883.883,0,0,1,.37.667Zm-5.188-5.188a1.705,1.705,0,1,1,1.705,1.7,1.722,1.722,0,0,1-1.705-1.7m5.929-2.075a6.152,6.152,0,0,0-3.631-1.705L196.76,41.654a9.188,9.188,0,0,0,4.447-3.187L208.1,42.1a11.2,11.2,0,0,0,.593,9.116Zm7.263-15.12L202.689,35.8a9.884,9.884,0,0,0,.445-2.964,9.149,9.149,0,0,0-1.705-5.337l8.3-8.078a5.985,5.985,0,0,0,8.226-1.927,7.4,7.4,0,0,0,.519-1.112l6.893.741A9.25,9.25,0,0,0,229,23.94l-6.077,11.34a11.335,11.335,0,0,0-13.415,4.076m12.6,2.742a3.227,3.227,0,0,1-3.261,3.187,3.187,3.187,0,0,1,0-6.374h.074a3.163,3.163,0,0,1,3.187,3.187m3.187,9.709H212.472V49.362a1.455,1.455,0,0,1,.667-1.26,12.265,12.265,0,0,1,3.113-1.557,9.8,9.8,0,0,1,5.336,0A8.214,8.214,0,0,1,224.7,48.1a1.781,1.781,0,0,1,.667,1.26ZM235.818,35.8a4.2,4.2,0,0,0,.222,1.334l-6.818,3.558a10.886,10.886,0,0,0-3.558-4l6.077-11.34a8.449,8.449,0,0,0,3.039.519,14.418,14.418,0,0,0,1.779-.148l1.927,5.188a5.346,5.346,0,0,0-2.668,4.891m9.412,2.965h-6.893V37.429a.778.778,0,0,1,.371-.667,5.15,5.15,0,0,1,1.705-.815,4.557,4.557,0,0,1,2.816,0,4.794,4.794,0,0,1,1.63.815.883.883,0,0,1,.371.667Z" fill="#fff"/>
    </g>
  </g>
</svg>
