<svg id="importante-icon" xmlns="http://www.w3.org/2000/svg" xmlns:xlink="http://www.w3.org/1999/xlink" width="48.587" height="48.517" viewBox="0 0 48.587 48.517">
  <defs>
    <clipPath id="clip-path">
      <rect id="Retângulo_114" data-name="Retângulo 114" width="48.587" height="48.517" fill="#294667"/>
    </clipPath>
  </defs>
  <g id="Grupo_153" data-name="Grupo 153" clip-path="url(#clip-path)">
    <path id="Caminho_178" data-name="Caminho 178" d="M0,24.224A.975.975,0,0,0,.39,25l5.739,4.067L3.176,35.479a1.008,1.008,0,0,0,.056.892,1.083,1.083,0,0,0,.78.5l7.021.613.613,7.021a1.084,1.084,0,0,0,.5.78,1.008,1.008,0,0,0,.892.056l6.408-2.953,4.067,5.739a.9.9,0,0,0,.78.39.975.975,0,0,0,.78-.39l4.067-5.739,6.408,2.953a1.008,1.008,0,0,0,.892-.056,1.084,1.084,0,0,0,.5-.78l.613-7.021,7.021-.613a1.083,1.083,0,0,0,.78-.5,1.008,1.008,0,0,0,.056-.892l-2.953-6.408L48.2,25a.9.9,0,0,0,.39-.78,1.064,1.064,0,0,0-.39-.78l-5.739-4.067,2.953-6.408a1.008,1.008,0,0,0-.056-.892,1.083,1.083,0,0,0-.78-.5l-7.021-.613-.613-7.021a1.084,1.084,0,0,0-.5-.78,1.008,1.008,0,0,0-.892-.056L29.141,6.059,25.018.376a1,1,0,0,0-1.56,0L19.39,6.115,12.983,3.162a1.008,1.008,0,0,0-.892.056,1.083,1.083,0,0,0-.5.78l-.613,7.021-7.021.613a1.083,1.083,0,0,0-.78.5,1.008,1.008,0,0,0-.056.892l2.953,6.408L.39,23.444a.843.843,0,0,0-.39.78M26.3,34.978a2.829,2.829,0,0,1-4.123,0A3.029,3.029,0,0,1,21.34,32.8a3.521,3.521,0,0,1,.836-2.173,3.073,3.073,0,0,1,4.123,0,3.243,3.243,0,0,1,0,4.346M21.34,15.643a2.988,2.988,0,0,1,2.9-3.065,2.953,2.953,0,0,1,2.9,3.065v9.472a2.988,2.988,0,0,1-2.9,3.065,2.953,2.953,0,0,1-2.9-3.065Z" transform="translate(0 0)" fill="#294667"/>
  </g>
</svg>
