<svg id="_1" data-name="1" xmlns="http://www.w3.org/2000/svg" width="82.273" height="81.99" viewBox="0 0 82.273 81.99">
  <path id="Caminho_31922" data-name="Caminho 31922" d="M38.953,0A38.819,38.819,0,1,1,0,38.819,38.886,38.886,0,0,1,38.953,0Z" transform="translate(2.183 2.176)" fill="#cf9904"/>
  <path id="Caminho_7692" data-name="Caminho 7692" d="M41.137,81.99A41,41,0,1,1,82.273,40.995,41.066,41.066,0,0,1,41.137,81.99Zm0-81.074A40.079,40.079,0,1,0,81.354,40.995,40.148,40.148,0,0,0,41.137.916Z" fill="#284666"/>
  <path id="Caminho_7693" data-name="Caminho 7693" d="M44.374,80.891a36.644,36.644,0,1,1,36.77-36.644,36.707,36.707,0,0,1-36.77,36.644Zm0-72.829a36.186,36.186,0,1,0,36.31,36.185A36.248,36.248,0,0,0,44.374,8.063Z" transform="translate(-3.238 -3.253)" fill="#fff"/>
  <path id="Caminho_31923" data-name="Caminho 31923" d="M1.829,0H14.105V-7.44h4.774V-17.98H14.105V-44.64H.775L-18.259-17.484V-7.44H1.829ZM-5.8-17.98,2.759-30.938V-17.98Z" transform="translate(41 65)" fill="#fff"/>
</svg>
