<svg id="_1" data-name="1" xmlns="http://www.w3.org/2000/svg" width="82.273" height="81.99" viewBox="0 0 82.273 81.99">
  <ellipse id="Elipse_79" data-name="Elipse 79" cx="38.953" cy="38.819" rx="38.953" ry="38.819" transform="translate(2.183 2.176)" fill="#318d6d"/>
  <path id="Caminho_7692" data-name="Caminho 7692" d="M41.137,81.99A41,41,0,1,1,82.273,40.995,41.066,41.066,0,0,1,41.137,81.99Zm0-81.074A40.079,40.079,0,1,0,81.354,40.995,40.148,40.148,0,0,0,41.137.916Z" fill="#284666"/>
  <path id="Caminho_7693" data-name="Caminho 7693" d="M44.374,80.891a36.644,36.644,0,1,1,36.77-36.644,36.707,36.707,0,0,1-36.77,36.644Zm0-72.829a36.186,36.186,0,1,0,36.31,36.185A36.248,36.248,0,0,0,44.374,8.063Z" transform="translate(-3.238 -3.253)" fill="#fff"/>
  <path id="Caminho_31927" data-name="Caminho 31927" d="M-15.934-31.806H-4.092c.124-2.108.93-4.4,3.6-4.4,2.046,0,3.472,1.24,3.472,3.844,0,3.844-3.286,4.216-5.642,4.154H-4.774v9.858H-2.6c4.588,0,6.448,1.488,6.448,4.588,0,2.418-1.426,4.092-3.844,4.092-3.224,0-4.712-1.984-4.588-5.208H-16.43C-16.182-4.092-9.3.372.5.372c9.548,0,15.128-5.394,15.128-13.206,0-5.828-3.162-9.052-7.5-10.664v-.248c2.852-.93,6.7-3.906,6.7-10.106,0-6.944-5.208-12.462-15-12.462C-9.858-46.314-15.624-41.168-15.934-31.806Z" transform="translate(41 65)" fill="#fff"/>
</svg>
