<svg id="_1" data-name="1" xmlns="http://www.w3.org/2000/svg" width="82.273" height="81.99" viewBox="0 0 82.273 81.99">
  <ellipse id="Elipse_79" data-name="Elipse 79" cx="38.953" cy="38.819" rx="38.953" ry="38.819" transform="translate(2.183 2.176)" fill="#284666"/>
  <path id="Caminho_7692" data-name="Caminho 7692" d="M41.137,81.99A41,41,0,1,1,82.273,40.995,41.066,41.066,0,0,1,41.137,81.99Zm0-81.074A40.079,40.079,0,1,0,81.354,40.995,40.148,40.148,0,0,0,41.137.916Z" fill="#284666"/>
  <path id="Caminho_7693" data-name="Caminho 7693" d="M44.374,80.891a36.644,36.644,0,1,1,36.77-36.644,36.707,36.707,0,0,1-36.77,36.644Zm0-72.829a36.186,36.186,0,1,0,36.31,36.185A36.248,36.248,0,0,0,44.374,8.063Z" transform="translate(-3.238 -3.253)" fill="#fff"/>
  <path id="Caminho_31921" data-name="Caminho 31921" d="M-4.495,0H8.215V-45.322h-19.1v11.408h6.386Z" transform="translate(41 65)" fill="#fff"/>
</svg>
