<svg id="_1" data-name="1" xmlns="http://www.w3.org/2000/svg" width="82.273" height="81.99" viewBox="0 0 82.273 81.99">
  <path id="Caminho_31924" data-name="Caminho 31924" d="M38.953,0A38.819,38.819,0,1,1,0,38.819,38.886,38.886,0,0,1,38.953,0Z" transform="translate(2.183 2.176)" fill="#8b1eb1"/>
  <path id="Caminho_7692" data-name="Caminho 7692" d="M41.137,81.99A41,41,0,1,1,82.273,40.995,41.066,41.066,0,0,1,41.137,81.99Zm0-81.074A40.079,40.079,0,1,0,81.354,40.995,40.148,40.148,0,0,0,41.137.916Z" fill="#284666"/>
  <path id="Caminho_7693" data-name="Caminho 7693" d="M44.374,80.891a36.644,36.644,0,1,1,36.77-36.644,36.707,36.707,0,0,1-36.77,36.644Zm0-72.829a36.186,36.186,0,1,0,36.31,36.185A36.248,36.248,0,0,0,44.374,8.063Z" transform="translate(-3.238 -3.253)" fill="#fff"/>
  <path id="Caminho_31925" data-name="Caminho 31925" d="M-15.593-.62h31.62v-9.858H.527C7.781-15.5,15.593-23.25,15.593-32.674c0-7.44-4.278-13.578-15.066-13.578-8.37,0-15.872,4.65-16.244,16.182h11.78c-.124-4.03,1.426-5.952,3.72-5.952,2.356,0,3.534,1.612,3.534,4.216,0,7.068-9.672,14.818-18.91,22.072Z" transform="translate(41 65)" fill="#fff"/>
</svg>
