<svg xmlns="http://www.w3.org/2000/svg" width="31.157" height="57.847" viewBox="0 0 31.157 57.847">
  <path id="bolt" d="M30.767,15.227a1.307,1.307,0,0,1,.243,1.53L12.237,56.977a1.528,1.528,0,0,1-1.461.869,2.936,2.936,0,0,1-.487-.069,1.482,1.482,0,0,1-.887-.66,1.316,1.316,0,0,1-.156-1.043L16.1,27.985,1.983,31.5a1.833,1.833,0,0,1-.418.035,1.618,1.618,0,0,1-1.078-.382,1.3,1.3,0,0,1-.452-1.356L7.023,1.113a1.5,1.5,0,0,1,.556-.8A1.574,1.574,0,0,1,8.553,0h11.4a1.543,1.543,0,0,1,1.112.434,1.384,1.384,0,0,1,.453,1.028,1.423,1.423,0,0,1-.174.625L15.4,18.182l13.766-3.406a1.912,1.912,0,0,1,.418-.069,1.631,1.631,0,0,1,1.183.522Z" transform="translate(0.002 0.001)" fill="#fff"/>
</svg>
