<svg id="BG" xmlns="http://www.w3.org/2000/svg" xmlns:xlink="http://www.w3.org/1999/xlink" viewBox="0 0 457.625 162"><defs><style>.cls-1{isolation:isolate;fill:url(#Gradiente_sem_nome_362);}.cls-2{fill:#fff;}</style><linearGradient id="Gradiente_sem_nome_362" x1="89.30859" y1="81" x2="829.55859" y2="81" gradientUnits="userSpaceOnUse"><stop offset="0" stop-color="#2f5579"/><stop offset="1" stop-color="#2f8568"/></linearGradient></defs><polygon class="cls-1" points="362.25 0 0 0 95.375 81 0 162 362.25 162 457.625 81 362.25 0"/><path class="cls-2" d="M181.57471,83.26953h-2.54444v6.04785h-4.104V72.46777h6.64844c4.12841,0,6.19238,2.32813,6.19238,5.42481C187.76709,80.67676,185.87109,83.26953,181.57471,83.26953Zm-.312-3.26562c1.63232,0,2.32812-.81543,2.32812-2.11133,0-1.29688-.6958-2.11231-2.32812-2.11231h-2.23243v4.22364Z"/><path class="cls-2" d="M200.39111,86.3418h-6.28857l-1.0083,2.97558h-4.29639l6.09668-16.84961H199.647l6.09668,16.84961h-4.34424Zm-3.144-9.33789-2.06445,6.16894H199.335Z"/><path class="cls-2" d="M214.479,72.46777c4.12793,0,6.19239,2.376,6.19239,5.30469a4.9038,4.9038,0,0,1-3.74463,4.87207l3.88867,6.67285h-4.63232l-3.5044-6.36035h-.98437v6.36035h-4.104V72.46777Zm-.24023,3.40821h-2.54443v4.17675h2.54443c1.53613,0,2.25635-.792,2.25635-2.1123C216.49512,76.69238,215.7749,75.876,214.23877,75.876Z"/><path class="cls-2" d="M231.01465,72.27539a7.82365,7.82365,0,0,1,7.99267,5.90527h-4.5122a3.71264,3.71264,0,0,0-3.52832-2.16113c-2.52,0-4.24854,1.873-4.24854,4.84961,0,2.97559,1.72852,4.84766,4.24854,4.84766a3.71181,3.71181,0,0,0,3.52832-2.16016h4.5122a7.804,7.804,0,0,1-7.99267,5.88086,8.16634,8.16634,0,0,1-8.47266-8.56836A8.18639,8.18639,0,0,1,231.01465,72.27539Z"/><path class="cls-2" d="M251.84717,75.75586h-6.2168v3.4082H251.127V82.333h-5.49658V86.0293h6.2168v3.28808h-10.3208V72.46777h10.3208Z"/><path class="cls-2" d="M261.39844,72.46777c4.12793,0,6.19238,2.376,6.19238,5.30469a4.90379,4.90379,0,0,1-3.74463,4.87207l3.88867,6.67285h-4.63232l-3.5044-6.36035h-.98437v6.36035h-4.104V72.46777ZM261.1582,75.876h-2.54443v4.17675h2.54443c1.53614,0,2.25635-.792,2.25635-2.1123C263.41455,76.69238,262.69434,75.876,261.1582,75.876Z"/><path class="cls-2" d="M270.15771,72.46777h4.104V89.31738h-4.104Z"/><path class="cls-2" d="M287.72656,86.3418H281.438l-1.0083,2.97558h-4.2959L282.23,72.46777h4.75244l6.09668,16.84961h-4.34424ZM284.582,77.00391l-2.064,6.16894h4.15234Z"/></svg>