<svg id="BG" xmlns="http://www.w3.org/2000/svg" viewBox="0 0 457.625 182"><defs><style>.cls-1{fill:#284666;opacity:0.3;}.cls-1,.cls-2,.cls-3{isolation:isolate;}.cls-2{fill:#f7a613;}.cls-4{fill:#2f5579;}</style></defs><polygon class="cls-1" points="362.25 20 0 20 95.375 101 0 182 362.25 182 457.625 101 362.25 20"/><polygon class="cls-2" points="362.25 0 0 0 95.375 81 0 162 362.25 162 457.625 81 362.25 0"/><g class="cls-3"><path class="cls-4" d="M147.15918,72.27637a7.82288,7.82288,0,0,1,7.99268,5.90429h-4.51221a3.7118,3.7118,0,0,0-3.52832-2.16015c-2.52,0-4.24854,1.87207-4.24854,4.84765,0,2.97657,1.72852,4.84961,4.24854,4.84961a3.71264,3.71264,0,0,0,3.52832-2.16113h4.51221a7.804,7.804,0,0,1-7.99268,5.88086,8.16659,8.16659,0,0,1-8.47266-8.56934A8.18534,8.18534,0,0,1,147.15918,72.27637Z"/><path class="cls-4" d="M165.63965,89.48535a8.62891,8.62891,0,1,1,8.6167-8.64062A8.47664,8.47664,0,0,1,165.63965,89.48535Zm0-3.74414c2.688,0,4.43994-1.94433,4.43994-4.89648,0-3-1.75195-4.89649-4.43994-4.89649-2.73633,0-4.46485,1.89649-4.46485,4.89649C161.1748,83.79688,162.90332,85.74121,165.63965,85.74121Z"/><path class="cls-4" d="M176.53467,72.46777h4.84814l4.72852,11.665,4.68066-11.665h4.82422V89.31738h-4.10449V79.21191l-3.76807,10.10547h-3.3125l-3.79248-10.1289v10.1289h-4.104Z"/><path class="cls-4" d="M205.21484,83.26855h-2.54443v6.04883h-4.104V72.46777h6.64843c4.12842,0,6.19239,2.32813,6.19239,5.42481C211.40723,80.67676,209.51123,83.26855,205.21484,83.26855Zm-.312-3.26367c1.63233,0,2.32813-.8164,2.32813-2.1123s-.6958-2.11231-2.32813-2.11231h-2.23242v4.22461Z"/><path class="cls-4" d="M224.03076,86.34082h-6.28857l-1.0083,2.97656H212.4375l6.09668-16.84961h4.75244l6.09668,16.84961h-4.34424Zm-3.144-9.33594-2.06445,6.168h4.15234Z"/><path class="cls-4" d="M238.11865,72.46777c4.12793,0,6.19239,2.377,6.19239,5.30469a4.9056,4.9056,0,0,1-3.74463,4.87305l3.88867,6.67187h-4.63233L236.31836,82.957H235.334v6.36035H231.23V72.46777Zm-.24023,3.40821H235.334v4.17675h2.54444c1.53613,0,2.25635-.792,2.25635-2.1123C240.13477,76.69238,239.41455,75.876,237.87842,75.876Z"/><path class="cls-4" d="M245.96582,72.46777H258.999v3.28907h-4.46435V89.31738h-4.10449V75.75684h-4.46436Z"/><path class="cls-4" d="M261.06152,72.46777h4.104V89.31738h-4.104Z"/><path class="cls-4" d="M272.24561,72.46777V86.14941h5.37646v3.168H268.1416V72.46777Z"/><path class="cls-4" d="M290.07812,82.38086h-6.38476v6.93652h-4.104V72.46777h4.104v6.60059h6.38476V72.46777h4.1045V89.31738h-4.1045Z"/><path class="cls-4" d="M307.62158,86.34082H301.333l-1.0083,2.97656h-4.29639L302.125,72.46777h4.75244l6.09668,16.84961h-4.34424Zm-3.144-9.33594-2.06445,6.168h4.15234Z"/><path class="cls-4" d="M321.70947,72.46777c4.12793,0,6.19239,2.377,6.19239,5.30469a4.9056,4.9056,0,0,1-3.74463,4.87305l3.88867,6.67187h-4.63233L319.90918,82.957h-.98438v6.36035h-4.104V72.46777Zm-.24023,3.40821H318.9248v4.17675h2.54444c1.53613,0,2.25635-.792,2.25635-2.1123C323.72559,76.69238,323.00537,75.876,321.46924,75.876Z"/></g></svg>