<svg id="BG" xmlns="http://www.w3.org/2000/svg" viewBox="0 0 457.625 182"><defs><style>.cls-1{fill:#284666;opacity:0.3;}.cls-1,.cls-2,.cls-3{isolation:isolate;}.cls-2{fill:#f7a613;}.cls-4{fill:#2f5579;}</style></defs><polygon class="cls-1" points="362.25 20 0 20 95.375 101 0 182 362.25 182 457.625 101 362.25 20"/><polygon class="cls-2" points="362.25 0 0 0 95.375 81 0 162 362.25 162 457.625 81 362.25 0"/><g class="cls-3"><path class="cls-4" d="M116.96729,72.46777h4.104V89.31738h-4.104Z"/><path class="cls-4" d="M139.12061,72.46777V89.31738h-4.1045L128.15137,78.9248V89.31738h-4.104V72.46777h4.104l6.86474,10.44141V72.46777Z"/><path class="cls-4" d="M141.18311,72.46777h13.0332v3.28907H149.752V89.31738h-4.10449V75.75684h-4.46435Z"/><path class="cls-4" d="M166.59961,75.75684h-6.2168V79.165h5.49658v3.168h-5.49658V86.0293h6.2168v3.28808h-10.3208V72.46777h10.3208Z"/><path class="cls-4" d="M176.15137,72.46777c4.12793,0,6.19238,2.377,6.19238,5.30469a4.90559,4.90559,0,0,1-3.74463,4.87305l3.88867,6.67187h-4.63232l-3.5044-6.36035h-.98437v6.36035h-4.104V72.46777Zm-.24024,3.40821H173.3667v4.17675h2.54443c1.53614,0,2.25635-.792,2.25635-2.1123C178.16748,76.69238,177.44727,75.876,175.91113,75.876Z"/><path class="cls-4" d="M200.05566,80.89258c0,4.99316-3.456,8.4248-8.83252,8.4248h-6.3125V72.46777h6.3125C196.59961,72.46777,200.05566,75.876,200.05566,80.89258ZM190.959,85.76465c3.0962,0,4.92041-1.77539,4.92041-4.87207s-1.82421-4.9209-4.92041-4.9209h-1.94433v9.793Z"/><path class="cls-4" d="M212.6792,75.75684h-6.2168V79.165H211.959v3.168H206.4624V86.0293h6.2168v3.28808H202.3584V72.46777h10.3208Z"/><path class="cls-4" d="M221.99023,83.26855H219.4458v6.04883h-4.104V72.46777h6.64843c4.12842,0,6.19239,2.32813,6.19239,5.42481C228.18262,80.67676,226.28662,83.26855,221.99023,83.26855Zm-.312-3.26367c1.63233,0,2.32813-.8164,2.32813-2.1123s-.6958-2.11231-2.32813-2.11231H219.4458v4.22461Z"/><path class="cls-4" d="M240.63818,75.75684h-6.21679V79.165H239.918v3.168h-5.49658V86.0293h6.21679v3.28808h-10.3208V72.46777h10.3208Z"/><path class="cls-4" d="M258.374,72.46777V89.31738h-4.10449L247.40479,78.9248V89.31738h-4.104V72.46777h4.104l6.86474,10.44141V72.46777Z"/><path class="cls-4" d="M276.49365,80.89258c0,4.99316-3.45605,8.4248-8.83252,8.4248h-6.3125V72.46777h6.3125C273.0376,72.46777,276.49365,75.876,276.49365,80.89258ZM267.397,85.76465c3.09619,0,4.92041-1.77539,4.92041-4.87207s-1.82422-4.9209-4.92041-4.9209h-1.94433v9.793Z"/><path class="cls-4" d="M289.11719,75.75684h-6.2168V79.165H288.397v3.168h-5.49658V86.0293h6.2168v3.28808h-10.3208V72.46777h10.3208Zm-1.56006-4.249L283.83691,69.54l-3.7207,1.96777v-2.832l3.7207-1.89648,3.72022,1.89648Z"/><path class="cls-4" d="M306.85352,72.46777V89.31738H302.749L295.88428,78.9248V89.31738h-4.104V72.46777h4.104L302.749,82.90918V72.46777Z"/><path class="cls-4" d="M317.60449,72.27637a7.82287,7.82287,0,0,1,7.99268,5.90429H321.085a3.7118,3.7118,0,0,0-3.52832-2.16015c-2.52,0-4.24853,1.87207-4.24853,4.84765,0,2.97657,1.72851,4.84961,4.24853,4.84961a3.71264,3.71264,0,0,0,3.52832-2.16113h4.51221a7.804,7.804,0,0,1-7.99268,5.88086,8.16658,8.16658,0,0,1-8.47265-8.56934A8.18533,8.18533,0,0,1,317.60449,72.27637Z"/><path class="cls-4" d="M328.11621,72.46777h4.104V89.31738h-4.104Z"/><path class="cls-4" d="M345.68506,86.34082h-6.28858l-1.0083,2.97656H334.0918l6.09668-16.84961h4.75244l6.09668,16.84961h-4.34424Zm-3.144-9.33594-2.06446,6.168h4.15235Z"/></g></svg>