<svg id="BG" xmlns="http://www.w3.org/2000/svg" xmlns:xlink="http://www.w3.org/1999/xlink" viewBox="0 0 457.625 162"><defs><style>.cls-1{isolation:isolate;fill:url(#Gradiente_sem_nome_362);}.cls-2{fill:#fff;}</style><linearGradient id="Gradiente_sem_nome_362" x1="-284.19922" y1="81" x2="456.05078" y2="81" gradientUnits="userSpaceOnUse"><stop offset="0" stop-color="#2f5579"/><stop offset="1" stop-color="#2f8568"/></linearGradient></defs><polygon class="cls-1" points="362.25 0 0 0 95.375 81 0 162 362.25 162 457.625 81 362.25 0"/><path class="cls-2" d="M116.96729,72.46777h4.104V89.31738h-4.104Z"/><path class="cls-2" d="M139.12061,72.46777V89.31738h-4.1045l-6.86474-10.39355V89.31738h-4.104V72.46777h4.104l6.86474,10.44043V72.46777Z"/><path class="cls-2" d="M141.18311,72.46777h13.0332v3.28809H149.752V89.31738h-4.10449V75.75586h-4.46435Z"/><path class="cls-2" d="M166.59961,75.75586h-6.2168v3.4082h5.49658V82.333h-5.49658V86.0293h6.2168v3.28808h-10.3208V72.46777h10.3208Z"/><path class="cls-2" d="M176.15137,72.46777c4.12793,0,6.19238,2.376,6.19238,5.30469a4.90379,4.90379,0,0,1-3.74463,4.87207l3.88867,6.67285h-4.63232l-3.5044-6.36035h-.98437v6.36035h-4.104V72.46777Zm-.24024,3.40821H173.3667v4.17675h2.54443c1.53614,0,2.25635-.792,2.25635-2.1123C178.16748,76.69238,177.44727,75.876,175.91113,75.876Z"/><path class="cls-2" d="M200.05566,80.89258c0,4.99219-3.456,8.4248-8.83252,8.4248h-6.3125V72.46777h6.3125C196.59961,72.46777,200.05566,75.876,200.05566,80.89258Zm-9.09668,4.873c3.0962,0,4.92041-1.77734,4.92041-4.873s-1.82421-4.91992-4.92041-4.91992h-1.94433v9.793Z"/><path class="cls-2" d="M212.6792,75.75586h-6.2168v3.4082H211.959V82.333H206.4624V86.0293h6.2168v3.28808H202.3584V72.46777h10.3208Z"/><path class="cls-2" d="M221.99023,83.26953H219.4458v6.04785h-4.104V72.46777h6.64843c4.12842,0,6.19239,2.32813,6.19239,5.42481C228.18262,80.67676,226.28662,83.26953,221.99023,83.26953Zm-.312-3.26562c1.63233,0,2.32813-.81543,2.32813-2.11133,0-1.29688-.6958-2.11231-2.32813-2.11231H219.4458v4.22364Z"/><path class="cls-2" d="M240.63818,75.75586h-6.21679v3.4082H239.918V82.333h-5.49658V86.0293h6.21679v3.28808h-10.3208V72.46777h10.3208Z"/><path class="cls-2" d="M258.374,72.46777V89.31738h-4.10449l-6.86474-10.39355V89.31738h-4.104V72.46777h4.104l6.86474,10.44043V72.46777Z"/><path class="cls-2" d="M276.49365,80.89258c0,4.99219-3.45605,8.4248-8.83252,8.4248h-6.3125V72.46777h6.3125C273.0376,72.46777,276.49365,75.876,276.49365,80.89258Zm-9.09668,4.873c3.09619,0,4.92041-1.77734,4.92041-4.873s-1.82422-4.91992-4.92041-4.91992h-1.94433v9.793Z"/><path class="cls-2" d="M289.11719,75.75586h-6.2168v3.4082H288.397V82.333h-5.49658V86.0293h6.2168v3.28808h-10.3208V72.46777h10.3208Zm-1.56006-4.248-3.72022-1.96875-3.7207,1.96875v-2.832l3.7207-1.89648,3.72022,1.89648Z"/><path class="cls-2" d="M306.85352,72.46777V89.31738H302.749l-6.86474-10.39355V89.31738h-4.104V72.46777h4.104L302.749,82.9082V72.46777Z"/><path class="cls-2" d="M317.60449,72.27539a7.82366,7.82366,0,0,1,7.99268,5.90527H321.085a3.71264,3.71264,0,0,0-3.52832-2.16113c-2.52,0-4.24853,1.873-4.24853,4.84961,0,2.97559,1.72851,4.84766,4.24853,4.84766a3.71181,3.71181,0,0,0,3.52832-2.16016h4.51221a7.804,7.804,0,0,1-7.99268,5.88086,8.16633,8.16633,0,0,1-8.47265-8.56836A8.18639,8.18639,0,0,1,317.60449,72.27539Z"/><path class="cls-2" d="M328.11621,72.46777h4.104V89.31738h-4.104Z"/><path class="cls-2" d="M345.68506,86.3418h-6.28858l-1.0083,2.97558H334.0918l6.09668-16.84961h4.75244l6.09668,16.84961h-4.34424Zm-3.144-9.33789-2.06446,6.16894h4.15235Z"/></svg>