<svg id="BG" xmlns="http://www.w3.org/2000/svg" viewBox="0 0 457.625 182"><defs><style>.cls-1{fill:#284666;opacity:0.3;}.cls-1,.cls-2,.cls-3{isolation:isolate;}.cls-2{fill:#f7a613;}.cls-4{fill:#2f5579;}</style></defs><polygon class="cls-1" points="362.25 20 0 20 95.375 101 0 182 362.25 182 457.625 101 362.25 20"/><polygon class="cls-2" points="362.25 0 0 0 95.375 81 0 162 362.25 162 457.625 81 362.25 0"/><g class="cls-3"><path class="cls-4" d="M181.57471,83.26855h-2.54444v6.04883h-4.104V72.46777h6.64844c4.12841,0,6.19238,2.32813,6.19238,5.42481C187.76709,80.67676,185.87109,83.26855,181.57471,83.26855Zm-.312-3.26367c1.63232,0,2.32812-.8164,2.32812-2.1123s-.6958-2.11231-2.32812-2.11231h-2.23243v4.22461Z"/><path class="cls-4" d="M200.39111,86.34082h-6.28857l-1.0083,2.97656h-4.29639l6.09668-16.84961H199.647l6.09668,16.84961h-4.34424Zm-3.144-9.33594-2.06445,6.168H199.335Z"/><path class="cls-4" d="M214.479,72.46777c4.12793,0,6.19239,2.377,6.19239,5.30469a4.9056,4.9056,0,0,1-3.74463,4.87305l3.88867,6.67187h-4.63232l-3.5044-6.36035h-.98437v6.36035h-4.104V72.46777Zm-.24023,3.40821h-2.54443v4.17675h2.54443c1.53613,0,2.25635-.792,2.25635-2.1123C216.49512,76.69238,215.7749,75.876,214.23877,75.876Z"/><path class="cls-4" d="M231.01465,72.27637a7.82286,7.82286,0,0,1,7.99267,5.90429h-4.5122a3.7118,3.7118,0,0,0-3.52832-2.16015c-2.52,0-4.24854,1.87207-4.24854,4.84765,0,2.97657,1.72852,4.84961,4.24854,4.84961a3.71264,3.71264,0,0,0,3.52832-2.16113h4.5122a7.804,7.804,0,0,1-7.99267,5.88086,8.16659,8.16659,0,0,1-8.47266-8.56934A8.18534,8.18534,0,0,1,231.01465,72.27637Z"/><path class="cls-4" d="M251.84717,75.75684h-6.2168V79.165H251.127v3.168h-5.49658V86.0293h6.2168v3.28808h-10.3208V72.46777h10.3208Z"/><path class="cls-4" d="M261.39844,72.46777c4.12793,0,6.19238,2.377,6.19238,5.30469a4.90559,4.90559,0,0,1-3.74463,4.87305l3.88867,6.67187h-4.63232l-3.5044-6.36035h-.98437v6.36035h-4.104V72.46777ZM261.1582,75.876h-2.54443v4.17675h2.54443c1.53614,0,2.25635-.792,2.25635-2.1123C263.41455,76.69238,262.69434,75.876,261.1582,75.876Z"/><path class="cls-4" d="M270.15771,72.46777h4.104V89.31738h-4.104Z"/><path class="cls-4" d="M287.72656,86.34082H281.438l-1.0083,2.97656h-4.2959L282.23,72.46777h4.75244l6.09668,16.84961h-4.34424ZM284.582,77.00488l-2.064,6.168h4.15234Z"/></g></svg>