<svg id="BG" xmlns="http://www.w3.org/2000/svg" viewBox="0 0 457.625 182"><defs><style>.cls-1{fill:#284666;opacity:0.3;}.cls-1,.cls-2,.cls-3{isolation:isolate;}.cls-2{fill:#f7a613;}.cls-4{fill:#2f5579;}</style></defs><polygon class="cls-1" points="362.25 20 0 20 95.375 101 0 182 362.25 182 457.625 101 362.25 20"/><polygon class="cls-2" points="362.25 0 0 0 95.375 81 0 162 362.25 162 457.625 81 362.25 0"/><g class="cls-3"><path class="cls-4" d="M201.61523,83.26953h-2.54492v6.04785H194.9668V72.46777h6.64843c4.12793,0,6.19141,2.32813,6.19141,5.42481C207.80664,80.67676,205.91113,83.26953,201.61523,83.26953Zm-.3125-3.26562c1.63282,0,2.32813-.81543,2.32813-2.11133,0-1.29688-.69531-2.11231-2.32813-2.11231h-2.23242v4.22364Z"/><path class="cls-4" d="M217.91113,89.48535a8.62842,8.62842,0,1,1,8.61621-8.64062A8.47693,8.47693,0,0,1,217.91113,89.48535Zm0-3.74414c2.68848,0,4.44043-1.94433,4.44043-4.89648,0-3.001-1.75195-4.89649-4.44043-4.89649-2.73633,0-4.46484,1.89551-4.46484,4.89649C213.44629,83.79688,215.1748,85.74121,217.91113,85.74121Z"/><path class="cls-4" d="M243.95117,80.89258c0,4.99219-3.45605,8.4248-8.832,8.4248h-6.3125V72.46777h6.3125C240.49512,72.46777,243.95117,75.876,243.95117,80.89258Zm-9.09668,4.873c3.09668,0,4.9209-1.77734,4.9209-4.873s-1.82422-4.91992-4.9209-4.91992h-1.94433v9.793Z"/><path class="cls-4" d="M256.57422,75.75586h-6.2168v3.4082h5.49707V82.333h-5.49707V86.0293h6.2168v3.28808H246.25391V72.46777h10.32031Z"/><path class="cls-4" d="M266.126,72.46777c4.12793,0,6.19238,2.376,6.19238,5.30469a4.90386,4.90386,0,0,1-3.74414,4.87207l3.88867,6.67285h-4.63281L264.32617,82.957h-.98437v6.36035h-4.1045V72.46777Zm-.24024,3.40821H263.3418v4.17675h2.54394c1.53614,0,2.25684-.792,2.25684-2.1123C268.14258,76.69238,267.42188,75.876,265.88574,75.876Z"/></g></svg>