<svg xmlns="http://www.w3.org/2000/svg" width="43.219" height="50.42" viewBox="0 0 43.219 50.42">
  <path id="bus" d="M10.8,34.214a3.469,3.469,0,0,0-1.055-2.546A3.474,3.474,0,0,0,7.2,30.612a3.6,3.6,0,0,0-3.6,3.6,3.462,3.462,0,0,0,1.055,2.546A3.474,3.474,0,0,0,7.2,37.815a3.47,3.47,0,0,0,2.546-1.055A3.469,3.469,0,0,0,10.8,34.214Zm28.811,0a3.6,3.6,0,1,0-1.055,2.545,3.469,3.469,0,0,0,1.055-2.545ZM38.321,23.073,36.3,12.269a1.829,1.829,0,0,0-.633-1.055,1.747,1.747,0,0,0-1.139-.41H8.695a1.737,1.737,0,0,0-1.14.408,1.83,1.83,0,0,0-.633,1.056L4.9,23.072a1.783,1.783,0,0,0,.394,1.492,1.7,1.7,0,0,0,1.378.647H36.549a1.7,1.7,0,0,0,1.378-.647,1.783,1.783,0,0,0,.394-1.492ZM31.962,5.853a1.344,1.344,0,0,0-1.35-1.35H12.605a1.344,1.344,0,0,0-1.35,1.35,1.344,1.344,0,0,0,1.35,1.35H30.612a1.344,1.344,0,0,0,1.35-1.35Zm11.255,20.4V43.219h-3.6v3.6a3.6,3.6,0,0,1-7.2,0v-3.6H10.8v3.6a3.47,3.47,0,0,1-1.055,2.546A3.469,3.469,0,0,1,7.2,50.42a3.47,3.47,0,0,1-2.546-1.055A3.474,3.474,0,0,1,3.6,46.82v-3.6H0V26.251a28.487,28.487,0,0,1,.7-6.275L3.6,7.2A5.476,5.476,0,0,1,6.345,3.347a18.593,18.593,0,0,1,6.472-2.5A42.388,42.388,0,0,1,21.609,0,42.576,42.576,0,0,1,30.4.845a18.556,18.556,0,0,1,6.472,2.5A5.479,5.479,0,0,1,39.618,7.2l2.954,12.775a28.529,28.529,0,0,1,.647,6.275Z" fill="#fff"/>
</svg>
