<svg id="Componente_35_3" data-name="Componente 35 – 3" xmlns="http://www.w3.org/2000/svg" width="64.704" height="56.612" viewBox="0 0 64.704 56.612">
  <g id="exclamation-triangle-fill">
    <path id="Caminho_13749" data-name="Caminho 13749" d="M36.316,4.542a4.568,4.568,0,0,0-7.925,0L.666,51.714a4.719,4.719,0,0,0,3.962,7.145H60.074a4.718,4.718,0,0,0,3.962-7.145Z" transform="translate(-0.001 -2.247)" fill="#fc0" fill-rule="evenodd"/>
  </g>
  <g id="Grupo_1536" data-name="Grupo 1536" transform="translate(18.486 21.42)">
    <path id="certificate" d="M14.826,8.275l1.486,1.454a.732.732,0,0,1,.216.754.74.74,0,0,1-.56.549l-2.025.517.571,2a.785.785,0,0,1-.959.959l-2-.571-.517,2.025a.74.74,0,0,1-.549.56,1.313,1.313,0,0,1-.2.022.708.708,0,0,1-.549-.237L8.278,14.824,6.824,16.31a.732.732,0,0,1-.754.216.72.72,0,0,1-.549-.56L5,13.94l-2,.571a.7.7,0,0,1-.754-.2.694.694,0,0,1-.2-.754l.571-2L.587,11.032a.74.74,0,0,1-.56-.549.732.732,0,0,1,.216-.754L1.729,8.275.242,6.821a.732.732,0,0,1-.216-.754.74.74,0,0,1,.56-.549L2.612,5,2.041,3a.7.7,0,0,1,.2-.754A.694.694,0,0,1,3,2.039L5,2.61,5.52.585A.7.7,0,0,1,6.069.036a.7.7,0,0,1,.754.2l1.454,1.5L9.731.241a.721.721,0,0,1,.754-.2.7.7,0,0,1,.549.549l.517,2.025,2-.571a.7.7,0,0,1,.754.2.694.694,0,0,1,.2.754l-.571,2,2.025.517a.74.74,0,0,1,.56.549.732.732,0,0,1-.216.754Z" transform="matrix(0.966, 0.259, -0.259, 0.966, 11.224, 0)"/>
    <path id="certificate-2" data-name="certificate" d="M8.338,4.654l.836.818A.412.412,0,0,1,9.3,5.9.416.416,0,0,1,8.98,6.2L7.841,6.5l.321,1.127a.442.442,0,0,1-.539.539L6.5,7.84,6.206,8.979a.416.416,0,0,1-.309.315.738.738,0,0,1-.115.012.4.4,0,0,1-.309-.133l-.818-.836-.818.836a.412.412,0,0,1-.424.121A.405.405,0,0,1,3.1,8.979L2.814,7.84l-1.127.321a.391.391,0,0,1-.424-.115.391.391,0,0,1-.115-.424L1.469,6.5.33,6.2A.416.416,0,0,1,.015,5.9a.412.412,0,0,1,.121-.424l.836-.818L.136,3.836a.412.412,0,0,1-.121-.424A.416.416,0,0,1,.33,3.1l1.139-.291L1.148,1.686a.391.391,0,0,1,.115-.424.391.391,0,0,1,.424-.115l1.127.321L3.1.329A.392.392,0,0,1,3.413.02a.391.391,0,0,1,.424.115l.818.842L5.473.135A.406.406,0,0,1,5.9.02a.392.392,0,0,1,.309.309L6.5,1.468l1.127-.321a.391.391,0,0,1,.424.115.391.391,0,0,1,.115.424L7.841,2.813,8.98,3.1a.416.416,0,0,1,.315.309.412.412,0,0,1-.121.424Z" transform="matrix(0.966, 0.259, -0.259, 0.966, 2.409, 17.858)"/>
    <path id="certificate-3" data-name="certificate" d="M4.169,2.327l.418.409a.206.206,0,0,1,.061.212A.208.208,0,0,1,4.49,3.1l-.569.145.161.563a.221.221,0,0,1-.27.27L3.248,3.92,3.1,4.49a.208.208,0,0,1-.154.158.369.369,0,0,1-.058.006.2.2,0,0,1-.154-.067l-.409-.418-.409.418a.206.206,0,0,1-.212.061.2.2,0,0,1-.154-.158L1.407,3.92l-.563.161a.2.2,0,0,1-.212-.058.2.2,0,0,1-.058-.212l.161-.563L.165,3.1a.208.208,0,0,1-.158-.154.206.206,0,0,1,.061-.212l.418-.409L.068,1.918a.206.206,0,0,1-.061-.212.208.208,0,0,1,.158-.154l.569-.145L.574.843A.2.2,0,0,1,.631.631.2.2,0,0,1,.844.573l.563.161L1.552.165A.2.2,0,0,1,1.707.01a.2.2,0,0,1,.212.058l.409.421L2.736.068A.2.2,0,0,1,2.949.01.2.2,0,0,1,3.1.165l.145.569L3.812.573a.2.2,0,0,1,.212.058.2.2,0,0,1,.058.212l-.161.563.569.145a.208.208,0,0,1,.158.154.206.206,0,0,1-.061.212Z" transform="matrix(0.966, 0.259, -0.259, 0.966, 17.409, 22.89)"/>
  </g>
</svg>
