<svg id="Componente_36_2" data-name="Componente 36 – 2" xmlns="http://www.w3.org/2000/svg" width="55.833" height="48.851" viewBox="0 0 55.833 48.851">
  <g id="exclamation-triangle-fill">
    <path id="Caminho_13749" data-name="Caminho 13749" d="M31.337,4.227a3.942,3.942,0,0,0-6.838,0L.575,44.932A4.072,4.072,0,0,0,3.994,51.1H51.838a4.071,4.071,0,0,0,3.419-6.165Z" transform="translate(-0.001 -2.247)" fill="#244e66" fill-rule="evenodd"/>
  </g>
  <path id="bus" d="M3.971,12.576a1.275,1.275,0,0,0-.388-.936,1.277,1.277,0,0,0-.936-.388,1.324,1.324,0,0,0-1.324,1.324,1.273,1.273,0,0,0,.388.936,1.277,1.277,0,0,0,.936.388,1.275,1.275,0,0,0,.936-.388A1.275,1.275,0,0,0,3.971,12.576Zm10.59,0a1.324,1.324,0,1,0-.388.935,1.275,1.275,0,0,0,.388-.935Zm-.476-4.1L13.341,4.51a.672.672,0,0,0-.233-.388.642.642,0,0,0-.419-.151H3.2a.638.638,0,0,0-.419.15.673.673,0,0,0-.233.388L1.8,8.48a.655.655,0,0,0,.145.548.626.626,0,0,0,.507.238H13.434a.626.626,0,0,0,.507-.238.655.655,0,0,0,.145-.548Zm-2.337-6.33a.494.494,0,0,0-.5-.5H4.633a.494.494,0,0,0-.5.5.494.494,0,0,0,.5.5h6.619a.494.494,0,0,0,.5-.5Zm4.137,7.5v6.236H14.562V17.21a1.324,1.324,0,0,1-2.648,0V15.886H3.971V17.21a1.275,1.275,0,0,1-.388.936,1.275,1.275,0,0,1-.936.388,1.275,1.275,0,0,1-.936-.388,1.277,1.277,0,0,1-.388-.936V15.886H0V9.649A10.471,10.471,0,0,1,.258,7.343l1.065-4.7A2.013,2.013,0,0,1,2.332,1.23,6.834,6.834,0,0,1,4.711.31,15.581,15.581,0,0,1,7.943,0a15.65,15.65,0,0,1,3.232.31,6.821,6.821,0,0,1,2.379.92,2.014,2.014,0,0,1,1.009,1.417l1.086,4.7a10.486,10.486,0,0,1,.238,2.306Z" transform="translate(19.928 21.771)" fill="#fff"/>
</svg>
