<svg id="Componente_34_2" data-name="Componente 34 – 2" xmlns="http://www.w3.org/2000/svg" xmlns:xlink="http://www.w3.org/1999/xlink" width="55.833" height="48.851" viewBox="0 0 55.833 48.851">
  <defs>
    <clipPath id="clip-path">
      <rect id="Retângulo_1260" data-name="Retângulo 1260" width="16.773" height="30.096" fill="#fff"/>
    </clipPath>
  </defs>
  <g id="exclamation-triangle-fill">
    <path id="Caminho_13749" data-name="Caminho 13749" d="M31.337,4.227a3.942,3.942,0,0,0-6.838,0L.575,44.932A4.072,4.072,0,0,0,3.994,51.1H51.838a4.071,4.071,0,0,0,3.419-6.165Z" transform="translate(-0.001 -2.247)" fill="#244e66" fill-rule="evenodd"/>
  </g>
  <g id="Grupo_1535" data-name="Grupo 1535" transform="translate(19.442 13.062)">
    <g id="Grupo_1534" data-name="Grupo 1534" clip-path="url(#clip-path)">
      <path id="Caminho_13752" data-name="Caminho 13752" d="M15.45,16.519H6.3L5.939,15.14l-.366.095-.325-1.252-.3.077-.869-3.348a1.555,1.555,0,0,0,.441-1.342L3.27,1.319a1.559,1.559,0,0,0-1.78-1.3L1.32.044a1.559,1.559,0,0,0-1.3,1.78L1.269,9.876a1.559,1.559,0,0,0,1.78,1.3l.171-.027a1.566,1.566,0,0,0,.264-.066L4.3,14.23l-.145.037.325,1.252-.335.087.237.913H3.5a1.324,1.324,0,0,0,0,2.647H7.622v2.8h.756v2.345h.605v4.112H5.608a1.04,1.04,0,0,0-1.04,1.04h.483v.308a.325.325,0,1,0,.65,0v-.308h3.49v.308a.325.325,0,1,0,.65,0v-.308h3.405v.308a.325.325,0,1,0,.65,0v-.308h.483a1.04,1.04,0,0,0-1.04-1.04H9.966V24.309h.605V21.965h.756v-2.8H15.45a1.324,1.324,0,0,0,0-2.647" transform="translate(0 0.001)" fill="#fff"/>
    </g>
  </g>
</svg>
