<svg id="Componente_37_2" data-name="Componente 37 – 2" xmlns="http://www.w3.org/2000/svg" width="55.833" height="48.851" viewBox="0 0 55.833 48.851">
  <g id="exclamation-triangle-fill">
    <path id="Caminho_13749" data-name="Caminho 13749" d="M31.337,4.227a3.942,3.942,0,0,0-6.838,0L.575,44.932A4.072,4.072,0,0,0,3.994,51.1H51.838a4.071,4.071,0,0,0,3.419-6.165Z" transform="translate(-0.001 -2.247)" fill="#244e66" fill-rule="evenodd"/>
  </g>
  <path id="flask" d="M16.378,15.038a1.671,1.671,0,0,1,.245,1.737,1.655,1.655,0,0,1-1.6.723H1.9a1.655,1.655,0,0,1-1.6-.723,1.671,1.671,0,0,1,.245-1.737L6.274,6V1.458H5.545a.7.7,0,0,1-.513-.216A.7.7,0,0,1,4.815.729.7.7,0,0,1,5.032.216.7.7,0,0,1,5.545,0h5.833a.7.7,0,0,1,.513.216.7.7,0,0,1,.216.513.7.7,0,0,1-.216.513.7.7,0,0,1-.513.216h-.729V6ZM7.5,6.778l-3.1,4.887h8.111l-3.1-4.887L9.19,6.425V1.458H7.732V6.425Z" transform="translate(19.456 21.771)" fill="#fff"/>
</svg>
