<svg id="Componente_35_2" data-name="Componente 35 – 2" xmlns="http://www.w3.org/2000/svg" width="55.833" height="48.851" viewBox="0 0 55.833 48.851">
  <g id="exclamation-triangle-fill">
    <path id="Caminho_13749" data-name="Caminho 13749" d="M31.337,4.227a3.942,3.942,0,0,0-6.838,0L.575,44.932A4.072,4.072,0,0,0,3.994,51.1H51.838a4.071,4.071,0,0,0,3.419-6.165Z" transform="translate(-0.001 -2.247)" fill="#244e66" fill-rule="evenodd"/>
  </g>
  <g id="Grupo_1536" data-name="Grupo 1536" transform="translate(16.04 18.715)">
    <path id="certificate" d="M12.7,7.086l1.273,1.245a.627.627,0,0,1,.185.646.634.634,0,0,1-.48.47l-1.734.443.489,1.715a.673.673,0,0,1-.821.821l-1.715-.489-.443,1.734a.634.634,0,0,1-.47.48,1.124,1.124,0,0,1-.175.018.607.607,0,0,1-.47-.2L7.088,12.694,5.843,13.967a.627.627,0,0,1-.646.185.617.617,0,0,1-.47-.48l-.443-1.734-1.715.489a.6.6,0,0,1-.646-.175.6.6,0,0,1-.175-.646L2.237,9.89.5,9.447a.634.634,0,0,1-.48-.47.627.627,0,0,1,.185-.646L1.481,7.086.208,5.841A.627.627,0,0,1,.023,5.2a.634.634,0,0,1,.48-.47l1.734-.443L1.748,2.567a.6.6,0,0,1,.175-.646.6.6,0,0,1,.646-.175l1.715.489L4.727.5A.6.6,0,0,1,5.2.031a.6.6,0,0,1,.646.175L7.088,1.488,8.333.206A.617.617,0,0,1,8.979.031a.6.6,0,0,1,.47.47l.443,1.734,1.715-.489a.6.6,0,0,1,.646.175.6.6,0,0,1,.175.646l-.489,1.715,1.734.443a.634.634,0,0,1,.48.47.627.627,0,0,1-.185.646Z" transform="matrix(0.966, 0.259, -0.259, 0.966, 9.612, 0)" fill="#fff"/>
    <path id="certificate-2" data-name="certificate" d="M7.14,3.985l.716.7a.353.353,0,0,1,.1.363.356.356,0,0,1-.27.264l-.975.249.275.965a.378.378,0,0,1-.462.462l-.965-.275-.249.975a.356.356,0,0,1-.264.27.632.632,0,0,1-.1.01.341.341,0,0,1-.264-.114l-.7-.716-.7.716a.353.353,0,0,1-.363.1.347.347,0,0,1-.264-.27L2.41,6.714l-.965.275a.335.335,0,0,1-.363-.1.334.334,0,0,1-.1-.363l.275-.965L.283,5.313a.356.356,0,0,1-.27-.264.353.353,0,0,1,.1-.363l.716-.7-.716-.7a.353.353,0,0,1-.1-.363.356.356,0,0,1,.27-.264l.975-.249L.983,1.444a.335.335,0,0,1,.1-.363.334.334,0,0,1,.363-.1l.965.275L2.658.282A.336.336,0,0,1,2.923.017a.335.335,0,0,1,.363.1l.7.721.7-.721a.347.347,0,0,1,.363-.1.336.336,0,0,1,.264.264l.249.975L6.528.982a.335.335,0,0,1,.363.1.334.334,0,0,1,.1.363l-.275.965.975.249a.356.356,0,0,1,.27.264.353.353,0,0,1-.1.363Z" transform="matrix(0.966, 0.259, -0.259, 0.966, 2.063, 15.292)" fill="#fff"/>
    <path id="certificate-3" data-name="certificate" d="M3.57,1.993l.358.35a.176.176,0,0,1,.052.182.178.178,0,0,1-.135.132l-.488.124.137.482a.189.189,0,0,1-.231.231l-.482-.137-.124.488a.178.178,0,0,1-.132.135.316.316,0,0,1-.049.005.171.171,0,0,1-.132-.057l-.35-.358-.35.358a.176.176,0,0,1-.182.052.173.173,0,0,1-.132-.135L1.2,3.357l-.482.137a.167.167,0,0,1-.182-.049.167.167,0,0,1-.049-.182l.137-.482L.141,2.657a.178.178,0,0,1-.135-.132.176.176,0,0,1,.052-.182l.358-.35-.358-.35a.176.176,0,0,1-.052-.182.178.178,0,0,1,.135-.132L.629,1.2.492.722A.167.167,0,0,1,.541.54.167.167,0,0,1,.722.491L1.2.629,1.329.141A.168.168,0,0,1,1.461.009a.167.167,0,0,1,.182.049l.35.361.35-.361A.174.174,0,0,1,2.525.009a.168.168,0,0,1,.132.132l.124.488L3.264.491A.167.167,0,0,1,3.446.54a.167.167,0,0,1,.049.182L3.357,1.2l.488.124a.178.178,0,0,1,.135.132.176.176,0,0,1-.052.182Z" transform="matrix(0.966, 0.259, -0.259, 0.966, 14.908, 19.601)" fill="#fff"/>
  </g>
</svg>
