<svg id="Componente_36_3" data-name="Componente 36 – 3" xmlns="http://www.w3.org/2000/svg" width="64.704" height="56.612" viewBox="0 0 64.704 56.612">
  <g id="exclamation-triangle-fill">
    <path id="Caminho_13749" data-name="Caminho 13749" d="M36.316,4.542a4.568,4.568,0,0,0-7.925,0L.666,51.714a4.719,4.719,0,0,0,3.962,7.145H60.074a4.718,4.718,0,0,0,3.962-7.145Z" transform="translate(-0.001 -2.247)" fill="#fc0" fill-rule="evenodd"/>
  </g>
  <path id="bus" d="M4.638,14.686a1.489,1.489,0,0,0-.453-1.093,1.491,1.491,0,0,0-1.093-.453,1.547,1.547,0,0,0-1.546,1.546A1.486,1.486,0,0,0,2,15.779a1.491,1.491,0,0,0,1.094.453,1.489,1.489,0,0,0,1.093-.453A1.489,1.489,0,0,0,4.638,14.686Zm12.367,0a1.546,1.546,0,1,0-.453,1.092A1.489,1.489,0,0,0,17,14.686ZM16.449,9.9,15.58,5.266a.785.785,0,0,0-.272-.453.75.75,0,0,0-.489-.176H3.732a.746.746,0,0,0-.489.175.786.786,0,0,0-.272.453L2.1,9.9a.765.765,0,0,0,.169.64.732.732,0,0,0,.592.278H15.688a.732.732,0,0,0,.592-.278.765.765,0,0,0,.169-.64ZM13.72,2.512a.577.577,0,0,0-.58-.58H5.411a.577.577,0,0,0-.58.58.577.577,0,0,0,.58.58H13.14a.577.577,0,0,0,.58-.58Zm4.831,8.756v7.283H17.005V20.1a1.546,1.546,0,0,1-3.092,0V18.551H4.638V20.1a1.489,1.489,0,0,1-.453,1.093,1.489,1.489,0,0,1-1.093.453A1.489,1.489,0,0,1,2,21.19,1.491,1.491,0,0,1,1.546,20.1V18.551H0V11.268A12.228,12.228,0,0,1,.3,8.575L1.546,3.091A2.35,2.35,0,0,1,2.723,1.437,7.981,7.981,0,0,1,5.5.362,18.2,18.2,0,0,1,9.276,0,18.276,18.276,0,0,1,13.05.363a7.965,7.965,0,0,1,2.778,1.075,2.352,2.352,0,0,1,1.178,1.654l1.268,5.483a12.246,12.246,0,0,1,.278,2.693Z" transform="translate(23.024 25.112)"/>
</svg>
