<svg id="Componente_33_2" data-name="Componente 33 – 2" xmlns="http://www.w3.org/2000/svg" width="55.833" height="48.851" viewBox="0 0 55.833 48.851">
  <g id="exclamation-triangle-fill">
    <path id="Caminho_13749" data-name="Caminho 13749" d="M31.337,4.227a3.942,3.942,0,0,0-6.838,0L.575,44.932A4.072,4.072,0,0,0,3.994,51.1H51.838a4.071,4.071,0,0,0,3.419-6.165Z" transform="translate(-0.001 -2.247)" fill="#244e66" fill-rule="evenodd"/>
  </g>
  <path id="bolt" d="M15.486,7.664a.658.658,0,0,1,.122.77L6.159,28.68a.769.769,0,0,1-.735.438,1.478,1.478,0,0,1-.245-.035.746.746,0,0,1-.446-.332.662.662,0,0,1-.078-.525L8.1,14.086,1,15.853a.923.923,0,0,1-.21.018.814.814,0,0,1-.543-.192A.654.654,0,0,1,.017,15L3.534.56a.753.753,0,0,1,.28-.4A.792.792,0,0,1,4.3,0h5.739a.777.777,0,0,1,.56.218.7.7,0,0,1,.228.518.716.716,0,0,1-.087.315l-2.993,8.1L14.68,7.437a.962.962,0,0,1,.21-.035.821.821,0,0,1,.6.263Z" transform="translate(20.077 14.668)" fill="#fff"/>
</svg>
