<svg id="Componente_33_3" data-name="Componente 33 – 3" xmlns="http://www.w3.org/2000/svg" width="64.704" height="56.612" viewBox="0 0 64.704 56.612">
  <g id="exclamation-triangle-fill">
    <path id="Caminho_13749" data-name="Caminho 13749" d="M36.316,4.542a4.568,4.568,0,0,0-7.925,0L.666,51.714a4.719,4.719,0,0,0,3.962,7.145H60.074a4.718,4.718,0,0,0,3.962-7.145Z" transform="translate(-0.001 -2.247)" fill="#fc0" fill-rule="evenodd"/>
  </g>
  <path id="bolt" d="M18.761,9.285a.8.8,0,0,1,.148.933L7.461,34.744a.932.932,0,0,1-.891.53,1.791,1.791,0,0,1-.3-.042.9.9,0,0,1-.541-.4.8.8,0,0,1-.1-.636L9.814,17.065,1.208,19.206a1.118,1.118,0,0,1-.255.022A.987.987,0,0,1,.3,18.994a.793.793,0,0,1-.275-.827L4.282.678A.913.913,0,0,1,4.621.19.96.96,0,0,1,5.215,0h6.953a.941.941,0,0,1,.678.265.844.844,0,0,1,.276.627.868.868,0,0,1-.106.381L9.391,11.087,17.785,9.01a1.166,1.166,0,0,1,.255-.042,1,1,0,0,1,.721.318Z" transform="translate(22.854 17.084)"/>
</svg>
