<svg id="Componente_37_3" data-name="Componente 37 – 3" xmlns="http://www.w3.org/2000/svg" width="64.704" height="56.612" viewBox="0 0 64.704 56.612">
  <g id="exclamation-triangle-fill">
    <path id="Caminho_13749" data-name="Caminho 13749" d="M36.316,4.542a4.568,4.568,0,0,0-7.925,0L.666,51.714a4.719,4.719,0,0,0,3.962,7.145H60.074a4.718,4.718,0,0,0,3.962-7.145Z" transform="translate(-0.001 -2.247)" fill="#fc0" fill-rule="evenodd"/>
  </g>
  <path id="flask" d="M19.1,17.561a1.952,1.952,0,0,1,.286,2.029,1.932,1.932,0,0,1-1.869.845H2.193a1.932,1.932,0,0,1-1.869-.845A1.952,1.952,0,0,1,.61,17.561L7.3,7.011V1.7H6.45a.82.82,0,0,1-.6-.253A.815.815,0,0,1,5.6.851a.821.821,0,0,1,.253-.6A.817.817,0,0,1,6.45,0h6.811a.82.82,0,0,1,.6.253.815.815,0,0,1,.253.6.821.821,0,0,1-.253.6.817.817,0,0,1-.6.253H12.41V7.011ZM8.738,7.915,5.119,13.623h9.472L10.973,7.915,10.707,7.5V1.7H9V7.5Z" transform="translate(22.496 25.122)"/>
</svg>
