<svg xmlns="http://www.w3.org/2000/svg" width="47.903" height="50.42" viewBox="0 0 47.903 50.42">
  <path id="flask" d="M46.914,43.331q1.839,2.922.706,5.006T43.008,50.42H5.193q-3.479,0-4.612-2.084t.706-5.006L17.8,17.3V4.2H15.7a2.022,2.022,0,0,1-1.478-.623A2.012,2.012,0,0,1,13.6,2.1,2.026,2.026,0,0,1,14.219.623,2.016,2.016,0,0,1,15.7,0H32.5a2.022,2.022,0,0,1,1.478.623A2.012,2.012,0,0,1,34.6,2.1a2.026,2.026,0,0,1-.623,1.478A2.016,2.016,0,0,1,32.5,4.2H30.4V17.3Zm-25.572-23.8L12.414,33.614H35.787L26.858,19.531,26.2,18.513V4.2H22V18.514Z" transform="translate(-0.149)" fill="#fff"/>
</svg>
