<svg xmlns="http://www.w3.org/2000/svg" width="80.737" height="115.596" viewBox="0 0 80.737 115.596">
  <g id="Grupo_1766" data-name="Grupo 1766" transform="translate(-456.211 -12877.018) rotate(9)">
    <path id="Caminho_27215" data-name="Caminho 27215" d="M60.433,27.161,35.025,3a3.627,3.627,0,0,0-4.936-.058L6.232,24.584A13.436,13.436,0,0,0,2.138,36.311a13.779,13.779,0,0,0,5.687,9.166A162.393,162.393,0,0,1,23.25,57.963C13.932,69.054,8.324,97.3,7.952,97.95l11.082-3.538,3.978,12.19c.076-.133,4.615-26.5,12.072-35.662,3.064,4.231,4.044,13.271,4.621,16.574l5.512-8.487,11.6,5.5C55.638,77.8,52.983,65.46,47.021,57.938A108.794,108.794,0,0,1,59.039,47.911a13.461,13.461,0,0,0,1.395-20.75M35.112,45.283c-4.738-4.378-9.512-8.219-13.562-11.271l10.071-9.494a.5.5,0,0,1,.688,0L45.138,36.613a131.073,131.073,0,0,0-10.026,8.67" transform="translate(2480.583 12643.583)" fill="#0180ff"/>
    <path id="Caminho_27210_-_Contorno" data-name="Caminho 27210 - Contorno" d="M31.391,0h0a4.477,4.477,0,0,1,3.1,1.237L59.895,25.4a14.327,14.327,0,0,1-1.486,22.085A107.323,107.323,0,0,0,47.05,56.895,45.437,45.437,0,0,1,53.4,70.131a98.555,98.555,0,0,1,3.13,13.109.866.866,0,0,1-1.225.932L44.4,79l-5.1,7.851a.866.866,0,0,1-1.58-.323c-.085-.488-.178-1.089-.285-1.785-.537-3.493-1.495-9.725-3.545-13.416-4,5.707-7.987,17.849-11.041,33.712-.036.189-.065.336-.085.436a1.212,1.212,0,0,1-.134.424.866.866,0,0,1-1.575-.163L17.344,94.366,7.082,97.642A.866.866,0,0,1,6.029,96.46c.063-.19.256-.991.478-1.913.827-3.431,2.547-10.57,5.058-18.061,2.969-8.852,6.117-15.429,9.365-19.57A162.744,162.744,0,0,0,6.187,45.047a15.1,15.1,0,0,1-4.013-4.257A14,14,0,0,1,.147,35.3,14.509,14.509,0,0,1,.07,31.832,14.3,14.3,0,0,1,4.5,22.82l.012-.011L28.373,1.165A4.483,4.483,0,0,1,31.391,0ZM54.527,81.884c-2.1-11.13-5.229-19.381-9.319-24.542a.866.866,0,0,1,.08-1.164A109.826,109.826,0,0,1,57.4,46.072a12.594,12.594,0,0,0,1.3-19.414l0,0L33.294,2.493a2.76,2.76,0,0,0-3.757-.044L5.686,24.087A12.641,12.641,0,0,0,1.863,35.055,12.948,12.948,0,0,0,7.2,43.639,163.076,163.076,0,0,1,22.7,56.193a.866.866,0,0,1,.075,1.194C15.016,66.628,9.88,87.947,8.192,94.952l-.135.56,9.58-3.059a.866.866,0,0,1,1.087.557l2.95,9.041c.974-4.762,2.047-9.223,3.2-13.292,2.633-9.32,5.462-15.881,8.408-19.5a.866.866,0,0,1,1.374.039,22.027,22.027,0,0,1,3.057,7.538c.638,2.575,1.056,5.178,1.365,7.179l4.283-6.594a.866.866,0,0,1,1.1-.311Zm-23.7-59.5a1.363,1.363,0,0,1,.938.372L44.6,34.849a.866.866,0,0,1-.063,1.314,130.647,130.647,0,0,0-9.96,8.613.866.866,0,0,1-1.186.01c-4.076-3.766-8.617-7.54-13.5-11.215a.866.866,0,0,1-.073-1.322l10.071-9.494A1.363,1.363,0,0,1,30.832,22.382ZM42.678,35.419,30.832,24.251l-9.075,8.556c4.38,3.335,8.481,6.746,12.213,10.157C36.829,40.266,39.753,37.733,42.678,35.419Z" transform="translate(2481.716 12644.717)" fill="#fff"/>
    <path id="Caminho_27211" data-name="Caminho 27211" d="M51.051,114.59a150.489,150.489,0,0,1,11.862-12.679" transform="translate(2452.782 12586.955)" fill="#294667"/>
    <path id="Caminho_27211_-_Contorno" data-name="Caminho 27211 - Contorno" d="M49.917,114.323a.866.866,0,0,1-.669-1.417,152.673,152.673,0,0,1,11.942-12.764.866.866,0,0,1,1.179,1.27,150.677,150.677,0,0,0-11.782,12.595A.865.865,0,0,1,49.917,114.323Z" transform="translate(2453.916 12588.089)" fill="#fff"/>
    <path id="Caminho_27212" data-name="Caminho 27212" d="M78.367,144.125c8.357-10.372,11.937-13,11.937-13" transform="translate(2437.3 12570.399)" fill="#294667"/>
    <path id="Caminho_27212_-_Contorno" data-name="Caminho 27212 - Contorno" d="M77.233,143.858a.866.866,0,0,1-.674-1.41c8.332-10.341,11.949-13.047,12.1-13.158a.866.866,0,1,1,1.026,1.4,29.6,29.6,0,0,0-2.8,2.6c-1.746,1.765-4.72,4.976-8.972,10.253A.865.865,0,0,1,77.233,143.858Z" transform="translate(2438.433 12571.532)" fill="#fff"/>
    <path id="Caminho_27213" data-name="Caminho 27213" d="M105.8,62.2c.852,2.389-1.6,5.446-3.049,7.207-.584.692-1.212,1.336-1.84,1.988a.871.871,0,1,1-1.123-1.32c2.132-1.606,6.531-4.887,6.012-7.875" transform="translate(2425.367 12609.465)" fill="#fff"/>
    <path id="Caminho_27214" data-name="Caminho 27214" d="M16.157,63.9c4.883-.193,11.118.354,14.167,4.742a.868.868,0,1,1-1.448.958c-2.247-4.24-8.3-5.368-12.718-5.7" transform="translate(2472.559 12608.517)" fill="#fff"/>
    <path id="Retângulo_1373_-_Contorno" data-name="Retângulo 1373 - Contorno" d="M-.5-.5H64.333V106.269H-.5Zm64.4.433H-.067v105.9H63.9Z" transform="translate(2482 12645)" fill="#294667"/>
  </g>
</svg>
