<svg id="Grupo_1756" data-name="Grupo 1756" xmlns="http://www.w3.org/2000/svg" xmlns:xlink="http://www.w3.org/1999/xlink" width="32.24" height="57.847" viewBox="0 0 32.24 57.847">
  <defs>
    <clipPath id="clip-path">
      <rect id="Retângulo_1260" data-name="Retângulo 1260" width="32.24" height="57.847" fill="#fff"/>
    </clipPath>
  </defs>
  <g id="Grupo_1534" data-name="Grupo 1534" clip-path="url(#clip-path)">
    <path id="Caminho_13752" data-name="Caminho 13752" d="M29.7,31.753H12.1l-.688-2.65-.7.183-.625-2.406-.573.149L7.844,20.593a2.989,2.989,0,0,0,.847-2.579L6.286,2.536A3,3,0,0,0,2.865.035L2.537.086a3,3,0,0,0-2.5,3.421l2.4,15.477a3,3,0,0,0,3.421,2.5l.329-.051a3.009,3.009,0,0,0,.508-.128l1.57,6.045-.278.072.625,2.406L7.969,30l.456,1.756h-1.7a2.544,2.544,0,0,0,0,5.088H14.65v5.378H16.1v4.507h1.163v7.9H10.78a2,2,0,0,0-2,2H9.71v.592a.625.625,0,1,0,1.25,0v-.592h6.709v.592a.625.625,0,1,0,1.25,0v-.592h6.545v.592a.625.625,0,1,0,1.25,0v-.592h.929a2,2,0,0,0-2-2H19.156v-7.9h1.163V42.219h1.454V36.841H29.7a2.544,2.544,0,0,0,0-5.088" transform="translate(0 0.001)" fill="#fff"/>
  </g>
</svg>
