<svg id="Grupo_1755" data-name="Grupo 1755" xmlns="http://www.w3.org/2000/svg" width="58" height="62.359" viewBox="0 0 58 62.359">
  <path id="certificate" d="M31.6,17.636l3.167,3.1a1.56,1.56,0,0,1,.459,1.607,1.577,1.577,0,0,1-1.194,1.17l-4.315,1.1,1.216,4.269a1.674,1.674,0,0,1-2.043,2.043l-4.269-1.216-1.1,4.315a1.577,1.577,0,0,1-1.17,1.194,2.8,2.8,0,0,1-.436.046,1.51,1.51,0,0,1-1.17-.505l-3.1-3.167-3.1,3.167a1.56,1.56,0,0,1-1.607.459,1.535,1.535,0,0,1-1.17-1.194l-1.1-4.315L6.394,30.927a1.482,1.482,0,0,1-1.607-.436,1.48,1.48,0,0,1-.436-1.607l1.216-4.269-4.315-1.1a1.577,1.577,0,0,1-1.194-1.17,1.561,1.561,0,0,1,.459-1.607l3.167-3.1-3.168-3.1A1.56,1.56,0,0,1,.057,12.93a1.577,1.577,0,0,1,1.194-1.17l4.315-1.1L4.35,6.389a1.482,1.482,0,0,1,.436-1.607,1.48,1.48,0,0,1,1.607-.436l4.269,1.216,1.1-4.315a1.486,1.486,0,0,1,1.17-1.17,1.482,1.482,0,0,1,1.607.436L17.64,3.7l3.1-3.191A1.537,1.537,0,0,1,22.346.077a1.486,1.486,0,0,1,1.17,1.17l1.1,4.315,4.269-1.216a1.482,1.482,0,0,1,1.607.436,1.48,1.48,0,0,1,.436,1.607l-1.216,4.269,4.315,1.1a1.577,1.577,0,0,1,1.194,1.17,1.561,1.561,0,0,1-.459,1.607Z" transform="matrix(0.966, 0.259, -0.259, 0.966, 23.921, 0)" fill="#fff"/>
  <path id="certificate-2" data-name="certificate" d="M17.771,9.919l1.781,1.743a.877.877,0,0,1,.258.9.887.887,0,0,1-.671.658l-2.427.62.684,2.4a.941.941,0,0,1-1.149,1.149l-2.4-.684-.62,2.427a.887.887,0,0,1-.658.671,1.574,1.574,0,0,1-.245.026.849.849,0,0,1-.658-.284L9.922,17.769,8.179,19.55a.877.877,0,0,1-.9.258.863.863,0,0,1-.658-.671L6,16.71l-2.4.684a.834.834,0,0,1-.9-.245.832.832,0,0,1-.245-.9l.684-2.4L.7,13.224a.887.887,0,0,1-.671-.658.878.878,0,0,1,.258-.9L2.072,9.919.291,8.176a.877.877,0,0,1-.258-.9A.887.887,0,0,1,.7,6.614l2.427-.62-.684-2.4a.834.834,0,0,1,.245-.9.832.832,0,0,1,.9-.245L6,3.128,6.616.7A.836.836,0,0,1,7.275.043a.834.834,0,0,1,.9.245L9.921,2.083,11.664.288a.864.864,0,0,1,.9-.245A.836.836,0,0,1,13.226.7l.62,2.427,2.4-.684a.834.834,0,0,1,.9.245.832.832,0,0,1,.245.9l-.684,2.4,2.427.62a.887.887,0,0,1,.671.658.878.878,0,0,1-.258.9Z" transform="matrix(0.966, 0.259, -0.259, 0.966, 5.135, 38.059)" fill="#fff"/>
  <path id="certificate-3" data-name="certificate" d="M8.885,4.96l.891.871a.439.439,0,0,1,.129.452.444.444,0,0,1-.336.329l-1.214.31.342,1.2a.471.471,0,0,1-.575.575l-1.2-.342-.31,1.213a.444.444,0,0,1-.329.336.787.787,0,0,1-.123.013.425.425,0,0,1-.329-.142l-.871-.891-.871.891a.439.439,0,0,1-.452.129.432.432,0,0,1-.329-.336L3,8.355,1.8,8.7a.417.417,0,0,1-.452-.123.416.416,0,0,1-.123-.452l.342-1.2L.352,6.612a.444.444,0,0,1-.336-.329.439.439,0,0,1,.129-.452l.891-.871L.145,4.088a.439.439,0,0,1-.129-.452.444.444,0,0,1,.336-.329L1.565,3,1.223,1.8a.417.417,0,0,1,.123-.452A.416.416,0,0,1,1.8,1.222L3,1.564,3.308.351A.418.418,0,0,1,3.637.022a.417.417,0,0,1,.452.123l.871.9.871-.9A.432.432,0,0,1,6.284.022a.418.418,0,0,1,.329.329l.31,1.214,1.2-.342a.417.417,0,0,1,.452.123A.416.416,0,0,1,8.7,1.8L8.356,3l1.214.31a.444.444,0,0,1,.336.329.439.439,0,0,1-.129.452Z" transform="matrix(0.966, 0.259, -0.259, 0.966, 37.104, 48.784)" fill="#fff"/>
</svg>
