<svg xmlns="http://www.w3.org/2000/svg" xmlns:xlink="http://www.w3.org/1999/xlink" width="72" height="72" viewBox="0 0 72 72">
  <defs>
    <clipPath id="clip-path">
      <rect id="Retângulo_984" data-name="Retângulo 984" width="72" height="72" transform="translate(272.04 0)" fill="#fff"/>
    </clipPath>
  </defs>
  <g id="icon-interação-estima" transform="translate(-306.04 13)">
    <g id="Grupo_1294" data-name="Grupo 1294" transform="translate(34 -13)" clip-path="url(#clip-path)">
      <path id="Caminho_1412" data-name="Caminho 1412" d="M329.106,57.069H287.6V15.564h41.5Zm2.966-29.646a2.964,2.964,0,0,1,2.964-2.965V21.494a2.965,2.965,0,0,1,0-5.93V9.635h-5.93a2.964,2.964,0,1,1-5.929,0h-2.963a2.965,2.965,0,1,1-5.93,0h-2.965a2.964,2.964,0,1,1-5.928,0h-2.965a2.964,2.964,0,1,1-5.929,0h-2.964a2.965,2.965,0,1,1-5.93,0h-5.929v5.929a2.965,2.965,0,0,1,0,5.93v2.964a2.965,2.965,0,0,1,0,5.93v2.964a2.965,2.965,0,0,1,0,5.93v2.964a2.965,2.965,0,1,1,0,5.929V51.14a2.965,2.965,0,1,1,0,5.929V63H287.6a2.965,2.965,0,1,1,5.93,0H296.5a2.964,2.964,0,1,1,5.929,0h2.965a2.964,2.964,0,1,1,5.928,0h2.965a2.965,2.965,0,1,1,5.93,0h2.963a2.964,2.964,0,1,1,5.929,0h5.93v-5.93a2.965,2.965,0,0,1,0-5.929V48.175a2.965,2.965,0,0,1,0-5.929V39.282a2.965,2.965,0,0,1,0-5.93V30.388a2.964,2.964,0,0,1-2.964-2.965" fill="#fff"/>
      <path id="Caminho_1413" data-name="Caminho 1413" d="M314.121,35.086c-3.787-7.508-10.213-3.009-10.213,1.23,0,6.308,10.213,14.082,10.213,14.082s10.2-7.8,10.2-14.082c0-4.239-6.425-8.738-10.2-1.23" fill="#fff"/>
      <path id="Caminho_1414" data-name="Caminho 1414" d="M302.426,36.317a6.811,6.811,0,0,1,1.942-4.6,6.134,6.134,0,0,1,9.753.63,7.184,7.184,0,0,1,3.128-2.408c-.163-5.144-7.975-10.488-12.6-1.32-4.669-9.264-12.6-3.7-12.6,1.483,0,7.782,12.6,17.417,12.6,17.417s.927-.741,2.268-1.9c-2.371-2.765-4.491-6.13-4.491-9.3" fill="#fff"/>
    </g>
  </g>
</svg>
