<svg id="icone-mão-tela-58" xmlns="http://www.w3.org/2000/svg" xmlns:xlink="http://www.w3.org/1999/xlink" width="44.052" height="27.141" viewBox="0 0 44.052 27.141">
  <defs>
    <clipPath id="clip-path">
      <rect id="Retângulo_1153" data-name="Retângulo 1153" width="44.052" height="27.141"/>
    </clipPath>
  </defs>
  <g id="Grupo_1688" data-name="Grupo 1688" clip-path="url(#clip-path)">
    <path id="Caminho_2158" data-name="Caminho 2158" d="M443.269,17.693a3.994,3.994,0,0,0-1.027-2.67,3.966,3.966,0,0,0,2.527-3.7,3.908,3.908,0,0,0-.884-2.486h4.972a4.062,4.062,0,0,0,4.13-3.986,4.062,4.062,0,0,0-4.13-3.986H422.867a13.83,13.83,0,0,0-13.931,13.7,13.7,13.7,0,0,0,13.931,13.435h14.9a3.967,3.967,0,0,0,3.966-3.965,3.908,3.908,0,0,0-1.024-2.648,3.974,3.974,0,0,0,2.572-3.7m-2.492-3.986H431.62V8.961h9.164a2.373,2.373,0,0,1,0,4.746m10.6-8.855a2.5,2.5,0,0,1-2.528,2.442H431.639V5.613a5.085,5.085,0,0,0-.821-3.205h18.039a2.5,2.5,0,0,1,2.528,2.445M410.539,14.57A12.246,12.246,0,0,1,422.867,2.429h4.458a3.231,3.231,0,0,1,2.055.76,3.3,3.3,0,0,1,.657,2.428v12.3a2.363,2.363,0,1,1-4.726,0V8.9a1.014,1.014,0,0,0-.041-.247V8.427a.8.8,0,1,0-1.6,0h0a8.963,8.963,0,0,1-6.76,8.342.772.772,0,0,0-.546.946l.011.04a.79.79,0,0,0,.761.576.869.869,0,0,0,.226-.042,10.51,10.51,0,0,0,6.329-4.726v4.357a3.982,3.982,0,0,0,3.966,3.966h.122a3.854,3.854,0,0,0-.638,2.157,4.009,4.009,0,0,0,.822,2.424h-5.1a12.133,12.133,0,0,1-12.328-11.9m27.225,11.835h-6.657a2.363,2.363,0,0,1,0-4.726h6.657a2.363,2.363,0,1,1,0,4.726m1.542-6.349H431a4.008,4.008,0,0,0,.637-2.137V15.331H439.3a2.363,2.363,0,0,1,0,4.726" transform="translate(-408.936 -0.866)"/>
  </g>
</svg>
