<svg xmlns="http://www.w3.org/2000/svg" width="32" height="32" viewBox="0 0 32 32"><defs><style>.a{fill:#294667;}</style></defs><g transform="translate(-2.5 -2.5)"><path class="a" d="M16.944,2.5A14.444,14.444,0,0,1,27.158,27.158,14.444,14.444,0,1,1,6.731,6.731,14.35,14.35,0,0,1,16.944,2.5Zm0,24.889A10.444,10.444,0,1,0,6.5,16.944,10.456,10.456,0,0,0,16.944,27.389Z"/><path class="a" d="M31.742,33.742a1.994,1.994,0,0,1-1.414-.586l-6.767-6.767a2,2,0,0,1,2.828-2.828l6.767,6.767a2,2,0,0,1-1.414,3.414Z" transform="translate(0.758 0.758)"/></g></svg>