<svg xmlns="http://www.w3.org/2000/svg" width="23" height="23" viewBox="0 0 23 23">
  <g id="icon-2-interação-slide-34" transform="translate(-6468 -6449)">
    <circle id="Elipse_24" data-name="Elipse 24" cx="11.5" cy="11.5" r="11.5" transform="translate(6468 6449)" fill="#294667" opacity="0.5"/>
    <circle id="Elipse_23" data-name="Elipse 23" cx="9.994" cy="9.994" r="9.994" transform="matrix(1, 0.017, -0.017, 1, 6469.841, 6450.502)" fill="#294667"/>
    <path id="Icon_awesome-eye" data-name="Icon awesome-eye" d="M12.94,8.51A7.249,7.249,0,0,0,6.509,4.5,7.25,7.25,0,0,0,.079,8.51a.731.731,0,0,0,0,.66,7.249,7.249,0,0,0,6.431,4.01,7.25,7.25,0,0,0,6.431-4.01A.731.731,0,0,0,12.94,8.51ZM6.509,12.094A3.255,3.255,0,1,1,9.764,8.84,3.255,3.255,0,0,1,6.509,12.094Zm0-5.424a2.154,2.154,0,0,0-.572.086A1.081,1.081,0,0,1,4.425,8.267a2.165,2.165,0,1,0,2.084-1.6Z" transform="translate(6473.33 6451.829)" fill="#fff"/>
  </g>
</svg>
