<?xml version="1.0" encoding="utf-8"?>
<!-- Generator: Adobe Illustrator 26.5.0, SVG Export Plug-In . SVG Version: 6.00 Build 0)  -->
<svg version="1.1" id="Camada_1" xmlns="http://www.w3.org/2000/svg" xmlns:xlink="http://www.w3.org/1999/xlink" x="0px" y="0px"
	 viewBox="0 0 643.9 289.1" style="enable-background:new 0 0 643.9 289.1;" xml:space="preserve">
<style type="text/css">
	.st0{fill:#F4BB2A;}
	.st1{fill:#108141;}
	.st2{fill:#29696D;}
	.st3{fill:#54BFCD;}
	.st4{fill:#1B8992;}
</style>
<path class="st0" d="M103,90.5h-7.8V75.4c0-1.8,0-3.5,0.1-5c-0.5,0.6-1.1,1.2-1.8,1.8l-3.2,2.7l-4-4.9l9.8-8h7V90.5z"/>
<path class="st1" d="M235.6,90.7h-20.7v-5.1l7-7.1c2-2.1,3.3-3.5,3.9-4.3c0.6-0.8,1-1.4,1.3-2c0.2-0.5,0.4-1.1,0.4-1.7
	c0-0.7-0.2-1.3-0.7-1.8c-0.5-0.4-1.2-0.6-2-0.6c-0.9,0-1.8,0.3-2.7,0.8c-0.9,0.5-2,1.3-3.1,2.3l-4.2-5c1.5-1.3,2.7-2.3,3.7-2.8
	c1-0.6,2.1-1,3.3-1.3c1.2-0.3,2.5-0.4,4-0.4c1.8,0,3.5,0.3,5,1c1.5,0.7,2.6,1.6,3.4,2.8c0.8,1.2,1.2,2.6,1.2,4.1
	c0,1.1-0.1,2.2-0.4,3.1c-0.3,1-0.7,1.9-1.3,2.8s-1.4,1.9-2.3,2.9c-1,1-3,2.9-6.2,5.8v0.2h10.8V90.7z"/>
<path class="st2" d="M365,68.2c0,1.8-0.5,3.3-1.6,4.6c-1.1,1.3-2.6,2.2-4.7,2.8v0.1c4.8,0.6,7.1,2.9,7.1,6.8c0,2.7-1.1,4.7-3.2,6.3
	c-2.1,1.5-5,2.3-8.8,2.3c-1.5,0-3-0.1-4.3-0.3s-2.7-0.6-4.2-1.2V83c1.2,0.6,2.5,1.1,3.8,1.4c1.3,0.3,2.5,0.5,3.6,0.5
	c1.7,0,2.9-0.2,3.7-0.7c0.8-0.5,1.2-1.2,1.2-2.2c0-0.8-0.2-1.4-0.6-1.8c-0.4-0.4-1.1-0.7-2-1s-2.1-0.3-3.5-0.3h-1.8V73h1.8
	c3.9,0,5.9-1,5.9-3c0-0.8-0.3-1.3-0.9-1.7c-0.6-0.4-1.4-0.5-2.3-0.5c-1.8,0-3.7,0.6-5.7,1.8l-3.2-5.2c1.5-1,3.1-1.8,4.6-2.2
	c1.6-0.4,3.4-0.7,5.4-0.7c3,0,5.3,0.6,7,1.8C364.1,64.5,365,66.1,365,68.2z"/>
<path class="st3" d="M497.2,85H494v5.5h-7.6V85H475v-5.7L486.9,62h7.1v17.3h3.1V85z M486.4,79.3v-3.3c0-0.6,0-1.5,0.1-2.5
	c0-1.1,0.1-1.6,0.1-1.7h-0.2c-0.4,1-0.9,1.9-1.5,2.8l-3.2,4.7H486.4z"/>
<path class="st4" d="M617.8,71.6c1.6,0,3.1,0.4,4.4,1.1c1.3,0.8,2.3,1.8,3.1,3.2c0.7,1.4,1.1,3,1.1,4.8c0,3.2-1,5.6-2.9,7.3
	c-1.9,1.7-4.8,2.6-8.7,2.6c-3.3,0-6.1-0.5-8.2-1.5v-6.3c1.1,0.5,2.4,1,3.8,1.3c1.4,0.3,2.7,0.5,3.7,0.5c1.4,0,2.5-0.3,3.3-0.9
	c0.8-0.6,1.2-1.5,1.2-2.7c0-1.1-0.4-1.9-1.2-2.6c-0.8-0.6-2-0.9-3.6-0.9c-1.2,0-2.5,0.2-3.9,0.7l-2.8-1.4l1.1-15.1h16.3v6.4h-9.7
	l-0.4,3.8c1-0.2,1.7-0.3,2.2-0.3S617.5,71.6,617.8,71.6z"/>
<path class="st0" d="M83.1,217.2c0-4,0.6-7.2,1.7-9.7c1.1-2.5,2.8-4.3,5-5.5c2.2-1.2,5-1.8,8.2-1.8c1.2,0,2.5,0.1,4.1,0.3v6
	c-1.3-0.2-2.7-0.4-4.2-0.4c-2.6,0-4.5,0.6-5.8,1.7c-1.3,1.1-2,3-2.1,5.5h0.2c1.2-2.2,3.1-3.3,5.6-3.3c2.5,0,4.5,0.8,5.9,2.5
	c1.4,1.6,2.1,3.9,2.1,6.8c0,3.1-0.9,5.6-2.7,7.4c-1.8,1.8-4.2,2.7-7.4,2.7c-3.4,0-6-1.1-7.9-3.3C84,224.2,83.1,221.2,83.1,217.2z
	 M93.6,223.6c0.8,0,1.5-0.3,2-0.9c0.5-0.6,0.8-1.6,0.8-3c0-2.3-0.9-3.5-2.7-3.5c-0.9,0-1.6,0.3-2.2,0.9c-0.6,0.6-0.8,1.3-0.8,2.2
	c0,1.2,0.3,2.3,0.8,3.1C92.1,223.2,92.8,223.6,93.6,223.6z"/>
<path class="st1" d="M215.6,229.3l9.8-22.1H213v-6.4h20.6v4.6l-10.1,24H215.6z"/>
<path class="st2" d="M354.4,200.3c3,0,5.3,0.6,7,1.8c1.7,1.2,2.5,2.9,2.5,5.2c0,1.5-0.4,2.8-1.2,4c-0.8,1.1-2,2.1-3.7,3
	c2.1,1.2,3.6,2.4,4.5,3.6c0.9,1.2,1.3,2.5,1.3,3.9c0,2.5-0.9,4.5-2.8,5.9c-1.8,1.4-4.4,2.1-7.7,2.1c-3.4,0-5.9-0.7-7.7-2
	c-1.8-1.4-2.7-3.3-2.7-5.9c0-1.7,0.4-3.1,1.2-4.2c0.8-1.2,2.1-2.2,4-3.2c-1.5-1-2.6-2.1-3.3-3.3c-0.7-1.2-1-2.4-1-3.8
	c0-2.2,0.9-3.9,2.6-5.1C349,200.9,351.3,200.3,354.4,200.3z M351,221.5c0,0.8,0.3,1.5,0.9,1.9c0.6,0.5,1.4,0.7,2.4,0.7
	c2.3,0,3.4-0.8,3.4-2.5c0-0.6-0.3-1.3-0.8-1.9c-0.5-0.6-1.4-1.3-2.7-2.1c-1.2,0.6-2,1.2-2.5,1.8C351.2,220.1,351,220.8,351,221.5z
	 M354.3,205.9c-0.7,0-1.2,0.2-1.7,0.6c-0.5,0.4-0.7,0.9-0.7,1.5c0,1.1,0.8,2.1,2.3,3c0.9-0.5,1.6-1,1.9-1.5c0.3-0.4,0.5-0.9,0.5-1.5
	c0-0.6-0.2-1.1-0.7-1.5C355.5,206.1,355,205.9,354.3,205.9z"/>
<path class="st3" d="M495.7,213.7c0,5.6-1.2,9.6-3.6,12.1c-2.4,2.5-6.3,3.8-11.6,3.8c-1.7,0-3.1-0.1-4-0.2v-6.1
	c1.1,0.2,2.2,0.3,3.4,0.3c2.8,0,4.9-0.6,6.4-1.7c1.5-1.1,2.3-2.9,2.4-5.4h-0.2c-0.5,0.9-1,1.6-1.5,2c-0.5,0.4-1.1,0.7-1.8,1
	c-0.7,0.2-1.6,0.3-2.7,0.3c-2.5,0-4.4-0.8-5.8-2.5c-1.4-1.7-2.1-3.9-2.1-6.8c0-3.2,0.9-5.6,2.7-7.4c1.8-1.8,4.3-2.7,7.4-2.7
	c3.5,0,6.2,1.2,8.1,3.5S495.7,209.5,495.7,213.7z M485,206.6c-0.8,0-1.5,0.3-2.1,0.9s-0.8,1.6-0.8,2.9c0,1.1,0.2,1.9,0.7,2.5
	c0.5,0.6,1.2,0.9,2.1,0.9c0.8,0,1.6-0.3,2.2-0.9s0.9-1.3,0.9-2.2c0-1.2-0.3-2.2-0.9-3C486.6,207,485.8,206.6,485,206.6z"/>
<path class="st4" d="M605.2,229.3h-7.8v-15.1c0-1.8,0-3.5,0.1-5c-0.5,0.6-1.1,1.2-1.8,1.8l-3.2,2.7l-4-4.9l9.8-8h7V229.3z"/>
<path class="st4" d="M632.3,215.1c0,5.1-0.8,8.8-2.5,11.1c-1.7,2.4-4.3,3.5-7.8,3.5c-3.4,0-6-1.2-7.7-3.7c-1.7-2.5-2.6-6.1-2.6-10.9
	c0-5.1,0.8-8.8,2.5-11.2c1.7-2.4,4.3-3.6,7.8-3.6c3.4,0,6,1.2,7.7,3.7C631.4,206.5,632.3,210.2,632.3,215.1z M619.4,215.1
	c0,3.2,0.2,5.4,0.6,6.7c0.4,1.2,1.1,1.8,2,1.8c1,0,1.6-0.6,2-1.9c0.4-1.2,0.6-3.5,0.6-6.6c0-3.2-0.2-5.4-0.6-6.7
	c-0.4-1.3-1.1-1.9-2-1.9c-1,0-1.6,0.6-2,1.8C619.6,209.6,619.4,211.8,619.4,215.1z"/>
<polygon class="st0" points="18.2,11.9 18.2,67.8 24.7,76.3 18.2,84.7 18.2,140.7 34,140.7 34,84.7 40.6,76.3 34,67.8 34,11.9 "/>
<polygon class="st1" points="148.6,11.9 148.6,67.8 155.2,76.3 148.6,84.7 148.6,140.7 164.5,140.7 164.5,84.7 171.1,76.3 
	164.5,67.8 164.5,11.9 "/>
<polygon class="st2" points="279.1,11.9 279.1,67.8 285.7,76.3 279.1,84.7 279.1,140.7 295,140.7 295,84.7 301.6,76.3 295,67.8 
	295,11.9 "/>
<polygon class="st3" points="409.6,11.9 409.6,67.8 416.2,76.3 409.6,84.7 409.6,140.7 425.5,140.7 425.5,84.7 432,76.3 425.5,67.8 
	425.5,11.9 "/>
<polygon class="st4" points="540.1,11.9 540.1,67.8 546.6,76.3 540.1,84.7 540.1,140.7 556,140.7 556,84.7 562.5,76.3 556,67.8 
	556,11.9 "/>
<polygon class="st0" points="18.2,150.6 18.2,206.6 24.7,215 18.2,223.4 18.2,279.4 34,279.4 34,223.4 40.6,215 34,206.6 34,150.6 
	"/>
<polygon class="st1" points="148.6,150.6 148.6,206.6 155.2,215 148.6,223.4 148.6,279.4 164.5,279.4 164.5,223.4 171.1,215 
	164.5,206.6 164.5,150.6 "/>
<polygon class="st2" points="279.1,150.6 279.1,206.6 285.7,215 279.1,223.4 279.1,279.4 295,279.4 295,223.4 301.6,215 295,206.6 
	295,150.6 "/>
<polygon class="st3" points="409.6,150.6 409.6,206.6 416.2,215 409.6,223.4 409.6,279.4 425.5,279.4 425.5,223.4 432,215 
	425.5,206.6 425.5,150.6 "/>
<polygon class="st4" points="540.1,150.6 540.1,206.6 546.6,215 540.1,223.4 540.1,279.4 556,279.4 556,223.4 562.5,215 556,206.6 
	556,150.6 "/>
</svg>
