<?xml version="1.0" encoding="utf-8"?>
<!-- Generator: Adobe Illustrator 26.5.0, SVG Export Plug-In . SVG Version: 6.00 Build 0)  -->
<svg version="1.1" id="Camada_1" xmlns="http://www.w3.org/2000/svg" xmlns:xlink="http://www.w3.org/1999/xlink" x="0px" y="0px"
	 viewBox="0 0 302 168" style="enable-background:new 0 0 302 168;" xml:space="preserve">
<style type="text/css">
	.st0{fill:none;}
	.st1{fill:#2F5579;}
	.st2{fill:#FEC563;}
	.st3{fill:#6DAFCC;}
	.st4{fill:#EE734B;}
	.st5{enable-background:new    ;}
	.st6{fill:#FFFFFF;}
</style>
<g id="Grupo_10057" transform="translate(-8290 4588)">
	<g id="Polígono_1" transform="translate(8360 -4570)">
		<path class="st0" d="M79.5,0L159,138H0L79.5,0z"/>
		<path class="st1" d="M79.5,8L6.9,134h145.2L79.5,8 M79.5,0L159,138H0L79.5,0z"/>
	</g>
	<path id="Retângulo_7477" class="st2" d="M8397.5-4588h85c12.4,0,22.5,10.1,22.5,22.5l0,0c0,12.4-10.1,22.5-22.5,22.5h-85
		c-12.4,0-22.5-10.1-22.5-22.5l0,0C8375-4577.9,8385.1-4588,8397.5-4588z"/>
	<path id="Retângulo_7478" class="st3" d="M8312.5-4465h85c12.4,0,22.5,10.1,22.5,22.5l0,0c0,12.4-10.1,22.5-22.5,22.5h-85
		c-12.4,0-22.5-10.1-22.5-22.5l0,0C8290-4454.9,8300.1-4465,8312.5-4465z"/>
	<path id="Retângulo_7479" class="st4" d="M8484.5-4465h85c12.4,0,22.5,10.1,22.5,22.5l0,0c0,12.4-10.1,22.5-22.5,22.5h-85
		c-12.4,0-22.5-10.1-22.5-22.5l0,0C8462-4454.9,8472.1-4465,8484.5-4465z"/>
	<g class="st5">
		<path class="st6" d="M8399.5-4568.5v2.1h3.4v2h-3.4v2.3h3.9v2.1h-6.5v-10.5h6.5v2.1H8399.5z"/>
		<path class="st6" d="M8406.8-4560.3c-0.6-0.2-1.1-0.6-1.5-1.1s-0.6-1.1-0.6-1.8h2.7c0,0.4,0.2,0.7,0.4,0.9
			c0.2,0.2,0.5,0.3,0.9,0.3c0.4,0,0.7-0.1,0.9-0.3c0.2-0.2,0.3-0.4,0.3-0.7c0-0.3-0.1-0.5-0.3-0.6s-0.4-0.3-0.6-0.4
			c-0.3-0.1-0.6-0.2-1.1-0.4c-0.7-0.2-1.2-0.4-1.7-0.6s-0.8-0.5-1.1-0.9c-0.3-0.4-0.5-0.9-0.5-1.6c0-1,0.4-1.7,1.1-2.3
			c0.7-0.6,1.6-0.8,2.8-0.8c1.2,0,2.1,0.3,2.8,0.8c0.7,0.6,1.1,1.3,1.1,2.3h-2.8c0-0.3-0.1-0.6-0.4-0.8c-0.2-0.2-0.5-0.3-0.9-0.3
			c-0.3,0-0.6,0.1-0.8,0.2c-0.2,0.2-0.3,0.4-0.3,0.7c0,0.3,0.2,0.6,0.5,0.8c0.3,0.2,0.8,0.4,1.5,0.6c0.7,0.2,1.2,0.5,1.7,0.7
			c0.4,0.2,0.8,0.5,1.1,0.9c0.3,0.4,0.5,0.9,0.5,1.5c0,0.6-0.2,1.1-0.5,1.6c-0.3,0.5-0.7,0.9-1.3,1.2s-1.3,0.4-2.1,0.4
			C8408.1-4559.9,8407.4-4560,8406.8-4560.3z"/>
		<path class="st6" d="M8421.8-4570.5v2.1h-2.8v8.5h-2.6v-8.5h-2.8v-2.1H8421.8z"/>
		<path class="st6" d="M8428.5-4560l-2.2-4h-0.6v4h-2.6v-10.5h4.3c0.8,0,1.5,0.1,2.1,0.4c0.6,0.3,1,0.7,1.3,1.2
			c0.3,0.5,0.4,1.1,0.4,1.7c0,0.7-0.2,1.3-0.6,1.9s-1,0.9-1.7,1.2l2.4,4.2H8428.5z M8425.7-4565.8h1.6c0.5,0,0.8-0.1,1.1-0.3
			c0.2-0.2,0.4-0.6,0.4-1c0-0.4-0.1-0.7-0.4-0.9c-0.2-0.2-0.6-0.3-1.1-0.3h-1.6V-4565.8z"/>
		<path class="st6" d="M8435.4-4570.5v6.3c0,0.6,0.2,1.1,0.5,1.5c0.3,0.3,0.8,0.5,1.4,0.5c0.6,0,1.1-0.2,1.4-0.5
			c0.3-0.3,0.5-0.8,0.5-1.5v-6.3h2.6v6.3c0,0.9-0.2,1.7-0.6,2.4c-0.4,0.7-0.9,1.1-1.6,1.5c-0.7,0.3-1.4,0.5-2.3,0.5
			s-1.6-0.2-2.2-0.5c-0.7-0.3-1.2-0.8-1.6-1.5c-0.4-0.7-0.6-1.5-0.6-2.4v-6.3H8435.4z"/>
		<path class="st6" d="M8451.1-4570.5v2.1h-2.8v8.5h-2.6v-8.5h-2.8v-2.1H8451.1z"/>
		<path class="st6" d="M8454.9-4570.5v6.3c0,0.6,0.2,1.1,0.5,1.5c0.3,0.3,0.8,0.5,1.4,0.5c0.6,0,1.1-0.2,1.4-0.5
			c0.3-0.3,0.5-0.8,0.5-1.5v-6.3h2.6v6.3c0,0.9-0.2,1.7-0.6,2.4c-0.4,0.7-0.9,1.1-1.6,1.5c-0.7,0.3-1.4,0.5-2.3,0.5
			s-1.6-0.2-2.2-0.5c-0.7-0.3-1.2-0.8-1.6-1.5c-0.4-0.7-0.6-1.5-0.6-2.4v-6.3H8454.9z"/>
		<path class="st6" d="M8468.3-4560l-2.2-4h-0.6v4h-2.6v-10.5h4.3c0.8,0,1.5,0.1,2.1,0.4c0.6,0.3,1,0.7,1.3,1.2
			c0.3,0.5,0.4,1.1,0.4,1.7c0,0.7-0.2,1.3-0.6,1.9c-0.4,0.5-1,0.9-1.7,1.2l2.4,4.2H8468.3z M8465.5-4565.8h1.6
			c0.5,0,0.8-0.1,1.1-0.3c0.2-0.2,0.4-0.6,0.4-1c0-0.4-0.1-0.7-0.4-0.9c-0.2-0.2-0.6-0.3-1.1-0.3h-1.6V-4565.8z"/>
		<path class="st6" d="M8479.3-4561.9h-3.9l-0.6,1.9h-2.7l3.8-10.5h3l3.8,10.5h-2.7L8479.3-4561.9z M8478.6-4563.8l-1.3-3.9
			l-1.3,3.9H8478.6z"/>
	</g>
	<g class="st5">
		<path class="st6" d="M8326.5-4442.5c-0.3,0.5-0.7,0.9-1.3,1.2c-0.6,0.3-1.3,0.5-2.2,0.5h-1.6v3.8h-2.6v-10.5h4.2
			c0.8,0,1.5,0.1,2.1,0.4s1,0.7,1.3,1.2c0.3,0.5,0.4,1.1,0.4,1.8C8327-4443.5,8326.8-4443,8326.5-4442.5z M8324-4443.2
			c0.2-0.2,0.4-0.6,0.4-1s-0.1-0.7-0.4-1c-0.2-0.2-0.6-0.3-1.1-0.3h-1.4v2.6h1.4C8323.4-4442.8,8323.7-4442.9,8324-4443.2z"/>
		<path class="st6" d="M8333.7-4437l-2.2-4h-0.6v4h-2.6v-10.5h4.3c0.8,0,1.5,0.1,2.1,0.4c0.6,0.3,1,0.7,1.3,1.2
			c0.3,0.5,0.4,1.1,0.4,1.7c0,0.7-0.2,1.3-0.6,1.9c-0.4,0.5-1,0.9-1.7,1.2l2.4,4.2H8333.7z M8330.9-4442.8h1.6
			c0.5,0,0.8-0.1,1.1-0.3c0.2-0.2,0.4-0.6,0.4-1c0-0.4-0.1-0.7-0.4-0.9c-0.2-0.2-0.6-0.3-1.1-0.3h-1.6V-4442.8z"/>
		<path class="st6" d="M8340.3-4437.6c-0.8-0.5-1.5-1.1-2-1.9s-0.7-1.8-0.7-2.8s0.2-2,0.7-2.8c0.5-0.8,1.1-1.5,2-1.9
			s1.7-0.7,2.7-0.7c1,0,1.9,0.2,2.7,0.7c0.8,0.5,1.5,1.1,2,1.9c0.5,0.8,0.7,1.7,0.7,2.8s-0.2,2-0.7,2.8s-1.1,1.5-2,1.9
			c-0.8,0.5-1.7,0.7-2.7,0.7C8342.1-4436.9,8341.2-4437.1,8340.3-4437.6z M8345.1-4440.1c0.5-0.6,0.8-1.3,0.8-2.2
			c0-0.9-0.3-1.7-0.8-2.2s-1.2-0.8-2-0.8c-0.9,0-1.5,0.3-2,0.8c-0.5,0.6-0.8,1.3-0.8,2.2c0,0.9,0.3,1.7,0.8,2.2
			c0.5,0.6,1.2,0.8,2,0.8C8343.9-4439.2,8344.6-4439.5,8345.1-4440.1z"/>
		<path class="st6" d="M8350.1-4445.1c0.5-0.8,1.1-1.5,1.9-1.9s1.7-0.7,2.7-0.7c1.2,0,2.3,0.3,3.2,1s1.5,1.6,1.8,2.7h-2.8
			c-0.2-0.4-0.5-0.8-0.9-1s-0.8-0.3-1.3-0.3c-0.8,0-1.4,0.3-1.9,0.8c-0.5,0.6-0.7,1.3-0.7,2.2c0,0.9,0.2,1.7,0.7,2.2
			s1.1,0.8,1.9,0.8c0.5,0,0.9-0.1,1.3-0.3c0.4-0.2,0.7-0.6,0.9-1h2.8c-0.3,1.1-0.9,2-1.8,2.7s-2,1-3.2,1c-1,0-1.9-0.2-2.7-0.7
			s-1.4-1.1-1.9-1.9c-0.4-0.8-0.7-1.7-0.7-2.8S8349.7-4444.2,8350.1-4445.1z"/>
		<path class="st6" d="M8363.9-4445.5v2.1h3.4v2h-3.4v2.3h3.9v2.1h-6.5v-10.5h6.5v2.1H8363.9z"/>
		<path class="st6" d="M8371.1-4437.3c-0.6-0.2-1.1-0.6-1.5-1.1s-0.6-1.1-0.6-1.8h2.7c0,0.4,0.2,0.7,0.4,0.9
			c0.2,0.2,0.5,0.3,0.9,0.3c0.4,0,0.7-0.1,0.9-0.3c0.2-0.2,0.3-0.4,0.3-0.7c0-0.3-0.1-0.5-0.3-0.6c-0.2-0.2-0.4-0.3-0.6-0.4
			s-0.6-0.2-1.1-0.4c-0.7-0.2-1.2-0.4-1.7-0.6c-0.4-0.2-0.8-0.5-1.1-0.9c-0.3-0.4-0.5-0.9-0.5-1.6c0-1,0.4-1.7,1.1-2.3
			c0.7-0.6,1.6-0.8,2.8-0.8c1.2,0,2.1,0.3,2.8,0.8c0.7,0.6,1.1,1.3,1.1,2.3h-2.8c0-0.3-0.1-0.6-0.4-0.8c-0.2-0.2-0.5-0.3-0.9-0.3
			c-0.3,0-0.6,0.1-0.8,0.2c-0.2,0.2-0.3,0.4-0.3,0.7c0,0.3,0.2,0.6,0.5,0.8c0.3,0.2,0.8,0.4,1.5,0.6c0.7,0.2,1.2,0.5,1.7,0.7
			s0.8,0.5,1.1,0.9c0.3,0.4,0.5,0.9,0.5,1.5c0,0.6-0.2,1.1-0.5,1.6c-0.3,0.5-0.7,0.9-1.3,1.2s-1.3,0.4-2.1,0.4
			C8372.4-4436.9,8371.8-4437,8371.1-4437.3z"/>
		<path class="st6" d="M8380.4-4437.3c-0.6-0.2-1.1-0.6-1.5-1.1s-0.6-1.1-0.6-1.8h2.7c0,0.4,0.2,0.7,0.4,0.9
			c0.2,0.2,0.5,0.3,0.9,0.3c0.4,0,0.7-0.1,0.9-0.3c0.2-0.2,0.3-0.4,0.3-0.7c0-0.3-0.1-0.5-0.3-0.6c-0.2-0.2-0.4-0.3-0.6-0.4
			s-0.6-0.2-1.1-0.4c-0.7-0.2-1.2-0.4-1.7-0.6c-0.4-0.2-0.8-0.5-1.1-0.9c-0.3-0.4-0.5-0.9-0.5-1.6c0-1,0.4-1.7,1.1-2.3
			c0.7-0.6,1.6-0.8,2.8-0.8c1.2,0,2.1,0.3,2.8,0.8c0.7,0.6,1.1,1.3,1.1,2.3h-2.8c0-0.3-0.1-0.6-0.4-0.8c-0.2-0.2-0.5-0.3-0.9-0.3
			c-0.3,0-0.6,0.1-0.8,0.2c-0.2,0.2-0.3,0.4-0.3,0.7c0,0.3,0.2,0.6,0.5,0.8c0.3,0.2,0.8,0.4,1.5,0.6c0.7,0.2,1.2,0.5,1.7,0.7
			s0.8,0.5,1.1,0.9c0.3,0.4,0.5,0.9,0.5,1.5c0,0.6-0.2,1.1-0.5,1.6c-0.3,0.5-0.7,0.9-1.3,1.2s-1.3,0.4-2.1,0.4
			C8381.7-4436.9,8381-4437,8380.4-4437.3z"/>
		<path class="st6" d="M8390.1-4437.6c-0.8-0.5-1.5-1.1-2-1.9c-0.5-0.8-0.7-1.8-0.7-2.8s0.2-2,0.7-2.8c0.5-0.8,1.1-1.5,2-1.9
			c0.8-0.5,1.7-0.7,2.7-0.7s1.9,0.2,2.7,0.7c0.8,0.5,1.5,1.1,2,1.9c0.5,0.8,0.7,1.7,0.7,2.8s-0.2,2-0.7,2.8c-0.5,0.8-1.1,1.5-2,1.9
			s-1.7,0.7-2.7,0.7S8390.9-4437.1,8390.1-4437.6z M8394.9-4440.1c0.5-0.6,0.8-1.3,0.8-2.2c0-0.9-0.3-1.7-0.8-2.2s-1.2-0.8-2-0.8
			c-0.8,0-1.5,0.3-2,0.8c-0.5,0.6-0.8,1.3-0.8,2.2c0,0.9,0.3,1.7,0.8,2.2s1.2,0.8,2,0.8C8393.7-4439.2,8394.3-4439.5,8394.9-4440.1z
			"/>
	</g>
	<g class="st5">
		<path class="st6" d="M8493.3-4437l-2.2-4h-0.6v4h-2.6v-10.5h4.3c0.8,0,1.5,0.1,2.1,0.4s1,0.7,1.3,1.2s0.4,1.1,0.4,1.7
			c0,0.7-0.2,1.3-0.6,1.9c-0.4,0.5-1,0.9-1.7,1.2l2.4,4.2H8493.3z M8490.5-4442.8h1.6c0.5,0,0.8-0.1,1.1-0.3c0.2-0.2,0.4-0.6,0.4-1
			c0-0.4-0.1-0.7-0.4-0.9c-0.2-0.2-0.6-0.3-1.1-0.3h-1.6V-4442.8z"/>
		<path class="st6" d="M8500.3-4445.5v2.1h3.4v2h-3.4v2.3h3.9v2.1h-6.5v-10.5h6.5v2.1H8500.3z"/>
		<path class="st6" d="M8507.6-4437.3c-0.6-0.2-1.1-0.6-1.5-1.1s-0.6-1.1-0.6-1.8h2.7c0,0.4,0.2,0.7,0.4,0.9
			c0.2,0.2,0.5,0.3,0.9,0.3c0.4,0,0.7-0.1,0.9-0.3c0.2-0.2,0.3-0.4,0.3-0.7c0-0.3-0.1-0.5-0.3-0.6c-0.2-0.2-0.4-0.3-0.6-0.4
			s-0.6-0.2-1.1-0.4c-0.7-0.2-1.2-0.4-1.7-0.6c-0.4-0.2-0.8-0.5-1.1-0.9c-0.3-0.4-0.5-0.9-0.5-1.6c0-1,0.4-1.7,1.1-2.3
			c0.7-0.6,1.6-0.8,2.8-0.8c1.2,0,2.1,0.3,2.8,0.8c0.7,0.6,1.1,1.3,1.1,2.3h-2.8c0-0.3-0.1-0.6-0.4-0.8c-0.2-0.2-0.5-0.3-0.9-0.3
			c-0.3,0-0.6,0.1-0.8,0.2c-0.2,0.2-0.3,0.4-0.3,0.7c0,0.3,0.2,0.6,0.5,0.8c0.3,0.2,0.8,0.4,1.5,0.6c0.7,0.2,1.2,0.5,1.7,0.7
			s0.8,0.5,1.1,0.9c0.3,0.4,0.5,0.9,0.5,1.5c0,0.6-0.2,1.1-0.5,1.6c-0.3,0.5-0.7,0.9-1.3,1.2s-1.3,0.4-2.1,0.4
			C8508.9-4436.9,8508.2-4437,8507.6-4437.3z"/>
		<path class="st6" d="M8517.6-4447.5v6.3c0,0.6,0.2,1.1,0.5,1.5c0.3,0.3,0.8,0.5,1.4,0.5c0.6,0,1.1-0.2,1.4-0.5
			c0.3-0.3,0.5-0.8,0.5-1.5v-6.3h2.6v6.3c0,0.9-0.2,1.7-0.6,2.4c-0.4,0.7-0.9,1.1-1.6,1.5s-1.4,0.5-2.3,0.5s-1.6-0.2-2.2-0.5
			c-0.7-0.3-1.2-0.8-1.6-1.5c-0.4-0.7-0.6-1.5-0.6-2.4v-6.3H8517.6z"/>
		<path class="st6" d="M8528.2-4439h3.4v2h-5.9v-10.5h2.6V-4439z"/>
		<path class="st6" d="M8540.4-4447.5v2.1h-2.8v8.5h-2.6v-8.5h-2.8v-2.1H8540.4z"/>
		<path class="st6" d="M8548.2-4438.9h-3.9l-0.6,1.9h-2.7l3.8-10.5h3l3.8,10.5h-2.7L8548.2-4438.9z M8547.5-4440.8l-1.3-3.9
			l-1.3,3.9H8547.5z"/>
		<path class="st6" d="M8559.6-4446.9c0.8,0.4,1.5,1.1,1.9,1.9s0.7,1.7,0.7,2.8c0,1-0.2,1.9-0.7,2.7c-0.5,0.8-1.1,1.4-1.9,1.9
			c-0.8,0.4-1.8,0.7-2.9,0.7h-3.9v-10.5h3.9C8557.8-4447.5,8558.7-4447.3,8559.6-4446.9z M8558.7-4440c0.5-0.5,0.8-1.3,0.8-2.2
			s-0.3-1.7-0.8-2.3s-1.3-0.8-2.3-0.8h-1.2v6.1h1.2C8557.4-4439.2,8558.2-4439.5,8558.7-4440z"/>
		<path class="st6" d="M8565.9-4437.6c-0.8-0.5-1.5-1.1-2-1.9c-0.5-0.8-0.7-1.8-0.7-2.8s0.2-2,0.7-2.8c0.5-0.8,1.1-1.5,2-1.9
			s1.7-0.7,2.7-0.7s1.9,0.2,2.7,0.7c0.8,0.5,1.5,1.1,1.9,1.9c0.5,0.8,0.7,1.7,0.7,2.8s-0.2,2-0.7,2.8s-1.1,1.5-2,1.9
			s-1.7,0.7-2.7,0.7S8566.7-4437.1,8565.9-4437.6z M8570.6-4440.1c0.5-0.6,0.8-1.3,0.8-2.2c0-0.9-0.3-1.7-0.8-2.2
			c-0.5-0.6-1.2-0.8-2-0.8c-0.8,0-1.5,0.3-2,0.8c-0.5,0.6-0.8,1.3-0.8,2.2c0,0.9,0.3,1.7,0.8,2.2c0.5,0.6,1.2,0.8,2,0.8
			C8569.4-4439.2,8570.1-4439.5,8570.6-4440.1z"/>
	</g>
</g>
</svg>
