<?xml version="1.0" encoding="utf-8"?>
<!-- Generator: Adobe Illustrator 26.2.1, SVG Export Plug-In . SVG Version: 6.00 Build 0)  -->
<svg version="1.1" id="a" xmlns="http://www.w3.org/2000/svg" xmlns:xlink="http://www.w3.org/1999/xlink" x="0px" y="0px"
	 viewBox="0 0 449.6 324.5" style="enable-background:new 0 0 449.6 324.5;" xml:space="preserve">
<style type="text/css">
	.st0{fill:#108141;}
	.st1{enable-background:new    ;}
	.st2{fill:#FFFFFF;}
	.st3{fill:#1B8992;}
	.st4{fill:#FFA800;}
	.st5{fill:#6DAFCC;}
	.st6{fill:#F4BB2A;}
	.st7{fill:#3E6D93;}
</style>
<g id="Grupo_2270" transform="translate(-11243 1757)">
	<g id="Grupo_2268" transform="translate(0 5)">
		<g id="Grupo_2265">
			<path id="Caminho_4096" class="st0" d="M11651.3-1558.5h-43.1c-22.8,0-41.2-18.5-41.2-41.2s18.5-41.2,41.2-41.2h43.1
				c22.8,0,41.2,18.5,41.2,41.2S11674.1-1558.5,11651.3-1558.5"/>
			<g class="st1">
				<path class="st2" d="M11578-1603.4h1.1v6.2c0,1.4-0.9,2.3-2.3,2.3c-1.4,0-2.3-0.9-2.3-2.4h1.1c0,0.8,0.4,1.4,1.2,1.4
					s1.2-0.6,1.2-1.3V-1603.4z"/>
				<path class="st2" d="M11581.3-1603.4h1.1v5.3c0,1.5,0.8,2.2,2.1,2.2s2.1-0.7,2.1-2.2v-5.3h1.1v5.3c0,2.2-1.4,3.2-3.2,3.2
					c-1.7,0-3.1-1-3.1-3.2V-1603.4z"/>
				<path class="st2" d="M11592.1-1603.4c2,0,2.9,1.1,2.9,2.5c0,1.1-0.6,2.1-2,2.4l2.1,3.5h-1.3l-2-3.4h-1.3v3.4h-1.1v-8.4H11592.1z
					 M11592.1-1602.5h-1.6v3.2h1.6c1.2,0,1.8-0.7,1.8-1.6C11593.9-1601.8,11593.3-1602.5,11592.1-1602.5z"/>
				<path class="st2" d="M11598.4-1606.1v0.9l-2.6,1.4v-0.8L11598.4-1606.1z M11596.7-1603.4h1.1v8.4h-1.1V-1603.4z"/>
				<path class="st2" d="M11606.7-1599.2c0,2.6-1.7,4.2-4.4,4.2h-2.6v-8.4h2.6C11605-1603.4,11606.7-1601.8,11606.7-1599.2z
					 M11602.2-1595.9c2.2,0,3.3-1.2,3.3-3.3c0-2-1.1-3.3-3.3-3.3h-1.5v6.6H11602.2z"/>
				<path class="st2" d="M11608.1-1603.4h1.1v8.4h-1.1V-1603.4z"/>
				<path class="st2" d="M11614.8-1603.5c1.8,0,3.2,0.9,3.9,2.5h-1.3c-0.5-1-1.3-1.6-2.6-1.6c-1.8,0-3.1,1.3-3.1,3.3
					c0,2,1.3,3.3,3.1,3.3c1.2,0,2.1-0.6,2.6-1.6h1.3c-0.6,1.6-2.1,2.5-3.9,2.5c-2.3,0-4.2-1.8-4.2-4.3
					C11610.7-1601.7,11612.5-1603.5,11614.8-1603.5z"/>
				<path class="st2" d="M11625.3-1596.9h-3.6l-0.7,1.9h-1.2l3-8.3h1.3l3,8.3h-1.2L11625.3-1596.9z M11623.5-1602l-1.5,4.2h3
					L11623.5-1602z"/>
				<path class="st2" d="M11628.2-1599.9h4.8v0.9h-4.8V-1599.9z"/>
				<path class="st2" d="M11637.7-1598.5h-1.6v3.5h-1.1v-8.4h2.7c2,0,2.9,1.1,2.9,2.4C11640.6-1599.6,11639.8-1598.5,11637.7-1598.5
					z M11637.7-1599.4c1.2,0,1.8-0.6,1.8-1.5c0-1-0.5-1.5-1.8-1.5h-1.6v3.1H11637.7z"/>
				<path class="st2" d="M11645.8-1594.9c-2.4,0-4.2-1.8-4.2-4.3c0-2.5,1.8-4.3,4.2-4.3c2.4,0,4.2,1.8,4.2,4.3
					C11650-1596.7,11648.1-1594.9,11645.8-1594.9z M11645.8-1595.9c1.8,0,3.1-1.3,3.1-3.3c0-2.1-1.3-3.3-3.1-3.3
					c-1.8,0-3.1,1.3-3.1,3.3C11642.7-1597.1,11644-1595.9,11645.8-1595.9z"/>
				<path class="st2" d="M11652.5-1603.4v7.5h2.9v0.9h-4v-8.4H11652.5z"/>
				<path class="st2" d="M11658.3-1606.1v0.9l-2.6,1.4v-0.8L11658.3-1606.1z M11656.6-1603.4h1.1v8.4h-1.1V-1603.4z"/>
				<path class="st2" d="M11659-1603.4h5.7v0.9h-2.3v7.5h-1.1v-7.5h-2.3V-1603.4z"/>
				<path class="st2" d="M11666-1603.4h1.1v8.4h-1.1V-1603.4z"/>
				<path class="st2" d="M11672.8-1603.5c1.8,0,3.2,0.9,3.9,2.5h-1.3c-0.5-1-1.3-1.6-2.6-1.6c-1.8,0-3.1,1.3-3.1,3.3
					c0,2,1.3,3.3,3.1,3.3c1.2,0,2.1-0.6,2.6-1.6h1.3c-0.6,1.6-2.1,2.5-3.9,2.5c-2.3,0-4.2-1.8-4.2-4.3
					C11668.6-1601.7,11670.4-1603.5,11672.8-1603.5z"/>
				<path class="st2" d="M11683.2-1596.9h-3.6l-0.7,1.9h-1.2l3-8.3h1.3l3,8.3h-1.2L11683.2-1596.9z M11681.4-1602l-1.5,4.2h3
					L11681.4-1602z"/>
			</g>
		</g>
		<g id="Grupo_2263">
			<path id="Caminho_4094" class="st3" d="M11327.3-1558.5h-43.1c-22.8,0-41.2-18.5-41.2-41.2s18.5-41.2,41.2-41.2h43.1
				c22.8,0,41.2,18.5,41.2,41.2S11350.1-1558.5,11327.3-1558.5"/>
			<g class="st1">
				<path class="st2" d="M11279.9-1596.9h-3.6l-0.7,1.9h-1.2l3-8.3h1.3l3,8.3h-1.2L11279.9-1596.9z M11278-1602l-1.5,4.2h3
					L11278-1602z"/>
				<path class="st2" d="M11283-1603.3h1.2l3.1,6.9l3.1-6.9h1.2v8.3h-1.1v-6.2l-2.8,6.2h-0.8l-2.8-6.2v6.2h-1.1V-1603.3z"/>
				<path class="st2" d="M11296.5-1595h-3.1v-8.4h3c1.8,0,2.7,1,2.7,2.1c0,1.1-0.7,1.7-1.5,1.9c0.9,0.2,1.7,1,1.7,2.1
					C11299.2-1596,11298.2-1595,11296.5-1595z M11296.3-1602.5h-1.8v2.7h1.8c1,0,1.6-0.5,1.6-1.4
					C11297.9-1601.9,11297.3-1602.5,11296.3-1602.5z M11296.3-1598.8h-1.9v3h1.9c1.1,0,1.7-0.5,1.7-1.5
					C11298.1-1598.3,11297.4-1598.8,11296.3-1598.8z"/>
				<path class="st2" d="M11300.7-1603.4h1.1v8.4h-1.1V-1603.4z"/>
				<path class="st2" d="M11308.2-1602.5h-3.4v2.8h3v0.9h-3v2.9h3.4v0.9h-4.5v-8.4h4.5V-1602.5z"/>
				<path class="st2" d="M11316.4-1603.4v8.4h-1.1l-4.4-6.7v6.7h-1.1v-8.4h1.1l4.4,6.6v-6.6H11316.4z"/>
				<path class="st2" d="M11317.7-1603.4h5.7v0.9h-2.3v7.5h-1.1v-7.5h-2.3V-1603.4z"/>
				<path class="st2" d="M11329.7-1596.9h-3.6l-0.7,1.9h-1.2l3-8.3h1.3l3,8.3h-1.2L11329.7-1596.9z M11327.9-1602l-1.5,4.2h3
					L11327.9-1602z"/>
				<path class="st2" d="M11333.9-1603.4v7.5h2.9v0.9h-4v-8.4H11333.9z"/>
			</g>
		</g>
	</g>
	<g id="Grupo_2264" transform="translate(-6)">
		<path id="Caminho_4095" class="st4" d="M11495.3-1674.5h-43.1c-22.8,0-41.2-18.5-41.2-41.2s18.5-41.2,41.2-41.2h43.1
			c22.8,0,41.2,18.5,41.2,41.2S11518.1-1674.5,11495.3-1674.5"/>
		<g class="st1">
			<path class="st2" d="M11442.4-1719.5h-3.4v2.8h3v0.9h-3v2.9h3.4v0.9h-4.5v-8.4h4.5V-1719.5z"/>
			<path class="st2" d="M11447.9-1720.5c1.8,0,3.2,0.9,3.9,2.5h-1.3c-0.5-1-1.3-1.6-2.6-1.6c-1.8,0-3.1,1.3-3.1,3.3
				c0,2,1.3,3.3,3.1,3.3c1.2,0,2.1-0.6,2.6-1.6h1.3c-0.6,1.6-2.1,2.5-3.9,2.5c-2.3,0-4.2-1.8-4.2-4.3S11445.5-1720.5,11447.9-1720.5
				z"/>
			<path class="st2" d="M11457.1-1711.9c-2.4,0-4.2-1.8-4.2-4.3s1.8-4.3,4.2-4.3c2.4,0,4.2,1.8,4.2,4.3
				S11459.5-1711.9,11457.1-1711.9z M11457.1-1712.9c1.8,0,3.1-1.3,3.1-3.3c0-2.1-1.3-3.3-3.1-3.3c-1.8,0-3.1,1.3-3.1,3.3
				C11454.1-1714.1,11455.4-1712.9,11457.1-1712.9z"/>
			<path class="st2" d="M11469.4-1720.4v8.4h-1.1l-4.4-6.7v6.7h-1.1v-8.4h1.1l4.4,6.6v-6.6H11469.4z"/>
			<path class="st2" d="M11475-1711.9c-2.4,0-4.2-1.8-4.2-4.3s1.8-4.3,4.2-4.3c2.4,0,4.2,1.8,4.2,4.3S11477.4-1711.9,11475-1711.9z
				 M11475-1712.9c1.8,0,3.1-1.3,3.1-3.3c0-2.1-1.3-3.3-3.1-3.3s-3.1,1.3-3.1,3.3C11471.9-1714.1,11473.2-1712.9,11475-1712.9z
				 M11476.7-1720.9l-1.7-1l-1.7,1v-0.9l1.7-1l1.7,1V-1720.9z"/>
			<path class="st2" d="M11480.6-1720.3h1.2l3.1,6.9l3.1-6.9h1.2v8.3h-1.1v-6.2l-2.8,6.2h-0.8l-2.8-6.2v6.2h-1.1V-1720.3z"/>
			<path class="st2" d="M11491-1720.4h1.1v8.4h-1.1V-1720.4z"/>
			<path class="st2" d="M11497.7-1720.5c1.8,0,3.2,0.9,3.9,2.5h-1.3c-0.5-1-1.3-1.6-2.6-1.6c-1.8,0-3.1,1.3-3.1,3.3
				c0,2,1.3,3.3,3.1,3.3c1.2,0,2.1-0.6,2.6-1.6h1.3c-0.6,1.6-2.1,2.5-3.9,2.5c-2.3,0-4.2-1.8-4.2-4.3S11495.4-1720.5,11497.7-1720.5
				z"/>
			<path class="st2" d="M11508.1-1713.9h-3.6l-0.7,1.9h-1.2l3-8.3h1.3l3,8.3h-1.2L11508.1-1713.9z M11506.3-1719l-1.5,4.2h3
				L11506.3-1719z"/>
		</g>
	</g>
	<g id="Grupo_2269" transform="translate(-19)">
		<g id="Grupo_2267">
			<path id="Caminho_4098" class="st5" d="M11406.3-1432.5h-43.1c-22.8,0-41.2-18.5-41.2-41.2s18.5-41.2,41.2-41.2h43.1
				c22.8,0,41.2,18.5,41.2,41.2S11429.1-1432.5,11406.3-1432.5"/>
			<g class="st1">
				<path class="st2" d="M11348.7-1477.5c1.8,0,3.2,0.9,3.9,2.5h-1.3c-0.5-1-1.3-1.6-2.6-1.6c-1.8,0-3.1,1.3-3.1,3.3
					c0,2,1.3,3.3,3.1,3.3c1.2,0,2.1-0.6,2.6-1.6h1.3c-0.6,1.6-2.1,2.5-3.9,2.5c-2.3,0-4.2-1.8-4.2-4.3
					S11346.4-1477.5,11348.7-1477.5z"/>
				<path class="st2" d="M11354.2-1477.4h1.1v5.3c0,1.5,0.8,2.2,2.1,2.2s2.1-0.7,2.1-2.2v-5.3h1.1v5.3c0,2.2-1.4,3.2-3.2,3.2
					c-1.7,0-3.1-1-3.1-3.2V-1477.4z"/>
				<path class="st2" d="M11363.4-1477.4v7.5h2.9v0.9h-4v-8.4H11363.4z"/>
				<path class="st2" d="M11367-1477.4h5.7v0.9h-2.3v7.5h-1.1v-7.5h-2.3V-1477.4z"/>
				<path class="st2" d="M11373.9-1477.4h1.1v5.3c0,1.5,0.8,2.2,2.1,2.2s2.1-0.7,2.1-2.2v-5.3h1.1v5.3c0,2.2-1.4,3.2-3.2,3.2
					c-1.7,0-3.1-1-3.1-3.2V-1477.4z"/>
				<path class="st2" d="M11384.8-1477.4c2,0,2.9,1.1,2.9,2.5c0,1.1-0.6,2.1-2,2.4l2.1,3.5h-1.3l-2-3.4h-1.3v3.4h-1.1v-8.4H11384.8z
					 M11384.8-1476.5h-1.6v3.2h1.6c1.2,0,1.8-0.7,1.8-1.6C11386.5-1475.8,11386-1476.5,11384.8-1476.5z"/>
				<path class="st2" d="M11394.3-1470.9h-3.6l-0.7,1.9h-1.2l3-8.3h1.3l3,8.3h-1.2L11394.3-1470.9z M11392.5-1476l-1.5,4.2h3
					L11392.5-1476z"/>
				<path class="st2" d="M11398.5-1477.4v7.5h2.9v0.9h-4v-8.4H11398.5z"/>
				<path class="st2" d="M11402.6-1477.4h1.1v8.4h-1.1V-1477.4z"/>
				<path class="st2" d="M11408.2-1468.9c-1.7,0-2.9-0.9-2.9-2.3h1.2c0.1,0.7,0.6,1.4,1.7,1.4c1.1,0,1.7-0.6,1.7-1.4
					c0-2.3-4.5-0.8-4.5-3.9c0-1.4,1.1-2.3,2.8-2.3c1.6,0,2.6,0.9,2.8,2.1h-1.2c-0.1-0.6-0.6-1.2-1.6-1.2c-0.9,0-1.6,0.4-1.6,1.3
					c0,2.2,4.5,0.8,4.5,3.9C11411-1470.1,11410-1468.9,11408.2-1468.9z"/>
				<path class="st2" d="M11412.1-1477.4h5.7v0.9h-2.3v7.5h-1.1v-7.5h-2.3V-1477.4z"/>
				<path class="st2" d="M11424.1-1470.9h-3.6l-0.7,1.9h-1.2l3-8.3h1.3l3,8.3h-1.2L11424.1-1470.9z M11422.2-1476l-1.5,4.2h3
					L11422.2-1476z"/>
			</g>
		</g>
		<g id="Grupo_2266">
			<path id="Caminho_4097" class="st6" d="M11611.3-1432.5h-43.1c-22.8,0-41.2-18.5-41.2-41.2s18.5-41.2,41.2-41.2h43.1
				c22.8,0,41.2,18.5,41.2,41.2S11634.1-1432.5,11611.3-1432.5"/>
			<g class="st1">
				<path class="st2" d="M11563.6-1468.9c-1.7,0-2.9-0.9-2.9-2.3h1.2c0.1,0.7,0.6,1.4,1.7,1.4c1.1,0,1.7-0.6,1.7-1.4
					c0-2.3-4.5-0.8-4.5-3.9c0-1.4,1.1-2.3,2.8-2.3c1.6,0,2.6,0.9,2.8,2.1h-1.2c-0.1-0.6-0.6-1.2-1.6-1.2c-0.9,0-1.6,0.4-1.6,1.3
					c0,2.2,4.5,0.8,4.5,3.9C11566.4-1470.1,11565.4-1468.9,11563.6-1468.9z"/>
				<path class="st2" d="M11572.9-1470.9h-3.6l-0.7,1.9h-1.2l3-8.3h1.3l3,8.3h-1.2L11572.9-1470.9z M11571.1-1476l-1.5,4.2h3
					L11571.1-1476z"/>
				<path class="st2" d="M11582.6-1477.4v8.4h-1.1l-4.4-6.7v6.7h-1.1v-8.4h1.1l4.4,6.6v-6.6H11582.6z"/>
				<path class="st2" d="M11584.5-1477.4h1.1v8.4h-1.1V-1477.4z"/>
				<path class="st2" d="M11586.9-1477.4h5.7v0.9h-2.3v7.5h-1.1v-7.5h-2.3V-1477.4z"/>
				<path class="st2" d="M11598.9-1470.9h-3.6l-0.7,1.9h-1.2l3-8.3h1.3l3,8.3h-1.2L11598.9-1470.9z M11597.1-1476l-1.5,4.2h3
					L11597.1-1476z M11598.2-1480.1v0.9l-2.6,1.4v-0.8L11598.2-1480.1z"/>
				<path class="st2" d="M11604.7-1477.4c2,0,2.9,1.1,2.9,2.5c0,1.1-0.6,2.1-2,2.4l2.1,3.5h-1.3l-2-3.4h-1.3v3.4h-1.1v-8.4H11604.7z
					 M11604.7-1476.5h-1.6v3.2h1.6c1.2,0,1.8-0.7,1.8-1.6C11606.5-1475.8,11606-1476.5,11604.7-1476.5z"/>
				<path class="st2" d="M11609.3-1477.4h1.1v8.4h-1.1V-1477.4z"/>
				<path class="st2" d="M11617.2-1470.9h-3.6l-0.7,1.9h-1.2l3-8.3h1.3l3,8.3h-1.2L11617.2-1470.9z M11615.4-1476l-1.5,4.2h3
					L11615.4-1476z"/>
			</g>
		</g>
	</g>
	<g id="Grupo_2262" transform="translate(-6)">
		<path id="Caminho_4099" class="st2" d="M11551.7-1582.1c0,42.2-34.2,76.4-76.4,76.4s-76.4-34.2-76.4-76.4s34.2-76.4,76.4-76.4
			c0,0,0,0,0,0C11517.5-1658.5,11551.7-1624.3,11551.7-1582.1L11551.7-1582.1"/>
		<g id="Grupo_2261">
			<path id="Caminho_4100" class="st7" d="M11547.7-1588.6c0,42.2-34.2,76.4-76.4,76.4c-42.2,0-76.4-34.2-76.4-76.4
				s34.2-76.4,76.4-76.4C11513.5-1665,11547.7-1630.8,11547.7-1588.6L11547.7-1588.6"/>
			<g class="st1">
				<path class="st2" d="M11431.6-1600.5c0.9,0.5,1.6,1.1,2.1,2c0.5,0.8,0.7,1.8,0.7,3s-0.2,2.1-0.7,2.9c-0.5,0.8-1.2,1.5-2.1,1.9
					c-0.9,0.5-1.9,0.7-3.1,0.7h-3.9v-11.2h3.9C11429.7-1601.2,11430.7-1600.9,11431.6-1600.5z M11431.2-1592.9c0.6-0.6,1-1.5,1-2.7
					c0-1.2-0.3-2.1-1-2.7c-0.6-0.7-1.5-1-2.7-1h-1.6v7.4h1.6C11429.6-1591.9,11430.5-1592.2,11431.2-1592.9z"/>
				<path class="st2" d="M11438.8-1601.2v11.2h-2.2v-11.2H11438.8z"/>
				<path class="st2" d="M11453.7-1601.2v11.2h-2.2v-7.3l-3,7.3h-1.7l-3-7.3v7.3h-2.2v-11.2h2.5l3.6,8.3l3.6-8.3H11453.7z"/>
				<path class="st2" d="M11458.6-1599.4v2.8h3.8v1.8h-3.8v3h4.2v1.8h-6.5v-11.2h6.5v1.8H11458.6z"/>
				<path class="st2" d="M11474.9-1590h-2.2l-5.1-7.7v7.7h-2.2v-11.2h2.2l5.1,7.7v-7.7h2.2V-1590z"/>
				<path class="st2" d="M11479.3-1590.3c-0.6-0.3-1.1-0.7-1.5-1.2c-0.4-0.5-0.5-1.1-0.6-1.8h2.4c0,0.5,0.2,0.8,0.5,1.1
					s0.7,0.4,1.2,0.4c0.5,0,0.9-0.1,1.2-0.4c0.3-0.3,0.4-0.6,0.4-1c0-0.3-0.1-0.6-0.3-0.8c-0.2-0.2-0.5-0.4-0.8-0.5
					c-0.3-0.1-0.7-0.3-1.3-0.4c-0.7-0.2-1.3-0.4-1.8-0.6s-0.8-0.5-1.2-0.9c-0.3-0.4-0.5-1-0.5-1.7c0-0.7,0.2-1.2,0.5-1.7
					c0.3-0.5,0.8-0.9,1.4-1.1c0.6-0.3,1.3-0.4,2-0.4c1.2,0,2.1,0.3,2.8,0.8c0.7,0.6,1.1,1.3,1.2,2.3h-2.5c0-0.4-0.2-0.7-0.5-1
					c-0.3-0.3-0.7-0.4-1.2-0.4c-0.4,0-0.8,0.1-1,0.3c-0.3,0.2-0.4,0.5-0.4,1c0,0.3,0.1,0.5,0.3,0.7s0.4,0.4,0.7,0.5
					c0.3,0.1,0.7,0.3,1.2,0.4c0.7,0.2,1.3,0.4,1.8,0.6c0.5,0.2,0.9,0.5,1.2,1c0.3,0.4,0.5,1,0.5,1.7c0,0.6-0.2,1.2-0.5,1.7
					c-0.3,0.5-0.8,0.9-1.4,1.2c-0.6,0.3-1.3,0.5-2.1,0.5C11480.7-1589.9,11480-1590,11479.3-1590.3z"/>
				<path class="st2" d="M11490.1-1590.6c-0.9-0.5-1.6-1.2-2.1-2s-0.8-1.9-0.8-3c0-1.1,0.3-2.1,0.8-2.9s1.2-1.5,2.1-2
					s1.8-0.7,2.9-0.7c1.1,0,2,0.2,2.9,0.7c0.9,0.5,1.6,1.2,2.1,2s0.8,1.8,0.8,2.9c0,1.1-0.3,2.1-0.8,3s-1.2,1.5-2.1,2
					c-0.9,0.5-1.8,0.7-2.9,0.7S11491-1590.1,11490.1-1590.6z M11494.8-1592.3c0.5-0.3,0.9-0.7,1.2-1.3c0.3-0.6,0.4-1.2,0.4-2
					c0-0.7-0.1-1.4-0.4-2c-0.3-0.6-0.7-1-1.2-1.3c-0.5-0.3-1.1-0.4-1.8-0.4s-1.3,0.1-1.8,0.4c-0.5,0.3-0.9,0.7-1.2,1.3
					c-0.3,0.6-0.4,1.2-0.4,2c0,0.7,0.1,1.4,0.4,2c0.3,0.6,0.7,1,1.2,1.3c0.5,0.3,1.1,0.5,1.8,0.5S11494.3-1592,11494.8-1592.3z
					 M11490.8-1603.6c0.3-0.3,0.8-0.5,1.3-0.5c0.2,0,0.4,0,0.6,0.1c0.2,0.1,0.4,0.2,0.6,0.3c0.3,0.2,0.6,0.3,0.8,0.3
					c0.4,0,0.6-0.2,0.7-0.7h1.2c-0.1,0.7-0.3,1.2-0.7,1.6s-0.8,0.5-1.3,0.5c-0.2,0-0.4,0-0.6-0.1c-0.2-0.1-0.4-0.2-0.6-0.3
					c-0.3-0.2-0.6-0.3-0.8-0.3c-0.4,0-0.6,0.2-0.7,0.7h-1.2C11490.2-1602.7,11490.4-1603.3,11490.8-1603.6z"/>
				<path class="st2" d="M11503.1-1599.4v2.8h3.8v1.8h-3.8v3h4.2v1.8h-6.5v-11.2h6.5v1.8H11503.1z"/>
				<path class="st2" d="M11511.6-1590.3c-0.6-0.3-1.1-0.7-1.5-1.2c-0.4-0.5-0.5-1.1-0.6-1.8h2.4c0,0.5,0.2,0.8,0.5,1.1
					c0.3,0.3,0.7,0.4,1.2,0.4c0.5,0,0.9-0.1,1.2-0.4c0.3-0.3,0.4-0.6,0.4-1c0-0.3-0.1-0.6-0.3-0.8c-0.2-0.2-0.5-0.4-0.8-0.5
					c-0.3-0.1-0.7-0.3-1.3-0.4c-0.7-0.2-1.3-0.4-1.8-0.6c-0.5-0.2-0.8-0.5-1.2-0.9c-0.3-0.4-0.5-1-0.5-1.7c0-0.7,0.2-1.2,0.5-1.7
					c0.3-0.5,0.8-0.9,1.4-1.1c0.6-0.3,1.3-0.4,2-0.4c1.2,0,2.1,0.3,2.8,0.8c0.7,0.6,1.1,1.3,1.2,2.3h-2.5c0-0.4-0.2-0.7-0.5-1
					c-0.3-0.3-0.7-0.4-1.2-0.4c-0.4,0-0.8,0.1-1,0.3c-0.3,0.2-0.4,0.5-0.4,1c0,0.3,0.1,0.5,0.3,0.7s0.4,0.4,0.7,0.5
					c0.3,0.1,0.7,0.3,1.2,0.4c0.7,0.2,1.3,0.4,1.8,0.6c0.5,0.2,0.9,0.5,1.2,1c0.3,0.4,0.5,1,0.5,1.7c0,0.6-0.2,1.2-0.5,1.7
					c-0.3,0.5-0.8,0.9-1.4,1.2c-0.6,0.3-1.3,0.5-2.1,0.5C11512.9-1589.9,11512.2-1590,11511.6-1590.3z"/>
			</g>
			<g class="st1">
				<path class="st2" d="M11418.6-1586.5c0.9,0.5,1.6,1.1,2.1,2c0.5,0.8,0.7,1.8,0.7,3s-0.2,2.1-0.7,2.9c-0.5,0.8-1.2,1.5-2.1,1.9
					c-0.9,0.5-1.9,0.7-3.1,0.7h-3.9v-11.2h3.9C11416.7-1587.2,11417.7-1586.9,11418.6-1586.5z M11418.1-1578.9c0.6-0.6,1-1.5,1-2.7
					c0-1.2-0.3-2.1-1-2.7c-0.6-0.7-1.5-1-2.7-1h-1.6v7.4h1.6C11416.6-1577.9,11417.5-1578.2,11418.1-1578.9z"/>
				<path class="st2" d="M11425.8-1576.6c-0.9-0.5-1.6-1.2-2.1-2c-0.5-0.9-0.8-1.9-0.8-3c0-1.1,0.3-2.1,0.8-2.9
					c0.5-0.9,1.2-1.5,2.1-2c0.9-0.5,1.8-0.7,2.9-0.7c1.1,0,2,0.2,2.9,0.7s1.6,1.2,2.1,2c0.5,0.9,0.8,1.8,0.8,2.9
					c0,1.1-0.3,2.1-0.8,3c-0.5,0.9-1.2,1.5-2.1,2c-0.9,0.5-1.8,0.7-2.9,0.7C11427.7-1575.9,11426.7-1576.1,11425.8-1576.6z
					 M11430.5-1578.3c0.5-0.3,0.9-0.7,1.2-1.3c0.3-0.6,0.4-1.2,0.4-2c0-0.7-0.1-1.4-0.4-2c-0.3-0.6-0.7-1-1.2-1.3
					c-0.5-0.3-1.1-0.4-1.8-0.4s-1.3,0.1-1.8,0.4c-0.5,0.3-0.9,0.7-1.2,1.3c-0.3,0.6-0.4,1.2-0.4,2c0,0.7,0.1,1.4,0.4,2
					c0.3,0.6,0.7,1,1.2,1.3c0.5,0.3,1.1,0.5,1.8,0.5S11430-1578,11430.5-1578.3z"/>
				<path class="st2" d="M11448.5-1587.2v1.8h-3v9.4h-2.2v-9.4h-3v-1.8H11448.5z"/>
				<path class="st2" d="M11452.8-1585.4v2.8h3.8v1.8h-3.8v3h4.2v1.8h-6.5v-11.2h6.5v1.8H11452.8z"/>
				<path class="st2" d="M11465.3-1576l-2.5-4.4h-1.1v4.4h-2.2v-11.2h4.2c0.9,0,1.6,0.2,2.2,0.5c0.6,0.3,1.1,0.7,1.4,1.2
					c0.3,0.5,0.5,1.1,0.5,1.7c0,0.7-0.2,1.4-0.6,2c-0.4,0.6-1.1,1-1.9,1.2l2.7,4.5H11465.3z M11461.8-1582h1.9
					c0.6,0,1.1-0.1,1.4-0.4c0.3-0.3,0.4-0.7,0.4-1.2c0-0.5-0.1-0.9-0.4-1.2c-0.3-0.3-0.8-0.4-1.4-0.4h-1.9V-1582z"/>
				<path class="st2" d="M11476.1-1576l-2.5-4.4h-1.1v4.4h-2.2v-11.2h4.2c0.9,0,1.6,0.2,2.2,0.5c0.6,0.3,1.1,0.7,1.4,1.2
					c0.3,0.5,0.5,1.1,0.5,1.7c0,0.7-0.2,1.4-0.6,2s-1.1,1-1.9,1.2l2.7,4.5H11476.1z M11472.5-1582h1.9c0.6,0,1.1-0.1,1.4-0.4
					c0.3-0.3,0.4-0.7,0.4-1.2c0-0.5-0.1-0.9-0.4-1.2c-0.3-0.3-0.8-0.4-1.4-0.4h-1.9V-1582z"/>
				<path class="st2" d="M11483.3-1587.2v11.2h-2.2v-11.2H11483.3z"/>
				<path class="st2" d="M11493.6-1587.2v1.8h-3v9.4h-2.2v-9.4h-3v-1.8H11493.6z"/>
				<path class="st2" d="M11498-1576.6c-0.9-0.5-1.6-1.2-2.1-2s-0.8-1.9-0.8-3c0-1.1,0.3-2.1,0.8-2.9s1.2-1.5,2.1-2s1.8-0.7,2.9-0.7
					c1.1,0,2,0.2,2.9,0.7c0.9,0.5,1.6,1.2,2.1,2s0.8,1.8,0.8,2.9c0,1.1-0.3,2.1-0.8,3s-1.2,1.5-2.1,2c-0.9,0.5-1.8,0.7-2.9,0.7
					S11498.8-1576.1,11498-1576.6z M11502.6-1578.3c0.5-0.3,0.9-0.7,1.2-1.3c0.3-0.6,0.4-1.2,0.4-2c0-0.7-0.1-1.4-0.4-2
					c-0.3-0.6-0.7-1-1.2-1.3c-0.5-0.3-1.1-0.4-1.8-0.4s-1.3,0.1-1.8,0.4c-0.5,0.3-0.9,0.7-1.2,1.3c-0.3,0.6-0.4,1.2-0.4,2
					c0,0.7,0.1,1.4,0.4,2c0.3,0.6,0.7,1,1.2,1.3c0.5,0.3,1.1,0.5,1.8,0.5S11502.1-1578,11502.6-1578.3z M11502.6-1589.5l-3.7,1.7
					v-1.6l3.7-1.9V-1589.5z"/>
				<path class="st2" d="M11514.5-1576l-2.5-4.4h-1.1v4.4h-2.2v-11.2h4.2c0.9,0,1.6,0.2,2.2,0.5c0.6,0.3,1.1,0.7,1.4,1.2
					c0.3,0.5,0.5,1.1,0.5,1.7c0,0.7-0.2,1.4-0.6,2c-0.4,0.6-1.1,1-1.9,1.2l2.7,4.5H11514.5z M11510.9-1582h1.9
					c0.6,0,1.1-0.1,1.4-0.4c0.3-0.3,0.4-0.7,0.4-1.2c0-0.5-0.1-0.9-0.4-1.2c-0.3-0.3-0.8-0.4-1.4-0.4h-1.9V-1582z"/>
				<path class="st2" d="M11521.7-1587.2v11.2h-2.2v-11.2H11521.7z"/>
				<path class="st2" d="M11526.7-1576.6c-0.9-0.5-1.6-1.2-2.1-2s-0.8-1.9-0.8-3c0-1.1,0.3-2.1,0.8-2.9s1.2-1.5,2.1-2
					s1.8-0.7,2.9-0.7c1.1,0,2,0.2,2.9,0.7c0.9,0.5,1.6,1.2,2.1,2s0.8,1.8,0.8,2.9c0,1.1-0.3,2.1-0.8,3s-1.2,1.5-2.1,2
					c-0.9,0.5-1.8,0.7-2.9,0.7S11527.6-1576.1,11526.7-1576.6z M11531.3-1578.3c0.5-0.3,0.9-0.7,1.2-1.3c0.3-0.6,0.4-1.2,0.4-2
					c0-0.7-0.1-1.4-0.4-2c-0.3-0.6-0.7-1-1.2-1.3c-0.5-0.3-1.1-0.4-1.8-0.4s-1.3,0.1-1.8,0.4c-0.5,0.3-0.9,0.7-1.2,1.3
					c-0.3,0.6-0.4,1.2-0.4,2c0,0.7,0.1,1.4,0.4,2c0.3,0.6,0.7,1,1.2,1.3c0.5,0.3,1.1,0.5,1.8,0.5S11530.8-1578,11531.3-1578.3z"/>
			</g>
		</g>
	</g>
</g>
</svg>
