<?xml version="1.0" encoding="UTF-8"?><svg xmlns="http://www.w3.org/2000/svg" xmlns:xlink="http://www.w3.org/1999/xlink" viewBox="0 0 371 334"><defs><style>.cls-1{fill:url(#linear-gradient);}.cls-2,.cls-3{fill:#ebeff2;}.cls-4{fill:#f4f7fa;}.cls-5,.cls-6,.cls-7,.cls-8,.cls-9,.cls-10{fill:#fff;}.cls-11{fill:#b7c0ce;}.cls-12,.cls-13,.cls-14{fill:#d8dee8;}.cls-15{fill:#26264f;}.cls-6,.cls-7{mix-blend-mode:soft-light;}.cls-6,.cls-10{opacity:.74;}.cls-7,.cls-16,.cls-9{opacity:.5;}.cls-17{fill:url(#linear-gradient-110);}.cls-18{fill:url(#linear-gradient-106);}.cls-19{fill:url(#linear-gradient-107);}.cls-20{fill:url(#linear-gradient-109);}.cls-21{fill:url(#linear-gradient-108);}.cls-22{fill:url(#linear-gradient-104);}.cls-23{fill:url(#linear-gradient-103);}.cls-24{fill:url(#linear-gradient-102);}.cls-25{fill:url(#linear-gradient-105);}.cls-26{fill:url(#linear-gradient-101);}.cls-27{fill:url(#linear-gradient-100);}.cls-13,.cls-3,.cls-14,.cls-28,.cls-29,.cls-30,.cls-31,.cls-32,.cls-33,.cls-34,.cls-35,.cls-36,.cls-37,.cls-38,.cls-39,.cls-40,.cls-41,.cls-42,.cls-43,.cls-44,.cls-45,.cls-46,.cls-47,.cls-48,.cls-49,.cls-50,.cls-51,.cls-52,.cls-53,.cls-16{mix-blend-mode:multiply;}.cls-13,.cls-3,.cls-28,.cls-29,.cls-30,.cls-31,.cls-32,.cls-33,.cls-34,.cls-35,.cls-36,.cls-37,.cls-38,.cls-39,.cls-40,.cls-41,.cls-42,.cls-43,.cls-44,.cls-45,.cls-46,.cls-47,.cls-48,.cls-49,.cls-50,.cls-51,.cls-52,.cls-53{opacity:.3;}.cls-14{opacity:.49;}.cls-28{fill:url(#linear-gradient-6);}.cls-29{fill:url(#linear-gradient-9);}.cls-30{fill:url(#linear-gradient-3);}.cls-31{fill:url(#linear-gradient-12);}.cls-32{fill:url(#linear-gradient-15);}.cls-33{fill:url(#linear-gradient-21);}.cls-34{fill:url(#linear-gradient-18);}.cls-35{fill:url(#linear-gradient-24);}.cls-36{fill:url(#linear-gradient-27);}.cls-37{fill:url(#linear-gradient-30);}.cls-38{fill:url(#linear-gradient-33);}.cls-39{fill:url(#linear-gradient-36);}.cls-40{fill:url(#linear-gradient-39);}.cls-41{fill:url(#linear-gradient-88);}.cls-42{fill:url(#linear-gradient-92);}.cls-43{fill:url(#linear-gradient-90);}.cls-44{fill:url(#linear-gradient-84);}.cls-45{fill:url(#linear-gradient-57);}.cls-46{fill:url(#linear-gradient-54);}.cls-47{fill:url(#linear-gradient-60);}.cls-48{fill:url(#linear-gradient-77);}.cls-49{fill:url(#linear-gradient-51);}.cls-50{fill:url(#linear-gradient-42);}.cls-51{fill:url(#linear-gradient-45);}.cls-52{fill:url(#linear-gradient-48);}.cls-54{fill:url(#linear-gradient-8);}.cls-55{fill:url(#linear-gradient-4);}.cls-56{fill:url(#linear-gradient-2);}.cls-57{fill:url(#linear-gradient-7);}.cls-58{fill:url(#linear-gradient-5);}.cls-59{fill:url(#linear-gradient-59);}.cls-60{fill:url(#linear-gradient-58);}.cls-61{fill:url(#linear-gradient-55);}.cls-62{fill:url(#linear-gradient-56);}.cls-63{fill:url(#linear-gradient-53);}.cls-64{fill:url(#linear-gradient-52);}.cls-65{fill:url(#linear-gradient-50);}.cls-66{fill:url(#linear-gradient-78);}.cls-67{fill:url(#linear-gradient-79);}.cls-68{fill:url(#linear-gradient-74);}.cls-69{fill:url(#linear-gradient-75);}.cls-70{fill:url(#linear-gradient-76);}.cls-71{fill:url(#linear-gradient-70);}.cls-72{fill:url(#linear-gradient-71);}.cls-73{fill:url(#linear-gradient-72);}.cls-74{fill:url(#linear-gradient-73);}.cls-75{fill:url(#linear-gradient-68);}.cls-76{fill:url(#linear-gradient-67);}.cls-77{fill:url(#linear-gradient-69);}.cls-78{fill:url(#linear-gradient-64);}.cls-79{fill:url(#linear-gradient-63);}.cls-80{fill:url(#linear-gradient-66);}.cls-81{fill:url(#linear-gradient-65);}.cls-82{fill:url(#linear-gradient-62);}.cls-83{fill:url(#linear-gradient-61);}.cls-84{fill:url(#linear-gradient-98);}.cls-85{fill:url(#linear-gradient-91);}.cls-86{fill:url(#linear-gradient-95);}.cls-87{fill:url(#linear-gradient-99);}.cls-88{fill:url(#linear-gradient-96);}.cls-89{fill:url(#linear-gradient-97);}.cls-90{fill:url(#linear-gradient-94);}.cls-91{fill:url(#linear-gradient-93);}.cls-92{fill:url(#linear-gradient-81);}.cls-93{fill:url(#linear-gradient-80);}.cls-94{fill:url(#linear-gradient-89);}.cls-95{fill:url(#linear-gradient-87);}.cls-96{fill:url(#linear-gradient-86);}.cls-97{fill:url(#linear-gradient-85);}.cls-98{fill:url(#linear-gradient-83);}.cls-99{fill:url(#linear-gradient-82);}.cls-100{fill:url(#linear-gradient-41);}.cls-101{fill:url(#linear-gradient-40);}.cls-102{fill:url(#linear-gradient-43);}.cls-103{fill:url(#linear-gradient-46);}.cls-104{fill:url(#linear-gradient-44);}.cls-105{fill:url(#linear-gradient-49);}.cls-106{fill:url(#linear-gradient-47);}.cls-107{fill:url(#linear-gradient-14);}.cls-108{fill:url(#linear-gradient-22);}.cls-109{fill:url(#linear-gradient-20);}.cls-110{fill:url(#linear-gradient-23);}.cls-111{fill:url(#linear-gradient-19);}.cls-112{fill:url(#linear-gradient-16);}.cls-113{fill:url(#linear-gradient-17);}.cls-114{fill:url(#linear-gradient-13);}.cls-115{fill:url(#linear-gradient-10);}.cls-116{fill:url(#linear-gradient-11);}.cls-117{fill:url(#linear-gradient-26);}.cls-118{fill:url(#linear-gradient-38);}.cls-119{fill:url(#linear-gradient-35);}.cls-120{fill:url(#linear-gradient-37);}.cls-121{fill:url(#linear-gradient-34);}.cls-122{fill:url(#linear-gradient-25);}.cls-123{fill:url(#linear-gradient-28);}.cls-124{fill:url(#linear-gradient-29);}.cls-125{fill:url(#linear-gradient-32);}.cls-126{fill:url(#linear-gradient-31);}.cls-127{isolation:isolate;}.cls-8{opacity:.58;}</style><linearGradient id="linear-gradient" x1="1037.05" y1="-4219.75" x2="1017.76" y2="-4160.57" gradientTransform="translate(-2293.46 3141.57) rotate(27.53) scale(1.08 .92) skewX(4.63)" gradientUnits="userSpaceOnUse"><stop offset="0" stop-color="#f36f56"/><stop offset="1" stop-color="#ffc444"/></linearGradient><linearGradient id="linear-gradient-2" x1="1036.53" y1="-4218.12" x2="1019.34" y2="-4165.41" gradientTransform="translate(-2293.46 3141.57) rotate(27.53) scale(1.08 .92) skewX(4.63)" gradientUnits="userSpaceOnUse"><stop offset="0" stop-color="#ffc444"/><stop offset="1" stop-color="#f36f56"/></linearGradient><linearGradient id="linear-gradient-3" x1="1038.29" y1="-4220.41" x2="1023.53" y2="-4182.42" xlink:href="#linear-gradient-2"/><linearGradient id="linear-gradient-4" x1="1068.8" y1="-4238.4" x2="1050.13" y2="-4181.14" xlink:href="#linear-gradient"/><linearGradient id="linear-gradient-5" x1="1068.29" y1="-4236.82" x2="1051.67" y2="-4185.82" xlink:href="#linear-gradient-2"/><linearGradient id="linear-gradient-6" x1="1070.01" y1="-4239.06" x2="1055.7" y2="-4202.24" xlink:href="#linear-gradient-2"/><linearGradient id="linear-gradient-7" x1="1099.23" y1="-4256.28" x2="1081.15" y2="-4200.83" xlink:href="#linear-gradient"/><linearGradient id="linear-gradient-8" x1="1098.74" y1="-4254.75" x2="1082.64" y2="-4205.36" xlink:href="#linear-gradient-2"/><linearGradient id="linear-gradient-9" x1="1100.41" y1="-4256.95" x2="1086.52" y2="-4221.22" xlink:href="#linear-gradient-2"/><linearGradient id="linear-gradient-10" x1="1128.43" y1="-4273.44" x2="1110.91" y2="-4219.7" xlink:href="#linear-gradient"/><linearGradient id="linear-gradient-11" x1="1127.95" y1="-4271.96" x2="1112.34" y2="-4224.09" xlink:href="#linear-gradient-2"/><linearGradient id="linear-gradient-12" x1="1129.58" y1="-4274.12" x2="1116.1" y2="-4239.42" xlink:href="#linear-gradient-2"/><linearGradient id="linear-gradient-13" x1="1156.46" y1="-4289.93" x2="1139.46" y2="-4237.8" xlink:href="#linear-gradient"/><linearGradient id="linear-gradient-14" x1="1156" y1="-4288.49" x2="1140.86" y2="-4242.05" xlink:href="#linear-gradient-2"/><linearGradient id="linear-gradient-15" x1="1157.58" y1="-4290.6" x2="1144.48" y2="-4256.89" xlink:href="#linear-gradient-2"/><linearGradient id="linear-gradient-16" x1="1053.39" y1="-4191.83" x2="1033.93" y2="-4132.12" xlink:href="#linear-gradient"/><linearGradient id="linear-gradient-17" x1="1052.86" y1="-4190.18" x2="1035.52" y2="-4136.99" xlink:href="#linear-gradient-2"/><linearGradient id="linear-gradient-18" x1="1054.62" y1="-4192.45" x2="1039.77" y2="-4154.22" xlink:href="#linear-gradient-2"/><linearGradient id="linear-gradient-19" x1="1084.79" y1="-4211.06" x2="1065.96" y2="-4153.3" xlink:href="#linear-gradient"/><linearGradient id="linear-gradient-20" x1="1084.28" y1="-4209.47" x2="1067.51" y2="-4158.02" xlink:href="#linear-gradient-2"/><linearGradient id="linear-gradient-21" x1="1085.99" y1="-4211.7" x2="1071.59" y2="-4174.64" xlink:href="#linear-gradient-2"/><linearGradient id="linear-gradient-22" x1="1114.89" y1="-4229.51" x2="1096.66" y2="-4173.58" xlink:href="#linear-gradient"/><linearGradient id="linear-gradient-23" x1="1114.39" y1="-4227.97" x2="1098.15" y2="-4178.15" xlink:href="#linear-gradient-2"/><linearGradient id="linear-gradient-24" x1="1116.06" y1="-4230.15" x2="1102.09" y2="-4194.2" xlink:href="#linear-gradient-2"/><linearGradient id="linear-gradient-25" x1="1143.76" y1="-4247.21" x2="1126.1" y2="-4193.02" xlink:href="#linear-gradient"/><linearGradient id="linear-gradient-26" x1="1143.28" y1="-4245.72" x2="1127.55" y2="-4197.44" xlink:href="#linear-gradient-2"/><linearGradient id="linear-gradient-27" x1="1144.91" y1="-4247.86" x2="1131.35" y2="-4212.95" xlink:href="#linear-gradient-2"/><linearGradient id="linear-gradient-28" x1="1171.49" y1="-4264.21" x2="1154.36" y2="-4211.65" xlink:href="#linear-gradient"/><linearGradient id="linear-gradient-29" x1="1171.03" y1="-4262.77" x2="1155.76" y2="-4215.94" xlink:href="#linear-gradient-2"/><linearGradient id="linear-gradient-30" x1="1172.61" y1="-4264.87" x2="1159.43" y2="-4230.95" xlink:href="#linear-gradient-2"/><linearGradient id="linear-gradient-31" x1="1069.73" y1="-4163.9" x2="1050.09" y2="-4103.66" xlink:href="#linear-gradient"/><linearGradient id="linear-gradient-32" x1="1069.2" y1="-4162.25" x2="1051.7" y2="-4108.58" xlink:href="#linear-gradient-2"/><linearGradient id="linear-gradient-33" x1="1070.96" y1="-4164.5" x2="1056" y2="-4126.02" xlink:href="#linear-gradient-2"/><linearGradient id="linear-gradient-34" x1="1100.78" y1="-4183.73" x2="1081.79" y2="-4125.46" xlink:href="#linear-gradient"/><linearGradient id="linear-gradient-35" x1="1100.27" y1="-4182.12" x2="1083.34" y2="-4130.22" xlink:href="#linear-gradient-2"/><linearGradient id="linear-gradient-36" x1="1101.98" y1="-4184.33" x2="1087.49" y2="-4147.03" xlink:href="#linear-gradient-2"/><linearGradient id="linear-gradient-37" x1="1130.55" y1="-4202.74" x2="1112.16" y2="-4146.33" xlink:href="#linear-gradient"/><linearGradient id="linear-gradient-38" x1="1130.05" y1="-4201.18" x2="1113.67" y2="-4150.94" xlink:href="#linear-gradient-2"/><linearGradient id="linear-gradient-39" x1="1131.72" y1="-4203.35" x2="1117.66" y2="-4167.17" xlink:href="#linear-gradient-2"/><linearGradient id="linear-gradient-40" x1="1159.1" y1="-4220.98" x2="1141.29" y2="-4166.33" xlink:href="#linear-gradient"/><linearGradient id="linear-gradient-41" x1="1158.62" y1="-4219.48" x2="1142.75" y2="-4170.79" xlink:href="#linear-gradient-2"/><linearGradient id="linear-gradient-42" x1="1160.25" y1="-4221.61" x2="1146.6" y2="-4186.48" xlink:href="#linear-gradient-2"/><linearGradient id="linear-gradient-43" x1="1186.52" y1="-4238.5" x2="1169.24" y2="-4185.51" xlink:href="#linear-gradient"/><linearGradient id="linear-gradient-44" x1="1186.05" y1="-4237.04" x2="1170.66" y2="-4189.83" xlink:href="#linear-gradient-2"/><linearGradient id="linear-gradient-45" x1="1187.64" y1="-4239.14" x2="1174.38" y2="-4205.01" xlink:href="#linear-gradient-2"/><linearGradient id="linear-gradient-46" x1="1086.07" y1="-4135.98" x2="1066.25" y2="-4075.2" xlink:href="#linear-gradient"/><linearGradient id="linear-gradient-47" x1="1085.53" y1="-4134.31" x2="1067.88" y2="-4080.17" xlink:href="#linear-gradient-2"/><linearGradient id="linear-gradient-48" x1="1087.29" y1="-4136.54" x2="1072.24" y2="-4097.81" xlink:href="#linear-gradient-2"/><linearGradient id="linear-gradient-49" x1="1116.77" y1="-4156.39" x2="1097.61" y2="-4097.62" xlink:href="#linear-gradient"/><linearGradient id="linear-gradient-50" x1="1116.25" y1="-4154.78" x2="1099.18" y2="-4102.42" xlink:href="#linear-gradient-2"/><linearGradient id="linear-gradient-51" x1="1117.97" y1="-4156.97" x2="1103.38" y2="-4119.43" xlink:href="#linear-gradient-2"/><linearGradient id="linear-gradient-52" x1="1146.2" y1="-4175.97" x2="1127.66" y2="-4119.08" xlink:href="#linear-gradient"/><linearGradient id="linear-gradient-53" x1="1145.7" y1="-4174.4" x2="1129.18" y2="-4123.72" xlink:href="#linear-gradient-2"/><linearGradient id="linear-gradient-54" x1="1147.37" y1="-4176.56" x2="1133.22" y2="-4140.14" xlink:href="#linear-gradient-2"/><linearGradient id="linear-gradient-55" x1="1174.44" y1="-4194.75" x2="1156.47" y2="-4139.64" xlink:href="#linear-gradient"/><linearGradient id="linear-gradient-56" x1="1173.95" y1="-4193.23" x2="1157.95" y2="-4144.14" xlink:href="#linear-gradient-2"/><linearGradient id="linear-gradient-57" x1="1175.58" y1="-4195.35" x2="1161.85" y2="-4160" xlink:href="#linear-gradient-2"/><linearGradient id="linear-gradient-58" x1="1201.55" y1="-4212.79" x2="1184.13" y2="-4159.36" xlink:href="#linear-gradient"/><linearGradient id="linear-gradient-59" x1="1201.08" y1="-4211.32" x2="1185.56" y2="-4163.72" xlink:href="#linear-gradient-2"/><linearGradient id="linear-gradient-60" x1="1202.67" y1="-4213.4" x2="1189.33" y2="-4179.06" xlink:href="#linear-gradient-2"/><linearGradient id="linear-gradient-61" x1="177.95" y1="157.79" x2="190.67" y2="240.25" gradientUnits="userSpaceOnUse"><stop offset="0" stop-color="#d8dee8"/><stop offset="1" stop-color="#97a6b7"/></linearGradient><linearGradient id="linear-gradient-62" x1="169.35" y1="158.66" x2="255.63" y2="120.28" gradientUnits="userSpaceOnUse"><stop offset="0" stop-color="#d8dee8"/><stop offset="1" stop-color="#97a6b7"/></linearGradient><linearGradient id="linear-gradient-63" x1="204.64" y1="158.45" x2="275.24" y2="158.45" xlink:href="#linear-gradient-62"/><linearGradient id="linear-gradient-64" x1="277.07" y1="133.28" x2="334.59" y2="133.28" gradientTransform="matrix(1, 0, 0, 1, 0, 0)" xlink:href="#linear-gradient-2"/><linearGradient id="linear-gradient-65" x1="277.07" y1="133.28" x2="334.59" y2="133.28" gradientTransform="matrix(1, 0, 0, 1, 0, 0)" xlink:href="#linear-gradient-2"/><linearGradient id="linear-gradient-66" x1="329.82" y1="44.39" x2="297.25" y2="70.25" gradientUnits="userSpaceOnUse"><stop offset=".49" stop-color="#ebeff2"/><stop offset="1" stop-color="#fff"/></linearGradient><linearGradient id="linear-gradient-67" x1="-8367.32" y1="235.41" x2="-8377.32" y2="222.38" gradientTransform="translate(-8314.38) rotate(-180) scale(1 -1)" gradientUnits="userSpaceOnUse"><stop offset="0" stop-color="#311944"/><stop offset="1" stop-color="#893976"/></linearGradient><linearGradient id="linear-gradient-68" x1="-8390.12" y1="206.31" x2="-8377.27" y2="172.24" xlink:href="#linear-gradient-67"/><linearGradient id="linear-gradient-69" x1="-8397.31" y1="212.38" x2="-8397.51" y2="229.05" xlink:href="#linear-gradient-67"/><linearGradient id="linear-gradient-70" x1="139.77" y1="184.13" x2="132.42" y2="229.12" gradientTransform="matrix(1, 0, 0, 1, 0, 0)" xlink:href="#linear-gradient-2"/><linearGradient id="linear-gradient-71" x1="-8463.07" y1="275.47" x2="-8448.85" y2="275.47" gradientTransform="translate(-8314.38) rotate(-180) scale(1 -1)" gradientUnits="userSpaceOnUse"><stop offset="0" stop-color="#311944"/><stop offset="1" stop-color="#6b3976"/></linearGradient><linearGradient id="linear-gradient-72" x1="-8453.27" y1="274.66" x2="-8441.5" y2="239.35" gradientTransform="translate(-8314.38) rotate(-180) scale(1 -1)" xlink:href="#linear-gradient-2"/><linearGradient id="linear-gradient-73" x1="-8436.6" y1="281.48" x2="-8422.38" y2="281.48" xlink:href="#linear-gradient-71"/><linearGradient id="linear-gradient-74" x1="-8426.81" y1="280.67" x2="-8415.04" y2="245.36" gradientTransform="translate(-8314.38) rotate(-180) scale(1 -1)" xlink:href="#linear-gradient-2"/><linearGradient id="linear-gradient-75" x1="79.4" y1="222.06" x2="129.01" y2="227.39" gradientUnits="userSpaceOnUse"><stop offset="0" stop-color="#26264f"/><stop offset="1" stop-color="#444b8c"/></linearGradient><linearGradient id="linear-gradient-76" x1="72.97" y1="235.49" x2="107.86" y2="239.23" xlink:href="#linear-gradient-75"/><linearGradient id="linear-gradient-77" x1="85.52" y1="163.98" x2="134.47" y2="163.98" gradientUnits="userSpaceOnUse"><stop offset="0" stop-color="#aa80f9"/><stop offset="1" stop-color="#6165d7"/></linearGradient><linearGradient id="linear-gradient-78" x1="1922.08" y1="-688.15" x2="1923.16" y2="-716.89" gradientTransform="translate(-1935 486.69) rotate(10.28)" xlink:href="#linear-gradient-2"/><linearGradient id="linear-gradient-79" x1="95.07" y1="122.94" x2="65.57" y2="133.74" gradientTransform="matrix(1, 0, 0, 1, 0, 0)" xlink:href="#linear-gradient-67"/><linearGradient id="linear-gradient-80" x1="1922.1" y1="-711.95" x2="1921.73" y2="-682.21" gradientTransform="translate(-1935 486.69) rotate(10.28)" xlink:href="#linear-gradient-2"/><linearGradient id="linear-gradient-81" x1="59.55" y1="186.44" x2="78.98" y2="186.44" xlink:href="#linear-gradient-77"/><linearGradient id="linear-gradient-82" x1="-8823.52" y1="232.17" x2="-8820.2" y2="203.03" gradientTransform="translate(-8728.88) rotate(-180) scale(1 -1)" gradientUnits="userSpaceOnUse"><stop offset="0" stop-color="#ff9085"/><stop offset="1" stop-color="#fb6fbb"/></linearGradient><linearGradient id="linear-gradient-83" x1="-8803.28" y1="168.42" x2="-8791.54" y2="240.22" gradientTransform="translate(-8728.88) rotate(-180) scale(1 -1)" xlink:href="#linear-gradient-2"/><linearGradient id="linear-gradient-84" x1="-8829.81" y1="231.46" x2="-8826.49" y2="202.31" xlink:href="#linear-gradient-82"/><linearGradient id="linear-gradient-85" x1="-64.95" y1="202.74" x2="-56.8" y2="194.98" gradientTransform="translate(232.42 -148.18) rotate(-2.27)" xlink:href="#linear-gradient-82"/><linearGradient id="linear-gradient-86" x1="-89.98" y1="152.5" x2="-61.9" y2="273.98" gradientTransform="translate(232.42 -148.18) rotate(-2.27)" xlink:href="#linear-gradient-82"/><linearGradient id="linear-gradient-87" x1="-396.71" y1="506.4" x2="-354.77" y2="547.16" gradientTransform="translate(323.32 -573.32) rotate(-19.8)" xlink:href="#linear-gradient-77"/><linearGradient id="linear-gradient-88" x1="-393.88" y1="526.69" x2="-368.56" y2="526.69" gradientTransform="translate(323.32 -573.32) rotate(-19.8)" xlink:href="#linear-gradient-82"/><linearGradient id="linear-gradient-89" x1="-7424.45" y1="2276.23" x2="-7382.51" y2="2316.98" gradientTransform="translate(-7482.09 -1166.07) rotate(-153.43)" xlink:href="#linear-gradient-77"/><linearGradient id="linear-gradient-90" x1="-7421.62" y1="2296.51" x2="-7396.3" y2="2296.51" gradientTransform="translate(-7482.09 -1166.07) rotate(-153.43)" xlink:href="#linear-gradient-82"/><linearGradient id="linear-gradient-91" x1="336.27" y1="-205.31" x2="378.2" y2="-164.56" gradientTransform="translate(-204.57 197.63) rotate(8.97)" xlink:href="#linear-gradient-82"/><linearGradient id="linear-gradient-92" x1="339.09" y1="-185.03" x2="364.41" y2="-185.03" gradientTransform="translate(-204.57 197.63) rotate(8.97)" xlink:href="#linear-gradient-82"/><linearGradient id="linear-gradient-93" x1="363.38" y1="-588.71" x2="318.4" y2="-502.89" gradientTransform="translate(-192.88 650.8) rotate(21.21)" xlink:href="#linear-gradient-77"/><linearGradient id="linear-gradient-94" x1="151.91" y1="-257.7" x2="64.84" y2="13.4" gradientTransform="translate(124.81 470.48) rotate(7.71)" xlink:href="#linear-gradient-2"/><linearGradient id="linear-gradient-95" x1="160.71" y1="213.08" x2="162.16" y2="222.88" gradientUnits="userSpaceOnUse"><stop offset="0" stop-color="#311944"/><stop offset="1" stop-color="#a03976"/></linearGradient><linearGradient id="linear-gradient-96" x1="165.99" y1="214.43" x2="169.43" y2="237.57" gradientTransform="matrix(1, 0, 0, 1, 0, 0)" xlink:href="#linear-gradient-2"/><linearGradient id="linear-gradient-97" x1="176.24" y1="298.03" x2="181.94" y2="315.38" gradientUnits="userSpaceOnUse"><stop offset="0" stop-color="#444b8c"/><stop offset="1" stop-color="#26264f"/></linearGradient><linearGradient id="linear-gradient-98" x1="181.62" y1="311.8" x2="179.52" y2="296.9" xlink:href="#linear-gradient-95"/><linearGradient id="linear-gradient-99" x1="202.82" y1="261.87" x2="218.6" y2="223.36" gradientTransform="matrix(1, 0, 0, 1, 0, 0)" xlink:href="#linear-gradient-71"/><linearGradient id="linear-gradient-100" x1="171.01" y1="300.74" x2="177.19" y2="319.55" xlink:href="#linear-gradient-97"/><linearGradient id="linear-gradient-101" x1="175.32" y1="311.67" x2="173.49" y2="298.7" xlink:href="#linear-gradient-95"/><linearGradient id="linear-gradient-102" x1="179.94" y1="310.2" x2="196.57" y2="254.79" gradientTransform="matrix(1, 0, 0, 1, 0, 0)" xlink:href="#linear-gradient-71"/><linearGradient id="linear-gradient-103" x1="206.21" y1="197.22" x2="213.1" y2="298.63" gradientTransform="matrix(1, 0, 0, 1, 0, 0)" xlink:href="#linear-gradient-2"/><linearGradient id="linear-gradient-104" x1="206.21" y1="197.22" x2="213.1" y2="298.63" gradientTransform="matrix(1, 0, 0, 1, 0, 0)" xlink:href="#linear-gradient-2"/><linearGradient id="linear-gradient-105" x1="204.03" y1="200.44" x2="194.57" y2="187.04" xlink:href="#linear-gradient-95"/><linearGradient id="linear-gradient-106" x1="209.34" y1="199.81" x2="197.51" y2="183.04" xlink:href="#linear-gradient-95"/><linearGradient id="linear-gradient-107" x1="208.52" y1="200.4" x2="196.68" y2="183.62" xlink:href="#linear-gradient-95"/><linearGradient id="linear-gradient-108" x1="197.68" y1="197.8" x2="204.56" y2="299.21" gradientTransform="matrix(1, 0, 0, 1, 0, 0)" xlink:href="#linear-gradient-2"/><linearGradient id="linear-gradient-109" x1="226.64" y1="211.32" x2="232.84" y2="302.6" gradientTransform="matrix(1, 0, 0, 1, 0, 0)" xlink:href="#linear-gradient-82"/><linearGradient id="linear-gradient-110" x1="226.64" y1="211.32" x2="232.84" y2="302.6" gradientTransform="matrix(1, 0, 0, 1, 0, 0)" xlink:href="#linear-gradient-82"/></defs><g class="cls-127"><g id="Illustration"><g><path class="cls-4" d="M351.22,139.47c-6.73-44.06-12.14-74.51-36.44-91.2-41-28.15-86.79,17.55-144.88-13.11C141.3,20.06,140.23,2.56,116.01,.23,73.16-3.88,38.07,47.26,35.03,51.65c-18.48,26.65-24.65,59.14-17.16,90.11,4.86,20.12,8.15,40.94,7.25,61.61-1.57,35.98-.67,69.56,34.25,91.02,31.18,19.16,70.41,36.06,107.85,39.02,25.44,2.01,53.97-1.24,78.49-7.87,124.95-33.75,114.77-125.49,105.51-186.08Z"/><g><path class="cls-12" d="M306.94,29.9H131.56c-3.86,0-6.43,3.17-5.73,7.07l24.24,134.64c.7,3.91,4.37,6.81,8.17,6.49l172.74-14.66c3.07-.26,5.05-3.3,4.42-6.8l-21.68-120.42c-.63-3.49-3.66-6.33-6.78-6.33Z"/><path class="cls-10" d="M157.95,176.5c-2.93,.25-5.77-2-6.31-5.02L127.42,36.96c-.54-3.01,1.45-5.47,4.42-5.47l175.35-.16c2.41,0,4.76,2.19,5.25,4.89l21.7,120.51c.49,2.7-1.04,5.06-3.42,5.26l-172.77,14.5Z"/><g><g><g><path class="cls-12" d="M166.2,54.88c1.08,6.03-2.78,11.01-8.67,11.13-5.93,.12-11.66-4.72-12.76-10.82-1.1-6.1,2.86-11.09,8.8-11.13,5.9-.05,11.54,4.8,12.63,10.83Z"/><g><path class="cls-1" d="M164.34,59.34c-1.88,4.95-7.71,6.74-13.04,3.98-5.36-2.78-8.15-9.1-6.22-14.08,1.93-4.97,7.81-6.69,13.11-3.87,5.28,2.8,8.02,9.04,6.14,13.98Z"/><path class="cls-56" d="M163.3,58.8c-1.68,4.41-6.87,6-11.62,3.54-4.77-2.48-7.26-8.1-5.54-12.54,1.71-4.42,6.95-5.96,11.68-3.46,4.71,2.49,7.15,8.06,5.48,12.46Z"/><path class="cls-30" d="M157.22,47.9c-.61-.32-1.29-.12-1.51,.45l-4.14,10.78c-.22,.58,.1,1.3,.72,1.63,.62,.32,1.3,.12,1.52-.46l4.13-10.77c.22-.57-.1-1.3-.71-1.62Z"/></g><path class="cls-6" d="M156.01,51.86c.4,2.24-1.04,4.08-3.24,4.12-2.2,.03-4.31-1.77-4.72-4.02-.41-2.25,1.05-4.09,3.25-4.12,2.2-.02,4.3,1.78,4.7,4.02Z"/></g><g><path class="cls-12" d="M202.82,54.35c1.06,5.9-2.63,10.78-8.27,10.89-5.68,.12-11.19-4.63-12.26-10.6-1.07-5.97,2.7-10.85,8.39-10.89,5.66-.05,11.08,4.7,12.14,10.6Z"/><g><path class="cls-55" d="M201.06,58.72c-1.79,4.84-7.36,6.6-12.48,3.89-5.14-2.72-7.84-8.91-6.01-13.78,1.83-4.86,7.45-6.55,12.55-3.79,5.07,2.74,7.72,8.86,5.94,13.68Z"/><path class="cls-58" d="M200.06,58.19c-1.59,4.32-6.56,5.87-11.12,3.46-4.58-2.43-6.98-7.93-5.35-12.27,1.62-4.33,6.64-5.83,11.18-3.38,4.52,2.44,6.88,7.89,5.29,12.19Z"/><path class="cls-28" d="M194.19,47.52c-.59-.32-1.24-.12-1.45,.44l-3.93,10.55c-.21,.56,.1,1.28,.69,1.59,.59,.31,1.24,.11,1.45-.45l3.92-10.54c.21-.56-.1-1.27-.69-1.59Z"/></g><path class="cls-6" d="M193.05,51.4c.39,2.19-.98,4-3.09,4.03-2.11,.03-4.14-1.73-4.54-3.93s.99-4.01,3.1-4.03c2.1-.02,4.12,1.74,4.52,3.93Z"/></g><g><path class="cls-12" d="M237.94,53.85c1.04,5.78-2.48,10.55-7.89,10.66-5.45,.11-10.74-4.53-11.8-10.38-1.05-5.85,2.55-10.62,8.01-10.67,5.43-.04,10.64,4.6,11.68,10.38Z"/><g><path class="cls-57" d="M236.26,58.13c-1.7,4.74-7.04,6.46-11.95,3.8-4.94-2.67-7.55-8.72-5.81-13.5,1.73-4.76,7.12-6.41,12.02-3.71,4.87,2.68,7.44,8.67,5.75,13.4Z"/><path class="cls-54" d="M235.3,57.6c-1.51,4.23-6.27,5.75-10.65,3.38-4.4-2.38-6.72-7.77-5.18-12.02,1.54-4.24,6.34-5.71,10.7-3.31,4.34,2.39,6.63,7.73,5.12,11.94Z"/><path class="cls-29" d="M229.63,47.16c-.57-.31-1.19-.12-1.38,.43l-3.73,10.33c-.2,.55,.1,1.25,.67,1.56,.57,.31,1.19,.11,1.39-.44l3.72-10.32c.2-.55-.1-1.24-.67-1.56Z"/></g><path class="cls-6" d="M228.55,50.95c.39,2.15-.93,3.91-2.94,3.94-2.02,.03-3.98-1.69-4.36-3.85-.39-2.16,.94-3.92,2.96-3.94,2.02-.02,3.96,1.7,4.35,3.85Z"/></g><g><path class="cls-12" d="M271.63,53.37c1.02,5.66-2.34,10.34-7.54,10.44-5.23,.11-10.33-4.45-11.36-10.17-1.03-5.73,2.41-10.4,7.65-10.45,5.21-.04,10.23,4.51,11.25,10.17Z"/><g><path class="cls-115" d="M270.03,57.56c-1.61,4.65-6.73,6.32-11.46,3.72-4.75-2.62-7.28-8.55-5.63-13.22,1.65-4.66,6.81-6.28,11.52-3.63,4.69,2.63,7.17,8.5,5.56,13.13Z"/><path class="cls-116" d="M269.11,57.04c-1.44,4.14-6,5.63-10.21,3.31-4.23-2.33-6.48-7.61-5.01-11.77,1.46-4.15,6.07-5.59,10.26-3.24,4.18,2.34,6.39,7.57,4.96,11.7Z"/><path class="cls-31" d="M263.63,46.81c-.54-.31-1.14-.12-1.33,.42l-3.54,10.11c-.19,.54,.1,1.22,.65,1.53,.55,.3,1.14,.11,1.33-.43l3.53-10.11c.19-.54-.1-1.22-.65-1.52Z"/></g><path class="cls-6" d="M262.61,50.52c.38,2.1-.88,3.83-2.81,3.86-1.94,.03-3.82-1.66-4.2-3.77s.89-3.84,2.83-3.86c1.94-.02,3.81,1.67,4.19,3.77Z"/></g><g><path class="cls-12" d="M303.99,52.9c1,5.55-2.21,10.13-7.21,10.23-5.02,.1-9.94-4.36-10.95-9.97-1.01-5.61,2.27-10.19,7.31-10.23,5-.04,9.84,4.42,10.84,9.97Z"/><g><path class="cls-114" d="M302.47,57.01c-1.53,4.55-6.45,6.19-11,3.64-4.57-2.56-7.02-8.38-5.45-12.96,1.56-4.57,6.52-6.15,11.06-3.56,4.51,2.58,6.92,8.33,5.39,12.87Z"/><path class="cls-107" d="M301.58,56.5c-1.37,4.06-5.75,5.52-9.8,3.24-4.07-2.29-6.25-7.46-4.85-11.54,1.39-4.07,5.81-5.48,9.85-3.17,4.02,2.3,6.17,7.42,4.81,11.47Z"/><path class="cls-32" d="M296.28,46.47c-.52-.3-1.09-.12-1.27,.41l-3.37,9.91c-.18,.53,.1,1.2,.63,1.5,.53,.3,1.1,.11,1.28-.42l3.36-9.9c.18-.53-.1-1.19-.63-1.49Z"/></g><path class="cls-6" d="M295.31,50.11c.37,2.06-.83,3.76-2.69,3.78-1.86,.03-3.68-1.63-4.05-3.7-.37-2.07,.84-3.77,2.7-3.79,1.86-.02,3.66,1.64,4.03,3.7Z"/></g></g><g><g><path class="cls-12" d="M171.95,86.8c1.08,6.03-2.77,11.1-8.64,11.33-5.91,.23-11.62-4.52-12.72-10.63-1.1-6.1,2.84-11.17,8.77-11.33,5.89-.16,11.51,4.6,12.59,10.63Z"/><g><path class="cls-112" d="M170.1,91.31c-1.87,5-7.68,6.91-12.99,4.23-5.34-2.69-8.13-8.98-6.21-14.01,1.92-5.02,7.78-6.85,13.07-4.13,5.26,2.71,8,8.93,6.13,13.91Z"/><path class="cls-113" d="M169.06,90.78c-1.67,4.46-6.85,6.15-11.58,3.76-4.75-2.4-7.24-8-5.53-12.48,1.71-4.47,6.92-6.11,11.64-3.68,4.69,2.41,7.13,7.96,5.47,12.4Z"/><path class="cls-34" d="M162.99,79.97c-.61-.31-1.29-.1-1.5,.48l-4.12,10.89c-.22,.58,.1,1.31,.72,1.62,.62,.31,1.29,.09,1.51-.49l4.11-10.88c.22-.58-.1-1.3-.71-1.61Z"/></g><path class="cls-6" d="M161.79,83.96c.4,2.24-1.04,4.12-3.22,4.19-2.19,.07-4.3-1.69-4.71-3.94-.41-2.25,1.05-4.13,3.24-4.19,2.19-.06,4.28,1.7,4.69,3.94Z"/></g><g><path class="cls-12" d="M208.45,85.6c1.06,5.9-2.61,10.86-8.24,11.08-5.66,.22-11.15-4.44-12.23-10.41-1.07-5.97,2.68-10.93,8.36-11.08,5.64-.15,11.04,4.51,12.11,10.41Z"/><g><path class="cls-111" d="M206.69,90.02c-1.78,4.89-7.34,6.75-12.44,4.13-5.13-2.64-7.82-8.79-6-13.72,1.82-4.91,7.43-6.7,12.51-4.03,5.05,2.66,7.7,8.74,5.93,13.62Z"/><path class="cls-109" d="M205.69,89.5c-1.58,4.36-6.54,6.01-11.08,3.67-4.56-2.35-6.96-7.83-5.34-12.21,1.62-4.37,6.61-5.97,11.14-3.6,4.51,2.37,6.86,7.79,5.28,12.14Z"/><path class="cls-33" d="M199.84,78.91c-.59-.31-1.23-.1-1.44,.47l-3.91,10.65c-.21,.57,.1,1.28,.69,1.58,.59,.31,1.24,.09,1.45-.48l3.9-10.65c.21-.57-.1-1.27-.69-1.58Z"/></g><path class="cls-6" d="M198.7,82.81c.39,2.19-.98,4.03-3.07,4.1-2.1,.07-4.13-1.66-4.52-3.86-.4-2.2,.99-4.04,3.09-4.1,2.1-.06,4.11,1.67,4.51,3.86Z"/></g><g><path class="cls-12" d="M243.45,84.45c1.04,5.78-2.46,10.63-7.86,10.84-5.43,.21-10.71-4.35-11.76-10.2-1.05-5.85,2.53-10.7,7.98-10.85,5.41-.14,10.61,4.42,11.65,10.2Z"/><g><path class="cls-108" d="M241.77,88.78c-1.69,4.79-7.01,6.61-11.91,4.03-4.93-2.59-7.53-8.61-5.8-13.43,1.72-4.81,7.1-6.56,11.98-3.94,4.86,2.6,7.42,8.57,5.73,13.34Z"/><path class="cls-110" d="M240.82,88.27c-1.5,4.27-6.25,5.88-10.61,3.59-4.38-2.31-6.7-7.67-5.17-11.96,1.53-4.28,6.32-5.85,10.67-3.52,4.33,2.32,6.61,7.63,5.11,11.89Z"/><path class="cls-35" d="M235.17,77.89c-.56-.3-1.18-.1-1.38,.46l-3.71,10.43c-.2,.56,.1,1.25,.67,1.55,.57,.3,1.19,.09,1.39-.47l3.7-10.42c.2-.55-.1-1.25-.67-1.55Z"/></g><path class="cls-6" d="M234.09,81.72c.39,2.15-.92,3.94-2.93,4.01-2.01,.07-3.96-1.63-4.35-3.79-.39-2.16,.93-3.95,2.95-4.01,2.01-.06,3.95,1.64,4.34,3.79Z"/></g><g><path class="cls-12" d="M277.03,83.35c1.02,5.66-2.33,10.41-7.51,10.62-5.21,.2-10.3-4.27-11.33-10-1.03-5.73,2.39-10.48,7.62-10.62,5.19-.14,10.2,4.34,11.22,10Z"/><g><path class="cls-122" d="M275.44,87.58c-1.6,4.69-6.71,6.47-11.42,3.94-4.74-2.54-7.26-8.44-5.62-13.16,1.64-4.71,6.79-6.42,11.48-3.85,4.67,2.55,7.15,8.4,5.55,13.07Z"/><path class="cls-117" d="M274.52,87.08c-1.43,4.18-5.98,5.76-10.18,3.51-4.22-2.26-6.46-7.52-5-11.72,1.46-4.19,6.04-5.72,10.23-3.44,4.17,2.27,6.37,7.48,4.95,11.65Z"/><path class="cls-36" d="M269.05,76.92c-.54-.3-1.14-.1-1.32,.45l-3.53,10.21c-.19,.55,.1,1.23,.65,1.52,.55,.29,1.14,.09,1.33-.46l3.51-10.21c.19-.54-.1-1.22-.64-1.52Z"/></g><path class="cls-6" d="M268.03,80.66c.38,2.1-.87,3.86-2.8,3.93-1.93,.06-3.81-1.6-4.19-3.71-.38-2.11,.88-3.87,2.82-3.93,1.93-.06,3.8,1.61,4.18,3.71Z"/></g><g><path class="cls-12" d="M309.28,82.29c1,5.55-2.2,10.2-7.18,10.4-5.01,.2-9.91-4.19-10.92-9.8-1.01-5.61,2.26-10.27,7.28-10.4,4.99-.13,9.81,4.26,10.81,9.81Z"/><g><path class="cls-123" d="M307.76,86.44c-1.52,4.6-6.42,6.33-10.96,3.86-4.56-2.49-7-8.28-5.44-12.9,1.56-4.61,6.5-6.29,11.02-3.77,4.5,2.51,6.9,8.23,5.38,12.82Z"/><path class="cls-124" d="M306.88,85.95c-1.36,4.09-5.72,5.64-9.76,3.43-4.06-2.22-6.23-7.37-4.84-11.49,1.39-4.11,5.78-5.6,9.81-3.36,4.01,2.23,6.15,7.34,4.8,11.42Z"/><path class="cls-37" d="M301.59,75.98c-.52-.29-1.09-.1-1.27,.44l-3.35,10.01c-.18,.54,.1,1.2,.63,1.49,.53,.29,1.1,.09,1.28-.45l3.34-10c.18-.53-.1-1.2-.62-1.49Z"/></g><path class="cls-6" d="M300.63,79.65c.37,2.06-.83,3.78-2.68,3.85-1.86,.06-3.66-1.57-4.04-3.64-.37-2.07,.83-3.79,2.69-3.85,1.85-.05,3.65,1.58,4.02,3.64Z"/></g></g><g><g><path class="cls-12" d="M177.7,118.72c1.08,6.03-2.75,11.18-8.6,11.52-5.89,.34-11.59-4.33-12.69-10.43-1.1-6.1,2.83-11.26,8.73-11.53,5.87-.26,11.47,4.41,12.56,10.43Z"/><g><path class="cls-126" d="M175.85,123.28c-1.86,5.05-7.65,7.07-12.95,4.48-5.33-2.6-8.11-8.86-6.2-13.95,1.91-5.07,7.75-7.02,13.02-4.38,5.25,2.62,7.98,8.81,6.12,13.85Z"/><path class="cls-125" d="M174.82,122.77c-1.66,4.5-6.82,6.3-11.54,3.99-4.74-2.32-7.22-7.89-5.51-12.42,1.7-4.52,6.9-6.26,11.6-3.91,4.68,2.34,7.11,7.85,5.46,12.34Z"/><path class="cls-38" d="M168.77,112.03c-.61-.3-1.28-.08-1.5,.51l-4.1,11c-.22,.59,.1,1.31,.72,1.61,.61,.3,1.29,.07,1.51-.52l4.09-10.99c.22-.58-.1-1.3-.71-1.61Z"/></g><path class="cls-6" d="M167.57,116.06c.4,2.24-1.03,4.15-3.21,4.26-2.18,.11-4.29-1.62-4.69-3.87-.41-2.25,1.04-4.16,3.23-4.26,2.18-.1,4.27,1.63,4.67,3.87Z"/></g><g><path class="cls-12" d="M214.08,116.85c1.06,5.9-2.6,10.94-8.2,11.27-5.64,.33-11.12-4.25-12.19-10.22-1.07-5.97,2.67-11.02,8.33-11.27,5.62-.25,11.01,4.33,12.07,10.22Z"/><g><path class="cls-121" d="M212.32,121.31c-1.77,4.94-7.31,6.91-12.39,4.37-5.11-2.55-7.8-8.68-5.99-13.65,1.81-4.96,7.4-6.86,12.46-4.27,5.04,2.57,7.68,8.63,5.92,13.56Z"/><path class="cls-119" d="M211.33,120.81c-1.58,4.4-6.51,6.15-11.04,3.89-4.55-2.28-6.94-7.73-5.33-12.16,1.61-4.42,6.59-6.11,11.1-3.81,4.49,2.29,6.85,7.69,5.27,12.08Z"/><path class="cls-39" d="M205.49,110.29c-.59-.3-1.23-.08-1.44,.49l-3.89,10.76c-.21,.58,.1,1.28,.69,1.58,.59,.3,1.24,.07,1.44-.51l3.88-10.75c.21-.57-.1-1.28-.69-1.57Z"/></g><path class="cls-6" d="M204.36,114.23c.39,2.19-.97,4.06-3.06,4.17-2.09,.11-4.11-1.59-4.51-3.79-.4-2.2,.98-4.07,3.08-4.17,2.09-.1,4.1,1.6,4.49,3.79Z"/></g><g><path class="cls-12" d="M248.96,115.06c1.04,5.78-2.45,10.71-7.83,11.02-5.41,.31-10.68-4.17-11.73-10.02-1.05-5.85,2.52-10.78,7.94-11.03,5.39-.24,10.58,4.25,11.62,10.02Z"/><g><path class="cls-120" d="M247.29,119.42c-1.68,4.84-6.98,6.76-11.87,4.27-4.91-2.51-7.51-8.5-5.79-13.37,1.72-4.85,7.07-6.71,11.94-4.17,4.84,2.52,7.4,8.46,5.72,13.28Z"/><path class="cls-118" d="M246.34,118.93c-1.5,4.31-6.23,6.02-10.58,3.79-4.37-2.23-6.69-7.57-5.16-11.91,1.53-4.32,6.29-5.98,10.63-3.72,4.32,2.25,6.6,7.54,5.1,11.83Z"/><path class="cls-40" d="M240.7,108.62c-.56-.29-1.18-.08-1.37,.48l-3.69,10.53c-.2,.56,.1,1.25,.67,1.54,.57,.29,1.18,.07,1.38-.49l3.68-10.52c.2-.56-.1-1.25-.66-1.54Z"/></g><path class="cls-6" d="M239.63,112.48c.39,2.15-.92,3.97-2.92,4.08-2.01,.1-3.95-1.56-4.34-3.72-.39-2.16,.93-3.98,2.94-4.08,2-.09,3.94,1.57,4.32,3.72Z"/></g><g><path class="cls-12" d="M282.43,113.33c1.02,5.66-2.31,10.49-7.48,10.79-5.19,.3-10.26-4.1-11.3-9.82-1.03-5.73,2.38-10.56,7.58-10.79,5.17-.23,10.17,4.17,11.19,9.83Z"/><g><path class="cls-101" d="M280.84,117.61c-1.59,4.74-6.68,6.61-11.38,4.16-4.72-2.46-7.24-8.34-5.61-13.1,1.63-4.75,6.76-6.57,11.44-4.08,4.66,2.48,7.13,8.29,5.54,13.01Z"/><path class="cls-100" d="M279.92,117.13c-1.42,4.22-5.96,5.89-10.14,3.71-4.2-2.19-6.44-7.42-4.99-11.67,1.45-4.23,6.02-5.85,10.19-3.64,4.15,2.21,6.36,7.39,4.94,11.6Z"/><path class="cls-50" d="M274.48,107.03c-.54-.29-1.13-.08-1.32,.47l-3.51,10.31c-.19,.55,.1,1.23,.65,1.51,.54,.28,1.14,.07,1.32-.48l3.5-10.3c.19-.55-.1-1.22-.64-1.51Z"/></g><path class="cls-6" d="M273.46,110.8c.38,2.1-.87,3.89-2.79,3.99-1.93,.1-3.8-1.53-4.18-3.65-.38-2.11,.88-3.9,2.8-3.99,1.92-.09,3.78,1.54,4.16,3.65Z"/></g><g><path class="cls-12" d="M314.57,111.68c1,5.55-2.19,10.28-7.15,10.56-4.99,.29-9.88-4.03-10.89-9.64-1.01-5.61,2.25-10.34,7.25-10.57,4.97-.22,9.78,4.09,10.78,9.64Z"/><g><path class="cls-102" d="M313.06,115.87c-1.52,4.64-6.4,6.47-10.92,4.07-4.55-2.41-6.98-8.18-5.43-12.84,1.55-4.65,6.47-6.43,10.98-3.98,4.48,2.43,6.88,8.13,5.37,12.76Z"/><path class="cls-104" d="M312.18,115.4c-1.35,4.13-5.7,5.76-9.73,3.62-4.05-2.15-6.22-7.28-4.83-11.44,1.38-4.15,5.76-5.73,9.78-3.55,4,2.17,6.14,7.25,4.79,11.37Z"/><path class="cls-51" d="M306.91,105.49c-.52-.28-1.09-.08-1.26,.46l-3.33,10.1c-.18,.54,.1,1.2,.63,1.48,.52,.28,1.09,.07,1.27-.47l3.32-10.09c.18-.54-.1-1.2-.62-1.48Z"/></g><path class="cls-6" d="M305.94,109.19c.37,2.06-.82,3.81-2.67,3.91-1.85,.1-3.65-1.5-4.03-3.58-.37-2.07,.83-3.82,2.68-3.91,1.85-.09,3.64,1.51,4.01,3.58Z"/></g></g><g><g><path class="cls-12" d="M183.44,150.64c1.08,6.03-2.74,11.27-8.57,11.72-5.87,.45-11.55-4.13-12.65-10.23-1.1-6.1,2.81-11.35,8.7-11.73,5.85-.37,11.44,4.21,12.52,10.24Z"/><g><path class="cls-103" d="M181.61,155.25c-1.86,5.1-7.62,7.23-12.9,4.73-5.31-2.51-8.09-8.74-6.18-13.88,1.9-5.12,7.72-7.18,12.98-4.63,5.23,2.54,7.96,8.69,6.11,13.78Z"/><path class="cls-106" d="M180.57,154.76c-1.65,4.55-6.8,6.44-11.5,4.21-4.73-2.24-7.2-7.78-5.5-12.36,1.69-4.56,6.87-6.4,11.56-4.13,4.66,2.26,7.09,7.75,5.44,12.28Z"/><path class="cls-52" d="M174.54,144.09c-.61-.29-1.28-.05-1.49,.54l-4.08,11.11c-.22,.59,.1,1.31,.71,1.6,.61,.29,1.28,.04,1.5-.55l4.07-11.1c.22-.59-.1-1.31-.71-1.6Z"/></g><path class="cls-6" d="M173.35,148.15c.4,2.24-1.03,4.18-3.2,4.34-2.18,.15-4.27-1.55-4.68-3.8-.41-2.25,1.04-4.19,3.22-4.34,2.17-.14,4.26,1.56,4.66,3.8Z"/></g><g><path class="cls-12" d="M219.7,148.1c1.06,5.9-2.58,11.03-8.17,11.45-5.63,.43-11.09-4.06-12.16-10.03-1.07-5.97,2.65-11.1,8.29-11.46,5.6-.36,10.98,4.14,12.04,10.04Z"/><g><path class="cls-105" d="M217.96,152.61c-1.76,4.99-7.28,7.07-12.35,4.61-5.1-2.47-7.78-8.56-5.98-13.59,1.8-5.01,7.37-7.02,12.42-4.52,5.02,2.49,7.66,8.52,5.9,13.49Z"/><path class="cls-65" d="M216.97,152.12c-1.57,4.45-6.49,6.29-11,4.1-4.54-2.2-6.93-7.63-5.32-12.1,1.6-4.46,6.56-6.26,11.06-4.03,4.48,2.22,6.83,7.59,5.26,12.02Z"/><path class="cls-49" d="M211.14,141.67c-.58-.29-1.22-.05-1.43,.52l-3.87,10.87c-.21,.58,.1,1.28,.69,1.57,.59,.29,1.23,.05,1.44-.53l3.86-10.86c.2-.58-.1-1.28-.69-1.57Z"/></g><path class="cls-6" d="M210.02,145.65c.39,2.19-.97,4.09-3.05,4.24-2.09,.15-4.1-1.52-4.5-3.72-.4-2.2,.98-4.1,3.06-4.24,2.08-.14,4.09,1.53,4.48,3.72Z"/></g><g><path class="cls-12" d="M254.47,145.66c1.04,5.78-2.44,10.79-7.8,11.2-5.39,.41-10.65-3.99-11.7-9.83-1.05-5.85,2.5-10.87,7.91-11.21,5.37-.34,10.54,4.07,11.58,9.84Z"/><g><path class="cls-64" d="M252.81,150.07c-1.67,4.88-6.96,6.91-11.83,4.5-4.9-2.42-7.49-8.39-5.78-13.31,1.71-4.9,7.04-6.86,11.89-4.41,4.83,2.44,7.38,8.35,5.71,13.22Z"/><path class="cls-63" d="M251.86,149.59c-1.49,4.35-6.2,6.15-10.54,4-4.36-2.16-6.67-7.48-5.15-11.85,1.52-4.37,6.27-6.12,10.59-3.93,4.3,2.18,6.58,7.44,5.09,11.78Z"/><path class="cls-46" d="M246.23,139.36c-.56-.28-1.17-.06-1.37,.51l-3.67,10.63c-.2,.57,.1,1.26,.67,1.54,.56,.28,1.18,.05,1.38-.52l3.66-10.63c.19-.56-.1-1.25-.66-1.53Z"/></g><path class="cls-6" d="M245.17,143.25c.39,2.15-.91,4-2.91,4.14-2,.14-3.94-1.49-4.33-3.65-.39-2.16,.92-4.01,2.92-4.15,2-.13,3.92,1.5,4.31,3.65Z"/></g><g><path class="cls-12" d="M287.82,143.32c1.02,5.66-2.3,10.57-7.44,10.96-5.18,.4-10.23-3.92-11.26-9.65-1.03-5.73,2.36-10.64,7.55-10.97,5.16-.33,10.14,4,11.16,9.66Z"/><g><path class="cls-61" d="M286.25,147.64c-1.59,4.78-6.66,6.76-11.34,4.39-4.71-2.38-7.22-8.23-5.6-13.04,1.62-4.8,6.73-6.71,11.4-4.3,4.64,2.4,7.11,8.19,5.53,12.96Z"/><path class="cls-62" d="M285.33,147.17c-1.41,4.26-5.93,6.02-10.1,3.9-4.19-2.12-6.43-7.33-4.98-11.61,1.44-4.27,6-5.98,10.15-3.83,4.14,2.14,6.34,7.3,4.93,11.55Z"/><path class="cls-45" d="M279.9,137.14c-.54-.28-1.13-.06-1.31,.5l-3.49,10.41c-.19,.56,.1,1.23,.65,1.51,.54,.28,1.13,.05,1.32-.51l3.48-10.4c.18-.55-.1-1.23-.64-1.5Z"/></g><path class="cls-6" d="M278.89,140.95c.38,2.1-.86,3.92-2.78,4.06-1.92,.14-3.79-1.47-4.17-3.58-.38-2.11,.87-3.93,2.79-4.06,1.92-.13,3.77,1.48,4.15,3.58Z"/></g><g><path class="cls-12" d="M319.86,141.07c1,5.55-2.17,10.35-7.12,10.73-4.97,.38-9.84-3.86-10.86-9.47-1.01-5.61,2.23-10.42,7.22-10.74,4.95-.32,9.75,3.93,10.75,9.48Z"/><g><path class="cls-60" d="M318.36,145.3c-1.51,4.68-6.37,6.61-10.88,4.28-4.53-2.34-6.97-8.07-5.42-12.79,1.54-4.7,6.45-6.57,10.94-4.2,4.47,2.36,6.86,8.03,5.36,12.7Z"/><path class="cls-59" d="M317.48,144.84c-1.34,4.17-5.68,5.89-9.69,3.81-4.03-2.08-6.2-7.19-4.83-11.39,1.37-4.18,5.74-5.85,9.74-3.74,3.99,2.1,6.12,7.16,4.78,11.32Z"/><path class="cls-47" d="M312.22,135c-.52-.27-1.08-.06-1.26,.49l-3.32,10.19c-.18,.55,.1,1.21,.63,1.48,.52,.27,1.09,.05,1.27-.5l3.31-10.19c.18-.54-.1-1.2-.62-1.47Z"/></g><path class="cls-6" d="M311.26,138.73c.37,2.06-.82,3.84-2.65,3.97-1.84,.13-3.64-1.44-4.02-3.51-.37-2.07,.82-3.85,2.67-3.97,1.84-.12,3.63,1.45,4,3.52Z"/></g></g></g><path class="cls-6" d="M295.46,128.85c-15.61-2.03-21.42,8.59-36.72,3.17-16.69-5.92-14.93-20.16-38.14-35.32-17.98-11.75-27.97-9.21-36.63-21.76-6.22-9.01-3.82-14.27-8.43-26.74-1.93-5.21-4.98-11.43-10.1-18.3h-33.64c-3.86,0-6.43,3.17-5.72,7.07l24.24,134.62c.7,3.91,4.37,6.81,8.16,6.49l172.7-14.66c2.35-.2,4.06-2.03,4.45-4.44-16.36-22.14-29.95-28.8-40.17-30.13Z"/><polygon class="cls-12" points="298.32 67.93 157.67 71.26 157.39 69.68 298.06 66.48 298.32 67.93"/><polygon class="cls-12" points="303.76 98.01 163.59 103.97 163.3 102.39 303.5 96.55 303.76 98.01"/><polygon class="cls-12" points="309.2 128.08 169.5 136.68 169.22 135.1 308.94 126.63 309.2 128.08"/></g><g><g><path class="cls-83" d="M195.32,159.97c-4.95-.65-10.38-1-16.08-1s-11.13,.36-16.08,1h-25.72v12.09c0,7.23,18.71,13.09,41.8,13.09s41.8-5.86,41.8-13.09v-12.09h-25.72Z"/><ellipse class="cls-5" cx="179.24" cy="159.97" rx="41.8" ry="13.09"/><path class="cls-13" d="M179.24,169.48c-10.81,0-20.93-1.3-28.49-3.67-7.95-2.49-9.73-5.12-9.73-5.84s1.79-3.36,9.73-5.84c7.56-2.37,17.67-3.67,28.49-3.67s20.93,1.3,28.49,3.67c7.95,2.49,9.73,5.12,9.73,5.84s-1.79,3.36-9.73,5.84c-7.56,2.37-17.67,3.67-28.49,3.67Z"/><path class="cls-13" d="M179.24,169.48c-10.81,0-20.93-1.4-28.49-3.94-7.95-2.67-9.73-5.49-9.73-6.27s1.79-3.6,9.73-6.27c7.56-2.54,17.67-3.94,28.49-3.94s20.93,1.4,28.49,3.94c7.95,2.67,9.73,5.49,9.73,6.27s-1.79,3.6-9.73,6.27c-7.56,2.54-17.67,3.94-28.49,3.94Z"/><path class="cls-12" d="M156.19,164.35c-1.02,0-1.92-.61-2.11-1.48-.21-.98,.56-1.92,1.72-2.1l43.53-6.69c1.16-.18,2.28,.47,2.5,1.45,.21,.98-.56,1.92-1.72,2.1l-43.53,6.69c-.13,.02-.26,.03-.39,.03Z"/></g><g><path class="cls-82" d="M195.32,146.14c-4.95-.65-10.38-1-16.08-1s-11.13,.36-16.08,1h-25.72v12.09c0,7.23,18.71,13.09,41.8,13.09s41.8-5.86,41.8-13.09v-12.09h-25.72Z"/><ellipse class="cls-5" cx="179.24" cy="146.14" rx="41.8" ry="13.09"/><path class="cls-13" d="M179.24,155.66c-10.81,0-20.93-1.3-28.49-3.67-7.95-2.49-9.73-5.12-9.73-5.84s1.79-3.36,9.73-5.84c7.56-2.37,17.67-3.67,28.49-3.67s20.93,1.3,28.49,3.67c7.95,2.49,9.73,5.12,9.73,5.84s-1.79,3.36-9.73,5.84c-7.56,2.37-17.67,3.67-28.49,3.67Z"/><path class="cls-13" d="M179.24,155.66c-10.81,0-20.93-1.4-28.49-3.94-7.95-2.67-9.73-5.5-9.73-6.27s1.79-3.6,9.73-6.27c7.56-2.54,17.67-3.94,28.49-3.94s20.93,1.4,28.49,3.94c7.95,2.67,9.73,5.49,9.73,6.27s-1.79,3.6-9.73,6.27c-7.56,2.54-17.67,3.94-28.49,3.94Z"/><path class="cls-12" d="M156.19,150.52c-1.02,0-1.92-.61-2.11-1.48-.21-.98,.56-1.92,1.72-2.1l43.53-6.69c1.16-.18,2.28,.47,2.5,1.45,.21,.98-.56,1.92-1.72,2.1l-43.53,6.69c-.13,.02-.26,.03-.39,.03Z"/></g><g><path class="cls-79" d="M274.84,158.22c3.07,17.82-12.25,32.9-30.37,34.61-18.44,1.74-36.2-11.75-39.37-30.14-3.17-18.4,10.26-37.56,28.8-38.71,18.21-1.13,37.86,16.43,40.94,34.25Z"/><path class="cls-5" d="M275.84,153.77c3.07,17.82-8.89,33.63-27,35.33-18.44,1.74-36.2-11.75-39.37-30.14-3.17-18.4,9.53-34.26,28.06-35.42,18.21-1.13,35.24,12.41,38.31,30.23Z"/><path class="cls-13" d="M245.63,186.35c-7.71,0-15.37-2.83-21.57-7.98-6.24-5.18-10.41-12.25-11.73-19.9-1.38-8.03,.48-15.78,5.26-21.82,4.8-6.07,11.94-9.69,20.12-10.2,.65-.04,1.3-.06,1.95-.06,15.98,0,30.61,12.25,33.31,27.88,1.35,7.85-.43,15.48-5.03,21.49-4.59,5.99-11.47,9.71-19.37,10.45-.97,.09-1.96,.14-2.94,.14Z"/><path class="cls-12" d="M238.48,129c-1.67,.11-2.79,1.53-2.51,3.18l8.25,47.84c.28,1.65,1.86,2.86,3.52,2.71,1.66-.15,2.77-1.6,2.49-3.25l-8.23-47.7c-.28-1.64-1.86-2.88-3.53-2.78Z"/><path class="cls-13" d="M250.23,179.48l-8.23-47.71c-.28-1.64-1.86-2.88-3.53-2.78-.57,.04-1.08,.23-1.49,.53,.1-.02,.2-.03,.3-.03,1.67-.11,3.24,1.14,3.53,2.78l8.23,47.7c.19,1.1-.25,2.12-1.06,2.71,1.53-.26,2.52-1.65,2.25-3.21Z"/></g></g><g><g><path class="cls-78" d="M277.07,67.89v119.58c0,6.18,12.88,11.2,28.76,11.2s28.76-5.01,28.76-11.2V67.89h-57.52Z"/><g class="cls-16"><path class="cls-81" d="M314.39,134.75c-5.11-19-22.26-20.33-25.91-36.45-1.52-6.73-.81-16.55,8.89-30.42h-20.3v119.58c0,6.18,12.88,11.2,28.76,11.2,6.12,0,11.78-.74,16.45-2.01-5.57-6.13-9.44-12.97-10.96-20.62-3.39-17.05,7.56-24.58,3.07-41.28Z"/></g><path class="cls-8" d="M334.59,164.85c-10.04,3.51-22.89,4.9-38.55,1.39V78.79h38.55v86.06Z"/></g><rect class="cls-80" x="274.96" y="55.55" width="61.76" height="15.76" rx="6.17" ry="6.17"/><g><rect class="cls-12" x="327.87" y="58.47" width="4.04" height="9.92" rx="1.96" ry="1.96"/><rect class="cls-12" x="320.83" y="58.47" width="4.04" height="9.92" rx="1.96" ry="1.96"/><rect class="cls-12" x="313.8" y="58.47" width="4.04" height="9.92" rx="1.96" ry="1.96"/><rect class="cls-12" x="306.76" y="58.47" width="4.04" height="9.92" rx="1.96" ry="1.96"/><rect class="cls-12" x="299.72" y="58.47" width="4.04" height="9.92" rx="1.96" ry="1.96"/><rect class="cls-12" x="292.69" y="58.47" width="4.04" height="9.92" rx="1.96" ry="1.96"/><rect class="cls-12" x="285.65" y="58.47" width="4.04" height="9.92" rx="1.96" ry="1.96"/><rect class="cls-12" x="278.62" y="58.47" width="4.04" height="9.92" rx="1.96" ry="1.96"/></g></g><g><ellipse class="cls-11" cx="80.02" cy="255.31" rx="24.53" ry="10.01"/><path class="cls-2" d="M55.49,254.14c0,5.22,10.98,9.45,24.53,9.45s24.53-4.23,24.53-9.45-10.98-13.76-24.53-13.76-24.53,8.54-24.53,13.76Z"/><path class="cls-3" d="M55.49,254.14c0-5.22,10.98-13.76,24.53-13.76,6.26,0,11.96,1.82,16.29,4.3,.3,.64,.44,1.27,.39,1.87-.28,2.94-5.07,4.74-7.82,5.34-6.92,1.5-10.3-2.64-16.01-2.48-3.53,.1-8.42,1.87-14.22,9.38-2.01-1.37-3.16-2.95-3.16-4.64Z"/><path class="cls-12" d="M78.68,246.92c.98,.24,1.89,.23,2.75,.02,.78-.2,1.32-.92,1.32-1.73v-23.54h-5.45v23.5c0,.83,.58,1.54,1.38,1.74Z"/><g><path class="cls-76" d="M108.84,214.8l-8.33-5.27c-.35-1.97-4.27-22.55-20.22-29.02-6.48-2.63-13.46-2.32-17.29-2.15-7.65,.34-13.1,.59-15.72,4.23-3.37,4.68,2.28,8.93,1.11,22.32-.48,5.46-1.69,7.89-.18,11.51,1.81,4.33,6.01,6.74,9.27,8.09,3.9,2.27,10.69,5.49,19.66,6.28,15.11,1.32,26.39-5.16,30.27-7.64,1.73-.54,3.02-1.98,3.39-3.75,.37-1.8-.41-3.63-1.96-4.61Z"/><path class="cls-75" d="M61.32,179.47c-5.65,.17-9.17,.1-11.11,2.63-2.04,2.65,.02,4.91,.4,14.34,.35,8.6-1.17,12,1.61,16.77,0,0,1.41,2.42,3.64,4.24,7.88,6.43,28.21,6.35,36.77-7.07,6.83-10.71,3.98-26.5-4.04-31.72-3.93-2.56-4.83,.14-27.27,.81Z"/><path class="cls-77" d="M109.45,210.07l-8.33-5.27s-22.32-7.34-42.97,3.01c-2.31,1.16-3.75,3.55-3.75,6.14,0,1.98,1.19,3.78,3.02,4.54,3.6,2.46,10.64,6.52,20.33,7.58,15.41,1.69,26.88-5.37,30.27-7.64,1.73-.54,3.02-1.98,3.39-3.75,.37-1.8-.41-3.63-1.96-4.61Z"/></g><g><path class="cls-71" d="M132.23,184.26s4.47,1.61,7.48-1.01c3.01-2.61,3.86-.54,.93,1.24-2.93,1.79,1.18,2.52,5.33-.19,4.15-2.71,3.8,1.71-2.35,4.17-6.15,2.47-9.22,.35-12.12-.49-2.89-.84,.72-3.73,.72-3.73Z"/><g><path class="cls-72" d="M145.77,275.46l-7.11-4.28h-3.21s-1.09,4.07-.97,4.28c1.43,2.34,8.09,4.13,12.25,4.28,.69,.02,1.65,.03,1.9-.47,.42-.85-1.46-2.62-2.85-3.8Z"/><path class="cls-73" d="M138.53,266.52c-.01,2.49,.09,4.25,.72,5.02,.44,.54-3.78,1.77-3.8-.36-.02-1.4-.23-3.8-.46-4.5,1.18-.05,2.36-.11,3.54-.16Z"/></g><g><path class="cls-74" d="M119.31,281.47l-7.11-4.28h-3.21s-1.09,4.07-.97,4.28c1.43,2.34,8.09,4.13,12.25,4.28,.69,.02,1.65,.03,1.9-.47,.42-.85-1.46-2.62-2.85-3.8Z"/><path class="cls-68" d="M112.07,272.53c-.01,2.49,.09,4.25,.72,5.02,.44,.54-3.78,1.77-3.8-.36-.02-1.4-.23-3.8-.46-4.5,1.18-.05,2.36-.11,3.54-.16Z"/></g><path class="cls-69" d="M138.82,268.59c2.01-12.15,.05-25.13-.41-32.1-.73-11.1-1.09-16.65-4.3-21.31-4.2-6.11-12.81-12.21-20.08-17.37-.63-.45-1.89-1.32-3.46-2.72-3.91-3.49-6.4-7.15-7.9-9.74-16.47-4.83-31.65-2.87-38.35,5.96-.77,1.02-2.71,3.23-3.09,6.5-.85,7.36,6.39,16.23,14.51,18.08,10.32,2.35,16.3-8.24,25.45-4.72,.91,.35,3.6,3.06,9.06,8.32,3.96,3.82,5.94,5.72,6.58,6.48,5.84,7.02,9.32,17.82,9.74,26.19,.07,1.48,.14,4.59,1.93,7.92,1.37,2.55,5.13,7.18,6.51,8.23,1.28,.1,2.56,.19,3.83,.29Z"/><path class="cls-70" d="M108.01,274.59s3.52,1.66,6.14,0c-.09-4.4-.09-11.3,.47-19.73,1.23-18.45,3.84-24.03,1.53-31.91-1.67-5.69-6.17-13.43-19.42-20.68l-33.67-3.3s-1.59,2.58-1.2,6.16c.71,6.55,8.24,10.56,14.53,13.85,12.43,6.48,15.06,3.5,19.1,7.87,5.47,5.91,2.06,12.85,5.05,27.46,1.81,8.82,4.98,15.72,7.47,20.28Z"/><path class="cls-5" d="M86.31,139.53c1.38-1.3,4.23-.41,8.82,1.03,2,.63,6.7,2.16,11.05,6.42,2.92,2.85,4.34,5.62,5.89,8.68,3.2,6.34,3.4,9.94,4.69,13.34,1.75,4.6,6.1,10.4,17.71,15.23-.66,1.65-1.32,3.31-1.99,4.96-4.52,.27-13.4,.11-21.68-5.3-5.75-3.76-8.71-8.73-14.4-18.54-5.15-8.88-13.48-22.62-10.1-25.82Z"/><path class="cls-48" d="M86.31,139.53c1.86-1.75,6.36-.37,8.82,1.03,4.45,2.52,3.21,5.56,9.06,11.88,3.23,3.49,5.15,4.23,6.32,7.58,.66,1.89,.27,2.3,1.1,6.22,.76,3.59,1.24,5.84,2.53,7.96,1.74,2.85,4.17,4.17,7.6,5.97,2.65,1.4,6.94,3.24,12.73,4.06-.66,1.65-1.32,3.31-1.99,4.96-4.52,.27-13.4,.11-21.68-5.3-5.75-3.76-8.71-8.73-14.4-18.54-5.15-8.88-13.48-22.62-10.1-25.82Z"/><path class="cls-5" d="M79.82,138.52c-21.16,2.75-26.6,6.13-26.85,9-.14,1.66,1.5,2.63,3.61,5.49,4.2,5.7,4.85,11.6,5.6,18.48,.54,4.96,.43,8.91,.07,12.13-.65,5.73-.81,8.44-.97,15.15-.12,5.1-.18,7.65,.26,8.65,4.73,10.75,41.1,8.5,43.19,.05,1.02-4.12-6.41-8.57-5-10.76,1.97-3.06,17.6,4.02,18.21,2.61,.42-.97-6.45-5.36-6.45-5.36h0c-6.8-8.48-8.38-18.46-8.54-23.33-.18-5.33,1.36-7.76,0-14.06,0,0-1.52-7.04-6.99-13.08-.25-.28-.44-.43-.5-.49-2.29-2.12-6.79-4.87-15.64-4.49Z"/><g><path class="cls-66" d="M78.69,129.62c.22,1.05,1.37,6.68-.94,8.13-.5,.31-1.46,.49-3.38,.85-1.26,.24-2.31,.38-3.05,.47,.11,.94,.43,2.48,1.52,3.88,3.06,3.92,9.18,2.91,10.06,2.75,3.08-.56,6.11-1.51,6.85-2.1,1.12-.89,1.99-1.55,2.51-2.23-1.19-.58-3.6-2.1-5.22-2.59-1.21-.37-2.34-.64-3.37-.83-.17-1.09-.34-2.18-.51-3.26-1.49-1.69-2.97-3.38-4.46-5.07Z"/><path class="cls-67" d="M81.17,132.18c-.96,.11-1.55,.17-2.13-.13-1.79-.92-2.6-4.42-1.11-6.72,1.06-1.64,3.29-2.68,4.89-2.23,.77,.21,1.51,.67,3.22,1.12,.28,.07,.6,.12,1,.14,2.63,.08,3.95-1.62,4.62-1.06,.75,.63-.06,3.44-1.73,5.4-2.36,2.76-5.89,3.17-8.75,3.5Z"/><path class="cls-93" d="M79.6,133.03s.33,3.3,3.54,3.88c2.87,.52,5.03-6.42,3.56-8.21-.49-.6-1.7-1.17-2.75-1.14-.74,.02-3.23,.97-3.58,3.46-.5-.52-1.11-.67-1.42-.45-.39,.28-.18,1.09-.13,1.27,.16,.63,.58,1.03,.78,1.19Z"/></g><g class="cls-53"><path class="cls-92" d="M67.31,200.41c-.41-5.13,3.17-6.88,5.24-16.28,1.14-5.14,3.78-17.1-2.53-22.79-2.93-2.64-6.97-3.17-10.47-2.98,1.63,4.08,2.1,8.37,2.62,13.12,.54,4.96,.43,8.91,.07,12.13-.65,5.73-.81,8.44-.97,15.15-.12,5.1-.18,7.65,.26,8.65,1.95,4.45,9.32,6.67,17.44,7.15-8.91-5.42-11.37-10.34-11.67-14.16Z"/></g><path class="cls-5" d="M70.94,175.7c1.9,4.04-6.83,13.44-16.54,17.9-.33,.15-.49,.23-.76,.34-6.41,2.68-15.15,1.14-19.43-3.49-5.69-6.15-2.35-16.51-.88-21.07,5.37-16.66,21-24.71,26.38-27.18,2.08,3.25,5.04,9.08,4.75,16.34-.09,2.22-.17,4.33-1.32,6.78-1.87,3.99-4.68,4.85-10.67,10.31-2.73,2.49-6.47,5.9-5.97,6.69,.44,.7,4.35-.36,20.47-8.79,1.51,.25,3.31,.8,3.96,2.17Z"/><path class="cls-99" d="M103.26,152.11l-23.13,2.17c-.48,.05-.89,.38-1.03,.85l-8.63,30.14c-.23,.8,.41,1.58,1.24,1.5l23.32-2.06c.49-.04,.9-.39,1.04-.86l8.44-30.25c.22-.8-.42-1.57-1.25-1.5Z"/><path class="cls-98" d="M67.64,174.76s7.97-8.15,11.21-9.35c3.24-1.2,.37,7.39-1.53,8.6-1.9,1.21-2.64,1.68-4.12,1.86l-1.48,.19-1.95,1.04s-2.5-.3-2.13-2.33Z"/><path class="cls-44" d="M87.86,178.18c.87-4.76-1.82-8.46,.76-12.92,2.65-4.59,7.3-3.82,10.64-7.6,1.06-1.2,2.02-2.91,2.49-5.4l1.5-.14c.83-.08,1.47,.7,1.25,1.5l-8.44,30.25c-.13,.47-.54,.82-1.04,.86l-11.84,1.04c3.01-2.7,4.26-5.31,4.67-7.58Z"/></g></g><g><g><path class="cls-97" d="M228.9,66.62c1.37,34.64-25.72,63.54-60.83,64.56-35.47,1.03-65.62-26.73-67.02-62.01-1.4-35.28,26.51-64.2,62-64.59,35.14-.39,64.48,27.39,65.86,62.03Z"/><path class="cls-96" d="M227.57,66.65c1.35,33.92-25.19,62.21-59.57,63.21-34.72,1-64.23-26.17-65.6-60.7-1.37-34.53,25.94-62.84,60.69-63.23,34.4-.38,63.14,26.8,64.48,60.72Z"/><path class="cls-9" d="M221.19,66.78c1.21,30.43-22.61,55.79-53.44,56.65-31.1,.87-57.51-23.48-58.74-54.4-1.23-30.92,23.21-56.29,54.33-56.67,30.85-.37,56.63,23.99,57.84,54.42Z"/><path class="cls-7" d="M173.56,111.32c-3.66-6.81-2.93-10.21-6.59-35.96-5.44-38.31-9.04-44.71-11.95-48.73-2.97-4.1-8.25-9.84-17.91-14.77-21.38,10.12-35.71,32.06-34.71,57.29,1.37,34.53,30.88,61.7,65.6,60.7,6.71-.19,13.11-1.43,19.07-3.53-5.44-3.9-10.19-8.81-13.51-15Z"/></g><g><g><path class="cls-5" d="M162.53,30.07l-14.55,5.24c4.46,5.06,7.31,11.16,8.73,17.73l12.48-4.49c5.08-1.83,7.74-7.48,5.91-12.56h0c-1.83-5.08-7.48-7.74-12.56-5.91Z"/><path class="cls-14" d="M163.82,42.29c-1.56,2.3-4.45,2.69-6.53,2.35-4.74-1.11-10.84-2.39-14.05,.72-3.83,3.76-8.15,6.18-13.54,6.2,.06,.23,.14,.47,.22,.7,1.83,5.08,7.48,7.74,12.56,5.91l26.7-9.62c5.08-1.83,7.74-7.48,5.91-12.56-.34-.94-.81-1.8-1.38-2.56-3.86,2.06-7.23,4.98-9.89,8.86Z"/><path class="cls-95" d="M147.98,35.31l-12.15,4.37c-5.08,1.83-7.74,7.48-5.91,12.56h0c1.83,5.08,7.48,7.74,12.56,5.91l14.22-5.12c-1.42-6.57-4.27-12.67-8.73-17.73Z"/><path class="cls-41" d="M153.59,43.85c-3.88-.69-7.93-.83-10.35,1.51-3.83,3.76-8.15,6.18-13.54,6.2,.03,.11,.06,.21,.09,.32,.04,.13,.08,.25,.12,.37,1.83,5.08,7.48,7.74,12.56,5.91l14.22-5.12c-.69-3.2-1.72-6.28-3.11-9.19Z"/></g><g><path class="cls-5" d="M142.61,93.85l13.84,6.92c.58-6.72,3.04-12.99,6.81-18.55l-11.86-5.93c-4.83-2.41-10.76-.44-13.17,4.39h0c-2.41,4.83-.44,10.76,4.39,13.17Z"/><path class="cls-14" d="M150.57,84.49c2.74-.46,5.02,1.37,6.2,3.1,2.46,4.2,5.75,9.49,10.22,9.67,5.36,.18,10.09,1.63,13.83,5.52,.12-.21,.24-.42,.35-.64,2.41-4.83,.44-10.76-4.39-13.17l-25.39-12.69c-4.83-2.41-10.76-.44-13.17,4.39-.45,.9-.74,1.83-.9,2.77,4.16,1.37,8.6,1.8,13.24,1.04Z"/><path class="cls-94" d="M156.45,100.77l11.55,5.77c4.83,2.41,10.76,.44,13.17-4.39h0c2.41-4.83,.44-10.76-4.39-13.17l-13.52-6.76c-3.77,5.56-6.23,11.83-6.81,18.55Z"/><path class="cls-43" d="M158.75,90.81c2.18,3.28,4.87,6.32,8.24,6.45,5.36,.18,10.09,1.63,13.83,5.52,.06-.1,.11-.19,.17-.29,.06-.11,.13-.23,.19-.35,2.41-4.83,.44-10.76-4.39-13.17l-13.52-6.76c-1.84,2.71-3.36,5.58-4.5,8.6Z"/></g><g><path class="cls-5" d="M199.08,60.41l-15.28-2.41c1.47,6.58,1.03,13.3-.89,19.74l13.1,2.07c5.33,.84,10.39-2.83,11.23-8.17h0c.84-5.33-2.83-10.39-8.17-11.23Z"/><path class="cls-14" d="M194.33,71.73c-2.47,1.26-5.2,.21-6.85-1.08-3.62-3.26-8.35-7.31-12.66-6.13-5.17,1.45-10.11,1.49-14.85-1.09-.06,.24-.11,.47-.14,.72-.84,5.33,2.83,10.39,8.17,11.23l28.03,4.43c5.33,.84,10.39-2.83,11.23-8.17,.16-.99,.16-1.97,.02-2.91-4.38-.05-8.74,.89-12.94,3.01Z"/><path class="cls-85" d="M183.8,58l-12.76-2.01c-5.33-.84-10.39,2.83-11.23,8.17h0c-.84,5.33,2.83,10.39,8.17,11.23l14.93,2.36c1.92-6.44,2.36-13.16,.89-19.74Z"/><path class="cls-42" d="M184.61,68.18c-3.07-2.47-6.55-4.55-9.8-3.66-5.17,1.45-10.11,1.49-14.85-1.09-.03,.11-.05,.22-.07,.33-.03,.13-.05,.26-.07,.39-.84,5.33,2.83,10.39,8.17,11.23l14.93,2.36c.93-3.13,1.51-6.34,1.7-9.55Z"/></g></g></g><g><g><path class="cls-91" d="M272.33,318.8c-4.74-2.29-10.47-6.07-14.95-12.33-4.85-6.77-9.92-18.78-5.58-23.42,1.62-1.73,4.68-2.57,6.7-1.59,2.99,1.44,1.68,5.86,5.23,12.6,.66,1.24,4.04,7.68,7.17,7.17,1.55-.25,2.73-2.18,3.13-3.83,1.18-4.83-4.15-7.71-7.61-14.77-3.51-7.16-4.65-17.72,.26-22.65,2.82-2.84,7.83-4,10.13-2.23,.99,.76,1.34,1.94,1.88,10.54,.45,7.06,.39,9.05,1.95,10.31,1.61,1.3,4.76,1.67,6.55,.28,4.66-3.62-4.87-15.33-.85-28.97,1.8-6.11,6.8-14.26,12.89-14.06,4.12,.14,8.52,4.08,9.1,8.13,.52,3.65-2.4,5.11-3.73,12.34-.4,2.19-1.23,6.71,.37,7.58,1.88,1.03,6.19-3.47,7.2-4.57,7.68-8.32,5.21-15.1,10.7-18.45,4.28-2.62,11.05-1.71,15.22,2.07,3.65,3.31,5.42,8.91,3.93,13.43-1.52,4.6-7.05,7.61-18.11,13.64-5.25,2.86-9.22,4.63-10.7,8.92-.72,2.09-1.03,5.31,.35,6.15,3.03,1.85,9.73-10.65,18.24-9.68,4.36,.5,8.48,4.44,9.26,8.85,.95,5.39-3.22,10.9-7.81,12.86-5.98,2.56-9.18-2.39-19.11-.99-4.41,.62-11.76,2.72-12.31,6.6-.24,1.69,.8,3.84,2.5,4.73,3.82,2,7.68-4.03,15.22-4.42,5.43-.28,11.75,2.43,12.25,5.63,.72,4.52-10.15,9.93-15.64,12.05-6.63,2.57-21.48,6.56-43.83-1.91Z"/><path class="cls-7" d="M275.34,317.55c3.61-11.2,19.52-30.7,28.89-39.2,9.17-8.32,20.45-22.73,20.56-22.87l.28,.22c-.11,.14-11.41,14.58-20.6,22.92-9.34,8.47-25.21,27.9-28.79,39.04l-.34-.11Z"/></g><path class="cls-90" d="M260.25,315.75c-1.7-6.54-3.52-17.86,.3-30.57,1.57-5.24,4.65-15.47,14.05-21.68,4.68-3.09,13.56-6.92,17.19-3.41,2.34,2.26,2.34,7.39,.24,10.47-2.12,3.11-5.13,2.31-10.53,6.88-2,1.69-4.3,3.7-3.84,5.52,.39,1.52,2.65,2.65,4.69,2.62,4.2-.06,4.82-5.02,10.01-6.74,3.69-1.22,8.76-.5,10.03,2.17,1.11,2.32-.68,6.03-3.21,7.98-4.05,3.13-8.01,.22-12.63,3.57-2.05,1.49-4.12,4.13-3.46,5.75,.75,1.84,4.96,2.13,7.94,1.58,3.94-.74,4.87-2.79,7.07-2.24,2.45,.61,4.5,3.97,4,6.6-.7,3.69-6.36,5.77-10.34,6.08-5.08,.4-7.8-2.04-10.98-.03-1.17,.74-2.53,2.16-2.3,3.43,.33,1.81,3.76,2.59,6.04,3.1,5.55,1.26,7.73-.09,9.25,1.57,1.54,1.67,1.29,5.22-.39,7.11-.94,1.05-3.05,2.43-10.32,.98-5.09-1.01-13.33-3.53-22.81-10.73Z"/></g><g><path class="cls-86" d="M166.73,225.61l1.23-3.18c.04-.11,.04-.23,0-.33l-1.69-5.01c-.17-.51-.91-.41-.96,.12-.11,1.35-.14,2.88,.25,3.2,.72,.6-2.71-.5-6.33-1.4-3.62-.9-5.06,1.63-.9,3.08,3.36,1.17,5.3,3.51,5.93,4.37,.14,.19,.39,.25,.6,.16l1.61-.73c.12-.05,.21-.15,.26-.27Z"/><path class="cls-88" d="M162.72,225.36c-.17,.66-3.61,18.31,2.27,21.96,5.88,3.65,11.74-14.95,11.74-14.95l-9.22-7.37-4.79,.36Z"/><path class="cls-89" d="M181.71,302.33l.07,.54c.11,.85-.62,1.58-1.47,1.46-2.38-.33-5.18-.79-6.39-2.03-1.72-1.77-.48-3.35,1.22-2.17,1.33,.92,4.02,1.17,5.72,1.36,.45,.05,.8,.4,.86,.85Z"/><path class="cls-84" d="M178.34,298.74c-.11,.17,.2,1.7,.36,2.44,.06,.28,.23,.51,.49,.64,.29,.15,.71,.3,1.19,.28,.46-.02,.82-.4,.85-.86l.13-1.94-3.02-.56Z"/><path class="cls-87" d="M177.05,299.39l3.86,.79c2.38-4.09,4.92-10.01,4.61-17.02-.43-9.58-5.91-15.03-4.34-16.82,1.48-1.69,8.63,.53,32.82,16.88l20.65-5.25c-2.28-5.15-4.55-5.43-10.06-13.44-8.47-12.3-12.66-14.31-21.21-15.6-9.87-1.49-33.85-4.54-35.86,5.66-.48,2.43,0,14.88,4,28.18,.71,2.35,5.22,15.21,5.54,16.62Z"/><path class="cls-27" d="M174.98,304.34c-1.48,.73-.4,.79-4.45-.66-1.53-.55-2.89-.08-3.02,.66-.13,.73,1.54,1.13,5.08,2.77,3.41,1.58,5.01,1.14,4.84-.93-.03-.33-.21-1.17-.44-1.4-.7-.72-2.01-.44-2.01-.44Z"/><path class="cls-26" d="M175.29,302.02c.3,.46,1.01,1.57,1.39,2.71,.24,.7-.4,1.39-1.13,1.23-.18-.04-.37-.08-.56-.13-.31-.07-.6-.24-.81-.49l-2.43-2.88c-.32-.38-.02-.95,.47-.91l2.66,.24c.17,.01,.32,.1,.41,.24Z"/><path class="cls-24" d="M172.85,303.66c1.14,.36,2.09,.42,2.65-.07,3.69-3.22-14.13-26.32-9.7-30.55,.38-.36,1.64-.42,4.16-.54,3.75-.18,7.99-.38,12,1.01,3.35,1.17,4.8,2.99,7.6,5.04,4.26,3.11,8.94,6.97,16.49,9,3.91,1.05,17.84,1.98,28.59-2.84-1.64-2.94-3.96-6.1-6.81-9.35-.21-.24-5.07-5.98-9.96-9.94-2.56-2.08-8.72-6.57-25.48-11-19.67-5.19-31.81-8.4-39.61-1.63-4.09,3.56-5.16,8.37-5.58,9.75-4.91,16.34,24.4,39.84,25.64,41.13Z"/><path class="cls-23" d="M175.42,200.37c-6.11,6.85,.64,13.28-5.46,27.63-3.68,8.64-8.77,12.51-6.81,16.95,1.37,3.12,5.45,4.76,8.6,4.62,6.18-.27,10.24-7.46,11.78-10.17,2.94-5.2,2.33-7.97,4.26-8.55,3.49-1.05,10.03,6.65,13.19,15.09,3.6,9.62-.14,11.97,2.88,20.92,.98,2.89,5.78,15.72,17.79,19.08,8.84,2.48,16.53-1.59,18.42-2.59,11.63-6.14,14.64-18.61,15.44-21.95,2.5-10.37-.23-18.85-2.01-24.39-2.92-9.08-8.61-16.13-20-30.23-6.45-7.98-8.61-9.66-11.13-10.96-7.01-3.6-13.91-2.78-23.64-1.62-14.09,1.68-20.98,3.55-23.31,6.16Z"/><path class="cls-22" d="M175.42,200.37c-6.11,6.85,.64,13.28-5.46,27.63-3.68,8.64-8.77,12.51-6.81,16.95,1.37,3.12,5.45,4.76,8.6,4.62,6.18-.27,10.24-7.46,11.78-10.17,2.94-5.2,2.33-7.97,4.26-8.55,3.49-1.05,10.03,6.65,13.19,15.09,3.6,9.62-.14,11.97,2.88,20.92,.98,2.89,5.78,15.72,17.79,19.08,8.84,2.48,16.53-1.59,18.42-2.59,11.63-6.14,14.64-18.61,15.44-21.95,2.5-10.37-.23-18.85-2.01-24.39-2.92-9.08-8.61-16.13-20-30.23-6.45-7.98-8.61-9.66-11.13-10.96-7.01-3.6-13.91-2.78-23.64-1.62-14.09,1.68-20.98,3.55-23.31,6.16Z"/><path class="cls-25" d="M200.44,186.86l1.37,2.99c.74,1.62,2.21,2.78,3.95,3.14l4.4,1.13c.54,.14,.59,.88,.07,1.08-2.71,1.02-8.6,2.8-15.26,2.11-9.14-.95-2.45-2.03-.23-2.19,2.21-.16,3.48-1.13,4.1-2.7,.62-1.57-1.11-4.04-1.11-4.04l2.7-1.52Z"/><g><path class="cls-18" d="M199.65,191.91c-.4-.22-3.65-.61-4.1-2.36-.61-2.37,1.52-5.26,1.79-5.73,1.11-1.95,1.39-2.21,1.91-2.54l.72-.42s.04-.02,.09-.03c.46-.15,2.01-.16,2.32-.09,1,.24,1.97,4.35,1.54,10.11,.04,.22,.07,.44,.11,.67,.09,.58-4.4,.59-4.37,.39Z"/><path class="cls-15" d="M196.59,180.5c.37,1.09,1.86,2.21,2.52,2.72,.1,.07,.38,.32,.63,.72,.04,.06,.07,.13,.1,.21,.37,1.14-1.46,2.42-1.12,2.94,.24,.37,1.47-.09,1.61,.23,.13,.3-.9,.89-.75,1.25,.11,.27,.74,.04,1.12,.46,.19,.21,.13,.37,.32,1,.11,.36,.26,.75,.39,.97,.59,1.06,2.34,1.49,2.68,1.08,.1-.12,.02-.22,.12-.61,0,0,.1-.36,.36-.78,.38-.59,1.26-1,2.16-1.62,1.66-1.14,2.13-2.13,2.27-2.47,.02-.04,.03-.07,.04-.1,.02-.06,.04-.11,.06-.17,.38-1.21-.59-2.52-1.1-3.13-.74-.87-1.99-2.15-3.82-3.29-.5-.31-5.34-3.3-7.11-1.82-.63,.53-.74,1.68-.49,2.42Z"/><path class="cls-19" d="M199.38,186.68c.45-.59,1.21,0,1.2,.77-.01,.78-.79,1.57-1.52,1.4-.73-.17-.29-1.38,.32-2.17Z"/></g><g class="cls-53"><path class="cls-21" d="M213.1,259.74c-1.37-8.72,4.97-13.04,2.44-23.87-2.44-10.44-11.95-21.99-23.33-21.97-1.72,0-8.03,.28-12.48,4.88-8.33,8.63-1.21,23.18-7.87,27.67-1.35,.91-3.46,1.54-6.95,.8,1.87,1.61,4.59,2.42,6.84,2.32,6.18-.27,10.24-7.46,11.78-10.17,2.94-5.2,2.33-7.97,4.26-8.55,3.49-1.05,10.03,6.65,13.19,15.09,3.6,9.62-.14,11.97,2.88,20.92,.98,2.89,5.78,15.72,17.79,19.08,8.26,2.31,15.52-1.08,17.98-2.35-19.61-8.3-25.44-16.89-26.53-23.85Z"/></g><ellipse class="cls-11" cx="222.85" cy="322.9" rx="24.65" ry="10.06"/><path class="cls-12" d="M247.5,321.72c0,5.24-11.04,9.5-24.65,9.5s-24.65-4.25-24.65-9.5,11.04-13.83,24.65-13.83,24.65,8.58,24.65,13.83Z"/><path class="cls-11" d="M247.5,321.72c0-5.24-11.04-13.83-24.65-13.83-6.29,0-12.02,1.83-16.37,4.32-.3,.64-.45,1.27-.39,1.88,.28,2.95,5.1,4.77,7.86,5.36,6.96,1.51,10.35-2.65,16.09-2.49,3.55,.1,8.46,1.88,14.29,9.42,2.02-1.38,3.17-2.97,3.17-4.66Z"/><path class="cls-12" d="M224.2,314.46c-.98,.25-1.9,.24-2.77,.02-.78-.2-1.32-.92-1.32-1.73v-23.65h5.48v23.62c0,.83-.58,1.55-1.39,1.75Z"/><path class="cls-20" d="M193.29,284.97c2.47,7.28,17.49,7.91,22.79,8.14,9.64,.41,22.71,.96,33.91-7.6,14.21-10.86,24.68-35.83,12.48-50.46-9.28-11.12-29.54-13.71-37.98-5.7-12.09,11.47,3.48,41.44-7.6,48.01-6.87,4.08-18.55-4.08-22.79,1.36-1.44,1.84-1.41,4.47-.81,6.24Z"/><g class="cls-53"><path class="cls-17" d="M255.61,229.34c-10.94,4-16.05,9.19-17.83,14.67-4.35,13.41,12.3,25.52,6.24,36.35-5.63,10.06-26.11,10.52-39.06,7.32-4.76-1.18-8.79-2.92-12.04-4.68,.04,.71,.17,1.38,.37,1.96,2.47,7.28,17.49,7.91,22.79,8.14,9.64,.41,22.71,.96,33.91-7.6,14.21-10.86,24.68-35.83,12.48-50.46-1.89-2.27-4.24-4.17-6.86-5.71Z"/></g></g></g></g></g></svg>