<?xml version="1.0" encoding="UTF-8"?><svg xmlns="http://www.w3.org/2000/svg" viewBox="0 0 131.16 323.39"><defs><style>.cls-1{fill:#f7f7f7;}.cls-2,.cls-3{fill:#f2f2f2;}.cls-4,.cls-5{fill:#e6e6e6;}.cls-6{fill:#fdd0a2;}.cls-7{fill:#ededed;}.cls-8{fill:#ffcb6a;}.cls-9{fill:#6584c2;}.cls-10{fill:#6b4c40;}.cls-11{fill:#876051;}.cls-12{fill:#b3b3b3;}.cls-13,.cls-14{fill:#333;}.cls-15{fill:#be6665;}.cls-16{fill:#ccc;}.cls-17{fill:#d1eaeb;}.cls-18{fill:#d9d9d9;}.cls-19{fill:#d9ad5b;}.cls-20{fill:#c5e5e6;}.cls-21{fill:#a8a8a8;}.cls-22{fill:#222d42;}.cls-23{fill:#435882;}.cls-24{fill:#825b48;}.cls-25{fill:#964647;}.cls-26{fill:#2b3954;}.cls-27{fill:#3b5487;}.cls-28{fill:#755346;}.cls-5,.cls-3,.cls-29{mix-blend-mode:multiply;}.cls-30{fill:#0d0d0d;}.cls-30,.cls-14,.cls-31{mix-blend-mode:screen;}.cls-32{opacity:.5;}.cls-33{isolation:isolate;}.cls-34{fill:#fff;opacity:.88;}</style></defs><g class="cls-33"><g id="Camada_1"><g><path class="cls-6" d="M41.58,73.91c1.48,3.29,1.82,11.69-2.61,15.21,4.77,6.7,18.84,13.84,26.78-2.72-.91-1.82-4.77-5.11-1.48-12.48-6.58,4.77-22.7,0-22.7,0Z"/><g class="cls-29"><path class="cls-4" d="M42.36,82.49c5.4-.04,15.59,2.75,22.86,4.98,.18-.35,.36-.7,.54-1.07-.91-1.82-4.77-5.11-1.48-12.48-6.58,4.77-22.7,0-22.7,0,.83,1.84,1.29,5.28,.77,8.57Z"/></g><path class="cls-6" d="M80.01,50.2c-1.29-3.86-4.79-1.22-4.79-1.22,.09-.74,.19-1.5,.29-2.3,1.59-12.48-3.86-28.07-24.17-27.92-15.21,.11-20.2,2.72-22.47,10.44-1.29,4.37-1.41,11.76-.46,19.42-1.05-.56-3.25-1.31-4.21,1.58-1.29,3.86,.91,4.24,1.06,6.96,.15,2.72,4.31,3.38,5.1,1.92,0,0,0-.01,0-.02,.58,2.24,1.26,4.38,2.02,6.35,4.43,11.35,31.89,8.51,36.65,3.86,2.78-2.71,3.98-5.7,4.81-10.19h0c.8,1.47,4.95,.81,5.1-1.92,.15-2.72,2.35-3.1,1.06-6.96Z"/><g class="cls-29"><path class="cls-16" d="M29.3,55.16c-.2,.03-.4,.05-.61,.02-.2-.03-.4-.1-.59-.2-.18-.11-.34-.24-.48-.41-.06-.09-.14-.17-.18-.27-.05-.1-.1-.19-.12-.3-.07-.21-.07-.44-.03-.65,0-.11,.06-.21,.09-.32,.03-.11,.11-.19,.16-.29,.05-.1,.14-.17,.21-.25,.07-.09,.16-.14,.25-.21,.17-.14,.37-.22,.56-.32l-.12,.19c-.04-.24-.08-.49-.17-.71-.08-.23-.21-.43-.36-.62-.31-.36-.76-.59-1.22-.59-.23,0-.45,.06-.66,.16-.21,.1-.38,.24-.51,.44-.1,.14-.15,.4-.15,.63,0,.24,.05,.48,.1,.73,.25,.99,.78,1.9,1.13,2.92,.17,.5,.3,1.01,.56,1.45,.13,.21,.32,.39,.57,.44,.25,.04,.51-.04,.74-.15-.22,.13-.47,.26-.76,.24-.28-.02-.53-.22-.69-.43-.33-.44-.49-.96-.69-1.44-.19-.48-.44-.94-.67-1.42-.23-.48-.44-.97-.59-1.5-.06-.27-.13-.54-.13-.83,0-.29,.02-.58,.21-.89,.15-.25,.4-.46,.66-.59,.27-.13,.57-.2,.87-.19,.6,.02,1.16,.33,1.52,.77,.36,.45,.55,1.01,.59,1.57v.13s-.12,.06-.12,.06c-.17,.08-.35,.14-.5,.25-.08,.05-.16,.1-.22,.16-.06,.07-.15,.12-.19,.2-.05,.08-.12,.14-.15,.23-.03,.08-.08,.16-.09,.25-.04,.17-.05,.36,0,.54,.01,.09,.05,.18,.08,.26,.02,.09,.09,.16,.13,.25,.11,.16,.24,.29,.4,.41,.16,.11,.34,.19,.53,.24,.19,.05,.39,.06,.59,.05Z"/></g><g class="cls-29"><path class="cls-1" d="M75.65,45.32c.11-1.29,.14-2.6,.09-3.92l-1.53-8.26c-.75-2.12-1.78-4.13-3.15-5.94l-9.92-2.14c7.9,6.53,11.07,15.71,9.94,27.08,2.38,3.13-1.25,12.6-4.33,18.56,.99-.45,1.77-.93,2.29-1.43,2.49-2.43,3.71-5.08,4.53-8.83l2.08-15.12Z"/></g><path class="cls-34" d="M55.77,53.43c1.87-2.78,3.74-5.84,8.57-5.28,4.82,.57,6.52,4.37,6.52,4.37,0,0-6.64,7.6-15.09,.91Z"/><path class="cls-10" d="M70.86,52.52s-.17-.26-.47-.69c-.3-.43-.78-1.01-1.44-1.59-.66-.58-1.53-1.12-2.55-1.46-.51-.19-1.06-.28-1.62-.38-.28-.04-.57-.06-.86-.09h-.87s-.44,0-.44,0l-.41,.04c-.28,.04-.55,.1-.82,.17-.53,.16-1.05,.36-1.51,.63-.94,.53-1.71,1.22-2.32,1.86-.6,.65-1.06,1.25-1.34,1.7-.29,.44-.44,.71-.44,.71,0,0,.08-.3,.29-.79,.22-.49,.54-1.19,1.09-1.94,.54-.75,1.3-1.58,2.31-2.22,.51-.32,1.07-.6,1.68-.78,.31-.09,.62-.16,.94-.21l.49-.06,.47-.02,.94,.03c.31,.04,.62,.06,.93,.11,.61,.11,1.21,.27,1.76,.5,.56,.2,1.05,.52,1.51,.82,.44,.32,.82,.66,1.13,1.02,.63,.7,.99,1.39,1.23,1.87,.23,.49,.32,.78,.32,.78Z"/><path class="cls-34" d="M47.71,53.43c-1.87-2.78-3.74-5.84-8.57-5.28-4.82,.57-6.52,4.37-6.52,4.37,0,0,6.64,7.6,15.09,.91Z"/><path class="cls-10" d="M47.71,53.43s-.15-.27-.44-.71c-.28-.44-.74-1.04-1.34-1.7-.6-.65-1.38-1.34-2.32-1.86-.47-.27-.98-.47-1.52-.63-.53-.15-1.12-.23-1.65-.23l-.91,.02c-.28,.03-.56,.05-.84,.09-.56,.1-1.11,.19-1.62,.38-1.02,.34-1.89,.88-2.55,1.46-.66,.58-1.14,1.16-1.44,1.59-.31,.43-.47,.69-.47,.69,0,0,.09-.29,.32-.78,.24-.48,.6-1.17,1.23-1.87,.31-.36,.69-.7,1.13-1.02,.45-.3,.94-.61,1.51-.82,.55-.23,1.15-.39,1.76-.5,.31-.05,.63-.07,.95-.11l.91-.03c.68,.01,1.3,.11,1.91,.3,.61,.18,1.17,.47,1.68,.78,1.01,.64,1.77,1.47,2.31,2.22,.55,.75,.87,1.46,1.09,1.94,.21,.49,.29,.79,.29,.79Z"/><path class="cls-24" d="M60.12,37.87c-3.04-.22-3.37,2.12-1.66,2.87s6.57,.98,8.68,2.12,3.31-.87,1.88-1.93-5.3-2.8-8.89-3.06Z"/><path class="cls-24" d="M42.88,37.87c3.04-.22,3.37,2.12,1.66,2.87-1.7,.76-6.57,.98-8.68,2.12s-3.31-.87-1.88-1.93,5.3-2.8,8.89-3.06Z"/><path class="cls-24" d="M74.77,50.93c-.4,3.46-1.3,12.54-12.2,14.47-10.89,1.93-24.45,1.59-28.77-3.12-4.31-4.71-5.22-11.01-5.22-11.01,0,0,.96,14.75,1.25,19.01,.28,4.26,5.67,5.73,12.73,9.7,7.07,3.97,14.95,3.92,19.15,.68s11.23-5.73,11.8-10.38c.57-4.65,1.25-19.35,1.25-19.35Z"/><g class="cls-29"><path class="cls-1" d="M73.52,58.41s.13,1.43,.15,3.59c0,1.08,.01,2.34-.07,3.68-.04,.67-.1,1.37-.19,2.08-.1,.71-.19,1.42-.4,2.13-.04,.18-.1,.35-.18,.53-.07,.16-.13,.37-.23,.52-.16,.31-.37,.62-.59,.92-.44,.58-.9,1.1-1.38,1.58-.47,.49-.96,.93-1.42,1.34-.46,.41-.91,.78-1.33,1.12-1.68,1.35-2.89,2.14-2.89,2.14,0,0,1.12-.9,2.72-2.33,.8-.71,1.71-1.57,2.63-2.54,.46-.48,.91-1.01,1.32-1.56,.2-.27,.39-.56,.55-.88,.1-.16,.13-.3,.2-.46,.07-.16,.12-.32,.16-.49,.2-.67,.31-1.37,.42-2.06,.1-.69,.16-1.38,.22-2.05,.1-1.34,.18-2.59,.21-3.66,.08-2.15,.1-3.58,.1-3.58Z"/></g><g class="cls-29"><path class="cls-1" d="M72.11,60.68s.08,.22,.23,.6c.05,.2,.09,.45,.14,.73,.04,.29,.04,.61,.06,.97-.01,.35-.03,.74-.06,1.14-.05,.4-.08,.83-.18,1.26-.16,.87-.38,1.78-.64,2.68-.28,.9-.59,1.78-.92,2.59-.33,.82-.68,1.56-1,2.18-.15,.32-.32,.59-.47,.84-.14,.25-.3,.45-.41,.62-.11,.17-.23,.28-.3,.37-.07,.08-.11,.13-.11,.13,0,0,.03-.05,.09-.14,.06-.1,.15-.22,.24-.4,.09-.18,.22-.39,.33-.65,.12-.26,.25-.55,.39-.87,.29-.63,.56-1.4,.87-2.21,.3-.81,.59-1.69,.85-2.58,.27-.88,.52-1.78,.69-2.63,.18-.85,.31-1.64,.37-2.33,0-.34,.04-.66,.03-.94-.02-.27-.03-.52-.06-.72-.09-.4-.15-.63-.15-.63Z"/></g><g class="cls-29"><path class="cls-1" d="M69.35,63.51s.02,.05,.06,.15c.04,.1,.11,.24,.17,.42,.04,.19,.12,.43,.16,.7,.03,.27,.1,.58,.11,.93,.04,.68,.04,1.48-.04,2.33-.04,.42-.11,.86-.17,1.3-.09,.44-.15,.89-.27,1.33-.21,.88-.51,1.75-.83,2.54-.16,.4-.36,.76-.54,1.11-.21,.33-.38,.66-.6,.93-.21,.27-.39,.53-.6,.71-.21,.18-.36,.38-.54,.48-.33,.21-.52,.34-.52,.34,0,0,.17-.15,.47-.4,.16-.11,.29-.32,.47-.52,.19-.19,.33-.47,.52-.74,.19-.27,.33-.61,.51-.94,.15-.35,.31-.72,.46-1.11,.29-.78,.56-1.63,.75-2.5,.12-.43,.19-.87,.29-1.3,.07-.43,.15-.86,.2-1.27,.1-.83,.18-1.61,.18-2.28,.02-.34-.02-.64-.02-.91-.01-.27-.06-.5-.08-.7-.09-.38-.15-.6-.15-.6Z"/></g><g class="cls-29"><path class="cls-1" d="M67.87,64.23s.07,1.19-.08,2.96c-.04,.44-.1,.92-.16,1.43-.08,.5-.13,1.04-.26,1.59-.11,.55-.23,1.11-.39,1.68-.14,.57-.32,1.14-.51,1.7-.18,.57-.44,1.11-.66,1.65-.24,.54-.54,1.04-.79,1.54-.3,.47-.61,.92-.91,1.34-.34,.38-.67,.75-.96,1.08-.35,.29-.66,.55-.94,.78-.27,.25-.58,.36-.79,.5-.45,.25-.71,.4-.71,.4,0,0,.24-.17,.66-.47,.2-.16,.49-.29,.73-.56,.26-.25,.55-.52,.87-.83,.27-.34,.57-.71,.88-1.1,.27-.42,.55-.87,.84-1.33,.24-.49,.52-.98,.74-1.51,.21-.54,.46-1.07,.62-1.63,.2-.55,.38-1.11,.53-1.67,.17-.55,.29-1.11,.41-1.65,.24-1.08,.43-2.09,.55-2.96,.12-.88,.22-1.61,.26-2.12,.05-.52,.07-.81,.07-.81Z"/></g><g class="cls-29"><path class="cls-1" d="M65,65.36s.31,.84,.51,2.17c.09,.66,.18,1.44,.18,2.28,0,.42-.03,.85-.04,1.29-.05,.44-.08,.89-.16,1.33-.09,.44-.16,.88-.3,1.31-.12,.43-.24,.84-.41,1.23-.08,.2-.15,.39-.23,.58-.1,.18-.19,.35-.28,.52-.18,.34-.35,.66-.56,.93-.19,.28-.37,.53-.53,.74-.18,.2-.35,.37-.48,.52-.27,.28-.42,.44-.42,.44,0,0,.13-.18,.35-.5,.11-.16,.25-.34,.41-.56,.13-.23,.29-.49,.45-.78,.18-.27,.32-.6,.48-.95,.08-.17,.16-.35,.24-.53,.07-.19,.13-.37,.2-.57,.15-.38,.27-.79,.37-1.2,.13-.41,.18-.85,.27-1.27,.09-.43,.12-.86,.19-1.29,.02-.43,.07-.85,.07-1.26,.02-.82,0-1.59-.04-2.25-.09-1.32-.26-2.19-.26-2.19Z"/></g><g class="cls-29"><path class="cls-1" d="M62.5,65.78s.39,.63,.77,1.68c.18,.52,.38,1.14,.51,1.83,.13,.68,.22,1.43,.24,2.17,0,.37,0,.75-.06,1.11-.03,.37-.08,.73-.16,1.07-.04,.17-.07,.34-.1,.51-.05,.16-.11,.32-.16,.47-.1,.3-.19,.59-.32,.84-.12,.25-.23,.48-.33,.68-.12,.19-.23,.35-.32,.49-.18,.27-.29,.42-.29,.42,0,0,.08-.17,.21-.46,.07-.14,.15-.32,.25-.52,.07-.21,.16-.44,.25-.7,.11-.25,.17-.54,.24-.84,.09-.3,.14-.62,.19-.95,.07-.33,.1-.68,.12-1.03,.04-.35,.02-.71,.02-1.07,0-.72-.06-1.44-.17-2.11-.11-.67-.22-1.3-.37-1.82-.26-1.06-.52-1.75-.52-1.75Z"/></g><g class="cls-29"><path class="cls-1" d="M61.52,67.26s.22,.96,.35,2.43c.06,.73,.12,1.59,.12,2.52-.01,.92-.06,1.91-.19,2.89-.14,.98-.35,1.95-.65,2.83-.15,.44-.32,.86-.52,1.24-.19,.38-.4,.73-.63,1.03-.21,.31-.44,.56-.67,.77-.21,.21-.43,.37-.6,.5-.17,.13-.33,.2-.43,.26-.1,.06-.15,.09-.15,.09,0,0,.05-.04,.14-.11,.09-.07,.23-.16,.38-.31,.16-.14,.35-.32,.53-.55,.19-.22,.39-.49,.58-.8,.77-1.22,1.34-3.1,1.56-5.02,.14-.96,.21-1.93,.24-2.84,.03-.91,.04-1.76,.02-2.5-.02-1.46-.1-2.44-.1-2.44Z"/></g><g class="cls-29"><path class="cls-1" d="M60.19,72.04s.08,.71,.06,1.79c-.02,1.07-.12,2.51-.44,3.93-.17,.7-.37,1.4-.65,2.03-.27,.63-.61,1.18-.97,1.6-.18,.21-.37,.38-.55,.51-.19,.13-.35,.23-.5,.29-.14,.08-.27,.1-.34,.13-.08,.02-.12,.04-.12,.04,0,0,.04-.02,.11-.06,.07-.04,.19-.09,.31-.18,.26-.16,.58-.47,.89-.89,.61-.85,1.07-2.2,1.38-3.56,.31-1.37,.51-2.78,.63-3.84,.12-1.06,.19-1.77,.19-1.77Z"/></g><g class="cls-29"><path class="cls-1" d="M58.15,73.93s.16,.45,.3,1.15c.06,.35,.13,.77,.17,1.21,.04,.45,.05,.93,.02,1.41-.04,.48-.09,.96-.22,1.4-.05,.22-.14,.43-.22,.62-.07,.2-.19,.37-.28,.53-.08,.17-.22,.28-.31,.39-.09,.12-.19,.2-.28,.26-.17,.12-.27,.19-.27,.19,0,0,.08-.09,.21-.25,.07-.07,.15-.17,.21-.3,.06-.13,.16-.25,.22-.41,.06-.16,.15-.32,.19-.52,.05-.19,.11-.39,.14-.6,.09-.42,.13-.88,.16-1.34,.04-.46,.03-.93,.04-1.36,0-.44,0-.85-.03-1.2-.03-.71-.05-1.18-.05-1.18Z"/></g><g class="cls-29"><path class="cls-1" d="M56.67,75.05s.14,.51,.25,1.3c.05,.39,.1,.86,.11,1.36,.02,.5,0,1.03-.05,1.57-.07,.53-.16,1.07-.33,1.55-.08,.24-.17,.47-.29,.68-.06,.1-.11,.2-.16,.3-.07,.09-.13,.17-.2,.26-.11,.17-.26,.29-.4,.39-.13,.11-.25,.19-.36,.22-.22,.09-.34,.13-.34,.13,0,0,.11-.08,.3-.21,.1-.05,.2-.15,.29-.27,.11-.11,.22-.24,.3-.42,.05-.08,.1-.16,.15-.25,.04-.1,.08-.19,.12-.3,.09-.2,.14-.42,.21-.65,.08-.22,.1-.48,.15-.72,.05-.25,.07-.51,.11-.76,.05-.51,.09-1.03,.11-1.52,.02-.49,.04-.95,.03-1.34,0-.79,0-1.32,0-1.32Z"/></g><g class="cls-29"><path class="cls-1" d="M55.45,75.64s.31,1.62,.26,3.27c-.02,.41-.04,.82-.11,1.21-.05,.39-.15,.74-.23,1.04-.09,.3-.22,.53-.3,.69-.1,.15-.16,.23-.16,.23,0,0,.03-.1,.08-.27,.05-.17,.09-.42,.13-.72,.08-.6,.1-1.4,.13-2.21,.02-.81,.06-1.62,.09-2.23,.04-.61,.1-1.02,.1-1.02Z"/></g><g class="cls-29"><path class="cls-1" d="M54.41,76.07s.07,.34,.13,.86c.05,.51,.1,1.2,.1,1.89,0,.69-.04,1.37-.1,1.89-.05,.51-.13,.86-.13,.86,0,0-.07-.34-.13-.86-.05-.51-.1-1.2-.1-1.89,0-.69,.05-1.37,.1-1.89,.05-.51,.13-.86,.13-.86Z"/></g><g class="cls-29"><path class="cls-1" d="M53.08,76.07s.04,.41,.08,1.01c.03,.6,.08,1.39,.13,2.19,.02,.4,.05,.79,.09,1.16,.04,.37,.07,.71,.14,1,.04,.14,.05,.28,.1,.39,.04,.11,.06,.22,.11,.29,.08,.16,.13,.24,.13,.24,0,0-.07-.06-.2-.2-.07-.07-.11-.16-.19-.27-.08-.11-.12-.24-.19-.38-.07-.14-.1-.31-.16-.47-.06-.17-.09-.35-.13-.54-.07-.38-.11-.78-.14-1.19-.05-.81,0-1.62,.07-2.23,.07-.6,.17-1,.17-1Z"/></g><g class="cls-29"><path class="cls-1" d="M50.7,75.92s.01,.48,.03,1.19c0,.36,.04,.77,.07,1.21,.04,.44,.08,.91,.16,1.36,.04,.23,.07,.46,.14,.68,.05,.22,.11,.44,.19,.64,.06,.21,.15,.39,.24,.57,.07,.19,.2,.32,.29,.47,.09,.15,.22,.24,.31,.35,.09,.11,.2,.17,.29,.23,.17,.12,.27,.18,.27,.18,0,0-.11-.03-.31-.11-.1-.04-.23-.08-.35-.17-.12-.09-.29-.16-.4-.31-.12-.14-.28-.28-.38-.47-.11-.18-.24-.37-.32-.59-.2-.42-.31-.91-.4-1.39-.08-.48-.11-.97-.11-1.42,0-.45,.04-.88,.08-1.24,.09-.72,.22-1.18,.22-1.18Z"/></g><g class="cls-29"><path class="cls-1" d="M48.73,75.05s-.08,.52-.1,1.29c-.01,.38,0,.83,.04,1.3,.04,.47,.12,.97,.25,1.45,.08,.24,.13,.48,.24,.7,.09,.23,.18,.45,.31,.65,.11,.21,.23,.4,.36,.57,.12,.18,.24,.34,.38,.47,.13,.13,.25,.27,.36,.38,.12,.1,.22,.19,.31,.26,.17,.15,.27,.24,.27,.24,0,0-.12-.06-.32-.16-.1-.06-.22-.12-.37-.2-.14-.08-.28-.2-.43-.33-.16-.12-.31-.27-.46-.45-.16-.16-.32-.35-.44-.57-.15-.21-.27-.44-.37-.68-.12-.24-.19-.5-.27-.75-.13-.52-.21-1.05-.21-1.55-.02-.5,.06-.96,.11-1.35,.14-.78,.36-1.26,.36-1.26Z"/></g><g class="cls-29"><path class="cls-1" d="M47.22,73.91s-.01,.15-.03,.4c-.02,.25-.02,.62-.04,1.06,0,.87,.06,2.03,.32,3.14,.08,.27,.14,.55,.24,.81,.11,.25,.17,.53,.31,.76,.13,.23,.22,.48,.37,.67,.14,.2,.24,.41,.4,.56,.14,.16,.27,.31,.38,.45,.13,.12,.25,.22,.34,.31,.19,.17,.3,.27,.3,.27,0,0-.13-.07-.35-.2-.11-.07-.25-.15-.4-.25-.14-.12-.3-.25-.46-.4-.18-.14-.31-.35-.48-.55-.18-.19-.3-.44-.45-.68-.16-.24-.25-.52-.37-.79-.1-.28-.18-.57-.26-.86-.05-.3-.13-.59-.15-.88-.04-.29-.06-.58-.06-.86-.02-.56,.04-1.08,.08-1.52,.12-.88,.32-1.44,.32-1.44Z"/></g><g class="cls-29"><path class="cls-1" d="M46.56,79.55s-.07-.08-.18-.24c-.11-.15-.25-.38-.39-.69-.11-.31-.24-.67-.32-1.07-.07-.4-.11-.84-.12-1.27,0-.43,.01-.87,.07-1.27,.04-.4,.13-.77,.19-1.09,.15-.63,.31-1.03,.31-1.03,0,0-.02,.43-.06,1.07-.02,.32-.03,.69-.05,1.08-.01,.39-.02,.81-.01,1.23,0,.42,.03,.83,.06,1.22,.02,.19,.05,.38,.07,.56,.03,.18,.07,.34,.1,.49,.09,.29,.14,.56,.22,.73,.07,.18,.1,.28,.1,.28Z"/></g><g class="cls-29"><path class="cls-1" d="M44.34,70.85s-.01,.18-.04,.5c-.03,.32-.03,.78-.05,1.32-.01,.55,0,1.18,.05,1.86,.03,.68,.13,1.39,.27,2.1,.06,.35,.16,.7,.24,1.04,.12,.33,.22,.66,.35,.97,.16,.29,.26,.61,.42,.87,.17,.26,.3,.52,.47,.73,.17,.2,.33,.4,.46,.57,.14,.17,.3,.28,.41,.4,.23,.22,.37,.35,.37,.35,0,0-.15-.1-.42-.28-.13-.1-.3-.19-.47-.34-.16-.16-.35-.33-.54-.53-.19-.2-.35-.46-.55-.72-.19-.26-.33-.57-.5-.88-.15-.32-.26-.66-.4-1.01-.09-.35-.21-.71-.28-1.08-.13-.73-.21-1.47-.22-2.17-.03-.69,.04-1.34,.09-1.89,.13-1.1,.34-1.81,.34-1.81Z"/></g><g class="cls-29"><path class="cls-1" d="M42.45,69.94s-.11,.72-.13,1.79c-.03,.53,0,1.16,.05,1.82,.03,.33,.07,.67,.11,1.02,.06,.34,.1,.7,.19,1.04,.07,.35,.15,.69,.27,1.02,.1,.33,.21,.66,.34,.96,.11,.31,.25,.6,.39,.87,.13,.28,.26,.53,.41,.75,.14,.23,.27,.44,.38,.62,.13,.17,.24,.33,.34,.45,.18,.26,.29,.4,.29,.4,0,0-.13-.13-.36-.35-.11-.11-.25-.25-.4-.41-.15-.16-.3-.37-.46-.58-.17-.21-.34-.46-.49-.74-.17-.27-.34-.55-.47-.87-.14-.31-.29-.64-.39-.98-.12-.34-.21-.7-.29-1.05-.16-.72-.24-1.45-.26-2.13-.02-.68,.03-1.32,.1-1.86,.13-1.08,.39-1.77,.39-1.77Z"/></g><g class="cls-29"><path class="cls-1" d="M40.16,69.6s-.15,.69-.18,1.72c-.04,.52,0,1.12,.06,1.75,.05,.32,.07,.65,.15,.97,.05,.33,.13,.66,.24,.98,.08,.33,.21,.64,.32,.96,.11,.32,.27,.6,.4,.9,.13,.29,.31,.55,.45,.81,.14,.26,.31,.48,.46,.69,.16,.2,.27,.41,.42,.57,.14,.16,.26,.3,.35,.42,.19,.24,.3,.37,.3,.37,0,0-.13-.11-.37-.31-.12-.1-.26-.22-.42-.37-.17-.13-.32-.33-.49-.52-.17-.2-.37-.41-.54-.66-.17-.25-.38-.5-.52-.8-.14-.3-.34-.59-.45-.92-.12-.33-.27-.65-.35-1-.1-.34-.18-.69-.23-1.03-.08-.34-.08-.69-.11-1.02-.03-.66,.01-1.28,.09-1.81,.06-.52,.19-.95,.27-1.24,.09-.29,.16-.45,.16-.45Z"/></g><g class="cls-29"><path class="cls-1" d="M38.97,65.78s-.29,.8-.51,2.05c-.06,.31-.11,.65-.15,1.01-.05,.36-.05,.74-.09,1.13,0,.39-.03,.8,0,1.21,.02,.41,.05,.83,.12,1.24,.04,.42,.13,.82,.22,1.22,.07,.41,.22,.78,.34,1.15,.11,.38,.28,.71,.41,1.05,.12,.34,.3,.63,.45,.91,.16,.27,.27,.54,.42,.75,.14,.21,.27,.4,.37,.55,.2,.31,.32,.49,.32,.49,0,0-.14-.16-.39-.44-.12-.14-.27-.31-.44-.51-.18-.19-.32-.45-.5-.72-.18-.27-.38-.56-.53-.89-.16-.33-.37-.67-.48-1.06-.13-.38-.29-.77-.38-1.19-.1-.41-.21-.83-.25-1.26-.07-.43-.08-.86-.09-1.28-.03-.42,.02-.84,.03-1.24,.05-.4,.08-.79,.16-1.15,.07-.36,.14-.7,.23-1.01,.16-.62,.36-1.12,.51-1.46,.15-.34,.25-.53,.25-.53Z"/></g><g class="cls-29"><path class="cls-1" d="M36.97,64.91s-.04,.21-.11,.56c-.08,.36-.15,.88-.25,1.49-.09,.62-.16,1.34-.21,2.12-.03,.39-.04,.79-.04,1.19-.01,.41,.03,.82,.05,1.23,.02,.41,.09,.82,.13,1.22,.09,.39,.15,.79,.26,1.16,.13,.36,.21,.73,.35,1.05,.15,.32,.26,.64,.42,.9,.17,.26,.31,.5,.44,.72,.13,.21,.29,.37,.41,.51,.23,.29,.36,.45,.36,.45,0,0-.16-.14-.43-.39-.13-.13-.31-.27-.47-.47-.16-.2-.34-.43-.53-.69-.18-.26-.32-.58-.5-.9-.18-.32-.29-.7-.43-1.07-.12-.38-.2-.79-.3-1.2-.05-.41-.14-.84-.16-1.26-.01-.42-.05-.85-.02-1.27,0-.42,.03-.83,.07-1.22,.06-.79,.22-1.52,.35-2.13,.29-1.23,.61-2.01,.61-2.01Z"/></g><g class="cls-29"><path class="cls-1" d="M35.49,64.23s-.03,.2-.07,.54c-.05,.34-.09,.84-.15,1.43-.09,1.18-.16,2.76-.01,4.31,.04,.39,.08,.78,.13,1.16,.08,.38,.12,.75,.22,1.11,.11,.35,.16,.7,.28,1.01,.12,.31,.2,.62,.33,.89,.13,.26,.24,.51,.34,.73,.1,.22,.23,.38,.31,.54,.18,.3,.28,.47,.28,.47l-.35-.42c-.1-.14-.25-.29-.39-.5-.13-.21-.27-.44-.42-.7-.15-.26-.26-.57-.41-.88-.15-.31-.24-.67-.35-1.03-.11-.36-.17-.75-.26-1.13-.07-.39-.12-.79-.17-1.19-.01-.4-.05-.8-.05-1.2,0-.39,0-.78,.02-1.16,.03-.75,.15-1.44,.24-2.03,.21-1.18,.47-1.93,.47-1.93Z"/></g><g class="cls-29"><path class="cls-1" d="M33.49,63.02s-.01,.71,0,1.77c.01,1.06,.07,2.47,.22,3.87,.04,.35,.08,.7,.13,1.04,.06,.34,.09,.68,.16,1,.07,.32,.11,.64,.19,.93,.07,.29,.13,.57,.21,.83,.16,.5,.27,.93,.4,1.22,.11,.29,.17,.46,.17,.46,0,0-.09-.15-.25-.42-.16-.27-.36-.67-.56-1.17-.1-.25-.18-.53-.29-.82-.11-.29-.18-.61-.26-.94-.16-.65-.27-1.37-.35-2.08-.06-.71-.11-1.43-.1-2.1,0-.67,.05-1.3,.08-1.83,.09-1.07,.25-1.77,.25-1.77Z"/></g><g class="cls-29"><path class="cls-1" d="M32.08,61.24s-.13,1.01-.2,2.54c-.03,.38-.03,.79-.03,1.23-.01,.44,.02,.89,.02,1.37,.03,.47,.04,.96,.1,1.46,.06,.49,.1,1,.21,1.49,.04,.25,.08,.5,.13,.74,.06,.24,.12,.48,.18,.72,.1,.49,.31,.93,.46,1.37,.17,.43,.4,.83,.58,1.22,.23,.36,.47,.69,.68,1.01,.26,.28,.49,.53,.7,.75,.19,.25,.45,.36,.61,.51,.36,.27,.56,.43,.56,.43,0,0-.22-.13-.61-.35-.18-.13-.45-.22-.67-.45-.23-.21-.51-.44-.78-.71-.24-.31-.5-.64-.76-1-.21-.39-.48-.79-.66-1.24-.16-.46-.39-.91-.5-1.41-.14-.49-.27-.99-.35-1.5-.1-.51-.13-1.02-.18-1.53-.05-.51-.05-1-.07-1.49,0-.96,.07-1.86,.16-2.62,.08-.76,.21-1.39,.29-1.83,.09-.44,.16-.68,.16-.68Z"/></g><g class="cls-29"><path class="cls-1" d="M30.61,59.1s-.03,.8-.09,1.99c-.03,.6-.04,1.29-.06,2.04-.02,.74-.03,1.54,0,2.33,0,.4,.01,.79,.03,1.18,0,.39,.05,.77,.07,1.14,.07,.74,.14,1.43,.24,2.01,.05,.29,.12,.55,.16,.79,.04,.24,.11,.44,.16,.6,.1,.34,.16,.53,.16,.53,0,0-.09-.18-.24-.5-.08-.16-.17-.35-.24-.59-.08-.23-.19-.49-.25-.79-.15-.59-.3-1.28-.39-2.03-.03-.38-.09-.76-.1-1.16-.02-.39-.05-.8-.06-1.2-.01-.8,.02-1.6,.06-2.35,.04-.75,.13-1.45,.2-2.04,.16-1.19,.34-1.97,.34-1.97Z"/></g><g class="cls-29"><path class="cls-18" d="M42.19,66.73c-1.21,.76-3.56,1.02-3.56,1.02,0,0-.24,.38,1.56,1.48,1.8,1.1,5.69,0,7.89,0,2.19,0,6.4,.26,8.98-.49,2.57-.76,6.08,.17,7.59-.51,1.51-.68,3.75-1.8,2.28-1.91s-3.9-.68-3.9-.68l-.25-.27c-.07,.01-.13,.03-.2,.04-6.47,1.14-13.87,1.49-19.72,.6-.15,.28-.36,.54-.66,.73Z"/></g><path class="cls-24" d="M48.58,61.05c-2.19,.72-4.09,4.05-6.28,5.3-2.19,1.25-2.95,1.63-3.33,1.48,.49,1.25,3.18,2.08,6.54,1.7s6.51,1.62,12.07,.09c5.56-1.53,8.78-1.38,9.34-3.12-2.38-.61-4.05-.98-7.04-2.99-2.99-2-6.09-4.12-11.31-2.46Z"/><g class="cls-29"><path class="cls-1" d="M39.88,68.24s.2-.05,.54-.13c.18-.02,.36-.15,.58-.23,.22-.08,.44-.26,.7-.4,.25-.15,.5-.37,.77-.57,.25-.23,.52-.47,.8-.72,.55-.51,1.1-1.08,1.64-1.67,.56-.58,1.12-1.15,1.65-1.69,.53-.54,1.08-1,1.57-1.36,.24-.19,.5-.32,.71-.45,.23-.11,.43-.18,.6-.25,.36-.07,.55-.08,.55-.08,0,0-.19,.06-.52,.17-.15,.09-.34,.18-.54,.31-.19,.16-.42,.3-.63,.5-.46,.38-.93,.9-1.45,1.44-.51,.55-1.06,1.14-1.6,1.73-.56,.58-1.14,1.14-1.71,1.65-.28,.26-.58,.47-.86,.68-.3,.19-.56,.39-.84,.53-.28,.13-.52,.28-.77,.34-.24,.06-.45,.16-.62,.16-.35,.03-.55,.04-.55,.04Z"/></g><g class="cls-29"><path class="cls-1" d="M41.46,68.73s.05-.02,.14-.04c.09-.02,.22-.08,.38-.15,.32-.14,.73-.41,1.2-.78,.47-.36,.97-.85,1.5-1.37,.53-.52,1.08-1.1,1.63-1.69,.56-.57,1.13-1.14,1.68-1.66,.55-.52,1.1-.97,1.61-1.31,.5-.35,.99-.55,1.34-.62,.18-.03,.32-.04,.41-.03,.09,0,.14,.01,.14,.01,0,0-.05,0-.14,.01-.09,0-.23,.04-.39,.09-.33,.11-.75,.38-1.21,.74-.47,.36-.95,.86-1.48,1.39-.53,.53-1.07,1.11-1.62,1.7-.56,.57-1.13,1.14-1.69,1.65-.55,.52-1.12,.95-1.62,1.29-.51,.34-.98,.55-1.32,.65-.34,.11-.55,.1-.54,.11Z"/></g><g class="cls-29"><path class="cls-1" d="M44,69.07s.1-.05,.27-.14c.17-.1,.37-.27,.61-.49,.46-.47,.94-1.2,1.47-1.92,.27-.36,.55-.71,.85-1.02,.29-.31,.61-.56,.89-.76,.13-.11,.28-.18,.4-.24,.12-.07,.23-.12,.32-.15,.19-.07,.29-.11,.29-.11,0,0-.09,.07-.25,.18-.08,.05-.18,.12-.27,.22-.1,.09-.22,.18-.33,.3-.24,.22-.49,.51-.75,.83-.26,.32-.53,.67-.79,1.03-.27,.35-.54,.71-.82,1.03-.27,.32-.58,.59-.85,.81-.28,.21-.56,.32-.74,.38-.19,.04-.3,.06-.3,.06Z"/></g><g class="cls-29"><path class="cls-1" d="M46.92,68.73s.27-.47,.76-1.13c.25-.33,.53-.71,.85-1.11,.31-.4,.65-.82,.99-1.25,.34-.42,.65-.85,.95-1.26,.13-.21,.28-.4,.4-.6,.12-.19,.23-.38,.31-.56,.18-.36,.27-.67,.31-.91,.01-.24,.02-.37,.02-.37,0,0,.03,.13,.07,.37,0,.24-.01,.6-.16,1-.26,.8-.86,1.75-1.53,2.61-.67,.86-1.43,1.65-1.99,2.24-.57,.58-.96,.97-.96,.97Z"/></g><g class="cls-29"><path class="cls-1" d="M49.98,69.42s-.01-.03-.03-.09c-.01-.06-.07-.14-.07-.25,0-.11-.03-.27-.01-.43,.02-.16,.02-.35,.07-.54,.08-.39,.2-.84,.36-1.3,.16-.47,.36-.95,.56-1.43,.41-.96,.86-1.89,1.16-2.6,.14-.36,.26-.66,.3-.88,.03-.11,.02-.2,.03-.26,0-.06,0-.09,0-.09,0,0,0,.03,.02,.09,0,.06,.04,.15,.03,.27-.01,.23-.04,.57-.15,.95-.1,.38-.24,.82-.41,1.28-.17,.46-.37,.94-.57,1.42-.41,.95-.84,1.89-1.09,2.62-.07,.18-.11,.35-.15,.5-.05,.15-.05,.28-.07,.39-.02,.11,.01,.2,.01,.26,0,.06,0,.09,0,.09Z"/></g><g class="cls-29"><path class="cls-1" d="M52.1,69.64s-.04-.13-.12-.34c-.04-.23-.09-.58-.06-.98,.04-.4,.09-.87,.21-1.36,.1-.49,.25-1,.38-1.51,.15-.51,.29-1.01,.41-1.49,.12-.47,.23-.91,.28-1.3,.03-.19,.02-.37,.04-.52-.02-.16-.03-.29-.04-.4-.08-.22-.12-.34-.12-.34,0,0,.08,.1,.2,.31,.03,.11,.08,.25,.13,.41,.02,.16,.06,.35,.05,.56,0,.41-.04,.88-.14,1.37-.09,.49-.23,1.01-.37,1.52-.28,1.02-.62,2.01-.77,2.78-.03,.19-.06,.37-.08,.52,0,.15-.02,.29-.02,.41,.02,.23,.04,.36,.04,.36Z"/></g><g class="cls-29"><path class="cls-1" d="M54.22,69.22s-.15-.49-.22-1.26c-.07-.76-.1-1.78-.11-2.79,0-.5,0-1.01,0-1.48-.02-.47-.01-.91-.06-1.28-.04-.37-.1-.67-.18-.88-.03-.11-.09-.16-.12-.22-.03-.05-.05-.08-.05-.08,0,0,.02,.02,.07,.06,.04,.04,.13,.09,.18,.19,.12,.19,.28,.49,.35,.87,.19,.76,.27,1.78,.27,2.8,0,.51,0,1.02-.03,1.49-.02,.47-.04,.92-.06,1.3-.01,.38-.04,.69-.04,.91,0,.22,0,.35,0,.35Z"/></g><g class="cls-29"><path class="cls-1" d="M57.05,68.73s-.12-.08-.3-.24c-.16-.19-.38-.48-.55-.87-.17-.39-.35-.84-.49-1.35-.15-.5-.28-1.04-.41-1.57-.12-.54-.24-1.07-.37-1.57-.12-.5-.24-.96-.38-1.34-.06-.2-.16-.35-.22-.51-.07-.14-.16-.25-.23-.36-.16-.16-.28-.25-.28-.25,0,0,.03,.02,.09,.05,.05,.03,.15,.07,.25,.14,.18,.17,.43,.44,.62,.82,.19,.38,.38,.83,.54,1.33,.16,.5,.29,1.04,.42,1.57,.12,.54,.24,1.07,.35,1.58,.11,.5,.22,.97,.34,1.35,.06,.19,.13,.36,.18,.52,.07,.15,.13,.27,.19,.38,.15,.19,.24,.3,.24,.3Z"/></g><g class="cls-29"><path class="cls-1" d="M60.7,68.24s-.16,.03-.44-.02c-.14-.02-.31-.07-.49-.15-.19-.08-.38-.19-.58-.34-.8-.59-1.56-1.66-2.2-2.76-.65-1.1-1.19-2.24-1.69-3.04-.25-.39-.48-.71-.7-.87-.1-.08-.2-.13-.27-.15-.07-.02-.11-.03-.11-.03,0,0,.04,0,.12,0,.07,0,.19,.03,.31,.1,.25,.14,.57,.41,.86,.8,.61,.76,1.24,1.87,1.88,2.96,.31,.55,.64,1.08,.97,1.57,.33,.48,.66,.92,1,1.23,.17,.15,.33,.29,.49,.39,.15,.11,.31,.17,.43,.22,.25,.1,.43,.09,.42,.1Z"/></g><g class="cls-29"><path class="cls-1" d="M66.09,66.65s-.05,.02-.16,.05c-.11,.03-.25,.1-.45,.13-.2,.05-.44,.09-.73,.12-.28,.03-.61,.04-.96,0-.35-.02-.73-.08-1.13-.18-.4-.09-.8-.22-1.21-.39-.82-.34-1.63-.84-2.36-1.44-.35-.31-.69-.67-.98-1-.3-.35-.61-.63-.93-.91-.65-.55-1.29-1.03-1.87-1.4-1.15-.76-1.98-1.18-1.98-1.18,0,0,.88,.29,2.11,.96,.6,.34,1.31,.76,1.99,1.32,.33,.28,.69,.59,.99,.93,.32,.34,.61,.66,.96,.95,1.35,1.2,3.09,1.9,4.43,2.1,.34,.05,.65,.07,.93,.08,.28,0,.52-.01,.72-.03,.2-.01,.36-.06,.46-.07,.11-.02,.16-.03,.16-.03Z"/></g><path class="cls-6" d="M49.73,57.64c-.24,.69-1.76,1.77-1.64,2.35,.12,.58,.38,1.71,2.48,1.89,2.1,.18,4.11-.45,4.33-2.58,.23-2.14-5.17-1.66-5.17-1.66Z"/><g class="cls-29"><path class="cls-18" d="M54.89,59.62s0,.21-.12,.55c-.13,.33-.37,.83-.87,1.23-.25,.21-.55,.39-.89,.53-.34,.14-.72,.23-1.12,.27-.2,.01-.39,.04-.61,.04-.2,0-.38,0-.6-.02-.43-.04-.85-.11-1.26-.26-.41-.16-.81-.38-1.13-.72-.32-.33-.54-.81-.49-1.29,.02-.24,.11-.46,.23-.65,.06-.09,.14-.17,.21-.25l.19-.18c.25-.23,.49-.45,.69-.66,.4-.42,.65-.84,.76-1.17,.12-.33,.17-.53,.17-.53,0,0,.01,.2-.04,.56-.06,.35-.21,.87-.59,1.39-.18,.26-.4,.51-.63,.77l-.18,.2c-.04,.06-.09,.11-.12,.17-.06,.12-.11,.25-.11,.39-.02,.28,.14,.56,.36,.8,.23,.23,.55,.41,.89,.53,.34,.12,.72,.2,1.08,.24,.18,.03,.39,.03,.58,.04,.17,.01,.36,0,.54,0,.35-.02,.69-.07,1-.16,.31-.09,.59-.21,.83-.36,.48-.3,.8-.68,.98-.98,.18-.3,.24-.49,.24-.49Z"/></g><path class="cls-24" d="M63.53,20.24c2.49-1.66,8.2-.76,11.24,3.18,3.04,3.93,6.11,10.37,.38,26.33,1.08-6.06-5.01-21.87-11.84-23.76s.22-5.75,.22-5.75Z"/><g class="cls-29"><path class="cls-1" d="M64.84,24.55s.1,.03,.28,.08c.18,.07,.46,.1,.77,.28,.32,.15,.73,.34,1.13,.63,.44,.25,.87,.62,1.35,1,.44,.42,.95,.87,1.4,1.41,.48,.52,.92,1.12,1.38,1.74,.41,.65,.88,1.3,1.24,2.02,.19,.36,.39,.71,.56,1.08l.51,1.12c.33,.75,.58,1.53,.85,2.29,.22,.78,.47,1.53,.61,2.28,.15,.75,.32,1.47,.39,2.17,.08,.7,.2,1.35,.21,1.96,.04,.61,.05,1.17,.07,1.66-.01,.49-.02,.93-.03,1.28-.03,.71-.05,1.11-.05,1.11,0,0-.05-.4-.12-1.11-.03-.35-.08-.78-.13-1.26-.08-.48-.17-1.03-.25-1.62-.07-.6-.24-1.23-.36-1.9-.11-.68-.33-1.37-.5-2.1-.16-.73-.46-1.45-.67-2.2-.27-.73-.53-1.49-.85-2.21l-.48-1.09c-.16-.36-.36-.7-.53-1.05-.34-.7-.75-1.35-1.13-1.99-.42-.61-.8-1.22-1.23-1.75-.4-.55-.85-1.02-1.24-1.47-.43-.41-.8-.82-1.19-1.11-.36-.33-.72-.55-1.01-.74-.28-.21-.56-.3-.72-.39-.17-.08-.26-.13-.26-.13Z"/></g><g class="cls-29"><path class="cls-1" d="M65.79,23.49s.1,.02,.29,.06c.19,.03,.46,.1,.81,.19,.34,.11,.75,.25,1.22,.43,.46,.19,.98,.43,1.51,.73,.53,.31,1.11,.66,1.66,1.11,.57,.43,1.13,.94,1.66,1.51,.52,.58,1.04,1.21,1.46,1.91,.21,.35,.43,.71,.6,1.09,.19,.37,.36,.76,.5,1.15,.31,.81,.49,1.55,.68,2.38,.18,.8,.27,1.59,.36,2.35,.08,.77,.11,1.51,.13,2.21,.01,.7,0,1.37-.03,1.98-.13,2.45-.48,4.04-.48,4.04,0,0,0-.41,.02-1.11,.02-.71,0-1.72-.06-2.92-.03-.6-.07-1.25-.13-1.94-.06-.69-.15-1.41-.25-2.15-.11-.74-.26-1.5-.42-2.26-.17-.72-.39-1.56-.67-2.26-.13-.37-.27-.73-.45-1.08-.15-.36-.35-.69-.55-1.02-.19-.34-.42-.64-.62-.96-.23-.3-.45-.6-.69-.88-.49-.55-.97-1.08-1.49-1.52-.51-.45-1.02-.84-1.51-1.19-.49-.33-.96-.63-1.38-.87-.43-.24-.81-.42-1.13-.57-.32-.13-.58-.25-.76-.31-.18-.07-.27-.1-.27-.1Z"/></g><g class="cls-29"><path class="cls-1" d="M66.43,21.07s.1,0,.29,0c.19,.02,.46-.03,.81,.04,.18,.03,.37,.06,.59,.09,.21,.05,.43,.12,.67,.18,.47,.14,1.01,.34,1.54,.64,.55,.28,1.11,.64,1.66,1.08,.56,.43,1.11,.93,1.64,1.49,.51,.57,1.03,1.17,1.48,1.85,.46,.66,.85,1.39,1.2,2.14,.34,.75,.56,1.59,.71,2.36,.16,.82,.21,1.59,.27,2.35,.1,1.51,.07,2.92,.02,4.12-.05,1.2-.16,2.2-.22,2.9-.07,.7-.14,1.09-.14,1.09,0,0-.01-.4-.04-1.1-.01-.7-.07-1.7-.12-2.89-.06-1.19-.14-2.58-.3-4.06-.08-.73-.19-1.5-.33-2.23-.16-.77-.36-1.48-.68-2.19-.31-.7-.67-1.39-1.1-2.02-.41-.64-.87-1.25-1.34-1.8-.49-.54-.97-1.06-1.47-1.5-.25-.22-.5-.44-.75-.62-.25-.2-.49-.38-.74-.53-.24-.16-.48-.31-.72-.43-.24-.13-.45-.26-.68-.34-.22-.09-.43-.19-.62-.26-.2-.06-.38-.11-.54-.16-.33-.11-.61-.12-.79-.17-.18-.03-.28-.05-.28-.05Z"/></g><path class="cls-24" d="M29.18,21.68c-3.78,2.8-5.21,13.66-3.78,20.05s3.1,9.61,3.78,12.32c-1.04-7.98-.38-26.84,9.38-28.66,9.76-1.82-9.38-3.71-9.38-3.71Z"/><g class="cls-29"><path class="cls-1" d="M27.87,25.43s-.05,.09-.15,.25c-.09,.16-.25,.39-.36,.72-.06,.16-.13,.33-.2,.52-.05,.2-.11,.42-.17,.65-.14,.45-.19,1-.31,1.57-.06,.59-.16,1.21-.2,1.89-.06,.67-.08,1.38-.11,2.12-.03,.74,0,1.5,0,2.27,.03,.77,.04,1.56,.1,2.34,.03,.79,.11,1.57,.18,2.34,.07,.77,.18,1.53,.26,2.26,.11,.73,.21,1.44,.31,2.11,.12,.67,.24,1.3,.35,1.88,.12,.58,.24,1.11,.34,1.58,.09,.48,.21,.88,.3,1.21,.17,.67,.26,1.06,.26,1.06,0,0-.16-.36-.43-1.01-.12-.33-.3-.71-.45-1.17-.16-.46-.34-.98-.52-1.55-.16-.58-.33-1.21-.5-1.87-.14-.67-.31-1.38-.44-2.12-.11-.74-.27-1.5-.34-2.29-.09-.78-.17-1.58-.22-2.38-.06-.8-.06-1.6-.07-2.39,0-.79,.03-1.57,.08-2.32,.05-.75,.12-1.47,.23-2.16,.08-.69,.24-1.32,.36-1.91,.17-.58,.29-1.12,.5-1.57,.09-.23,.18-.44,.26-.64,.1-.19,.2-.36,.29-.52,.15-.32,.36-.51,.47-.66,.12-.14,.18-.22,.18-.22Z"/></g><g class="cls-29"><path class="cls-1" d="M31.03,26.53s-.13,.26-.37,.7c-.13,.22-.23,.51-.39,.81-.15,.31-.27,.69-.44,1.07-.13,.41-.3,.83-.43,1.3-.14,.46-.26,.96-.39,1.47-.12,.51-.22,1.05-.32,1.6-.1,.55-.18,1.11-.25,1.67-.29,2.25-.39,4.53-.46,6.25-.03,.86-.06,1.58-.08,2.08-.03,.51-.04,.79-.04,.79,0,0-.25-1.13-.41-2.86-.08-.86-.14-1.88-.13-2.97-.01-1.09,.08-2.25,.21-3.41,.08-.58,.17-1.15,.29-1.72,.1-.57,.26-1.11,.41-1.64,.15-.53,.33-1.03,.52-1.49,.17-.47,.4-.89,.59-1.29,.22-.38,.4-.74,.61-1.03,.2-.29,.37-.56,.54-.75,.33-.38,.52-.6,.52-.6Z"/></g><path class="cls-24" d="M49.98,11.05c12.99-.16,18.04,4.82,17.93,9.19-.11,4.37-4.2,8.57-13.67,9.53s-28.37,1.65-28.31-6.13c.06-7.77,14.87-12.48,24.06-12.6Z"/><g class="cls-29"><path class="cls-18" d="M67.88,19.53c.02,.24,.03,.48,.03,.71-.11,4.37-4.2,8.57-13.67,9.53-8.48,.86-24.51,1.5-27.74-3.95-.02,.02-.02,.05-.02,.07,1.91,6.43,19.21,5.78,28.14,4.87,9.48-.96,13.56-5.16,13.67-9.53,.01-.55-.05-1.11-.21-1.66-.07-.01-.14-.03-.2-.03Z"/></g><path class="cls-21" d="M76.51,94.73c1.4,.7,2.88,1.67,4.26,2.68-2.82-7.5-14.71-8.85-14.71-8.85,1.72,.3,6.41,2,9.6,5.17,.31,.3,.59,.64,.85,1Z"/><path class="cls-21" d="M27.61,94.5c2.46-2.56,5.99-3.6,10.27-4.34-.17-.91-6.45-.34-9.29,1.42-1.13,.7-2.3,1.78-3.4,3.23l2.42-.31Z"/><polygon class="cls-17" points="30.99 92.64 37.95 89.46 52.36 98.61 66.7 88.4 72.22 91.58 72.22 186.97 50.96 191.21 32.05 185.16 30.99 92.64"/><path class="cls-3" d="M59.66,136.88c-.9-8.39-2.81-24.11-4.76-31.21,2.32-.85,3.06-4.13,3.06-4.13l-4.13-.38-5.45,45.86s3.99,19.01,7.05,10.36c3.07-8.65,5.14-12.11,4.24-20.5Z"/><path class="cls-27" d="M58.66,133.11c-.97-7.17-2.63-22.98-4.36-27.87,1.96-.7,3.33-3.87,3.14-6.35-.25-3.28-3.11-5.8-5.2-5.43,0,0-2.56,2.88-3.08,4.99-.52,2.11,.11,4.92,3.07,6.57,.01,0,.02,.01,.03,.02-2.01,4.68-3.84,20.84-4.83,26.94-1.14,7.03-2.03,7.41,1.66,19.09s5.15,9,7.66,.68c2.52-8.32,3.08-9.96,1.9-18.64Z"/><path class="cls-3" d="M58.66,133.11c-.97-7.17-2.63-22.98-4.36-27.87,1.96-.7,3.33-3.87,3.14-6.35-.25-3.28-3.11-5.8-5.2-5.43,0,0-.51,.57-1.11,1.38l.55,.11c1.6-1.07,5.42,6.84,.59,10.09,2.76,1.09,7.38,28.27,4.55,38.59-2.07,7.53-5.2,9.35-7.81,7.14,.03,.1,.06,.2,.1,.31,3.69,11.69,5.15,9,7.66,.68,2.52-8.32,3.08-9.96,1.9-18.64Z"/><g class="cls-29"><path class="cls-4" d="M61.86,184.33c-6.13,4.16-20.39,1.55-28.18-1.1l.5,2.61,16.78,5.37,21.26-4.24v-4.89c-4.89,.46-8.78,1.16-10.36,2.24Z"/></g><g class="cls-29"><path class="cls-2" d="M45.53,168.97c.69-12.41,.06-34.19-3.38-47.66-3.12-12.19-6.82-27.54-7.49-30.34l-3.66,1.67,1.06,92.52,11.95,3.82c.05-4.66,1.06-11.65,1.53-20.01Z"/><path class="cls-2" d="M64.05,111.47c-.68,4.84-4.68,24.94-5.55,34.72-.87,9.78-1.64,21.03-.5,30.71,1.13,9.68,.91,12.41,.91,12.41,0,0-.27,.17-.72,.45l14.04-2.8V91.58l-2.25-1.3c-1.86,5.95-5.42,17.63-5.92,21.19Z"/></g><g class="cls-29"><path class="cls-4" d="M57.42,104.95c-.25-2.75-2.33-8.79-4.26-11.29-1.93,2.5-4.01,8.54-4.26,11.29-4.55-1.22-10.7-11.6-12.31-14.44-.3,.39-.48,.65-.48,.65,0,0,7.42,13.73,12.71,15.15,.25-2.75,2.41-8.05,4.34-10.55,1.93,2.5,3.93,7.8,4.18,10.55,5.28-1.42,12.71-15.15,12.71-15.15,0,0-.14-.2-.39-.53-1.7,2.99-7.75,13.11-12.24,14.32Z"/></g><path class="cls-20" d="M64.61,84.62c-.76,1.77-6.51,6.71-11.46,8.18-4.95-1.47-10.7-6.4-11.46-8.18-1.88,.02-5.51,5.18-5.51,5.18,0,0,7.42,13.73,12.71,15.15,.25-2.75,2.25-8.29,4.18-10.79,1.93,2.5,4.09,8.04,4.34,10.79,5.28-1.42,12.71-15.15,12.71-15.15,0,0-3.63-5.16-5.51-5.18Z"/><path class="cls-9" d="M57.64,298.72c-.33-1.94-.9-4.19-.9-4.19h13.65s-1.07,2.43-.57,4.28c.51,1.85-3.2,7.71-6.67,5.96-3.47-1.75-5.18-4.11-5.51-6.05Z"/><path class="cls-28" d="M57.64,298.72c.04,3.41-2.85,5.58-1,11.2,.89,.64,4.04,3.15,5.64,3.79,1.02-.51,1.81-.73,2.3-1.21,1.02,1.41,4.07,6.69,9.25,8.22,5.17,1.53,14.63,3,16.99,0,2.36-3-7.28-8.67-10.03-11.09-2.75-2.43-7.54-7.11-10.96-10.81-1.75,5.02-10.27,1.57-12.18-.09Z"/><path class="cls-11" d="M56.02,305.4c-1.15,.21-.64,4.64-.34,6.64,1.41,1.28,5.45,3.19,6.56,3.62,1.36-.6,1.83-.81,2.17-1.02,.43,.72,.77,2.34,2.17,3.53,1.41,1.19,5.36,4.26,14.03,4.98,8.67,.72,10.63-.43,11.27-1.32,.38-1.79,.43-2.47,.21-2.85-.21-.38-1.4-1.39-1.94-1.61,.66,1.27,1.47,2.08,.4,2.76-1.06,.68-5.45,1.83-11.71,.64-6.26-1.19-8.99-2.43-10.65-4.85s-2.26-4.3-4.26-4.9c-2-.6-7.57-2.85-7.92-5.62Z"/><g class="cls-29"><path class="cls-18" d="M55.73,305.57s-.02,.03-.03,.04c0,.01-.02,.02-.02,.03-.26,.41-.23,1.29,.78,2.22,1.34,1.25,3.32,2.59,5.78,3.51,2.46,.93,3.23,1.41,3.96,3.02,.73,1.61,2.01,4.48,7.55,5.92,5.54,1.44,10.33,2.17,13.56,1.69,3.23-.48,5.75-1.76,3.26-3.99-.05-.05-.1-.09-.15-.14,.57,.99,1.04,1.67,.13,2.26-1.06,.68-5.45,1.83-11.71,.64-6.26-1.19-8.99-2.43-10.65-4.85s-2.26-4.3-4.26-4.9c-2-.6-7.57-2.85-7.92-5.62-.11,.02-.2,.08-.28,.16Z"/></g><g class="cls-29"><path class="cls-18" d="M70.38,303.1c1.09,1.12,3.39,3.9,2.97,3-.42-.89-4.63-4.92-4.07-6.27h0c-.69,.95-1.76,1.41-2.97,1.54,2.67-.09,3.08,.7,4.08,1.72Z"/><path class="cls-18" d="M65.56,301.42s.02,0,.03,0c0,0-.02,0-.03,0,0,0,0,0,0,0Z"/></g><g class="cls-29"><path class="cls-18" d="M67.57,302.43c0,.21-.17,.38-.38,.38s-.38-.17-.38-.38,.17-.38,.38-.38,.38,.17,.38,.38Z"/></g><g class="cls-29"><path class="cls-18" d="M72.2,302.81c0,.19-.15,.34-.34,.34s-.34-.15-.34-.34,.15-.34,.34-.34,.34,.15,.34,.34Z"/></g><g class="cls-29"><path class="cls-18" d="M74.6,305.02c0,.19-.15,.34-.34,.34s-.34-.15-.34-.34,.15-.34,.34-.34,.34,.15,.34,.34Z"/></g><g class="cls-29"><path class="cls-18" d="M73.28,303.88c0,.19-.15,.34-.34,.34s-.34-.15-.34-.34,.15-.34,.34-.34,.34,.15,.34,.34Z"/></g><g class="cls-29"><path class="cls-18" d="M70.98,301.35c0,.19-.15,.34-.34,.34s-.34-.15-.34-.34,.15-.34,.34-.34,.34,.15,.34,.34Z"/></g><g class="cls-29"><path class="cls-18" d="M71.41,306.41c0,.21-.17,.38-.38,.38s-.38-.17-.38-.38,.17-.38,.38-.38,.38,.17,.38,.38Z"/></g><g class="cls-29"><path class="cls-18" d="M70.24,305.02c0,.21-.17,.38-.38,.38s-.38-.17-.38-.38,.17-.38,.38-.38,.38,.17,.38,.38Z"/></g><g class="cls-29"><circle class="cls-18" cx="68.53" cy="303.74" r=".38"/></g><path class="cls-17" d="M67.14,302.56s-.05,0-.07-.02c-.06-.04-.07-.12-.04-.18,.45-.67,2.63-1.82,3.67-1.15,.06,.04,.08,.12,.04,.18-.04,.06-.12,.08-.18,.04-.89-.58-2.93,.49-3.32,1.07-.02,.04-.07,.06-.11,.06Z"/><path class="cls-17" d="M69.81,305.23s-.04,0-.06-.01c-.06-.03-.08-.1-.05-.16,.36-.67,2.31-1.93,3.35-1.39,.06,.03,.08,.1,.05,.16-.03,.06-.1,.08-.16,.05-.89-.47-2.71,.71-3.02,1.29-.02,.04-.06,.06-.11,.06Z"/><path class="cls-17" d="M71,306.53s-.04,0-.06-.01c-.06-.03-.08-.1-.05-.16,.36-.67,2.31-1.93,3.35-1.39,.06,.03,.08,.1,.05,.16-.03,.06-.1,.08-.16,.05-.89-.47-2.71,.71-3.02,1.29-.02,.04-.06,.06-.11,.06Z"/><path class="cls-17" d="M68.49,304.01s-.05,0-.07-.02c-.06-.04-.07-.12-.04-.18,.45-.67,2.63-1.82,3.67-1.15,.06,.04,.08,.12,.04,.18-.04,.06-.12,.08-.18,.04-.89-.58-2.93,.49-3.32,1.07-.02,.04-.07,.06-.11,.06Z"/><path class="cls-9" d="M42.44,298.72c.33-1.94,.9-4.19,.9-4.19h-13.65s1.07,2.43,.57,4.28c-.51,1.85,3.2,7.71,6.67,5.96s5.18-4.11,5.51-6.05Z"/><path class="cls-28" d="M42.44,298.72c-.04,3.41,2.85,5.58,1,11.2-.89,.64-4.04,3.15-5.64,3.79-1.02-.51-1.81-.73-2.3-1.21-1.02,1.41-4.07,6.69-9.25,8.22-5.17,1.53-14.63,3-16.99,0-2.36-3,7.28-8.67,10.03-11.09,2.75-2.43,7.54-7.11,10.96-10.81,1.75,5.02,10.27,1.57,12.18-.09Z"/><path class="cls-11" d="M44.06,305.4c1.15,.21,.64,4.64,.34,6.64-1.41,1.28-5.45,3.19-6.56,3.62-1.36-.6-1.83-.81-2.17-1.02-.43,.72-.77,2.34-2.17,3.53-1.41,1.19-5.36,4.26-14.03,4.98-8.67,.72-10.63-.43-11.27-1.32-.38-1.79-.43-2.47-.21-2.85,.21-.38,1.4-1.39,1.94-1.61-.66,1.27-1.47,2.08-.4,2.76,1.06,.68,5.45,1.83,11.71,.64,6.26-1.19,8.99-2.43,10.65-4.85s2.26-4.3,4.26-4.9c2-.6,7.57-2.85,7.92-5.62Z"/><g class="cls-29"><path class="cls-18" d="M44.34,305.57s.02,.03,.03,.04c0,.01,.02,.02,.02,.03,.26,.41,.23,1.29-.78,2.22-1.34,1.25-3.32,2.59-5.78,3.51-2.46,.93-3.23,1.41-3.96,3.02-.73,1.61-2.01,4.48-7.55,5.92-5.54,1.44-10.33,2.17-13.56,1.69-3.23-.48-5.75-1.76-3.26-3.99,.05-.05,.1-.09,.15-.14-.57,.99-1.04,1.67-.13,2.26,1.06,.68,5.45,1.83,11.71,.64,6.26-1.19,8.99-2.43,10.65-4.85s2.26-4.3,4.26-4.9c2-.6,7.57-2.85,7.92-5.62,.11,.02,.2,.08,.28,.16Z"/></g><g class="cls-29"><path class="cls-18" d="M29.69,303.1c-1.09,1.12-3.39,3.9-2.97,3,.42-.89,4.63-4.92,4.07-6.27h0c.69,.95,1.76,1.41,2.97,1.54-2.67-.09-3.08,.7-4.08,1.72Z"/><path class="cls-18" d="M34.51,301.42s-.02,0-.03,0c0,0,.02,0,.03,0,0,0,0,0,0,0Z"/></g><g class="cls-29"><path class="cls-18" d="M32.5,302.43c0,.21,.17,.38,.38,.38s.38-.17,.38-.38-.17-.38-.38-.38-.38,.17-.38,.38Z"/></g><g class="cls-29"><path class="cls-18" d="M27.88,302.81c0,.19,.15,.34,.34,.34s.34-.15,.34-.34-.15-.34-.34-.34-.34,.15-.34,.34Z"/></g><g class="cls-29"><path class="cls-18" d="M25.47,305.02c0,.19,.15,.34,.34,.34s.34-.15,.34-.34-.15-.34-.34-.34-.34,.15-.34,.34Z"/></g><g class="cls-29"><path class="cls-18" d="M26.79,303.88c0,.19,.15,.34,.34,.34s.34-.15,.34-.34-.15-.34-.34-.34-.34,.15-.34,.34Z"/></g><g class="cls-29"><path class="cls-18" d="M29.09,301.35c0,.19,.15,.34,.34,.34s.34-.15,.34-.34-.15-.34-.34-.34-.34,.15-.34,.34Z"/></g><g class="cls-29"><circle class="cls-18" cx="29.05" cy="306.41" r=".38"/></g><g class="cls-29"><path class="cls-18" d="M29.83,305.02c0,.21,.17,.38,.38,.38s.38-.17,.38-.38-.17-.38-.38-.38-.38,.17-.38,.38Z"/></g><g class="cls-29"><path class="cls-18" d="M31.16,303.74c0,.21,.17,.38,.38,.38s.38-.17,.38-.38-.17-.38-.38-.38-.38,.17-.38,.38Z"/></g><path class="cls-17" d="M32.93,302.56s.05,0,.07-.02c.06-.04,.07-.12,.04-.18-.45-.67-2.63-1.82-3.67-1.15-.06,.04-.08,.12-.04,.18,.04,.06,.12,.08,.18,.04,.89-.58,2.93,.49,3.32,1.07,.02,.04,.07,.06,.11,.06Z"/><path class="cls-17" d="M30.26,305.23s.04,0,.06-.01c.06-.03,.08-.1,.05-.16-.36-.67-2.31-1.93-3.35-1.39-.06,.03-.08,.1-.05,.16,.03,.06,.1,.08,.16,.05,.89-.47,2.71,.71,3.02,1.29,.02,.04,.06,.06,.11,.06Z"/><path class="cls-17" d="M29.07,306.53s.04,0,.06-.01c.06-.03,.08-.1,.05-.16-.36-.67-2.31-1.93-3.35-1.39-.06,.03-.08,.1-.05,.16,.03,.06,.1,.08,.16,.05,.89-.47,2.71,.71,3.02,1.29,.02,.04,.06,.06,.11,.06Z"/><path class="cls-17" d="M31.58,304.01s.05,0,.07-.02c.06-.04,.07-.12,.04-.18-.45-.67-2.63-1.82-3.67-1.15-.06,.04-.08,.12-.04,.18,.04,.06,.12,.08,.18,.04,.89-.58,2.93,.49,3.32,1.07,.02,.04,.07,.06,.11,.06Z"/><path class="cls-26" d="M19.64,181.07l7.26,114.84s11.2,7.87,18-1.66c1.82-29.5,2.27-88.81,7.57-88.81s2.72,89.42,2.72,89.42c0,0,10.14,8.17,18.61,.76,1.36-24.96,7.41-115.75,7.41-115.75,0,0-21.03,21.79-61.58,1.21Z"/><g class="cls-29"><path class="cls-4" d="M60.87,226.54c.57,10.67,1.49,11.69,7.95,10.1,3.36-.83,6.58-2.33,8.9-3.58,1.8-27.69,3.5-53.19,3.5-53.19,0,0-7.51,7.78-22.21,9.65,.34,6.84,1.39,28.13,1.86,37.03Z"/><path class="cls-4" d="M40.79,237.32c2.19-2.28,3.73-36.78,4.18-47.93-7.35-.99-15.8-3.49-25.32-8.32l3.25,51.34c5.26,3.02,15.5,7.41,17.9,4.9Z"/></g><g class="cls-29"><path class="cls-16" d="M52.48,205.43s-18.81-9.99-18.71,35.4c.05,20.67-.13,41.39-.34,57.83,3.64,.76,8.1,.32,11.49-4.42,1.82-29.5,2.27-88.81,7.57-88.81Z"/><path class="cls-16" d="M72.07,185.84l-5.09,112.82c2.25-.22,4.6-1.09,6.84-3.05,1.36-24.96,7.41-115.75,7.41-115.75,0,0-3.08,3.19-9.16,5.98Z"/></g><path class="cls-10" d="M25.81,181.49s27.92,14.11,50.16-1.63c.53,3.6-.68,8.78-.68,8.78,0,0-26.67,11.23-48.45,0,0-1.36-1.02-7.15-1.02-7.15Z"/><path class="cls-7" d="M72.22,91.58s16.11,6.22,20.5,11.85c4.39,5.63-6.66,21.1-6.96,42.04-.3,20.93-.3,82.67-.3,82.67,0,0-21.33,11.2-22.7,5.75-1.36-5.45-3.59-53.81-3.08-70.4,.51-16.6,8.07-62.74,12.54-71.9Z"/><path class="cls-6" d="M97.14,53.16s-3.19-13.65-9.22-19.94c-6.03-6.29-14.8-7.81-17.75-7.87-2.94-.06-1.3,3.62,2.96,5.44,11.35,4.85,1.68,20.48,16.85,26.63,3.53,.2,7.16-4.26,7.16-4.26Z"/><path class="cls-5" d="M92.79,40.77c.24,5.33-2.56,11.67-5.64,15.22,.83,.52,1.77,1,2.83,1.43,3.53,.2,7.15-4.26,7.15-4.26,0,0-1.49-6.35-4.35-12.39Z"/><path class="cls-7" d="M84.15,97.1c3.56,2,17.59-.08,20.04-1.58-2.92-4.88-17.04-31.39-20.04-36.57,2.68-1.8,11.13-7.57,14.51-9.22,7.22,6.8,34.87,45.82,29.34,57.03-5.53,11.21-41.02,23.04-41.94,33.95-3.07-16.59-1.92-43.61-1.92-43.61Z"/><path class="cls-3" d="M88.49,107.67c.08,8.93-3.99,24.57-2.42,33.05,.67-7.88,19.38-16.25,31.8-24.51-22.8,11.04-26.1-.3-29.38-8.54Z"/><g class="cls-29"><path class="cls-18" d="M109.23,101.05c.57-1.79-2.09-5.42-5.76-6.79,.29,.5,.53,.93,.72,1.25,1.46,.26,4.8,4.24,5.03,5.54Z"/><path class="cls-18" d="M110.5,97.15c0-1.87-5.18-4.21-7.92-4.47,.17,.31,.33,.59,.49,.87,2.27,.56,6.83,1.88,7.43,3.61Z"/></g><g class="cls-29"><path class="cls-18" d="M70.4,25.61s.08,0,.23,0c.15,0,.38,.02,.66,.07,.57,.09,1.37,.26,2.31,.56,.94,.29,2.01,.69,3.14,1.18,.56,.25,1.14,.51,1.72,.8,.58,.29,1.16,.6,1.73,.92,.57,.33,1.13,.68,1.66,1.05,.53,.37,1.04,.77,1.47,1.24,.11,.11,.21,.24,.3,.38,.08,.13,.16,.25,.24,.37,.15,.26,.3,.52,.42,.77,.26,.51,.46,1,.62,1.47,.17,.46,.3,.89,.4,1.28,.11,.38,.18,.72,.25,1,.12,.56,.16,.88,.16,.88,0,0-.08-.32-.25-.86-.17-.54-.43-1.31-.81-2.21-.19-.45-.42-.92-.68-1.4-.13-.24-.28-.48-.43-.72-.08-.12-.17-.24-.26-.36-.08-.11-.17-.22-.27-.32-.4-.42-.91-.79-1.43-1.15-.52-.36-1.07-.69-1.64-1.01-1.12-.65-2.28-1.23-3.38-1.75-1.1-.52-2.15-.96-3.06-1.3-.46-.17-.87-.32-1.25-.44-.38-.12-.71-.21-.98-.28-.28-.06-.49-.11-.65-.13-.15-.02-.23-.03-.23-.03Z"/></g><g class="cls-29"><path class="cls-2" d="M64.87,122.44c.47-.01,1.07,0,1.83,.04,6.43,.34,5.71-5.33,7.83-13.2,1.93-7.17,3.33-13.21,1.35-16.18-.43-.19-.83-.36-1.2-.51l-2.92,1.46,.06-1.58c-2.06,5-4.68,16.95-6.96,29.98Z"/><path class="cls-2" d="M66.51,138.6c.61-2.46,2.42-7.45,2.31-9.95-.11-2.5-3.4-4.84-3.4-4.84,0,0-.34-.11-.74-.27-2.61,15.1-4.73,31.41-4.99,39.93-.1,3.34-.09,7.97,0,13.28,.97-9.67,6.24-35.77,6.83-38.16Z"/></g><g><path class="cls-6" d="M2.49,193.21c-1.25,1.54-1.49,5.41-1.89,8.75-.41,3.39-.89,5.34,.39,8.92,.25,.69,.63,1.78,1.24,2.86,.55,.98,1.42,1.67,2.04,1.79,.24,.75,.59,1.53,.88,1.92,.52,.68,1.29,1.53,2.07,1.47,.53,.72,.9,1.04,1.52,1.3,.52,.21,1.1,.21,1.4-.05,.74,.92,1.72,1.04,2.1,.6,1.33-1.54-.89-7.74-1.39-11.66-.31-2.43,.04-5.94,1.01-6.18,.84-.21,1.56,1.18,1.85,3.69,.22,1.86-.13,5.07,1.57,5.22,1.71,.15,1.8-8.11,.58-10.59-1.75-3.53-2.46-8.63-4.27-9.43-1.82-.8-8.21,.32-9.09,1.4Z"/><g class="cls-29"><path class="cls-4" d="M7.2,209.39c.08,.56,.6,2.27,1.2,4.29,.92,3.07,.87,4.59,1.74,6.48-1.1-2.14-1.36-4.2-2.14-6.51-.65-1.92-1.47-3.54-1.27-5.95,.11-1.25,.45-2.4,.64-3.92-.09,1.61-.39,4.11-.18,5.61Z"/></g><g class="cls-29"><path class="cls-4" d="M4.49,209.41c.07,.48,.54,1.95,1.08,3.68,.82,2.63,.78,3.93,1.56,5.55-.98-1.83-1.22-3.6-1.91-5.58-.58-1.65-1.32-3.04-1.13-5.1,.1-1.08,.4-2.05,.57-3.36-.08,1.38-.35,3.52-.16,4.8Z"/></g><g class="cls-29"><path class="cls-4" d="M2.15,208.37c.05,.37,.4,1.5,.81,2.84,.62,2.03,.59,3.03,1.17,4.28-.74-1.41-.92-2.78-1.44-4.3-.44-1.27-.99-2.34-.85-3.93,.07-.83,.3-1.58,.43-2.59-.06,1.06-.26,2.71-.12,3.71Z"/></g><g class="cls-29"><path class="cls-18" d="M12.28,218.78c-.26-.47-.63-1.41-1.62-1.04-.76,.28-.63,1.14-.57,1.52,.02-.48,.21-1.1,.77-1.27,.62-.19,1.18,.51,1.42,.79Z"/></g><g class="cls-29"><path class="cls-18" d="M9.04,217.89c-.23-.36-.57-1.08-1.37-.84-.61,.18-.47,.83-.41,1.12,0-.36,.13-.82,.58-.92,.5-.12,.99,.43,1.19,.65Z"/></g><g class="cls-29"><path class="cls-18" d="M6.18,216.83c-.15-.23-.37-.7-.88-.54-.39,.12-.3,.53-.26,.72,0-.23,.08-.52,.37-.59,.32-.08,.64,.28,.77,.42Z"/></g><g class="cls-29"><path class="cls-18" d="M3.29,213.31c-.18-.2-.47-.59-.98-.54-.38,.04-.24,.37-.17,.52-.03-.18,.01-.4,.3-.41,.32-.01,.69,.3,.85,.43Z"/></g><g class="cls-29"><path class="cls-18" d="M16.12,210.25c.02-.42,.16-1.23-.7-1.21-.65,.01-.93,.69-1.05,.99,.22-.36,.62-.77,1.08-.75,.52,.02,.61,.7,.66,.97Z"/></g></g><path class="cls-7" d="M15.04,100.34C4.15,106.43,.22,122.02,.07,141.69-.08,161.36,.07,197.9,.07,197.9c0,0,9.02,8.17,18.88,0-.1-33.14,.63-89.04,.63-89.04l-4.54-8.52Z"/><path class="cls-3" d="M19.37,127.38c-1.73,11.46-3.93,27.45-4.12,51.3-.13,15.95-6.64,20.34-14.89,19.46,1.62,1.3,9.77,7.06,18.59-.24-.07-21.04,.21-51.26,.42-70.52Z"/><path class="cls-7" d="M31.21,92.26s-16.11,6.22-20.5,11.85c-4.39,5.63,6.66,21.1,6.96,42.04,.3,20.93,.3,82.67,.3,82.67,0,0,21.33,11.2,22.7,5.75,1.36-5.45,3.59-53.81,3.08-70.4-.51-16.6-8.07-62.74-12.54-71.9Z"/><g class="cls-29"><path class="cls-4" d="M26.27,94.35l-.4,1.01s-2.1,3.46-2.55,4.14c-.45,.68-.96,2.44-.91,2.67,.06,.23-.79,3.12-.85,3.4-.06,.28-.57,2.72-.74,2.89-.17,.17,.4,2.72,.4,2.72l-.06,4.31s-3.63,5.79-2.38,8.91c1.25,3.12,8.57,3.29,10.04-1.91,1.48-5.21-1.87-8.36-6.13-8.7-.87-5.55,2.17-15.72,4.78-19.99-.38,.17-.79,.35-1.21,.53Z"/></g><g class="cls-29"><path class="cls-2" d="M32.05,119.75c1.53,4.83,3.29,2.53,5.33,3.31,.61,.23,1.02,.5,1.31,.78-2.46-14.16-5.33-27.17-7.48-31.58,0,0-1.2,.46-3.04,1.25l-.56,3.41s2.91,18,4.44,22.83Z"/><path class="cls-2" d="M38.97,125.72c-.4,.68-.42-2-.42-2,0,0-2.14,2.85-2.93,4.83-.79,1.99-.23,2.33,.23,4.57,.45,2.24,7.26,32.04,7.77,42.36,.03,.53,.07,1.31,.12,2.32,.1-5.46,.11-10.22,0-13.64-.25-8.25-2.25-23.81-4.75-38.5-.01,.02-.02,.04-.03,.06Z"/></g><polygon class="cls-9" points="20.25 132.69 35.85 136.55 35.85 148.24 20.7 144.44 20.25 132.69"/><polygon class="cls-23" points="26.75 129.74 27.11 136.21 28.59 136.5 29.78 130.14 26.75 129.74"/><circle class="cls-23" cx="22.4" cy="120.72" r="5.86" transform="translate(-44.49 17.76) rotate(-22.5)"/><g class="cls-29"><path class="cls-4" d="M22.94,123.72c1.9-.38,3.01-1.92,2.38-3.68-.56-1.58-2.3-1.78-2.65-1.8-.02,.03-.05,.05-.07,.08l-.2,1.86-.29-1.34c-.82,.87-1.55,1.59-1.87,1.88-.96,.88,.79,3.38,2.7,3Z"/></g><path class="cls-2" d="M34.15,90.63s-6,1.53-6.54,4.15c-.55,2.62,5.57,24.97,6.54,26.56,.97,1.59,4.18,.38,4.44,1.87,.26,1.5-3.35,5.73-2.39,7.77s8.09,36.26,7.38,54.25c3.45-22.36,.39-54.13-2.9-66.27-3.29-12.14-6.53-28.33-6.53-28.33Z"/><path class="cls-2" d="M70.1,89.72s6,1.53,6.54,4.15c.55,2.62-5.57,24.97-6.54,26.56-.97,1.59-4.18,.38-4.44,1.87-.26,1.5,3.35,5.73,2.39,7.77s-9.34,35.78-8.21,54.25c-3.45-22.36,.44-54.13,3.73-66.27,3.29-12.14,6.53-28.33,6.53-28.33Z"/><polygon class="cls-17" points="21.19 143.93 35.15 147.41 35.15 138.63 20.82 134.96 20.81 134.96 21.19 143.93"/><g class="cls-29"><path class="cls-1" d="M64.14,26.61s-.15,.07-.43,.19c-.28,.12-.71,.28-1.26,.44-1.11,.32-2.71,.71-4.66,1.02-.98,.16-2.04,.3-3.16,.43-1.12,.13-2.31,.25-3.55,.32-2.47,.16-5.11,.19-7.75,.05-1.32-.07-2.64-.2-3.93-.38-1.29-.17-2.56-.43-3.76-.75-1.21-.3-2.35-.76-3.39-1.26-1.02-.55-1.95-1.17-2.63-1.95-.19-.18-.3-.41-.45-.6-.14-.2-.28-.4-.36-.62-.09-.22-.18-.43-.26-.63-.04-.22-.08-.43-.12-.63-.11-.41-.04-.8-.04-1.15-.02-.36,.11-.67,.16-.95,.09-.58,.33-.98,.44-1.27,.12-.28,.18-.44,.18-.44,0,0-.05,.16-.14,.45-.07,.3-.26,.71-.31,1.28-.03,.28-.12,.59-.08,.93,.03,.34-.01,.71,.12,1.08,.05,.19,.1,.38,.15,.57,.09,.18,.19,.37,.28,.56,.08,.2,.21,.37,.36,.55,.15,.17,.25,.38,.44,.53,.65,.69,1.55,1.22,2.54,1.7,1.02,.43,2.12,.8,3.3,1.08,.58,.16,1.2,.25,1.81,.38,.62,.09,1.24,.2,1.88,.28,1.27,.16,2.56,.28,3.87,.34,1.3,.08,2.6,.11,3.89,.12,1.28,0,2.55-.01,3.77-.06,2.45-.09,4.73-.24,6.68-.46,1.95-.22,3.57-.44,4.69-.68,1.12-.23,1.74-.45,1.74-.45Z"/></g><g class="cls-29"><path class="cls-1" d="M65.79,24.94s-.16-.02-.47-.05c-.31-.06-.76-.03-1.33-.02-.57,.05-1.26,.11-2.05,.25-.79,.12-1.68,.3-2.65,.46-.97,.17-2.03,.36-3.14,.55-1.12,.19-2.3,.37-3.53,.51-1.23,.13-2.51,.25-3.82,.29-1.31,.03-2.64,.04-3.97-.07-.67-.03-1.33-.12-1.99-.22l-.99-.14c-.33-.06-.65-.14-.97-.21-1.3-.24-2.52-.68-3.71-1.08-1.15-.43-2.28-.97-3.25-1.59-.97-.63-1.84-1.37-2.38-2.27-.57-.89-.61-1.97-.36-2.76,.25-.8,.69-1.39,1.07-1.83,.38-.44,.74-.73,.98-.92,.24-.19,.38-.28,.38-.28,0,0-.13,.1-.35,.31-.22,.21-.53,.54-.88,.99-.34,.45-.71,1.05-.88,1.8-.17,.74-.07,1.63,.46,2.4,.51,.78,1.34,1.43,2.29,1.98,.97,.55,2.02,.99,3.19,1.41,1.15,.36,2.35,.74,3.6,.97,.31,.06,.62,.14,.94,.19l.96,.13c.64,.09,1.28,.17,1.93,.2,1.29,.12,2.6,.12,3.88,.1,1.28-.03,2.54-.11,3.77-.21,1.22-.12,2.4-.23,3.52-.37,1.12-.14,2.18-.28,3.16-.41,.98-.13,1.88-.24,2.68-.29,.8-.08,1.51-.09,2.09-.09,.59,.02,1.04,.06,1.34,.14,.3,.07,.46,.1,.46,.1Z"/></g><g class="cls-29"><path class="cls-1" d="M67.03,23.49s-.07-.14-.2-.4c-.03-.06-.07-.14-.11-.22-.05-.07-.12-.14-.18-.22-.14-.15-.26-.35-.49-.51-.21-.17-.42-.37-.71-.51-.14-.08-.28-.16-.43-.25-.15-.08-.32-.14-.49-.22-.67-.31-1.49-.52-2.37-.72-.44-.1-.92-.15-1.4-.23-.49-.04-1-.1-1.52-.12-1.05-.04-2.15-.03-3.29,.04-.57,.04-1.15,.08-1.73,.16-.58,.06-1.17,.15-1.76,.25-.59,.09-1.19,.21-1.78,.34-.6,.12-1.18,.28-1.77,.44-.59,.15-1.2,.32-1.8,.46-.62,.14-1.24,.25-1.86,.32-1.23,.16-2.47,.16-3.65,.06-2.36-.21-4.53-.94-6.08-2.07-.78-.56-1.38-1.28-1.62-2.05-.26-.78-.05-1.52,.26-1.97,.3-.47,.65-.74,.88-.92,.24-.17,.37-.25,.37-.25,0,0-.12,.1-.33,.29-.21,.2-.51,.5-.76,.97-.25,.45-.37,1.12-.09,1.77,.27,.65,.86,1.25,1.6,1.74,1.49,.99,3.6,1.55,5.85,1.69,1.13,.07,2.3,.02,3.48-.13,.59-.07,1.18-.18,1.75-.32,.59-.14,1.17-.31,1.78-.47,.6-.16,1.21-.32,1.82-.43,.61-.13,1.22-.25,1.83-.34,.3-.05,.61-.09,.91-.14,.3-.03,.61-.06,.91-.09,.6-.07,1.19-.1,1.78-.12,1.17-.06,2.31,0,3.38,.1,.54,.05,1.05,.14,1.55,.21,.5,.11,.98,.19,1.43,.31,.91,.24,1.73,.53,2.4,.91,.17,.09,.34,.17,.49,.27,.15,.1,.29,.2,.42,.3,.28,.17,.49,.4,.69,.59,.21,.17,.33,.4,.46,.58,.06,.09,.12,.17,.16,.25,.03,.08,.06,.16,.09,.23,.1,.27,.16,.42,.16,.42Z"/></g><g class="cls-29"><path class="cls-1" d="M67.57,20.69s-.06-.14-.18-.39c-.06-.13-.13-.28-.21-.47-.11-.17-.23-.36-.37-.58-.12-.22-.32-.43-.52-.66-.19-.24-.44-.46-.71-.69-.53-.47-1.22-.87-1.99-1.26-.8-.34-1.68-.67-2.66-.85-.97-.22-2.02-.29-3.11-.35-.54-.01-1.1,0-1.66,.02-.56,.06-1.13,.08-1.69,.16-1.13,.14-2.28,.35-3.41,.65-1.12,.27-2.28,.63-3.41,.9-1.14,.29-2.27,.52-3.37,.72-2.2,.39-4.3,.6-6.11,.46-.9-.08-1.77-.24-2.39-.74-.31-.25-.5-.62-.53-.96-.02-.34,.06-.64,.16-.89,.2-.49,.46-.82,.62-1.04,.17-.22,.27-.33,.27-.33,0,0-.08,.13-.22,.36-.14,.24-.34,.6-.5,1.07-.08,.24-.12,.52-.08,.8,.05,.28,.21,.54,.49,.72,.55,.37,1.36,.47,2.22,.5,1.74,.05,3.78-.3,5.93-.73,1.08-.22,2.18-.5,3.31-.78,1.13-.28,2.23-.63,3.41-.93,1.16-.3,2.35-.5,3.53-.64,.59-.08,1.18-.09,1.76-.13,.58,0,1.16,0,1.72,.03,1.13,.08,2.22,.22,3.22,.5,1.01,.24,1.92,.64,2.74,1.04,.79,.45,1.48,.93,1.99,1.47,.26,.26,.5,.51,.67,.78,.18,.26,.37,.48,.48,.73,.12,.23,.23,.44,.32,.63,.06,.19,.11,.36,.16,.49,.08,.26,.13,.41,.13,.41Z"/></g><g class="cls-29"><path class="cls-1" d="M65.79,16.55s-.09-.09-.25-.27c-.17-.17-.37-.46-.71-.74-.34-.28-.73-.63-1.28-.91-.13-.07-.26-.16-.4-.23-.15-.06-.3-.12-.46-.19-.31-.13-.63-.28-1-.36-.36-.1-.72-.22-1.13-.27-.4-.06-.8-.15-1.23-.17-.85-.08-1.75-.08-2.69-.04-1.87,.1-3.86,.4-5.82,.84-.98,.21-1.96,.46-2.92,.72-.95,.28-1.9,.53-2.8,.82-.92,.28-1.78,.55-2.66,.75-.87,.2-1.69,.36-2.48,.4-.77,.08-1.53,0-2.14-.27l-.22-.11-.19-.15c-.13-.09-.22-.22-.3-.35-.16-.25-.19-.53-.2-.76,.01-.47,.17-.8,.26-1.02,.1-.22,.18-.32,.18-.32,0,0-.06,.11-.13,.34-.07,.22-.16,.57-.13,.99,.02,.43,.31,.89,.86,1.06,.54,.17,1.23,.18,1.96,.07,.73-.09,1.53-.29,2.34-.53,.82-.24,1.7-.57,2.59-.87,.9-.32,1.84-.62,2.81-.91,.97-.27,1.96-.53,2.96-.76,2-.43,4.05-.73,5.99-.75,.97-.02,1.91,.04,2.79,.18,.44,.04,.87,.16,1.27,.25,.41,.08,.79,.23,1.16,.36,.37,.11,.71,.28,1.02,.45,.16,.08,.31,.16,.46,.24,.14,.09,.27,.19,.4,.28,.53,.34,.91,.75,1.23,1.08,.32,.32,.47,.64,.62,.83,.13,.2,.21,.3,.21,.3Z"/></g><g class="cls-29"><path class="cls-18" d="M29.6,48.58c1.12-.51,4.88-1.8,9.92-1.8,3.13,0,5.41,.42,7.42,.79,.78,.14,1.59,.29,2.41,.41-.14-.1-.3-.17-.47-.19-.86-.12-1.71-.27-2.52-.42-2.01-.37-4.29-.79-7.42-.79-5.04,0-8.8,1.3-9.92,1.8,.06,2.06,.55,9.02,4.58,10.12-3.49-1.58-3.94-7.95-3.99-9.91Z"/><path class="cls-18" d="M57.2,47.35c-.61,.11-1.23,.23-1.87,.33-.47,.07-.88,.35-1.14,.75-.26,.41-.33,.9-.19,1.36,.11,.38,.22,.78,.33,1.2,.12,.43,.24,.88,.37,1.33,.29,.98,.64,2.19,1.12,3.58,.44,1.29,1.44,2.17,3.06,2.67-1.27-.52-2.08-1.33-2.47-2.46-.48-1.39-.83-2.61-1.12-3.58-.13-.45-.25-.89-.37-1.33-.11-.42-.22-.82-.33-1.2-.14-.46-.07-.96,.19-1.36,.25-.4,.67-.67,1.14-.75,.63-.1,1.26-.21,1.87-.33,2.01-.37,4.29-.79,7.42-.79,3.88,0,7,.77,8.74,1.35-1.56-.59-4.96-1.56-9.33-1.56-3.13,0-5.41,.42-7.42,.79Z"/><path class="cls-18" d="M75.27,49.53l.06-.86,.44-.06c-2.2,2.02-.17,10.73-6.34,11.35l-.51,.05c-1.83,.19-3.91,.4-5.89,.4h0c-1.82,0-3.35-.2-4.6-.59,1.35,.54,3.07,.8,5.19,.8h0c1.97,0,4.05-.21,5.89-.4l.51-.05c5.73-.58,6.28-8.8,6.2-11.51,0-.11-.02-.19-.05-.23-.94,.39-1.05,.95-.89,1.09Z"/><path class="cls-18" d="M51.8,48.67h-.04c-.56,0-.96,1.51-1.48,3.41-.32,1.17-.71,2.63-1.27,4.26-.94,2.75-3.72,4.09-8.49,4.09-1.97,0-4.05-.21-5.89-.4l-.51-.05c-.36-.04-.7-.1-1.02-.2,.48,.21,1.02,.35,1.6,.41l.51,.05c1.84,.19,3.92,.4,5.89,.4,4.77,0,7.54-1.34,8.49-4.09,.56-1.63,.95-3.08,1.27-4.26,.46-1.72,.84-3.1,1.32-3.37-.12-.16-.25-.26-.39-.26Z"/></g><path class="cls-23" d="M63.03,60.43c-4.77,0-7.54-1.34-8.49-4.09-.56-1.63-.95-3.08-1.27-4.26-.52-1.91-.92-3.41-1.48-3.41h-.04c-.56,0-.96,1.51-1.48,3.41-.32,1.17-.71,2.63-1.27,4.26-.94,2.75-3.72,4.09-8.49,4.09-1.97,0-4.05-.21-5.89-.4l-.51-.05c-6.17-.63-6.48-10.21-6.48-12.12v-.21l.16-.14c.65-.55,5.23-2.3,11.13-2.3,3.25,0,5.6,.43,7.66,.81,1.7,.31,3.31,.61,5.16,.61h.04c1.85,0,3.46-.3,5.16-.61,2.07-.38,4.41-.81,7.66-.81,5.9,0,10.48,1.75,11.13,2.3l.16,.14v.21c0,1.91-.31,11.49-6.48,12.12l-.51,.05c-1.83,.19-3.91,.4-5.89,.4h0Zm1.59-13.86c-3.13,0-5.41,.42-7.42,.79-.61,.11-1.23,.23-1.87,.33-.47,.07-.88,.35-1.14,.75-.26,.41-.33,.9-.19,1.36,.11,.38,.22,.78,.33,1.2,.12,.43,.24,.88,.37,1.33,.29,.98,.64,2.19,1.12,3.58,.74,2.16,3.03,3.17,7.2,3.17,1.9,0,3.95-.21,5.75-.4l.52-.05c4.65-.47,5.19-8.08,5.25-10.25-1.12-.51-4.88-1.8-9.92-1.8Zm-35.6,1.8c.06,2.17,.6,9.77,5.25,10.25l.51,.05c1.8,.19,3.85,.4,5.75,.4,4.17,0,6.46-1.01,7.2-3.17,.48-1.39,.83-2.6,1.12-3.58,.13-.45,.25-.89,.37-1.32,.18-.66,.35-1.28,.53-1.83,.1-.3,.06-.63-.1-.89-.17-.27-.45-.45-.76-.49-.86-.12-1.71-.27-2.52-.42-2.01-.37-4.29-.79-7.42-.79-5.04,0-8.8,1.3-9.92,1.8Z"/><path class="cls-10" d="M64.53,47.93c-2.16-.39-3.8,.25-4.67,.75-.34,2.31,.37,5.57,4.03,5.5,3.26-.06,4.38-2.73,4.04-5.12-.59-.35-1.63-.81-3.39-1.13Z"/><path class="cls-14" d="M67.12,51.39c0,.8-.65,1.45-1.45,1.45s-1.45-.65-1.45-1.45,.65-1.45,1.45-1.45,1.45,.65,1.45,1.45Z"/><ellipse class="cls-14" cx="66.52" cy="50.54" rx=".85" ry=".98"/><ellipse class="cls-14" cx="65.75" cy="49.8" rx=".48" ry=".56"/><path class="cls-10" d="M42.86,48.34c-1.93-.87-4.23-.42-5.03-.21-.98,2.59-.11,6.27,3.73,6.34,3,.06,4.02-2.13,4.1-4.2-.5-.53-1.39-1.31-2.79-1.93Z"/><path class="cls-14" d="M44.72,51.72c0,.76-.62,1.38-1.38,1.38s-1.38-.62-1.38-1.38,.62-1.38,1.38-1.38,1.38,.62,1.38,1.38Z"/><path class="cls-14" d="M44.94,50.91c0,.52-.36,.93-.8,.93s-.8-.42-.8-.93,.36-.93,.8-.93,.8,.42,.8,.93Z"/><path class="cls-14" d="M43.87,50.21c0,.29-.21,.53-.46,.53s-.46-.24-.46-.53,.21-.53,.46-.53,.46,.24,.46,.53Z"/><g class="cls-29"><path class="cls-16" d="M75.11,55.16c.2,0,.4,0,.59-.05,.19-.05,.37-.13,.53-.24,.15-.12,.29-.25,.4-.41,.04-.08,.11-.16,.13-.25,.03-.09,.07-.17,.08-.26,.05-.18,.04-.37,0-.54,0-.09-.06-.17-.09-.25-.03-.09-.1-.15-.15-.23-.04-.08-.13-.13-.19-.2-.06-.07-.14-.11-.22-.16-.15-.11-.33-.17-.5-.25l-.13-.06v-.13c.04-.55,.24-1.11,.6-1.57,.37-.45,.92-.75,1.52-.77,.3,0,.6,.06,.87,.19,.26,.13,.51,.34,.66,.59,.19,.3,.21,.59,.21,.89,0,.29-.06,.56-.13,.83-.15,.53-.36,1.02-.59,1.5-.23,.48-.49,.93-.67,1.42-.19,.48-.36,1-.69,1.44-.16,.22-.4,.41-.69,.43-.28,.03-.53-.1-.76-.24,.24,.11,.5,.19,.74,.15,.25-.04,.44-.23,.57-.44,.26-.43,.39-.94,.56-1.45,.35-1.02,.88-1.93,1.13-2.92,.05-.24,.11-.49,.1-.73,0-.23-.05-.48-.15-.63-.12-.2-.29-.34-.51-.44-.2-.1-.43-.16-.66-.16-.46,0-.91,.23-1.22,.59-.15,.19-.28,.39-.36,.62-.09,.23-.13,.47-.17,.71l-.12-.19c.19,.1,.39,.18,.56,.32,.09,.06,.18,.12,.25,.21,.07,.08,.16,.15,.21,.25,.05,.1,.13,.18,.16,.29,.04,.11,.09,.21,.09,.32,.04,.22,.03,.44-.03,.65-.02,.11-.07,.2-.12,.3-.04,.1-.12,.18-.18,.27-.13,.17-.3,.3-.48,.41-.19,.1-.38,.17-.59,.2-.21,.03-.41,.01-.61-.02Z"/></g><g class="cls-29"><path class="cls-18" d="M31.69,47.19c-3.39,.85-3.39,.47-3.25,2.12,.13,1.65,1.04,8.59,5.09,9.17,0,0,.01,0,.02,0-3.98-1.14-4.47-8.05-4.53-10.11,1.12-.51,4.88-1.8,9.92-1.8,.26,0,.51,0,.76,0h0s-4.62-.24-8.01,.61Z"/></g><g class="cls-29"><path class="cls-18" d="M53.72,48.14c-1.05,1.88,1.44,8.27,2.53,9.46,1.1,1.19,4.83,1.77,8.93,1.39-.73,.05-1.45,.07-2.16,.07-4.17,0-6.46-1.01-7.2-3.17-.48-1.39-.83-2.61-1.12-3.58-.13-.45-.25-.89-.37-1.33-.11-.42-.22-.82-.33-1.2-.14-.46-.07-.96,.19-1.36,.25-.4,.67-.67,1.14-.75,.63-.1,1.26-.21,1.87-.33,1.85-.34,3.92-.72,6.67-.78,0,0,0,0,0,0-.86-.02-9.15-.22-10.14,1.57Z"/></g><g class="cls-29"><path class="cls-18" d="M51.74,48.67c-1.23,.05-2.35,5.07-3.16,7.35-.82,2.32-4.24,4.93-13.42,4.06,1.7,.17,3.58,.35,5.37,.35,4.77,0,7.54-1.34,8.49-4.09,.56-1.63,.95-3.08,1.27-4.26,.51-1.89,.91-3.38,1.46-3.41Z"/><path class="cls-18" d="M59.15,60.04c1.1,.26,2.39,.39,3.87,.39h0c1.97,0,4.05-.21,5.89-.4l.51-.05c6.17-.63,6.48-10.21,6.48-12.12v-.21s-.47,7.28-2.67,9.4c-2.19,2.12-3.25,3.04-14.09,3Z"/></g><g class="cls-31"><path class="cls-13" d="M28.14,47.5s.76-.41,1.98-.83c.61-.2,1.33-.43,2.11-.61,.78-.19,1.63-.34,2.48-.47,.85-.11,1.71-.18,2.51-.23,.4,0,.79-.02,1.16-.02,.37-.01,.72,.02,1.04,.02,.64,0,1.18,.08,1.55,.1,.37,.03,.59,.05,.59,.05,0,0-.21,0-.59-.01-.37,0-.91-.03-1.55-.01-.32,0-.67,0-1.03,.02-.37,.02-.75,.04-1.15,.05-.8,.05-1.65,.13-2.49,.25-1.69,.23-3.36,.61-4.59,.98-1.23,.36-2.02,.71-2.02,.71Z"/></g><g class="cls-31"><path class="cls-13" d="M51.78,46.85s1.23-.04,3.06-.29c.92-.11,1.97-.32,3.1-.55,1.14-.22,2.36-.4,3.59-.51,2.46-.2,4.94-.1,6.77,.15,.92,.12,1.67,.29,2.2,.41,.52,.13,.82,.2,.82,.2,0,0-.3-.06-.83-.16-.53-.1-1.29-.21-2.2-.32-1.83-.22-4.29-.28-6.74-.05-1.22,.09-2.44,.25-3.57,.45-1.13,.21-2.2,.41-3.12,.5-1.84,.2-3.07,.17-3.07,.17Z"/></g><g class="cls-31"><path class="cls-13" d="M27.93,48.89s.05,.71,.19,1.76c.07,.53,.18,1.14,.3,1.79,.14,.65,.29,1.34,.51,2.01,.2,.68,.46,1.33,.76,1.92,.13,.3,.32,.56,.47,.82,.15,.26,.36,.46,.52,.67,.16,.21,.37,.34,.52,.5,.15,.16,.32,.25,.45,.32,.27,.16,.42,.25,.42,.25,0,0-.16-.08-.44-.22-.14-.07-.32-.15-.48-.29-.16-.14-.39-.27-.56-.47-.17-.21-.39-.4-.56-.67-.17-.26-.38-.52-.51-.82-.32-.59-.59-1.26-.8-1.94-.21-.68-.36-1.38-.49-2.04-.11-.66-.19-1.28-.23-1.81-.09-1.07-.07-1.78-.07-1.78Z"/></g><g class="cls-31"><path class="cls-13" d="M52.87,50s.25,.73,.62,1.83c.36,1.1,.82,2.58,1.27,4.06,.22,.73,.61,1.39,1.09,1.91,.48,.53,1.03,.92,1.53,1.2,.5,.28,.95,.47,1.27,.58,.32,.11,.5,.17,.5,.17,0,0-.19-.05-.52-.13-.32-.1-.79-.24-1.31-.5-.52-.27-1.11-.64-1.61-1.18-.51-.53-.93-1.23-1.17-1.98-.44-1.48-.87-2.97-1.18-4.09-.3-1.12-.5-1.87-.5-1.87Z"/></g><path class="cls-19" d="M51.61,187.3s-.26,.02-.7,.03c-.45,0-1.09-.01-1.86-.11-.38-.04-.8-.11-1.21-.14-.2,0-.41,0-.5,.07-.08,.05-.14,.18-.16,.4-.05,.4,0,.91,0,1.41,0,.5,0,1.01,.01,1.52,0,.51,0,1.02-.01,1.52,0,.49-.05,1.05,.07,1.35,.06,.16,.14,.23,.3,.3,.16,.06,.38,.08,.58,.09,.42,0,.83-.02,1.21-.04,.76-.04,1.4-.08,1.84-.11,.45-.01,.7-.02,.7-.02,0,0-.99,.23-2.5,.51-.38,.06-.79,.14-1.25,.16-.23,0-.47,.02-.75-.06-.28-.06-.59-.32-.69-.61-.22-.6-.15-1.06-.17-1.56,0-.5,0-1.01-.01-1.52,0-.51,0-1.02,.01-1.52,.01-.5-.01-.98,.07-1.52,.04-.24,.15-.61,.49-.79,.32-.15,.58-.1,.82-.08,.46,.07,.85,.18,1.22,.26,.74,.17,1.36,.29,1.8,.36,.44,.07,.69,.1,.69,.1Z"/><g class="cls-29"><path class="cls-12" d="M51.74,190.41c0,.28-.23,.51-.51,.51s-.51-.23-.51-.51,.23-.51,.51-.51,.51,.23,.51,.51Z"/></g><g class="cls-29"><circle class="cls-12" cx="55.16" cy="190.28" r=".51"/></g><g class="cls-29"><path class="cls-12" d="M59.52,189.77c0,.28-.23,.51-.51,.51s-.51-.23-.51-.51,.23-.51,.51-.51,.51,.23,.51,.51Z"/></g><path class="cls-8" d="M51.23,190.13c.14,.08,.13,.35,0,.48h-5.17s-.26-.26-.04-.48h5.21Z"/><g class="cls-29"><path class="cls-4" d="M77.13,93.65l1.35,2.9,2.79,9.09,.75,10.97-1.13,8.09s-4.81,2.8-5.01,2.87-5.03,7.19-5.03,7.19c0,0-4.18,9.78-4.3,11.24-.12,1.46,0,5.71,0,7.82s2.27,3.79,3.57,4.34c1.3,.55,3.74-.37,3.74-.37,0,0,.18,2.09,2.54,1.5,2.36-.59,1.27-3.35,.31-3.31-.96,.04-7.37,4.05-7.89-2.7-.52-6.74,1.43-14.21,5.86-20.49,4.43-6.29,8.44-6.88,10.43-5.22s4.51,8.78,4.51,8.78l1.11,8.32-1.33,4.46-2.42,4.15s-2.92,2.43-6.08,2.71c1.79,3.16,3.96,1.31,4,.1,6.09-.45,6.69-8.78,6.84-14.3,.15-5.53-2.95-14.52-8.82-18.27,1.92-15.7-1.32-25.23-4.44-28.76l.07-.48c-.49-.23-.97-.44-1.42-.65Z"/></g><path class="cls-21" d="M29,92c-.04-.34-.47-.27-1.06,.02-4.43,3.26-9.26,12.2-6.76,26.53,.26,1.72,.88,2.17,.88,2.17l.34-2.5s-1.13-3.91-.4-9.65c.43-3.32,1.77-9.59,5.16-13.6,.47-.55,1.4-1.72,1.95-2.16,.21-.57-.07-.44-.12-.83Z"/><path class="cls-9" d="M24.9,120.72c0,1.38-1.12,2.5-2.5,2.5s-2.5-1.12-2.5-2.5,1.12-2.5,2.5-2.5,2.5,1.12,2.5,2.5Z"/><g class="cls-29"><path class="cls-18" d="M67.59,187.59s.28,5.04,.7,12.61c.18,3.78,.4,8.2,.63,12.93,.05,1.18,.1,2.39,.16,3.6l.04,.92c.02,.24,.05,.63,.13,.85,.13,.51,.47,.97,.96,1.18,1,.44,2.29,.18,3.43-.17,1.17-.37,2.31-.9,3.4-1.49,1.1-.59,2.16-1.25,3.17-1.98,.99-.73,2-1.51,2.71-2.43,.09-.11,.15-.23,.21-.34l.04-.14s0-.14,.01-.21c.02-.31,.03-.62,.04-.92,.01-.61,.02-1.22,.03-1.83,.01-1.22,.02-2.42,.03-3.6,.03-4.73,.06-9.15,.08-12.94,.07-7.58,.12-12.63,.12-12.63,0,0,.03,1.26,.08,3.47,.04,2.21,.14,5.37,.18,9.15,.04,3.79,.13,8.21,.13,12.94,0,1.18,0,2.39-.01,3.61,0,.61-.02,1.23-.02,1.85,0,.31-.02,.62-.03,.93,0,.09,0,.14-.02,.25-.03,.1-.05,.22-.09,.31-.08,.17-.17,.33-.27,.46-.81,1.06-1.82,1.83-2.84,2.59-1.03,.75-2.11,1.44-3.23,2.05-1.12,.61-2.3,1.14-3.53,1.52-.62,.18-1.25,.35-1.91,.4-.65,.05-1.35,.02-2-.28-.66-.3-1.12-.93-1.29-1.61-.1-.36-.11-.59-.14-.96l-.03-.92c-.05-1.22-.09-2.42-.14-3.6-.15-4.73-.3-9.15-.42-12.94-.19-7.58-.32-12.63-.32-12.63Z"/></g><g class="cls-29"><path class="cls-18" d="M68.29,187.35s.26-.03,.72-.08c.46-.04,1.1-.15,1.87-.27,.38-.08,.8-.14,1.24-.23,.44-.09,.89-.19,1.36-.31,.47-.1,.95-.26,1.44-.4,.49-.14,.97-.32,1.46-.49,.47-.2,.96-.37,1.41-.59,.44-.24,.92-.41,1.32-.68,.41-.26,.83-.46,1.17-.74,.35-.27,.72-.48,1-.75,.29-.26,.56-.49,.8-.69,.23-.22,.4-.43,.56-.6,.31-.33,.49-.53,.49-.53,0,0-.14,.22-.39,.61-.13,.19-.28,.43-.47,.69-.21,.24-.45,.52-.72,.81-.26,.31-.61,.56-.96,.87-.34,.31-.75,.56-1.17,.84-.41,.29-.88,.51-1.34,.76-.47,.24-.97,.42-1.46,.64-.51,.16-1.01,.35-1.51,.48-.51,.13-1,.26-1.49,.35-.49,.11-.96,.17-1.41,.23-.45,.07-.88,.09-1.27,.12-.79,.05-1.45,.03-1.91,.02-.46-.02-.72-.05-.72-.05Z"/></g><g class="cls-29"><path class="cls-18" d="M38.2,187.59s-.13,5.05-.32,12.63c-.12,3.79-.27,8.2-.42,12.94-.04,1.18-.09,2.39-.14,3.6l-.03,.92c-.03,.37-.04,.6-.14,.96-.17,.68-.63,1.31-1.29,1.61-.65,.3-1.34,.33-2,.28-.66-.05-1.29-.22-1.91-.4-1.23-.38-2.4-.92-3.53-1.52-1.12-.61-2.2-1.3-3.23-2.05-1.02-.76-2.02-1.54-2.84-2.59-.1-.13-.19-.29-.27-.46-.04-.09-.06-.2-.09-.31-.01-.11-.01-.16-.02-.25-.02-.31-.03-.62-.03-.93,0-.62-.02-1.24-.02-1.85,0-1.22,0-2.42-.01-3.61,0-4.74,.08-9.16,.13-12.94,.05-3.79,.14-6.94,.18-9.15,.05-2.21,.08-3.47,.08-3.47,0,0,.05,5.05,.12,12.63,.02,3.79,.05,8.21,.08,12.94,.01,1.18,.02,2.39,.03,3.6,.01,.6,.02,1.21,.03,1.83,0,.3,.02,.61,.04,.92,0,.07,0,.17,.01,.21l.04,.14c.06,.11,.12,.22,.21,.34,.71,.91,1.72,1.7,2.71,2.43,1.01,.73,2.07,1.39,3.17,1.98,1.09,.6,2.23,1.12,3.4,1.49,1.15,.35,2.43,.61,3.43,.17,.49-.21,.82-.67,.96-1.18,.08-.23,.12-.62,.14-.85l.04-.92c.05-1.22,.11-2.42,.16-3.6,.23-4.73,.45-9.14,.63-12.93,.42-7.56,.7-12.61,.7-12.61Z"/></g><g class="cls-29"><path class="cls-18" d="M37.51,187.35s-.26,.04-.72,.05c-.46,.02-1.12,.03-1.91-.02-.39-.04-.82-.05-1.27-.12-.45-.05-.93-.12-1.41-.23-.49-.09-.99-.22-1.49-.35-.5-.14-1-.32-1.51-.48-.49-.21-.99-.4-1.46-.64-.46-.25-.93-.46-1.34-.76-.41-.28-.83-.53-1.17-.84-.34-.31-.7-.55-.96-.87-.27-.29-.51-.57-.72-.81-.2-.26-.34-.5-.47-.69-.25-.39-.39-.61-.39-.61,0,0,.18,.19,.49,.53,.16,.17,.33,.38,.56,.6,.24,.21,.51,.44,.8,.69,.28,.27,.65,.48,1,.75,.34,.28,.77,.48,1.17,.74,.4,.27,.87,.44,1.32,.68,.45,.22,.94,.39,1.41,.59,.49,.17,.97,.35,1.46,.49,.49,.13,.96,.29,1.44,.4,.47,.12,.93,.22,1.36,.31,.44,.1,.85,.16,1.24,.23,.77,.12,1.42,.23,1.87,.27,.46,.05,.72,.08,.72,.08Z"/></g><g><path class="cls-21" d="M82.44,124.06c.77-5.25,.47-19.38-1.44-25.98-.34-1.18-1.6-3.14-2.31-4.05-1.47-1.18-2.41-1.89-3.01-1.67,1.42,1.67,2.65,5.87,3.2,7.54,1.74,5.3,2.35,15.13,1.66,20.82-.16,1.34-.26,2.37-.3,3.16-7.21,1.09-12.46,15.08-13.77,21.58-1.36,6.75-.61,10.19,1.89,12.61,2.5,2.42,6.73-.61,6.73-.61l.3-1.36s-8.85,4.99-7.26-8.4,9.99-21.64,12.94-21.47c2.95,.16,6.41,5.14,7.72,9.59,1.31,4.45,1.51,11.35-.76,15.05-2.27,3.71-5.67,3.18-5.67,3.18,0,0,.3,1.51,.47,2.04,4.03-.08,7.85-2.19,8.3-12.03,.41-8.91-4.26-18.36-8.7-20.01Z"/><g class="cls-29"><path class="cls-4" d="M70.29,137.02c-4.77,10.6-3.8,21.58,1.93,20,0,0,.01,0,.02,0-2.36,.09-5.04-1.43-4.11-9.3,1.43-12.07,8.39-19.95,11.91-21.27-1.92,.55-6.19,2.65-9.76,10.58Z"/><polygon class="cls-4" points="90.19 135.81 90.19 135.81 90.19 135.82 90.19 135.81"/><path class="cls-4" d="M90.73,138.27s0-.02,0-.04c0,.01,0,.02,0,.04Z"/><path class="cls-4" d="M90,149.56c-1.71,5.14-5.29,6.2-7.21,6.4,.02,.05,.03,.1,.04,.15,4.03-.08,7.85-2.19,8.3-12.03,.09-1.91-.06-3.85-.39-5.72,.42,2.6,.7,6.85-.75,11.21Z"/></g><g class="cls-29"><path class="cls-4" d="M82.39,106.53c.01,.19,.92,14.45-1.12,17.37,.33,.04,.79,.12,1.23,.19-.02,0-.04-.02-.06-.03,.52-3.51,.55-10.99-.05-17.53Z"/></g><g><path class="cls-9" d="M84.86,155.23c0,1.25-1.01,2.26-2.26,2.26s-2.26-1.01-2.26-2.26,1.01-2.26,2.26-2.26,2.26,1.01,2.26,2.26Z"/><path class="cls-5" d="M84.62,154.22c.19,.68-.96,3.87-3.65,2.56,.41,.43,.99,.71,1.64,.71,1.25,0,2.26-1.01,2.26-2.26,0-.37-.09-.71-.24-1.01Z"/><path class="cls-30" d="M84.2,155.01c0,1-.81,1.81-1.81,1.81s-1.81-.81-1.81-1.81,.81-1.81,1.81-1.81,1.81,.81,1.81,1.81Z"/><path class="cls-30" d="M82.31,156.46c-.87,0-1.58-.71-1.58-1.58s.71-1.58,1.58-1.58,1.58,.71,1.58,1.58-.71,1.58-1.58,1.58Z"/><path class="cls-30" d="M82.24,156.09c-.75,0-1.35-.61-1.35-1.35s.61-1.35,1.35-1.35,1.35,.61,1.35,1.35-.61,1.35-1.35,1.35Z"/><path class="cls-30" d="M82.24,155.75c-.62,0-1.13-.5-1.13-1.13s.5-1.13,1.13-1.13,1.13,.5,1.13,1.13-.5,1.13-1.13,1.13Z"/><path class="cls-30" d="M82.24,155.4c-.5,0-.9-.4-.9-.9s.4-.9,.9-.9,.9,.4,.9,.9-.4,.9-.9,.9Z"/><path class="cls-30" d="M82.17,155.17c-.37,0-.67-.3-.67-.67s.3-.67,.67-.67,.67,.3,.67,.67-.3,.67-.67,.67Z"/></g><g><circle class="cls-9" cx="75.2" cy="157.02" r="2.28"/><path class="cls-5" d="M76.67,155.28c.61,1.66-.15,4.4-3.2,3.23,.42,.49,1.04,.79,1.73,.79,1.26,0,2.28-1.02,2.28-2.28,0-.7-.32-1.33-.81-1.74Z"/><path class="cls-30" d="M76.71,156.72c0,1-.81,1.81-1.81,1.81s-1.81-.81-1.81-1.81,.81-1.81,1.81-1.81,1.81,.81,1.81,1.81Z"/><path class="cls-30" d="M74.82,158.17c-.87,0-1.58-.71-1.58-1.58s.71-1.58,1.58-1.58,1.58,.71,1.58,1.58-.71,1.58-1.58,1.58Z"/><path class="cls-30" d="M74.76,157.8c-.75,0-1.35-.61-1.35-1.35s.61-1.35,1.35-1.35,1.35,.61,1.35,1.35-.61,1.35-1.35,1.35Z"/><path class="cls-30" d="M74.76,157.46c-.62,0-1.13-.5-1.13-1.13s.5-1.13,1.13-1.13,1.13,.5,1.13,1.13-.5,1.13-1.13,1.13Z"/><path class="cls-30" d="M74.76,157.11c-.5,0-.9-.4-.9-.9s.4-.9,.9-.9,.9,.4,.9,.9-.4,.9-.9,.9Z"/><path class="cls-30" d="M74.68,156.88c-.37,0-.67-.3-.67-.67s.3-.67,.67-.67,.67,.3,.67,.67-.3,.67-.67,.67Z"/></g><g class="cls-31"><path class="cls-13" d="M80.05,124.47s-.21,.04-.55,.18c-.35,.13-.82,.37-1.35,.71-.27,.16-.54,.37-.83,.58-.27,.24-.58,.46-.86,.74-.59,.52-1.17,1.13-1.71,1.78-.29,.31-.54,.64-.8,.97-.26,.32-.5,.65-.73,.98-.22,.33-.46,.63-.66,.94-.2,.3-.39,.59-.57,.86-.35,.53-.62,.99-.82,1.3-.2,.31-.32,.49-.32,.49,0,0,.09-.19,.24-.53,.17-.33,.37-.83,.68-1.39,.32-.55,.66-1.23,1.12-1.89,.22-.34,.45-.68,.71-1.01,.26-.34,.5-.69,.79-1.01,.56-.65,1.17-1.26,1.79-1.78,.29-.28,.63-.48,.93-.71,.32-.19,.61-.39,.9-.54,.57-.31,1.09-.48,1.45-.57,.37-.09,.58-.09,.58-.09Z"/></g><g class="cls-31"><path class="cls-13" d="M77.31,94.04s.96,1.63,1.91,4.3c.46,1.34,.95,2.92,1.3,4.66,.18,.87,.33,1.77,.45,2.69,.05,.46,.11,.93,.16,1.4l.1,1.41c.08,1.88,.11,3.77,.1,5.53,0,1.77-.08,3.41-.15,4.82-.07,1.41-.19,2.58-.27,3.4-.09,.82-.14,1.29-.14,1.29,0,0,.02-.47,.07-1.29,.04-.82,.06-2,.09-3.4,.03-1.41,.03-3.05,.02-4.81-.01-1.76-.06-3.63-.16-5.51l-.09-1.4c-.05-.46-.09-.92-.14-1.38-.11-.91-.25-1.81-.42-2.67-.33-1.72-.73-3.31-1.16-4.65-.42-1.34-.82-2.44-1.14-3.2-.31-.76-.53-1.18-.53-1.18Z"/></g><g class="cls-31"><path class="cls-13" d="M85.84,129.23s.29,.33,.72,.95c.21,.31,.47,.7,.74,1.15,.27,.45,.56,.98,.84,1.57,.56,1.18,1.12,2.6,1.52,4.18,.2,.79,.38,1.62,.49,2.47,.07,.42,.13,.85,.16,1.28,.03,.43,.09,.87,.09,1.3v1.31c0,.43-.03,.86-.05,1.28-.07,.85-.16,1.7-.32,2.5-.14,.8-.36,1.57-.62,2.28-.25,.71-.57,1.35-.89,1.92-.34,.56-.7,1.05-1.07,1.43-.35,.4-.73,.68-1.04,.9-.32,.2-.59,.34-.79,.4-.19,.07-.31,.05-.3,.06,0,0,.11,0,.3-.08,.19-.07,.45-.22,.75-.44,.29-.24,.64-.53,.96-.95,.34-.4,.65-.9,.97-1.45,.29-.57,.58-1.2,.8-1.9,.23-.7,.41-1.45,.55-2.24,.15-.79,.23-1.61,.29-2.45,.02-.42,.03-.85,.05-1.28l-.03-1.28c0-.43-.05-.85-.07-1.28-.02-.43-.07-.85-.14-1.26-.1-.84-.27-1.65-.45-2.43-.19-.78-.4-1.53-.63-2.23-.23-.7-.49-1.35-.74-1.94-.51-1.18-1.01-2.14-1.41-2.78-.39-.65-.65-.99-.65-.99Z"/></g></g><g class="cls-31"><path class="cls-13" d="M29,92s-.38,.24-.99,.74c-.61,.5-1.43,1.27-2.3,2.3-.43,.51-.87,1.09-1.28,1.74-.42,.64-.78,1.36-1.13,2.12-.67,1.52-1.06,3.29-1.45,5.04-.39,1.75-.66,3.53-.78,5.2-.11,1.68-.13,3.25-.07,4.6,.05,1.35,.13,2.47,.2,3.26,.08,.79,.12,1.23,.12,1.23,0,0-.07-.45-.2-1.22-.11-.78-.29-1.9-.38-3.25-.1-1.35-.17-2.94-.07-4.64,.1-1.7,.35-3.5,.73-5.27,.42-1.76,.83-3.53,1.53-5.1,.36-.78,.77-1.5,1.21-2.14,.44-.65,.9-1.22,1.36-1.73,.91-1.02,1.81-1.72,2.44-2.19,.64-.46,1.04-.68,1.04-.68Z"/></g><polygon class="cls-9" points="21.38 135.87 24.61 136.74 24.84 141.19 21.6 140.17 21.38 135.87"/><path class="cls-6" d="M22.73,139.37c.06,.16,.06,.55-.14,.67,.2,.35,.81,.81,1.19,.12-.04-.09-.2-.28-.05-.59-.3,.16-1-.21-1-.21Z"/><g class="cls-29"><path class="cls-4" d="M22.76,139.77c.24,.05,.69,.27,1,.44,0-.01,.02-.03,.03-.04-.04-.09-.2-.28-.05-.59-.3,.16-1-.21-1-.21,.03,.09,.05,.25,.02,.4Z"/></g><path class="cls-6" d="M24.47,138.64c-.05-.19-.21-.1-.21-.1,0-.03,.01-.07,.02-.1,.09-.56-.13-1.32-1.03-1.51-.67-.14-.9-.06-1.01,.27-.06,.19-.08,.53-.05,.89-.05-.04-.14-.09-.19,.03-.06,.17,.03,.2,.04,.33s.19,.2,.22,.14c0,0,0,0,0,0,.02,.11,.05,.21,.08,.31,.18,.56,1.4,.69,1.62,.52,.13-.1,.18-.22,.23-.42h0c.03,.07,.22,.08,.23-.04,.01-.12,.11-.12,.06-.31Z"/><g class="cls-29"><path class="cls-16" d="M22.22,138.39s-.07-.03-.08-.07c-.02-.04,.02-.08,.06-.08h0s-.03-.09-.08-.1c-.05-.01-.08,.03-.06,.08,0,.05,.03,.09,.04,.14,.01,.04,.02,.12,.08,.1-.06,.02-.08-.06-.09-.09-.02-.05-.04-.09-.05-.14-.03-.04,.01-.13,.08-.1,.05,.02,.08,.07,.08,.12h0s0,0,0,0c-.09,0-.06,.14,.02,.14Z"/></g><g class="cls-29"><path class="cls-1" d="M24.29,138.37c0-.06,.01-.12,.01-.18l-.06-.39c-.03-.1-.07-.21-.13-.3l-.44-.19c.34,.37,.47,.82,.4,1.34,.1,.17-.07,.57-.22,.81,.04-.01,.08-.03,.1-.04,.11-.09,.17-.2,.21-.36l.12-.67Z"/></g><path class="cls-34" d="M23.39,138.56c.09-.11,.17-.23,.39-.16,.21,.07,.28,.26,.28,.26,0,0-.31,.29-.67-.1Z"/><path class="cls-10" d="M23.56,138.4c-.04,.08-.05,.32,.15,.36s.23-.2,.14-.33c-.04-.02-.18-.08-.29-.03Z"/><path class="cls-10" d="M24.06,138.66s-.09-.23-.32-.26c-.1-.03-.21,0-.27,.06-.06,.05-.09,.1-.09,.1,0,0,.02-.05,.08-.11,.05-.06,.17-.12,.29-.09,.24,.06,.31,.31,.31,.3Z"/><path class="cls-34" d="M23.04,138.49c-.08-.15-.16-.3-.37-.32-.21-.02-.3,.14-.3,.14,0,0,.28,.41,.67,.18Z"/><path class="cls-10" d="M22.88,138.26c.04,.1,.03,.33-.17,.29-.2-.05-.21-.29-.12-.38,.04,0,.18,0,.29,.09Z"/><path class="cls-10" d="M23.04,138.49s-.08-.23-.29-.3c-.1-.03-.21-.03-.28,.02-.07,.05-.09,.1-.09,.1,0,0,.02-.05,.09-.11,.06-.06,.19-.08,.3-.04,.23,.09,.28,.34,.28,.33Z"/><path class="cls-24" d="M23.61,137.89c-.13-.04-.15,.07-.08,.12s.29,.11,.38,.18c.09,.07,.15,0,.09-.07-.06-.06-.23-.18-.39-.22Z"/><path class="cls-24" d="M22.85,137.73c.13,.02,.15,.13,.07,.15-.08,.02-.29-.02-.39,.02-.09,.03-.15-.07-.08-.11,.07-.04,.24-.08,.4-.06Z"/><path class="cls-24" d="M24.24,138.62c-.02,.16-.08,.56-.56,.55-.49-.01-1.08-.16-1.27-.41s-.21-.55-.21-.55c0,0,.02,.69,.03,.88,0,.2,.24,.32,.55,.56,.31,.25,.66,.32,.85,.21,.19-.11,.51-.16,.54-.37,.03-.21,.08-.88,.08-.88Z"/><g class="cls-29"><path class="cls-1" d="M24.17,138.96s.01,.25-.03,.5c-.04,.13-.17,.19-.24,.24-.08,.05-.14,.08-.14,.08,0,0,.05-.03,.13-.08,.07-.06,.19-.12,.22-.24,.06-.24,.05-.49,.05-.49Z"/></g><g class="cls-29"><path class="cls-1" d="M24.1,139.05s.03,.17-.03,.32c-.05,.16-.15,.29-.16,.29,0,0,.09-.14,.14-.3,.07-.15,.06-.32,.05-.32Z"/></g><g class="cls-29"><path class="cls-1" d="M23.98,139.15s.03,.16,0,.32c-.04,.16-.16,.27-.17,.26,0,.01,.13-.1,.15-.26,.05-.15,.04-.31,.03-.31Z"/></g><g class="cls-29"><path class="cls-1" d="M23.91,139.17s0,.21-.07,.4c-.04,.1-.1,.18-.16,.23-.06,.05-.11,.06-.11,.06,0,0,.05-.02,.11-.07,.06-.05,.11-.14,.14-.24,.08-.19,.09-.4,.09-.4Z"/></g><g class="cls-29"><path class="cls-1" d="M23.78,139.2s.04,.16,.01,.32c-.03,.16-.15,.27-.15,.27,0,0,.12-.12,.13-.28,.03-.15,0-.31,0-.31Z"/></g><g class="cls-29"><path class="cls-1" d="M23.67,139.19s.05,.12,.06,.26c0,.14-.09,.25-.09,.25,0,0,.08-.12,.07-.25,0-.13-.04-.26-.04-.26Z"/></g><g class="cls-29"><path class="cls-1" d="M23.63,139.25s.02,.17,0,.35c-.02,.09-.05,.17-.09,.22-.04,.05-.09,.07-.09,.07,0,0,.04-.02,.08-.07,.04-.05,.06-.14,.07-.22,.03-.17,.02-.35,.02-.35Z"/></g><g class="cls-29"><path class="cls-1" d="M23.56,139.46s0,.13-.02,.25c-.02,.06-.04,.12-.08,.15-.03,.04-.07,.04-.07,.04,0,.02,.12-.06,.13-.2,.04-.12,.04-.24,.04-.24Z"/></g><g class="cls-29"><path class="cls-1" d="M23.47,139.53s.02,.08,.02,.17c0,.09-.07,.16-.08,.15,0,0,.06-.06,.06-.15,.01-.08,0-.17,0-.17Z"/></g><g class="cls-29"><path class="cls-1" d="M23.4,139.56s.01,.09,0,.19c0,.1-.09,.17-.1,.15,0,.01,.08-.05,.08-.15,.02-.09,.01-.19,.01-.19Z"/></g><g class="cls-29"><path class="cls-1" d="M23.34,139.58s0,.07,0,.15c0,.08-.04,.15-.04,.14,.02,0,.03-.29,.03-.29Z"/></g><g class="cls-29"><path class="cls-1" d="M23.3,139.59s0,.25,0,.25c0,0,0-.25,0-.25Z"/></g><g class="cls-29"><path class="cls-1" d="M23.24,139.58s0,.3,.02,.3c0,0-.04-.07-.04-.15,0-.08,.02-.15,.02-.15Z"/></g><g class="cls-29"><path class="cls-1" d="M23.13,139.55s-.01,.09,0,.18c0,.09,.07,.16,.07,.16,0,0-.08-.06-.09-.15,0-.09,.01-.18,.01-.18Z"/></g><g class="cls-29"><path class="cls-1" d="M23.05,139.49s-.03,.1,0,.19c.01,.1,.09,.17,.09,.17,0,0-.09-.06-.11-.16-.02-.1,.02-.2,.02-.2Z"/></g><g class="cls-29"><path class="cls-1" d="M22.98,139.42s-.02,.11,0,.22c.01,.11,.1,.19,.1,.19,0,0-.09-.07-.12-.19-.02-.11,.01-.22,.01-.22Z"/></g><g class="cls-29"><path class="cls-1" d="M22.94,139.37s-.02,.08-.01,.16c0,.08,.02,.15,.02,.15,0,0-.04-.07-.04-.15,0-.08,.03-.16,.03-.16Z"/></g><g class="cls-29"><path class="cls-1" d="M22.86,139.25s-.03,.14,0,.27c.01,.14,.11,.25,.11,.25,0,0-.11-.1-.13-.24-.02-.14,.02-.28,.02-.28Z"/></g><g class="cls-29"><path class="cls-1" d="M22.78,139.2s-.03,.14,0,.27c.02,.14,.1,.25,.1,.25,0,0-.09-.11-.12-.25-.02-.14,.02-.27,.02-.27Z"/></g><g class="cls-29"><path class="cls-1" d="M22.68,139.16s-.03,.13,0,.26c.02,.13,.11,.23,.11,.23,0,0-.1-.1-.13-.23-.03-.13,.01-.26,.01-.26Z"/></g><g class="cls-29"><path class="cls-1" d="M22.63,138.97s-.06,.15-.04,.31c0,.16,.1,.29,.1,.29,0,0-.1-.13-.12-.29-.02-.16,.06-.31,.06-.31Z"/></g><g class="cls-29"><path class="cls-1" d="M22.54,138.91s-.05,.15-.03,.31c0,.16,.1,.29,.1,.29,0,0-.11-.12-.12-.29,0-.16,.05-.31,.05-.31Z"/></g><g class="cls-29"><path class="cls-1" d="M22.48,138.87s-.03,.15-.02,.29c0,.15,.07,.28,.07,.28,0,0-.09-.13-.09-.28,0-.15,.04-.29,.04-.29Z"/></g><g class="cls-29"><path class="cls-1" d="M22.39,138.79s-.01,.13,0,.26c0,.13,.05,.26,.05,.26,0,0-.06-.12-.07-.26,0-.13,.02-.27,.02-.27Z"/></g><g class="cls-29"><path class="cls-1" d="M22.33,138.7s-.04,.19,0,.38c0,.09,.04,.19,.08,.25,.04,.06,.08,.09,.08,.09,0,0-.04-.03-.08-.09-.04-.06-.08-.15-.1-.25-.02-.2,.03-.38,.03-.38Z"/></g><g class="cls-29"><path class="cls-1" d="M22.27,138.59s-.02,.15-.02,.29c-.01,.15,.03,.29,.03,.29,0,0-.05-.14-.05-.29,0-.15,.04-.29,.04-.29Z"/></g><path class="cls-25" d="M22.85,139.13s.12,.39,.37,.42c.26,.03,.35-.17,.37-.26-.31-.05-.74-.16-.74-.16Z"/><path class="cls-34" d="M23.19,139.31c.16,.03,.29,.07,.38,.06,.01-.03,.02-.06,.02-.08-.31-.05-.74-.16-.74-.16,0,0,.01,.03,.03,.08,.04,.03,.13,.06,.3,.09Z"/><g class="cls-29"><path class="cls-18" d="M22.77,139.05c-.05,.02-.16,.01-.16,.01,0,0-.01,.03,.06,.1,.08,.07,.26,.1,.36,.12,.1,.02,.28,.11,.4,.1,.11-.01,.3-.03,.37-.05,.07-.02,.13-.06,.07-.07-.07-.02-.17-.07-.17-.07h-.01s0-.01,0-.01c-.29,0-.62-.06-.87-.16,0,.01-.02,.02-.03,.03Z"/></g><path class="cls-24" d="M23.06,138.84c-.1,.01-.19,.15-.29,.18s-.13,.05-.15,.04c.02,.06,.14,.13,.29,.14,.15,.01,.29,.14,.53,.12,.25-.02,.39,.02,.42-.06-.1-.05-.18-.08-.31-.2s-.26-.25-.5-.22Z"/><g class="cls-29"><path class="cls-1" d="M22.67,139.09s.14-.02,.23-.12c.05-.04,.1-.08,.15-.11,.04-.03,.08-.02,.08-.02,0,0-.04,0-.08,.03-.04,.03-.09,.07-.14,.12-.1,.1-.24,.12-.24,.11Z"/></g><g class="cls-29"><path class="cls-1" d="M22.74,139.13s.13-.04,.22-.14c.05-.04,.11-.08,.15-.1,.05-.03,.08-.01,.08-.01,0,0-.04,0-.08,.02-.04,.02-.09,.07-.14,.11-.1,.09-.23,.14-.23,.12Z"/></g><g class="cls-29"><path class="cls-1" d="M22.85,139.17s.07-.03,.11-.09c.05-.06,.13-.08,.13-.08,0,0-.07,.03-.11,.09-.05,.06-.12,.09-.12,.08Z"/></g><g class="cls-29"><path class="cls-1" d="M22.98,139.18s.06-.07,.12-.14c.07-.06,.1-.15,.09-.15,.01,0,0,.1-.08,.16-.07,.06-.14,.12-.14,.12Z"/></g><g class="cls-29"><path class="cls-1" d="M23.11,139.24s0-.09,.04-.18c.05-.08,.08-.16,.07-.16,0,0-.02,.09-.05,.17-.05,.08-.07,.16-.06,.17Z"/></g><g class="cls-29"><path class="cls-1" d="M23.21,139.27s0-.1,.02-.19c.04-.09,.04-.18,.03-.18,.01,0,.02,.1-.01,.19-.04,.09-.05,.18-.04,.18Z"/></g><g class="cls-29"><path class="cls-1" d="M23.3,139.27s.01-.38-.02-.37c.01,0,.04,.09,.03,.18,0,.09-.01,.19-.01,.19Z"/></g><g class="cls-29"><path class="cls-1" d="M23.43,139.28s-.05-.09-.07-.2c0-.11-.05-.21-.06-.2,.01,0,.06,.09,.08,.2,0,.11,.04,.21,.05,.2Z"/></g><g class="cls-29"><path class="cls-1" d="M23.59,139.29s-.11-.07-.16-.18c-.04-.12-.1-.23-.12-.21,.01-.02,.08,.09,.13,.21,.04,.12,.13,.21,.14,.19Z"/></g><g class="cls-29"><path class="cls-1" d="M23.83,139.26s-.19,0-.31-.15c-.09-.15-.24-.25-.24-.25,0,0,.16,.09,.26,.24,.11,.15,.3,.18,.3,.16Z"/></g><path class="cls-6" d="M23.12,138.7s-.08,.07-.08,.09,.01,.08,.11,.11,.18,.02,.2-.08c.01-.1-.23-.12-.23-.12Z"/><g class="cls-29"><path class="cls-18" d="M23.34,138.84s0,.04-.05,.07c-.05,.03-.13,.02-.2-.02-.03-.02-.06-.05-.06-.09,0-.05,.05-.05,.06-.07,.04-.04,.04-.07,.04-.07,0,0,0,.04-.04,.08-.02,.02-.05,.04-.05,.07,0,.03,.03,.05,.06,.07,.05,.04,.13,.05,.18,.03,.05-.02,.06-.06,.06-.06Z"/></g><path class="cls-24" d="M23.79,137.11c.11-.05,.36,.04,.49,.25,.13,.21,.25,.53-.02,1.21,.06-.27-.19-1.05-.49-1.2-.3-.15,.02-.26,.02-.26Z"/><g class="cls-29"><path class="cls-1" d="M23.84,137.32s.07,.03,.15,.13c.08,.09,.16,.22,.22,.37,.1,.3,.07,.62,.07,.62,0,0,0-.32-.11-.6-.05-.15-.12-.29-.19-.38-.07-.09-.14-.13-.14-.13Z"/></g><g class="cls-29"><path class="cls-1" d="M23.88,137.28s.07,.03,.16,.1c.09,.07,.2,.19,.25,.35,.08,.31,.01,.62,.01,.62,0,0,.05-.32-.05-.61-.04-.15-.14-.27-.22-.35-.08-.08-.16-.11-.16-.11Z"/></g><g class="cls-29"><path class="cls-1" d="M23.91,137.18s.08,.01,.17,.09c.09,.07,.19,.19,.25,.34,.05,.15,.03,.31,.03,.42-.01,.11-.02,.19-.02,.19,0,0,0-.08,0-.19,0-.11,0-.27-.06-.41-.05-.14-.14-.27-.22-.34-.08-.08-.16-.09-.16-.09Z"/></g><path class="cls-24" d="M22.26,136.86c-.17,.09-.25,.58-.2,.88,.05,.31,.12,.47,.15,.6-.03-.38,.02-1.24,.46-1.23s-.41-.26-.41-.26Z"/><g class="cls-29"><path class="cls-1" d="M22.2,137.02s-.05,.06-.07,.17c-.02,.11-.02,.25-.01,.4,0,.29,.07,.58,.07,.58,0,0-.09-.28-.11-.58,0-.15,.02-.29,.04-.4,.02-.11,.08-.16,.08-.16Z"/></g><g class="cls-29"><path class="cls-1" d="M22.34,137.1s-.12,.17-.13,.38c-.04,.2-.04,.41-.04,.41,0,0-.02-.2,0-.41,.03-.21,.16-.38,.17-.37Z"/></g><path class="cls-24" d="M23.2,136.56c.58,.11,.79,.39,.78,.59-.01,.2-.2,.35-.62,.31-.42-.04-1.26-.19-1.24-.55,.01-.36,.68-.43,1.08-.35Z"/><g class="cls-29"><path class="cls-18" d="M23.98,137.12s0,.02,0,.03c-.01,.2-.2,.35-.62,.31-.38-.04-1.09-.16-1.22-.44,0,0,0,0,0,0,.07,.31,.84,.44,1.24,.49,.42,.04,.61-.11,.62-.31,0-.03,0-.05,0-.08,0,0,0,0,0,0Z"/></g><path class="cls-15" d="M23.26,139.43s-.19-.07-.3-.07c.06,.09,.15,.17,.26,.18,.14,.01,.23-.03,.29-.1-.1-.02-.22-.04-.24-.02Z"/><g class="cls-29"><path class="cls-1" d="M23.8,137.41s-.12,.02-.3,0c-.18,0-.42-.04-.65-.1-.23-.07-.46-.17-.57-.32-.1-.17,0-.29-.01-.29,.01,0-.08,.12,.02,.28,.11,.14,.34,.23,.57,.29,.23,.07,.47,.11,.64,.13,.18,.02,.3,0,.3,0Z"/></g><g class="cls-29"><path class="cls-1" d="M23.88,137.35s-.11-.04-.3-.04c-.18,0-.42,0-.66-.08-.23-.08-.45-.2-.55-.36-.05-.08-.01-.17,.03-.2,.04-.04,.07-.05,.07-.05,0,0-.03,.01-.06,.05-.04,.04-.07,.12-.02,.2,.1,.15,.32,.26,.55,.33,.23,.08,.47,.09,.65,.1,.18,0,.29,.05,.29,.05Z"/></g><g class="cls-29"><path class="cls-1" d="M23.94,137.29s-.04-.12-.2-.18c-.15-.07-.38-.11-.6-.09-.23,.02-.47-.06-.59-.18-.06-.06-.09-.14-.06-.19,.03-.04,.06-.05,.06-.05,0,0-.03,0-.06,.05-.03,.04,0,.12,.07,.17,.12,.11,.35,.18,.57,.15,.23-.01,.46,.04,.61,.12,.16,.07,.2,.2,.2,.2Z"/></g><g class="cls-29"><path class="cls-1" d="M23.96,137.17s-.02-.12-.15-.21c-.13-.1-.34-.16-.55-.14-.21,.01-.43,.02-.59-.03-.08-.02-.15-.08-.12-.13,.02-.04,.04-.06,.04-.06,0,0-.02,.02-.04,.06-.02,.05,.04,.11,.12,.12,.16,.04,.37,.02,.59,0,.22,0,.44,.07,.56,.18,.13,.11,.14,.22,.14,.22Z"/></g><g class="cls-29"><path class="cls-1" d="M23.89,136.96s-.04-.09-.16-.16c-.12-.07-.3-.1-.48-.09-.18,0-.36,.04-.5,.02-.07,0-.13-.05-.12-.09,0-.04,.02-.06,.02-.06,0,0-.02,.02-.02,.06,0,.04,.05,.08,.12,.08,.14,.01,.32-.04,.5-.05,.19,0,.37,.04,.49,.12,.12,.08,.15,.17,.15,.17Z"/></g><g class="cls-29"><path class="cls-18" d="M22.24,138.1c.05-.01,.22-.04,.44,0,.14,.03,.24,.07,.33,.11,.03,.01,.07,.03,.11,.04,0,0-.01-.01-.02-.01-.04-.01-.08-.03-.11-.04-.09-.04-.19-.08-.33-.11-.22-.05-.39-.02-.44,0,0,.1,.01,.42,.19,.51-.15-.11-.16-.4-.16-.49Z"/><path class="cls-18" d="M23.47,138.3s-.05,0-.08,0c-.02,0-.04,0-.05,.02-.01,.02-.02,.04-.01,.06,0,.02,0,.04,.01,.06,0,.02,0,.04,.01,.06,.01,.05,.03,.11,.04,.17,.02,.06,.06,.11,.13,.15-.06-.04-.09-.08-.11-.14-.02-.07-.03-.13-.04-.17,0-.02,0-.04-.01-.06,0-.02,0-.04-.01-.06,0-.02,0-.04,.01-.06,.01-.02,.03-.02,.05-.02,.03,0,.06,0,.08,0,.09,0,.19,0,.33,.03,.17,.04,.31,.1,.38,.14-.07-.04-.22-.12-.41-.16-.14-.03-.24-.03-.33-.03Z"/><path class="cls-18" d="M24.26,138.56v-.04s.02,0,.02,0c-.1,.07-.02,.49-.3,.46h-.02c-.08-.01-.17-.02-.26-.04h0c-.08-.02-.15-.04-.2-.07,.06,.04,.13,.07,.23,.09h0c.09,.02,.18,.03,.26,.04h.02c.25,.03,.29-.34,.29-.47,0,0,0,0,0-.01-.04,0-.05,.03-.04,.04Z"/><path class="cls-18" d="M23.22,138.31h0s-.04,.06-.07,.14c-.02,.05-.04,.11-.06,.18-.05,.12-.17,.15-.38,.11-.09-.02-.18-.05-.26-.07h-.02s-.03-.02-.04-.03c.02,.01,.04,.03,.07,.03h.02c.08,.03,.17,.06,.26,.08,.21,.04,.34,0,.38-.11,.03-.07,.05-.13,.06-.18,.02-.07,.04-.13,.06-.14,0,0-.01-.01-.02-.02Z"/></g><path class="cls-23" d="M23.7,138.95c-.21-.04-.33-.13-.37-.27-.02-.08-.04-.15-.05-.21-.02-.09-.04-.17-.06-.17h0s-.04,.06-.07,.14c-.02,.05-.04,.11-.06,.18-.05,.12-.17,.15-.38,.11-.09-.02-.18-.05-.26-.07h-.02c-.27-.09-.27-.54-.27-.62h0s0-.01,0-.01c.03-.02,.24-.06,.5,0,.14,.03,.25,.07,.34,.11,.07,.03,.15,.06,.23,.08h0c.08,.02,.15,.02,.23,.02,.09,0,.2,0,.34,.03,.26,.06,.46,.18,.49,.21h0s0,.02,0,.02c0,.09-.03,.52-.31,.5h-.02c-.08-.01-.17-.02-.26-.04h0Zm.09-.62c-.14-.03-.24-.03-.33-.03-.03,0-.05,0-.08,0-.02,0-.04,0-.05,.02-.01,.02-.02,.04-.01,.06,0,.02,0,.04,.01,.06,0,.02,0,.04,.01,.06,.01,.05,.03,.11,.04,.17,.03,.11,.13,.17,.31,.21,.08,.02,.17,.03,.26,.04h.02c.21,.02,.24-.32,.25-.42-.05-.03-.21-.13-.44-.18Zm-1.58-.25c0,.1,.01,.45,.22,.52h.02c.08,.03,.17,.06,.25,.08,.18,.04,.29,.01,.32-.08,.02-.06,.04-.11,.06-.15,0-.02,.01-.04,.02-.06,0-.03,.02-.06,.03-.08,0-.01,0-.03,0-.04,0-.01-.02-.02-.03-.03-.04-.01-.08-.03-.11-.04-.09-.04-.19-.08-.33-.11-.22-.05-.39-.02-.44,0Z"/><path class="cls-14" d="M23.87,138.58s-.04,.07-.08,.06c-.04,0-.08-.05-.08-.1,0-.04,.04-.07,.08-.06,.04,0,.08,.05,.08,.1Z"/><path class="cls-14" d="M23.88,138.54s-.02,.05-.05,.05c-.03,0-.04-.03-.04-.06s.02-.05,.05-.05c.03,0,.04,.03,.04,.06Z"/><path class="cls-14" d="M23.82,138.48s-.01,.03-.03,.03c-.01,0-.03-.02-.02-.04s.01-.03,.03-.03c.01,0,.03,.02,.02,.04Z"/><path class="cls-14" d="M22.86,138.37s-.04,.07-.08,.06c-.04,0-.08-.05-.08-.1s.04-.07,.08-.06c.04,0,.08,.05,.08,.1Z"/><path class="cls-14" d="M22.88,138.32s-.02,.05-.05,.05c-.03,0-.04-.03-.04-.06s.02-.05,.05-.05c.03,0,.04,.03,.04,.06Z"/><path class="cls-14" d="M22.82,138.27s-.01,.03-.03,.03c-.01,0-.03-.02-.02-.04,0-.02,.01-.03,.03-.03s.03,.02,.02,.04Z"/><g class="cls-29"><path class="cls-16" d="M24.25,138.82s.08,0,.08-.04c0-.04-.02-.07-.05-.08h0c0-.05,.04-.11,.1-.09,.05,0,.08,.08,.06,.12-.01,.05-.04,.08-.06,.13,0,.04-.05,.11-.1,.06,.05,.04,.08-.02,.09-.06,.02-.04,.04-.08,.05-.13,.02-.04-.01-.09-.05-.1-.04-.01-.08,.03-.08,.07h0s.06,.05,.05,.09c0,.04-.05,.06-.09,.04Z"/></g><g class="cls-29"><path class="cls-18" d="M22.34,138.05c-.15,0-.15,0-.15,.07,0,.08,.03,.4,.21,.47,0,0,0,0,0,0-.17-.09-.19-.41-.19-.51,.05-.01,.22-.04,.44,0,.01,0,.02,0,.03,0h0s-.2-.05-.36-.05Z"/></g><g class="cls-29"><path class="cls-18" d="M23.31,138.3c-.05,.08,.05,.39,.1,.46,.05,.06,.21,.13,.39,.15-.03,0-.06-.01-.1-.02-.18-.04-.28-.11-.31-.21-.02-.07-.03-.13-.04-.17,0-.02,0-.04-.01-.06,0-.02,0-.04-.01-.06,0-.02,0-.04,.01-.06,.01-.02,.03-.02,.05-.02,.03,0,.06,0,.08,0,.08,0,.17,0,.3,.03h0s-.4-.1-.45-.02Z"/></g><g class="cls-29"><path class="cls-18" d="M23.22,138.31c-.05,0-.11,.21-.15,.31-.04,.1-.19,.19-.6,.06,.08,.02,.16,.05,.24,.07,.21,.04,.34,0,.38-.11,.03-.07,.05-.13,.06-.18,.03-.08,.05-.15,.07-.14Z"/><path class="cls-18" d="M23.53,138.9s.11,.04,.17,.05h0c.09,.02,.18,.03,.26,.04h.02c.27,.03,.3-.41,.31-.49h0s-.03,.32-.13,.4c-.1,.08-.15,.11-.63,0Z"/></g><g class="cls-31"><path class="cls-13" d="M22.18,138.03s.15-.04,.3-.03c.15,.01,.3,.06,.3,.06,0,0-.15-.04-.3-.05-.15-.02-.3,.02-.3,.02Z"/></g><g class="cls-31"><path class="cls-13" d="M23.23,138.22s.22,.02,.44,.03c.22,.03,.42,.12,.42,.12,0,0-.2-.09-.42-.11-.22-.02-.44-.04-.44-.04Z"/></g><g class="cls-31"><path class="cls-13" d="M22.17,138.09s0,.14,.04,.27c.02,.14,.13,.24,.13,.23,0,0-.11-.09-.14-.23-.03-.13-.03-.27-.03-.27Z"/></g><g class="cls-31"><path class="cls-13" d="M23.27,138.38s.04,.14,.08,.29c.04,.15,.19,.22,.19,.22,0,0-.16-.06-.2-.21-.03-.15-.07-.29-.07-.29Z"/></g><g class="cls-32"><path class="cls-22" d="M25.68,137.27s0,.05,.05,.11c.04,.07,.16,.11,.3,.07,.28-.06,.73-.21,1.24-.02,.26,.08,.48,.31,.64,.54,.18,.23,.53,.19,.82,.08,.3-.09,.59-.33,.95-.26,.18,.05,.25,.24,.33,.38,.08,.15,.16,.3,.27,.43,.2,.28,.62,.28,.86,.07,.13-.1,.24-.22,.38-.33,.12-.11,.34-.19,.51-.08,.29,.21,.42,.49,.62,.71,.18,.21,.37,.48,.57,.5,.09,0,.16-.14,.28-.19,.11-.06,.22-.09,.32-.12,.21-.05,.39-.07,.54-.07,.15,0,.27,.04,.34,.09,.06,.06,.05,.12,.05,.11h-.01s0-.05-.06-.1c-.06-.05-.18-.07-.33-.06-.15,0-.33,.03-.52,.09-.1,.03-.2,.07-.3,.13-.1,.03-.14,.18-.32,.22-.32-.03-.48-.31-.67-.53-.19-.22-.36-.51-.59-.69-.12-.08-.27-.03-.39,.07-.13,.1-.24,.22-.38,.33-.28,.24-.76,.2-.96-.11-.11-.14-.19-.29-.26-.45-.08-.15-.14-.33-.3-.37-.33-.06-.62,.19-.92,.29-.28,.12-.68,.19-.91-.07-.2-.23-.37-.43-.61-.52-.48-.2-.91-.06-1.2-.02-.15,.03-.29-.02-.33-.11-.04-.07-.04-.12-.05-.12h.01Z"/></g><g class="cls-32"><path class="cls-22" d="M25.88,138.65s.1-.12,.35-.24c.13-.07,.34,0,.45,.16,.12,.15,.19,.36,.27,.57,.08,.21,.35,.21,.6,.23,.26,0,.54,0,.82-.02,.29-.01,.58-.02,.88-.02,.28,0,.66-.03,.85,.27,.17,.24,.46,.37,.72,.5,.27,.12,.55,.22,.83,.23,.28,.04,.47-.17,.66-.36,.09-.09,.18-.19,.29-.27,.1-.08,.27-.13,.39-.04,.22,.15,.28,.36,.4,.5,.11,.14,.24,.25,.35,.32,.23,.12,.36,.22,.35,.23h0s-.12-.08-.37-.19c-.12-.06-.25-.17-.38-.31-.13-.13-.22-.35-.4-.46-.18-.1-.37,.13-.55,.31-.09,.09-.19,.2-.31,.28-.12,.09-.29,.12-.43,.11-.3-.02-.59-.12-.86-.25-.26-.14-.56-.28-.73-.56-.15-.27-.51-.26-.8-.27-.3,0-.59,.03-.88,.05-.29,.02-.56,.05-.83,.05-.13,0-.26,0-.39-.03-.13-.03-.25-.13-.29-.25-.08-.22-.14-.42-.25-.56-.1-.15-.26-.2-.38-.15-.24,.09-.36,.21-.36,.2h0Z"/></g><g class="cls-32"><path class="cls-22" d="M25.67,140.27s.15-.1,.29-.38c.04-.07,.08-.14,.13-.22,.03-.04,.06-.09,.12-.11,.07-.02,.13,.03,.16,.07,.14,.18,.24,.4,.34,.65,.11,.24,.16,.54,.33,.77,.18,.23,.55,.15,.85,.06,.31-.09,.61-.27,.89-.47,.13-.09,.31-.24,.5-.12,.15,.12,.23,.27,.34,.42,.2,.28,.37,.62,.62,.82,.28,.14,.65,.02,.96-.05,.16-.05,.31-.1,.47-.14,.16-.05,.34-.03,.48-.01,.34-.02,.59,.25,.73,.46,.15,.22,.21,.49,.39,.57,.19,.07,.37-.05,.49-.12,.28-.16,.48-.11,.47-.12h0s-.19-.02-.45,.16c-.12,.08-.3,.21-.54,.14-.23-.11-.29-.38-.44-.58-.16-.19-.37-.41-.66-.4-.31-.07-.58,.06-.91,.15-.16,.04-.33,.08-.5,.1-.17,.02-.36,.04-.54-.07-.29-.26-.41-.58-.62-.87-.1-.14-.19-.31-.31-.41-.14-.1-.32,.02-.45,.11-.28,.2-.57,.4-.89,.5-.3,.1-.69,.21-.94-.06-.2-.26-.24-.55-.34-.8-.09-.24-.19-.47-.31-.63-.07-.1-.14-.06-.19,.02-.05,.08-.1,.15-.14,.21-.17,.27-.33,.36-.33,.36h0Z"/></g><g class="cls-32"><path class="cls-22" d="M21.89,141.48s.06,0,.15-.05c.1-.02,.21-.17,.43-.14,.21,.05,.37,.24,.57,.41,.2,.17,.44,.38,.76,.42,.32,.04,.67,0,1.05-.1,.21-.05,.41,.08,.57,.19,.17,.11,.32,.25,.47,.41,.14,.15,.3,.29,.49,.38,.19,.08,.42,.08,.63,.06,.22-.02,.43-.07,.63-.18,.25-.05,.44,.11,.66,.14,.1,.02,.23,.05,.32,.13,.1,.07,.15,.17,.25,.22,.18,.1,.4,.16,.61,.21,.42,.1,.84,.18,1.25,.21,.1,0,.2,.02,.28-.03,.08-.05,.17-.11,.25-.16,.17-.11,.34-.22,.55-.26,.1-.02,.24,0,.31,.11,.02,.03,.07,.11,.04,.17-.02,.07-.08,.1-.08,.12-.02-.02,.09,.07,.16,.08,.08,.03,.16,.06,.23,.09,.63,.23,1.15,.4,1.52,.5,.19,.05,.34,.08,.44,.08,.12,0,.12-.07,.12-.07h.01s0,.09-.13,.09c-.11,0-.26-.01-.45-.05-.38-.08-.91-.25-1.55-.46-.08-.03-.16-.06-.24-.09-.04-.02-.08-.03-.13-.06-.03-.02-.13-.05-.09-.17,.08-.12,.09-.1,.04-.18-.04-.06-.11-.08-.19-.06-.17,.03-.34,.14-.5,.24-.08,.05-.16,.11-.26,.17-.11,.06-.23,.04-.33,.04-.42-.03-.85-.11-1.27-.22-.21-.06-.42-.12-.63-.24-.1-.06-.16-.16-.25-.22-.08-.07-.18-.09-.29-.12-.22-.03-.43-.19-.62-.15-.19,.1-.42,.15-.64,.16-.22,.02-.44,.02-.65-.05-.2-.09-.37-.22-.52-.38-.15-.15-.3-.28-.46-.39-.17-.1-.34-.21-.51-.16-.36,.11-.74,.15-1.08,.09-.35-.06-.6-.28-.79-.46-.2-.18-.36-.36-.54-.42-.18-.04-.31,.1-.41,.12-.1,.03-.16,.04-.16,.04h0Z"/></g><g class="cls-29"><path class="cls-4" d="M25.54,115.77c2.62,2.97,2.11,6.62-.21,8.84-1.58,1.5-4.74,1.79-7.02,.3,1.06,1.04,2.5,1.67,4.1,1.67,3.24,0,5.86-2.62,5.86-5.86,0-2.08-1.09-3.91-2.72-4.95Z"/></g><g><path class="cls-9" d="M104.9,21.6l-.09-1.14c-.26-2.36,.52-4.94,2.71-7.56,1.96-2.32,3.06-4.02,3.06-5.99,0-2.23-1.4-3.72-4.15-3.76-1.57,0-3.32,.53-4.41,1.36l-1.05-2.76c1.45-1.05,3.94-1.75,6.25-1.75,5.03,0,7.3,3.1,7.3,6.43,0,2.97-1.66,5.12-3.76,7.61-1.92,2.27-2.62,4.2-2.49,6.43l.05,1.14h-3.41Zm-.96,6.12c0-1.62,1.1-2.75,2.62-2.75s2.58,1.14,2.58,2.75c0,1.53-1.01,2.71-2.62,2.71-1.53,0-2.58-1.18-2.58-2.71Z"/><path class="cls-9" d="M122.14,38.62l-.06-.8c-.19-1.66,.37-3.47,1.91-5.31,1.38-1.63,2.15-2.83,2.15-4.21,0-1.57-.98-2.61-2.92-2.64-1.11,0-2.33,.37-3.1,.95l-.74-1.94c1.02-.74,2.77-1.23,4.39-1.23,3.53,0,5.13,2.18,5.13,4.51,0,2.09-1.17,3.59-2.64,5.34-1.35,1.6-1.84,2.95-1.75,4.52l.03,.8h-2.4Zm-.68,4.3c0-1.14,.77-1.93,1.84-1.93s1.81,.8,1.81,1.93c0,1.08-.71,1.9-1.84,1.9-1.08,0-1.81-.83-1.81-1.9Z"/><path class="cls-9" d="M126.74,10.7l-.04-.52c-.12-1.09,.24-2.27,1.25-3.48,.9-1.07,1.41-1.85,1.41-2.75,0-1.03-.64-1.71-1.91-1.73-.72,0-1.53,.24-2.03,.62l-.48-1.27c.66-.48,1.81-.8,2.88-.8,2.31,0,3.36,1.43,3.36,2.96,0,1.37-.76,2.35-1.73,3.5-.88,1.05-1.21,1.93-1.15,2.96l.02,.52h-1.57Zm-.44,2.81c0-.74,.5-1.27,1.21-1.27s1.19,.52,1.19,1.27c0,.7-.46,1.25-1.21,1.25-.7,0-1.19-.54-1.19-1.25Z"/></g><g class="cls-29"><path class="cls-12" d="M45.42,72.3s.03-.05,.08-.14c.05-.09,.16-.21,.3-.35,.28-.27,.76-.58,1.37-.86,1.23-.55,2.99-.96,4.79-1.03,.9-.05,1.81,0,2.65,.15,.42,.1,.82,.2,1.18,.36,.37,.15,.7,.33,.99,.52,.58,.39,.96,.85,1.14,1.2,.11,.17,.16,.32,.19,.42,.04,.1,.06,.15,.06,.15l-.05,.02s-.03-.04-.09-.13c-.06-.08-.14-.21-.27-.35-.12-.14-.29-.3-.49-.46-.2-.16-.45-.31-.73-.46-.28-.15-.6-.28-.94-.39-.35-.11-.72-.21-1.11-.29-.78-.16-1.65-.27-2.52-.28-1.74-.01-3.49,.31-4.72,.76-.61,.23-1.09,.5-1.39,.74-.14,.12-.25,.22-.3,.31-.06,.08-.09,.13-.09,.13l-.05-.03Z"/></g></g></g></g></svg>