<?xml version="1.0" encoding="utf-8"?>
<!-- Generator: Adobe Illustrator 26.2.1, SVG Export Plug-In . SVG Version: 6.00 Build 0)  -->
<svg version="1.1" id="a" xmlns="http://www.w3.org/2000/svg" xmlns:xlink="http://www.w3.org/1999/xlink" x="0px" y="0px"
	 viewBox="0 0 671.3 180" style="enable-background:new 0 0 671.3 180;" xml:space="preserve">
<style type="text/css">
	.st0{fill:#1B8992;}
	.st1{opacity:0.25;fill:#606060;}
	.st2{fill:#FFFFFF;}
	.st3{enable-background:new    ;}
	.st4{fill:#3D6A8F;}
	.st5{fill:#294667;}
	.st6{fill:#108141;}
</style>
<g>
	<g>
		<path id="Caminho_876-4_00000163770048607416004360000002573603283447979656_" class="st0" d="M212.5,44.7v86.4l48.6,25.5
			l48.6-25.5V44.7H212.5z"/>
		<g>
			<path id="Caminho_877-4_00000073719017005088528600000001134452059836429991_" class="st1" d="M245.9,45.7l-11.1-21.2h41.5
				l11.1,21.2l-11.1,21.2h-41.5L245.9,45.7z"/>
			<path id="Caminho_877-4_00000047049300799535054470000017811263854410934922_" class="st2" d="M246.3,44.2l-10.9-20.8h40.7
				L287,44.2L276.1,65h-40.7L246.3,44.2z"/>
		</g>
	</g>
	<g class="st3">
		<path class="st2" d="M245.2,95.5c-0.4-0.2-0.8-0.4-1-0.8c-0.2-0.3-0.4-0.8-0.4-1.2h1.6c0,0.3,0.1,0.6,0.3,0.7s0.5,0.3,0.8,0.3
			c0.4,0,0.6-0.1,0.8-0.3c0.2-0.2,0.3-0.4,0.3-0.7c0-0.2-0.1-0.4-0.2-0.6c-0.1-0.1-0.3-0.3-0.5-0.3s-0.5-0.2-0.9-0.3
			c-0.5-0.1-0.9-0.3-1.2-0.4c-0.3-0.1-0.6-0.4-0.8-0.6s-0.3-0.7-0.3-1.2c0-0.5,0.1-0.9,0.3-1.2c0.2-0.3,0.5-0.6,1-0.8
			s0.9-0.3,1.4-0.3c0.8,0,1.4,0.2,1.9,0.6c0.5,0.4,0.8,0.9,0.8,1.6h-1.7c0-0.3-0.1-0.5-0.3-0.7c-0.2-0.2-0.5-0.3-0.8-0.3
			c-0.3,0-0.5,0.1-0.7,0.2c-0.2,0.2-0.3,0.4-0.3,0.7c0,0.2,0.1,0.4,0.2,0.5s0.3,0.2,0.5,0.3s0.5,0.2,0.9,0.3
			c0.5,0.1,0.9,0.3,1.2,0.4c0.3,0.1,0.6,0.4,0.8,0.7c0.2,0.3,0.3,0.7,0.3,1.2c0,0.4-0.1,0.8-0.3,1.1c-0.2,0.4-0.5,0.6-0.9,0.8
			s-0.9,0.3-1.5,0.3C246.1,95.8,245.6,95.7,245.2,95.5z"/>
		<path class="st2" d="M250.7,91c0.2-0.5,0.6-0.8,1-1.1s0.9-0.4,1.4-0.4c0.5,0,0.9,0.1,1.2,0.3c0.3,0.2,0.6,0.4,0.8,0.7v-0.9h1.6
			v6.1h-1.6v-0.9c-0.2,0.3-0.5,0.5-0.8,0.7c-0.3,0.2-0.7,0.3-1.2,0.3c-0.5,0-1-0.1-1.4-0.4s-0.8-0.6-1-1.1c-0.2-0.5-0.4-1-0.4-1.7
			C250.3,92,250.4,91.5,250.7,91z M254.9,91.7c-0.1-0.3-0.3-0.5-0.6-0.6c-0.2-0.1-0.5-0.2-0.8-0.2s-0.5,0.1-0.8,0.2
			s-0.4,0.3-0.6,0.6c-0.2,0.3-0.2,0.6-0.2,1c0,0.4,0.1,0.7,0.2,1c0.1,0.3,0.3,0.5,0.6,0.6c0.2,0.1,0.5,0.2,0.8,0.2
			c0.3,0,0.6-0.1,0.8-0.2c0.2-0.1,0.4-0.3,0.6-0.6c0.1-0.3,0.2-0.6,0.2-1S255,92,254.9,91.7z"/>
		<path class="st2" d="M263.9,89.6v6.1h-1.6V95c-0.2,0.3-0.5,0.5-0.8,0.6s-0.7,0.2-1,0.2c-0.5,0-0.9-0.1-1.3-0.3
			c-0.4-0.2-0.7-0.5-0.9-0.9s-0.3-0.9-0.3-1.4v-3.6h1.5V93c0,0.5,0.1,0.9,0.4,1.1c0.2,0.3,0.6,0.4,1,0.4c0.4,0,0.8-0.1,1-0.4
			c0.2-0.3,0.4-0.6,0.4-1.1v-3.4H263.9z M262.2,88l-2.5,1.2v-1.1l2.5-1.3V88z"/>
		<path class="st2" d="M265.4,91c0.2-0.5,0.6-0.8,1-1.1s0.9-0.4,1.4-0.4c0.4,0,0.8,0.1,1.1,0.3c0.4,0.2,0.6,0.4,0.9,0.7v-2.9h1.6
			v8.1h-1.6v-0.9c-0.2,0.3-0.5,0.5-0.8,0.7c-0.3,0.2-0.7,0.3-1.2,0.3c-0.5,0-1-0.1-1.4-0.4s-0.8-0.6-1-1.1c-0.2-0.5-0.4-1-0.4-1.7
			C265,92,265.2,91.5,265.4,91z M269.6,91.7c-0.1-0.3-0.3-0.5-0.6-0.6c-0.2-0.1-0.5-0.2-0.8-0.2s-0.5,0.1-0.8,0.2s-0.4,0.3-0.6,0.6
			c-0.2,0.3-0.2,0.6-0.2,1c0,0.4,0.1,0.7,0.2,1c0.1,0.3,0.3,0.5,0.6,0.6c0.2,0.1,0.5,0.2,0.8,0.2c0.3,0,0.6-0.1,0.8-0.2
			c0.2-0.1,0.4-0.3,0.6-0.6c0.1-0.3,0.2-0.6,0.2-1S269.8,92,269.6,91.7z"/>
		<path class="st2" d="M278.5,93.1h-4.5c0,0.4,0.2,0.8,0.5,1c0.3,0.2,0.6,0.4,1,0.4c0.6,0,1-0.2,1.2-0.7h1.7c-0.2,0.6-0.5,1.1-1,1.4
			c-0.5,0.4-1.1,0.6-1.8,0.6c-0.6,0-1.1-0.1-1.6-0.4c-0.5-0.3-0.8-0.6-1.1-1.1c-0.3-0.5-0.4-1-0.4-1.6c0-0.6,0.1-1.2,0.4-1.7
			c0.3-0.5,0.6-0.8,1.1-1.1c0.5-0.3,1-0.4,1.6-0.4c0.6,0,1.1,0.1,1.6,0.4c0.5,0.2,0.8,0.6,1.1,1.1c0.3,0.5,0.4,1,0.4,1.6
			C278.6,92.8,278.5,93,278.5,93.1z M277,92.1c0-0.4-0.2-0.7-0.4-1s-0.6-0.4-1-0.4c-0.4,0-0.7,0.1-1,0.3c-0.3,0.2-0.4,0.6-0.5,1H277
			z"/>
	</g>
</g>
<g>
	<g>
		<path id="Caminho_876-4_00000018952338229456651390000001181291917977446061_" class="st4" d="M382.3,44.7v86.4l48.6,25.5
			l48.6-25.5V44.7H382.3z"/>
		<g>
			<path id="Caminho_877-4_00000102509311848212655180000014301330486769888908_" class="st1" d="M415.7,45.7l-11.1-21.2h41.5
				l11.1,21.2l-11.1,21.2h-41.5L415.7,45.7z"/>
			<path id="Caminho_877-4_00000152223927558507900230000001630962298847624589_" class="st2" d="M416.1,44.2l-10.9-20.8h40.7
				l10.9,20.8L445.9,65h-40.7L416.1,44.2z"/>
		</g>
	</g>
	<g class="st3">
		<path class="st2" d="M405.5,88v1.9h2.6v1.2h-2.6v2h2.9v1.3H404v-7.7h4.5V88H405.5z"/>
		<path class="st2" d="M409.8,89.7c0.2-0.5,0.6-0.8,1-1.1c0.4-0.3,0.9-0.4,1.4-0.4c0.4,0,0.8,0.1,1.1,0.3c0.4,0.2,0.6,0.4,0.9,0.7
			v-2.9h1.6v8.1h-1.6v-0.9c-0.2,0.3-0.5,0.5-0.8,0.7c-0.3,0.2-0.7,0.3-1.2,0.3c-0.5,0-1-0.1-1.4-0.4c-0.4-0.3-0.8-0.6-1-1.1
			c-0.2-0.5-0.4-1-0.4-1.7C409.4,90.8,409.5,90.2,409.8,89.7z M414,90.4c-0.1-0.3-0.3-0.5-0.6-0.6c-0.2-0.1-0.5-0.2-0.8-0.2
			s-0.5,0.1-0.8,0.2s-0.4,0.3-0.6,0.6s-0.2,0.6-0.2,1c0,0.4,0.1,0.7,0.2,1s0.3,0.5,0.6,0.6c0.2,0.1,0.5,0.2,0.8,0.2
			c0.3,0,0.6-0.1,0.8-0.2c0.2-0.1,0.4-0.3,0.6-0.6c0.1-0.3,0.2-0.6,0.2-1S414.1,90.7,414,90.4z"/>
		<path class="st2" d="M423,88.3v6.1h-1.6v-0.8c-0.2,0.3-0.5,0.5-0.8,0.6s-0.7,0.2-1,0.2c-0.5,0-0.9-0.1-1.3-0.3
			c-0.4-0.2-0.7-0.5-0.9-0.9s-0.3-0.9-0.3-1.4v-3.6h1.5v3.4c0,0.5,0.1,0.9,0.4,1.1c0.2,0.3,0.6,0.4,1,0.4c0.4,0,0.8-0.1,1-0.4
			c0.2-0.3,0.4-0.6,0.4-1.1v-3.4H423z"/>
		<path class="st2" d="M424.5,89.7c0.3-0.5,0.6-0.8,1.1-1.1c0.5-0.3,1-0.4,1.6-0.4c0.8,0,1.4,0.2,1.9,0.6c0.5,0.4,0.8,0.9,1,1.6
			h-1.7c-0.1-0.3-0.2-0.5-0.4-0.6s-0.5-0.2-0.8-0.2c-0.4,0-0.8,0.2-1,0.5c-0.3,0.3-0.4,0.8-0.4,1.4c0,0.6,0.1,1,0.4,1.3
			c0.3,0.3,0.6,0.5,1,0.5c0.6,0,1-0.3,1.2-0.8h1.7c-0.2,0.7-0.5,1.2-1,1.6c-0.5,0.4-1.1,0.6-1.9,0.6c-0.6,0-1.1-0.1-1.6-0.4
			c-0.5-0.3-0.8-0.6-1.1-1.1c-0.3-0.5-0.4-1-0.4-1.7S424.3,90.2,424.5,89.7z"/>
		<path class="st2" d="M431.1,89.7c0.2-0.5,0.6-0.8,1-1.1c0.4-0.3,0.9-0.4,1.4-0.4c0.5,0,0.9,0.1,1.2,0.3c0.3,0.2,0.6,0.4,0.8,0.7
			v-0.9h1.6v6.1h-1.6v-0.9c-0.2,0.3-0.5,0.5-0.8,0.7c-0.3,0.2-0.8,0.3-1.2,0.3c-0.5,0-1-0.1-1.4-0.4c-0.4-0.3-0.8-0.6-1-1.1
			c-0.2-0.5-0.4-1-0.4-1.7C430.8,90.8,430.9,90.2,431.1,89.7z M435.3,90.4c-0.1-0.3-0.3-0.5-0.6-0.6c-0.2-0.1-0.5-0.2-0.8-0.2
			s-0.5,0.1-0.8,0.2s-0.4,0.3-0.6,0.6c-0.2,0.3-0.2,0.6-0.2,1c0,0.4,0.1,0.7,0.2,1c0.1,0.3,0.3,0.5,0.6,0.6c0.2,0.1,0.5,0.2,0.8,0.2
			c0.3,0,0.6-0.1,0.8-0.2c0.2-0.1,0.4-0.3,0.6-0.6c0.1-0.3,0.2-0.6,0.2-1S435.5,90.7,435.3,90.4z"/>
		<path class="st2" d="M442.5,92.4h1.7c-0.2,0.6-0.4,1.1-0.9,1.5c-0.4,0.4-0.9,0.6-1.6,0.7v0.4c0.4,0,0.7,0.1,1,0.3s0.4,0.5,0.4,0.9
			c0,0.4-0.1,0.7-0.4,0.9c-0.3,0.2-0.6,0.3-1,0.3h-1.6v-0.9h1.3c0.2,0,0.3,0,0.4-0.1c0.1-0.1,0.1-0.1,0.1-0.3s0-0.2-0.1-0.3
			s-0.2-0.1-0.4-0.1h-0.7v-1.3c-0.5-0.1-0.9-0.2-1.3-0.5c-0.4-0.3-0.7-0.6-0.9-1.1c-0.2-0.4-0.3-0.9-0.3-1.5c0-0.6,0.1-1.2,0.4-1.7
			c0.3-0.5,0.6-0.8,1.1-1.1c0.5-0.3,1-0.4,1.6-0.4c0.8,0,1.4,0.2,1.9,0.6c0.5,0.4,0.8,0.9,1,1.6h-1.7c-0.1-0.3-0.2-0.5-0.4-0.6
			s-0.5-0.2-0.8-0.2c-0.4,0-0.8,0.2-1,0.5c-0.3,0.3-0.4,0.8-0.4,1.4c0,0.6,0.1,1,0.4,1.3c0.3,0.3,0.6,0.5,1,0.5
			C441.9,93.2,442.3,92.9,442.5,92.4z"/>
		<path class="st2" d="M445.2,89.7c0.2-0.5,0.6-0.8,1-1.1s0.9-0.4,1.4-0.4c0.5,0,0.9,0.1,1.2,0.3c0.3,0.2,0.6,0.4,0.8,0.7v-0.9h1.6
			v6.1h-1.6v-0.9c-0.2,0.3-0.5,0.5-0.8,0.7c-0.3,0.2-0.8,0.3-1.2,0.3c-0.5,0-1-0.1-1.4-0.4s-0.8-0.6-1-1.1c-0.2-0.5-0.4-1-0.4-1.7
			C444.8,90.8,445,90.2,445.2,89.7z M446.7,86.7c0.2-0.2,0.5-0.4,0.9-0.4c0.2,0,0.3,0,0.4,0.1c0.1,0,0.2,0.1,0.4,0.2
			c0.2,0.1,0.4,0.2,0.6,0.2c0.3,0,0.4-0.2,0.5-0.5h0.8c-0.1,0.5-0.2,0.8-0.5,1.1s-0.5,0.4-0.9,0.4c-0.2,0-0.3,0-0.4-0.1
			c-0.1,0-0.2-0.1-0.4-0.2c-0.2-0.1-0.4-0.2-0.6-0.2c-0.3,0-0.4,0.2-0.5,0.5h-0.8C446.3,87.3,446.5,86.9,446.7,86.7z M449.4,90.4
			c-0.1-0.3-0.3-0.5-0.6-0.6c-0.2-0.1-0.5-0.2-0.8-0.2s-0.5,0.1-0.8,0.2s-0.4,0.3-0.6,0.6c-0.2,0.3-0.2,0.6-0.2,1
			c0,0.4,0.1,0.7,0.2,1c0.1,0.3,0.3,0.5,0.6,0.6c0.2,0.1,0.5,0.2,0.8,0.2c0.3,0,0.6-0.1,0.8-0.2c0.2-0.1,0.4-0.3,0.6-0.6
			c0.1-0.3,0.2-0.6,0.2-1S449.6,90.7,449.4,90.4z"/>
		<path class="st2" d="M453.8,94.2c-0.5-0.3-0.8-0.6-1.1-1.1c-0.3-0.5-0.4-1-0.4-1.6s0.1-1.2,0.4-1.7c0.3-0.5,0.7-0.8,1.1-1.1
			c0.5-0.3,1-0.4,1.6-0.4c0.6,0,1.1,0.1,1.6,0.4c0.5,0.3,0.9,0.6,1.1,1.1s0.4,1,0.4,1.7s-0.1,1.2-0.4,1.6c-0.3,0.5-0.7,0.8-1.1,1.1
			c-0.5,0.3-1,0.4-1.6,0.4C454.8,94.5,454.3,94.4,453.8,94.2z M456.2,93c0.2-0.1,0.4-0.3,0.6-0.6c0.1-0.3,0.2-0.6,0.2-1
			c0-0.6-0.2-1-0.5-1.3c-0.3-0.3-0.7-0.5-1.1-0.5c-0.4,0-0.8,0.2-1.1,0.5c-0.3,0.3-0.4,0.8-0.4,1.3s0.1,1,0.4,1.3
			c0.3,0.3,0.7,0.5,1.1,0.5C455.7,93.2,455.9,93.1,456.2,93z"/>
	</g>
</g>
<g>
	<g>
		<path id="Caminho_876-4_00000052820817437270630640000001796692054217113491_" class="st5" d="M32.7,44.7v86.4l58.6,25.5
			l58.6-25.5V44.7H32.7z"/>
		<g>
			<path id="Caminho_877-4_00000005985118458295592380000013325016677090324918_" class="st1" d="M76.1,45.7L65,24.5h41.5l11.1,21.2
				l-11.1,21.2H65L76.1,45.7z"/>
			<path id="Caminho_877-4_00000008149915085513581900000014191296892792340875_" class="st2" d="M76.5,44.2L65.6,23.5h40.7
				l10.9,20.8L106.3,65H65.6L76.5,44.2z"/>
		</g>
	</g>
	<g class="st3">
		<path class="st2" d="M43.6,95.2c-0.4-0.2-0.8-0.4-1-0.8c-0.2-0.3-0.4-0.8-0.4-1.2h1.6c0,0.3,0.1,0.6,0.3,0.7s0.5,0.3,0.8,0.3
			c0.4,0,0.6-0.1,0.8-0.3c0.2-0.2,0.3-0.4,0.3-0.7c0-0.2-0.1-0.4-0.2-0.6c-0.1-0.1-0.3-0.3-0.5-0.3s-0.5-0.2-0.9-0.3
			c-0.5-0.1-0.9-0.3-1.2-0.4c-0.3-0.1-0.6-0.4-0.8-0.6s-0.3-0.7-0.3-1.2c0-0.5,0.1-0.9,0.3-1.2c0.2-0.3,0.5-0.6,1-0.8
			s0.9-0.3,1.4-0.3c0.8,0,1.4,0.2,1.9,0.6c0.5,0.4,0.8,0.9,0.8,1.6h-1.7c0-0.3-0.1-0.5-0.3-0.7c-0.2-0.2-0.5-0.3-0.8-0.3
			c-0.3,0-0.5,0.1-0.7,0.2c-0.2,0.2-0.3,0.4-0.3,0.7c0,0.2,0.1,0.4,0.2,0.5s0.3,0.2,0.5,0.3s0.5,0.2,0.9,0.3
			c0.5,0.1,0.9,0.3,1.2,0.4c0.3,0.1,0.6,0.4,0.8,0.7c0.2,0.3,0.3,0.7,0.3,1.2c0,0.4-0.1,0.8-0.3,1.1c-0.2,0.4-0.5,0.6-0.9,0.8
			s-0.9,0.3-1.5,0.3C44.5,95.5,44,95.4,43.6,95.2z"/>
		<path class="st2" d="M50.2,95.1c-0.5-0.3-0.8-0.6-1.1-1.1c-0.3-0.5-0.4-1-0.4-1.6s0.1-1.2,0.4-1.7s0.7-0.8,1.1-1.1
			c0.5-0.3,1-0.4,1.6-0.4c0.6,0,1.1,0.1,1.6,0.4c0.5,0.3,0.9,0.6,1.1,1.1s0.4,1,0.4,1.7s-0.1,1.2-0.4,1.6c-0.3,0.5-0.7,0.8-1.1,1.1
			c-0.5,0.3-1,0.4-1.6,0.4C51.2,95.5,50.6,95.4,50.2,95.1z M52.6,94c0.2-0.1,0.4-0.3,0.6-0.6c0.1-0.3,0.2-0.6,0.2-1
			c0-0.6-0.2-1-0.5-1.3c-0.3-0.3-0.7-0.5-1.1-0.5S51,90.7,50.7,91c-0.3,0.3-0.4,0.8-0.4,1.3s0.1,1,0.4,1.3c0.3,0.3,0.7,0.5,1.1,0.5
			C52,94.2,52.3,94.1,52.6,94z"/>
		<path class="st2" d="M56.1,90.7c0.3-0.5,0.6-0.8,1.1-1.1c0.5-0.3,1-0.4,1.6-0.4c0.8,0,1.4,0.2,1.9,0.6c0.5,0.4,0.8,0.9,1,1.6h-1.7
			c-0.1-0.3-0.2-0.5-0.4-0.6s-0.5-0.2-0.8-0.2c-0.4,0-0.8,0.2-1,0.5c-0.3,0.3-0.4,0.8-0.4,1.4c0,0.6,0.1,1,0.4,1.3
			c0.3,0.3,0.6,0.5,1,0.5c0.6,0,1-0.3,1.2-0.8h1.7c-0.2,0.7-0.5,1.2-1,1.6c-0.5,0.4-1.1,0.6-1.9,0.6c-0.6,0-1.1-0.1-1.6-0.4
			c-0.5-0.3-0.8-0.6-1.1-1.1c-0.3-0.5-0.4-1-0.4-1.7S55.8,91.2,56.1,90.7z"/>
		<path class="st2" d="M62.8,88.3c-0.2-0.2-0.3-0.4-0.3-0.6s0.1-0.5,0.3-0.6c0.2-0.2,0.4-0.3,0.7-0.3c0.3,0,0.5,0.1,0.7,0.3
			c0.2,0.2,0.3,0.4,0.3,0.6s-0.1,0.5-0.3,0.6c-0.2,0.2-0.4,0.3-0.7,0.3C63.2,88.6,63,88.5,62.8,88.3z M64.2,89.3v6.1h-1.5v-6.1H64.2
			z"/>
		<path class="st2" d="M66.9,95.1c-0.5-0.3-0.8-0.6-1.1-1.1c-0.3-0.5-0.4-1-0.4-1.6s0.1-1.2,0.4-1.7s0.7-0.8,1.1-1.1
			c0.5-0.3,1-0.4,1.6-0.4c0.6,0,1.1,0.1,1.6,0.4c0.5,0.3,0.9,0.6,1.1,1.1s0.4,1,0.4,1.7s-0.1,1.2-0.4,1.6c-0.3,0.5-0.7,0.8-1.1,1.1
			c-0.5,0.3-1,0.4-1.6,0.4C67.9,95.5,67.3,95.4,66.9,95.1z M69.2,94c0.2-0.1,0.4-0.3,0.6-0.6c0.1-0.3,0.2-0.6,0.2-1
			c0-0.6-0.2-1-0.5-1.3c-0.3-0.3-0.7-0.5-1.1-0.5s-0.8,0.2-1.1,0.5c-0.3,0.3-0.4,0.8-0.4,1.3s0.1,1,0.4,1.3c0.3,0.3,0.7,0.5,1.1,0.5
			C68.7,94.2,69,94.1,69.2,94z"/>
		<path class="st2" d="M78.4,92.8h-4.5c0,0.4,0.2,0.8,0.5,1c0.3,0.2,0.6,0.4,1,0.4c0.6,0,1-0.2,1.2-0.7h1.7c-0.2,0.6-0.5,1.1-1,1.4
			c-0.5,0.4-1.1,0.6-1.8,0.6c-0.6,0-1.1-0.1-1.6-0.4c-0.5-0.3-0.8-0.6-1.1-1.1c-0.3-0.5-0.4-1-0.4-1.6c0-0.6,0.1-1.2,0.4-1.7
			c0.3-0.5,0.6-0.8,1.1-1.1c0.5-0.3,1-0.4,1.6-0.4c0.6,0,1.1,0.1,1.6,0.4c0.5,0.2,0.8,0.6,1.1,1.1c0.3,0.5,0.4,1,0.4,1.6
			C78.4,92.5,78.4,92.7,78.4,92.8z M76.8,91.8c0-0.4-0.2-0.7-0.4-1s-0.6-0.4-1-0.4c-0.4,0-0.7,0.1-1,0.3c-0.3,0.2-0.4,0.6-0.5,1
			H76.8z"/>
		<path class="st2" d="M79.6,90.7c0.3-0.5,0.6-0.8,1.1-1.1c0.5-0.3,1-0.4,1.6-0.4c0.8,0,1.4,0.2,1.9,0.6c0.5,0.4,0.8,0.9,1,1.6h-1.7
			c-0.1-0.3-0.2-0.5-0.4-0.6s-0.5-0.2-0.8-0.2c-0.4,0-0.8,0.2-1,0.5c-0.3,0.3-0.4,0.8-0.4,1.4c0,0.6,0.1,1,0.4,1.3
			c0.3,0.3,0.6,0.5,1,0.5c0.6,0,1-0.3,1.2-0.8h1.7c-0.2,0.7-0.5,1.2-1,1.6c-0.5,0.4-1.1,0.6-1.9,0.6c-0.6,0-1.1-0.1-1.6-0.4
			c-0.5-0.3-0.8-0.6-1.1-1.1c-0.3-0.5-0.4-1-0.4-1.7S79.3,91.2,79.6,90.7z"/>
		<path class="st2" d="M87.3,95.1c-0.5-0.3-0.8-0.6-1.1-1.1c-0.3-0.5-0.4-1-0.4-1.6s0.1-1.2,0.4-1.7s0.7-0.8,1.1-1.1
			c0.5-0.3,1-0.4,1.6-0.4c0.6,0,1.1,0.1,1.6,0.4c0.5,0.3,0.9,0.6,1.1,1.1s0.4,1,0.4,1.7s-0.1,1.2-0.4,1.6c-0.3,0.5-0.7,0.8-1.1,1.1
			c-0.5,0.3-1,0.4-1.6,0.4C88.3,95.5,87.8,95.4,87.3,95.1z M89.7,94c0.2-0.1,0.4-0.3,0.6-0.6c0.1-0.3,0.2-0.6,0.2-1
			c0-0.6-0.2-1-0.5-1.3c-0.3-0.3-0.7-0.5-1.1-0.5s-0.8,0.2-1.1,0.5c-0.3,0.3-0.4,0.8-0.4,1.3s0.1,1,0.4,1.3c0.3,0.3,0.7,0.5,1.1,0.5
			C89.2,94.2,89.4,94.1,89.7,94z"/>
		<path class="st2" d="M98.3,89.9c0.4,0.5,0.7,1.1,0.7,1.9v3.6h-1.5V92c0-0.5-0.1-0.9-0.4-1.1c-0.2-0.3-0.6-0.4-1-0.4
			c-0.4,0-0.8,0.1-1,0.4s-0.4,0.6-0.4,1.1v3.4h-1.5v-6.1h1.5v0.8c0.2-0.3,0.5-0.5,0.8-0.6s0.7-0.2,1.1-0.2
			C97.3,89.2,97.9,89.5,98.3,89.9z"/>
		<path class="st2" d="M101.6,95.1c-0.5-0.3-0.8-0.6-1.1-1.1c-0.3-0.5-0.4-1-0.4-1.6s0.1-1.2,0.4-1.7s0.7-0.8,1.1-1.1
			c0.5-0.3,1-0.4,1.6-0.4c0.6,0,1.1,0.1,1.6,0.4c0.5,0.3,0.9,0.6,1.1,1.1s0.4,1,0.4,1.7s-0.1,1.2-0.4,1.6c-0.3,0.5-0.7,0.8-1.1,1.1
			c-0.5,0.3-1,0.4-1.6,0.4C102.6,95.5,102.1,95.4,101.6,95.1z M103.3,87.9l-1.6,0.9v-1.1l1.6-0.9l1.6,0.9v1.1L103.3,87.9z M104,94
			c0.2-0.1,0.4-0.3,0.6-0.6c0.1-0.3,0.2-0.6,0.2-1c0-0.6-0.2-1-0.5-1.3c-0.3-0.3-0.7-0.5-1.1-0.5s-0.8,0.2-1.1,0.5
			c-0.3,0.3-0.4,0.8-0.4,1.3s0.1,1,0.4,1.3c0.3,0.3,0.7,0.5,1.1,0.5C103.5,94.2,103.7,94.1,104,94z"/>
		<path class="st2" d="M116.9,89.9c0.5,0.5,0.7,1.1,0.7,1.9v3.6H116V92c0-0.5-0.1-0.8-0.4-1.1c-0.2-0.3-0.6-0.4-1-0.4
			s-0.8,0.1-1,0.4c-0.2,0.3-0.4,0.6-0.4,1.1v3.4h-1.5V92c0-0.5-0.1-0.8-0.4-1.1c-0.2-0.3-0.6-0.4-1-0.4c-0.4,0-0.8,0.1-1,0.4
			c-0.2,0.3-0.4,0.6-0.4,1.1v3.4h-1.5v-6.1h1.5v0.7c0.2-0.3,0.5-0.5,0.8-0.6s0.7-0.2,1-0.2c0.5,0,0.9,0.1,1.3,0.3
			c0.4,0.2,0.7,0.5,0.9,0.9c0.2-0.4,0.5-0.6,0.9-0.8c0.4-0.2,0.8-0.3,1.2-0.3C115.8,89.2,116.4,89.5,116.9,89.9z"/>
		<path class="st2" d="M119.1,88.3c-0.2-0.2-0.3-0.4-0.3-0.6s0.1-0.5,0.3-0.6c0.2-0.2,0.4-0.3,0.7-0.3c0.3,0,0.5,0.1,0.7,0.3
			c0.2,0.2,0.3,0.4,0.3,0.6s-0.1,0.5-0.3,0.6c-0.2,0.2-0.4,0.3-0.7,0.3C119.5,88.6,119.3,88.5,119.1,88.3z M120.6,89.3v6.1H119v-6.1
			H120.6z"/>
		<path class="st2" d="M122.1,90.7c0.3-0.5,0.6-0.8,1.1-1.1c0.5-0.3,1-0.4,1.6-0.4c0.8,0,1.4,0.2,1.9,0.6c0.5,0.4,0.8,0.9,1,1.6
			h-1.7c-0.1-0.3-0.2-0.5-0.4-0.6s-0.5-0.2-0.8-0.2c-0.4,0-0.8,0.2-1,0.5c-0.3,0.3-0.4,0.8-0.4,1.4c0,0.6,0.1,1,0.4,1.3
			c0.3,0.3,0.6,0.5,1,0.5c0.6,0,1-0.3,1.2-0.8h1.7c-0.2,0.7-0.5,1.2-1,1.6c-0.5,0.4-1.1,0.6-1.9,0.6c-0.6,0-1.1-0.1-1.6-0.4
			c-0.5-0.3-0.8-0.6-1.1-1.1c-0.3-0.5-0.4-1-0.4-1.7S121.8,91.2,122.1,90.7z"/>
		<path class="st2" d="M129.8,95.1c-0.5-0.3-0.8-0.6-1.1-1.1c-0.3-0.5-0.4-1-0.4-1.6s0.1-1.2,0.4-1.7s0.7-0.8,1.1-1.1
			c0.5-0.3,1-0.4,1.6-0.4c0.6,0,1.1,0.1,1.6,0.4c0.5,0.3,0.9,0.6,1.1,1.1s0.4,1,0.4,1.7s-0.1,1.2-0.4,1.6c-0.3,0.5-0.7,0.8-1.1,1.1
			c-0.5,0.3-1,0.4-1.6,0.4C130.8,95.5,130.3,95.4,129.8,95.1z M132.2,94c0.2-0.1,0.4-0.3,0.6-0.6c0.1-0.3,0.2-0.6,0.2-1
			c0-0.6-0.2-1-0.5-1.3c-0.3-0.3-0.7-0.5-1.1-0.5s-0.8,0.2-1.1,0.5c-0.3,0.3-0.4,0.8-0.4,1.3s0.1,1,0.4,1.3c0.3,0.3,0.7,0.5,1.1,0.5
			C131.7,94.2,131.9,94.1,132.2,94z"/>
		<path class="st2" d="M136.7,95.2c-0.4-0.2-0.7-0.4-0.9-0.7c-0.2-0.3-0.4-0.6-0.4-1h1.6c0,0.2,0.1,0.4,0.3,0.6
			c0.2,0.2,0.5,0.2,0.8,0.2c0.3,0,0.5-0.1,0.7-0.2s0.2-0.3,0.2-0.5c0-0.2-0.1-0.3-0.3-0.4s-0.5-0.2-1-0.3c-0.5-0.1-0.8-0.2-1.1-0.3
			c-0.3-0.1-0.5-0.3-0.7-0.5c-0.2-0.2-0.3-0.6-0.3-1c0-0.3,0.1-0.6,0.3-0.9s0.5-0.5,0.8-0.7c0.4-0.2,0.8-0.2,1.3-0.2
			c0.7,0,1.3,0.2,1.7,0.5c0.4,0.4,0.7,0.9,0.7,1.5h-1.5c0-0.2-0.1-0.4-0.3-0.6c-0.2-0.1-0.4-0.2-0.7-0.2c-0.3,0-0.5,0.1-0.6,0.2
			c-0.2,0.1-0.2,0.2-0.2,0.4c0,0.2,0.1,0.4,0.3,0.5c0.2,0.1,0.5,0.2,1,0.3c0.4,0.1,0.8,0.2,1.1,0.3c0.3,0.1,0.5,0.3,0.7,0.5
			c0.2,0.2,0.3,0.6,0.3,1c0,0.4-0.1,0.7-0.3,0.9s-0.5,0.5-0.8,0.7c-0.4,0.2-0.8,0.2-1.3,0.2C137.5,95.5,137.1,95.4,136.7,95.2z"/>
	</g>
</g>
<g>
	<g>
		<path id="Caminho_876-4" class="st6" d="M552.1,44.7v86.4l48.6,25.5l48.6-25.5V44.7H552.1z"/>
		<g>
			<path id="Caminho_877-4_00000079487132122283811030000012135896209426196393_" class="st1" d="M585.5,45.7l-11.1-21.2h41.5
				L627,45.7l-11.1,21.2h-41.5L585.5,45.7z"/>
			<path id="Caminho_877-4" class="st2" d="M585.9,44.2L575,23.5h40.7l10.9,20.8L615.7,65H575L585.9,44.2z"/>
		</g>
	</g>
	<g class="st3">
		<path class="st2" d="M574.2,93.5h-3.1l-0.5,1.5H569l2.8-7.7h1.8l2.8,7.7h-1.6L574.2,93.5z M573.8,92.2l-1.1-3.2l-1.1,3.2H573.8z"
			/>
		<path class="st2" d="M586.8,89.4c0.5,0.5,0.7,1.1,0.7,1.9v3.6h-1.5v-3.4c0-0.5-0.1-0.8-0.4-1.1c-0.2-0.3-0.6-0.4-1-0.4
			s-0.8,0.1-1,0.4c-0.2,0.3-0.4,0.6-0.4,1.1v3.4h-1.5v-3.4c0-0.5-0.1-0.8-0.4-1.1c-0.2-0.3-0.6-0.4-1-0.4c-0.4,0-0.8,0.1-1,0.4
			c-0.2,0.3-0.4,0.6-0.4,1.1v3.4h-1.5v-6.1h1.5v0.7c0.2-0.3,0.5-0.5,0.8-0.6c0.3-0.1,0.7-0.2,1-0.2c0.5,0,0.9,0.1,1.3,0.3
			c0.4,0.2,0.7,0.5,0.9,0.9c0.2-0.4,0.5-0.6,0.9-0.8c0.4-0.2,0.8-0.3,1.2-0.3C585.7,88.7,586.3,89,586.8,89.4z"/>
		<path class="st2" d="M591.3,89c0.3-0.2,0.7-0.3,1.2-0.3c0.5,0,1,0.1,1.4,0.4c0.4,0.3,0.8,0.6,1,1.1c0.2,0.5,0.4,1,0.4,1.6
			c0,0.6-0.1,1.2-0.4,1.7c-0.2,0.5-0.6,0.9-1,1.1c-0.4,0.3-0.9,0.4-1.4,0.4c-0.5,0-0.9-0.1-1.2-0.3c-0.3-0.2-0.6-0.4-0.8-0.7v0.9
			h-1.5v-8.1h1.5v2.9C590.6,89.4,590.9,89.2,591.3,89z M593.4,90.9c-0.2-0.3-0.3-0.5-0.6-0.6c-0.2-0.1-0.5-0.2-0.8-0.2
			c-0.3,0-0.5,0.1-0.8,0.2c-0.2,0.1-0.4,0.4-0.6,0.6s-0.2,0.6-0.2,1c0,0.4,0.1,0.7,0.2,1s0.3,0.5,0.6,0.6c0.2,0.1,0.5,0.2,0.8,0.2
			c0.3,0,0.6-0.1,0.8-0.2c0.2-0.1,0.4-0.4,0.6-0.6c0.2-0.3,0.2-0.6,0.2-1C593.7,91.5,593.6,91.2,593.4,90.9z"/>
		<path class="st2" d="M596.5,87.8c-0.2-0.2-0.3-0.4-0.3-0.6s0.1-0.5,0.3-0.6c0.2-0.2,0.4-0.3,0.7-0.3s0.5,0.1,0.7,0.3
			c0.2,0.2,0.3,0.4,0.3,0.6s-0.1,0.5-0.3,0.6c-0.2,0.2-0.4,0.3-0.7,0.3S596.6,88,596.5,87.8z M597.9,88.8v6.1h-1.5v-6.1H597.9z"/>
		<path class="st2" d="M605,92.3h-4.5c0,0.4,0.2,0.8,0.5,1c0.3,0.2,0.6,0.4,1,0.4c0.6,0,1-0.2,1.2-0.7h1.7c-0.2,0.6-0.5,1.1-1,1.4
			c-0.5,0.4-1.1,0.6-1.8,0.6c-0.6,0-1.1-0.1-1.6-0.4c-0.5-0.3-0.8-0.6-1.1-1.1c-0.3-0.5-0.4-1-0.4-1.6c0-0.6,0.1-1.2,0.4-1.7
			c0.3-0.5,0.6-0.8,1.1-1.1c0.5-0.3,1-0.4,1.6-0.4c0.6,0,1.1,0.1,1.6,0.4c0.5,0.2,0.8,0.6,1.1,1.1c0.3,0.5,0.4,1,0.4,1.6
			C605.1,92,605.1,92.2,605,92.3z M603.5,91.3c0-0.4-0.2-0.7-0.4-1s-0.6-0.4-1-0.4c-0.4,0-0.7,0.1-1,0.3c-0.3,0.2-0.4,0.6-0.5,1
			H603.5z"/>
		<path class="st2" d="M611.3,89.4c0.4,0.5,0.7,1.1,0.7,1.9v3.6h-1.5v-3.4c0-0.5-0.1-0.9-0.4-1.1s-0.6-0.4-1-0.4
			c-0.4,0-0.8,0.1-1,0.4c-0.2,0.3-0.4,0.6-0.4,1.1v3.4h-1.5v-6.1h1.5v0.8c0.2-0.3,0.5-0.5,0.8-0.6c0.3-0.2,0.7-0.2,1.1-0.2
			C610.3,88.7,610.9,89,611.3,89.4z"/>
		<path class="st2" d="M615.3,90.1V93c0,0.2,0.1,0.4,0.1,0.4s0.3,0.1,0.5,0.1h0.7v1.3h-1c-1.3,0-1.9-0.6-1.9-1.9v-2.9H613v-1.3h0.7
			v-1.5h1.6v1.5h1.4v1.3H615.3z"/>
		<path class="st2" d="M617.7,90.2c0.2-0.5,0.6-0.8,1-1.1s0.9-0.4,1.4-0.4c0.5,0,0.9,0.1,1.2,0.3s0.6,0.4,0.8,0.7v-0.9h1.6v6.1h-1.6
			V94c-0.2,0.3-0.5,0.5-0.8,0.7c-0.3,0.2-0.7,0.3-1.2,0.3c-0.5,0-1-0.1-1.4-0.4s-0.8-0.6-1-1.1c-0.2-0.5-0.4-1-0.4-1.7
			C617.4,91.2,617.5,90.7,617.7,90.2z M621.9,90.9c-0.1-0.3-0.3-0.5-0.6-0.6c-0.2-0.1-0.5-0.2-0.8-0.2c-0.3,0-0.5,0.1-0.8,0.2
			s-0.4,0.3-0.6,0.6c-0.2,0.3-0.2,0.6-0.2,1c0,0.4,0.1,0.7,0.2,1c0.1,0.3,0.3,0.5,0.6,0.6c0.2,0.1,0.5,0.2,0.8,0.2
			c0.3,0,0.6-0.1,0.8-0.2c0.2-0.1,0.4-0.3,0.6-0.6c0.1-0.3,0.2-0.6,0.2-1S622.1,91.2,621.9,90.9z"/>
		<path class="st2" d="M625.3,87.8c-0.2-0.2-0.3-0.4-0.3-0.6s0.1-0.5,0.3-0.6c0.2-0.2,0.4-0.3,0.7-0.3c0.3,0,0.5,0.1,0.7,0.3
			c0.2,0.2,0.3,0.4,0.3,0.6s-0.1,0.5-0.3,0.6c-0.2,0.2-0.4,0.3-0.7,0.3C625.7,88.1,625.5,88,625.3,87.8z M626.7,88.8v6.1h-1.5v-6.1
			H626.7z"/>
		<path class="st2" d="M629.3,94.8c-0.4-0.2-0.7-0.4-0.9-0.7c-0.2-0.3-0.4-0.6-0.4-1h1.6c0,0.2,0.1,0.4,0.3,0.6
			c0.2,0.2,0.5,0.2,0.8,0.2c0.3,0,0.5-0.1,0.7-0.2s0.2-0.3,0.2-0.5c0-0.2-0.1-0.3-0.3-0.4c-0.2-0.1-0.5-0.2-1-0.3
			c-0.5-0.1-0.8-0.2-1.1-0.3c-0.3-0.1-0.5-0.3-0.7-0.5c-0.2-0.2-0.3-0.6-0.3-1c0-0.3,0.1-0.6,0.3-0.9s0.5-0.5,0.8-0.7
			s0.8-0.2,1.3-0.2c0.7,0,1.3,0.2,1.7,0.5s0.7,0.9,0.7,1.5h-1.5c0-0.2-0.1-0.4-0.3-0.6c-0.2-0.1-0.4-0.2-0.7-0.2
			c-0.3,0-0.5,0.1-0.6,0.2c-0.2,0.1-0.2,0.2-0.2,0.4c0,0.2,0.1,0.4,0.3,0.5c0.2,0.1,0.5,0.2,1,0.3c0.4,0.1,0.8,0.2,1.1,0.3
			c0.3,0.1,0.5,0.3,0.7,0.5c0.2,0.2,0.3,0.6,0.3,1c0,0.4-0.1,0.7-0.3,0.9s-0.5,0.5-0.8,0.7c-0.4,0.2-0.8,0.2-1.3,0.2
			C630.1,95,629.6,94.9,629.3,94.8z"/>
	</g>
</g>
</svg>
