<?xml version="1.0" encoding="UTF-8"?><svg id="Layer_1" xmlns="http://www.w3.org/2000/svg" viewBox="0 0 1024 1024"><defs><style>.cls-1{fill:#fff;}.cls-2{fill:#516859;}.cls-3{fill:#265d3b;}.cls-4{fill:#f7f5ff;}.cls-5{fill:#dacaf9;}.cls-6{fill:#8aa795;}</style></defs><g><ellipse class="cls-4" cx="510.615" cy="740.092" rx="481.885" ry="140.658"/><ellipse class="cls-5" cx="510.615" cy="714.044" rx="481.885" ry="140.658"/></g><g><g><polygon class="cls-6" points="770.608 278.004 533.999 325.706 533.999 396.017 770.608 349.494 770.608 278.004"/><path class="cls-2" d="M734.722,225.824h-188.506l-187.677,35.908h170.036c2.448,0,4.812,.371,7.06,1.027l199.087-36.935Z"/><path class="cls-6" d="M554.119,287.26c0,8.322-4.078,15.75-10.321,20.413l232.96-46.966c.012-.003,.023-.008,.035-.011,8.074-1.775,13.934-9.017,13.934-17.22,0-4.281-1.628-8.258-4.276-11.354-.38,.133-.761,.265-1.17,.341l-233.916,43.396c1.744,3.443,2.752,7.31,2.752,11.4Z"/><path class="cls-2" d="M902.145,397.807c-2.221-2.354-5.089-4.057-8.228-4.851l-115.7-28.904-216.699,42.607,89.842,22.445c2.956,.747,5.717,2.041,8.181,3.767l242.605-35.065Z"/><path class="cls-6" d="M889.772,447.651l-236.609,35.112v272.659h8.495c1.262,0,2.451,.292,3.529,.785l225.63-40.646c-.664-1.155-1.044-2.493-1.044-3.922V447.651Z"/><path class="cls-6" d="M670.182,453.234v8.523c-.006,1.077-.118,2.14-.282,3.192l226.325-33.91c2.51-.562,4.795-1.803,6.611-3.621,2.53-2.533,3.935-5.901,3.955-9.487v-4.801l-237.282,34.456c.432,1.841,.67,3.733,.673,5.648Z"/></g><path class="cls-3" d="M913.978,438.551c5.479-5.484,8.52-12.776,8.563-20.577v-8.534c-.011-7.256-2.475-14.404-6.94-20.123-4.464-5.725-10.797-9.857-17.848-11.637l-111.394-27.829v-75.785c11.959-5.244,20.119-17.242,20.119-30.59,0-18.418-14.993-33.403-33.42-33.403h-227.487c-.429,0-.857,.035-1.28,.105l-283.381,51.662c-3.126,.514-5.496,2.81-6.292,5.674-5.748,4.699-9.45,11.826-9.45,19.747,0,12.128,8.666,22.382,20.094,24.906v87.621l-117.327,29.337v-.004c-5.377,1.357-10.146,4.465-13.562,8.835-3.412,4.37-5.274,9.75-5.293,15.295v8.527c0,10.168,7.375,18.795,17.011,20.806v272.838h-8.5c-4.708,0-8.527,3.815-8.527,8.524,.011,4.704,3.823,8.512,8.527,8.512h16.974c.018,0,.035,.006,.053,.006h119.167c.024,0,.046-.007,.071-.007h251.545c.024,0,.046,.007,.071,.007h119.167c.018,0,.035-.005,.053-.006h16.981c.066,0,.127-.018,.192-.02,.1,.004,.195,.027,.295,.027,.366,0,.737-.026,1.111-.078l252.495-44.441c3.89-.551,6.779-3.881,6.774-7.809-.012-9.028-7.368-16.372-16.399-16.372h-.618V444.447c3.129-1.44,5.99-3.428,8.455-5.896Zm-379.979-112.845l236.609-47.702v71.49l-236.609,46.522v-70.311Zm242.794-65.01c-.012,.003-.023,.008-.035,.011l-232.96,46.966c6.242-4.663,10.321-12.092,10.321-20.413,0-4.09-1.008-7.957-2.752-11.4l233.916-43.396c.408-.076,.79-.208,1.17-.341,2.648,3.096,4.276,7.073,4.276,11.354,0,8.203-5.86,15.445-13.934,17.22Zm-230.577-34.872h188.506l-199.087,36.935c-2.248-.655-4.612-1.027-7.06-1.027h-170.036l187.677-35.908Zm15.302,180.835l216.699-42.607,115.7,28.904c3.139,.793,6.007,2.496,8.228,4.851l-242.605,35.065c-2.464-1.726-5.224-3.021-8.181-3.767l-89.842-22.445Zm103.668,349.547c-1.078-.493-2.266-.785-3.529-.785h-8.495V482.763l236.609-35.112v263.988c0,1.429,.38,2.767,1.044,3.922l-225.63,40.646Zm237.649-328.789c-1.817,1.818-4.101,3.059-6.611,3.621l-226.325,33.91c.165-1.052,.276-2.115,.282-3.192v-8.523c-.003-1.915-.241-3.807-.673-5.648l237.282-34.456v4.801c-.02,3.586-1.424,6.954-3.955,9.487Z"/><g><g><path class="cls-3" d="M663.923,476.768c3.979-3.983,6.228-9.379,6.259-15.011v-8.523c-.008-5.544-1.866-10.924-5.274-15.291-3.409-4.37-8.174-7.482-13.547-8.839l-117.361-29.32v-87.612c11.432-2.513,20.12-12.763,20.12-24.912,0-13.996-11.532-25.528-25.544-25.528H270.711c-13.996,0-25.544,11.532-25.544,25.528,0,12.128,8.666,22.382,20.094,24.906v87.621l-117.327,29.337v-.004c-5.377,1.357-10.146,4.465-13.562,8.835-3.412,4.37-5.274,9.75-5.293,15.295v8.527c0,10.168,7.375,18.795,17.011,20.806v272.838h-8.5c-4.708,0-8.527,3.815-8.527,8.524,.011,4.704,3.823,8.512,8.527,8.512h16.974c.018,0,.035,.006,.053,.006h119.167c.024,0,.046-.007,.071-.007h251.545c.024,0,.046,.007,.071,.007h119.167c.018,0,.035-.005,.053-.006h16.981c4.7-.011,8.508-3.826,8.508-8.527-.008-4.7-3.823-8.508-8.523-8.508h-8.495V482.586c4.046-.846,7.795-2.849,10.76-5.818Zm-398.664,48.835v229.818h-102.124V483.027h102.124l.003,42.549c0,.01-.003,.018-.003,.027Zm.004-59.598l-110.644-.009c-.047,0-.09,.013-.136,.014h-4.095l-.004-.004c-1.136,.034-2.242-.399-3.047-1.205-.806-.802-1.246-1.903-1.216-3.044v-8.527c0-3.637,2.398-6.707,5.936-7.593l113.207-28.301v48.668Zm100.479,282.627v-64.775h37.387v64.775h-37.387Zm151.204,6.794h-96.428v-80.263c0-4.802-3.893-8.695-8.695-8.695h-54.776c-4.802,0-8.695,3.892-8.695,8.695v80.263h-66.043v-155.124l.004-66.181h234.632v221.305Zm.025-349.007l-.002,.02v67.871c-.002,.075-.022,.145-.022,.221v42.548l-231.356,.017h-3.28v-42.556l.003-.024v-51.518l.005-110.224h234.653v93.646Zm8.736-110.636c-.078-.002-.151-.023-.229-.023l-251.687,.023v-.003c-.012,0-.023,.003-.035,.003h-3.039c-2.276,.061-4.48-.821-6.091-2.432-1.611-1.611-2.489-3.811-2.432-6.091,0-4.856,3.651-8.507,8.526-8.508h257.858c4.875,0,8.526,3.651,8.527,8.525v0c.053,2.275-.829,4.471-2.439,6.082-1.611,1.608-3.811,2.485-6.084,2.425h-2.874Zm110.417,459.639h-102.127v-229.793c0-.011,.004-.021,.004-.032v-42.556h102.124v272.38Zm17.024-293.648c.038,1.132-.399,2.231-1.197,3.033-.802,.802-1.9,1.235-3.032,1.201h-4.175c-.035,0-.068-.01-.103-.01l-110.64,.009v-48.669l113.228,28.306c3.504,.851,5.954,4.001,5.92,7.607v8.524Z"/><path class="cls-3" d="M240.538,504.747h-54.776c-4.802,0-8.695,3.892-8.695,8.695v54.342c0,4.802,3.893,8.695,8.695,8.695h54.776c4.802,0,8.695-3.892,8.695-8.695v-54.342c0-4.802-3.893-8.695-8.695-8.695Zm-8.695,54.342h-37.387v-36.952h37.387v36.952Z"/><path class="cls-3" d="M240.538,610.822h-54.776c-4.802,0-8.695,3.892-8.695,8.695v54.342c0,4.802,3.893,8.695,8.695,8.695h54.776c4.802,0,8.695-3.892,8.695-8.695v-54.342c0-4.802-3.893-8.695-8.695-8.695Zm-8.695,54.342h-37.387v-36.952h37.387v36.952Z"/><path class="cls-3" d="M559.577,576.478h54.776c4.802,0,8.695-3.892,8.695-8.695v-54.342c0-4.802-3.893-8.695-8.695-8.695h-54.776c-4.802,0-8.695,3.892-8.695,8.695v54.342c0,4.802,3.893,8.695,8.695,8.695Zm8.695-54.342h37.387v36.952h-37.387v-36.952Z"/><path class="cls-3" d="M559.577,682.553h54.776c4.802,0,8.695-3.892,8.695-8.695v-54.342c0-4.802-3.893-8.695-8.695-8.695h-54.776c-4.802,0-8.695,3.892-8.695,8.695v54.342c0,4.802,3.893,8.695,8.695,8.695Zm8.695-54.342h37.387v36.952h-37.387v-36.952Z"/></g><g><rect class="cls-6" x="365.741" y="683.857" width="37.387" height="64.775"/><path class="cls-1" d="M282.311,422.997v51.518l-.002,.024v42.556h3.28l231.356-.017v-42.548c0-.076,.02-.145,.022-.221v-67.871l.002-.02v-93.646h-234.653l-.005,110.224Z"/><path class="cls-1" d="M163.135,483.027v272.395h102.124v-229.818c0-.009,.003-.018,.003-.027l-.003-42.549h-102.124Zm86.098,190.831c0,4.802-3.893,8.695-8.695,8.695h-54.776c-4.802,0-8.695-3.892-8.695-8.695v-54.342c0-4.802,3.893-8.695,8.695-8.695h54.776c4.802,0,8.695,3.892,8.695,8.695v54.342Zm0-106.075c0,4.802-3.893,8.695-8.695,8.695h-54.776c-4.802,0-8.695-3.892-8.695-8.695v-54.342c0-4.802,3.893-8.695,8.695-8.695h54.776c4.802,0,8.695,3.892,8.695,8.695v54.342Z"/><rect class="cls-6" x="194.456" y="628.211" width="37.387" height="36.952"/><rect class="cls-6" x="194.456" y="522.137" width="37.387" height="36.952"/><polygon class="cls-1" points="537.102 287.275 537.102 287.277 537.102 287.279 537.102 287.275"/><path class="cls-1" d="M146.119,453.231v8.527c-.03,1.14,.41,2.242,1.216,3.044,.806,.806,1.911,1.239,3.047,1.205l.004,.004h4.095c.046,0,.09-.014,.136-.014l110.644,.009v-48.668l-113.207,28.301c-3.538,.886-5.936,3.956-5.936,7.593Z"/><path class="cls-1" d="M282.309,600.302v155.124h66.043v-80.263c0-4.802,3.893-8.695,8.695-8.695h54.776c4.802,0,8.695,3.892,8.695,8.695v80.263h96.428v-221.305h-234.632l-.004,66.181Z"/><rect class="cls-6" x="568.271" y="628.211" width="37.387" height="36.952"/><path class="cls-1" d="M647.227,445.643l-113.228-28.306v48.669l110.64-.009c.035,0,.068,.01,.103,.01h4.175c1.132,.034,2.231-.399,3.032-1.201,.798-.802,1.235-1.9,1.197-3.033v-8.524c.034-3.606-2.417-6.756-5.92-7.607Z"/><path class="cls-1" d="M533.999,525.597c0,.011-.003,.021-.003,.032v229.793h102.127V483.042h-102.124v42.556Zm16.883-12.155c0-4.802,3.893-8.695,8.695-8.695h54.776c4.802,0,8.695,3.892,8.695,8.695v54.342c0,4.802-3.893,8.695-8.695,8.695h-54.776c-4.802,0-8.695-3.892-8.695-8.695v-54.342Zm0,106.075c0-4.802,3.893-8.695,8.695-8.695h54.776c4.802,0,8.695,3.892,8.695,8.695v54.342c0,4.802-3.893,8.695-8.695,8.695h-54.776c-4.802,0-8.695-3.892-8.695-8.695v-54.342Z"/><rect class="cls-6" x="568.271" y="522.137" width="37.387" height="36.952"/><path class="cls-1" d="M537.102,287.277c-.001-4.875-3.652-8.525-8.527-8.525H270.718c-4.875,0-8.526,3.652-8.526,8.508-.057,2.28,.821,4.48,2.432,6.091,1.611,1.612,3.815,2.493,6.091,2.432h3.039c.012,0,.023-.003,.035-.003v.003l251.687-.023c.079,0,.151,.021,.229,.023h2.874c2.272,.061,4.473-.817,6.084-2.425,1.611-1.611,2.492-3.806,2.439-6.082Z"/></g></g><g><path class="cls-3" d="M360.317,610.418h5.329v5.346c0,7.373,6.093,13.456,13.474,13.456h10.659c7.373,0,13.474-6.075,13.474-13.456v-5.346h5.329c7.373,0,13.474-6.074,13.474-13.456l-.002-10.678c0-7.373-6.093-13.455-13.474-13.455h-5.329v-5.329c0-7.373-6.093-13.474-13.474-13.474l-10.657,.002c-7.373,0-13.474,6.093-13.474,13.474v5.329h-5.329c-7.373,0-13.456,6.074-13.456,13.455v10.675c0,7.373,6.074,13.456,13.456,13.456Zm-4.058-24.125c0-2.346,1.723-4.068,4.06-4.068h10.036v.002c2.589-.011,4.685-2.109,4.689-4.7v-10.027c0-2.335,1.742-4.077,4.085-4.077l-.009,.002h10.659c2.335,0,4.077,1.741,4.077,4.085v10.017c0,2.598,2.102,4.704,4.698,4.708h10.027c2.335,0,4.077,1.714,4.077,4.049v10.677c.029,1.091-.39,2.147-1.164,2.919-.772,.77-1.83,1.19-2.921,1.158h-10.019c-2.589,0-4.694,2.09-4.708,4.679v10.038c.034,1.089-.384,2.142-1.154,2.912-.77,.77-1.825,1.187-2.912,1.156h-10.659c-1.089,.034-2.142-.382-2.914-1.15-.772-.768-1.192-1.821-1.162-2.91v-10.046c-.015-2.585-2.113-4.675-4.698-4.679h-10.029c-1.089,.029-2.144-.393-2.912-1.167-.768-.772-1.183-1.829-1.146-2.921v-10.659Z"/><path class="cls-6" d="M360.317,601.04h10.029c2.585,.004,4.683,2.094,4.698,4.679v10.046c-.029,1.089,.39,2.143,1.162,2.91,.772,.768,1.825,1.184,2.914,1.15h10.659c1.087,.031,2.142-.386,2.912-1.156,.77-.77,1.188-1.823,1.154-2.912v-10.038c.015-2.589,2.119-4.679,4.708-4.679h10.019c1.091,.032,2.148-.388,2.921-1.158,.774-.772,1.194-1.827,1.164-2.919v-10.677c0-2.335-1.742-4.049-4.077-4.049h-10.027c-2.595-.004-4.698-2.111-4.698-4.708v-10.017c0-2.344-1.741-4.085-4.077-4.085h-10.659l.009-.002c-2.344,0-4.085,1.742-4.085,4.077v10.027c-.004,2.591-2.1,4.689-4.689,4.7v-.002h-10.036c-2.337,0-4.06,1.723-4.06,4.068v10.659c-.038,1.091,.378,2.148,1.146,2.921,.768,.774,1.823,1.196,2.912,1.167Z"/></g><g><g><path class="cls-3" d="M377.427,327.449v34.682c0,3.959-.724,7.43-2.172,10.412s-3.54,5.267-6.276,6.855c-2.736,1.59-5.971,2.384-9.706,2.384-5.632,0-10.005-1.766-13.12-5.298-3.115-3.531-4.673-8.364-4.673-14.5v-34.535h9.256v32.812c0,4.131,.678,7.161,2.037,9.092,1.358,1.931,3.604,2.896,6.74,2.896,3.035,0,5.237-.971,6.605-2.914,1.367-1.943,2.052-4.991,2.052-9.147v-32.739h9.256Z"/><path class="cls-3" d="M388.152,327.449h13.63c6.211,0,10.719,1.082,13.525,3.244,2.805,2.163,4.208,5.604,4.208,10.32,0,3.202-.614,5.829-1.842,7.883-1.228,2.053-2.861,3.287-4.898,3.703v.366c2.776,.758,4.778,2.176,6.006,4.253,1.228,2.078,1.842,4.839,1.842,8.285,0,4.889-1.443,8.701-4.329,11.438-2.886,2.738-6.805,4.106-11.758,4.106h-16.386v-53.6Zm9.286,21.227h5.392c2.517,0,4.339-.476,5.467-1.43,1.128-.953,1.692-2.53,1.692-4.729,0-2.053-.614-3.525-1.842-4.418-1.228-.892-3.17-1.338-5.826-1.338h-4.883v11.915Zm0,9.019v13.968h6.051c2.556,0,4.443-.598,5.661-1.796s1.828-3.031,1.828-5.499c0-4.448-2.597-6.673-7.789-6.673h-5.752Z"/><path class="cls-3" d="M455.222,366.164c0,4.839-1.423,8.652-4.269,11.438-2.845,2.786-6.805,4.18-11.877,4.18-4.673,0-8.807-1.075-12.401-3.227v-10.558c2.955,1.613,5.457,2.749,7.504,3.409,2.047,.66,3.919,.99,5.616,.99,2.037,0,3.6-.477,4.688-1.43,1.088-.953,1.633-2.371,1.633-4.253,0-1.05-.24-1.985-.719-2.804-.479-.819-1.183-1.607-2.112-2.365s-2.821-1.967-5.676-3.63c-2.677-1.539-4.683-3.018-6.021-4.436s-2.407-3.067-3.205-4.949c-.799-1.882-1.198-4.082-1.198-6.599,0-4.742,1.313-8.469,3.939-11.182,2.626-2.713,6.255-4.069,10.889-4.069,2.276,0,4.449,.329,6.515,.99s4.228,1.589,6.485,2.786l-2.996,8.836c-2.337-1.173-4.269-1.992-5.796-2.457-1.528-.464-3.031-.696-4.509-.696-1.758,0-3.105,.501-4.044,1.503s-1.408,2.31-1.408,3.923c0,1.002,.19,1.876,.569,2.621,.379,.746,.983,1.467,1.812,2.163,.829,.696,2.791,1.949,5.886,3.758,4.094,2.396,6.9,4.797,8.418,7.204,1.517,2.408,2.276,5.359,2.276,8.854Z"/></g><g><path class="cls-3" d="M310.104,443.829l-.992-5.771h-6.545l-1.019,5.771h-5.979l6.572-30.918h7.261l6.655,30.918h-5.952Zm-2.121-12.595l-.868-5.055c-.202-1.123-.448-2.576-.737-4.36-.289-1.783-.48-3.061-.572-3.833-.083,.716-.246,1.895-.489,3.538s-.783,4.879-1.619,9.71h4.285Z"/><path class="cls-3" d="M327.01,443.829l-4.12-22.178h-.124c.193,3.777,.289,6.712,.289,8.803v13.374h-4.822v-30.792h7.247l4.202,21.862h.11l4.12-21.862h7.26v30.792h-5.001v-13.5c0-.702,.007-1.481,.021-2.338,.014-.856,.076-2.955,.186-6.297h-.124l-4.064,22.136h-5.18Z"/><path class="cls-3" d="M358.684,434.478c0,1.909-.317,3.605-.951,5.086-.634,1.482-1.548,2.633-2.742,3.454-1.194,.821-2.595,1.232-4.202,1.232-1.341,0-2.466-.144-3.376-.432-.909-.288-1.855-.79-2.838-1.506v-7.414c1.038,.814,2.117,1.45,3.238,1.906s2.15,.685,3.086,.685c.808,0,1.401-.214,1.777-.643,.376-.428,.565-.979,.565-1.653,0-.421-.076-.79-.227-1.106-.152-.316-.395-.635-.73-.958-.336-.323-1.229-.983-2.68-1.98-1.314-.913-2.298-1.797-2.955-2.654-.657-.856-1.143-1.839-1.46-2.948-.317-1.109-.475-2.422-.475-3.939,0-2.836,.675-5.048,2.025-6.634,1.35-1.587,3.205-2.38,5.566-2.38,2.085,0,4.212,.737,6.379,2.211l-1.668,6.424c-1.883-1.32-3.509-1.98-4.877-1.98-.707,0-1.222,.189-1.543,.569-.322,.379-.483,.85-.483,1.411,0,.604,.205,1.144,.613,1.622,.409,.478,1.518,1.348,3.328,2.612,1.736,1.193,2.942,2.474,3.616,3.844,.675,1.369,1.013,3.093,1.013,5.171Z"/><path class="cls-3" d="M370.684,443.829h-5.442v-23.989h-4.919v-6.803h15.266v6.803h-4.905v23.989Z"/><path class="cls-3" d="M390.428,443.829h-11.959v-30.792h11.959v6.677h-6.517v4.844h6.035v6.677h-6.035v5.813h6.517v6.782Z"/><path class="cls-3" d="M399.397,432.624v11.205h-5.442v-30.792h6.599c5.474,0,8.212,3.033,8.212,9.098,0,3.567-1.139,6.326-3.417,8.277l5.869,13.416h-6.173l-4.271-11.205h-1.378Zm0-6.255h1.02c1.901,0,2.852-1.285,2.852-3.855,0-2.12-.932-3.18-2.797-3.18h-1.075v7.035Z"/><path class="cls-3" d="M430.148,427.78c0,5.139-.925,9.098-2.776,11.879-1.851,2.78-4.453,4.17-7.805,4.17h-6.517v-30.792h6.972c3.233,0,5.729,1.264,7.488,3.791,1.759,2.527,2.638,6.178,2.638,10.952Zm-5.649,.295c0-2.822-.365-4.914-1.096-6.276-.73-1.362-1.839-2.043-3.327-2.043h-1.584v17.25h1.213c1.653,0,2.865-.734,3.637-2.201s1.157-3.71,1.157-6.729Z"/><path class="cls-3" d="M446.117,443.829l-.992-5.771h-6.545l-1.019,5.771h-5.979l6.572-30.918h7.261l6.655,30.918h-5.952Zm-1.777-33.214c-.413,0-.829-.105-1.247-.316s-.829-.442-1.233-.695c-.404-.253-.797-.484-1.178-.695s-.742-.316-1.081-.316c-.496,0-.827,.688-.992,2.064h-2.48c.101-2.457,.432-4.272,.992-5.445,.56-1.172,1.387-1.758,2.48-1.758,.349,0,.721,.105,1.116,.316,.395,.211,.794,.442,1.198,.695,.404,.253,.804,.484,1.199,.695s.767,.316,1.116,.316c.266,0,.478-.176,.634-.527s.276-.864,.358-1.538h2.507c-.101,2.345-.441,4.131-1.019,5.36-.579,1.229-1.369,1.843-2.37,1.843Zm-.344,20.619l-.868-5.055c-.202-1.123-.448-2.576-.737-4.36-.289-1.783-.48-3.061-.572-3.833-.083,.716-.246,1.895-.489,3.538s-.783,4.879-1.619,9.71h4.285Z"/><path class="cls-3" d="M478.673,427.78c0,5.139-.925,9.098-2.776,11.879-1.851,2.78-4.453,4.17-7.805,4.17h-6.517v-30.792h6.972c3.233,0,5.729,1.264,7.488,3.791,1.759,2.527,2.638,6.178,2.638,10.952Zm-5.649,.295c0-2.822-.365-4.914-1.096-6.276-.73-1.362-1.839-2.043-3.327-2.043h-1.584v17.25h1.213c1.653,0,2.865-.734,3.637-2.201s1.157-3.71,1.157-6.729Z"/><path class="cls-3" d="M501.13,428.391c0,5.182-.831,9.12-2.494,11.816s-4.097,4.044-7.303,4.044c-3.159,0-5.582-1.355-7.267-4.065-1.685-2.71-2.528-6.656-2.528-11.837,0-5.125,.838-9.039,2.514-11.742,1.676-2.703,4.113-4.054,7.308-4.054s5.636,1.341,7.289,4.023c1.653,2.682,2.48,6.621,2.48,11.816Zm-13.86,0c0,5.954,1.355,8.93,4.063,8.93,1.378,0,2.401-.723,3.067-2.169,.664-1.446,.999-3.7,.999-6.761s-.338-5.346-1.012-6.813c-.676-1.467-1.683-2.201-3.026-2.201-2.727,0-4.091,3.005-4.091,9.014Z"/><path class="cls-3" d="M387.397,486.239c0,1.909-.317,3.605-.951,5.086-.634,1.482-1.548,2.633-2.742,3.454-1.194,.821-2.595,1.232-4.202,1.232-1.341,0-2.466-.144-3.376-.432-.909-.288-1.855-.79-2.838-1.506v-7.414c1.038,.814,2.117,1.45,3.238,1.906s2.15,.685,3.086,.685c.808,0,1.401-.214,1.777-.643,.376-.428,.565-.979,.565-1.653,0-.421-.076-.79-.227-1.106-.152-.316-.395-.635-.73-.958-.336-.323-1.229-.983-2.68-1.98-1.314-.913-2.298-1.797-2.955-2.654-.657-.856-1.143-1.839-1.46-2.948-.317-1.109-.475-2.422-.475-3.939,0-2.836,.675-5.048,2.025-6.634,1.35-1.587,3.205-2.38,5.566-2.38,2.085,0,4.212,.737,6.379,2.211l-1.668,6.424c-1.883-1.32-3.509-1.98-4.877-1.98-.707,0-1.222,.189-1.543,.569-.322,.379-.483,.85-.483,1.411,0,.604,.205,1.144,.613,1.622,.409,.478,1.518,1.348,3.328,2.612,1.736,1.193,2.942,2.474,3.616,3.844,.675,1.369,1.013,3.093,1.013,5.171Z"/><path class="cls-3" d="M407.636,464.798v18.534c0,4.03-.747,7.151-2.239,9.362s-3.644,3.317-6.455,3.317c-2.747,0-4.857-1.074-6.331-3.222-1.474-2.149-2.211-5.237-2.211-9.267v-18.724h5.47v18.071c0,2.177,.266,3.756,.799,4.739,.533,.983,1.318,1.474,2.356,1.474,1.111,0,1.917-.488,2.418-1.464,.5-.976,.751-2.573,.751-4.791v-18.029h5.442Z"/><path class="cls-3" d="M411.866,495.59v-30.792h5.442v24.074h7.757v6.719h-13.199Z"/></g></g></g></svg>