<?xml version="1.0" encoding="UTF-8"?><svg id="a" xmlns="http://www.w3.org/2000/svg" viewBox="0 0 242.95 94.16"><defs><style>.u{fill:#fff;}.v{fill:#de8d3a;}.w{fill:#ffa800;}.x{fill:#231f20;}</style></defs><path id="b" class="v" d="M226.84,9.68H17.98c-7.77-.02-14.09,6.24-14.15,14v52.95c.07,7.76,6.39,14.02,14.15,14H226.84c7.77,.02,14.09-6.24,14.15-14V23.68c-.07-7.76-6.39-14.02-14.15-14Z"/><path id="c" class="w" d="M224.56,6H17.89c-7.69-.05-13.98,6.13-14.07,13.82v52.27c.09,7.69,6.38,13.87,14.07,13.82H224.56c7.69,.05,13.98-6.13,14.07-13.82V19.82c-.09-7.69-6.38-13.87-14.07-13.82Z"/><g id="d"><path id="e" class="x" d="M164.56,4.21h-49.8c-1.16,0-2.1-.94-2.1-2.1S113.6,0,114.76,0h49.8c1.16,0,2.1,.94,2.1,2.1s-.94,2.1-2.1,2.1Z"/><g id="f"><path id="g" class="x" d="M226.63,94.16H112.36c-1.16,0-2.1-.94-2.1-2.1,0-1.16,.94-2.1,2.1-2.1h114.27c6.68,0,12.11-6.04,12.11-13.45V17.66c0-7.42-5.43-13.45-12.11-13.45h-52.95c-1.16,0-2.1-.94-2.1-2.1S172.52,0,173.68,0h52.95c9,0,16.32,7.92,16.32,17.66v58.84c0,9.74-7.32,17.66-16.32,17.66h0Z"/><path id="h" class="x" d="M52.48,94.16H16.32C7.32,94.16,0,86.24,0,76.5V17.66C0,7.92,7.32,0,16.32,0H97.48c1.16,0,2.1,.94,2.1,2.1s-.94,2.1-2.1,2.1H16.32c-6.68,0-12.11,6.04-12.11,13.45v58.84c0,7.42,5.43,13.45,12.11,13.45H52.48c1.16,0,2.1,.94,2.1,2.1,0,1.16-.94,2.1-2.1,2.1v.02Z"/><path id="i" class="x" d="M112.36,94.16h-42.16c-1.16,0-2.1-.94-2.1-2.1,0-1.16,.94-2.1,2.1-2.1h42.16c1.16,0,2.1,.94,2.1,2.1s-.94,2.1-2.1,2.1h0Z"/></g></g><g id="j"><circle id="k" class="u" cx="43.95" cy="44.81" r="27.35"/><path id="l" class="w" d="M34.11,30.25v29.13c0,1.55,1.26,2.8,2.8,2.8,.55,0,1.09-.16,1.55-.47l21.78-14.56c1.28-.85,1.63-2.59,.78-3.87-.21-.31-.47-.57-.78-.78l-21.78-14.57c-1.29-.86-3.03-.51-3.88,.78-.3,.46-.47,1-.47,1.55h0Z"/></g><g id="m"><path id="n" class="u" d="M81.94,33.7h6.87v24.72h-6.87v-24.72Z"/><path id="o" class="u" d="M117.39,33.7v24.72h-6.87l-9.15-13.82v13.82h-6.87v-24.72h6.87l9.15,13.99v-13.99h6.87Z"/><path id="p" class="u" d="M123.06,33.7h6.87v24.72h-6.87v-24.72Z"/><path id="q" class="u" d="M147.08,33.46c6.21,0,10.62,3.58,11.85,9.19h-7.4c-.79-1.8-2.6-2.94-4.56-2.88-3.16,0-5.22,2.45-5.22,6.24s2.07,6.28,5.22,6.28c1.96,.05,3.76-1.08,4.56-2.88h7.4c-1.23,5.61-5.65,9.19-11.85,9.19-7.43,0-12.31-5.19-12.31-12.59s4.87-12.55,12.31-12.55Z"/><path id="r" class="u" d="M163.94,33.7h6.87v24.72h-6.87v-24.72Z"/><path id="s" class="u" d="M192.13,54.39h-8.77l-1.33,4.03h-7.22l9.01-24.72h7.92l8.98,24.72h-7.26l-1.33-4.03h0Zm-4.38-13.25l-2.63,8h5.29l-2.67-8h.01Z"/><path id="t" class="u" d="M215.55,33.7c6.14,0,9.22,3.51,9.22,7.92,.09,3.36-2.17,6.34-5.43,7.15l5.58,9.64h-7.68l-4.91-9.12h-.74v9.12h-6.87v-24.72h10.83Zm-.56,5.76h-3.4v5.15h3.4c1.86,0,2.81-.91,2.81-2.59,0-1.54-.95-2.56-2.81-2.56Z"/></g></svg>