<?xml version="1.0" encoding="utf-8"?>
<!-- Generator: Adobe Illustrator 26.3.1, SVG Export Plug-In . SVG Version: 6.00 Build 0)  -->
<svg version="1.1" id="Camada_1" xmlns="http://www.w3.org/2000/svg" xmlns:xlink="http://www.w3.org/1999/xlink" x="0px" y="0px"
	 viewBox="0 0 300 244" style="enable-background:new 0 0 300 244;" xml:space="preserve">
<style type="text/css">
	.st0{fill:#29696D;}
	.st1{fill:#FFFFFF;}
</style>
<g>
	<path d="M36.7,96.9c-2.7,0-4.9-2.1-4.9-5s2.2-5,4.9-5c2.7,0,4.9,2.1,4.9,5S39.5,96.9,36.7,96.9z M36.7,95.8c2.1,0,3.6-1.5,3.6-3.9
		S38.8,88,36.7,88c-2.1,0-3.6,1.5-3.6,3.9S34.7,95.8,36.7,95.8z"/>
	<path d="M51.2,89c2.1,0,3.6,1.5,3.6,3.9s-1.6,4-3.6,4c-1.4,0-2.4-0.8-2.9-1.5v5.1H47V89.2h1.3v1.4C48.8,89.8,49.8,89,51.2,89
		L51.2,89z M50.9,90.1c-1.4,0-2.6,1.1-2.6,2.8s1.2,2.9,2.6,2.9c1.4,0,2.6-1,2.6-2.8S52.3,90.1,50.9,90.1z"/>
	<path d="M57.8,96.8h-1.3v-7.7h1.3v1.2c0.4-0.8,1.3-1.4,2.5-1.4v1.3H60c-1.2,0-2.1,0.6-2.1,2.3L57.8,96.8L57.8,96.8z"/>
	<path d="M61.5,87c0-0.5,0.4-0.9,0.9-0.9s0.8,0.4,0.8,0.9s-0.4,0.9-0.8,0.9C61.9,87.9,61.5,87.5,61.5,87z M61.7,89.2H63v7.7h-1.3
		V89.2z"/>
	<path d="M76.2,92.5c0-1.6-0.8-2.4-2.1-2.4s-2.2,0.8-2.2,2.5v4.2h-1.3v-4.3c0-1.6-0.8-2.4-2.1-2.4s-2.2,0.8-2.2,2.5v4.2H65v-7.7h1.3
		v1.1c0.5-0.8,1.4-1.2,2.4-1.2c1.3,0,2.3,0.6,2.8,1.7c0.4-1.1,1.5-1.7,2.7-1.7c1.8,0,3.1,1.1,3.1,3.3v4.5h-1.3L76.2,92.5L76.2,92.5z
		"/>
	<path d="M82.9,97c-2.2,0-3.8-1.5-3.8-4s1.6-3.9,3.8-3.9s3.7,1.6,3.7,3.7c0,0.3,0,0.5,0,0.8h-6.1c0.1,1.6,1.2,2.4,2.5,2.4
		c1.2,0,1.9-0.6,2.2-1.4h1.4C86,95.9,84.8,97,82.9,97L82.9,97z M80.4,92.4h4.8c0-1.5-1.1-2.3-2.4-2.3C81.6,90.1,80.6,90.9,80.4,92.4
		L80.4,92.4z"/>
	<path d="M88,87c0-0.5,0.4-0.9,0.9-0.9s0.8,0.4,0.8,0.9s-0.4,0.9-0.8,0.9C88.4,87.9,88,87.5,88,87z M88.3,89.2h1.2v7.7h-1.3v-7.7
		H88.3z"/>
	<path d="M93,96.8h-1.3v-7.7H93v1.2c0.4-0.8,1.3-1.4,2.5-1.4v1.3h-0.3c-1.2,0-2.1,0.6-2.1,2.3C93,92.7,93,96.8,93,96.8z"/>
	<path d="M100.3,97c-2.2,0-3.8-1.5-3.8-4s1.7-3.9,3.9-3.9s3.9,1.5,3.9,3.9S102.5,97,100.3,97z M100.3,95.8c1.3,0,2.6-0.9,2.6-2.9
		s-1.3-2.8-2.6-2.8s-2.6,0.9-2.6,2.8S98.9,95.8,100.3,95.8z"/>
	<path d="M109.4,87c0-0.5,0.4-0.9,0.9-0.9s0.8,0.4,0.8,0.9s-0.4,0.9-0.8,0.9C109.8,87.9,109.4,87.5,109.4,87z M109.6,89.2h1.3v7.7
		h-1.3V89.2z"/>
	<path d="M118.7,92.5c0-1.6-0.8-2.4-2.1-2.4s-2.2,0.8-2.2,2.5v4.2h-1.3v-7.7h1.3v1.1c0.5-0.8,1.4-1.2,2.5-1.2c1.8,0,3.1,1.1,3.1,3.3
		v4.5h-1.3V92.5L118.7,92.5z"/>
	<path d="M125.2,89c1.2,0,2.3,0.6,2.8,1.5v-4.1h1.3v10.4H128v-1.4c-0.5,0.8-1.5,1.6-2.9,1.6c-2.1,0-3.6-1.6-3.6-4S123.1,89,125.2,89
		L125.2,89z M125.4,90.1c-1.4,0-2.6,1-2.6,2.8s1.2,2.9,2.6,2.9s2.6-1.1,2.6-2.9S126.8,90.1,125.4,90.1z"/>
	<path d="M131.3,87c0-0.5,0.4-0.9,0.9-0.9c0.5,0,0.8,0.4,0.8,0.9s-0.4,0.9-0.8,0.9C131.7,87.9,131.3,87.5,131.3,87z M131.5,89.2h1.3
		v7.7h-1.3V89.2z"/>
	<path d="M138.2,89c1.9,0,3.1,1,3.5,2.6h-1.4c-0.3-0.9-1-1.5-2.2-1.5c-1.4,0-2.4,1-2.4,2.9s1,2.9,2.4,2.9c1.1,0,1.9-0.6,2.2-1.5h1.4
		c-0.4,1.5-1.6,2.6-3.5,2.6c-2.2,0-3.7-1.5-3.7-4S136,89,138.2,89z"/>
	<path d="M146.6,89c1.4,0,2.4,0.7,2.9,1.5v-1.4h1.3v7.7h-1.3v-1.4c-0.5,0.8-1.5,1.6-2.9,1.6c-2,0-3.6-1.6-3.6-4S144.5,89,146.6,89z
		 M146.8,90.1c-1.4,0-2.6,1-2.6,2.8s1.2,2.9,2.6,2.9s2.6-1.1,2.6-2.9S148.3,90.1,146.8,90.1z"/>
	<path d="M160,97c-2.2,0-3.8-1.5-3.8-4s1.7-3.9,3.9-3.9s3.9,1.5,3.9,3.9S162.2,97,160,97z M160,95.8c1.3,0,2.6-0.9,2.6-2.9
		s-1.3-2.8-2.6-2.8s-2.5,1-2.5,2.9S158.6,95.8,160,95.8L160,95.8z"/>
	<path d="M174.9,92.5c0-1.6-0.9-2.4-2.1-2.4s-2.2,0.8-2.2,2.5v4.2h-1.3v-7.7h1.3v1.1c0.5-0.8,1.4-1.2,2.5-1.2c1.8,0,3.1,1.1,3.1,3.3
		v4.5h-1.3V92.5L174.9,92.5z"/>
	<path d="M185.1,96.8h-1.3v-1.1c-0.5,0.8-1.4,1.2-2.4,1.2c-1.8,0-3.1-1.1-3.1-3.3v-4.5h1.3v4.3c0,1.6,0.9,2.3,2.1,2.3
		s2.2-0.8,2.2-2.5V89h1.3v7.8H185.1z M183.1,85.9V87l-3,1.6v-0.9L183.1,85.9L183.1,85.9z"/>
	<path d="M198.3,92.5c0-1.6-0.8-2.4-2.1-2.4s-2.2,0.8-2.2,2.5v4.2h-1.3v-4.3c0-1.6-0.8-2.4-2.1-2.4s-2.1,0.9-2.1,2.5v4.2h-1.3v-7.7
		h1.3v1.1c0.5-0.8,1.4-1.2,2.4-1.2c1.3,0,2.3,0.6,2.8,1.7c0.4-1.1,1.5-1.7,2.7-1.7c1.8,0,3.1,1.1,3.1,3.3v4.5h-1.3L198.3,92.5
		L198.3,92.5z"/>
	<path d="M205,97c-2.2,0-3.8-1.5-3.8-4s1.6-3.9,3.8-3.9s3.7,1.6,3.7,3.7c0,0.3,0,0.5,0,0.8h-6.2c0.1,1.6,1.2,2.4,2.5,2.4
		c1.1,0,1.9-0.6,2.2-1.4h1.4C208.1,95.9,206.9,97,205,97z M202.5,92.4h4.9c0-1.5-1.1-2.3-2.4-2.3C203.7,90.1,202.7,90.9,202.5,92.4
		L202.5,92.4z"/>
	<path d="M211.6,96.8h-1.3v-7.7h1.3v1.2c0.4-0.8,1.3-1.4,2.5-1.4v1.3h-0.3c-1.2,0-2.1,0.6-2.1,2.3L211.6,96.8L211.6,96.8z"/>
	<path d="M218.9,97c-2.2,0-3.8-1.5-3.8-4s1.7-3.9,3.9-3.9s3.9,1.5,3.9,3.9S221.1,97,218.9,97z M218.9,95.8c1.3,0,2.6-0.9,2.6-2.9
		s-1.3-2.8-2.6-2.8s-2.6,0.9-2.6,2.8S217.6,95.8,218.9,95.8L218.9,95.8z"/>
	<path d="M231.4,89c1.2,0,2.3,0.6,2.8,1.5v-4.1h1.3v10.4h-1.3v-1.4c-0.5,0.8-1.5,1.6-2.9,1.6c-2.1,0-3.6-1.6-3.6-4
		S229.4,89,231.4,89L231.4,89z M231.7,90.1c-1.4,0-2.6,1-2.6,2.8s1.2,2.9,2.6,2.9s2.6-1.1,2.6-2.9S233.1,90.1,231.7,90.1z"/>
	<path d="M241.1,97c-2.2,0-3.8-1.5-3.8-4s1.6-3.9,3.8-3.9s3.7,1.6,3.7,3.7c0,0.3,0,0.5,0,0.8h-6.1c0.1,1.6,1.2,2.4,2.5,2.4
		c1.1,0,1.9-0.6,2.2-1.4h1.4C244.2,95.9,243,97,241.1,97z M238.6,92.4h4.9c0-1.5-1.1-2.3-2.4-2.3C239.8,90.1,238.7,90.9,238.6,92.4
		L238.6,92.4z"/>
	<path d="M35.6,113.8c-2.2,0-3.8-1.5-3.8-4s1.7-3.9,3.9-3.9c2.2,0,3.9,1.5,3.9,3.9S37.8,113.8,35.6,113.8z M35.6,112.6
		c1.3,0,2.6-0.9,2.6-2.9s-1.3-2.8-2.6-2.8s-2.6,0.9-2.6,2.8S34.3,112.6,35.6,112.6z M37.1,102.6v1.1l-3,1.6v-0.9L37.1,102.6
		L37.1,102.6z"/>
	<path d="M45.4,105.8c2.1,0,3.6,1.5,3.6,3.9s-1.6,4-3.6,4c-1.4,0-2.4-0.7-2.9-1.5v1.4h-1.3v-10.3h1.3v4.1
		C43,106.5,44,105.8,45.4,105.8z M45.1,106.9c-1.4,0-2.6,1.1-2.6,2.8s1.2,2.9,2.6,2.9c1.4,0,2.6-1.1,2.6-2.9S46.5,106.9,45.1,106.9z
		"/>
	<path d="M50.5,103.8c0-0.5,0.4-0.9,0.9-0.9s0.8,0.4,0.8,0.9s-0.4,0.9-0.8,0.9C50.9,104.7,50.5,104.3,50.5,103.8z M50.7,106H52v7.7
		h-1.3V106z"/>
	<path d="M54.4,107h-1v-1h1v-2h1.3v2h2v1h-2v4.5c0,0.8,0.3,1,1.1,1h0.9v1.1h-1.2c-1.4,0-2.1-0.6-2.1-2.1V107L54.4,107z"/>
	<path d="M62.6,113.8c-2.2,0-3.8-1.5-3.8-4s1.7-3.9,3.9-3.9c2.2,0,3.9,1.5,3.9,3.9S64.8,113.8,62.6,113.8z M62.6,112.6
		c1.3,0,2.6-0.9,2.6-2.9s-1.3-2.8-2.6-2.8c-1.3,0-2.6,0.9-2.6,2.8S61.3,112.6,62.6,112.6z"/>
	<path d="M70.9,113.8c-1.8,0-3-1-3.1-2.4h1.3c0.1,0.7,0.7,1.3,1.8,1.3c1,0,1.6-0.5,1.6-1.1c0-1.7-4.5-0.7-4.5-3.6
		c0-1.2,1.1-2.1,2.8-2.1s2.8,0.9,2.9,2.4h-1.3c-0.1-0.8-0.6-1.3-1.7-1.3c-0.9,0-1.5,0.4-1.5,1.1c0,1.8,4.4,0.8,4.5,3.6
		C73.7,112.8,72.6,113.8,70.9,113.8L70.9,113.8z"/>
	<path d="M82.4,105.8c1.2,0,2.3,0.6,2.8,1.5v-4.1h1.3v10.4h-1.3v-1.4c-0.5,0.8-1.5,1.6-2.9,1.6c-2.1,0-3.6-1.6-3.6-4
		S80.4,105.8,82.4,105.8L82.4,105.8z M82.7,106.9c-1.4,0-2.6,1-2.6,2.8s1.2,2.9,2.6,2.9s2.6-1.1,2.6-2.9S84.1,106.9,82.7,106.9z"/>
	<path d="M92,113.8c-2.2,0-3.8-1.5-3.8-4s1.6-3.9,3.8-3.9s3.7,1.6,3.7,3.7c0,0.3,0,0.5,0,0.8h-6.2c0.1,1.6,1.2,2.4,2.5,2.4
		c1.2,0,1.9-0.6,2.2-1.4h1.4C95.2,112.7,93.9,113.8,92,113.8L92,113.8z M89.6,109.2h4.8c0-1.5-1.1-2.3-2.4-2.3
		C90.7,106.9,89.7,107.7,89.6,109.2L89.6,109.2z"/>
	<path d="M104.4,105.8c1.9,0,3.2,1,3.5,2.6h-1.4c-0.3-0.9-1-1.5-2.2-1.5c-1.4,0-2.4,1-2.4,2.9s1,2.9,2.4,2.9c1.1,0,1.9-0.6,2.2-1.5
		h1.4c-0.4,1.5-1.6,2.6-3.5,2.6c-2.2,0-3.7-1.5-3.7-4S102.2,105.8,104.4,105.8z"/>
	<path d="M110.9,113.6h-1.3V106h1.3v1.2c0.4-0.8,1.3-1.4,2.5-1.4v1.3h-0.3c-1.2,0-2.1,0.6-2.1,2.3
		C110.9,109.5,110.9,113.6,110.9,113.6z"/>
	<path d="M114.6,103.8c0-0.5,0.4-0.9,0.9-0.9s0.8,0.4,0.8,0.9s-0.4,0.9-0.8,0.9C115,104.7,114.6,104.3,114.6,103.8z M114.9,106h1.3
		v7.7h-1.3V106z"/>
	<path d="M121.5,105.8c1.4,0,2.4,0.7,2.9,1.5V106h1.3v7.7h-1.3v-1.4c-0.5,0.8-1.5,1.6-2.9,1.6c-2.1,0-3.6-1.6-3.6-4
		S119.4,105.8,121.5,105.8z M121.7,106.9c-1.4,0-2.6,1-2.6,2.8s1.2,2.9,2.6,2.9s2.6-1.1,2.6-2.9S123.1,106.9,121.7,106.9z"/>
	<path d="M133.4,109.3c0-1.6-0.9-2.4-2.1-2.4c-1.3,0-2.2,0.8-2.2,2.5v4.2h-1.3V106h1.3v1c0.5-0.8,1.4-1.2,2.5-1.2
		c1.8,0,3.1,1.1,3.1,3.3v4.5h-1.3V109.3L133.4,109.3z"/>
	<path d="M140,105.8c1.9,0,3.1,1,3.5,2.6h-1.4c-0.3-0.9-1-1.5-2.2-1.5c-1.4,0-2.4,1-2.4,2.9s1,2.9,2.4,2.9c1.1,0,1.9-0.6,2.2-1.5
		h1.4c-0.4,1.4-1.5,2.4-3.1,2.6v0.7c1.1,0,1.8,0.5,1.8,1.4s-0.7,1.4-1.7,1.4h-1.6v-0.8h1.4c0.6,0,0.9-0.2,0.9-0.6s-0.3-0.6-0.9-0.6
		h-0.8v-1.5c-1.9-0.2-3.3-1.7-3.3-3.9C136.2,107.4,137.8,105.8,140,105.8z"/>
	<path d="M148.4,105.8c1.4,0,2.4,0.7,2.9,1.5V106h1.3v7.7h-1.3v-1.4c-0.5,0.8-1.5,1.6-2.9,1.6c-2,0-3.6-1.6-3.6-4
		S146.3,105.8,148.4,105.8z M148.6,106.9c-1.4,0-2.6,1-2.6,2.8s1.2,2.9,2.6,2.9s2.6-1.1,2.6-2.9S150,106.9,148.6,106.9z"/>
	<path d="M157.4,113.8c-1.8,0-3.1-1-3.1-2.4h1.3c0.1,0.7,0.7,1.3,1.8,1.3c1,0,1.6-0.5,1.6-1.1c0-1.7-4.5-0.7-4.5-3.6
		c0-1.2,1.1-2.1,2.8-2.1s2.8,0.9,2.9,2.4h-1.3c-0.1-0.8-0.6-1.3-1.7-1.3c-0.9,0-1.5,0.4-1.5,1.1c0,1.8,4.5,0.8,4.5,3.6
		C160.2,112.8,159.1,113.8,157.4,113.8L157.4,113.8z"/>
	<path d="M168.9,105.8c1.4,0,2.4,0.7,2.9,1.5V106h1.3v7.7h-1.3v-1.4c-0.5,0.8-1.5,1.6-2.9,1.6c-2,0-3.6-1.6-3.6-4
		S166.8,105.8,168.9,105.8z M169.1,106.9c-1.4,0-2.6,1-2.6,2.8s1.2,2.9,2.6,2.9s2.6-1.1,2.6-2.9S170.6,106.9,169.1,106.9z"/>
	<path d="M180.8,109.3c0-1.6-0.9-2.4-2.1-2.4s-2.2,0.8-2.2,2.5v4.2h-1.3V106h1.3v1c0.5-0.8,1.4-1.2,2.5-1.2c1.8,0,3.1,1.1,3.1,3.3
		v4.5h-1.3V109.3L180.8,109.3z"/>
	<path d="M184.4,107h-1v-1h1v-2h1.3v2h2v1h-2v4.5c0,0.8,0.3,1,1.1,1h0.9v1.1h-1.1c-1.4,0-2.1-0.6-2.1-2.1L184.4,107L184.4,107z"/>
	<path d="M192.6,113.8c-2.2,0-3.8-1.5-3.8-4s1.6-3.9,3.8-3.9s3.7,1.6,3.7,3.7c0,0.3,0,0.5,0,0.8h-6.1c0.1,1.6,1.2,2.4,2.5,2.4
		c1.1,0,1.9-0.6,2.2-1.4h1.4C195.7,112.7,194.5,113.8,192.6,113.8z M190.1,109.2h4.9c0-1.5-1.1-2.3-2.4-2.3
		C191.3,106.9,190.3,107.7,190.1,109.2L190.1,109.2z"/>
	<path d="M200.6,113.8c-1.8,0-3.1-1-3.1-2.4h1.3c0.1,0.7,0.7,1.3,1.8,1.3c1,0,1.6-0.5,1.6-1.1c0-1.7-4.5-0.7-4.5-3.6
		c0-1.2,1.1-2.1,2.8-2.1s2.8,0.9,2.9,2.4h-1.3c-0.1-0.8-0.6-1.3-1.7-1.3c-0.9,0-1.5,0.4-1.5,1.1c0,1.8,4.5,0.8,4.5,3.6
		C203.5,112.8,202.3,113.8,200.6,113.8L200.6,113.8z"/>
	<path d="M212.2,105.8c1.2,0,2.3,0.6,2.8,1.5v-4.1h1.3v10.4H215v-1.4c-0.5,0.8-1.5,1.6-2.9,1.6c-2.1,0-3.6-1.6-3.6-4
		S210.1,105.8,212.2,105.8L212.2,105.8z M212.4,106.9c-1.4,0-2.6,1-2.6,2.8s1.2,2.9,2.6,2.9s2.6-1.1,2.6-2.9
		S213.8,106.9,212.4,106.9z"/>
	<path d="M221.8,113.8c-2.2,0-3.8-1.5-3.8-4s1.6-3.9,3.8-3.9s3.7,1.6,3.7,3.7c0,0.3,0,0.5,0,0.8h-6.1c0.1,1.6,1.2,2.4,2.5,2.4
		c1.1,0,1.9-0.6,2.2-1.4h1.4C224.9,112.7,223.7,113.8,221.8,113.8z M219.3,109.2h4.9c0-1.5-1.1-2.3-2.4-2.3
		C220.5,106.9,219.4,107.7,219.3,109.2L219.3,109.2z"/>
	<path d="M35.5,122.6c1.9,0,3.2,1,3.5,2.6h-1.4c-0.3-0.9-1-1.5-2.2-1.5c-1.4,0-2.4,1-2.4,2.9s1,2.9,2.4,2.9c1.1,0,1.9-0.6,2.2-1.5
		H39c-0.4,1.5-1.6,2.6-3.5,2.6c-2.2,0-3.7-1.5-3.7-4C31.8,124.1,33.4,122.6,35.5,122.6z"/>
	<path d="M44.1,130.6c-2.2,0-3.8-1.5-3.8-4c0-2.5,1.7-3.9,3.9-3.9c2.2,0,3.9,1.5,3.9,3.9S46.3,130.6,44.1,130.6z M44.1,129.4
		c1.3,0,2.6-0.9,2.6-2.9s-1.3-2.8-2.6-2.8c-1.3,0-2.6,0.9-2.6,2.8C41.5,128.4,42.8,129.4,44.1,129.4z"/>
	<path d="M60.8,126.1c0-1.6-0.8-2.4-2.1-2.4c-1.3,0-2.2,0.8-2.2,2.5v4.2h-1.3v-4.3c0-1.6-0.8-2.4-2.1-2.4c-1.3,0-2.2,0.8-2.2,2.5
		v4.2h-1.3v-7.7h1.3v1.1c0.5-0.8,1.4-1.2,2.4-1.2c1.3,0,2.3,0.6,2.8,1.7c0.5-1.1,1.5-1.7,2.7-1.7c1.8,0,3.1,1.1,3.1,3.3v4.5h-1.3
		L60.8,126.1L60.8,126.1z"/>
	<path d="M68.3,122.6c2.1,0,3.6,1.5,3.6,3.9c0,2.4-1.6,4-3.6,4c-1.4,0-2.4-0.8-2.9-1.5v5.1h-1.3v-11.3h1.3v1.4
		C65.9,123.4,66.9,122.6,68.3,122.6L68.3,122.6z M68,123.7c-1.4,0-2.6,1.1-2.6,2.8c0,1.7,1.2,2.9,2.6,2.9c1.4,0,2.6-1.1,2.6-2.9
		S69.5,123.7,68,123.7z"/>
	<path d="M73.6,120.1h1.3v10.4h-1.3V120.1z"/>
	<path d="M80.4,130.6c-2.2,0-3.8-1.5-3.8-4c0-2.5,1.6-3.9,3.8-3.9s3.7,1.6,3.7,3.7c0,0.3,0,0.5,0,0.8H78c0.1,1.6,1.2,2.4,2.5,2.4
		c1.2,0,1.9-0.6,2.2-1.4h1.4C83.5,129.5,82.3,130.6,80.4,130.6L80.4,130.6z M77.9,126h4.8c0-1.5-1.1-2.3-2.4-2.3
		C79.1,123.7,78.1,124.5,77.9,126L77.9,126z"/>
	<path d="M86,123.8h-1v-1.1h1v-1.9h1.3v1.9h2v1.1h-2v4.5c0,0.8,0.3,1,1.1,1h0.9v1.1h-1.2c-1.4,0-2.1-0.6-2.1-2.1L86,123.8L86,123.8z
		"/>
	<path d="M94,122.6c1.4,0,2.4,0.7,2.9,1.5v-1.4h1.3v7.7h-1.3V129c-0.5,0.8-1.5,1.6-2.9,1.6c-2.1,0-3.6-1.6-3.6-4S92,122.6,94,122.6z
		 M94.3,123.7c-1.4,0-2.6,1-2.6,2.8s1.2,2.9,2.6,2.9s2.6-1.1,2.6-2.9S95.7,123.7,94.3,123.7z"/>
	<path d="M101.6,130.4h-1.3v-7.7h1.3v1.2c0.4-0.8,1.3-1.4,2.5-1.4v1.3h-0.3c-1.2,0-2.1,0.6-2.1,2.3
		C101.6,126.3,101.6,130.4,101.6,130.4z"/>
	<path d="M110.1,121.5h-1.3v-1.2h2.6v10.1H110L110.1,121.5L110.1,121.5z"/>
	<path d="M120.7,122.6c1.4,0,2.4,0.7,2.9,1.5v-1.4h1.3v7.7h-1.4V129c-0.5,0.8-1.5,1.6-2.9,1.6c-2.1,0-3.6-1.6-3.6-4
		S118.6,122.6,120.7,122.6z M120.9,123.7c-1.4,0-2.6,1-2.6,2.8s1.2,2.9,2.6,2.9s2.6-1.1,2.6-2.9S122.3,123.7,120.9,123.7z"/>
	<path d="M132.6,126.1c0-1.6-0.8-2.4-2.1-2.4c-1.3,0-2.2,0.8-2.2,2.5v4.2H127v-7.7h1.3v1.1c0.5-0.8,1.4-1.2,2.5-1.2
		c1.8,0,3.1,1.1,3.1,3.3v4.5h-1.3V126.1L132.6,126.1z"/>
	<path d="M139.3,130.6c-2.2,0-3.8-1.5-3.8-4c0-2.5,1.7-3.9,3.9-3.9s3.9,1.5,3.9,3.9S141.5,130.6,139.3,130.6z M139.3,129.4
		c1.3,0,2.6-0.9,2.6-2.9s-1.3-2.8-2.6-2.8s-2.6,0.9-2.6,2.8C136.7,128.4,137.9,129.4,139.3,129.4L139.3,129.4z"/>
	<path d="M151.8,122.6c1.2,0,2.3,0.6,2.8,1.5V120h1.3v10.4h-1.3V129c-0.5,0.8-1.5,1.6-2.9,1.6c-2.1,0-3.6-1.6-3.6-4
		S149.7,122.6,151.8,122.6L151.8,122.6z M152,123.7c-1.4,0-2.6,1-2.6,2.8s1.2,2.9,2.6,2.9s2.6-1.1,2.6-2.9S153.4,123.7,152,123.7z"
		/>
	<path d="M161.4,130.6c-2.2,0-3.8-1.5-3.8-4c0-2.5,1.6-3.9,3.8-3.9s3.7,1.6,3.7,3.7c0,0.3,0,0.5,0,0.8h-6.1c0.1,1.6,1.2,2.4,2.5,2.4
		c1.1,0,1.9-0.6,2.2-1.4h1.4C164.5,129.5,163.3,130.6,161.4,130.6z M158.9,126h4.9c0-1.5-1.1-2.3-2.4-2.3S159.1,124.5,158.9,126
		L158.9,126z"/>
	<path d="M170.3,120.6c0-0.5,0.4-0.9,0.9-0.9s0.8,0.4,0.8,0.9s-0.4,0.9-0.8,0.9C170.7,121.5,170.3,121.1,170.3,120.6z M170.5,122.8
		h1.3v7.7h-1.3V122.8z"/>
	<path d="M177.1,122.6c1.2,0,2.3,0.6,2.8,1.5V120h1.3v10.4h-1.3V129c-0.5,0.8-1.5,1.6-2.9,1.6c-2.1,0-3.6-1.6-3.6-4
		S175,122.6,177.1,122.6L177.1,122.6z M177.4,123.7c-1.4,0-2.6,1-2.6,2.8s1.2,2.9,2.6,2.9s2.6-1.1,2.6-2.9S178.8,123.7,177.4,123.7z
		"/>
	<path d="M186.6,122.6c1.4,0,2.4,0.7,2.9,1.5v-1.4h1.3v7.7h-1.3V129c-0.5,0.8-1.5,1.6-2.9,1.6c-2,0-3.6-1.6-3.6-4
		S184.5,122.6,186.6,122.6z M186.8,123.7c-1.4,0-2.6,1-2.6,2.8s1.2,2.9,2.6,2.9s2.6-1.1,2.6-2.9S188.2,123.7,186.8,123.7z"/>
	<path d="M196,122.6c1.2,0,2.3,0.6,2.8,1.5V120h1.3v10.4h-1.3V129c-0.5,0.8-1.5,1.6-2.9,1.6c-2.1,0-3.6-1.6-3.6-4
		S194,122.6,196,122.6L196,122.6z M196.3,123.7c-1.4,0-2.6,1-2.6,2.8s1.2,2.9,2.6,2.9s2.6-1.1,2.6-2.9S197.7,123.7,196.3,123.7z"/>
	<path d="M205.6,130.6c-2.2,0-3.8-1.5-3.8-4c0-2.5,1.6-3.9,3.8-3.9s3.7,1.6,3.7,3.7c0,0.3,0,0.5,0,0.8h-6.1c0.1,1.6,1.2,2.4,2.5,2.4
		c1.1,0,1.9-0.6,2.2-1.4h1.4C208.8,129.5,207.6,130.6,205.6,130.6z M203.2,126h4.9c0-1.5-1.1-2.3-2.4-2.3
		C204.3,123.7,203.3,124.5,203.2,126L203.2,126z"/>
	<path d="M217.9,122.6c1.4,0,2.4,0.7,2.9,1.5v-1.4h1.3v7.7h-1.3V129c-0.5,0.8-1.5,1.6-2.9,1.6c-2,0-3.6-1.6-3.6-4
		S215.9,122.6,217.9,122.6z M218.2,123.7c-1.4,0-2.6,1-2.6,2.8s1.2,2.9,2.6,2.9s2.6-1.1,2.6-2.9S219.6,123.7,218.2,123.7z"/>
	<path d="M231.2,122.6c1.9,0,3.1,1,3.5,2.6h-1.4c-0.3-0.9-1-1.5-2.2-1.5c-1.4,0-2.4,1-2.4,2.9s1,2.9,2.4,2.9c1.1,0,1.9-0.6,2.2-1.5
		h1.4c-0.4,1.5-1.6,2.6-3.5,2.6c-2.2,0-3.7-1.5-3.7-4C227.5,124.1,229,122.6,231.2,122.6z"/>
	<path d="M239.6,122.6c1.4,0,2.4,0.7,2.9,1.5v-1.4h1.3v7.7h-1.3V129c-0.5,0.8-1.5,1.6-2.9,1.6c-2,0-3.6-1.6-3.6-4
		S237.6,122.6,239.6,122.6z M239.9,123.7c-1.4,0-2.6,1-2.6,2.8s1.2,2.9,2.6,2.9s2.6-1.1,2.6-2.9S241.3,123.7,239.9,123.7z"/>
	<path d="M249.1,122.6c1.2,0,2.3,0.6,2.8,1.5V120h1.3v10.4h-1.3V129c-0.5,0.8-1.5,1.6-2.9,1.6c-2.1,0-3.6-1.6-3.6-4
		S247,122.6,249.1,122.6L249.1,122.6z M249.3,123.7c-1.4,0-2.6,1-2.6,2.8s1.2,2.9,2.6,2.9s2.6-1.1,2.6-2.9S250.7,123.7,249.3,123.7z
		"/>
	<path d="M258.5,122.6c1.4,0,2.4,0.7,2.9,1.5v-1.4h1.3v7.7h-1.3V129c-0.5,0.8-1.5,1.6-2.9,1.6c-2,0-3.6-1.6-3.6-4
		S256.5,122.6,258.5,122.6L258.5,122.6z M258.8,123.7c-1.4,0-2.6,1-2.6,2.8s1.2,2.9,2.6,2.9c1.4,0,2.6-1.1,2.6-2.9
		S260.1,123.7,258.8,123.7L258.8,123.7z"/>
	<path d="M33.1,138.3h-1.3v-1.2h2.6v10.1h-1.3L33.1,138.3L33.1,138.3z"/>
	<path d="M40.1,137c2.8,0,3.5,2.2,3.5,5.1s-0.7,5.2-3.5,5.2c-2.8,0-3.5-2.2-3.5-5.2S37.3,137,40.1,137z M40.1,138.1
		c-2,0-2.3,1.9-2.3,3.9s0.3,4,2.3,4s2.3-1.8,2.3-4S42.1,138.1,40.1,138.1z"/>
	<path d="M48.9,137c2.8,0,3.5,2.2,3.5,5.1s-0.7,5.2-3.5,5.2c-2.8,0-3.5-2.2-3.5-5.2S46.1,137,48.9,137z M48.9,138.1
		c-2,0-2.3,1.9-2.3,3.9s0.3,4,2.3,4s2.3-1.8,2.3-4S50.9,138.1,48.9,138.1z"/>
	<path d="M69.2,142.9c0-1.6-0.8-2.4-2.1-2.4c-1.3,0-2.2,0.8-2.2,2.5v4.2h-1.3v-4.3c0-1.6-0.8-2.4-2.1-2.4c-1.3,0-2.2,0.8-2.2,2.5
		v4.2H58v-7.7h1.3v1.1c0.5-0.8,1.4-1.2,2.4-1.2c1.3,0,2.3,0.6,2.8,1.7c0.5-1.1,1.5-1.7,2.7-1.7c1.8,0,3.1,1.1,3.1,3.3v4.5H69
		L69.2,142.9L69.2,142.9z"/>
	<path d="M72.3,137.4c0-0.5,0.4-0.9,0.9-0.9s0.8,0.4,0.8,0.9s-0.4,0.9-0.8,0.9C72.7,138.3,72.3,137.9,72.3,137.4z M72.5,139.6h1.3
		v7.7h-1.3V139.6z"/>
	<path d="M76,136.9h1.3v10.4H76V136.9z"/>
	<path d="M88.7,142.9c0-1.6-0.8-2.4-2.1-2.4s-2.2,0.8-2.2,2.5v4.2h-1.3v-7.7h1.3v1.1c0.5-0.8,1.4-1.2,2.5-1.2c1.8,0,3.1,1.1,3.1,3.3
		v4.5h-1.3V142.9L88.7,142.9z"/>
	<path d="M95.3,139.4c1.4,0,2.4,0.7,2.9,1.5v-1.4h1.3v7.7h-1.3v-1.4c-0.5,0.8-1.5,1.6-2.9,1.6c-2.1,0-3.6-1.6-3.6-4
		S93.2,139.4,95.3,139.4z M95.5,140.5c-1.4,0-2.6,1-2.6,2.8s1.2,2.9,2.6,2.9s2.6-1.1,2.6-2.9S96.9,140.5,95.5,140.5z"/>
	<path d="M104.3,147.4c-1.8,0-3.1-1-3.1-2.4h1.3c0.1,0.7,0.7,1.3,1.8,1.3c1,0,1.6-0.5,1.6-1.1c0-1.7-4.5-0.7-4.5-3.6
		c0-1.2,1.1-2.1,2.8-2.1s2.8,0.9,2.9,2.4h-1.3c-0.1-0.8-0.6-1.3-1.7-1.3c-0.9,0-1.5,0.4-1.5,1.1c0,1.8,4.4,0.8,4.5,3.6
		C107.1,146.4,106,147.4,104.3,147.4L104.3,147.4z"/>
	<path d="M112.1,139.4c1.9,0,3.2,1,3.5,2.6h-1.4c-0.3-0.9-1-1.5-2.2-1.5c-1.4,0-2.4,1-2.4,2.9s1,2.9,2.4,2.9c1.1,0,1.9-0.6,2.2-1.5
		h1.4c-0.4,1.5-1.6,2.6-3.5,2.6c-2.2,0-3.7-1.5-3.7-4S109.9,139.4,112.1,139.4z"/>
	<path d="M117.2,137.4c0-0.5,0.4-0.9,0.9-0.9s0.8,0.4,0.8,0.9s-0.4,0.9-0.8,0.9C117.5,138.3,117.2,137.9,117.2,137.4z M117.4,139.6
		h1.3v7.7h-1.3V139.6z"/>
	<path d="M124,139.4c1.2,0,2.3,0.6,2.8,1.5v-4.1h1.3v10.4h-1.3v-1.4c-0.5,0.9-1.5,1.6-2.9,1.6c-2.1,0-3.6-1.6-3.6-4
		S121.9,139.4,124,139.4L124,139.4z M124.2,140.5c-1.4,0-2.6,1-2.6,2.8s1.2,2.9,2.6,2.9s2.6-1.1,2.6-2.9S125.6,140.5,124.2,140.5z"
		/>
	<path d="M133.4,139.4c1.4,0,2.4,0.7,2.9,1.5v-1.4h1.3v7.7h-1.3v-1.4c-0.5,0.8-1.5,1.6-2.9,1.6c-2,0-3.6-1.6-3.6-4
		S131.4,139.4,133.4,139.4L133.4,139.4z M133.7,140.5c-1.4,0-2.6,1-2.6,2.8s1.2,2.9,2.6,2.9s2.6-1.1,2.6-2.9
		S135.1,140.5,133.7,140.5z"/>
	<path d="M142.5,147.4c-1.8,0-3.1-1-3.1-2.4h1.3c0.1,0.7,0.7,1.3,1.8,1.3c1,0,1.6-0.5,1.6-1.1c0-1.7-4.5-0.7-4.5-3.6
		c0-1.2,1.1-2.1,2.8-2.1s2.8,0.9,2.9,2.4H144c-0.1-0.8-0.6-1.3-1.7-1.3c-0.9,0-1.5,0.4-1.5,1.1c0,1.8,4.5,0.8,4.5,3.6
		C145.3,146.4,144.2,147.4,142.5,147.4L142.5,147.4z"/>
	<path d="M151.2,139.6l2.4,6.5l2.4-6.5h1.4l-3,7.7h-1.5l-3-7.7H151.2L151.2,139.6z"/>
	<path d="M158.4,137.4c0-0.5,0.4-0.9,0.9-0.9s0.8,0.4,0.8,0.9s-0.4,0.9-0.8,0.9C158.8,138.3,158.4,137.9,158.4,137.4z M158.6,139.6
		h1.3v7.7h-1.3V139.6z"/>
	<path d="M162.5,139.6l2.4,6.5l2.4-6.5h1.4l-3,7.7h-1.5l-3-7.7H162.5L162.5,139.6z"/>
	<path d="M173.1,139.4c1.4,0,2.4,0.7,2.9,1.5v-1.4h1.3v7.7H176v-1.4c-0.5,0.8-1.5,1.6-2.9,1.6c-2,0-3.6-1.6-3.6-4
		S171,139.4,173.1,139.4z M173.3,140.5c-1.4,0-2.6,1-2.6,2.8s1.2,2.9,2.6,2.9s2.6-1.1,2.6-2.9S174.8,140.5,173.3,140.5z"/>
	<path d="M182.1,147.4c-1.8,0-3.1-1-3.1-2.4h1.3c0.1,0.7,0.7,1.3,1.8,1.3c1,0,1.6-0.5,1.6-1.1c0-1.7-4.5-0.7-4.5-3.6
		c0-1.2,1.1-2.1,2.8-2.1s2.8,0.9,2.9,2.4h-1.3c-0.1-0.8-0.6-1.3-1.7-1.3c-0.9,0-1.5,0.4-1.5,1.1c0,1.8,4.5,0.8,4.5,3.6
		C184.9,146.4,183.8,147.4,182.1,147.4L182.1,147.4z"/>
	<path d="M187.1,147.3c-0.5,0-0.9-0.4-0.9-0.9s0.4-0.9,0.9-0.9s0.8,0.4,0.8,0.9S187.6,147.3,187.1,147.3z"/>
	<path d="M197.8,147.3c-2.8,0-4.9-2.1-4.9-5s2.2-5,4.9-5s4.9,2.1,4.9,5S200.6,147.3,197.8,147.3z M197.8,146.2
		c2.1,0,3.6-1.5,3.6-3.9s-1.5-3.9-3.6-3.9s-3.6,1.5-3.6,3.9S195.7,146.2,197.8,146.2z"/>
	<path d="M210.8,147.4c-1.8,0-3.1-1-3.1-2.4h1.3c0.1,0.7,0.7,1.3,1.8,1.3c1,0,1.6-0.5,1.6-1.1c0-1.7-4.5-0.7-4.5-3.6
		c0-1.2,1.1-2.1,2.8-2.1s2.8,0.9,2.9,2.4h-1.3c-0.1-0.8-0.6-1.3-1.7-1.3c-0.9,0-1.5,0.4-1.5,1.1c0,1.8,4.5,0.8,4.5,3.6
		C213.6,146.4,212.5,147.4,210.8,147.4L210.8,147.4z"/>
	<path d="M218.7,147.4c-2.2,0-3.8-1.5-3.8-4s1.6-3.9,3.8-3.9s3.7,1.6,3.7,3.7c0,0.3,0,0.5,0,0.8h-6.1c0.1,1.6,1.2,2.4,2.5,2.4
		c1.1,0,1.9-0.6,2.2-1.4h1.4C221.9,146.3,220.7,147.4,218.7,147.4L218.7,147.4z M216.3,142.8h4.9c0-1.5-1.1-2.3-2.4-2.3
		C217.4,140.5,216.4,141.3,216.3,142.8L216.3,142.8z"/>
	<path d="M227.3,139.4c1.4,0,2.4,0.7,2.9,1.5v-1.4h1.3v7.8c0,2.1-1.4,3.6-3.7,3.6c-2,0-3.5-1-3.7-2.7h1.3c0.3,0.9,1.2,1.6,2.4,1.6
		c1.4,0,2.4-0.9,2.4-2.5v-1.6c-0.5,0.8-1.5,1.6-2.9,1.6c-2.1,0-3.6-1.6-3.6-4S225.2,139.4,227.3,139.4L227.3,139.4z M227.5,140.5
		c-1.4,0-2.6,1-2.6,2.8s1.2,2.9,2.6,2.9s2.6-1.1,2.6-2.9S228.9,140.5,227.5,140.5z"/>
	<path d="M240.4,147.2h-1.3v-1.1c-0.5,0.8-1.4,1.2-2.4,1.2c-1.8,0-3.1-1.1-3.1-3.3v-4.5h1.3v4.3c0,1.6,0.9,2.4,2.1,2.4
		s2.2-0.8,2.2-2.5v-4.2h1.3v7.7H240.4z"/>
	<path d="M248.1,142.9c0-1.6-0.9-2.4-2.1-2.4s-2.2,0.8-2.2,2.5v4.2h-1.3v-7.7h1.3v1.1c0.5-0.8,1.4-1.2,2.5-1.2
		c1.8,0,3.1,1.1,3.1,3.3v4.5h-1.3V142.9L248.1,142.9z"/>
	<path d="M254.7,139.4c1.2,0,2.3,0.6,2.8,1.5v-4.1h1.3v10.4h-1.3v-1.4c-0.5,0.9-1.5,1.6-2.9,1.6c-2.1,0-3.6-1.6-3.6-4
		S252.6,139.4,254.7,139.4L254.7,139.4z M254.9,140.5c-1.4,0-2.6,1-2.6,2.8s1.2,2.9,2.6,2.9c1.4,0,2.6-1.1,2.6-2.9
		S256.2,140.5,254.9,140.5z"/>
	<path d="M264.2,147.4c-2.2,0-3.8-1.5-3.8-4s1.7-3.9,3.9-3.9s3.9,1.5,3.9,3.9S266.5,147.4,264.2,147.4z M264.2,146.2
		c1.3,0,2.6-0.9,2.6-2.9s-1.3-2.8-2.6-2.8s-2.6,0.9-2.6,2.8S263,146.2,264.2,146.2z"/>
	<path d="M32.1,154.2c0-0.5,0.4-0.9,0.9-0.9s0.8,0.4,0.8,0.9s-0.4,0.9-0.8,0.9C32.5,155.1,32.1,154.7,32.1,154.2z M32.3,156.4h1.3
		v7.7h-1.3V156.4z"/>
	<path d="M41.3,159.7c0-1.6-0.8-2.4-2.1-2.4c-1.3,0-2.2,0.8-2.2,2.5v4.2h-1.3v-7.7H37v1.1c0.5-0.8,1.4-1.2,2.5-1.2
		c1.8,0,3.1,1.1,3.1,3.3v4.5h-1.3V159.7L41.3,159.7z"/>
	<path d="M47.9,156.2c1.2,0,2.3,0.6,2.8,1.5v-4.1H52V164h-1.3v-1.4c-0.5,0.9-1.5,1.6-2.9,1.6c-2.1,0-3.6-1.6-3.6-4
		S45.8,156.2,47.9,156.2L47.9,156.2z M48.1,157.3c-1.4,0-2.6,1-2.6,2.8s1.2,2.9,2.6,2.9c1.4,0,2.6-1.1,2.6-2.9
		S49.5,157.3,48.1,157.3z"/>
	<path d="M53.9,154.2c0-0.5,0.4-0.9,0.9-0.9s0.8,0.4,0.8,0.9s-0.4,0.9-0.8,0.9C54.3,155.1,53.9,154.7,53.9,154.2z M54.2,156.4h1.3
		v7.7h-1.3V156.4z"/>
	<path d="M60.9,156.2c1.9,0,3.2,1,3.5,2.6H63c-0.3-0.9-1-1.5-2.2-1.5c-1.4,0-2.4,1-2.4,2.9s1,2.9,2.4,2.9c1.1,0,1.9-0.6,2.2-1.5h1.4
		c-0.4,1.5-1.6,2.6-3.5,2.6c-2.2,0-3.7-1.5-3.7-4S58.7,156.2,60.9,156.2z"/>
	<path d="M69.3,156.2c1.4,0,2.4,0.7,2.9,1.5v-1.4h1.3v7.7h-1.3v-1.4c-0.5,0.8-1.5,1.6-2.9,1.6c-2,0-3.6-1.6-3.6-4
		S67.2,156.2,69.3,156.2z M69.5,157.3c-1.4,0-2.6,1-2.6,2.8s1.2,2.9,2.6,2.9s2.6-1.1,2.6-2.9S70.9,157.3,69.5,157.3z"/>
	<path d="M82.6,164.2c-2.2,0-3.8-1.5-3.8-4s1.7-3.9,3.9-3.9s3.9,1.5,3.9,3.9S84.8,164.2,82.6,164.2z M82.6,163
		c1.3,0,2.6-0.9,2.6-2.9s-1.3-2.8-2.6-2.8s-2.6,0.9-2.6,2.8S81.3,163,82.6,163z"/>
	<path d="M97.6,159.7c0-1.6-0.8-2.4-2.1-2.4s-2.2,0.8-2.2,2.5v4.2H92v-7.7h1.3v1.1c0.5-0.8,1.4-1.2,2.5-1.2c1.8,0,3.1,1.1,3.1,3.3
		v4.5h-1.3V159.7L97.6,159.7z"/>
	<path d="M107.8,164h-1.3v-1.1c-0.5,0.8-1.4,1.2-2.4,1.2c-1.8,0-3.2-1.1-3.2-3.3v-4.5h1.3v4.3c0,1.6,0.8,2.4,2.1,2.4
		s2.2-0.8,2.2-2.5v-4.2h1.3V164L107.8,164z M105.7,153.1v1.1l-3,1.6v-0.9L105.7,153.1L105.7,153.1z"/>
	<path d="M121,159.7c0-1.6-0.8-2.4-2.1-2.4s-2.2,0.8-2.2,2.5v4.2h-1.2v-4.3c0-1.6-0.8-2.4-2.1-2.4s-2.2,0.8-2.2,2.5v4.2h-1.3v-7.7
		h1.3v1.1c0.5-0.8,1.4-1.2,2.4-1.2c1.3,0,2.3,0.6,2.8,1.7c0.4-1.1,1.5-1.7,2.7-1.7c1.8,0,3.1,1.1,3.1,3.3v4.5h-1.3L121,159.7
		L121,159.7z"/>
	<path d="M127.7,164.2c-2.2,0-3.8-1.5-3.8-4s1.6-3.9,3.8-3.9s3.7,1.6,3.7,3.7c0,0.3,0,0.5,0,0.8h-6.1c0.1,1.6,1.2,2.4,2.5,2.4
		c1.2,0,1.9-0.6,2.2-1.4h1.4C130.8,163.1,129.6,164.2,127.7,164.2L127.7,164.2z M125.2,159.6h4.8c0-1.5-1.1-2.3-2.4-2.3
		C126.4,157.3,125.3,158.1,125.2,159.6L125.2,159.6z"/>
	<path d="M134.3,164H133v-7.7h1.3v1.2c0.4-0.9,1.3-1.4,2.5-1.4v1.3h-0.3c-1.2,0-2.1,0.6-2.1,2.3L134.3,164L134.3,164z"/>
	<path d="M141.6,164.2c-2.2,0-3.8-1.5-3.8-4s1.7-3.9,3.9-3.9s3.9,1.5,3.9,3.9S143.8,164.2,141.6,164.2z M141.6,163
		c1.3,0,2.6-0.9,2.6-2.9s-1.3-2.8-2.6-2.8s-2.6,0.9-2.6,2.8S140.3,163,141.6,163L141.6,163z"/>
	<path d="M154.1,156.2c1.2,0,2.3,0.6,2.8,1.5v-4.1h1.3V164h-1.3v-1.4c-0.5,0.9-1.5,1.6-2.9,1.6c-2.1,0-3.6-1.6-3.6-4
		S152,156.2,154.1,156.2L154.1,156.2z M154.4,157.3c-1.4,0-2.6,1-2.6,2.8s1.2,2.9,2.6,2.9s2.6-1.1,2.6-2.9S155.8,157.3,154.4,157.3z
		"/>
	<path d="M163.7,164.2c-2.2,0-3.8-1.5-3.8-4s1.6-3.9,3.8-3.9s3.7,1.6,3.7,3.7c0,0.3,0,0.5,0,0.8h-6.1c0.1,1.6,1.2,2.4,2.5,2.4
		c1.1,0,1.9-0.6,2.2-1.4h1.4C166.9,163.1,165.6,164.2,163.7,164.2L163.7,164.2z M161.2,159.6h4.9c0-1.5-1.1-2.3-2.4-2.3
		C162.4,157.3,161.4,158.1,161.2,159.6L161.2,159.6z"/>
	<path d="M176.1,156.2c1.9,0,3.1,1,3.5,2.6h-1.4c-0.3-0.9-1-1.5-2.2-1.5c-1.4,0-2.4,1-2.4,2.9s1,2.9,2.4,2.9c1.1,0,1.9-0.6,2.2-1.5
		h1.4c-0.4,1.5-1.6,2.6-3.5,2.6c-2.2,0-3.7-1.5-3.7-4S173.9,156.2,176.1,156.2z"/>
	<path d="M184.7,164.2c-2.2,0-3.8-1.5-3.8-4s1.7-3.9,3.9-3.9s3.9,1.5,3.9,3.9S186.9,164.2,184.7,164.2z M184.7,163
		c1.3,0,2.6-0.9,2.6-2.9s-1.3-2.8-2.6-2.8s-2.6,0.9-2.6,2.8S183.3,163,184.7,163L184.7,163z"/>
	<path d="M195.9,159.7c0-1.6-0.9-2.4-2.1-2.4s-2.2,0.8-2.2,2.5v4.2h-1.3v-7.7h1.3v1.1c0.5-0.8,1.4-1.2,2.5-1.2
		c1.8,0,3.1,1.1,3.1,3.3v4.5h-1.3V159.7L195.9,159.7z"/>
	<path d="M202,164.2c-1.8,0-3.1-1-3.1-2.4h1.3c0.1,0.7,0.7,1.3,1.8,1.3c1,0,1.6-0.5,1.6-1.1c0-1.7-4.5-0.7-4.5-3.6
		c0-1.2,1.1-2.1,2.8-2.1s2.8,0.9,2.9,2.4h-1.3c-0.1-0.8-0.6-1.3-1.7-1.3c-0.9,0-1.5,0.4-1.5,1.1c0,1.8,4.5,0.8,4.5,3.6
		C204.8,163.2,203.7,164.2,202,164.2L202,164.2z"/>
	<path d="M213.3,164H212v-1.1c-0.5,0.8-1.4,1.2-2.4,1.2c-1.8,0-3.1-1.1-3.1-3.3v-4.5h1.3v4.3c0,1.6,0.9,2.4,2.1,2.4s2.2-0.8,2.2-2.5
		v-4.2h1.3v7.7H213.3z"/>
	<path d="M215.5,153.7h1.3V164h-1.3V153.7z"/>
	<path d="M219.2,157.4h-1v-1.1h1v-1.9h1.3v1.9h2v1.1h-2v4.5c0,0.8,0.3,1,1.1,1h0.9v1.1h-1.1c-1.4,0-2.1-0.6-2.1-2.1L219.2,157.4
		L219.2,157.4z"/>
	<path d="M227.2,156.2c1.4,0,2.4,0.7,2.9,1.5v-1.4h1.3v7.7h-1.3v-1.4c-0.5,0.8-1.5,1.6-2.9,1.6c-2,0-3.6-1.6-3.6-4
		S225.1,156.2,227.2,156.2z M227.5,157.3c-1.4,0-2.6,1-2.6,2.8s1.2,2.9,2.6,2.9s2.6-1.1,2.6-2.9S228.9,157.3,227.5,157.3z"/>
	<path d="M236.2,164.2c-1.8,0-3.1-1-3.1-2.4h1.3c0.1,0.7,0.7,1.3,1.8,1.3c1,0,1.6-0.5,1.6-1.1c0-1.7-4.5-0.7-4.5-3.6
		c0-1.2,1.1-2.1,2.8-2.1s2.8,0.9,2.9,2.4h-1.3c-0.1-0.8-0.6-1.3-1.7-1.3c-0.9,0-1.5,0.4-1.5,1.1c0,1.8,4.5,0.8,4.5,3.6
		C239,163.2,237.9,164.2,236.2,164.2L236.2,164.2z"/>
	<path d="M247.7,156.2c1.2,0,2.3,0.6,2.8,1.5v-4.1h1.3V164h-1.3v-1.4c-0.5,0.9-1.5,1.6-2.9,1.6c-2.1,0-3.6-1.6-3.6-4
		S245.7,156.2,247.7,156.2L247.7,156.2z M248,157.3c-1.4,0-2.6,1-2.6,2.8s1.2,2.9,2.6,2.9s2.6-1.1,2.6-2.9S249.4,157.3,248,157.3z"
		/>
	<path d="M257.2,164.2c-2.2,0-3.8-1.5-3.8-4s1.6-3.9,3.8-3.9c2.2,0,3.7,1.6,3.7,3.7c0,0.3,0,0.5,0,0.8h-6.1c0.1,1.6,1.2,2.4,2.5,2.4
		c1.1,0,1.9-0.6,2.2-1.4h1.4C260.5,163.1,259.1,164.2,257.2,164.2L257.2,164.2z M254.9,159.6h4.9c0-1.5-1.1-2.3-2.4-2.3
		C256,157.3,255,158.1,254.9,159.6L254.9,159.6z"/>
	<path d="M36.4,173c2.1,0,3.6,1.5,3.6,3.9s-1.6,4-3.6,4c-1.4,0-2.4-0.8-2.9-1.5v5.1h-1.3v-11.3h1.3v1.4C34,173.8,35,173,36.4,173
		L36.4,173z M36.2,174.1c-1.4,0-2.6,1.1-2.6,2.8s1.2,2.9,2.6,2.9c1.4,0,2.6-1.1,2.6-2.9S37.6,174.1,36.2,174.1z"/>
	<path d="M43,180.8h-1.3v-7.7H43v1.2c0.4-0.9,1.3-1.4,2.5-1.4v1.3h-0.3c-1.2,0-2.1,0.6-2.1,2.3v4.3H43z"/>
	<path d="M50.3,181c-2.2,0-3.8-1.5-3.8-4s1.5-3.9,3.8-3.9c2.3,0,3.7,1.6,3.7,3.7c0,0.3,0,0.5,0,0.8h-6.1c0.1,1.6,1.2,2.4,2.5,2.4
		c1.2,0,1.9-0.6,2.2-1.4H54C53.4,179.9,52.2,181,50.3,181L50.3,181z M47.8,176.4h4.8c0-1.5-1.1-2.3-2.4-2.3
		C49,174.1,48,174.9,47.8,176.4L47.8,176.4z M51.6,169.9v1.1l-3,1.6v-0.9L51.6,169.9L51.6,169.9z"/>
	<path d="M55.4,175.2H61v1.1h-5.6V175.2z"/>
	<path d="M69,176.5c0-1.6-0.8-2.4-2.1-2.4c-1.3,0-2.2,0.8-2.2,2.5v4.2h-1.3v-7.7h1.3v1.1c0.5-0.8,1.4-1.2,2.5-1.2
		c1.8,0,3.1,1.1,3.1,3.3v4.5H69V176.5L69,176.5z"/>
	<path d="M75.5,173c1.4,0,2.4,0.7,2.9,1.5v-1.4h1.3v7.7h-1.3v-1.4c-0.5,0.8-1.5,1.6-2.9,1.6c-2.1,0-3.6-1.6-3.6-4S73.4,173,75.5,173
		z M75.7,174.1c-1.4,0-2.6,1-2.6,2.8s1.2,2.9,2.6,2.9s2.6-1.1,2.6-2.9S77.1,174.1,75.7,174.1z"/>
	<path d="M82.1,174.2h-1v-1.1h1v-1.9h1.3v1.9h2v1.1h-2v4.5c0,0.8,0.3,1,1.1,1h0.9v1.1h-1.2c-1.4,0-2.1-0.6-2.1-2.1L82.1,174.2
		L82.1,174.2z"/>
	<path d="M90,173c1.4,0,2.4,0.7,2.9,1.5v-1.4h1.3v7.7h-1.3v-1.4c-0.5,0.8-1.5,1.6-2.9,1.6c-2.1,0-3.6-1.6-3.6-4S88,173,90,173z
		 M90.3,174.1c-1.4,0-2.6,1-2.6,2.8s1.2,2.9,2.6,2.9s2.6-1.1,2.6-2.9S91.7,174.1,90.3,174.1z"/>
	<path d="M96.3,170.5h1.3v10.4h-1.3V170.5z"/>
	<path d="M104.8,180.8h-1.3v-7.7h1.3v1.2c0.4-0.9,1.3-1.4,2.5-1.4v1.3H107c-1.2,0-2.1,0.6-2.1,2.3L104.8,180.8L104.8,180.8z"/>
	<path d="M112.1,181c-2.2,0-3.8-1.5-3.8-4s1.6-3.9,3.8-3.9s3.7,1.6,3.7,3.7c0,0.3,0,0.5,0,0.8h-6.1c0.1,1.6,1.2,2.4,2.5,2.4
		c1.2,0,1.9-0.6,2.2-1.4h1.4C115.2,179.9,114,181,112.1,181L112.1,181z M109.6,176.4h4.8c0-1.5-1.1-2.3-2.4-2.3
		C110.8,174.1,109.7,174.9,109.6,176.4L109.6,176.4z"/>
	<path d="M120.6,173c1.4,0,2.4,0.7,2.9,1.5v-1.4h1.3v7.7h-1.3v-1.4c-0.5,0.8-1.5,1.6-2.9,1.6c-2.1,0-3.6-1.6-3.6-4
		S118.5,173,120.6,173z M120.8,174.1c-1.4,0-2.6,1-2.6,2.8s1.2,2.9,2.6,2.9s2.6-1.1,2.6-2.9S122.2,174.1,120.8,174.1z"/>
	<path d="M126.9,170.5h1.3v10.4h-1.3V170.5z"/>
	<path d="M130.1,171c0-0.5,0.4-0.9,0.9-0.9s0.8,0.4,0.8,0.9s-0.4,0.9-0.8,0.9C130.5,171.9,130.1,171.5,130.1,171z M130.3,173.2h1.3
		v7.7h-1.3V173.2z"/>
	<path d="M138.5,174.2l-3.7,5.6h3.8v1.1h-5.2v-1.1l3.7-5.6h-3.7v-1h5.2L138.5,174.2L138.5,174.2z"/>
	<path d="M143.3,173c1.4,0,2.4,0.7,2.9,1.5v-1.4h1.3v7.7h-1.3v-1.4c-0.5,0.8-1.5,1.6-2.9,1.6c-2,0-3.6-1.6-3.6-4
		S141.3,173,143.3,173z M143.6,174.1c-1.4,0-2.6,1-2.6,2.8s1.2,2.9,2.6,2.9s2.6-1.1,2.6-2.9S145,174.1,143.6,174.1z"/>
	<path d="M152.8,173c1.2,0,2.3,0.6,2.8,1.5v-4.1h1.3v10.4h-1.3v-1.4c-0.5,0.9-1.5,1.6-2.9,1.6c-2.1,0-3.6-1.6-3.6-4
		S150.7,173,152.8,173L152.8,173z M153,174.1c-1.4,0-2.6,1-2.6,2.8s1.2,2.9,2.6,2.9s2.6-1.1,2.6-2.9S154.4,174.1,153,174.1z"/>
	<path d="M162.2,173c1.4,0,2.4,0.7,2.9,1.5v-1.4h1.3v7.7h-1.3v-1.4c-0.5,0.8-1.5,1.6-2.9,1.6c-2,0-3.6-1.6-3.6-4
		S160.2,173,162.2,173z M162.5,174.1c-1.4,0-2.6,1-2.6,2.8s1.2,2.9,2.6,2.9s2.6-1.1,2.6-2.9S163.9,174.1,162.5,174.1z"/>
	<path d="M171.3,181c-1.8,0-3.1-1-3.1-2.4h1.3c0.1,0.7,0.7,1.3,1.8,1.3c1,0,1.6-0.5,1.6-1.1c0-1.7-4.5-0.7-4.5-3.6
		c0-1.2,1.1-2.1,2.8-2.1s2.8,0.9,2.9,2.4h-1.3c-0.1-0.8-0.6-1.3-1.7-1.3c-0.9,0-1.5,0.4-1.5,1.1c0,1.8,4.5,0.8,4.5,3.6
		C174.1,180,173,181,171.3,181L171.3,181z"/>
	<path d="M183.7,173c2.1,0,3.6,1.5,3.6,3.9s-1.6,4-3.6,4c-1.4,0-2.4-0.8-2.9-1.5v5.1h-1.3v-11.3h1.3v1.4
		C181.3,173.8,182.3,173,183.7,173L183.7,173z M183.5,174.1c-1.4,0-2.6,1.1-2.6,2.8s1.2,2.9,2.6,2.9s2.6-1.1,2.6-2.9
		S184.9,174.1,183.5,174.1z"/>
	<path d="M192.4,181c-2.2,0-3.8-1.5-3.8-4s1.7-3.9,3.9-3.9s3.9,1.5,3.9,3.9S194.6,181,192.4,181z M192.4,179.8
		c1.3,0,2.6-0.9,2.6-2.9s-1.3-2.8-2.6-2.8s-2.6,0.9-2.6,2.8S191.1,179.8,192.4,179.8L192.4,179.8z"/>
	<path d="M199.3,180.8H198v-7.7h1.3v1.2c0.4-0.9,1.3-1.4,2.5-1.4v1.3h-0.3c-1.2,0-2.1,0.6-2.1,2.3L199.3,180.8L199.3,180.8z"/>
	<path d="M210.2,173c1.9,0,3.1,1,3.5,2.6h-1.4c-0.3-0.9-1-1.5-2.2-1.5c-1.4,0-2.4,1-2.4,2.9s1,2.9,2.4,2.9c1.1,0,1.9-0.6,2.2-1.5
		h1.4c-0.4,1.5-1.6,2.6-3.5,2.6c-2.2,0-3.7-1.5-3.7-4S208,173,210.2,173z"/>
	<path d="M218.6,173c1.4,0,2.4,0.7,2.9,1.5v-1.4h1.3v7.7h-1.3v-1.4c-0.5,0.8-1.5,1.6-2.9,1.6c-2,0-3.6-1.6-3.6-4
		S216.6,173,218.6,173z M218.9,174.1c-1.4,0-2.6,1-2.6,2.8s1.2,2.9,2.6,2.9s2.6-1.1,2.6-2.9S220.3,174.1,218.9,174.1z"/>
	<path d="M228.1,173c1.2,0,2.3,0.6,2.8,1.5v-4.1h1.3v10.4h-1.3v-1.4c-0.5,0.9-1.5,1.6-2.9,1.6c-2.1,0-3.6-1.6-3.6-4
		S226,173,228.1,173L228.1,173z M228.4,174.1c-1.4,0-2.6,1-2.6,2.8s1.2,2.9,2.6,2.9s2.6-1.1,2.6-2.9S229.8,174.1,228.4,174.1z"/>
	<path d="M237.6,173c1.4,0,2.4,0.7,2.9,1.5v-1.4h1.3v7.7h-1.3v-1.4c-0.5,0.8-1.5,1.6-2.9,1.6c-2,0-3.6-1.6-3.6-4
		S235.5,173,237.6,173z M237.8,174.1c-1.4,0-2.6,1-2.6,2.8s1.2,2.9,2.6,2.9s2.6-1.1,2.6-2.9S239.2,174.1,237.8,174.1z"/>
	<path d="M35.5,189.8c1.4,0,2.4,0.7,2.9,1.5V190h1.3v7.8c0,2.1-1.4,3.6-3.7,3.6c-2,0-3.5-1-3.7-2.7h1.2c0.3,0.9,1.2,1.6,2.5,1.6
		c1.4,0,2.4-0.9,2.4-2.5v-1.6c-0.5,0.8-1.5,1.6-2.9,1.6c-2.1,0-3.6-1.6-3.6-4S33.4,189.8,35.5,189.8L35.5,189.8z M35.7,190.9
		c-1.4,0-2.6,1-2.6,2.8s1.2,2.9,2.6,2.9s2.6-1.1,2.6-2.9S37.1,190.9,35.7,190.9z"/>
	<path d="M45.1,197.8c-2.2,0-3.8-1.5-3.8-4s1.5-3.9,3.8-3.9c2.3,0,3.7,1.6,3.7,3.7c0,0.3,0,0.5,0,0.8h-6.1c0.1,1.6,1.2,2.4,2.5,2.4
		c1.2,0,1.9-0.6,2.2-1.4h1.4C48.2,196.7,47,197.8,45.1,197.8L45.1,197.8z M42.6,193.2h4.8c0-1.5-1.1-2.3-2.4-2.3
		C43.8,190.9,42.7,191.7,42.6,193.2L42.6,193.2z"/>
	<path d="M53.1,197.8c-1.8,0-3-1-3.1-2.4h1.3c0.1,0.7,0.7,1.3,1.8,1.3c1,0,1.6-0.5,1.6-1.1c0-1.7-4.5-0.7-4.5-3.6
		c0-1.2,1.1-2.1,2.8-2.1c1.7,0,2.8,0.9,2.9,2.4h-1.3c-0.1-0.8-0.6-1.3-1.7-1.3c-0.9,0-1.5,0.4-1.5,1.1c0,1.8,4.5,0.8,4.5,3.6
		C56,196.8,54.8,197.8,53.1,197.8L53.1,197.8z"/>
	<path d="M58,191h-1v-1h1v-2h1.3v1.9h2v1.1h-2v4.5c0,0.8,0.3,1,1.1,1h0.9v1.1h-1.2c-1.4,0-2.1-0.6-2.1-2.1V191L58,191z"/>
	<path d="M66,189.8c1.4,0,2.4,0.7,2.9,1.5V190h1.3v7.7h-1.3v-1.4c-0.5,0.8-1.5,1.6-2.9,1.6c-2,0-3.6-1.6-3.6-4S63.9,189.8,66,189.8z
		 M66.2,190.9c-1.4,0-2.6,1-2.6,2.8s1.2,2.9,2.6,2.9c1.4,0,2.6-1.1,2.6-2.9S67.6,190.9,66.2,190.9z"/>
	<path d="M77.9,193.3c0-1.6-0.8-2.4-2.1-2.4s-2.2,0.8-2.2,2.5v4.2h-1.3V190h1.3v1.1c0.5-0.8,1.4-1.2,2.5-1.2c1.8,0,3.1,1.1,3.1,3.3
		v4.5h-1.3V193.3L77.9,193.3z"/>
	<path d="M81.5,191h-1v-1h1v-2h1.3v1.9h2v1.1h-2v4.5c0,0.8,0.3,1,1.1,1h0.9v1.1h-1.2c-1.4,0-2.1-0.6-2.1-2.1L81.5,191L81.5,191z"/>
	<path d="M89.7,197.8c-2.2,0-3.8-1.5-3.8-4s1.6-3.9,3.8-3.9s3.7,1.6,3.7,3.7c0,0.3,0,0.5,0,0.8h-6.1c0.1,1.6,1.2,2.4,2.5,2.4
		c1.2,0,1.9-0.6,2.2-1.4h1.4C92.8,196.7,91.6,197.8,89.7,197.8L89.7,197.8z M87.2,193.2H92c0-1.5-1.1-2.3-2.4-2.3
		C88.4,190.9,87.3,191.7,87.2,193.2L87.2,193.2z"/>
	<path d="M95.4,197.7c-0.5,0-0.9-0.4-0.9-0.9s0.4-0.9,0.9-0.9s0.8,0.4,0.8,0.9S95.9,197.7,95.4,197.7z"/>
</g>
<rect x="1" y="1.1" class="st0" width="298" height="47"/>
<g>
	<path class="st1" d="M27.1,17.3h-1.4v-2.6H30v10.2h-2.9V17.3z"/>
	<path class="st1" d="M33,25c-1,0-1.6-0.6-1.6-1.4s0.6-1.4,1.6-1.4s1.6,0.6,1.6,1.4S33.9,25,33,25z"/>
	<path class="st1" d="M43.2,25c-2.8,0-5.1-2.1-5.1-5.1s2.3-5.1,5.1-5.1s5.1,2.1,5.1,5.1S46,25,43.2,25z M43.2,22.5
		c1.4,0,2.3-1,2.3-2.5s-0.8-2.5-2.3-2.5s-2.3,1-2.3,2.5S41.8,22.5,43.2,22.5z"/>
	<path class="st1" d="M55.3,17c0.9,0,1.6,0.3,2.1,0.9v-0.8h2.8v11.6h-2.8V24c-0.5,0.6-1.2,1-2.1,1c-1.9,0-3.5-1.6-3.5-4
		S53.4,17,55.3,17z M56,19.4c-0.6,0-1.4,0.5-1.4,1.6s0.8,1.6,1.4,1.6s1.4-0.5,1.4-1.6S56.6,19.4,56,19.4z"/>
	<path class="st1" d="M69.8,24.9H67v-1.1c-0.4,0.7-1.3,1.2-2.4,1.2c-1.8,0-3-1.3-3-3.4V17h2.7v4.2c0,0.9,0.5,1.4,1.3,1.4
		s1.3-0.5,1.3-1.4V17h2.8L69.8,24.9L69.8,24.9z"/>
	<path class="st1" d="M74.9,25c-2.3,0-4-1.5-4-4s1.6-4,4-4s4,1.5,4,3.9c0,0.2,0,0.4,0,0.6h-5.2c0.1,0.9,0.6,1.3,1.2,1.3
		c0.5,0,0.8-0.3,1-0.6h2.9C78.3,23.8,76.8,25,74.9,25L74.9,25z M73.6,20.2H76c0-0.7-0.6-1.1-1.2-1.1S73.7,19.5,73.6,20.2L73.6,20.2z
		"/>
	<path class="st1" d="M86.2,17c2,0,3.4,1.1,3.8,3.1h-2.9c-0.2-0.5-0.5-0.8-1-0.8c-0.7,0-1.1,0.6-1.1,1.7s0.4,1.7,1.1,1.7
		c0.5,0,0.8-0.3,1-0.8H90c-0.4,2-1.8,3.1-3.8,3.1c-2.3,0-4-1.5-4-4S83.8,17,86.2,17z"/>
	<path class="st1" d="M94,17c1.1,0,1.9,0.5,2.3,1.2v-1.1h2.8V25h-2.8v-1.1C95.9,24.5,95.1,25,94,25c-1.9,0-3.3-1.5-3.3-4
		S92.2,17,94,17L94,17z M94.9,19.4c-0.8,0-1.4,0.6-1.4,1.6s0.6,1.6,1.4,1.6s1.4-0.6,1.4-1.6S95.7,19.4,94.9,19.4z"/>
	<path class="st1" d="M103.6,17c1,0,1.8,0.5,2.3,1.2v-3.6h2.8V25h-2.8v-1.1c-0.4,0.7-1.2,1.2-2.3,1.2c-1.9,0-3.3-1.5-3.3-4
		S101.7,17,103.6,17L103.6,17z M104.4,19.4c-0.8,0-1.4,0.6-1.4,1.6s0.6,1.6,1.4,1.6s1.4-0.6,1.4-1.6S105.2,19.4,104.4,19.4z"/>
	<path class="st1" d="M113.1,17c1.1,0,1.9,0.5,2.3,1.2v-1.1h2.8V25h-2.8v-1.1c-0.4,0.7-1.2,1.2-2.3,1.2c-1.9,0-3.3-1.5-3.3-4
		S111.2,17,113.1,17L113.1,17z M113.9,19.4c-0.8,0-1.4,0.6-1.4,1.6s0.6,1.6,1.4,1.6s1.4-0.6,1.4-1.6S114.7,19.4,113.9,19.4z"/>
	<path class="st1" d="M122.1,14.9c0-0.8,0.6-1.4,1.6-1.4s1.6,0.6,1.6,1.4s-0.6,1.4-1.6,1.4S122.1,15.7,122.1,14.9z M122.4,17.1h2.8
		V25h-2.8V17.1z"/>
	<path class="st1" d="M132,20.7c0-0.9-0.5-1.4-1.3-1.4s-1.3,0.5-1.3,1.4v4.2h-2.8V17h2.8v1.1c0.5-0.7,1.3-1.2,2.4-1.2
		c1.8,0,3,1.3,3,3.4v4.6H132V20.7z"/>
	<path class="st1" d="M139.2,17c1,0,1.9,0.5,2.3,1.2v-3.6h2.8V25h-2.8v-1.1c-0.4,0.7-1.2,1.2-2.3,1.2c-1.9,0-3.4-1.5-3.4-4
		S137.3,17,139.2,17L139.2,17z M140.1,19.4c-0.8,0-1.4,0.6-1.4,1.6s0.6,1.6,1.4,1.6s1.4-0.6,1.4-1.6S140.8,19.4,140.1,19.4z"/>
	<path class="st1" d="M145.6,14.9c0-0.8,0.6-1.4,1.6-1.4s1.6,0.6,1.6,1.4s-0.6,1.4-1.6,1.4S145.6,15.7,145.6,14.9z M145.8,17.1h2.8
		V25h-2.8V17.1z"/>
	<path class="st1" d="M153.6,17c2,0,3.4,1.1,3.8,3.1h-2.9c-0.1-0.5-0.5-0.8-1-0.8c-0.7,0-1.1,0.6-1.1,1.7s0.4,1.7,1.1,1.7
		c0.5,0,0.8-0.3,1-0.8h2.9c-0.4,2-1.9,3.1-3.8,3.1c-2.3,0-4-1.5-4-4S151.3,17,153.6,17z"/>
	<path class="st1" d="M161.5,17c1.1,0,1.9,0.5,2.3,1.2v-1.1h2.8V25h-2.8v-1.1c-0.4,0.7-1.2,1.2-2.3,1.2c-1.9,0-3.4-1.5-3.4-4
		S159.6,17,161.5,17L161.5,17z M162.4,19.4c-0.8,0-1.4,0.6-1.4,1.6s0.6,1.6,1.4,1.6s1.4-0.6,1.4-1.6S163.2,19.4,162.4,19.4z"/>
	<path class="st1" d="M171,17c1,0,1.9,0.5,2.3,1.2v-3.6h2.8V25h-2.8v-1.1c-0.4,0.7-1.2,1.2-2.3,1.2c-1.9,0-3.4-1.5-3.4-4
		S169.2,17,171,17L171,17z M171.9,19.4c-0.8,0-1.4,0.6-1.4,1.6s0.6,1.6,1.4,1.6s1.4-0.6,1.4-1.6S172.7,19.4,171.9,19.4z"/>
	<path class="st1" d="M181.3,25c-2.3,0-4.1-1.5-4.1-4s1.8-4,4.1-4s4.1,1.5,4.1,4S183.7,25,181.3,25L181.3,25z M181.3,22.6
		c0.7,0,1.3-0.5,1.3-1.6s-0.6-1.6-1.3-1.6S180,19.9,180,21S180.6,22.6,181.3,22.6L181.3,22.6z"/>
	<path class="st1" d="M189.3,24.9h-2.8V17h2.8v1.4c0.6-0.9,1.5-1.5,2.5-1.5v2.9H191c-1.1,0-1.8,0.4-1.8,1.6L189.3,24.9L189.3,24.9z"
		/>
	<path class="st1" d="M199,25c-2.3,0-4-1.5-4-4s1.6-4,4-4s4,1.5,4,3.9c0,0.2,0,0.4,0,0.6h-5.2c0.1,0.9,0.6,1.3,1.2,1.3
		c0.5,0,0.8-0.3,1-0.6h2.9C202.5,23.8,201,25,199,25L199,25z M197.8,20.2h2.4c0-0.7-0.6-1.1-1.2-1.1S197.9,19.5,197.8,20.2
		L197.8,20.2z"/>
	<path class="st1" d="M207.6,22.9l-1.1,2h-3l2.6-4.1l-2.7-3.8h3.1l1.4,2l1.1-2h3l-2.7,4l2.8,3.9H209L207.6,22.9L207.6,22.9z"/>
	<path class="st1" d="M217.9,17c1.9,0,3.4,1.5,3.4,4s-1.5,4-3.4,4c-1.1,0-1.9-0.5-2.3-1.2v4.9h-2.8V17.1h2.8v1.1
		C216,17.5,216.8,17,217.9,17z M217.1,19.4c-0.8,0-1.4,0.6-1.4,1.6s0.7,1.6,1.4,1.6s1.4-0.6,1.4-1.6S217.8,19.4,217.1,19.4z"/>
	<path class="st1" d="M225.2,24.9h-2.8V17h2.8v1.4c0.6-0.9,1.5-1.5,2.5-1.5v2.9h-0.8c-1.1,0-1.8,0.4-1.8,1.6L225.2,24.9L225.2,24.9z
		"/>
	<path class="st1" d="M232.2,25c-2.3,0-4-1.5-4-4s1.6-4,4-4s4,1.5,4,3.9c0,0.2,0,0.4,0,0.6H231c0.1,0.9,0.6,1.3,1.2,1.3
		c0.5,0,0.8-0.3,1-0.6h2.9C235.6,23.8,234.2,25,232.2,25L232.2,25z M231,20.2h2.4c0-0.7-0.6-1.1-1.2-1.1S231.1,19.5,231,20.2
		L231,20.2z"/>
	<path class="st1" d="M240.6,25c-2.2,0-3.6-1.2-3.8-2.8h2.7c0.1,0.5,0.5,0.8,1.1,0.8c0.5,0,0.7-0.2,0.7-0.5c0-1.1-4.2-0.2-4.2-3.1
		c0-1.4,1.1-2.5,3.3-2.5s3.3,1.2,3.4,2.8h-2.5c-0.1-0.5-0.4-0.8-1-0.8c-0.4,0-0.7,0.2-0.7,0.5c0,1.1,4.2,0.2,4.2,3.2
		C243.9,24,242.7,25,240.6,25L240.6,25z"/>
	<path class="st1" d="M248.6,25c-2.2,0-3.6-1.2-3.8-2.8h2.7c0.1,0.5,0.5,0.8,1.1,0.8c0.5,0,0.7-0.2,0.7-0.5c0-1.1-4.2-0.2-4.2-3.1
		c0-1.4,1.1-2.5,3.3-2.5s3.3,1.2,3.4,2.8h-2.5c-0.1-0.5-0.4-0.8-1-0.8c-0.4,0-0.7,0.2-0.7,0.5c0,1.1,4.2,0.2,4.2,3.2
		C251.9,24,250.6,25,248.6,25L248.6,25z"/>
	<path class="st1" d="M256.1,17c1.1,0,1.9,0.5,2.3,1.2v-1.1h2.8V25h-2.8v-1.1c-0.4,0.7-1.2,1.2-2.3,1.2c-1.9,0-3.4-1.5-3.4-4
		S254.2,17,256.1,17L256.1,17z M257,19.4c-0.8,0-1.4,0.6-1.4,1.6s0.6,1.6,1.4,1.6s1.4-0.6,1.4-1.6S257.8,19.4,257,19.4z"/>
	<path class="st1" d="M265.7,14.3c2,0,3.4,1,3.4,3c0,1.7-1.3,2.8-3.1,2.8l-0.1,1h-2.4l-0.1-2.8h1c1.2,0,2-0.2,2-1
		c0-0.5-0.3-0.8-0.8-0.8s-0.8,0.4-0.8,0.9h-2.6C262.2,15.7,263.4,14.3,265.7,14.3L265.7,14.3z M264.7,25c-1,0-1.6-0.6-1.6-1.4
		s0.6-1.4,1.6-1.4s1.6,0.6,1.6,1.4S265.7,25,264.7,25z"/>
</g>
<g>
	<path class="st0" d="M300,244H0V0h300V244z M2,242h296V2H2V242z"/>
</g>
</svg>
