<?xml version="1.0" encoding="utf-8"?>
<!-- Generator: Adobe Illustrator 26.3.1, SVG Export Plug-In . SVG Version: 6.00 Build 0)  -->
<svg version="1.1" id="Camada_1" xmlns="http://www.w3.org/2000/svg" xmlns:xlink="http://www.w3.org/1999/xlink" x="0px" y="0px"
	 viewBox="0 0 299 243" style="enable-background:new 0 0 299 243;" xml:space="preserve">
<style type="text/css">
	.st0{fill:#1B8992;}
	.st1{fill:#FFFFFF;}
</style>
<g>
	<path d="M34.5,113c-2,0-3.4-1.1-3.4-2.7h1.4c0.1,0.8,0.7,1.6,2,1.6c1.2,0,2-0.7,2-1.6c0-2.6-5.3-0.9-5.3-4.6c0-1.6,1.3-2.7,3.2-2.7
		s3.1,1,3.2,2.5h-1.4c-0.1-0.7-0.7-1.4-1.9-1.4c-1.1,0-1.9,0.5-1.9,1.6c0,2.5,5.3,0.9,5.3,4.6C37.7,111.7,36.6,113.1,34.5,113
		L34.5,113z"/>
	<path d="M39.4,103.2c0-0.5,0.4-0.9,0.9-0.9c0.5,0,0.8,0.4,0.8,0.9s-0.4,0.9-0.8,0.9C39.8,104,39.4,103.6,39.4,103.2z M39.6,105.3
		h1.3v7.7h-1.3V105.3z"/>
	<path d="M54.1,108.6c0-1.6-0.8-2.4-2.1-2.4s-2.2,0.8-2.2,2.5v4.2h-1.3v-4.3c0-1.6-0.8-2.4-2.1-2.4s-2.2,0.8-2.2,2.5v4.2H43v-7.7
		h1.3v1.1c0.5-0.8,1.4-1.2,2.4-1.2c1.3,0,2.3,0.6,2.8,1.7c0.5-1.1,1.5-1.7,2.7-1.7c1.8,0,3.1,1.1,3.1,3.3v4.5h-1.3L54.1,108.6
		L54.1,108.6z"/>
	<path d="M57.4,111.2h1.4l-1.6,3.8h-0.9L57.4,111.2L57.4,111.2z"/>
	<path d="M66.7,113.1c-1.8,0-3-1-3.1-2.4h1.3c0.1,0.7,0.7,1.3,1.8,1.3c1,0,1.6-0.5,1.6-1.1c0-1.7-4.5-0.7-4.5-3.6
		c0-1.2,1.1-2.1,2.8-2.1c1.7,0,2.8,0.9,2.9,2.4h-1.3c-0.1-0.8-0.6-1.3-1.7-1.3c-0.9,0-1.5,0.4-1.5,1.1c0,1.8,4.5,0.8,4.5,3.6
		C69.5,112.1,68.4,113.1,66.7,113.1L66.7,113.1z"/>
	<path d="M74.4,105.1c1.4,0,2.4,0.7,2.9,1.5v-1.4h1.3v7.7h-1.3v-1.4c-0.5,0.8-1.5,1.6-2.9,1.6c-2,0-3.6-1.6-3.6-4
		C70.8,106.7,72.4,105.1,74.4,105.1z M74.7,106.2c-1.4,0-2.6,1-2.6,2.8c0,1.8,1.2,2.9,2.6,2.9s2.6-1.1,2.6-2.9
		S76.1,106.3,74.7,106.2z M74.3,103c0.7,0,1,0.6,1.6,0.6c0.3,0,0.6-0.2,0.6-0.6h0.7c-0.1,0.9-0.7,1.5-1.4,1.5c-0.7,0-1-0.6-1.6-0.6
		c-0.3,0-0.6,0.2-0.6,0.6h-0.7C73,103.5,73.6,103,74.3,103L74.3,103z"/>
	<path d="M84.1,113.1c-2.2,0-3.8-1.5-3.8-4s1.7-3.9,3.9-3.9s3.9,1.5,3.9,3.9S86.3,113.1,84.1,113.1z M84.1,111.9
		c1.3,0,2.6-0.9,2.6-2.9s-1.3-2.8-2.6-2.8c-1.3,0-2.6,0.9-2.6,2.8S82.8,111.9,84.1,111.9z"/>
	<path d="M93.2,103.2c0-0.5,0.4-0.9,0.9-0.9c0.5,0,0.8,0.4,0.8,0.9s-0.4,0.9-0.8,0.9C93.6,104,93.2,103.6,93.2,103.2z M93.4,105.3
		h1.3v7.7h-1.3V105.3z"/>
	<path d="M102.5,108.6c0-1.6-0.9-2.4-2.1-2.4c-1.3,0-2.2,0.8-2.2,2.5v4.2h-1.3v-7.7h1.3v1.1c0.5-0.8,1.4-1.2,2.5-1.2
		c1.8,0,3.1,1.1,3.1,3.3v4.5h-1.3V108.6L102.5,108.6z"/>
	<path d="M109,105.1c1.2,0,2.3,0.6,2.8,1.5v-4.1h1.3V113h-1.3v-1.4c-0.5,0.8-1.5,1.6-2.9,1.6c-2.1,0-3.6-1.6-3.6-4
		C105.4,106.7,106.9,105.2,109,105.1L109,105.1z M109.2,106.2c-1.4,0-2.6,1-2.6,2.8c0,1.8,1.2,2.9,2.6,2.9s2.6-1.1,2.6-2.9
		S110.7,106.3,109.2,106.2z"/>
	<path d="M115.1,103.2c0-0.5,0.4-0.9,0.9-0.9c0.5,0,0.8,0.4,0.8,0.9s-0.4,0.9-0.8,0.9C115.5,104,115.1,103.6,115.1,103.2z
		 M115.3,105.3h1.3v7.7h-1.3V105.3z"/>
	<path d="M122,105.1c1.9,0,3.2,1,3.5,2.6h-1.4c-0.3-0.9-1-1.5-2.2-1.5c-1.4,0-2.4,1-2.4,2.9s1,2.9,2.4,2.9c1.1,0,1.9-0.6,2.2-1.5
		h1.4c-0.4,1.5-1.6,2.6-3.5,2.6c-2.2,0-3.7-1.5-3.7-4S119.8,105.1,122,105.1z"/>
	<path d="M130.4,105.1c1.4,0,2.4,0.7,2.9,1.5v-1.4h1.3v7.7h-1.3v-1.4c-0.5,0.8-1.5,1.6-2.9,1.6c-2,0-3.6-1.6-3.6-4
		C126.8,106.7,128.3,105.1,130.4,105.1z M130.7,106.2c-1.4,0-2.6,1-2.6,2.8c0,1.8,1.2,2.9,2.6,2.9s2.6-1.1,2.6-2.9
		S132.1,106.3,130.7,106.2z"/>
	<path d="M139.9,105.1c1.2,0,2.3,0.6,2.8,1.5v-4.1h1.3V113h-1.3v-1.4c-0.5,0.8-1.5,1.6-2.9,1.6c-2.1,0-3.6-1.6-3.6-4
		C136.2,106.7,137.8,105.2,139.9,105.1L139.9,105.1z M140.1,106.2c-1.4,0-2.6,1-2.6,2.8c0,1.8,1.2,2.9,2.6,2.9s2.6-1.1,2.6-2.9
		S141.5,106.3,140.1,106.2z"/>
	<path d="M149.5,113.1c-2.2,0-3.8-1.5-3.8-4s1.7-3.9,3.9-3.9s3.9,1.5,3.9,3.9S151.7,113.1,149.5,113.1z M149.5,111.9
		c1.3,0,2.6-0.9,2.6-2.9s-1.3-2.8-2.6-2.8s-2.6,0.9-2.6,2.8S148.2,111.9,149.5,111.9L149.5,111.9z"/>
	<path d="M156.4,112.9h-1.3v-7.7h1.3v1.2c0.4-0.8,1.3-1.4,2.5-1.4v1.3h-0.3c-1.2,0-2.1,0.6-2.1,2.3V112.9z"/>
	<path d="M163.7,113.1c-2.2,0-3.8-1.5-3.8-4s1.6-3.9,3.8-3.9s3.7,1.6,3.7,3.7c0,0.3,0,0.5,0,0.8h-6.1c0.1,1.6,1.2,2.4,2.5,2.4
		c1.1,0,1.9-0.6,2.2-1.4h1.4C166.8,112,165.6,113.1,163.7,113.1z M161.2,108.5h4.9c0-1.5-1.1-2.3-2.4-2.3
		C162.4,106.2,161.3,107,161.2,108.5L161.2,108.5z"/>
	<path d="M171.7,113.1c-1.8,0-3.1-1-3.1-2.4h1.3c0.1,0.7,0.7,1.3,1.8,1.3c1,0,1.6-0.5,1.6-1.1c0-1.7-4.5-0.7-4.5-3.6
		c0-1.2,1.1-2.1,2.8-2.1s2.8,0.9,2.9,2.4h-1.3c-0.1-0.8-0.6-1.3-1.7-1.3c-0.9,0-1.5,0.4-1.5,1.1c0,1.8,4.5,0.8,4.5,3.6
		C174.6,112.1,173.4,113.1,171.7,113.1L171.7,113.1z"/>
	<path d="M183.3,105.1c1.4,0,2.4,0.7,2.8,1.5v-1.4h1.3v11.3h-1.3v-5.1c-0.4,0.8-1.5,1.5-2.9,1.5c-2,0-3.6-1.6-3.6-4
		C179.6,106.7,181.2,105.1,183.3,105.1z M183.5,106.2c-1.4,0-2.6,1-2.6,2.8c0,1.8,1.2,2.9,2.6,2.9s2.6-1.1,2.6-2.9
		S184.9,106.3,183.5,106.2z"/>
	<path d="M196.3,112.9h-1.3v-1.1c-0.5,0.8-1.4,1.2-2.4,1.2c-1.8,0-3.1-1.1-3.1-3.3v-4.5h1.3v4.3c0,1.6,0.9,2.3,2.1,2.3
		s2.2-0.8,2.2-2.5v-4.2h1.3V112.9z"/>
	<path d="M201.8,113.1c-2.2,0-3.8-1.5-3.8-4s1.6-3.9,3.8-3.9s3.7,1.6,3.7,3.7c0,0.3,0,0.5,0,0.8h-6.1c0.1,1.6,1.2,2.4,2.5,2.4
		c1.1,0,1.9-0.6,2.2-1.4h1.4C205,112,203.7,113.1,201.8,113.1z M199.3,108.5h4.9c0-1.5-1.1-2.3-2.4-2.3
		C200.5,106.2,199.5,107,199.3,108.5L199.3,108.5z"/>
	<path d="M215.1,105.1c2.1,0,3.6,1.5,3.6,3.9c0,2.4-1.6,4-3.6,4c-1.4,0-2.4-0.8-2.9-1.5v5.1h-1.3v-11.3h1.3v1.4
		C212.7,105.9,213.7,105.1,215.1,105.1L215.1,105.1z M214.8,106.2c-1.4,0-2.6,1.1-2.6,2.8s1.2,2.9,2.6,2.9s2.6-1.1,2.6-2.9
		C217.4,107.3,216.2,106.2,214.8,106.2z"/>
	<path d="M223.7,113.1c-2.2,0-3.8-1.5-3.8-4s1.7-3.9,3.9-3.9s3.9,1.5,3.9,3.9S225.9,113.1,223.7,113.1z M223.7,111.9
		c1.3,0,2.6-0.9,2.6-2.9s-1.3-2.8-2.6-2.8s-2.6,0.9-2.6,2.8S222.4,111.9,223.7,111.9L223.7,111.9z"/>
	<path d="M232.5,105.1c1.2,0,2.3,0.6,2.8,1.5v-4.1h1.3V113h-1.3v-1.4c-0.5,0.8-1.5,1.6-2.9,1.6c-2.1,0-3.6-1.6-3.6-4
		C228.9,106.7,230.4,105.2,232.5,105.1L232.5,105.1z M232.8,106.2c-1.4,0-2.6,1-2.6,2.8c0,1.8,1.2,2.9,2.6,2.9s2.6-1.1,2.6-2.9
		S234.2,106.3,232.8,106.2z"/>
	<path d="M242.1,113.1c-2.2,0-3.8-1.5-3.8-4s1.6-3.9,3.8-3.9s3.7,1.6,3.7,3.7c0,0.3,0,0.5,0,0.8h-6.1c0.1,1.6,1.2,2.4,2.5,2.4
		c1.1,0,1.9-0.6,2.2-1.4h1.4C245.3,112,244,113.1,242.1,113.1z M239.6,108.5h4.9c0-1.5-1.1-2.3-2.4-2.3
		C240.8,106.2,239.8,107,239.6,108.5L239.6,108.5z"/>
	<path d="M258.6,108.6c0-1.6-0.8-2.4-2.1-2.4c-1.3,0-2.2,0.8-2.2,2.5v4.2H253v-4.3c0-1.6-0.8-2.4-2.1-2.4s-2.2,0.8-2.2,2.5v4.2h-1.3
		v-7.7h1.3v1.1c0.5-0.8,1.4-1.2,2.4-1.2c1.3,0,2.3,0.6,2.8,1.7c0.4-1.1,1.5-1.7,2.7-1.7c1.8,0,3.1,1.1,3.1,3.3v4.5h-1.3V108.6
		L258.6,108.6z"/>
	<path d="M32.6,129.7h-1.3v-7.7h1.3v1.2c0.4-0.8,1.3-1.4,2.5-1.4v1.3h-0.3c-1.2,0-2.1,0.6-2.1,2.3V129.7z"/>
	<path d="M39.9,129.9c-2.2,0-3.8-1.5-3.8-4s1.5-3.9,3.8-3.9s3.7,1.6,3.7,3.7c0,0.3,0,0.5,0,0.8h-6.1c0.1,1.6,1.2,2.4,2.5,2.4
		c1.2,0,1.9-0.6,2.2-1.4h1.4C43.1,128.8,41.8,129.9,39.9,129.9z M37.4,125.3h4.8c0-1.5-1.1-2.3-2.4-2.3
		C38.6,123,37.6,123.8,37.4,125.3L37.4,125.3z"/>
	<path d="M49.4,121.9c2.1,0,3.6,1.5,3.6,3.9c0,2.4-1.6,4-3.6,4c-1.4,0-2.4-0.8-2.9-1.5v5.1h-1.3v-11.3h1.3v1.4
		C47,122.7,48,121.9,49.4,121.9L49.4,121.9z M49.1,123.1c-1.4,0-2.6,1.1-2.6,2.8s1.2,2.9,2.6,2.9s2.6-1.1,2.6-2.9
		C51.8,124.1,50.6,123,49.1,123.1z"/>
	<path d="M56,129.7h-1.3v-7.7H56v1.2c0.4-0.8,1.3-1.4,2.5-1.4v1.3h-0.3c-1.2,0-2.1,0.6-2.1,2.3V129.7z"/>
	<path d="M63.3,129.9c-2.2,0-3.8-1.5-3.8-4s1.5-3.9,3.8-3.9c2.2,0,3.7,1.6,3.7,3.7c0,0.3,0,0.5,0,0.8h-6.1c0.1,1.6,1.2,2.4,2.5,2.4
		c1.2,0,1.9-0.6,2.2-1.4h1.4C66.4,128.8,65.2,129.9,63.3,129.9z M60.8,125.3h4.8c0-1.5-1.1-2.3-2.4-2.3
		C62,123,60.9,123.8,60.8,125.3L60.8,125.3z"/>
	<path d="M71.4,129.9c-1.8,0-3.1-1-3.1-2.4h1.3c0.1,0.7,0.7,1.3,1.8,1.3c1,0,1.6-0.5,1.6-1.1c0-1.7-4.5-0.7-4.5-3.6
		c0-1.2,1.1-2.1,2.8-2.1c1.7,0,2.8,0.9,2.9,2.4h-1.3c-0.1-0.8-0.6-1.3-1.7-1.3c-0.9,0-1.5,0.4-1.5,1.1c0,1.8,4.4,0.8,4.5,3.6
		C74.2,128.9,73.1,129.9,71.4,129.9L71.4,129.9z"/>
	<path d="M79.3,129.9c-2.2,0-3.8-1.5-3.8-4s1.6-3.9,3.8-3.9s3.7,1.6,3.7,3.7c0,0.3,0,0.5,0,0.8h-6.1c0.1,1.6,1.2,2.4,2.5,2.4
		c1.2,0,1.9-0.6,2.2-1.4h1.4C82.4,128.8,81.2,129.9,79.3,129.9L79.3,129.9z M76.8,125.3h4.9c0-1.5-1.1-2.3-2.4-2.3
		C78,123,76.9,123.8,76.8,125.3L76.8,125.3z"/>
	<path d="M90.2,125.4c0-1.6-0.9-2.4-2.1-2.4c-1.3,0-2.2,0.8-2.2,2.5v4.2h-1.3v-7.7h1.3v1.1c0.5-0.8,1.4-1.2,2.5-1.2
		c1.8,0,3.1,1.1,3.1,3.3v4.5h-1.3V125.4L90.2,125.4z"/>
	<path d="M93.9,123.1h-1v-1.1h1v-1.9h1.3v1.9h2v1.1h-2v4.5c0,0.8,0.3,1,1.1,1h0.9v1.1H96c-1.4,0-2.1-0.6-2.1-2.1V123.1z"/>
	<path d="M101.8,121.9c1.4,0,2.4,0.7,2.9,1.5v-1.4h1.3v7.7h-1.3v-1.4c-0.5,0.8-1.5,1.6-2.9,1.6c-2.1,0-3.6-1.6-3.6-4
		C98.2,123.5,99.8,121.9,101.8,121.9z M102.1,123.1c-1.4,0-2.6,1-2.6,2.8c0,1.8,1.2,2.9,2.6,2.9s2.6-1.1,2.6-2.9
		S103.5,123.1,102.1,123.1z"/>
	<path d="M109.4,129.7h-1.3v-7.7h1.3v1.2c0.4-0.8,1.3-1.4,2.5-1.4v1.3h-0.3c-1.2,0-2.1,0.6-2.1,2.3
		C109.4,125.6,109.4,129.7,109.4,129.7z"/>
	<path d="M120.3,121.9c1.4,0,2.4,0.7,2.9,1.5v-1.4h1.3v7.7h-1.3v-1.4c-0.5,0.8-1.5,1.6-2.9,1.6c-2,0-3.6-1.6-3.6-4
		C116.6,123.5,118.2,121.9,120.3,121.9z M120.5,123.1c-1.4,0-2.6,1-2.6,2.8c0,1.8,1.2,2.9,2.6,2.9s2.6-1.1,2.6-2.9
		S121.9,123.1,120.5,123.1z"/>
	<path d="M133.5,121.9c1.4,0,2.4,0.7,2.8,1.5v-1.4h1.3v11.3h-1.3v-5.1c-0.4,0.8-1.5,1.5-2.9,1.5c-2,0-3.6-1.6-3.6-4
		C129.8,123.5,131.4,121.9,133.5,121.9z M133.7,123.1c-1.4,0-2.6,1-2.6,2.8c0,1.8,1.2,2.9,2.6,2.9s2.6-1.1,2.6-2.9
		S135.1,123.1,133.7,123.1z"/>
	<path d="M146.6,129.7h-1.3v-1.1c-0.5,0.8-1.4,1.2-2.4,1.2c-1.8,0-3.1-1.1-3.1-3.3v-4.5h1.3v4.3c0,1.6,0.9,2.3,2.1,2.3
		s2.2-0.8,2.2-2.5v-4.2h1.3V129.7z"/>
	<path d="M151.9,121.9c1.4,0,2.4,0.7,2.9,1.5v-1.4h1.3v7.7h-1.3v-1.4c-0.5,0.8-1.5,1.6-2.9,1.6c-2,0-3.6-1.6-3.6-4
		C148.3,123.5,149.8,121.9,151.9,121.9z M152.1,123.1c-1.4,0-2.6,1-2.6,2.8c0,1.8,1.2,2.9,2.6,2.9s2.6-1.1,2.6-2.9
		S153.5,123.1,152.1,123.1z"/>
	<path d="M158.2,119.4h1.3v10.4h-1.3V119.4z"/>
	<path d="M161.4,119.9c0-0.5,0.4-0.9,0.9-0.9c0.5,0,0.8,0.4,0.8,0.9s-0.4,0.9-0.8,0.9C161.8,120.8,161.4,120.4,161.4,119.9z
		 M161.6,122.1h1.3v7.7h-1.3V122.1z"/>
	<path d="M168.3,121.9c1.2,0,2.3,0.6,2.8,1.5v-4.1h1.3v10.4h-1.3v-1.4c-0.5,0.9-1.5,1.6-2.9,1.6c-2.1,0-3.6-1.6-3.6-4
		C164.6,123.5,166.2,121.9,168.3,121.9L168.3,121.9z M168.5,123.1c-1.4,0-2.6,1-2.6,2.8c0,1.8,1.2,2.9,2.6,2.9s2.6-1.1,2.6-2.9
		S169.9,123.1,168.5,123.1z"/>
	<path d="M177.7,121.9c1.4,0,2.4,0.7,2.9,1.5v-1.4h1.3v7.7h-1.3v-1.4c-0.5,0.8-1.5,1.6-2.9,1.6c-2,0-3.6-1.6-3.6-4
		C174.1,123.5,175.6,121.9,177.7,121.9z M178,123.1c-1.4,0-2.6,1-2.6,2.8c0,1.8,1.2,2.9,2.6,2.9s2.6-1.1,2.6-2.9
		S179.4,123.1,178,123.1z"/>
	<path d="M187.2,121.9c1.2,0,2.3,0.6,2.8,1.5v-4.1h1.3v10.4H190v-1.4c-0.5,0.9-1.5,1.6-2.9,1.6c-2.1,0-3.6-1.6-3.6-4
		C183.5,123.5,185.1,121.9,187.2,121.9L187.2,121.9z M187.4,123.1c-1.4,0-2.6,1-2.6,2.8c0,1.8,1.2,2.9,2.6,2.9s2.6-1.1,2.6-2.9
		S188.8,123.1,187.4,123.1z"/>
	<path d="M196.8,129.9c-2.2,0-3.8-1.5-3.8-4s1.6-3.9,3.8-3.9s3.7,1.6,3.7,3.7c0,0.3,0,0.5,0,0.8h-6.1c0.1,1.6,1.2,2.4,2.5,2.4
		c1.1,0,1.9-0.6,2.2-1.4h1.4C199.9,128.8,198.7,129.9,196.8,129.9z M194.3,125.3h4.9c0-1.5-1.1-2.3-2.4-2.3
		C195.5,123,194.5,123.8,194.3,125.3L194.3,125.3z"/>
	<path d="M209.1,121.9c1.2,0,2.3,0.6,2.8,1.5v-4.1h1.3v10.4h-1.3v-1.4c-0.5,0.9-1.5,1.6-2.9,1.6c-2.1,0-3.6-1.6-3.6-4
		C205.4,123.5,207,121.9,209.1,121.9L209.1,121.9z M209.3,123.1c-1.4,0-2.6,1-2.6,2.8c0,1.8,1.2,2.9,2.6,2.9s2.6-1.1,2.6-2.9
		S210.7,123.1,209.3,123.1z"/>
	<path d="M218.7,129.9c-2.2,0-3.8-1.5-3.8-4s1.6-3.9,3.8-3.9s3.7,1.6,3.7,3.7c0,0.3,0,0.5,0,0.8h-6.1c0.1,1.6,1.2,2.4,2.5,2.4
		c1.1,0,1.9-0.6,2.2-1.4h1.4C221.8,128.8,220.6,129.9,218.7,129.9z M216.2,125.3h4.9c0-1.5-1.1-2.3-2.4-2.3
		C217.4,123,216.3,123.8,216.2,125.3L216.2,125.3z"/>
	<path d="M34.6,138.7c1.9,0,3.2,1,3.5,2.6h-1.4c-0.3-0.9-1-1.5-2.2-1.5c-1.4,0-2.4,1-2.4,2.9s1,2.9,2.4,2.9c1.1,0,1.9-0.6,2.2-1.5
		h1.4c-0.4,1.5-1.6,2.6-3.5,2.6c-2.2,0-3.7-1.5-3.7-4S32.4,138.7,34.6,138.7z"/>
	<path d="M46.7,146.5h-1.3v-1.1c-0.5,0.8-1.4,1.2-2.5,1.2c-1.8,0-3.2-1.1-3.2-3.3v-4.5h1.3v4.3c0,1.6,0.8,2.3,2.1,2.3
		s2.2-0.8,2.2-2.5v-4.2h1.3C46.7,138.9,46.7,146.5,46.7,146.5z"/>
	<path d="M48.6,136.8c0-0.5,0.4-0.9,0.9-0.9c0.5,0,0.8,0.4,0.8,0.9s-0.4,0.9-0.8,0.9C49,137.6,48.6,137.2,48.6,136.8z M48.8,138.9
		h1.3v7.7h-1.3V138.9z"/>
	<path d="M55.5,138.7c1.2,0,2.3,0.6,2.8,1.5v-4.1h1.3v10.4h-1.3v-1.4c-0.5,0.9-1.5,1.6-2.9,1.6c-2.1,0-3.6-1.6-3.6-4
		C51.8,140.3,53.4,138.8,55.5,138.7L55.5,138.7z M55.7,139.9c-1.4,0-2.6,1-2.6,2.8c0,1.8,1.2,2.9,2.6,2.9s2.6-1.1,2.6-2.9
		S57.1,139.9,55.7,139.9z"/>
	<path d="M64.9,138.7c1.4,0,2.4,0.7,2.9,1.5v-1.4h1.3v7.7h-1.3v-1.4c-0.5,0.8-1.5,1.6-2.9,1.6c-2,0-3.6-1.6-3.6-4
		C61.3,140.3,62.8,138.7,64.9,138.7z M65.2,139.9c-1.4,0-2.6,1-2.6,2.8c0,1.8,1.2,2.9,2.6,2.9c1.4,0,2.6-1.1,2.6-2.9
		S66.6,139.9,65.2,139.9z"/>
	<path d="M74.4,138.7c1.2,0,2.3,0.6,2.8,1.5v-4.1h1.3v10.4h-1.3v-1.4c-0.5,0.9-1.5,1.6-2.9,1.6c-2.1,0-3.6-1.6-3.6-4
		C70.7,140.3,72.3,138.8,74.4,138.7L74.4,138.7z M74.6,139.9c-1.4,0-2.6,1-2.6,2.8c0,1.8,1.2,2.9,2.6,2.9s2.6-1.1,2.6-2.9
		S76,139.9,74.6,139.9z"/>
	<path d="M84,146.7c-2.2,0-3.8-1.5-3.8-4s1.7-3.9,3.9-3.9s3.9,1.5,3.9,3.9S86.2,146.7,84,146.7z M84,145.5c1.3,0,2.6-0.9,2.6-2.9
		s-1.3-2.8-2.6-2.8s-2.6,0.9-2.6,2.8S82.7,145.5,84,145.5z"/>
	<path d="M104.4,142.2c0-1.6-0.8-2.4-2.1-2.4c-1.3,0-2.2,0.8-2.2,2.5v4.2h-1.3v-4.3c0-1.6-0.8-2.4-2.1-2.4c-1.3,0-2.2,0.8-2.2,2.5
		v4.2h-1.3v-7.7h1.3v1.1c0.5-0.8,1.4-1.2,2.4-1.2c1.3,0,2.3,0.6,2.8,1.7c0.4-1.1,1.5-1.7,2.7-1.7c1.8,0,3.1,1.1,3.1,3.3v4.5h-1.3
		L104.4,142.2L104.4,142.2z"/>
	<path d="M110.9,138.7c1.4,0,2.4,0.7,2.9,1.5v-1.4h1.3v7.7h-1.3v-1.4c-0.5,0.8-1.5,1.6-2.9,1.6c-2,0-3.6-1.6-3.6-4
		C107.3,140.3,108.9,138.7,110.9,138.7z M111.2,139.9c-1.4,0-2.6,1-2.6,2.8c0,1.8,1.2,2.9,2.6,2.9s2.6-1.1,2.6-2.9
		S112.6,139.9,111.2,139.9z"/>
	<path d="M117.5,139.9h-1v-1.1h1v-1.9h1.3v1.9h2v1.1h-2v4.5c0,0.8,0.3,1,1.1,1h0.9v1.1h-1.1c-1.4,0-2.1-0.6-2.1-2.1L117.5,139.9
		L117.5,139.9z"/>
	<path d="M125.7,146.7c-2.2,0-3.8-1.5-3.8-4s1.6-3.9,3.8-3.9s3.7,1.6,3.7,3.7c0,0.3,0,0.5,0,0.8h-6.1c0.1,1.6,1.2,2.4,2.5,2.4
		c1.1,0,1.9-0.6,2.2-1.4h1.4C128.8,145.6,127.6,146.7,125.7,146.7L125.7,146.7z M123.2,142.1h4.8c0-1.5-1.1-2.3-2.4-2.3
		C124.4,139.8,123.3,140.6,123.2,142.1L123.2,142.1z"/>
	<path d="M132.3,146.5H131v-7.7h1.3v1.2c0.4-0.8,1.3-1.4,2.5-1.4v1.3h-0.3c-1.2,0-2.1,0.6-2.1,2.3V146.5z"/>
	<path d="M141.9,142.2c0-1.6-0.9-2.4-2.1-2.4s-2.2,0.8-2.2,2.5v4.2h-1.3v-7.7h1.3v1.1c0.5-0.8,1.4-1.2,2.5-1.2
		c1.8,0,3.1,1.1,3.1,3.3v4.5h-1.3L141.9,142.2L141.9,142.2z"/>
	<path d="M148.6,146.7c-2.2,0-3.8-1.5-3.8-4s1.7-3.9,3.9-3.9s3.9,1.5,3.9,3.9S150.7,146.7,148.6,146.7z M148.6,145.5
		c1.3,0,2.6-0.9,2.6-2.9s-1.3-2.8-2.6-2.8s-2.6,0.9-2.6,2.8S147.2,145.5,148.6,145.5L148.6,145.5z"/>
	<path d="M153.9,140.9h5.6v1.1h-5.6V140.9z"/>
	<path d="M161.7,136.8c0-0.5,0.4-0.9,0.9-0.9c0.5,0,0.8,0.4,0.8,0.9s-0.4,0.9-0.8,0.9C162,137.6,161.7,137.2,161.7,136.8z
		 M161.9,138.9h1.3v7.7h-1.3V138.9z"/>
	<path d="M170.9,142.2c0-1.6-0.9-2.4-2.1-2.4s-2.2,0.8-2.2,2.5v4.2h-1.3v-7.7h1.3v1.1c0.5-0.8,1.4-1.2,2.5-1.2
		c1.8,0,3.1,1.1,3.1,3.3v4.5h-1.3L170.9,142.2L170.9,142.2z"/>
	<path d="M174.5,139.9h-1v-1.1h1v-0.6c0-1.7,0.8-2.5,2.8-2.5v1.1c-1.1,0-1.5,0.4-1.5,1.4v0.6h1.6v1.1h-1.6v6.6h-1.3L174.5,139.9
		L174.5,139.9z"/>
	<path d="M182.1,138.7c1.4,0,2.4,0.7,2.9,1.5v-1.4h1.3v7.7h-1.3v-1.4c-0.5,0.8-1.5,1.6-2.9,1.6c-2,0-3.6-1.6-3.6-4
		C178.4,140.3,180,138.7,182.1,138.7z M182.3,139.9c-1.4,0-2.6,1-2.6,2.8c0,1.8,1.2,2.9,2.6,2.9s2.6-1.1,2.6-2.9
		S183.7,139.9,182.3,139.9z"/>
	<path d="M194,142.2c0-1.6-0.9-2.4-2.1-2.4s-2.2,0.8-2.2,2.5v4.2h-1.3v-7.7h1.3v1.1c0.5-0.8,1.4-1.2,2.5-1.2c1.8,0,3.1,1.1,3.1,3.3
		v4.5H194L194,142.2L194,142.2z"/>
	<path d="M197.6,139.9h-1v-1.1h1v-1.9h1.3v1.9h2v1.1h-2v4.5c0,0.8,0.3,1,1.1,1h0.9v1.1h-1.1c-1.4,0-2.1-0.6-2.1-2.1V139.9z"/>
	<path d="M202.2,136.8c0-0.5,0.4-0.9,0.9-0.9c0.5,0,0.8,0.4,0.8,0.9s-0.4,0.9-0.8,0.9C202.6,137.6,202.2,137.2,202.2,136.8z
		 M202.4,138.9h1.3v7.7h-1.3V138.9z"/>
	<path d="M205.8,136.2h1.3v10.4h-1.3V136.2z"/>
	<path d="M209.7,146.6c-0.5,0-0.9-0.4-0.9-0.9s0.4-0.9,0.9-0.9c0.5,0,0.8,0.4,0.8,0.9S210.1,146.6,209.7,146.6z"/>
	<path d="M34.5,153.6c2.3,0,3.4,1.3,3.4,2.9c0,1.2-0.7,2.4-2.3,2.8l2.5,4.1h-1.5l-2.3-4h-1.5v4h-1.3v-9.8H34.5L34.5,153.6z
		 M34.5,154.6h-1.9v3.7h1.9c1.4,0,2.1-0.8,2.1-1.9S36,154.6,34.5,154.6z"/>
	<path d="M43.2,163.5c-2.2,0-3.8-1.5-3.8-4s1.5-3.9,3.8-3.9s3.7,1.6,3.7,3.7c0,0.3,0,0.5,0,0.8h-6.1c0.1,1.6,1.2,2.4,2.5,2.4
		c1.2,0,1.9-0.6,2.2-1.4h1.4C46.3,162.4,45.1,163.5,43.2,163.5L43.2,163.5z M40.7,158.9h4.8c0-1.5-1.1-2.3-2.4-2.3
		C41.9,156.6,40.9,157.4,40.7,158.9L40.7,158.9z"/>
	<path d="M52.7,155.5c2.1,0,3.6,1.5,3.6,3.9s-1.6,4-3.6,4c-1.4,0-2.4-0.8-2.9-1.5v5.1h-1.3v-11.3h1.3v1.4
		C50.3,156.3,51.3,155.6,52.7,155.5L52.7,155.5z M52.4,156.7c-1.4,0-2.6,1.1-2.6,2.8s1.2,2.9,2.6,2.9s2.6-1.1,2.6-2.9
		S53.9,156.7,52.4,156.7z"/>
	<path d="M59.3,163.3H58v-7.7h1.3v1.2c0.4-0.9,1.3-1.4,2.5-1.4v1.3h-0.3c-1.2,0-2.1,0.6-2.1,2.3V163.3L59.3,163.3z"/>
	<path d="M66.6,163.5c-2.2,0-3.8-1.5-3.8-4s1.5-3.9,3.8-3.9c2.3,0,3.7,1.6,3.7,3.7c0,0.3,0,0.5,0,0.8h-6.1c0.1,1.6,1.2,2.4,2.5,2.4
		c1.2,0,1.9-0.6,2.2-1.4h1.4C69.7,162.4,68.5,163.5,66.6,163.5L66.6,163.5z M64.1,158.9h4.9c0-1.5-1.1-2.3-2.4-2.3
		C65.3,156.6,64.2,157.4,64.1,158.9L64.1,158.9z"/>
	<path d="M74.6,163.5c-1.8,0-3.1-1-3.1-2.4h1.3c0.1,0.7,0.7,1.3,1.8,1.3c1,0,1.6-0.5,1.6-1.1c0-1.7-4.5-0.7-4.5-3.6
		c0-1.2,1.1-2.1,2.8-2.1s2.8,0.9,2.9,2.4h-1.3c-0.1-0.8-0.6-1.3-1.7-1.3c-0.9,0-1.5,0.4-1.5,1.1c0,1.8,4.5,0.8,4.5,3.6
		C77.4,162.5,76.3,163.5,74.6,163.5L74.6,163.5z"/>
	<path d="M82.6,163.5c-2.2,0-3.8-1.5-3.8-4s1.6-3.9,3.8-3.9c2.2,0,3.7,1.6,3.7,3.7c0,0.3,0,0.5,0,0.8h-6.1c0.1,1.6,1.2,2.4,2.5,2.4
		c1.2,0,1.9-0.6,2.2-1.4h1.4C85.7,162.4,84.5,163.5,82.6,163.5L82.6,163.5z M80.1,158.9h4.8c0-1.5-1.1-2.3-2.4-2.3
		C81.2,156.6,80.2,157.4,80.1,158.9L80.1,158.9z"/>
	<path d="M93.5,159c0-1.6-0.8-2.4-2.1-2.4c-1.3,0-2.2,0.8-2.2,2.5v4.2h-1.3v-7.7h1.3v1.1c0.5-0.8,1.4-1.2,2.5-1.2
		c1.8,0,3.1,1.1,3.1,3.3v4.5h-1.3V159L93.5,159z"/>
	<path d="M97.2,156.7h-1v-1.1h1v-1.9h1.3v1.9h2v1.1h-2v4.5c0,0.8,0.3,1,1.1,1h0.9v1.1h-1.1c-1.4,0-2.1-0.6-2.1-2.1L97.2,156.7
		L97.2,156.7z"/>
	<path d="M105.1,155.5c1.4,0,2.4,0.7,2.9,1.5v-1.4h1.3v7.7H108v-1.4c-0.5,0.8-1.5,1.6-2.9,1.6c-2,0-3.6-1.6-3.6-4
		S103.1,155.5,105.1,155.5z M105.4,156.7c-1.4,0-2.6,1-2.6,2.8s1.2,2.9,2.6,2.9s2.6-1.1,2.6-2.9S106.8,156.7,105.4,156.7z"/>
	<path d="M122.5,159c0-1.6-0.8-2.4-2.1-2.4c-1.3,0-2.2,0.8-2.2,2.5v4.2H117V159c0-1.6-0.8-2.4-2.1-2.4c-1.3,0-2.2,0.8-2.2,2.5v4.2
		h-1.3v-7.7h1.3v1.1c0.5-0.8,1.4-1.2,2.4-1.2c1.3,0,2.3,0.6,2.8,1.7c0.4-1.1,1.5-1.7,2.7-1.7c1.8,0,3.1,1.1,3.1,3.3v4.5h-1.3
		L122.5,159L122.5,159z"/>
	<path d="M132.8,155.5c1.4,0,2.4,0.7,2.9,1.5v-1.4h1.3v7.7h-1.3v-1.4c-0.5,0.8-1.5,1.6-2.9,1.6c-2,0-3.6-1.6-3.6-4
		S130.7,155.5,132.8,155.5L132.8,155.5z M133,156.7c-1.4,0-2.6,1-2.6,2.8s1.2,2.9,2.6,2.9s2.6-1.1,2.6-2.9S134.4,156.7,133,156.7z"
		/>
	<path d="M146,155.5c1.4,0,2.4,0.7,2.8,1.5v-1.4h1.3V167h-1.3v-5.1c-0.4,0.8-1.5,1.5-2.9,1.5c-2,0-3.6-1.6-3.6-4
		S143.9,155.5,146,155.5z M146.2,156.7c-1.4,0-2.6,1-2.6,2.8s1.2,2.9,2.6,2.9s2.6-1.1,2.6-2.9S147.6,156.7,146.2,156.7z"/>
	<path d="M159.1,163.3h-1.3v-1.1c-0.5,0.8-1.4,1.2-2.4,1.2c-1.8,0-3.1-1.1-3.1-3.3v-4.5h1.3v4.3c0,1.6,0.9,2.4,2.1,2.4
		s2.2-0.8,2.2-2.5v-4.2h1.3V163.3L159.1,163.3z"/>
	<path d="M164.4,155.5c1.4,0,2.4,0.7,2.9,1.5v-1.4h1.3v7.7h-1.3v-1.4c-0.5,0.8-1.5,1.6-2.9,1.6c-2,0-3.6-1.6-3.6-4
		S162.3,155.5,164.4,155.5z M164.6,156.7c-1.4,0-2.6,1-2.6,2.8s1.2,2.9,2.6,2.9s2.6-1.1,2.6-2.9S166,156.7,164.6,156.7z"/>
	<path d="M170.7,153h1.3v10.4h-1.3V153z"/>
	<path d="M173.9,153.6c0-0.5,0.4-0.9,0.9-0.9c0.5,0,0.8,0.4,0.8,0.9s-0.4,0.9-0.8,0.9C174.3,154.4,173.9,154,173.9,153.6z
		 M174.1,155.7h1.3v7.7h-1.3V155.7z"/>
	<path d="M180.7,155.5c1.2,0,2.3,0.6,2.8,1.5V153h1.3v10.4h-1.3v-1.4c-0.5,0.9-1.5,1.6-2.9,1.6c-2.1,0-3.6-1.6-3.6-4
		S178.7,155.6,180.7,155.5L180.7,155.5z M181,156.7c-1.4,0-2.6,1-2.6,2.8s1.2,2.9,2.6,2.9s2.6-1.1,2.6-2.9S182.4,156.7,181,156.7z"
		/>
	<path d="M190.2,155.5c1.4,0,2.4,0.7,2.9,1.5v-1.4h1.3v7.7h-1.3v-1.4c-0.5,0.8-1.5,1.6-2.9,1.6c-2,0-3.6-1.6-3.6-4
		S188.1,155.5,190.2,155.5z M190.4,156.7c-1.4,0-2.6,1-2.6,2.8s1.2,2.9,2.6,2.9s2.6-1.1,2.6-2.9S191.8,156.7,190.4,156.7z"/>
	<path d="M199.7,155.5c1.2,0,2.3,0.6,2.8,1.5V153h1.3v10.4h-1.3v-1.4c-0.5,0.9-1.5,1.6-2.9,1.6c-2.1,0-3.6-1.6-3.6-4
		S197.6,155.6,199.7,155.5L199.7,155.5z M199.9,156.7c-1.4,0-2.6,1-2.6,2.8s1.2,2.9,2.6,2.9s2.6-1.1,2.6-2.9
		S201.3,156.7,199.9,156.7z"/>
	<path d="M209.3,163.5c-2.2,0-3.8-1.5-3.8-4s1.6-3.9,3.8-3.9s3.7,1.6,3.7,3.7c0,0.3,0,0.5,0,0.8h-6.1c0.1,1.6,1.2,2.4,2.5,2.4
		c1.1,0,1.9-0.6,2.2-1.4h1.4C212.4,162.4,211.2,163.5,209.3,163.5L209.3,163.5z M206.8,158.9h4.9c0-1.5-1.1-2.3-2.4-2.3
		C208,156.6,207,157.4,206.8,158.9L206.8,158.9z"/>
	<path d="M221.6,155.5c1.2,0,2.3,0.6,2.8,1.5V153h1.3v10.4h-1.3v-1.4c-0.5,0.9-1.5,1.6-2.9,1.6c-2.1,0-3.6-1.6-3.6-4
		S219.5,155.6,221.6,155.5L221.6,155.5z M221.8,156.7c-1.4,0-2.6,1-2.6,2.8s1.2,2.9,2.6,2.9s2.6-1.1,2.6-2.9
		S223.2,156.7,221.8,156.7z"/>
	<path d="M231,155.5c1.4,0,2.4,0.7,2.9,1.5v-1.4h1.3v7.7h-1.3v-1.4c-0.5,0.8-1.5,1.6-2.9,1.6c-2,0-3.6-1.6-3.6-4
		S228.9,155.5,231,155.5z M231.3,156.7c-1.4,0-2.6,1-2.6,2.8s1.2,2.9,2.6,2.9s2.6-1.1,2.6-2.9S232.7,156.7,231.3,156.7z"/>
	<path d="M246.8,161.2h-4.3l-0.8,2.2h-1.4l3.5-9.7h1.5l3.5,9.7h-1.4L246.8,161.2L246.8,161.2z M244.7,155.2l-1.8,4.9h3.5
		L244.7,155.2z"/>
	<path d="M253.6,159.3h-1.9v4.1h-1.3v-9.8h3.1c2.3,0,3.4,1.3,3.4,2.9C257,157.9,256,159.3,253.6,159.3L253.6,159.3z M253.6,158.2
		c1.5,0,2.1-0.7,2.1-1.8s-0.6-1.8-2.1-1.8h-1.9v3.6H253.6z"/>
	<path d="M261.7,163.4c-2,0-3.4-1.1-3.4-2.7h1.4c0.1,0.8,0.7,1.6,2,1.6c1.2,0,2-0.7,2-1.6c0-2.6-5.3-0.9-5.3-4.6
		c0-1.6,1.3-2.7,3.2-2.7c1.9,0,3.1,1,3.2,2.5h-1.4c-0.1-0.7-0.7-1.4-1.9-1.4c-1,0-1.9,0.5-1.9,1.6c0,2.5,5.3,0.9,5.3,4.6
		C264.9,162.1,263.8,163.5,261.7,163.4L261.7,163.4z"/>
	<path d="M266.7,161.6h1.4l-1.6,3.8h-0.9L266.7,161.6L266.7,161.6z"/>
	<path d="M34.7,180.3c-2.2,0-3.8-1.5-3.8-4s1.5-3.9,3.8-3.9c2.3,0,3.7,1.6,3.7,3.7c0,0.3,0,0.5,0,0.8h-6.1c0.1,1.6,1.2,2.4,2.5,2.4
		c1.2,0,1.9-0.6,2.2-1.4h1.4C37.8,179.2,36.6,180.3,34.7,180.3L34.7,180.3z M32.2,175.7h4.8c0-1.5-1.1-2.3-2.4-2.3
		C33.4,173.4,32.4,174.2,32.2,175.7L32.2,175.7z"/>
	<path d="M42.8,180.3c-1.8,0-3-1-3.1-2.4h1.3c0.1,0.7,0.7,1.3,1.8,1.3c1,0,1.6-0.5,1.6-1.1c0-1.7-4.5-0.7-4.5-3.6
		c0-1.2,1.1-2.1,2.8-2.1s2.8,0.9,2.9,2.4h-1.3c-0.1-0.8-0.6-1.3-1.7-1.3c-0.9,0-1.5,0.4-1.5,1.1c0,1.8,4.5,0.8,4.5,3.6
		C45.6,179.3,44.4,180.3,42.8,180.3L42.8,180.3z"/>
	<path d="M51.5,172.3c2.1,0,3.6,1.5,3.6,3.9s-1.6,4-3.6,4c-1.4,0-2.4-0.8-2.9-1.5v5.1h-1.3v-11.3h1.3v1.4
		C49.1,173.1,50.1,172.4,51.5,172.3L51.5,172.3z M51.2,173.5c-1.4,0-2.6,1.1-2.6,2.8s1.2,2.9,2.6,2.9s2.6-1.1,2.6-2.9
		S52.7,173.5,51.2,173.5z"/>
	<path d="M60.1,180.3c-2.2,0-3.8-1.5-3.8-4s1.5-3.9,3.8-3.9s3.7,1.6,3.7,3.7c0,0.3,0,0.5,0,0.8h-6.1c0.1,1.6,1.2,2.4,2.5,2.4
		c1.2,0,1.9-0.6,2.2-1.4h1.4C63.3,179.2,62,180.3,60.1,180.3L60.1,180.3z M57.7,175.7h4.8c0-1.5-1.1-2.3-2.4-2.3
		C58.8,173.4,57.8,174.2,57.7,175.7L57.7,175.7z"/>
	<path d="M68.8,172.3c1.9,0,3.1,1,3.5,2.6h-1.4c-0.3-0.9-1-1.5-2.2-1.5c-1.4,0-2.4,1-2.4,2.9s1,2.9,2.4,2.9c1.1,0,1.9-0.6,2.2-1.5
		h1.4c-0.4,1.5-1.6,2.6-3.5,2.6c-2.2,0-3.7-1.5-3.7-4S66.6,172.3,68.8,172.3z"/>
	<path d="M73.8,170.4c0-0.5,0.4-0.9,0.9-0.9c0.5,0,0.8,0.4,0.8,0.9s-0.4,0.9-0.8,0.9C74.2,171.2,73.8,170.8,73.8,170.4z M74,172.5
		h1.3v7.7H74V172.5z"/>
	<path d="M80.6,172.3c1.4,0,2.4,0.7,2.9,1.5v-1.4h1.3v7.7h-1.3v-1.4c-0.5,0.8-1.5,1.6-2.9,1.6c-2,0-3.6-1.6-3.6-4
		S78.5,172.3,80.6,172.3z M80.9,173.5c-1.4,0-2.6,1-2.6,2.8s1.2,2.9,2.6,2.9s2.6-1.1,2.6-2.9S82.2,173.5,80.9,173.5z"/>
	<path d="M86.9,169.8h1.3v10.4h-1.3V169.8z"/>
	<path d="M101.4,175.8c0-1.6-0.8-2.4-2.1-2.4c-1.3,0-2.2,0.8-2.2,2.5v4.2h-1.3v-4.3c0-1.6-0.8-2.4-2.1-2.4c-1.3,0-2.2,0.8-2.2,2.5
		v4.2h-1.3v-7.7h1.3v1.1c0.5-0.8,1.4-1.2,2.4-1.2c1.3,0,2.3,0.6,2.8,1.7c0.4-1.1,1.5-1.7,2.7-1.7c1.8,0,3.1,1.1,3.1,3.3v4.5h-1.3
		L101.4,175.8L101.4,175.8z"/>
	<path d="M108.1,180.3c-2.2,0-3.8-1.5-3.8-4s1.6-3.9,3.8-3.9s3.7,1.6,3.7,3.7c0,0.3,0,0.5,0,0.8h-6.1c0.1,1.6,1.2,2.4,2.5,2.4
		c1.2,0,1.9-0.6,2.2-1.4h1.4C111.2,179.2,110,180.3,108.1,180.3L108.1,180.3z M105.6,175.7h4.9c0-1.5-1.1-2.3-2.4-2.3
		C106.8,173.4,105.8,174.2,105.6,175.7L105.6,175.7z"/>
	<path d="M119.1,175.8c0-1.6-0.8-2.4-2.1-2.4c-1.3,0-2.2,0.8-2.2,2.5v4.2h-1.3v-7.7h1.3v1.1c0.5-0.8,1.4-1.2,2.5-1.2
		c1.8,0,3.1,1.1,3.1,3.3v4.5h-1.3V175.8L119.1,175.8z"/>
	<path d="M122.7,173.5h-1v-1.1h1v-1.9h1.3v1.9h2v1.1h-2v4.5c0,0.8,0.3,1,1.1,1h0.9v1.1h-1.1c-1.4,0-2.1-0.6-2.1-2.1V173.5z"/>
	<path d="M130.8,180.3c-2.2,0-3.8-1.5-3.8-4s1.6-3.9,3.8-3.9s3.7,1.6,3.7,3.7c0,0.3,0,0.5,0,0.8h-6.1c0.1,1.6,1.2,2.4,2.5,2.4
		c1.1,0,1.9-0.6,2.2-1.4h1.4C134,179.2,132.7,180.3,130.8,180.3L130.8,180.3z M128.3,175.7h4.9c0-1.5-1.1-2.3-2.4-2.3
		C129.5,173.4,128.5,174.2,128.3,175.7L128.3,175.7z"/>
	<path d="M143.2,180.3c-2.2,0-3.8-1.5-3.8-4s1.6-3.9,3.8-3.9s3.7,1.6,3.7,3.7c0,0.3,0,0.5,0,0.8h-6.1c0.1,1.6,1.2,2.4,2.5,2.4
		c1.1,0,1.9-0.6,2.2-1.4h1.4C146.4,179.2,145.2,180.3,143.2,180.3L143.2,180.3z M140.8,175.7h4.9c0-1.5-1.1-2.3-2.4-2.3
		C141.9,173.4,140.9,174.2,140.8,175.7L140.8,175.7z"/>
	<path d="M159.7,175.8c0-1.6-0.8-2.4-2.1-2.4s-2.2,0.8-2.2,2.5v4.2h-1.3v-4.3c0-1.6-0.8-2.4-2.1-2.4s-2.2,0.8-2.2,2.5v4.2h-1.3v-7.7
		h1.3v1.1c0.5-0.8,1.4-1.2,2.4-1.2c1.3,0,2.3,0.6,2.8,1.7c0.4-1.1,1.5-1.7,2.7-1.7c1.8,0,3.1,1.1,3.1,3.3v4.5h-1.3L159.7,175.8
		L159.7,175.8z"/>
	<path d="M168,180.1h-1.3v-7.7h1.3v1.2c0.4-0.9,1.3-1.4,2.5-1.4v1.3h-0.3c-1.2,0-2.1,0.6-2.1,2.3V180.1L168,180.1z"/>
	<path d="M175.3,180.3c-2.2,0-3.8-1.5-3.8-4s1.6-3.9,3.8-3.9s3.7,1.6,3.7,3.7c0,0.3,0,0.5,0,0.8h-6.1c0.1,1.6,1.2,2.4,2.5,2.4
		c1.1,0,1.9-0.6,2.2-1.4h1.4C178.4,179.2,177.2,180.3,175.3,180.3L175.3,180.3z M172.8,175.7h4.9c0-1.5-1.1-2.3-2.4-2.3
		C174,173.4,173,174.2,172.8,175.7L172.8,175.7z"/>
	<path d="M180.7,169.8h1.3v10.4h-1.3V169.8z"/>
	<path d="M187.3,172.3c1.4,0,2.4,0.7,2.9,1.5v-1.4h1.3v7.7h-1.3v-1.4c-0.5,0.8-1.5,1.6-2.9,1.6c-2,0-3.6-1.6-3.6-4
		S185.2,172.3,187.3,172.3z M187.5,173.5c-1.4,0-2.6,1-2.6,2.8s1.2,2.9,2.6,2.9s2.6-1.1,2.6-2.9S188.9,173.5,187.5,173.5z"/>
	<path d="M196.8,172.3c1.9,0,3.1,1,3.5,2.6H199c-0.3-0.9-1-1.5-2.2-1.5c-1.4,0-2.4,1-2.4,2.9s1,2.9,2.4,2.9c1.1,0,1.9-0.6,2.2-1.5
		h1.4c-0.4,1.4-1.5,2.4-3.1,2.6v0.7c1.1,0,1.8,0.5,1.8,1.4s-0.7,1.4-1.7,1.4h-1.6V183h1.4c0.6,0,0.9-0.2,0.9-0.6s-0.3-0.6-0.9-0.6
		h-0.7v-1.5c-1.9-0.2-3.3-1.7-3.3-3.9C193.1,173.9,194.6,172.3,196.8,172.3z"/>
	<path d="M205.2,172.3c1.4,0,2.4,0.7,2.9,1.5v-1.4h1.3v7.7h-1.3v-1.4c-0.5,0.8-1.5,1.6-2.9,1.6c-2,0-3.6-1.6-3.6-4
		S203.2,172.3,205.2,172.3z M205.5,173.5c-1.4,0-2.6,1-2.6,2.8s1.2,2.9,2.6,2.9s2.6-1.1,2.6-2.9S206.9,173.5,205.5,173.5z
		 M205.1,170.2c0.7,0,1,0.6,1.6,0.6c0.3,0,0.6-0.2,0.6-0.6h0.7c-0.1,0.9-0.7,1.5-1.4,1.5s-1-0.6-1.6-0.6c-0.3,0-0.5,0.2-0.6,0.6
		h-0.7C203.8,170.7,204.3,170.2,205.1,170.2L205.1,170.2z"/>
	<path d="M214.9,180.3c-2.2,0-3.8-1.5-3.8-4s1.7-3.9,3.9-3.9s3.9,1.5,3.9,3.9S217.1,180.3,214.9,180.3z M214.9,179.1
		c1.3,0,2.6-0.9,2.6-2.9s-1.3-2.8-2.6-2.8s-2.6,0.9-2.6,2.8S213.6,179.1,214.9,179.1L214.9,179.1z"/>
	<path d="M227.4,172.3c1.4,0,2.4,0.7,2.9,1.5v-1.4h1.3v7.7h-1.3v-1.4c-0.5,0.8-1.5,1.6-2.9,1.6c-2,0-3.6-1.6-3.6-4
		S225.3,172.3,227.4,172.3z M227.6,173.5c-1.4,0-2.6,1-2.6,2.8s1.2,2.9,2.6,2.9s2.6-1.1,2.6-2.9S229,173.5,227.6,173.5z"/>
	<path d="M237,180.3c-2.2,0-3.8-1.5-3.8-4s1.7-3.9,3.9-3.9s3.9,1.5,3.9,3.9S239.2,180.3,237,180.3z M237,179.1
		c1.3,0,2.6-0.9,2.6-2.9s-1.3-2.8-2.6-2.8s-2.6,0.9-2.6,2.8S235.7,179.1,237,179.1L237,179.1z"/>
	<path d="M34.5,189.1c1.4,0,2.4,0.7,2.9,1.5v-1.4h1.3v7.7h-1.3v-1.4c-0.5,0.8-1.5,1.6-2.9,1.6c-2,0-3.6-1.6-3.6-4
		S32.5,189.1,34.5,189.1z M34.8,190.2c-1.4,0-2.6,1-2.6,2.8s1.2,2.9,2.6,2.9c1.4,0,2.6-1.1,2.6-2.9S36.2,190.2,34.8,190.2z"/>
	<path d="M41.1,190.3h-1v-1.1h1v-1.9h1.3v1.9h2v1.1h-2v4.5c0,0.8,0.3,1,1.1,1h0.9v1.1h-1.2c-1.4,0-2.1-0.6-2.1-2.1
		C41.1,194.8,41.1,190.3,41.1,190.3z"/>
	<path d="M49.2,197.1c-2.2,0-3.8-1.5-3.8-4s1.5-3.9,3.8-3.9s3.7,1.6,3.7,3.7c0,0.3,0,0.5,0,0.8h-6.1c0.1,1.6,1.2,2.4,2.5,2.4
		c1.2,0,1.9-0.6,2.2-1.4h1.4C52.4,196,51.2,197.1,49.2,197.1L49.2,197.1z M46.8,192.5h4.8c0-1.5-1.1-2.3-2.4-2.3
		C47.9,190.2,46.9,191,46.8,192.5L46.8,192.5z"/>
	<path d="M60.2,192.6c0-1.6-0.8-2.4-2.1-2.4s-2.2,0.8-2.2,2.5v4.2h-1.3v-7.7h1.3v1.1c0.5-0.8,1.4-1.2,2.5-1.2c1.8,0,3.1,1.1,3.1,3.3
		v4.5h-1.3V192.6L60.2,192.6z"/>
	<path d="M66.7,189.1c1.2,0,2.3,0.6,2.8,1.5v-4.1h1.3v10.4h-1.3v-1.4c-0.5,0.9-1.5,1.6-2.9,1.6c-2.1,0-3.6-1.6-3.6-4
		S64.7,189.1,66.7,189.1L66.7,189.1z M67,190.2c-1.4,0-2.6,1-2.6,2.8s1.2,2.9,2.6,2.9c1.4,0,2.6-1.1,2.6-2.9S68.4,190.2,67,190.2z"
		/>
	<path d="M72.8,187.2c0-0.5,0.4-0.9,0.9-0.9c0.5,0,0.8,0.4,0.8,0.9s-0.4,0.9-0.8,0.9C73.2,188,72.8,187.6,72.8,187.2z M73,189.3h1.3
		v7.7H73V189.3z"/>
	<path d="M87.6,192.6c0-1.6-0.8-2.4-2.1-2.4c-1.3,0-2.2,0.8-2.2,2.5v4.2H82v-4.3c0-1.6-0.8-2.4-2.1-2.4c-1.3,0-2.2,0.8-2.2,2.5v4.2
		h-1.3v-7.7h1.3v1.1c0.5-0.8,1.4-1.2,2.4-1.2c1.3,0,2.3,0.6,2.8,1.7c0.4-1.1,1.5-1.7,2.7-1.7c1.8,0,3.1,1.1,3.1,3.3v4.5h-1.3
		L87.6,192.6L87.6,192.6z"/>
	<path d="M94.2,197.1c-2.2,0-3.8-1.5-3.8-4s1.6-3.9,3.8-3.9s3.7,1.6,3.7,3.7c0,0.3,0,0.5,0,0.8h-6.1c0.1,1.6,1.2,2.4,2.5,2.4
		c1.2,0,1.9-0.6,2.2-1.4h1.4C97.3,196,96.1,197.1,94.2,197.1L94.2,197.1z M91.7,192.5h4.9c0-1.5-1.1-2.3-2.4-2.3
		C92.9,190.2,91.9,191,91.7,192.5L91.7,192.5z"/>
	<path d="M105.2,192.6c0-1.6-0.8-2.4-2.1-2.4c-1.3,0-2.2,0.8-2.2,2.5v4.2h-1.3v-7.7h1.3v1.1c0.5-0.8,1.4-1.2,2.5-1.2
		c1.8,0,3.1,1.1,3.1,3.3v4.5h-1.3V192.6L105.2,192.6z"/>
	<path d="M108.8,190.3h-1v-1.1h1v-1.9h1.3v1.9h2v1.1h-2v4.5c0,0.8,0.3,1,1.1,1h0.9v1.1h-1.2c-1.4,0-2.1-0.6-2.1-2.1L108.8,190.3
		L108.8,190.3z"/>
	<path d="M117,197.1c-2.2,0-3.8-1.5-3.8-4s1.7-3.9,3.9-3.9s3.9,1.5,3.9,3.9S119.2,197.1,117,197.1z M117,195.9
		c1.3,0,2.6-0.9,2.6-2.9s-1.3-2.8-2.6-2.8s-2.6,0.9-2.6,2.8S115.7,195.9,117,195.9z"/>
	<path d="M129.5,189.1c1.4,0,2.4,0.7,2.9,1.5v-1.4h1.3v7.7h-1.3v-1.4c-0.5,0.8-1.5,1.6-2.9,1.6c-2,0-3.6-1.6-3.6-4
		S127.4,189.1,129.5,189.1z M129.7,190.2c-1.4,0-2.6,1-2.6,2.8s1.2,2.9,2.6,2.9s2.6-1.1,2.6-2.9S131.2,190.2,129.7,190.2z
		 M128.4,186l3,1.8v0.9l-3-1.6V186L128.4,186z"/>
	<path d="M142.7,189.1c1.4,0,2.4,0.7,2.9,1.5v-1.4h1.3v7.8c0,2.1-1.4,3.6-3.7,3.6c-2,0-3.5-1-3.7-2.7h1.3c0.3,0.9,1.2,1.6,2.4,1.6
		c1.4,0,2.4-0.9,2.4-2.5v-1.6c-0.5,0.8-1.5,1.6-2.9,1.6c-2.1,0-3.6-1.6-3.6-4S140.6,189.1,142.7,189.1L142.7,189.1z M143,190.2
		c-1.4,0-2.6,1-2.6,2.8s1.2,2.9,2.6,2.9s2.6-1.1,2.6-2.9S144.4,190.2,143,190.2z"/>
	<path d="M152.3,197.1c-2.2,0-3.8-1.5-3.8-4s1.6-3.9,3.8-3.9s3.7,1.6,3.7,3.7c0,0.3,0,0.5,0,0.8h-6.1c0.1,1.6,1.2,2.4,2.5,2.4
		c1.1,0,1.9-0.6,2.2-1.4h1.4C155.5,196,154.2,197.1,152.3,197.1L152.3,197.1z M149.8,192.5h4.9c0-1.5-1.1-2.3-2.4-2.3
		C151,190.2,150,191,149.8,192.5L149.8,192.5z"/>
	<path d="M160.4,197.1c-1.8,0-3.1-1-3.1-2.4h1.3c0.1,0.7,0.7,1.3,1.8,1.3c1,0,1.6-0.5,1.6-1.1c0-1.7-4.5-0.7-4.5-3.6
		c0-1.2,1.1-2.1,2.8-2.1s2.8,0.9,2.9,2.4h-1.3c-0.1-0.8-0.6-1.3-1.7-1.3c-0.9,0-1.5,0.4-1.5,1.1c0,1.8,4.5,0.8,4.5,3.6
		C163.2,196.1,162.1,197.1,160.4,197.1L160.4,197.1z"/>
	<path d="M165.3,190.3h-1v-1.1h1v-1.9h1.3v1.9h2v1.1h-2v4.5c0,0.8,0.3,1,1.1,1h0.9v1.1h-1.1c-1.4,0-2.1-0.6-2.1-2.1V190.3z"/>
	<path d="M173.2,189.1c1.4,0,2.4,0.7,2.9,1.5v-1.4h1.3v7.7h-1.3v-1.4c-0.5,0.8-1.5,1.6-2.9,1.6c-2,0-3.6-1.6-3.6-4
		S171.2,189.1,173.2,189.1z M173.5,190.2c-1.4,0-2.6,1-2.6,2.8s1.2,2.9,2.6,2.9s2.6-1.1,2.6-2.9S174.9,190.2,173.5,190.2z"/>
	<path d="M185.2,192.6c0-1.6-0.9-2.4-2.1-2.4s-2.2,0.8-2.2,2.5v4.2h-1.3v-7.7h1.3v1.1c0.5-0.8,1.4-1.2,2.5-1.2
		c1.8,0,3.1,1.1,3.1,3.3v4.5h-1.3L185.2,192.6L185.2,192.6z"/>
	<path d="M188.8,190.3h-1v-1.1h1v-1.9h1.3v1.9h2v1.1h-2v4.5c0,0.8,0.3,1,1.1,1h0.9v1.1h-1.1c-1.4,0-2.1-0.6-2.1-2.1V190.3z"/>
	<path d="M196.9,197.1c-2.2,0-3.8-1.5-3.8-4s1.6-3.9,3.8-3.9s3.7,1.6,3.7,3.7c0,0.3,0,0.5,0,0.8h-6.1c0.1,1.6,1.2,2.4,2.5,2.4
		c1.1,0,1.9-0.6,2.2-1.4h1.4C200.1,196,198.8,197.1,196.9,197.1L196.9,197.1z M194.4,192.5h4.9c0-1.5-1.1-2.3-2.4-2.3
		C195.6,190.2,194.6,191,194.4,192.5L194.4,192.5z"/>
	<path d="M202.7,197c-0.5,0-0.9-0.4-0.9-0.9s0.4-0.9,0.9-0.9c0.5,0,0.8,0.4,0.8,0.9S203.1,197,202.7,197z"/>
</g>
<rect x="0.5" y="0.5" class="st0" width="298" height="64.9"/>
<g>
	<path class="st1" d="M38.2,17.4c2.1-1.6,4.3-3.4,4.3-5c0-0.6-0.3-0.9-0.8-0.9s-0.9,0.4-0.8,1.3h-2.7c0.1-2.6,1.8-3.7,3.7-3.7
		c2.4,0,3.4,1.4,3.4,3.1c0,2.1-1.8,3.9-3.4,5h3.5v2.2h-7.1V17.4L38.2,17.4z"/>
	<path class="st1" d="M47.9,19.7c-1,0-1.6-0.6-1.6-1.4s0.6-1.4,1.6-1.4s1.6,0.6,1.6,1.4S48.8,19.7,47.9,19.7z"/>
	<path class="st1" d="M57.5,16.2h-1.4v3.3h-2.8V9.7h4.1c2.5,0,3.7,1.4,3.7,3.3C61.2,14.7,60,16.2,57.5,16.2L57.5,16.2z M57.3,14
		c0.8,0,1.2-0.4,1.2-1.1s-0.3-1.1-1.2-1.1h-1.1V14C56.2,14,57.3,14,57.3,14z"/>
	<path class="st1" d="M66,19.7c-2.3,0-4.1-1.5-4.1-4s1.8-4,4.1-4s4.1,1.5,4.1,4S68.3,19.7,66,19.7L66,19.7z M66,17.3
		c0.7,0,1.3-0.5,1.3-1.6S66.7,14,66,14s-1.3,0.5-1.3,1.6S65.3,17.3,66,17.3L66,17.3z"/>
	<path class="st1" d="M74.1,11.6c1,0,1.8,0.5,2.3,1.2V9.2h2.8v10.4h-2.8v-1.1c-0.4,0.7-1.2,1.2-2.3,1.2c-1.9,0-3.3-1.5-3.3-4
		S72.2,11.6,74.1,11.6L74.1,11.6z M75,14c-0.8,0-1.4,0.6-1.4,1.6s0.6,1.6,1.4,1.6s1.4-0.6,1.4-1.6S75.8,14,75,14z"/>
	<path class="st1" d="M84.3,19.7c-2.3,0-4-1.5-4-4s1.6-4,4-4s4,1.5,4,3.9c0,0.2,0,0.4,0,0.6H83c0.1,0.9,0.6,1.3,1.2,1.3
		c0.5,0,0.8-0.3,1-0.6h2.9C87.7,18.4,86.3,19.7,84.3,19.7L84.3,19.7z M83,14.9h2.4c0-0.7-0.6-1.1-1.2-1.1S83.2,14.1,83,14.9L83,14.9
		z"/>
	<path class="st1" d="M100.1,15.4c0-0.9-0.5-1.3-1.3-1.3s-1.3,0.5-1.3,1.3v4.2h-2.8v-4.2c0-0.9-0.5-1.3-1.3-1.3s-1.3,0.5-1.3,1.3
		v4.2h-2.8v-7.9h2.8v1c0.4-0.6,1.2-1.1,2.3-1.1c1.2,0,2.1,0.5,2.6,1.4c0.5-0.8,1.5-1.4,2.6-1.4c2,0,3.2,1.3,3.2,3.4v4.6h-2.8
		L100.1,15.4L100.1,15.4z"/>
	<path class="st1" d="M108,19.7c-2.3,0-4.1-1.5-4.1-4s1.8-4,4.1-4s4.1,1.5,4.1,4S110.3,19.7,108,19.7L108,19.7z M108,17.3
		c0.7,0,1.3-0.5,1.3-1.6S108.7,14,108,14s-1.3,0.5-1.3,1.6S107.2,17.3,108,17.3L108,17.3z"/>
	<path class="st1" d="M116.6,19.7c-2.2,0-3.6-1.2-3.8-2.8h2.7c0.1,0.5,0.5,0.8,1.1,0.8c0.5,0,0.7-0.2,0.7-0.5c0-1.1-4.2-0.2-4.2-3.1
		c0-1.4,1.1-2.5,3.3-2.5s3.3,1.2,3.4,2.8h-2.5c-0.1-0.5-0.4-0.8-1-0.8c-0.4,0-0.7,0.2-0.7,0.5c0,1.1,4.2,0.2,4.2,3.2
		C119.8,18.6,118.6,19.7,116.6,19.7L116.6,19.7z"/>
	<path class="st1" d="M126.8,11.6c1,0,1.8,0.5,2.3,1.2V9.2h2.8v10.4H129v-1.1c-0.4,0.7-1.2,1.2-2.3,1.2c-1.9,0-3.3-1.5-3.3-4
		S124.9,11.6,126.8,11.6L126.8,11.6z M127.6,14c-0.8,0-1.4,0.6-1.4,1.6s0.6,1.6,1.4,1.6c0.8,0,1.4-0.6,1.4-1.6S128.4,14,127.6,14z"
		/>
	<path class="st1" d="M133.1,9.6c0-0.8,0.6-1.4,1.6-1.4s1.6,0.6,1.6,1.4s-0.6,1.4-1.6,1.4S133.1,10.4,133.1,9.6z M133.4,11.7h2.8
		v7.9h-2.8C133.4,19.6,133.4,11.7,133.4,11.7z"/>
	<path class="st1" d="M143.5,13.9l-3.2,3.4h3.4v2.3h-6.4v-2.2l3.1-3.4h-3.1v-2.3h6.2L143.5,13.9L143.5,13.9z"/>
	<path class="st1" d="M148.3,19.7c-2.3,0-4-1.5-4-4s1.6-4,4-4s4,1.5,4,3.9c0,0.2,0,0.4,0,0.6H147c0.1,0.9,0.6,1.3,1.2,1.3
		c0.5,0,0.8-0.3,1-0.6h2.9C151.8,18.4,150.3,19.7,148.3,19.7L148.3,19.7z M147.1,14.9h2.4c0-0.7-0.6-1.1-1.2-1.1
		S147.2,14.1,147.1,14.9L147.1,14.9z"/>
	<path class="st1" d="M156.1,19.6h-2.8v-7.9h2.8v1.4c0.6-0.9,1.5-1.5,2.5-1.5v2.9h-0.8c-1.1,0-1.8,0.4-1.8,1.6L156.1,19.6
		L156.1,19.6z"/>
	<path class="st1" d="M165.4,11.6c0.9,0,1.6,0.3,2.1,0.9v-0.8h2.8v11.6h-2.8v-4.7c-0.5,0.6-1.2,1-2.1,1c-1.9,0-3.5-1.6-3.5-4
		S163.5,11.6,165.4,11.6z M166.1,14c-0.6,0-1.4,0.5-1.4,1.6s0.8,1.6,1.4,1.6s1.4-0.5,1.4-1.6S166.7,14,166.1,14z"/>
	<path class="st1" d="M179.9,19.6h-2.8v-1.1c-0.4,0.7-1.3,1.2-2.4,1.2c-1.8,0-3-1.3-3-3.4v-4.6h2.7v4.2c0,0.9,0.5,1.4,1.3,1.4
		s1.3-0.5,1.3-1.4v-4.2h2.8L179.9,19.6L179.9,19.6z"/>
	<path class="st1" d="M185,19.7c-2.3,0-4-1.5-4-4s1.6-4,4-4s4,1.5,4,3.9c0,0.2,0,0.4,0,0.6h-5.2c0.1,0.9,0.6,1.3,1.2,1.3
		c0.5,0,0.8-0.3,1-0.6h2.9C188.4,18.4,187,19.7,185,19.7L185,19.7z M183.7,14.9h2.4c0-0.7-0.6-1.1-1.2-1.1S183.9,14.1,183.7,14.9
		L183.7,14.9z"/>
	<path class="st1" d="M196.1,19.7c-2.2,0-3.6-1.2-3.8-2.8h2.7c0.1,0.5,0.5,0.8,1.1,0.8c0.5,0,0.7-0.2,0.7-0.5c0-1.1-4.2-0.2-4.2-3.1
		c0-1.4,1.1-2.5,3.3-2.5s3.3,1.2,3.4,2.8h-2.5c-0.1-0.5-0.4-0.8-1-0.8c-0.4,0-0.7,0.2-0.7,0.5c0,1.1,4.2,0.2,4.2,3.2
		C199.4,18.6,198.1,19.7,196.1,19.7L196.1,19.7z"/>
	<path class="st1" d="M203.6,11.6c1.1,0,1.9,0.5,2.3,1.2v-1.1h2.8v7.9h-2.8v-1.1c-0.4,0.7-1.2,1.2-2.3,1.2c-1.9,0-3.4-1.5-3.4-4
		S201.7,11.6,203.6,11.6L203.6,11.6z M203.8,8.8c0.9,0,1.4,0.6,1.9,0.6c0.3,0,0.6-0.2,0.6-0.6h1.4c-0.3,1.6-1,2.3-2.1,2.3
		c-0.9,0-1.4-0.6-1.9-0.6c-0.3,0-0.6,0.2-0.6,0.6h-1.4C202,9.5,202.7,8.8,203.8,8.8L203.8,8.8z M204.5,14c-0.8,0-1.4,0.6-1.4,1.6
		s0.6,1.6,1.4,1.6s1.4-0.6,1.4-1.6S205.3,14,204.5,14z"/>
	<path class="st1" d="M213.9,19.7c-2.3,0-4.1-1.5-4.1-4s1.8-4,4.1-4s4.1,1.5,4.1,4S216.2,19.7,213.9,19.7L213.9,19.7z M213.9,17.3
		c0.7,0,1.3-0.5,1.3-1.6s-0.6-1.6-1.3-1.6s-1.3,0.5-1.3,1.6S213.2,17.3,213.9,17.3L213.9,17.3z"/>
	<path class="st1" d="M38.3,26.4c0-0.8,0.6-1.4,1.6-1.4s1.6,0.6,1.6,1.4s-0.6,1.4-1.6,1.4S38.3,27.2,38.3,26.4z M38.6,28.5h2.8v7.9
		h-2.8V28.5z"/>
	<path class="st1" d="M48.2,32.2c0-0.9-0.5-1.4-1.3-1.4s-1.3,0.5-1.3,1.4v4.2h-2.8v-7.9h2.8v1.1c0.5-0.7,1.3-1.2,2.4-1.2
		c1.8,0,3,1.3,3,3.4v4.6h-2.8V32.2z"/>
	<path class="st1" d="M55.4,28.4c1,0,1.8,0.5,2.3,1.2V26h2.8v10.4h-2.8v-1.1c-0.4,0.7-1.2,1.2-2.3,1.2c-1.9,0-3.3-1.5-3.3-4
		C52,29.9,53.5,28.4,55.4,28.4L55.4,28.4z M56.3,30.8c-0.8,0-1.4,0.6-1.4,1.6s0.6,1.6,1.4,1.6s1.4-0.6,1.4-1.6S57,30.8,56.3,30.8z"
		/>
	<path class="st1" d="M61.8,26.4c0-0.8,0.6-1.4,1.6-1.4c1,0,1.6,0.6,1.6,1.4s-0.6,1.4-1.6,1.4C62.4,27.8,61.8,27.2,61.8,26.4z
		 M62,28.5h2.8v7.9H62V28.5z"/>
	<path class="st1" d="M69.8,28.4c2,0,3.4,1.1,3.8,3.1h-2.9c-0.2-0.5-0.5-0.8-1-0.8c-0.7,0-1.1,0.6-1.1,1.7c0,1.1,0.4,1.7,1.1,1.7
		c0.5,0,0.8-0.3,1-0.8h2.9c-0.4,2-1.8,3.1-3.8,3.1c-2.3,0-4-1.5-4-4C65.9,29.9,67.5,28.4,69.8,28.4z"/>
	<path class="st1" d="M77.7,28.4c1.1,0,1.9,0.5,2.3,1.2v-1.1h2.8v7.9H80v-1.1c-0.4,0.7-1.2,1.2-2.3,1.2c-1.9,0-3.3-1.5-3.3-4
		C74.4,29.9,75.9,28.4,77.7,28.4L77.7,28.4z M78.6,30.8c-0.8,0-1.4,0.6-1.4,1.6s0.6,1.6,1.4,1.6s1.4-0.6,1.4-1.6
		S79.4,30.8,78.6,30.8z"/>
	<path class="st1" d="M87.2,28.4c1,0,1.8,0.5,2.3,1.2V26h2.8v10.4h-2.8v-1.1c-0.4,0.7-1.2,1.2-2.3,1.2c-1.9,0-3.3-1.5-3.3-4
		C83.9,29.9,85.4,28.4,87.2,28.4L87.2,28.4z M88.1,30.8c-0.8,0-1.4,0.6-1.4,1.6s0.6,1.6,1.4,1.6s1.4-0.6,1.4-1.6
		S88.9,30.8,88.1,30.8z"/>
	<path class="st1" d="M97.5,36.5c-2.3,0-4.1-1.5-4.1-4c0-2.5,1.8-4,4.1-4s4.1,1.5,4.1,4C101.7,34.9,99.9,36.5,97.5,36.5L97.5,36.5z
		 M97.5,34.1c0.7,0,1.3-0.5,1.3-1.6c0-1.1-0.6-1.6-1.3-1.6s-1.3,0.5-1.3,1.6C96.2,33.5,96.8,34.1,97.5,34.1L97.5,34.1z"/>
	<path class="st1" d="M105.5,36.4h-2.8v-7.9h2.8v1.4c0.6-0.9,1.5-1.5,2.5-1.5v2.9h-0.8c-1.1,0-1.8,0.4-1.8,1.6
		C105.5,32.9,105.5,36.4,105.5,36.4z"/>
	<path class="st1" d="M112.6,36.5c-2.3,0-4-1.5-4-4c0-2.5,1.6-4,4-4s4,1.5,4,3.9c0,0.2,0,0.4,0,0.6h-5.2c0.1,0.9,0.6,1.3,1.2,1.3
		c0.5,0,0.8-0.3,1-0.6h2.9C116,35.2,114.5,36.5,112.6,36.5L112.6,36.5z M111.3,31.7h2.4c0-0.7-0.6-1.1-1.2-1.1
		S111.4,30.9,111.3,31.7L111.3,31.7z"/>
	<path class="st1" d="M121,36.5c-2.2,0-3.6-1.2-3.8-2.8h2.7c0.1,0.5,0.5,0.8,1.1,0.8c0.5,0,0.7-0.2,0.7-0.5c0-1.2-4.2-0.2-4.2-3.1
		c0-1.4,1.1-2.5,3.3-2.5s3.3,1.2,3.4,2.8h-2.5c-0.1-0.5-0.4-0.8-1-0.8c-0.4,0-0.7,0.2-0.7,0.5c0,1.1,4.2,0.2,4.2,3.2
		C124.3,35.4,123,36.5,121,36.5L121,36.5z"/>
	<path class="st1" d="M131,36.4h-2.8v-7.9h2.8v1.4c0.6-0.9,1.5-1.5,2.5-1.5v2.9h-0.8c-1.1,0-1.8,0.4-1.8,1.6L131,36.4L131,36.4z"/>
	<path class="st1" d="M138.1,36.5c-2.3,0-4-1.5-4-4c0-2.5,1.6-4,4-4s4,1.5,4,3.9c0,0.2,0,0.4,0,0.6h-5.2c0.1,0.9,0.6,1.3,1.2,1.3
		c0.5,0,0.8-0.3,1-0.6h2.9C141.5,35.2,140,36.5,138.1,36.5L138.1,36.5z M136.8,31.7h2.4c0-0.7-0.6-1.1-1.2-1.1
		S136.9,30.9,136.8,31.7L136.8,31.7z"/>
	<path class="st1" d="M143.4,30.8h-0.9v-2.3h0.9v-0.1c0-2.2,1.4-3.3,4-3.1v2.3c-0.8-0.1-1.2,0.1-1.2,0.8h1.2v2.3h-1.2v5.6h-2.8
		L143.4,30.8L143.4,30.8z"/>
	<path class="st1" d="M151.9,36.5c-2.3,0-4-1.5-4-4c0-2.5,1.6-4,4-4s4,1.5,4,3.9c0,0.2,0,0.4,0,0.6h-5.2c0.1,0.9,0.6,1.3,1.2,1.3
		c0.5,0,0.8-0.3,1-0.6h2.9C155.4,35.2,153.9,36.5,151.9,36.5L151.9,36.5z M150.7,31.7h2.4c0-0.7-0.6-1.1-1.2-1.1
		S150.8,30.9,150.7,31.7L150.7,31.7z"/>
	<path class="st1" d="M159.7,36.4H157v-7.9h2.8v1.4c0.6-0.9,1.5-1.5,2.5-1.5v2.9h-0.8c-1.1,0-1.8,0.4-1.8,1.6L159.7,36.4L159.7,36.4
		z"/>
	<path class="st1" d="M166.8,36.5c-2.3,0-4-1.5-4-4c0-2.5,1.6-4,4-4s4,1.5,4,3.9c0,0.2,0,0.4,0,0.6h-5.2c0.1,0.9,0.6,1.3,1.2,1.3
		c0.5,0,0.8-0.3,1-0.6h2.9C170.2,35.2,168.8,36.5,166.8,36.5L166.8,36.5z M165.5,31.7h2.4c0-0.7-0.6-1.1-1.2-1.1
		S165.7,30.9,165.5,31.7L165.5,31.7z"/>
	<path class="st1" d="M177.2,32.2c0-0.9-0.5-1.4-1.3-1.4s-1.3,0.5-1.3,1.4v4.2h-2.8v-7.9h2.8v1.1c0.5-0.7,1.3-1.2,2.4-1.2
		c1.8,0,3,1.3,3,3.4v4.6h-2.8V32.2z"/>
	<path class="st1" d="M181.9,30.8h-1v-2.3h1v-1.9h2.8v1.9h1.4v2.3h-1.4v2.6c0,0.4,0.2,0.6,0.6,0.6h0.8v2.3h-1.2c-1.7,0-3-0.7-3-3
		V30.8z"/>
	<path class="st1" d="M190.9,36.5c-2.3,0-4-1.5-4-4c0-2.5,1.6-4,4-4s4,1.5,4,3.9c0,0.2,0,0.4,0,0.6h-5.2c0.1,0.9,0.6,1.3,1.2,1.3
		c0.5,0,0.8-0.3,1-0.6h2.9C194.4,35.2,192.9,36.5,190.9,36.5L190.9,36.5z M189.7,31.7h2.4c0-0.7-0.6-1.1-1.2-1.1
		S189.8,30.9,189.7,31.7L189.7,31.7z"/>
	<path class="st1" d="M199.4,36.5c-2.2,0-3.6-1.2-3.8-2.8h2.7c0.1,0.5,0.5,0.8,1.1,0.8c0.5,0,0.7-0.2,0.7-0.5c0-1.2-4.2-0.2-4.2-3.1
		c0-1.4,1.1-2.5,3.3-2.5s3.3,1.2,3.4,2.8h-2.5c-0.1-0.5-0.4-0.8-1-0.8c-0.4,0-0.7,0.2-0.7,0.5c0,1.1,4.2,0.2,4.2,3.2
		C202.6,35.4,201.4,36.5,199.4,36.5L199.4,36.5z"/>
	<path class="st1" d="M209.5,28.4c1.1,0,1.9,0.5,2.3,1.2v-1.1h2.8v7.9h-2.8v-1.1c-0.4,0.7-1.2,1.2-2.3,1.2c-1.9,0-3.4-1.5-3.4-4
		C206.2,29.9,207.6,28.4,209.5,28.4L209.5,28.4z M210.4,30.8c-0.8,0-1.4,0.6-1.4,1.6s0.6,1.6,1.4,1.6s1.4-0.6,1.4-1.6
		S211.2,30.8,210.4,30.8z"/>
	<path class="st1" d="M226.9,36.4h-2.8v-1.1c-0.4,0.7-1.3,1.2-2.4,1.2c-1.8,0-3-1.3-3-3.4v-4.6h2.7v4.2c0,0.9,0.5,1.4,1.3,1.4
		s1.3-0.5,1.3-1.4v-4.2h2.8L226.9,36.4L226.9,36.4z"/>
	<path class="st1" d="M239.1,32.2c0-0.9-0.5-1.3-1.3-1.3s-1.3,0.5-1.3,1.3v4.2h-2.8v-4.2c0-0.9-0.5-1.3-1.3-1.3s-1.3,0.5-1.3,1.3
		v4.2h-2.8v-7.9h2.8v1c0.4-0.6,1.2-1.1,2.3-1.1c1.2,0,2.1,0.5,2.6,1.4c0.5-0.8,1.5-1.4,2.6-1.4c2,0,3.2,1.3,3.2,3.4v4.6h-2.8
		L239.1,32.2L239.1,32.2z"/>
	<path class="st1" d="M246.3,28.4c1.1,0,1.9,0.5,2.3,1.2v-1.1h2.8v7.9h-2.8v-1.1c-0.4,0.7-1.2,1.2-2.3,1.2c-1.9,0-3.4-1.5-3.4-4
		C242.9,29.9,244.4,28.4,246.3,28.4L246.3,28.4z M247.1,30.8c-0.8,0-1.4,0.6-1.4,1.6s0.6,1.6,1.4,1.6s1.4-0.6,1.4-1.6
		S247.9,30.8,247.1,30.8z"/>
	<path class="st1" d="M49.3,49c0-0.8-0.5-1.3-1.3-1.3s-1.3,0.5-1.3,1.3v4.2h-2.8V49c0-0.8-0.5-1.3-1.3-1.3s-1.3,0.5-1.3,1.3v4.2
		h-2.8v-7.9h2.8v1c0.5-0.6,1.2-1.1,2.3-1.1c1.2,0,2.1,0.5,2.6,1.4c0.5-0.8,1.5-1.4,2.6-1.4c2,0,3.2,1.3,3.2,3.3v4.6h-2.8L49.3,49
		L49.3,49z"/>
	<path class="st1" d="M57,53.3c-2.3,0-4-1.5-4-4s1.6-4,4-4s4,1.5,4,3.9c0,0.2,0,0.4,0,0.6h-5.2c0.1,0.9,0.5,1.3,1.2,1.3
		c0.5,0,0.8-0.3,1-0.6h2.9C60.5,52,59,53.3,57,53.3L57,53.3z M55.8,48.5h2.4c0-0.7-0.5-1.1-1.2-1.1S55.9,47.7,55.8,48.5L55.8,48.5z"
		/>
	<path class="st1" d="M65.5,53.3c-2.2,0-3.6-1.2-3.8-2.8h2.7c0.1,0.5,0.5,0.8,1.1,0.8c0.5,0,0.7-0.2,0.7-0.5c0-1.2-4.2-0.2-4.2-3.1
		c0-1.4,1.1-2.5,3.3-2.5c2.1,0,3.3,1.2,3.4,2.8h-2.5c-0.1-0.5-0.4-0.8-1-0.8c-0.4,0-0.7,0.2-0.7,0.5c0,1.1,4.2,0.2,4.2,3.2
		C68.8,52.2,67.5,53.3,65.5,53.3L65.5,53.3z"/>
	<path class="st1" d="M80.8,49c0-0.8-0.5-1.3-1.3-1.3s-1.3,0.5-1.3,1.3v4.2h-2.8V49c0-0.8-0.5-1.3-1.3-1.3s-1.3,0.5-1.3,1.3v4.2
		h-2.8v-7.9h2.8v1c0.4-0.6,1.2-1.1,2.3-1.1c1.2,0,2.1,0.5,2.6,1.4c0.5-0.8,1.5-1.4,2.6-1.4c2,0,3.2,1.3,3.2,3.3v4.6h-2.8L80.8,49
		L80.8,49z"/>
	<path class="st1" d="M87.9,45.2c1.1,0,1.9,0.5,2.3,1.2v-1.1H93v7.9h-2.8v-1.1c-0.4,0.7-1.2,1.2-2.3,1.2c-1.9,0-3.3-1.5-3.3-4
		S86.1,45.2,87.9,45.2L87.9,45.2z M88.8,47.6c-0.8,0-1.4,0.6-1.4,1.6s0.6,1.6,1.4,1.6s1.4-0.6,1.4-1.6S89.6,47.6,88.8,47.6z"/>
	<path class="st1" d="M97,43.2c0-0.8,0.6-1.4,1.6-1.4s1.6,0.6,1.6,1.4s-0.6,1.4-1.6,1.4S97,44,97,43.2z M97.2,45.3h2.8v7.9h-2.8
		V45.3z"/>
	<path class="st1" d="M106.9,49c0-0.9-0.5-1.4-1.3-1.4s-1.3,0.5-1.3,1.4v4.2h-2.8v-7.9h2.8v1.1c0.5-0.7,1.3-1.2,2.4-1.2
		c1.8,0,3,1.3,3,3.3v4.6h-2.8C106.9,53.2,106.9,48.9,106.9,49z"/>
	<path class="st1" d="M111.6,47.6h-1v-2.3h1v-1.9h2.8v1.9h1.4v2.3h-1.4v2.6c0,0.4,0.2,0.6,0.6,0.6h0.8v2.3h-1.2c-1.7,0-3-0.7-3-3
		V47.6z"/>
	<path class="st1" d="M120.6,53.3c-2.3,0-4-1.5-4-4s1.6-4,4-4s4,1.5,4,3.9c0,0.2,0,0.4,0,0.6h-5.2c0.1,0.9,0.6,1.3,1.2,1.3
		c0.5,0,0.8-0.3,1-0.6h2.9C124,52,122.5,53.3,120.6,53.3L120.6,53.3z M119.3,48.5h2.4c0-0.7-0.6-1.1-1.2-1.1S119.4,47.7,119.3,48.5
		L119.3,48.5z"/>
	<path class="st1" d="M128.4,53.2h-2.7v-7.9h2.7v1.4c0.6-0.8,1.5-1.5,2.5-1.5v2.9h-0.8c-1.1,0-1.8,0.4-1.8,1.6L128.4,53.2
		L128.4,53.2z"/>
	<path class="st1" d="M134.2,45.3l1.5,5.3l1.5-5.3h2.9l-2.7,7.9H134l-2.7-7.9H134.2L134.2,45.3z"/>
	<path class="st1" d="M144.5,53.3c-2.3,0-4-1.5-4-4s1.6-4,4-4s4,1.5,4,3.9c0,0.2,0,0.4,0,0.6h-5.2c0.1,0.9,0.6,1.3,1.2,1.3
		c0.5,0,0.8-0.3,1-0.6h2.9C148,52,146.5,53.3,144.5,53.3L144.5,53.3z M143.3,48.5h2.4c0-0.7-0.6-1.1-1.2-1.1S143.4,47.7,143.3,48.5
		L143.3,48.5z"/>
	<path class="st1" d="M155,49c0-0.9-0.5-1.4-1.3-1.4s-1.3,0.5-1.3,1.4v4.2h-2.8v-7.9h2.8v1.1c0.5-0.7,1.3-1.2,2.4-1.2
		c1.8,0,3,1.3,3,3.3v4.6H155C155,53.2,155,48.9,155,49z"/>
	<path class="st1" d="M162.8,45.2c2,0,3.4,1.1,3.8,3.1h-2.9c-0.1-0.5-0.5-0.8-1-0.8c-0.7,0-1.1,0.6-1.1,1.7s0.4,1.7,1.1,1.7
		c0.5,0,0.8-0.3,1-0.8h2.9c-0.3,1.7-1.5,2.8-3,3v0.5c0.8,0,1.8,0.4,1.8,1.7s-1.1,1.7-2,1.7h-2.3v-1.4h2c0.3,0,0.5-0.1,0.5-0.3
		c0-0.2-0.2-0.3-0.5-0.3h-1.1v-1.8c-1.9-0.3-3.2-1.8-3.2-4C158.8,46.8,160.4,45.2,162.8,45.2L162.8,45.2z"/>
	<path class="st1" d="M170.6,45.2c1.1,0,1.9,0.5,2.3,1.2v-1.1h2.8v7.9h-2.8v-1.1c-0.4,0.7-1.2,1.2-2.3,1.2c-1.9,0-3.4-1.5-3.4-4
		S168.7,45.2,170.6,45.2L170.6,45.2z M170.8,42.4c0.9,0,1.4,0.6,1.9,0.6c0.3,0,0.6-0.2,0.6-0.6h1.4c-0.3,1.6-1,2.3-2.1,2.3
		c-0.9,0-1.4-0.6-1.9-0.6c-0.3,0-0.6,0.2-0.6,0.6h-1.4C169,43.1,169.8,42.4,170.8,42.4L170.8,42.4z M171.5,47.6
		c-0.8,0-1.4,0.6-1.4,1.6s0.6,1.6,1.4,1.6s1.4-0.6,1.4-1.6S172.3,47.6,171.5,47.6z"/>
	<path class="st1" d="M180.9,53.3c-2.3,0-4.1-1.5-4.1-4s1.8-4,4.1-4s4.1,1.5,4.1,4S183.2,53.3,180.9,53.3L180.9,53.3z M180.9,50.9
		c0.7,0,1.3-0.5,1.3-1.7s-0.6-1.6-1.3-1.6s-1.3,0.5-1.3,1.6S180.2,50.9,180.9,50.9L180.9,50.9z"/>
	<path class="st1" d="M189.1,42.6c2,0,3.4,1,3.4,3c0,1.7-1.3,2.8-3.1,2.8l-0.1,1h-2.4l-0.1-2.8h1c1.2,0,2-0.2,2-1
		c0-0.5-0.3-0.8-0.8-0.8c-0.6,0-0.8,0.4-0.8,0.8h-2.6C185.6,44,186.8,42.5,189.1,42.6L189.1,42.6z M188.2,53.3c-1,0-1.6-0.6-1.6-1.4
		s0.6-1.4,1.6-1.4s1.6,0.6,1.6,1.4S189.1,53.3,188.2,53.3z"/>
</g>
<g>
	<path class="st0" d="M299,243H0V0h299V243z M1,242h297V1H1V242z"/>
</g>
</svg>
