<?xml version="1.0" encoding="utf-8"?>
<!-- Generator: Adobe Illustrator 26.3.1, SVG Export Plug-In . SVG Version: 6.00 Build 0)  -->
<svg version="1.1" id="Camada_1" xmlns="http://www.w3.org/2000/svg" xmlns:xlink="http://www.w3.org/1999/xlink" x="0px" y="0px"
	 viewBox="0 0 299 243" style="enable-background:new 0 0 299 243;" xml:space="preserve">
<style type="text/css">
	.st0{fill:#54BFCD;}
	.st1{fill:#FFFFFF;}
</style>
<g>
	<g>
		<path d="M32.9,96.4c-2.8,0-4.9-2.1-4.9-5s2.2-5,4.9-5s4.9,2.1,4.9,5S35.7,96.4,32.9,96.4z M32.9,95.3c2.1,0,3.6-1.5,3.6-3.9
			s-1.5-3.9-3.6-3.9s-3.6,1.5-3.6,3.9S30.9,95.3,32.9,95.3z"/>
		<path d="M42.2,96.5c-1.8,0-3.1-1-3.1-2.4h1.3c0.1,0.7,0.7,1.3,1.8,1.3c1,0,1.6-0.5,1.6-1.1c0-1.7-4.5-0.7-4.5-3.6
			c0-1.2,1.1-2.1,2.8-2.1s2.8,0.9,2.9,2.4h-1.3c-0.1-0.8-0.6-1.3-1.7-1.3c-0.9,0-1.5,0.4-1.5,1.1c0,1.8,4.4,0.8,4.5,3.6
			C45.1,95.5,43.9,96.5,42.2,96.5L42.2,96.5z"/>
		<path d="M53.7,88.5c1.2,0,2.3,0.6,2.8,1.5V86h1.3v10.4h-1.3v-1.4c-0.5,0.8-1.5,1.6-2.9,1.6c-2.1,0-3.6-1.6-3.6-4
			S51.7,88.5,53.7,88.5L53.7,88.5z M54,89.6c-1.4,0-2.6,1-2.6,2.8s1.2,2.9,2.6,2.9s2.6-1.1,2.6-2.9S55.4,89.6,54,89.6z"/>
		<path d="M63.4,96.5c-2.2,0-3.8-1.5-3.8-4s1.7-3.9,3.9-3.9c2.2,0,3.9,1.5,3.9,3.9S65.6,96.5,63.4,96.5z M63.4,95.3
			c1.3,0,2.6-0.9,2.6-2.9s-1.3-2.8-2.6-2.8s-2.6,0.9-2.6,2.8S62,95.3,63.4,95.3z"/>
		<path d="M68.8,86.6c0-0.5,0.4-0.9,0.9-0.9c0.5,0,0.8,0.4,0.8,0.9s-0.4,0.9-0.8,0.9C69.2,87.4,68.8,87,68.8,86.6z M69,88.7h1.3v7.7
			H69V88.7z"/>
		<path d="M75.2,96.5c-1.8,0-3.1-1-3.1-2.4h1.3c0.1,0.7,0.7,1.3,1.8,1.3c1,0,1.6-0.5,1.6-1.1c0-1.7-4.5-0.7-4.5-3.6
			c0-1.2,1.1-2.1,2.8-2.1s2.8,0.9,2.9,2.4h-1.3c-0.1-0.8-0.6-1.3-1.7-1.3c-0.9,0-1.5,0.4-1.5,1.1c0,1.8,4.5,0.8,4.5,3.6
			C78,95.5,76.9,96.5,75.2,96.5L75.2,96.5z"/>
		<path d="M83.3,86.6c0-0.5,0.4-0.9,0.9-0.9c0.5,0,0.8,0.4,0.8,0.9s-0.4,0.9-0.8,0.9C83.7,87.4,83.3,87,83.3,86.6z M83.5,88.7h1.3
			v7.7h-1.3V88.7z"/>
		<path d="M92.5,92c0-1.6-0.8-2.4-2.1-2.4s-2.2,0.8-2.2,2.5v4.2h-1.3v-7.7h1.3v1.1c0.5-0.8,1.4-1.2,2.5-1.2c1.8,0,3.1,1.1,3.1,3.3
			v4.5h-1.3V92L92.5,92z"/>
		<path d="M99.1,88.5c1.2,0,2.3,0.6,2.8,1.5V86h1.3v10.4h-1.3v-1.4c-0.5,0.8-1.5,1.6-2.9,1.6c-2.1,0-3.6-1.6-3.6-4
			S97,88.5,99.1,88.5L99.1,88.5z M99.3,89.6c-1.4,0-2.6,1-2.6,2.8s1.2,2.9,2.6,2.9s2.6-1.1,2.6-2.9S100.7,89.6,99.3,89.6z"/>
		<path d="M105.1,86.6c0-0.5,0.4-0.9,0.9-0.9c0.5,0,0.8,0.4,0.8,0.9s-0.4,0.9-0.8,0.9C105.5,87.4,105.1,87,105.1,86.6z M105.4,88.7
			h1.3v7.7h-1.3V88.7z"/>
		<path d="M112.1,88.5c1.9,0,3.2,1,3.5,2.6h-1.4c-0.3-0.9-1-1.5-2.2-1.5c-1.4,0-2.4,1-2.4,2.9s1,2.9,2.4,2.9c1.1,0,1.9-0.6,2.2-1.5
			h1.4c-0.4,1.5-1.6,2.6-3.5,2.6c-2.2,0-3.7-1.5-3.7-4S109.9,88.5,112.1,88.5z"/>
		<path d="M120.5,88.5c1.4,0,2.4,0.7,2.9,1.5v-1.4h1.3v7.7h-1.3v-1.4c-0.5,0.8-1.5,1.6-2.9,1.6c-2,0-3.6-1.6-3.6-4
			S118.4,88.5,120.5,88.5z M120.7,89.6c-1.4,0-2.6,1-2.6,2.8s1.2,2.9,2.6,2.9s2.6-1.1,2.6-2.9S122.1,89.6,120.7,89.6z"/>
		<path d="M129.9,88.5c1.2,0,2.3,0.6,2.8,1.5V86h1.3v10.4h-1.3v-1.4c-0.5,0.8-1.5,1.6-2.9,1.6c-2.1,0-3.6-1.6-3.6-4
			S127.8,88.5,129.9,88.5L129.9,88.5z M130.2,89.6c-1.4,0-2.6,1-2.6,2.8s1.2,2.9,2.6,2.9s2.6-1.1,2.6-2.9S131.6,89.6,130.2,89.6z"/>
		<path d="M139.6,96.5c-2.2,0-3.8-1.5-3.8-4s1.7-3.9,3.9-3.9s3.9,1.5,3.9,3.9S141.8,96.5,139.6,96.5z M139.6,95.3
			c1.3,0,2.6-0.9,2.6-2.9s-1.3-2.8-2.6-2.8s-2.6,0.9-2.6,2.8S138.2,95.3,139.6,95.3L139.6,95.3z"/>
		<path d="M146.4,96.3h-1.3v-7.7h1.3v1.2c0.4-0.8,1.3-1.4,2.5-1.4v1.3h-0.3c-1.2,0-2.1,0.6-2.1,2.3V96.3z"/>
		<path d="M153.7,96.5c-2.2,0-3.8-1.5-3.8-4s1.6-3.9,3.8-3.9s3.7,1.6,3.7,3.7c0,0.3,0,0.5,0,0.8h-6.1c0.1,1.6,1.2,2.4,2.5,2.4
			c1.1,0,1.9-0.6,2.2-1.4h1.4C156.9,95.4,155.6,96.4,153.7,96.5L153.7,96.5z M151.2,91.9h4.9c0-1.5-1.1-2.3-2.4-2.3
			C152.4,89.6,151.4,90.4,151.2,91.9L151.2,91.9z"/>
		<path d="M161.8,96.5c-1.8,0-3.1-1-3.1-2.4h1.3c0.1,0.7,0.7,1.3,1.8,1.3c1,0,1.6-0.5,1.6-1.1c0-1.7-4.5-0.7-4.5-3.6
			c0-1.2,1.1-2.1,2.8-2.1s2.8,0.9,2.9,2.4h-1.3c-0.1-0.8-0.6-1.3-1.7-1.3c-0.9,0-1.5,0.4-1.5,1.1c0,1.8,4.5,0.8,4.5,3.6
			C164.6,95.5,163.5,96.5,161.8,96.5L161.8,96.5z"/>
		<path d="M174.3,88.5c2.1,0,3.6,1.5,3.6,3.9s-1.6,4-3.6,4c-1.4,0-2.4-0.8-2.9-1.5v5.1h-1.3V88.7h1.3v1.4
			C171.9,89.3,172.9,88.5,174.3,88.5L174.3,88.5z M174,89.6c-1.4,0-2.6,1.1-2.6,2.8s1.2,2.9,2.6,2.9s2.6-1.1,2.6-2.9
			S175.4,89.6,174,89.6z"/>
		<path d="M182.9,96.5c-2.2,0-3.8-1.5-3.8-4s1.7-3.9,3.9-3.9s3.9,1.5,3.9,3.9S185.1,96.5,182.9,96.5z M182.9,95.3
			c1.3,0,2.6-0.9,2.6-2.9s-1.3-2.8-2.6-2.8s-2.6,0.9-2.6,2.8S181.6,95.3,182.9,95.3L182.9,95.3z"/>
		<path d="M191.7,88.5c1.2,0,2.3,0.6,2.8,1.5V86h1.3v10.4h-1.3v-1.4c-0.5,0.8-1.5,1.6-2.9,1.6c-2.1,0-3.6-1.6-3.6-4
			S189.6,88.5,191.7,88.5L191.7,88.5z M192,89.6c-1.4,0-2.6,1-2.6,2.8s1.2,2.9,2.6,2.9s2.6-1.1,2.6-2.9S193.4,89.6,192,89.6z"/>
		<path d="M201.3,96.5c-2.2,0-3.8-1.5-3.8-4s1.6-3.9,3.8-3.9s3.7,1.6,3.7,3.7c0,0.3,0,0.5,0,0.8h-6.1c0.1,1.6,1.2,2.4,2.5,2.4
			c1.1,0,1.9-0.6,2.2-1.4h1.4C204.5,95.4,203.2,96.4,201.3,96.5L201.3,96.5z M198.9,91.9h4.9c0-1.5-1.1-2.3-2.4-2.3
			C200,89.6,199,90.4,198.9,91.9L198.9,91.9z"/>
		<path d="M217.8,92c0-1.6-0.8-2.4-2.1-2.4s-2.2,0.8-2.2,2.5v4.2h-1.3V92c0-1.6-0.8-2.4-2.1-2.4s-2.2,0.8-2.2,2.5v4.2h-1.3v-7.7h1.3
			v1.1c0.5-0.8,1.4-1.2,2.4-1.2c1.3,0,2.3,0.6,2.8,1.7c0.4-1.1,1.5-1.7,2.7-1.7c1.8,0,3.1,1.1,3.1,3.3v4.5h-1.3L217.8,92L217.8,92z"
			/>
		<path d="M29.8,113.1h-1.3v-7.7h1.3v1.2c0.4-0.8,1.3-1.4,2.5-1.4v1.3h-0.3c-1.2,0-2.1,0.6-2.1,2.3V113.1z"/>
		<path d="M37.1,113.3c-2.2,0-3.8-1.5-3.8-4s1.6-3.9,3.8-3.9s3.7,1.6,3.7,3.7c0,0.3,0,0.5,0,0.8h-6.1c0.1,1.6,1.2,2.4,2.5,2.4
			c1.2,0,1.9-0.6,2.2-1.4h1.4C40.2,112.2,39,113.2,37.1,113.3L37.1,113.3z M34.6,108.7h4.8c0-1.5-1.1-2.3-2.4-2.3
			C35.8,106.4,34.7,107.2,34.6,108.7L34.6,108.7z"/>
		<path d="M46.6,105.3c2.1,0,3.6,1.5,3.6,3.9s-1.6,4-3.6,4c-1.4,0-2.4-0.8-2.9-1.5v5.1h-1.3v-11.3h1.3v1.4
			C44.2,106.1,45.2,105.3,46.6,105.3L46.6,105.3z M46.3,106.4c-1.4,0-2.6,1.1-2.6,2.8s1.2,2.9,2.6,2.9s2.6-1.1,2.6-2.9
			S47.7,106.4,46.3,106.4z"/>
		<path d="M53.2,113.1h-1.3v-7.7h1.3v1.2c0.4-0.8,1.3-1.4,2.5-1.4v1.3h-0.3c-1.2,0-2.1,0.6-2.1,2.3V113.1z"/>
		<path d="M60.4,113.3c-2.2,0-3.8-1.5-3.8-4s1.6-3.9,3.8-3.9s3.7,1.6,3.7,3.7c0,0.3,0,0.5,0,0.8h-6.1c0.1,1.6,1.2,2.4,2.5,2.4
			c1.2,0,1.9-0.6,2.2-1.4H64C63.6,112.2,62.3,113.2,60.4,113.3L60.4,113.3z M57.9,108.7h4.8c0-1.5-1.1-2.3-2.4-2.3
			C59.1,106.4,58.1,107.2,57.9,108.7L57.9,108.7z"/>
		<path d="M68.5,113.3c-1.8,0-3.1-1-3.1-2.4h1.3c0.1,0.7,0.7,1.3,1.8,1.3c1,0,1.6-0.5,1.6-1.1c0-1.7-4.5-0.7-4.5-3.6
			c0-1.2,1.1-2.1,2.8-2.1s2.8,0.9,2.9,2.4H70c-0.1-0.8-0.6-1.3-1.7-1.3c-0.9,0-1.5,0.4-1.5,1.1c0,1.8,4.5,0.8,4.5,3.6
			C71.3,112.3,70.2,113.3,68.5,113.3L68.5,113.3z"/>
		<path d="M76.4,113.3c-2.2,0-3.8-1.5-3.8-4s1.6-3.9,3.8-3.9s3.7,1.6,3.7,3.7c0,0.3,0,0.5,0,0.8h-6.1c0.1,1.6,1.2,2.4,2.5,2.4
			c1.2,0,1.9-0.6,2.2-1.4h1.4C79.5,112.2,78.3,113.2,76.4,113.3L76.4,113.3z M73.9,108.7h4.8c0-1.5-1.1-2.3-2.4-2.3
			C75.1,106.4,74.1,107.2,73.9,108.7L73.9,108.7z"/>
		<path d="M87.4,108.8c0-1.6-0.8-2.4-2.1-2.4s-2.2,0.8-2.2,2.5v4.2h-1.3v-7.7h1.3v1.1c0.5-0.8,1.4-1.2,2.5-1.2
			c1.8,0,3.1,1.1,3.1,3.3v4.5h-1.3V108.8L87.4,108.8z"/>
		<path d="M91,106.5h-1v-1.1h1v-1.9h1.3v1.9h2v1.1h-2v4.5c0,0.8,0.3,1,1.1,1h0.9v1.1h-1.2c-1.4,0-2.1-0.6-2.1-2.1V106.5z"/>
		<path d="M99,105.3c1.4,0,2.4,0.7,2.9,1.5v-1.4h1.3v7.7h-1.3v-1.4c-0.5,0.8-1.5,1.6-2.9,1.6c-2.1,0-3.6-1.6-3.6-4
			S96.9,105.3,99,105.3z M99.2,106.4c-1.4,0-2.6,1-2.6,2.8s1.2,2.9,2.6,2.9s2.6-1.1,2.6-2.9S100.6,106.4,99.2,106.4z"/>
		<path d="M106.6,113.1h-1.3v-7.7h1.3v1.2c0.4-0.8,1.3-1.4,2.5-1.4v1.3h-0.3c-1.2,0-2.1,0.6-2.1,2.3
			C106.6,109,106.6,113.1,106.6,113.1z"/>
		<path d="M117.4,105.3c1.4,0,2.4,0.7,2.9,1.5v-1.4h1.3v7.7h-1.3v-1.4c-0.5,0.8-1.5,1.6-2.9,1.6c-2.1,0-3.6-1.6-3.6-4
			S115.4,105.3,117.4,105.3z M117.7,106.4c-1.4,0-2.6,1-2.6,2.8s1.2,2.9,2.6,2.9s2.6-1.1,2.6-2.9S119.1,106.4,117.7,106.4z"/>
		<path d="M138.5,108.8c0-1.6-0.8-2.4-2.1-2.4s-2.2,0.8-2.2,2.5v4.2H133v-4.3c0-1.6-0.8-2.4-2.1-2.4s-2.2,0.8-2.2,2.5v4.2h-1.3v-7.7
			h1.3v1.1c0.5-0.8,1.4-1.2,2.4-1.2c1.3,0,2.3,0.6,2.8,1.7c0.4-1.1,1.5-1.7,2.7-1.7c1.8,0,3.1,1.1,3.1,3.3v4.5h-1.3L138.5,108.8
			L138.5,108.8z"/>
		<path d="M145.2,113.3c-2.2,0-3.8-1.5-3.8-4s1.6-3.9,3.8-3.9s3.7,1.6,3.7,3.7c0,0.3,0,0.5,0,0.8h-6.1c0.1,1.6,1.2,2.4,2.5,2.4
			c1.1,0,1.9-0.6,2.2-1.4h1.4C148.3,112.2,147.1,113.2,145.2,113.3L145.2,113.3z M142.7,108.7h4.9c0-1.5-1.1-2.3-2.4-2.3
			C143.9,106.4,142.9,107.2,142.7,108.7L142.7,108.7z"/>
		<path d="M153.3,113.3c-1.8,0-3.1-1-3.1-2.4h1.3c0.1,0.7,0.7,1.3,1.8,1.3c1,0,1.6-0.5,1.6-1.1c0-1.7-4.5-0.7-4.5-3.6
			c0-1.2,1.1-2.1,2.8-2.1s2.8,0.9,2.9,2.4h-1.3c-0.1-0.8-0.6-1.3-1.7-1.3c-0.9,0-1.5,0.4-1.5,1.1c0,1.8,4.5,0.8,4.5,3.6
			C156.1,112.3,155,113.3,153.3,113.3L153.3,113.3z"/>
		<path d="M168.9,108.8c0-1.6-0.8-2.4-2.1-2.4s-2.2,0.8-2.2,2.5v4.2h-1.3v-4.3c0-1.6-0.8-2.4-2.1-2.4s-2.2,0.8-2.2,2.5v4.2h-1.3
			v-7.7h1.3v1.1c0.5-0.8,1.4-1.2,2.4-1.2c1.3,0,2.3,0.6,2.8,1.7c0.4-1.1,1.5-1.7,2.7-1.7c1.8,0,3.1,1.1,3.1,3.3v4.5H169L168.9,108.8
			L168.9,108.8z"/>
		<path d="M175.4,105.3c1.4,0,2.4,0.7,2.9,1.5v-1.4h1.3v7.7h-1.3v-1.4c-0.5,0.8-1.5,1.6-2.9,1.6c-2,0-3.6-1.6-3.6-4
			S173.4,105.3,175.4,105.3z M175.7,106.4c-1.4,0-2.6,1-2.6,2.8s1.2,2.9,2.6,2.9s2.6-1.1,2.6-2.9S177.1,106.4,175.7,106.4z"/>
		<path d="M185.3,103.3c0-0.5,0.4-0.9,0.9-0.9c0.5,0,0.8,0.4,0.8,0.9s-0.4,0.9-0.8,0.9C185.6,104.2,185.3,103.8,185.3,103.3z
			 M185.5,105.5h1.3v7.7h-1.3V105.5z"/>
		<path d="M194.5,108.8c0-1.6-0.9-2.4-2.1-2.4s-2.2,0.8-2.2,2.5v4.2h-1.3v-7.7h1.3v1.1c0.5-0.8,1.4-1.2,2.5-1.2
			c1.8,0,3.1,1.1,3.1,3.3v4.5h-1.3L194.5,108.8L194.5,108.8z"/>
		<path d="M198.2,106.5h-1v-1.1h1v-1.9h1.3v1.9h2v1.1h-2v4.5c0,0.8,0.3,1,1.1,1h0.9v1.1h-1.1c-1.4,0-2.1-0.6-2.1-2.1V106.5z"/>
		<path d="M206.3,113.3c-2.2,0-3.8-1.5-3.8-4s1.6-3.9,3.8-3.9s3.7,1.6,3.7,3.7c0,0.3,0,0.5,0,0.8h-6.1c0.1,1.6,1.2,2.4,2.5,2.4
			c1.1,0,1.9-0.6,2.2-1.4h1.4C209.4,112.2,208.2,113.2,206.3,113.3L206.3,113.3z M203.8,108.7h4.9c0-1.5-1.1-2.3-2.4-2.3
			C205,106.4,204,107.2,203.8,108.7L203.8,108.7z"/>
		<path d="M212.9,113.1h-1.3v-7.7h1.3v1.2c0.4-0.8,1.3-1.4,2.5-1.4v1.3h-0.3c-1.2,0-2.1,0.6-2.1,2.3V113.1z"/>
		<path d="M217.3,105.5l2.4,6.5l2.4-6.5h1.4l-3,7.7H219l-3-7.7H217.3L217.3,105.5z"/>
		<path d="M228.1,113.3c-2.2,0-3.8-1.5-3.8-4s1.6-3.9,3.8-3.9s3.7,1.6,3.7,3.7c0,0.3,0,0.5,0,0.8h-6.1c0.1,1.6,1.2,2.4,2.5,2.4
			c1.1,0,1.9-0.6,2.2-1.4h1.4C231.2,112.2,230,113.2,228.1,113.3L228.1,113.3z M225.6,108.7h4.9c0-1.5-1.1-2.3-2.4-2.3
			C226.8,106.4,225.7,107.2,225.6,108.7L225.6,108.7z"/>
		<path d="M239,108.8c0-1.6-0.9-2.4-2.1-2.4s-2.2,0.8-2.2,2.5v4.2h-1.3v-7.7h1.3v1.1c0.5-0.8,1.4-1.2,2.5-1.2c1.8,0,3.1,1.1,3.1,3.3
			v4.5H239L239,108.8L239,108.8z"/>
		<path d="M245.6,105.3c1.9,0,3.1,1,3.5,2.6h-1.4c-0.3-0.9-1-1.5-2.2-1.5c-1.4,0-2.4,1-2.4,2.9s1,2.9,2.4,2.9c1.1,0,1.9-0.6,2.2-1.5
			h1.4c-0.4,1.4-1.5,2.4-3.1,2.6v0.7c1.1,0,1.8,0.5,1.8,1.4s-0.7,1.4-1.7,1.4h-1.6v-0.8h1.4c0.6,0,0.9-0.2,0.9-0.6s-0.3-0.6-0.9-0.6
			h-0.7v-1.5c-1.9-0.2-3.3-1.7-3.3-3.9C241.9,106.9,243.4,105.3,245.6,105.3z"/>
		<path d="M254,105.3c1.4,0,2.4,0.7,2.9,1.5v-1.4h1.3v7.7h-1.3v-1.4c-0.5,0.8-1.5,1.6-2.9,1.6c-2,0-3.6-1.6-3.6-4
			S252,105.3,254,105.3L254,105.3z M254.3,106.4c-1.4,0-2.6,1-2.6,2.8s1.2,2.9,2.6,2.9s2.6-1.1,2.6-2.9S255.7,106.4,254.3,106.4z
			 M253.9,103.2c0.7,0,1,0.6,1.6,0.6c0.3,0,0.6-0.2,0.6-0.6h0.7c-0.1,0.9-0.7,1.5-1.4,1.5c-0.7,0-1-0.6-1.6-0.6
			c-0.3,0-0.6,0.2-0.6,0.6h-0.7C252.6,103.7,253.2,103.2,253.9,103.2L253.9,103.2z"/>
		<path d="M263.7,113.3c-2.2,0-3.8-1.5-3.8-4s1.7-3.9,3.9-3.9s3.9,1.5,3.9,3.9S265.9,113.3,263.7,113.3z M263.7,112.1
			c1.3,0,2.6-0.9,2.6-2.9s-1.3-2.8-2.6-2.8s-2.6,0.9-2.6,2.8S262.4,112.1,263.7,112.1z"/>
		<path d="M269.6,111.4h1.4l-1.6,3.8h-0.9L269.6,111.4L269.6,111.4z M270,107.2c-0.5,0-0.9-0.4-0.9-0.9s0.4-0.9,0.9-0.9
			c0.5,0,0.8,0.4,0.8,0.9S270.5,107.2,270,107.2z"/>
		<path d="M34.1,125.6c0-1.6-0.9-2.4-2.1-2.4s-2.2,0.8-2.2,2.5v4.2h-1.3v-7.7h1.3v1.1c0.5-0.8,1.4-1.2,2.5-1.2
			c1.8,0,3.1,1.1,3.1,3.3v4.5h-1.3V125.6L34.1,125.6z"/>
		<path d="M40.8,130.1c-2.2,0-3.8-1.5-3.8-4c0-2.4,1.7-3.9,3.9-3.9c2.2,0,3.9,1.5,3.9,3.9C44.8,128.5,43,130.1,40.8,130.1z
			 M40.8,128.9c1.3,0,2.6-0.9,2.6-2.9c0-1.9-1.3-2.8-2.6-2.8s-2.6,0.9-2.6,2.8C38.3,128,39.5,128.9,40.8,128.9z"/>
		<path d="M53.5,130.1c-2.2,0-3.8-1.5-3.8-4c0-2.4,1.6-3.9,3.8-3.9s3.7,1.6,3.7,3.7c0,0.3,0,0.5,0,0.8H51c0.1,1.6,1.2,2.4,2.5,2.4
			c1.2,0,1.9-0.6,2.2-1.4H57C56.6,129,55.4,130.1,53.5,130.1L53.5,130.1z M51,125.5h4.8c0-1.5-1.1-2.3-2.4-2.3
			C52.2,123.2,51.2,124,51,125.5L51,125.5z"/>
		<path d="M64.5,125.6c0-1.6-0.8-2.4-2.1-2.4s-2.2,0.8-2.2,2.5v4.2h-1.3v-7.7h1.3v1.1c0.5-0.8,1.4-1.2,2.5-1.2
			c1.8,0,3.1,1.1,3.1,3.3v4.5h-1.3V125.6L64.5,125.6z"/>
		<path d="M68.1,123.3h-1v-1.1h1v-1.9h1.3v1.9h2v1.1h-2v4.5c0,0.8,0.3,1,1.1,1h0.9v1.1h-1.2c-1.4,0-2.1-0.6-2.1-2.1V123.3z"/>
		<path d="M76.1,122.1c1.4,0,2.4,0.7,2.9,1.5v-1.4h1.3v7.7h-1.3v-1.4c-0.5,0.8-1.5,1.6-2.9,1.6c-2.1,0-3.6-1.6-3.6-4
			S74,122.1,76.1,122.1z M76.3,123.2c-1.4,0-2.6,1-2.6,2.8s1.2,2.9,2.6,2.9s2.6-1.1,2.6-2.9S77.7,123.2,76.3,123.2z"/>
		<path d="M88,125.6c0-1.6-0.8-2.4-2.1-2.4s-2.2,0.8-2.2,2.5v4.2h-1.3v-7.7h1.3v1.1c0.5-0.8,1.4-1.2,2.5-1.2c1.8,0,3.1,1.1,3.1,3.3
			v4.5H88L88,125.6L88,125.6z"/>
		<path d="M91.6,123.3h-1v-1.1h1v-1.9h1.3v1.9h2v1.1h-2v4.5c0,0.8,0.3,1,1.1,1h0.9v1.1h-1.2c-1.4,0-2.1-0.6-2.1-2.1L91.6,123.3
			L91.6,123.3z"/>
		<path d="M99.8,130.1c-2.2,0-3.8-1.5-3.8-4c0-2.4,1.7-3.9,3.9-3.9s3.9,1.5,3.9,3.9C103.7,128.5,102,130.1,99.8,130.1z M99.8,128.9
			c1.3,0,2.6-0.9,2.6-2.9c0-1.9-1.3-2.8-2.6-2.8s-2.6,0.9-2.6,2.8C97.3,128,98.5,128.9,99.8,128.9z"/>
		<path d="M105.3,128.2h1.4l-1.6,3.8h-0.9L105.3,128.2L105.3,128.2z"/>
		<path d="M115.3,130.1c-2.2,0-3.8-1.5-3.8-4c0-2.4,1.7-3.9,3.9-3.9s3.9,1.5,3.9,3.9C119.2,128.5,117.4,130.1,115.3,130.1z
			 M115.3,128.9c1.3,0,2.6-0.9,2.6-2.9c0-1.9-1.3-2.8-2.6-2.8s-2.6,0.9-2.6,2.8C112.7,128,113.9,128.9,115.3,128.9z"/>
		<path d="M128.7,122.1c2.1,0,3.6,1.5,3.6,3.9s-1.6,4-3.6,4c-1.4,0-2.4-0.8-2.9-1.5v5.1h-1.3v-11.3h1.3v1.4
			C126.3,122.9,127.3,122.1,128.7,122.1L128.7,122.1z M128.5,123.2c-1.4,0-2.6,1.1-2.6,2.8s1.2,2.9,2.6,2.9c1.4,0,2.6-1.1,2.6-2.9
			S129.9,123.2,128.5,123.2z"/>
		<path d="M135.3,129.9h-1.3v-7.7h1.3v1.2c0.4-0.8,1.3-1.4,2.5-1.4v1.3h-0.3c-1.2,0-2.1,0.6-2.1,2.3V129.9z"/>
		<path d="M139.1,120.2c0-0.5,0.4-0.9,0.9-0.9c0.5,0,0.8,0.4,0.8,0.9s-0.4,0.9-0.8,0.9C139.4,121,139.1,120.6,139.1,120.2z
			 M139.3,122.3h1.3v7.7h-1.3V122.3z"/>
		<path d="M153.8,125.6c0-1.6-0.8-2.4-2.1-2.4s-2.2,0.8-2.2,2.5v4.2h-1.3v-4.3c0-1.6-0.8-2.4-2.1-2.4s-2.2,0.8-2.2,2.5v4.2h-1.3
			v-7.7h1.3v1.1c0.5-0.8,1.4-1.2,2.4-1.2c1.3,0,2.3,0.6,2.8,1.7c0.4-1.1,1.5-1.7,2.7-1.7c1.8,0,3.1,1.1,3.1,3.3v4.5h-1.3
			L153.8,125.6L153.8,125.6z"/>
		<path d="M160.5,130.1c-2.2,0-3.8-1.5-3.8-4c0-2.4,1.6-3.9,3.8-3.9s3.7,1.6,3.7,3.7c0,0.3,0,0.5,0,0.8H158c0.1,1.6,1.2,2.4,2.5,2.4
			c1.1,0,1.9-0.6,2.2-1.4h1.4C163.6,129,162.4,130.1,160.5,130.1z M158,125.5h4.9c0-1.5-1.1-2.3-2.4-2.3
			C159.2,123.2,158.1,124,158,125.5L158,125.5z"/>
		<path d="M165.6,120.2c0-0.5,0.4-0.9,0.9-0.9c0.5,0,0.8,0.4,0.8,0.9s-0.4,0.9-0.8,0.9C166,121,165.6,120.6,165.6,120.2z
			 M165.8,122.3h1.3v7.7h-1.3V122.3z"/>
		<path d="M170.5,129.9h-1.3v-7.7h1.3v1.2c0.4-0.8,1.3-1.4,2.5-1.4v1.3h-0.3c-1.2,0-2.1,0.6-2.1,2.3V129.9z"/>
		<path d="M177.8,130.1c-2.2,0-3.8-1.5-3.8-4c0-2.4,1.7-3.9,3.9-3.9s3.9,1.5,3.9,3.9C181.8,128.5,180,130.1,177.8,130.1z
			 M177.8,128.9c1.3,0,2.6-0.9,2.6-2.9c0-1.9-1.3-2.8-2.6-2.8s-2.6,0.9-2.6,2.8C175.3,128,176.5,128.9,177.8,128.9L177.8,128.9z"/>
		<path d="M190.5,130.1c-2.2,0-3.8-1.5-3.8-4c0-2.4,1.6-3.9,3.8-3.9s3.7,1.6,3.7,3.7c0,0.3,0,0.5,0,0.8H188c0.1,1.6,1.2,2.4,2.5,2.4
			c1.1,0,1.9-0.6,2.2-1.4h1.4C193.6,129,192.4,130.1,190.5,130.1z M188,125.5h4.9c0-1.5-1.1-2.3-2.4-2.3
			C189.2,123.2,188.2,124,188,125.5L188,125.5z M191.8,119v1.1l-3,1.6v-0.9L191.8,119L191.8,119z"/>
		<path d="M206.4,129.9h-1.3v-1.1c-0.5,0.8-1.4,1.2-2.4,1.2c-1.8,0-3.1-1.1-3.1-3.3v-4.5h1.3v4.3c0,1.6,0.9,2.4,2.1,2.4
			s2.2-0.8,2.2-2.5v-4.2h1.3V129.9L206.4,129.9z"/>
		<path d="M219.6,125.6c0-1.6-0.8-2.4-2.1-2.4s-2.2,0.8-2.2,2.5v4.2h-1.3v-4.3c0-1.6-0.8-2.4-2.1-2.4s-2.2,0.8-2.2,2.5v4.2h-1.3
			v-7.7h1.3v1.1c0.5-0.8,1.4-1.2,2.4-1.2c1.3,0,2.3,0.6,2.8,1.7c0.4-1.1,1.5-1.7,2.7-1.7c1.8,0,3.1,1.1,3.1,3.3v4.5h-1.3
			L219.6,125.6L219.6,125.6z"/>
		<path d="M28.3,136.9c0-0.5,0.4-0.9,0.9-0.9c0.5,0,0.8,0.4,0.8,0.9s-0.4,0.9-0.8,0.9C28.7,137.8,28.3,137.4,28.3,136.9z
			 M28.5,139.1h1.3v7.7h-1.3V139.1z"/>
		<path d="M37.6,142.4c0-1.6-0.8-2.4-2.1-2.4s-2.2,0.8-2.2,2.5v4.2H32v-7.7h1.3v1.1c0.5-0.8,1.4-1.2,2.5-1.2c1.8,0,3.1,1.1,3.1,3.3
			v4.5h-1.3L37.6,142.4L37.6,142.4z"/>
		<path d="M44.1,138.9c1.2,0,2.3,0.6,2.8,1.5v-4.1h1.3v10.4h-1.3v-1.4c-0.5,0.9-1.5,1.6-2.9,1.6c-2.1,0-3.6-1.6-3.6-4
			S42,138.9,44.1,138.9L44.1,138.9z M44.3,140c-1.4,0-2.6,1-2.6,2.8s1.2,2.9,2.6,2.9s2.6-1.1,2.6-2.9S45.7,140,44.3,140z"/>
		<path d="M50.2,136.9c0-0.5,0.4-0.9,0.9-0.9c0.5,0,0.8,0.4,0.8,0.9s-0.4,0.9-0.8,0.9C50.6,137.8,50.2,137.4,50.2,136.9z
			 M50.4,139.1h1.3v7.7h-1.3V139.1z"/>
		<path d="M57.1,138.9c1.9,0,3.2,1,3.5,2.6h-1.4c-0.3-0.9-1-1.5-2.2-1.5c-1.4,0-2.4,1-2.4,2.9s1,2.9,2.4,2.9c1.1,0,1.9-0.6,2.2-1.5
			h1.4c-0.4,1.5-1.6,2.6-3.5,2.6c-2.2,0-3.7-1.5-3.7-4S54.9,138.9,57.1,138.9z"/>
		<path d="M65.5,138.9c1.4,0,2.4,0.7,2.9,1.5v-1.4h1.3v7.7h-1.3v-1.4c-0.5,0.8-1.5,1.6-2.9,1.6c-2,0-3.6-1.6-3.6-4
			S63.4,138.9,65.5,138.9z M65.7,140c-1.4,0-2.6,1-2.6,2.8s1.2,2.9,2.6,2.9s2.6-1.1,2.6-2.9S67.1,140,65.7,140z"/>
		<path d="M75,138.9c1.2,0,2.3,0.6,2.8,1.5v-4.1h1.3v10.4h-1.3v-1.4c-0.5,0.9-1.5,1.6-2.9,1.6c-2.1,0-3.6-1.6-3.6-4
			S72.9,138.9,75,138.9L75,138.9z M75.2,140c-1.4,0-2.6,1-2.6,2.8s1.2,2.9,2.6,2.9s2.6-1.1,2.6-2.9S76.6,140,75.2,140z"/>
		<path d="M84.6,146.9c-2.2,0-3.8-1.5-3.8-4s1.7-3.9,3.9-3.9s3.9,1.5,3.9,3.9S86.8,146.9,84.6,146.9z M84.6,145.7
			c1.3,0,2.6-0.9,2.6-2.9S86,140,84.6,140s-2.6,0.9-2.6,2.8S83.3,145.7,84.6,145.7z"/>
		<path d="M91.5,146.7h-1.3v-7.7h1.3v1.2c0.4-0.9,1.3-1.4,2.5-1.4v1.3h-0.3c-1.2,0-2.1,0.6-2.1,2.3L91.5,146.7L91.5,146.7z"/>
		<path d="M102.4,138.9c1.2,0,2.3,0.6,2.8,1.5v-4.1h1.3v10.4h-1.3v-1.4c-0.5,0.9-1.5,1.6-2.9,1.6c-2.1,0-3.6-1.6-3.6-4
			S100.3,138.9,102.4,138.9L102.4,138.9z M102.6,140c-1.4,0-2.6,1-2.6,2.8s1.2,2.9,2.6,2.9s2.6-1.1,2.6-2.9S104,140,102.6,140z"/>
		<path d="M112,146.9c-2.2,0-3.8-1.5-3.8-4s1.6-3.9,3.8-3.9s3.7,1.6,3.7,3.7c0,0.3,0,0.5,0,0.8h-6.1c0.1,1.6,1.2,2.4,2.5,2.4
			c1.2,0,1.9-0.6,2.2-1.4h1.4C115.1,145.8,113.9,146.9,112,146.9L112,146.9z M109.5,142.3h4.8c0-1.5-1.1-2.3-2.4-2.3
			C110.7,140,109.6,140.8,109.5,142.3L109.5,142.3z"/>
		<path d="M124.4,146.9c-2.2,0-3.8-1.5-3.8-4s1.6-3.9,3.8-3.9s3.7,1.6,3.7,3.7c0,0.3,0,0.5,0,0.8h-6.1c0.1,1.6,1.2,2.4,2.5,2.4
			c1.2,0,1.9-0.6,2.2-1.4h1.4C127.5,145.8,126.3,146.9,124.4,146.9L124.4,146.9z M121.9,142.3h4.8c0-1.5-1.1-2.3-2.4-2.3
			C123.1,140,122,140.8,121.9,142.3L121.9,142.3z"/>
		<path d="M130,140.1h-1v-1.1h1v-0.6c0-1.7,0.8-2.5,2.8-2.5v1.1c-1.1,0-1.5,0.4-1.5,1.4v0.6h1.6v1.1h-1.6v6.6H130L130,140.1
			L130,140.1z"/>
		<path d="M137.7,146.9c-2.2,0-3.8-1.5-3.8-4s1.6-3.9,3.8-3.9s3.7,1.6,3.7,3.7c0,0.3,0,0.5,0,0.8h-6.1c0.1,1.6,1.2,2.4,2.5,2.4
			c1.1,0,1.9-0.6,2.2-1.4h1.4C140.8,145.8,139.6,146.9,137.7,146.9L137.7,146.9z M135.2,142.3h4.9c0-1.5-1.1-2.3-2.4-2.3
			C136.4,140,135.3,140.8,135.2,142.3L135.2,142.3z"/>
		<path d="M142.8,136.9c0-0.5,0.4-0.9,0.9-0.9c0.5,0,0.8,0.4,0.8,0.9s-0.4,0.9-0.8,0.9C143.2,137.8,142.8,137.4,142.8,136.9z
			 M143,139.1h1.3v7.7H143V139.1z"/>
		<path d="M146.7,140.1h-1v-1.1h1v-1.9h1.3v1.9h2v1.1h-2v4.5c0,0.8,0.3,1,1.1,1h0.9v1.1h-1.1c-1.4,0-2.1-0.6-2.1-2.1V140.1z"/>
		<path d="M154.9,146.9c-2.2,0-3.8-1.5-3.8-4s1.7-3.9,3.9-3.9s3.9,1.5,3.9,3.9S157.1,146.9,154.9,146.9z M154.9,145.7
			c1.3,0,2.6-0.9,2.6-2.9s-1.3-2.8-2.6-2.8s-2.6,0.9-2.6,2.8S153.6,145.7,154.9,145.7L154.9,145.7z"/>
		<path d="M167.5,149.3c-1.8-1.8-2.8-4.6-2.8-7.7s1.1-6.1,3.1-8h1.3v0.1c-2.2,2-3.1,5-3.1,7.8s1,5.6,2.9,7.6v0.1L167.5,149.3
			L167.5,149.3z"/>
		<path d="M174,146.9c-2.2,0-3.8-1.5-3.8-4s1.7-3.9,3.9-3.9s3.9,1.5,3.9,3.9S176.1,146.9,174,146.9z M174,145.7
			c1.3,0,2.6-0.9,2.6-2.9s-1.3-2.8-2.6-2.8s-2.6,0.9-2.6,2.8S172.6,145.7,174,145.7L174,145.7z"/>
		<path d="M186.4,146.7h-1.3v-1.1c-0.5,0.8-1.4,1.2-2.4,1.2c-1.8,0-3.1-1.1-3.1-3.3v-4.5h1.3v4.3c0,1.6,0.9,2.4,2.1,2.4
			s2.2-0.8,2.2-2.5v-4.2h1.3V146.7L186.4,146.7z"/>
		<path d="M195.4,138.9c1.2,0,2.3,0.6,2.8,1.5v-4.1h1.3v10.4h-1.3v-1.4c-0.5,0.9-1.5,1.6-2.9,1.6c-2.1,0-3.6-1.6-3.6-4
			S193.4,138.9,195.4,138.9L195.4,138.9z M195.7,140c-1.4,0-2.6,1-2.6,2.8s1.2,2.9,2.6,2.9s2.6-1.1,2.6-2.9S197.1,140,195.7,140z"/>
		<path d="M205.1,146.9c-2.2,0-3.8-1.5-3.8-4s1.6-3.9,3.8-3.9s3.7,1.6,3.7,3.7c0,0.3,0,0.5,0,0.8h-6.1c0.1,1.6,1.2,2.4,2.5,2.4
			c1.1,0,1.9-0.6,2.2-1.4h1.4C208.2,145.8,207,146.9,205.1,146.9L205.1,146.9z M202.6,142.3h4.9c0-1.5-1.1-2.3-2.4-2.3
			C203.8,140,202.7,140.8,202.6,142.3L202.6,142.3z"/>
		<path d="M28.3,153.8c0-0.5,0.4-0.9,0.9-0.9c0.5,0,0.8,0.4,0.8,0.9s-0.4,0.9-0.8,0.9C28.7,154.6,28.3,154.2,28.3,153.8z
			 M28.5,155.9h1.3v7.7h-1.3V155.9z"/>
		<path d="M43,159.2c0-1.6-0.8-2.4-2.1-2.4c-1.3,0-2.2,0.8-2.2,2.5v4.2h-1.3v-4.3c0-1.6-0.8-2.4-2.1-2.4c-1.3,0-2.2,0.8-2.2,2.5v4.2
			H32v-7.7h1.3v1.1c0.5-0.8,1.4-1.2,2.4-1.2c1.3,0,2.3,0.6,2.8,1.7c0.5-1.1,1.5-1.7,2.7-1.7c1.8,0,3.1,1.1,3.1,3.3v4.5h-1.3
			L43,159.2L43,159.2z"/>
		<path d="M50.5,155.7c2.1,0,3.6,1.5,3.6,3.9s-1.6,4-3.6,4c-1.4,0-2.4-0.8-2.9-1.5v5.1h-1.3v-11.3h1.3v1.4
			C48.1,156.5,49.1,155.8,50.5,155.7L50.5,155.7z M50.2,156.9c-1.4,0-2.6,1.1-2.6,2.8s1.2,2.9,2.6,2.9s2.6-1.1,2.6-2.9
			S51.7,156.9,50.2,156.9z"/>
		<path d="M59,155.7c1.4,0,2.4,0.7,2.9,1.5v-1.4h1.3v7.7h-1.3v-1.4c-0.5,0.8-1.5,1.6-2.9,1.6c-2,0-3.6-1.6-3.6-4S57,155.7,59,155.7z
			 M59.3,156.9c-1.4,0-2.6,1-2.6,2.8s1.2,2.9,2.6,2.9s2.6-1.1,2.6-2.9S60.7,156.9,59.3,156.9z"/>
		<path d="M68.6,155.7c1.9,0,3.2,1,3.5,2.6h-1.4c-0.3-0.9-1-1.5-2.2-1.5c-1.4,0-2.4,1-2.4,2.9s1,2.9,2.4,2.9c1.1,0,1.9-0.6,2.2-1.5
			h1.4c-0.4,1.5-1.6,2.6-3.5,2.6c-2.2,0-3.7-1.5-3.7-4S66.4,155.7,68.6,155.7z"/>
		<path d="M74.1,156.9h-1v-1.1h1v-1.9h1.3v1.9h2v1.1h-2v4.5c0,0.8,0.3,1,1.1,1h0.9v1.1h-1.2c-1.4,0-2.1-0.6-2.1-2.1L74.1,156.9
			L74.1,156.9z"/>
		<path d="M82.3,163.7c-2.2,0-3.8-1.5-3.8-4s1.7-3.9,3.9-3.9s3.9,1.5,3.9,3.9S84.4,163.7,82.3,163.7z M82.3,162.5
			c1.3,0,2.6-0.9,2.6-2.9s-1.3-2.8-2.6-2.8s-2.6,0.9-2.6,2.8S80.9,162.5,82.3,162.5z"/>
		<path d="M87.5,166.1V166c1.9-2,2.9-4.8,2.9-7.6s-1-5.8-3.2-7.8v-0.1h1.3c2,1.8,3.1,4.8,3.1,8s-1.1,6-2.8,7.7L87.5,166.1
			L87.5,166.1z"/>
		<path d="M94.1,161.8h1.4l-1.6,3.8h-0.8L94.1,161.8z"/>
		<path d="M104.1,163.7c-2.2,0-3.8-1.5-3.8-4s1.6-3.9,3.8-3.9s3.7,1.6,3.7,3.7c0,0.3,0,0.5,0,0.8h-6.1c0.1,1.6,1.2,2.4,2.5,2.4
			c1.2,0,1.9-0.6,2.2-1.4h1.4C107.2,162.6,106,163.7,104.1,163.7L104.1,163.7z M101.6,159.1h4.8c0-1.5-1.1-2.3-2.4-2.3
			C102.8,156.8,101.7,157.6,101.6,159.1L101.6,159.1z"/>
		<path d="M116.5,163.7c-2.2,0-3.8-1.5-3.8-4s1.7-3.9,3.9-3.9s3.9,1.5,3.9,3.9S118.7,163.7,116.5,163.7z M116.5,162.5
			c1.3,0,2.6-0.9,2.6-2.9s-1.3-2.8-2.6-2.8s-2.6,0.9-2.6,2.8S115.2,162.5,116.5,162.5z"/>
		<path d="M128.6,163.7c-1.8,0-3-1-3.1-2.4h1.3c0.1,0.7,0.7,1.3,1.8,1.3c1,0,1.6-0.5,1.6-1.1c0-1.7-4.5-0.7-4.5-3.6
			c0-1.2,1.1-2.1,2.8-2.1s2.8,0.9,2.9,2.4H130c-0.1-0.8-0.6-1.3-1.7-1.3c-0.9,0-1.5,0.4-1.5,1.1c0,1.8,4.5,0.8,4.5,3.6
			C131.4,162.7,130.3,163.7,128.6,163.7L128.6,163.7z"/>
		<path d="M136.5,163.7c-2.2,0-3.8-1.5-3.8-4s1.6-3.9,3.8-3.9s3.7,1.6,3.7,3.7c0,0.3,0,0.5,0,0.8H134c0.1,1.6,1.2,2.4,2.5,2.4
			c1.1,0,1.9-0.6,2.2-1.4h1.4C139.6,162.6,138.4,163.7,136.5,163.7L136.5,163.7z M134,159.1h4.9c0-1.5-1.1-2.3-2.4-2.3
			C135.2,156.8,134.1,157.6,134,159.1L134,159.1z"/>
		<path d="M145,155.7c1.4,0,2.4,0.7,2.9,1.5v-1.4h1.3v7.8c0,2.1-1.4,3.6-3.7,3.6c-2,0-3.5-1-3.7-2.7h1.3c0.3,0.9,1.2,1.6,2.4,1.6
			c1.4,0,2.4-0.9,2.4-2.5v-1.6c-0.5,0.8-1.5,1.6-2.9,1.6c-2.1,0-3.6-1.6-3.6-4S142.9,155.7,145,155.7L145,155.7z M145.2,156.9
			c-1.4,0-2.6,1-2.6,2.8s1.2,2.9,2.6,2.9s2.6-1.1,2.6-2.9S146.7,156.9,145.2,156.9z"/>
		<path d="M158.1,163.5h-1.3v-1.1c-0.5,0.8-1.4,1.2-2.4,1.2c-1.8,0-3.1-1.1-3.1-3.3v-4.5h1.3v4.3c0,1.6,0.9,2.4,2.1,2.4
			s2.2-0.8,2.2-2.5v-4.2h1.3V163.5z"/>
		<path d="M165.9,159.2c0-1.6-0.9-2.4-2.1-2.4s-2.2,0.8-2.2,2.5v4.2h-1.3v-7.7h1.3v1.1c0.5-0.8,1.4-1.2,2.5-1.2
			c1.8,0,3.1,1.1,3.1,3.3v4.5h-1.3L165.9,159.2L165.9,159.2z"/>
		<path d="M172.4,155.7c1.2,0,2.3,0.6,2.8,1.5v-4.1h1.3v10.4h-1.3v-1.4c-0.5,0.9-1.5,1.6-2.9,1.6c-2.1,0-3.6-1.6-3.6-4
			S170.3,155.8,172.4,155.7L172.4,155.7z M172.6,156.9c-1.4,0-2.6,1-2.6,2.8s1.2,2.9,2.6,2.9s2.6-1.1,2.6-2.9S174,156.9,172.6,156.9
			z"/>
		<path d="M182,163.7c-2.2,0-3.8-1.5-3.8-4s1.7-3.9,3.9-3.9s3.9,1.5,3.9,3.9S184.2,163.7,182,163.7z M182,162.5
			c1.3,0,2.6-0.9,2.6-2.9s-1.3-2.8-2.6-2.8s-2.6,0.9-2.6,2.8S180.7,162.5,182,162.5L182,162.5z"/>
		<path d="M187.6,161.8h1.4l-1.6,3.8h-0.9L187.6,161.8L187.6,161.8z"/>
		<path d="M201,163.5h-1.3v-1.1c-0.5,0.8-1.4,1.2-2.4,1.2c-1.8,0-3.1-1.1-3.1-3.3v-4.5h1.3v4.3c0,1.6,0.9,2.4,2.1,2.4
			s2.2-0.8,2.2-2.5v-4.2h1.3V163.5z"/>
		<path d="M214.2,159.2c0-1.6-0.8-2.4-2.1-2.4s-2.2,0.8-2.2,2.5v4.2h-1.3v-4.3c0-1.6-0.8-2.4-2.1-2.4s-2.2,0.8-2.2,2.5v4.2h-1.3
			v-7.7h1.3v1.1c0.5-0.8,1.4-1.2,2.4-1.2c1.3,0,2.3,0.6,2.8,1.7c0.4-1.1,1.5-1.7,2.7-1.7c1.8,0,3.1,1.1,3.1,3.3v4.5h-1.3
			L214.2,159.2L214.2,159.2z"/>
		<path d="M28.3,170.6c0-0.5,0.4-0.9,0.9-0.9c0.5,0,0.8,0.4,0.8,0.9s-0.4,0.9-0.8,0.9C28.7,171.4,28.3,171,28.3,170.6z M28.5,172.7
			h1.3v7.7h-1.3V172.7z"/>
		<path d="M37.6,176c0-1.6-0.8-2.4-2.1-2.4s-2.2,0.8-2.2,2.5v4.2H32v-7.7h1.3v1.1c0.5-0.8,1.4-1.2,2.5-1.2c1.8,0,3.1,1.1,3.1,3.3
			v4.5h-1.3L37.6,176L37.6,176z"/>
		<path d="M44.1,172.5c1.2,0,2.3,0.6,2.8,1.5V170h1.3v10.4h-1.3v-1.4c-0.5,0.9-1.5,1.6-2.9,1.6c-2.1,0-3.6-1.6-3.6-4
			S42,172.5,44.1,172.5L44.1,172.5z M44.3,173.6c-1.4,0-2.6,1-2.6,2.8s1.2,2.9,2.6,2.9s2.6-1.1,2.6-2.9S45.7,173.6,44.3,173.6z"/>
		<path d="M50.2,170.6c0-0.5,0.4-0.9,0.9-0.9c0.5,0,0.8,0.4,0.8,0.9s-0.4,0.9-0.8,0.9C50.6,171.4,50.2,171,50.2,170.6z M50.4,172.7
			h1.3v7.7h-1.3V172.7z"/>
		<path d="M57.1,172.5c1.9,0,3.2,1,3.5,2.6h-1.4c-0.3-0.9-1-1.5-2.2-1.5c-1.4,0-2.4,1-2.4,2.9s1,2.9,2.4,2.9c1.1,0,1.9-0.6,2.2-1.5
			h1.4c-0.4,1.5-1.6,2.6-3.5,2.6c-2.2,0-3.7-1.5-3.7-4S54.9,172.5,57.1,172.5z"/>
		<path d="M65.5,172.5c1.4,0,2.4,0.7,2.9,1.5v-1.4h1.3v7.7h-1.3v-1.4c-0.5,0.8-1.5,1.6-2.9,1.6c-2,0-3.6-1.6-3.6-4
			S63.4,172.5,65.5,172.5z M65.7,173.6c-1.4,0-2.6,1-2.6,2.8s1.2,2.9,2.6,2.9s2.6-1.1,2.6-2.9S67.1,173.6,65.7,173.6z"/>
		<path d="M75,172.5c1.2,0,2.3,0.6,2.8,1.5V170h1.3v10.4h-1.3v-1.4c-0.5,0.9-1.5,1.6-2.9,1.6c-2.1,0-3.6-1.6-3.6-4
			S72.9,172.5,75,172.5L75,172.5z M75.2,173.6c-1.4,0-2.6,1-2.6,2.8s1.2,2.9,2.6,2.9s2.6-1.1,2.6-2.9S76.6,173.6,75.2,173.6z"/>
		<path d="M84.6,180.5c-2.2,0-3.8-1.5-3.8-4s1.7-3.9,3.9-3.9s3.9,1.5,3.9,3.9S86.8,180.5,84.6,180.5z M84.6,179.3
			c1.3,0,2.6-0.9,2.6-2.9s-1.3-2.8-2.6-2.8s-2.6,0.9-2.6,2.8S83.3,179.3,84.6,179.3z"/>
		<path d="M91.5,180.3h-1.3v-7.7h1.3v1.2c0.4-0.9,1.3-1.4,2.5-1.4v1.3h-0.3c-1.2,0-2.1,0.6-2.1,2.3L91.5,180.3L91.5,180.3z"/>
		<path d="M102.4,172.5c1.2,0,2.3,0.6,2.8,1.5V170h1.3v10.4h-1.3v-1.4c-0.5,0.9-1.5,1.6-2.9,1.6c-2.1,0-3.6-1.6-3.6-4
			S100.3,172.5,102.4,172.5L102.4,172.5z M102.6,173.6c-1.4,0-2.6,1-2.6,2.8s1.2,2.9,2.6,2.9s2.6-1.1,2.6-2.9S104,173.6,102.6,173.6
			z"/>
		<path d="M112,180.5c-2.2,0-3.8-1.5-3.8-4s1.6-3.9,3.8-3.9s3.7,1.6,3.7,3.7c0,0.3,0,0.5,0,0.8h-6.1c0.1,1.6,1.2,2.4,2.5,2.4
			c1.2,0,1.9-0.6,2.2-1.4h1.4C115.1,179.4,113.9,180.5,112,180.5L112,180.5z M109.5,175.9h4.8c0-1.5-1.1-2.3-2.4-2.3
			C110.7,173.6,109.6,174.4,109.5,175.9L109.5,175.9z"/>
		<path d="M125.2,172.5c2.1,0,3.6,1.5,3.6,3.9s-1.6,4-3.6,4c-1.4,0-2.4-0.8-2.9-1.5v5.1h-1.3v-11.3h1.3v1.4
			C122.8,173.3,123.8,172.5,125.2,172.5L125.2,172.5z M124.9,173.6c-1.4,0-2.6,1.1-2.6,2.8s1.2,2.9,2.6,2.9s2.6-1.1,2.6-2.9
			S126.4,173.6,124.9,173.6z"/>
		<path d="M131.8,180.3h-1.3v-7.7h1.3v1.2c0.4-0.9,1.3-1.4,2.5-1.4v1.3h-0.3c-1.2,0-2.1,0.6-2.1,2.3V180.3L131.8,180.3z"/>
		<path d="M139.1,180.5c-2.2,0-3.8-1.5-3.8-4s1.7-3.9,3.9-3.9s3.9,1.5,3.9,3.9S141.3,180.5,139.1,180.5z M139.1,179.3
			c1.3,0,2.6-0.9,2.6-2.9s-1.3-2.8-2.6-2.8s-2.6,0.9-2.6,2.8S137.8,179.3,139.1,179.3L139.1,179.3z"/>
		<path d="M148,172.5c1.9,0,3.1,1,3.5,2.6h-1.4c-0.3-0.9-1-1.5-2.2-1.5c-1.4,0-2.4,1-2.4,2.9s1,2.9,2.4,2.9c1.1,0,1.9-0.6,2.2-1.5
			h1.4c-0.4,1.5-1.6,2.6-3.5,2.6c-2.2,0-3.7-1.5-3.7-4S145.8,172.5,148,172.5z"/>
		<path d="M156.5,180.5c-2.2,0-3.8-1.5-3.8-4s1.6-3.9,3.8-3.9s3.7,1.6,3.7,3.7c0,0.3,0,0.5,0,0.8H154c0.1,1.6,1.2,2.4,2.5,2.4
			c1.1,0,1.9-0.6,2.2-1.4h1.4C159.7,179.4,158.4,180.5,156.5,180.5L156.5,180.5z M154,175.9h4.9c0-1.5-1.1-2.3-2.4-2.3
			C155.2,173.6,154.2,174.4,154,175.9L154,175.9z"/>
		<path d="M164.6,180.5c-1.8,0-3.1-1-3.1-2.4h1.3c0.1,0.7,0.7,1.3,1.8,1.3c1,0,1.6-0.5,1.6-1.1c0-1.7-4.5-0.7-4.5-3.6
			c0-1.2,1.1-2.1,2.8-2.1s2.8,0.9,2.9,2.4h-1.3c-0.1-0.8-0.6-1.3-1.7-1.3c-0.9,0-1.5,0.4-1.5,1.1c0,1.8,4.5,0.8,4.5,3.6
			C167.4,179.5,166.3,180.5,164.6,180.5L164.6,180.5z"/>
		<path d="M171.9,180.5c-1.8,0-3.1-1-3.1-2.4h1.3c0.1,0.7,0.7,1.3,1.8,1.3c1,0,1.6-0.5,1.6-1.1c0-1.7-4.5-0.7-4.5-3.6
			c0-1.2,1.1-2.1,2.8-2.1s2.8,0.9,2.9,2.4h-1.3c-0.1-0.8-0.6-1.3-1.7-1.3c-0.9,0-1.5,0.4-1.5,1.1c0,1.8,4.5,0.8,4.5,3.6
			C174.7,179.5,173.6,180.5,171.9,180.5L171.9,180.5z"/>
		<path d="M179.8,180.5c-2.2,0-3.8-1.5-3.8-4s1.7-3.9,3.9-3.9s3.9,1.5,3.9,3.9S182,180.5,179.8,180.5z M179.8,179.3
			c1.3,0,2.6-0.9,2.6-2.9s-1.3-2.8-2.6-2.8s-2.6,0.9-2.6,2.8S178.5,179.3,179.8,179.3L179.8,179.3z"/>
		<path d="M185.9,180.4c-0.5,0-0.9-0.4-0.9-0.9s0.4-0.9,0.9-0.9c0.5,0,0.8,0.4,0.8,0.9S186.3,180.4,185.9,180.4z"/>
	</g>
	<g>
		<rect x="0.2" y="0.6" class="st0" width="298" height="47"/>
		<g>
			<path class="st1" d="M41.7,16.8c2.2,0,3.4,1.2,3.4,2.8c0,1.4-0.9,2.1-1.5,2.3V22c1,0.4,1.7,1.1,1.7,2.4c0,1.8-1.3,3-3.4,3
				s-3.8-1-3.8-3.5h2.7c0,0.7,0.3,1.2,1,1.2c0.5,0,0.9-0.4,0.9-0.9c0-0.7-0.4-1-1.5-1h-0.5v-2.2h0.5c0.5,0,1.3-0.1,1.3-0.9
				c0-0.6-0.3-0.9-0.8-0.9c-0.6,0-0.8,0.5-0.8,1h-2.7C38.2,18,39.5,16.8,41.7,16.8L41.7,16.8z"/>
			<path class="st1" d="M48.1,27.4c-1,0-1.6-0.6-1.6-1.4s0.6-1.4,1.6-1.4s1.6,0.6,1.6,1.4S49.1,27.4,48.1,27.4z"/>
			<path class="st1" d="M61.6,26.3l2.1,2.7h-3.3l-1.1-1.6c-0.3,0.1-0.6,0.1-0.9,0.1c-2.8,0-5.1-2.1-5.1-5.1s2.3-5.1,5.1-5.1
				s5.1,2.1,5.1,5.1C63.5,24,62.8,25.4,61.6,26.3L61.6,26.3z M58.4,24.8c1.4,0,2.3-1,2.3-2.5s-0.8-2.5-2.3-2.5s-2.3,1-2.3,2.5
				S57,24.8,58.4,24.8z"/>
			<path class="st1" d="M72.7,27.3H70v-1.1c-0.4,0.7-1.3,1.2-2.4,1.2c-1.8,0-3-1.3-3-3.4v-4.6h2.7v4.2c0,0.9,0.5,1.4,1.3,1.4
				s1.3-0.5,1.3-1.4v-4.2h2.8L72.7,27.3L72.7,27.3z"/>
			<path class="st1" d="M77.2,19.3c1.1,0,1.9,0.5,2.3,1.2v-1.1h2.8v7.9h-2.8v-1.1c-0.4,0.7-1.2,1.2-2.3,1.2c-1.9,0-3.3-1.5-3.3-4
				S75.3,19.3,77.2,19.3L77.2,19.3z M78.1,21.7c-0.8,0-1.4,0.6-1.4,1.6s0.6,1.6,1.4,1.6s1.4-0.6,1.4-1.6S78.9,21.7,78.1,21.7z"/>
			<path class="st1" d="M83.8,16.9h2.8v10.4h-2.8C83.8,27.3,83.8,16.9,83.8,16.9z"/>
			<path class="st1" d="M93.7,19.3c1.1,0,1.9,0.5,2.3,1.2v-1.1h2.8v7.9H96v-1.1c-0.4,0.7-1.2,1.2-2.3,1.2c-1.9,0-3.3-1.5-3.3-4
				S91.8,19.3,93.7,19.3L93.7,19.3z M94.6,21.7c-0.8,0-1.4,0.6-1.4,1.6s0.6,1.6,1.4,1.6s1.4-0.6,1.4-1.6S95.4,21.7,94.6,21.7z"/>
			<path class="st1" d="M105.9,19.3c1,0,1.8,0.5,2.3,1.2v-3.6h2.8v10.4h-2.8v-1.1c-0.4,0.7-1.2,1.2-2.3,1.2c-1.9,0-3.3-1.5-3.3-4
				S104,19.3,105.9,19.3L105.9,19.3z M106.8,21.7c-0.8,0-1.4,0.6-1.4,1.6s0.6,1.6,1.4,1.6s1.4-0.6,1.4-1.6S107.6,21.7,106.8,21.7z"
				/>
			<path class="st1" d="M112.3,17.3c0-0.8,0.6-1.4,1.6-1.4s1.6,0.6,1.6,1.4s-0.6,1.4-1.6,1.4S112.3,18.1,112.3,17.3z M112.5,19.4
				h2.8v7.9h-2.8V19.4z"/>
			<path class="st1" d="M117.1,21.7h-0.8v-2.3h0.8v-0.1c0-2.2,1.4-3.3,4-3.1v2.3c-0.8-0.1-1.2,0.1-1.2,0.8h1.2v2.3h-1.2v5.6h-2.8
				L117.1,21.7L117.1,21.7z"/>
			<path class="st1" d="M125.6,27.4c-2.3,0-4-1.5-4-4s1.6-4,4-4s4,1.5,4,3.9c0,0.2,0,0.4,0,0.6h-5.2c0.1,0.9,0.6,1.3,1.2,1.3
				c0.5,0,0.8-0.3,1-0.6h2.9C129,26.2,127.6,27.4,125.6,27.4L125.6,27.4z M124.3,22.6h2.4c0-0.7-0.6-1.1-1.2-1.1
				S124.5,21.9,124.3,22.6L124.3,22.6z"/>
			<path class="st1" d="M133.4,27.3h-2.8v-7.9h2.8v1.4c0.6-0.9,1.5-1.5,2.5-1.5v2.9h-0.8c-1.1,0-1.8,0.4-1.8,1.6L133.4,27.3
				L133.4,27.3z"/>
			<path class="st1" d="M140.5,27.4c-2.3,0-4-1.5-4-4s1.6-4,4-4s4,1.5,4,3.9c0,0.2,0,0.4,0,0.6h-5.2c0.1,0.9,0.6,1.3,1.2,1.3
				c0.5,0,0.8-0.3,1-0.6h2.9C143.9,26.2,142.4,27.4,140.5,27.4L140.5,27.4z M139.2,22.6h2.4c0-0.7-0.6-1.1-1.2-1.1
				S139.3,21.9,139.2,22.6L139.2,22.6z"/>
			<path class="st1" d="M150.9,23.1c0-0.9-0.5-1.4-1.3-1.4s-1.3,0.5-1.3,1.4v4.2h-2.8v-7.9h2.8v1.1c0.5-0.7,1.3-1.2,2.4-1.2
				c1.8,0,3,1.3,3,3.4v4.6h-2.8V23.1z"/>
			<path class="st1" d="M158.7,19.3c2,0,3.4,1.1,3.8,3.1h-2.9c-0.1-0.5-0.5-0.8-1-0.8c-0.7,0-1.1,0.6-1.1,1.7s0.4,1.7,1.1,1.7
				c0.5,0,0.8-0.3,1-0.8h2.9c-0.3,1.7-1.5,2.8-3,3v0.5c0.8,0,1.8,0.4,1.8,1.6s-1.1,1.7-2,1.7H157v-1.4h2c0.3,0,0.5-0.1,0.5-0.3
				c0-0.2-0.2-0.3-0.5-0.3h-1.1v-1.8c-1.9-0.3-3.2-1.8-3.2-4C154.7,20.9,156.4,19.3,158.7,19.3L158.7,19.3z"/>
			<path class="st1" d="M166.6,19.3c1.1,0,1.9,0.5,2.3,1.2v-1.1h2.8v7.9h-2.8v-1.1c-0.4,0.7-1.2,1.2-2.3,1.2c-1.9,0-3.4-1.5-3.4-4
				S164.7,19.3,166.6,19.3L166.6,19.3z M167.4,21.7c-0.8,0-1.4,0.6-1.4,1.6s0.6,1.6,1.4,1.6s1.4-0.6,1.4-1.6S168.2,21.7,167.4,21.7z
				"/>
			<path class="st1" d="M179.4,27.4c-2.3,0-4-1.5-4-4s1.6-4,4-4s4,1.5,4,3.9c0,0.2,0,0.4,0,0.6h-5.2c0.1,0.9,0.6,1.3,1.2,1.3
				c0.5,0,0.8-0.3,1-0.6h2.9C182.8,26.2,181.4,27.4,179.4,27.4L179.4,27.4z M178.1,22.6h2.4c0-0.7-0.6-1.1-1.2-1.1
				S178.3,21.9,178.1,22.6L178.1,22.6z"/>
			<path class="st1" d="M189.8,23.1c0-0.9-0.5-1.4-1.3-1.4s-1.3,0.5-1.3,1.4v4.2h-2.8v-7.9h2.8v1.1c0.5-0.7,1.3-1.2,2.4-1.2
				c1.8,0,3,1.3,3,3.4v4.6h-2.8V23.1z"/>
			<path class="st1" d="M194.5,21.7h-1v-2.3h1v-1.9h2.8v1.9h1.4v2.3h-1.4v2.6c0,0.4,0.2,0.6,0.6,0.6h0.8v2.3h-1.2c-1.7,0-3-0.7-3-3
				C194.5,24.3,194.5,21.7,194.5,21.7z"/>
			<path class="st1" d="M202.7,27.3H200v-7.9h2.8v1.4c0.6-0.9,1.5-1.5,2.5-1.5v2.9h-0.8c-1.1,0-1.8,0.4-1.8,1.6L202.7,27.3
				L202.7,27.3z"/>
			<path class="st1" d="M209.8,27.4c-2.3,0-4-1.5-4-4s1.6-4,4-4s4,1.5,4,3.9c0,0.2,0,0.4,0,0.6h-5.2c0.1,0.9,0.6,1.3,1.2,1.3
				c0.5,0,0.8-0.3,1-0.6h2.9C213.2,26.2,211.7,27.4,209.8,27.4L209.8,27.4z M208.5,22.6h2.4c0-0.7-0.6-1.1-1.2-1.1
				S208.6,21.9,208.5,22.6L208.5,22.6z"/>
			<path class="st1" d="M221.1,27.4c-2.3,0-4-1.5-4-4s1.6-4,4-4s4,1.5,4,3.9c0,0.2,0,0.4,0,0.6h-5.2c0.1,0.9,0.6,1.3,1.2,1.3
				c0.5,0,0.8-0.3,1-0.6h2.9C224.5,26.2,223,27.4,221.1,27.4L221.1,27.4z M219.8,22.6h2.4c0-0.7-0.6-1.1-1.2-1.1
				S219.9,21.9,219.8,22.6L219.8,22.6z"/>
			<path class="st1" d="M226.2,16.9h2.8v10.4h-2.8C226.2,27.3,226.2,16.9,226.2,16.9z"/>
			<path class="st1" d="M234,27.4c-2.3,0-4-1.5-4-4s1.6-4,4-4s4,1.5,4,3.9c0,0.2,0,0.4,0,0.6h-5.2c0.1,0.9,0.6,1.3,1.2,1.3
				c0.5,0,0.8-0.3,1-0.6h2.9C237.4,26.2,236,27.4,234,27.4L234,27.4z M232.8,22.6h2.4c0-0.7-0.6-1.1-1.2-1.1S232.9,21.9,232.8,22.6
				L232.8,22.6z"/>
			<path class="st1" d="M242.4,27.4c-2.2,0-3.6-1.2-3.8-2.8h2.7c0.1,0.5,0.5,0.8,1.1,0.8c0.5,0,0.7-0.2,0.7-0.5
				c0-1.1-4.2-0.2-4.2-3.1c0-1.4,1.1-2.5,3.3-2.5s3.3,1.2,3.4,2.8h-2.5c-0.1-0.5-0.4-0.8-1-0.8c-0.4,0-0.7,0.2-0.7,0.5
				c0,1.1,4.2,0.2,4.2,3.2C245.7,26.3,244.5,27.4,242.4,27.4L242.4,27.4z"/>
			<path class="st1" d="M250,16.7c2,0,3.4,1,3.4,3c0,1.7-1.3,2.8-3.1,2.8l-0.1,1h-2.4l-0.1-2.8h1c1.2,0,2-0.2,2-1
				c0-0.5-0.3-0.8-0.8-0.8c-0.6,0-0.8,0.4-0.8,0.9h-2.6C246.5,18.1,247.7,16.7,250,16.7L250,16.7z M249.1,27.4c-1,0-1.6-0.6-1.6-1.4
				s0.6-1.4,1.6-1.4s1.6,0.6,1.6,1.4S250,27.4,249.1,27.4z"/>
		</g>
	</g>
</g>
<g>
	<path class="st0" d="M299,243H0V0h299V243z M1,242h297V1H1V242z"/>
</g>
</svg>
