<svg id="refletir-icon" xmlns="http://www.w3.org/2000/svg" xmlns:xlink="http://www.w3.org/1999/xlink" width="60" height="59.561" viewBox="0 0 60 59.561">
  <defs>
    <clipPath id="clip-path">
      <rect id="Retângulo_124" data-name="Retângulo 124" width="60" height="59.561" fill="#294667"/>
    </clipPath>
  </defs>
  <g id="Grupo_321" data-name="Grupo 321" clip-path="url(#clip-path)">
    <path id="Caminho_193" data-name="Caminho 193" d="M9.268,145.053a12.072,12.072,0,0,1,.553-1.219c.147-.281.058-.39-.207-.508q-4.226-1.881-8.441-3.788c-.286-.13-.377-.061-.508.205A4.151,4.151,0,0,1,0,141.05v.234q4.379,1.974,8.756,3.952c.258.117.4.1.511-.184" transform="translate(0 -121.622)" fill="#294667"/>
    <path id="Caminho_194" data-name="Caminho 194" d="M105.185,82.809a18.369,18.369,0,0,0-13.747,22.745,18.169,18.169,0,0,0,5.956,9.295,9.452,9.452,0,0,1,3.589,7.712c-.029,2.461-.006,4.922-.005,7.383,0,1.1.326,1.44,1.419,1.442q3.369.006,6.739,0c2.285,0,4.571,0,6.856,0,1.022,0,1.369-.357,1.37-1.373q0-3.838,0-7.676a9.6,9.6,0,0,1,.19-2.033,10.187,10.187,0,0,1,3.51-5.569c5.354-4.745,7.512-10.723,6.085-17.723a18.249,18.249,0,0,0-21.96-14.2m9.993,46.425c-.3.3-.926.086-1.408.087-3.374.008-6.749,0-10.123.013-.427,0-.649-.06-.589-.558.055-.46-.143-1.082.092-1.354.276-.319.912-.095,1.39-.1,1.541-.015,3.082-.006,4.623-.006,1.872,0,3.745.014,5.617-.011.424-.006.542.123.5.521-.054.479.2,1.107-.1,1.406m0-4.074c-.263.248-.921.089-1.4.089-3.4,0-6.8-.005-10.193.011-.4,0-.56-.07-.517-.5.048-.481-.155-1.132.09-1.411.287-.326.951-.1,1.45-.1,1.523-.014,3.046-.005,4.569-.005,1.875,0,3.749.01,5.624-.008.367,0,.531.07.486.471-.057.5.207,1.163-.1,1.455m4.554-12.013a11.836,11.836,0,0,0-4.344,7.677c-.048.406-.3.328-.543.328q-2.842,0-5.685,0c-1.9,0-3.79,0-5.685.005-.312,0-.478-.03-.528-.416a10.789,10.789,0,0,0-3.582-6.9,20.393,20.393,0,0,1-4.325-4.957A16.3,16.3,0,1,1,125.173,97.7a15.675,15.675,0,0,1-5.445,15.443" transform="translate(-79.159 -71.827)" fill="#294667"/>
    <path id="Caminho_195" data-name="Caminho 195" d="M298.021,9.254a11.3,11.3,0,0,1,1.1.527c.389.235.549.114.723-.267,1.118-2.452,2.261-4.893,3.39-7.339.209-.452.631-.987.522-1.356-.115-.391-.849-.429-1.271-.7-.381-.24-.55-.115-.724.266-1.264,2.767-2.548,5.525-3.827,8.285-.049.105-.1.21-.156.328-.034.181.123.2.242.252" transform="translate(-259.659 0)" fill="#294667"/>
    <path id="Caminho_196" data-name="Caminho 196" d="M128.043,9.875c.055.118.085.268.281.249.413-.191.825-.415,1.262-.573.408-.147.463-.3.269-.711-1.142-2.4-2.242-4.828-3.372-7.238-.229-.488-.329-1.281-.751-1.371-.443-.095-1,.4-1.524.61-.244.1-.279.184-.167.423q2.011,4.3,4,8.61" transform="translate(-108.109 -0.192)" fill="#294667"/>
    <path id="Caminho_197" data-name="Caminho 197" d="M392.679,310.753c-2.433-1.068-4.851-2.172-7.279-3.251-.454-.2-.984-.687-1.354-.5-.354.174-.45.852-.687,1.294-.18.337-.15.51.239.681,2.756,1.213,5.5,2.452,8.248,3.683l.293.129c.23.045.242-.136.292-.24.176-.368.306-.76.5-1.114s.124-.509-.257-.676" transform="translate(-334.197 -267.667)" fill="#294667"/>
    <path id="Caminho_198" data-name="Caminho 198" d="M17.759,307.2c-2.382,1.095-4.781,2.152-7.172,3.226-.475.214-1.2.345-1.342.7-.171.421.351.969.548,1.473.007.018.012.037.018.056.086.269.242.287.486.177q4.244-1.917,8.5-3.82c.124-.055.266-.085.247-.247-.2-.447-.42-.862-.57-1.3-.144-.421-.31-.451-.71-.267" transform="translate(-8.032 -267.789)" fill="#294667"/>
    <path id="Caminho_199" data-name="Caminho 199" d="M401.136,139.94c-.132-.356-.274-.4-.625-.238-2.4,1.095-4.812,2.155-7.212,3.246-.488.222-1.277.307-1.376.727-.1.436.367,1.007.586,1.519.008.018.014.036.021.055.074.2.18.239.389.144q4.287-1.938,8.582-3.858c.107-.048.224-.069.244-.211-.205-.46-.433-.912-.608-1.384" transform="translate(-341.744 -121.742)" fill="#294667"/>
    <path id="Caminho_200" data-name="Caminho 200" d="M227.34,4.686c1.032,0,1.032,0,1.032-1.029,0-1.063,0-1.063-1.06-1.063-1.032,0-1.032,0-1.032,1.033,0,1.059,0,1.059,1.06,1.059" transform="translate(-197.316 -2.262)" fill="#294667"/>
    <path id="Caminho_201" data-name="Caminho 201" d="M11.047,242.8c0,1.014,0,1.014,1.037,1.014,1.056,0,1.056,0,1.056-1.055,0-1.029,0-1.029-1.038-1.029-1.054,0-1.054,0-1.054,1.07" transform="translate(-9.633 -210.788)" fill="#294667"/>
    <path id="Caminho_202" data-name="Caminho 202" d="M443.605,242.812c0-1.083,0-1.083-1.1-1.083-.993,0-.993,0-.993,1.016,0,1.068,0,1.068,1.043,1.068s1.049,0,1.049-1" transform="translate(-385 -210.788)" fill="#294667"/>
    <path id="Caminho_203" data-name="Caminho 203" d="M58.811,242.708c0,1.1,0,1.1,1.081,1.1,1,0,1,0,1-.995,0-1.089,0-1.089-1.1-1.089-.987,0-.987,0-.987.979" transform="translate(-51.283 -210.788)" fill="#294667"/>
    <path id="Caminho_204" data-name="Caminho 204" d="M395.9,242.775c0-1.047,0-1.047-1.037-1.047s-1.047,0-1.047,1.022c0,1.062,0,1.062,1.053,1.062,1.031,0,1.031,0,1.031-1.037" transform="translate(-343.408 -210.787)" fill="#294667"/>
    <path id="Caminho_205" data-name="Caminho 205" d="M227.292,52.482c1.08,0,1.08,0,1.08-1.1,0-.978,0-.978-.983-.978-1.109,0-1.109,0-1.109,1.087,0,.987,0,.987,1.013.987" transform="translate(-197.315 -43.956)" fill="#294667"/>
    <path id="Caminho_206" data-name="Caminho 206" d="M31.7,433.022c-.319,0-.623.571-.97.847-.43.343-.53.626-.021.991.371.266.622.889,1.008.87.335-.017.639-.566.967-.87.156-.145.335-.267.632-.5-.282-.209-.478-.331-.646-.483-.331-.3-.645-.851-.97-.853" transform="translate(-26.483 -377.595)" fill="#294667"/>
    <path id="Caminho_207" data-name="Caminho 207" d="M418.384,432.978c-.2-.221-.323-.159-.5.02-.395.4-.81.776-1.208,1.154l1.477,1.5c.1-.1.206-.188.3-.287.367-.395,1.089-.765,1.034-1.165-.061-.448-.723-.8-1.1-1.222" transform="translate(-363.341 -377.434)" fill="#294667"/>
    <path id="Caminho_208" data-name="Caminho 208" d="M23.31,39.7c.4.321.7,1,1.135.983.377-.016.715-.643,1.1-.968.294-.251.364-.435.022-.711-.315-.254-.58-.571-.87-.857-.081-.079-.172-.147-.27-.229-.088.08-.162.141-.229.208-.289.287-.56.6-.87.858s-.35.45-.014.716" transform="translate(-20.124 -33.066)" fill="#294667"/>
    <path id="Caminho_209" data-name="Caminho 209" d="M426.811,41.565c.241-.23.408-.383.567-.542.967-.965.966-.965.03-1.9-.529-.528-.529-.528-1.076.019-.916.916-.914.914.015,1.852.163.164.294.36.464.571" transform="translate(-371.165 -33.772)" fill="#294667"/>
    <path id="Caminho_210" data-name="Caminho 210" d="M91.534,107.8c.514.542.528.535,1.062-.007.3-.3.812-.618.815-.932s-.529-.608-.814-.922c-.157-.173-.289-.368-.4-.516a1.53,1.53,0,0,0-.636.489c-.309.3-.812.585-.849.92-.043.393.525.652.826.97" transform="translate(-79.095 -91.93)" fill="#294667"/>
    <path id="Caminho_211" data-name="Caminho 211" d="M358.485,106.275c-.415-.027-.677.622-1.063.905-.435.319-.383.567.01.87s.648.935,1.056.911c.352-.02.666-.6,1.011-.912a6.093,6.093,0,0,1,.616-.422c-.3-.221-.472-.32-.613-.449-.344-.315-.66-.881-1.017-.9" transform="translate(-311.405 -92.672)" fill="#294667"/>
    <path id="Caminho_212" data-name="Caminho 212" d="M99.637,365.782c-.326-.409-.564-.408-.89,0-.289.363-.9.661-.911,1-.016.407.606.693.922,1.058.127.147.236.31.413.545.2-.244.324-.394.45-.539.317-.364.939-.648.921-1.06-.015-.348-.616-.648-.9-1.011" transform="translate(-85.313 -318.695)" fill="#294667"/>
    <path id="Caminho_213" data-name="Caminho 213" d="M352.411,365.961c-.329-.3-.634-.631-.953-.945-.081-.079-.176-.145-.273-.223-.1.091-.189.165-.271.247-.3.3-.594.618-.913.9-.221.2-.225.319-.011.546,1.234,1.31,1.219,1.31,2.442-.027.2-.219.17-.324-.022-.5" transform="translate(-305.054 -318.1)" fill="#294667"/>
    <path id="Caminho_214" data-name="Caminho 214" d="M64.423,399.291c-.2-.241-.356-.28-.594-.022-.369.4-.78.761-1.252,1.215.441.4.871.747,1.236,1.15.262.289.4.228.624-.023.347-.394,1-.752,1.015-1.144.016-.443-.681-.766-1.028-1.176" transform="translate(-54.566 -348.009)" fill="#294667"/>
    <path id="Caminho_215" data-name="Caminho 215" d="M385.639,399.761c-.533-.539-.538-.54-1.078.008-.3.3-.818.623-.808.92.011.32.528.621.82.934.16.171.311.35.581.656.19-.259.324-.473.489-.66.283-.321.811-.622.815-.937s-.521-.618-.82-.921" transform="translate(-334.633 -348.24)" fill="#294667"/>
    <path id="Caminho_216" data-name="Caminho 216" d="M59.213,73.766c.068-.07.141-.135.2-.208a.915.915,0,0,0,.086-.146c-.029-.035-.052-.067-.079-.094-.4-.4-.8-.8-1.192-1.2-.133-.134-.231-.073-.339.037-.354.36-.706.724-1.074,1.069-.173.162-.137.255,0,.422,1.161,1.377,1.157,1.38,2.391.118" transform="translate(-49.444 -62.822)" fill="#294667"/>
    <path id="Caminho_217" data-name="Caminho 217" d="M390.928,73.467a8.332,8.332,0,0,1,.863.867c.238.285.379.242.627-.006,1.261-1.256,1.269-1.248-.1-2.4-.07-.06-.142-.117-.228-.188-.1.094-.192.168-.274.248-.3.3-.587.625-.913.9-.277.233-.208.378.021.582" transform="translate(-340.713 -62.555)" fill="#294667"/>
    <path id="Caminho_218" data-name="Caminho 218" d="M253.513,129.567a4.916,4.916,0,0,0-2.69-3.927.836.836,0,0,1-.468-.592,3.833,3.833,0,0,0-1.594-2.3,1.4,1.4,0,0,1-.557-.762,4.9,4.9,0,0,0-4.234-3.52c-1.3-.171-1.654.166-1.654,1.487q0,5.978,0,11.956v11.956c0,.156-.005.313,0,.469a1.026,1.026,0,0,0,1.119,1.138,10.054,10.054,0,0,0,1.113-.015,2.977,2.977,0,0,0,2.848-2.674c.037-.294.132-.375.425-.4a3.923,3.923,0,0,0,3.406-2.559,1.071,1.071,0,0,1,.771-.711,5.064,5.064,0,0,0,2.005-8.545,1.492,1.492,0,0,1-.493-1m-9.12-8.819a2.74,2.74,0,0,1,1.946,2.345,1.263,1.263,0,0,0,.844,1.136,1.971,1.971,0,0,1,1.219,2.162,2,2,0,0,1-1.931,1.7,1.012,1.012,0,0,0-1.091,1.041,2.108,2.108,0,0,1-.988,1.726Zm9.105,13.882a2.864,2.864,0,0,1-1.7,2.35,1.514,1.514,0,0,1-2.289-1.368c-.01-.136,0-.275-.015-.409a1.086,1.086,0,0,0-1.052-.987,1.052,1.052,0,0,0-1.025,1.068,3.92,3.92,0,0,0,1.606,3.34c.354.265.317.458.137.756a2.031,2.031,0,0,1-2.288.882c-.971-.227-1.463.144-1.483,1.121-.006.312.008.625-.005.937a1.1,1.1,0,0,1-.354.836c-.166.143-.376.285-.576.2-.174-.073-.077-.313-.078-.477-.006-1.543,0-3.085,0-4.628,0-1.562.01-3.124-.008-4.686a.542.542,0,0,1,.436-.619,3.922,3.922,0,0,0,2.434-2.51.625.625,0,0,1,.431-.476,3.871,3.871,0,0,0,2.346-1.977c.13-.248.221-.326.452-.11a2.877,2.877,0,0,1,1.016,2.443,1.321,1.321,0,0,0,.674,1.407,2.857,2.857,0,0,1,1.346,2.906" transform="translate(-211.298 -103.267)" fill="#294667"/>
    <path id="Caminho_219" data-name="Caminho 219" d="M134.648,118.289a5.05,5.05,0,0,0-4.629,3.666.879.879,0,0,1-.365.565,3.986,3.986,0,0,0-1.793,2.5.578.578,0,0,1-.312.441,4.993,4.993,0,0,0-2.846,4.2,1,1,0,0,1-.363.685,5.095,5.095,0,0,0,2.107,8.719.64.64,0,0,1,.505.454,3.84,3.84,0,0,0,3.054,2.671c.625.113.8.319.94.908.362,1.522,1.564,2.263,3.435,2.263,1.285,0,1.556-.266,1.556-1.532q0-5.978,0-11.957v-4.982c0-2.442.005-4.884,0-7.326,0-.9-.451-1.327-1.286-1.268m-3.726,5.9a1.575,1.575,0,0,0,1.021-1.342,2.849,2.849,0,0,1,1.938-2.3c0,3.37,0,6.651,0,9.932,0,.056-.013.112-.027.229a1.8,1.8,0,0,1-.938-1.394c-.171-1.114-.257-1.2-1.367-1.354a2.065,2.065,0,0,1-1.715-1.753,1.923,1.923,0,0,1,1.087-2.022m2.883,19.048c-.158.071-.334-.032-.485-.131a1.051,1.051,0,0,1-.45-.9c-.017-.37.007-.743-.013-1.113a1.013,1.013,0,0,0-1.365-.989,2.02,2.02,0,0,1-2.4-.837c-.177-.293-.226-.491.132-.756a3.916,3.916,0,0,0,1.61-3.164,1.079,1.079,0,0,0-1.02-1.248,1.105,1.105,0,0,0-1.066,1.158,3.3,3.3,0,0,1-.029.467,1.494,1.494,0,0,1-2.263,1.144,3.014,3.014,0,0,1-.455-5.192,1.477,1.477,0,0,0,.77-1.537,2.822,2.822,0,0,1,1.016-2.385c.225-.209.321-.153.453.1a3.868,3.868,0,0,0,2.343,1.982.625.625,0,0,1,.432.474,3.932,3.932,0,0,0,2.487,2.533c.345.122.384.295.382.595-.01,1.562,0,3.125,0,4.687s0,3.125,0,4.687c0,.144.09.35-.073.424" transform="translate(-106.933 -103.143)" fill="#294667"/>
  </g>
</svg>
