<?xml version="1.0" encoding="utf-8"?>
<!DOCTYPE svg PUBLIC "-//W3C//DTD SVG 20010904//EN" "http://www.w3.org/TR/2001/REC-SVG-20010904/DTD/svg10.dtd">
<svg xmlns="http://www.w3.org/2000/svg" xml:space="preserve" xmlns:xlink="http://www.w3.org/1999/xlink" width="980" height="980" viewBox="0 0 980 980">
<defs>
<mask id="qrmask"><g fill="#ffffff">
<g transform="translate(200,40) scale(3.3333333333333)"><rect width="6" height="6"/></g>
<g transform="translate(320,40) scale(3.3333333333333)"><rect width="6" height="6"/></g>
<g transform="translate(340,40) scale(3.3333333333333)"><rect width="6" height="6"/></g>
<g transform="translate(440,40) scale(3.3333333333333)"><rect width="6" height="6"/></g>
<g transform="translate(460,40) scale(3.3333333333333)"><rect width="6" height="6"/></g>
<g transform="translate(480,40) scale(3.3333333333333)"><rect width="6" height="6"/></g>
<g transform="translate(540,40) scale(3.3333333333333)"><rect width="6" height="6"/></g>
<g transform="translate(560,40) scale(3.3333333333333)"><rect width="6" height="6"/></g>
<g transform="translate(600,40) scale(3.3333333333333)"><rect width="6" height="6"/></g>
<g transform="translate(620,40) scale(3.3333333333333)"><rect width="6" height="6"/></g>
<g transform="translate(640,40) scale(3.3333333333333)"><rect width="6" height="6"/></g>
<g transform="translate(680,40) scale(3.3333333333333)"><rect width="6" height="6"/></g>
<g transform="translate(700,40) scale(3.3333333333333)"><rect width="6" height="6"/></g>
<g transform="translate(760,40) scale(3.3333333333333)"><rect width="6" height="6"/></g>
<g transform="translate(200,60) scale(3.3333333333333)"><rect width="6" height="6"/></g>
<g transform="translate(220,60) scale(3.3333333333333)"><rect width="6" height="6"/></g>
<g transform="translate(260,60) scale(3.3333333333333)"><rect width="6" height="6"/></g>
<g transform="translate(280,60) scale(3.3333333333333)"><rect width="6" height="6"/></g>
<g transform="translate(300,60) scale(3.3333333333333)"><rect width="6" height="6"/></g>
<g transform="translate(340,60) scale(3.3333333333333)"><rect width="6" height="6"/></g>
<g transform="translate(400,60) scale(3.3333333333333)"><rect width="6" height="6"/></g>
<g transform="translate(460,60) scale(3.3333333333333)"><rect width="6" height="6"/></g>
<g transform="translate(480,60) scale(3.3333333333333)"><rect width="6" height="6"/></g>
<g transform="translate(500,60) scale(3.3333333333333)"><rect width="6" height="6"/></g>
<g transform="translate(520,60) scale(3.3333333333333)"><rect width="6" height="6"/></g>
<g transform="translate(560,60) scale(3.3333333333333)"><rect width="6" height="6"/></g>
<g transform="translate(580,60) scale(3.3333333333333)"><rect width="6" height="6"/></g>
<g transform="translate(600,60) scale(3.3333333333333)"><rect width="6" height="6"/></g>
<g transform="translate(660,60) scale(3.3333333333333)"><rect width="6" height="6"/></g>
<g transform="translate(680,60) scale(3.3333333333333)"><rect width="6" height="6"/></g>
<g transform="translate(740,60) scale(3.3333333333333)"><rect width="6" height="6"/></g>
<g transform="translate(200,80) scale(3.3333333333333)"><rect width="6" height="6"/></g>
<g transform="translate(240,80) scale(3.3333333333333)"><rect width="6" height="6"/></g>
<g transform="translate(260,80) scale(3.3333333333333)"><rect width="6" height="6"/></g>
<g transform="translate(340,80) scale(3.3333333333333)"><rect width="6" height="6"/></g>
<g transform="translate(360,80) scale(3.3333333333333)"><rect width="6" height="6"/></g>
<g transform="translate(380,80) scale(3.3333333333333)"><rect width="6" height="6"/></g>
<g transform="translate(420,80) scale(3.3333333333333)"><rect width="6" height="6"/></g>
<g transform="translate(460,80) scale(3.3333333333333)"><rect width="6" height="6"/></g>
<g transform="translate(520,80) scale(3.3333333333333)"><rect width="6" height="6"/></g>
<g transform="translate(540,80) scale(3.3333333333333)"><rect width="6" height="6"/></g>
<g transform="translate(560,80) scale(3.3333333333333)"><rect width="6" height="6"/></g>
<g transform="translate(620,80) scale(3.3333333333333)"><rect width="6" height="6"/></g>
<g transform="translate(640,80) scale(3.3333333333333)"><rect width="6" height="6"/></g>
<g transform="translate(700,80) scale(3.3333333333333)"><rect width="6" height="6"/></g>
<g transform="translate(740,80) scale(3.3333333333333)"><rect width="6" height="6"/></g>
<g transform="translate(220,100) scale(3.3333333333333)"><rect width="6" height="6"/></g>
<g transform="translate(240,100) scale(3.3333333333333)"><rect width="6" height="6"/></g>
<g transform="translate(280,100) scale(3.3333333333333)"><rect width="6" height="6"/></g>
<g transform="translate(320,100) scale(3.3333333333333)"><rect width="6" height="6"/></g>
<g transform="translate(340,100) scale(3.3333333333333)"><rect width="6" height="6"/></g>
<g transform="translate(380,100) scale(3.3333333333333)"><rect width="6" height="6"/></g>
<g transform="translate(440,100) scale(3.3333333333333)"><rect width="6" height="6"/></g>
<g transform="translate(460,100) scale(3.3333333333333)"><rect width="6" height="6"/></g>
<g transform="translate(500,100) scale(3.3333333333333)"><rect width="6" height="6"/></g>
<g transform="translate(520,100) scale(3.3333333333333)"><rect width="6" height="6"/></g>
<g transform="translate(540,100) scale(3.3333333333333)"><rect width="6" height="6"/></g>
<g transform="translate(580,100) scale(3.3333333333333)"><rect width="6" height="6"/></g>
<g transform="translate(600,100) scale(3.3333333333333)"><rect width="6" height="6"/></g>
<g transform="translate(620,100) scale(3.3333333333333)"><rect width="6" height="6"/></g>
<g transform="translate(640,100) scale(3.3333333333333)"><rect width="6" height="6"/></g>
<g transform="translate(740,100) scale(3.3333333333333)"><rect width="6" height="6"/></g>
<g transform="translate(760,100) scale(3.3333333333333)"><rect width="6" height="6"/></g>
<g transform="translate(260,120) scale(3.3333333333333)"><rect width="6" height="6"/></g>
<g transform="translate(280,120) scale(3.3333333333333)"><rect width="6" height="6"/></g>
<g transform="translate(300,120) scale(3.3333333333333)"><rect width="6" height="6"/></g>
<g transform="translate(340,120) scale(3.3333333333333)"><rect width="6" height="6"/></g>
<g transform="translate(360,120) scale(3.3333333333333)"><rect width="6" height="6"/></g>
<g transform="translate(400,120) scale(3.3333333333333)"><rect width="6" height="6"/></g>
<g transform="translate(420,120) scale(3.3333333333333)"><rect width="6" height="6"/></g>
<g transform="translate(440,120) scale(3.3333333333333)"><rect width="6" height="6"/></g>
<g transform="translate(460,120) scale(3.3333333333333)"><rect width="6" height="6"/></g>
<g transform="translate(480,120) scale(3.3333333333333)"><rect width="6" height="6"/></g>
<g transform="translate(500,120) scale(3.3333333333333)"><rect width="6" height="6"/></g>
<g transform="translate(520,120) scale(3.3333333333333)"><rect width="6" height="6"/></g>
<g transform="translate(580,120) scale(3.3333333333333)"><rect width="6" height="6"/></g>
<g transform="translate(620,120) scale(3.3333333333333)"><rect width="6" height="6"/></g>
<g transform="translate(640,120) scale(3.3333333333333)"><rect width="6" height="6"/></g>
<g transform="translate(660,120) scale(3.3333333333333)"><rect width="6" height="6"/></g>
<g transform="translate(680,120) scale(3.3333333333333)"><rect width="6" height="6"/></g>
<g transform="translate(720,120) scale(3.3333333333333)"><rect width="6" height="6"/></g>
<g transform="translate(740,120) scale(3.3333333333333)"><rect width="6" height="6"/></g>
<g transform="translate(760,120) scale(3.3333333333333)"><rect width="6" height="6"/></g>
<g transform="translate(200,140) scale(3.3333333333333)"><rect width="6" height="6"/></g>
<g transform="translate(220,140) scale(3.3333333333333)"><rect width="6" height="6"/></g>
<g transform="translate(280,140) scale(3.3333333333333)"><rect width="6" height="6"/></g>
<g transform="translate(300,140) scale(3.3333333333333)"><rect width="6" height="6"/></g>
<g transform="translate(320,140) scale(3.3333333333333)"><rect width="6" height="6"/></g>
<g transform="translate(340,140) scale(3.3333333333333)"><rect width="6" height="6"/></g>
<g transform="translate(360,140) scale(3.3333333333333)"><rect width="6" height="6"/></g>
<g transform="translate(380,140) scale(3.3333333333333)"><rect width="6" height="6"/></g>
<g transform="translate(420,140) scale(3.3333333333333)"><rect width="6" height="6"/></g>
<g transform="translate(440,140) scale(3.3333333333333)"><rect width="6" height="6"/></g>
<g transform="translate(520,140) scale(3.3333333333333)"><rect width="6" height="6"/></g>
<g transform="translate(540,140) scale(3.3333333333333)"><rect width="6" height="6"/></g>
<g transform="translate(580,140) scale(3.3333333333333)"><rect width="6" height="6"/></g>
<g transform="translate(660,140) scale(3.3333333333333)"><rect width="6" height="6"/></g>
<g transform="translate(680,140) scale(3.3333333333333)"><rect width="6" height="6"/></g>
<g transform="translate(700,140) scale(3.3333333333333)"><rect width="6" height="6"/></g>
<g transform="translate(200,160) scale(3.3333333333333)"><rect width="6" height="6"/></g>
<g transform="translate(240,160) scale(3.3333333333333)"><rect width="6" height="6"/></g>
<g transform="translate(280,160) scale(3.3333333333333)"><rect width="6" height="6"/></g>
<g transform="translate(320,160) scale(3.3333333333333)"><rect width="6" height="6"/></g>
<g transform="translate(360,160) scale(3.3333333333333)"><rect width="6" height="6"/></g>
<g transform="translate(400,160) scale(3.3333333333333)"><rect width="6" height="6"/></g>
<g transform="translate(440,160) scale(3.3333333333333)"><rect width="6" height="6"/></g>
<g transform="translate(480,160) scale(3.3333333333333)"><rect width="6" height="6"/></g>
<g transform="translate(520,160) scale(3.3333333333333)"><rect width="6" height="6"/></g>
<g transform="translate(560,160) scale(3.3333333333333)"><rect width="6" height="6"/></g>
<g transform="translate(600,160) scale(3.3333333333333)"><rect width="6" height="6"/></g>
<g transform="translate(640,160) scale(3.3333333333333)"><rect width="6" height="6"/></g>
<g transform="translate(680,160) scale(3.3333333333333)"><rect width="6" height="6"/></g>
<g transform="translate(720,160) scale(3.3333333333333)"><rect width="6" height="6"/></g>
<g transform="translate(760,160) scale(3.3333333333333)"><rect width="6" height="6"/></g>
<g transform="translate(200,180) scale(3.3333333333333)"><rect width="6" height="6"/></g>
<g transform="translate(220,180) scale(3.3333333333333)"><rect width="6" height="6"/></g>
<g transform="translate(260,180) scale(3.3333333333333)"><rect width="6" height="6"/></g>
<g transform="translate(280,180) scale(3.3333333333333)"><rect width="6" height="6"/></g>
<g transform="translate(380,180) scale(3.3333333333333)"><rect width="6" height="6"/></g>
<g transform="translate(420,180) scale(3.3333333333333)"><rect width="6" height="6"/></g>
<g transform="translate(440,180) scale(3.3333333333333)"><rect width="6" height="6"/></g>
<g transform="translate(520,180) scale(3.3333333333333)"><rect width="6" height="6"/></g>
<g transform="translate(540,180) scale(3.3333333333333)"><rect width="6" height="6"/></g>
<g transform="translate(580,180) scale(3.3333333333333)"><rect width="6" height="6"/></g>
<g transform="translate(620,180) scale(3.3333333333333)"><rect width="6" height="6"/></g>
<g transform="translate(640,180) scale(3.3333333333333)"><rect width="6" height="6"/></g>
<g transform="translate(680,180) scale(3.3333333333333)"><rect width="6" height="6"/></g>
<g transform="translate(720,180) scale(3.3333333333333)"><rect width="6" height="6"/></g>
<g transform="translate(80,200) scale(3.3333333333333)"><rect width="6" height="6"/></g>
<g transform="translate(100,200) scale(3.3333333333333)"><rect width="6" height="6"/></g>
<g transform="translate(120,200) scale(3.3333333333333)"><rect width="6" height="6"/></g>
<g transform="translate(160,200) scale(3.3333333333333)"><rect width="6" height="6"/></g>
<g transform="translate(200,200) scale(3.3333333333333)"><rect width="6" height="6"/></g>
<g transform="translate(260,200) scale(3.3333333333333)"><rect width="6" height="6"/></g>
<g transform="translate(320,200) scale(3.3333333333333)"><rect width="6" height="6"/></g>
<g transform="translate(340,200) scale(3.3333333333333)"><rect width="6" height="6"/></g>
<g transform="translate(360,200) scale(3.3333333333333)"><rect width="6" height="6"/></g>
<g transform="translate(380,200) scale(3.3333333333333)"><rect width="6" height="6"/></g>
<g transform="translate(440,200) scale(3.3333333333333)"><rect width="6" height="6"/></g>
<g transform="translate(460,200) scale(3.3333333333333)"><rect width="6" height="6"/></g>
<g transform="translate(480,200) scale(3.3333333333333)"><rect width="6" height="6"/></g>
<g transform="translate(500,200) scale(3.3333333333333)"><rect width="6" height="6"/></g>
<g transform="translate(520,200) scale(3.3333333333333)"><rect width="6" height="6"/></g>
<g transform="translate(640,200) scale(3.3333333333333)"><rect width="6" height="6"/></g>
<g transform="translate(660,200) scale(3.3333333333333)"><rect width="6" height="6"/></g>
<g transform="translate(720,200) scale(3.3333333333333)"><rect width="6" height="6"/></g>
<g transform="translate(780,200) scale(3.3333333333333)"><rect width="6" height="6"/></g>
<g transform="translate(800,200) scale(3.3333333333333)"><rect width="6" height="6"/></g>
<g transform="translate(820,200) scale(3.3333333333333)"><rect width="6" height="6"/></g>
<g transform="translate(880,200) scale(3.3333333333333)"><rect width="6" height="6"/></g>
<g transform="translate(900,200) scale(3.3333333333333)"><rect width="6" height="6"/></g>
<g transform="translate(920,200) scale(3.3333333333333)"><rect width="6" height="6"/></g>
<g transform="translate(40,220) scale(3.3333333333333)"><rect width="6" height="6"/></g>
<g transform="translate(60,220) scale(3.3333333333333)"><rect width="6" height="6"/></g>
<g transform="translate(120,220) scale(3.3333333333333)"><rect width="6" height="6"/></g>
<g transform="translate(140,220) scale(3.3333333333333)"><rect width="6" height="6"/></g>
<g transform="translate(200,220) scale(3.3333333333333)"><rect width="6" height="6"/></g>
<g transform="translate(240,220) scale(3.3333333333333)"><rect width="6" height="6"/></g>
<g transform="translate(260,220) scale(3.3333333333333)"><rect width="6" height="6"/></g>
<g transform="translate(320,220) scale(3.3333333333333)"><rect width="6" height="6"/></g>
<g transform="translate(340,220) scale(3.3333333333333)"><rect width="6" height="6"/></g>
<g transform="translate(360,220) scale(3.3333333333333)"><rect width="6" height="6"/></g>
<g transform="translate(440,220) scale(3.3333333333333)"><rect width="6" height="6"/></g>
<g transform="translate(460,220) scale(3.3333333333333)"><rect width="6" height="6"/></g>
<g transform="translate(540,220) scale(3.3333333333333)"><rect width="6" height="6"/></g>
<g transform="translate(600,220) scale(3.3333333333333)"><rect width="6" height="6"/></g>
<g transform="translate(620,220) scale(3.3333333333333)"><rect width="6" height="6"/></g>
<g transform="translate(640,220) scale(3.3333333333333)"><rect width="6" height="6"/></g>
<g transform="translate(660,220) scale(3.3333333333333)"><rect width="6" height="6"/></g>
<g transform="translate(700,220) scale(3.3333333333333)"><rect width="6" height="6"/></g>
<g transform="translate(740,220) scale(3.3333333333333)"><rect width="6" height="6"/></g>
<g transform="translate(760,220) scale(3.3333333333333)"><rect width="6" height="6"/></g>
<g transform="translate(780,220) scale(3.3333333333333)"><rect width="6" height="6"/></g>
<g transform="translate(860,220) scale(3.3333333333333)"><rect width="6" height="6"/></g>
<g transform="translate(920,220) scale(3.3333333333333)"><rect width="6" height="6"/></g>
<g transform="translate(60,240) scale(3.3333333333333)"><rect width="6" height="6"/></g>
<g transform="translate(160,240) scale(3.3333333333333)"><rect width="6" height="6"/></g>
<g transform="translate(180,240) scale(3.3333333333333)"><rect width="6" height="6"/></g>
<g transform="translate(320,240) scale(3.3333333333333)"><rect width="6" height="6"/></g>
<g transform="translate(360,240) scale(3.3333333333333)"><rect width="6" height="6"/></g>
<g transform="translate(400,240) scale(3.3333333333333)"><rect width="6" height="6"/></g>
<g transform="translate(660,240) scale(3.3333333333333)"><rect width="6" height="6"/></g>
<g transform="translate(680,240) scale(3.3333333333333)"><rect width="6" height="6"/></g>
<g transform="translate(700,240) scale(3.3333333333333)"><rect width="6" height="6"/></g>
<g transform="translate(720,240) scale(3.3333333333333)"><rect width="6" height="6"/></g>
<g transform="translate(760,240) scale(3.3333333333333)"><rect width="6" height="6"/></g>
<g transform="translate(780,240) scale(3.3333333333333)"><rect width="6" height="6"/></g>
<g transform="translate(800,240) scale(3.3333333333333)"><rect width="6" height="6"/></g>
<g transform="translate(860,240) scale(3.3333333333333)"><rect width="6" height="6"/></g>
<g transform="translate(900,240) scale(3.3333333333333)"><rect width="6" height="6"/></g>
<g transform="translate(100,260) scale(3.3333333333333)"><rect width="6" height="6"/></g>
<g transform="translate(120,260) scale(3.3333333333333)"><rect width="6" height="6"/></g>
<g transform="translate(180,260) scale(3.3333333333333)"><rect width="6" height="6"/></g>
<g transform="translate(200,260) scale(3.3333333333333)"><rect width="6" height="6"/></g>
<g transform="translate(280,260) scale(3.3333333333333)"><rect width="6" height="6"/></g>
<g transform="translate(320,260) scale(3.3333333333333)"><rect width="6" height="6"/></g>
<g transform="translate(380,260) scale(3.3333333333333)"><rect width="6" height="6"/></g>
<g transform="translate(420,260) scale(3.3333333333333)"><rect width="6" height="6"/></g>
<g transform="translate(440,260) scale(3.3333333333333)"><rect width="6" height="6"/></g>
<g transform="translate(460,260) scale(3.3333333333333)"><rect width="6" height="6"/></g>
<g transform="translate(480,260) scale(3.3333333333333)"><rect width="6" height="6"/></g>
<g transform="translate(500,260) scale(3.3333333333333)"><rect width="6" height="6"/></g>
<g transform="translate(520,260) scale(3.3333333333333)"><rect width="6" height="6"/></g>
<g transform="translate(540,260) scale(3.3333333333333)"><rect width="6" height="6"/></g>
<g transform="translate(560,260) scale(3.3333333333333)"><rect width="6" height="6"/></g>
<g transform="translate(580,260) scale(3.3333333333333)"><rect width="6" height="6"/></g>
<g transform="translate(600,260) scale(3.3333333333333)"><rect width="6" height="6"/></g>
<g transform="translate(620,260) scale(3.3333333333333)"><rect width="6" height="6"/></g>
<g transform="translate(640,260) scale(3.3333333333333)"><rect width="6" height="6"/></g>
<g transform="translate(680,260) scale(3.3333333333333)"><rect width="6" height="6"/></g>
<g transform="translate(740,260) scale(3.3333333333333)"><rect width="6" height="6"/></g>
<g transform="translate(760,260) scale(3.3333333333333)"><rect width="6" height="6"/></g>
<g transform="translate(820,260) scale(3.3333333333333)"><rect width="6" height="6"/></g>
<g transform="translate(840,260) scale(3.3333333333333)"><rect width="6" height="6"/></g>
<g transform="translate(860,260) scale(3.3333333333333)"><rect width="6" height="6"/></g>
<g transform="translate(880,260) scale(3.3333333333333)"><rect width="6" height="6"/></g>
<g transform="translate(900,260) scale(3.3333333333333)"><rect width="6" height="6"/></g>
<g transform="translate(160,280) scale(3.3333333333333)"><rect width="6" height="6"/></g>
<g transform="translate(220,280) scale(3.3333333333333)"><rect width="6" height="6"/></g>
<g transform="translate(260,280) scale(3.3333333333333)"><rect width="6" height="6"/></g>
<g transform="translate(360,280) scale(3.3333333333333)"><rect width="6" height="6"/></g>
<g transform="translate(520,280) scale(3.3333333333333)"><rect width="6" height="6"/></g>
<g transform="translate(540,280) scale(3.3333333333333)"><rect width="6" height="6"/></g>
<g transform="translate(560,280) scale(3.3333333333333)"><rect width="6" height="6"/></g>
<g transform="translate(580,280) scale(3.3333333333333)"><rect width="6" height="6"/></g>
<g transform="translate(660,280) scale(3.3333333333333)"><rect width="6" height="6"/></g>
<g transform="translate(720,280) scale(3.3333333333333)"><rect width="6" height="6"/></g>
<g transform="translate(900,280) scale(3.3333333333333)"><rect width="6" height="6"/></g>
<g transform="translate(920,280) scale(3.3333333333333)"><rect width="6" height="6"/></g>
<g transform="translate(40,300) scale(3.3333333333333)"><rect width="6" height="6"/></g>
<g transform="translate(60,300) scale(3.3333333333333)"><rect width="6" height="6"/></g>
<g transform="translate(120,300) scale(3.3333333333333)"><rect width="6" height="6"/></g>
<g transform="translate(180,300) scale(3.3333333333333)"><rect width="6" height="6"/></g>
<g transform="translate(220,300) scale(3.3333333333333)"><rect width="6" height="6"/></g>
<g transform="translate(240,300) scale(3.3333333333333)"><rect width="6" height="6"/></g>
<g transform="translate(260,300) scale(3.3333333333333)"><rect width="6" height="6"/></g>
<g transform="translate(280,300) scale(3.3333333333333)"><rect width="6" height="6"/></g>
<g transform="translate(300,300) scale(3.3333333333333)"><rect width="6" height="6"/></g>
<g transform="translate(360,300) scale(3.3333333333333)"><rect width="6" height="6"/></g>
<g transform="translate(400,300) scale(3.3333333333333)"><rect width="6" height="6"/></g>
<g transform="translate(420,300) scale(3.3333333333333)"><rect width="6" height="6"/></g>
<g transform="translate(440,300) scale(3.3333333333333)"><rect width="6" height="6"/></g>
<g transform="translate(480,300) scale(3.3333333333333)"><rect width="6" height="6"/></g>
<g transform="translate(540,300) scale(3.3333333333333)"><rect width="6" height="6"/></g>
<g transform="translate(600,300) scale(3.3333333333333)"><rect width="6" height="6"/></g>
<g transform="translate(620,300) scale(3.3333333333333)"><rect width="6" height="6"/></g>
<g transform="translate(640,300) scale(3.3333333333333)"><rect width="6" height="6"/></g>
<g transform="translate(660,300) scale(3.3333333333333)"><rect width="6" height="6"/></g>
<g transform="translate(740,300) scale(3.3333333333333)"><rect width="6" height="6"/></g>
<g transform="translate(760,300) scale(3.3333333333333)"><rect width="6" height="6"/></g>
<g transform="translate(780,300) scale(3.3333333333333)"><rect width="6" height="6"/></g>
<g transform="translate(920,300) scale(3.3333333333333)"><rect width="6" height="6"/></g>
<g transform="translate(140,320) scale(3.3333333333333)"><rect width="6" height="6"/></g>
<g transform="translate(160,320) scale(3.3333333333333)"><rect width="6" height="6"/></g>
<g transform="translate(180,320) scale(3.3333333333333)"><rect width="6" height="6"/></g>
<g transform="translate(200,320) scale(3.3333333333333)"><rect width="6" height="6"/></g>
<g transform="translate(280,320) scale(3.3333333333333)"><rect width="6" height="6"/></g>
<g transform="translate(320,320) scale(3.3333333333333)"><rect width="6" height="6"/></g>
<g transform="translate(360,320) scale(3.3333333333333)"><rect width="6" height="6"/></g>
<g transform="translate(380,320) scale(3.3333333333333)"><rect width="6" height="6"/></g>
<g transform="translate(400,320) scale(3.3333333333333)"><rect width="6" height="6"/></g>
<g transform="translate(420,320) scale(3.3333333333333)"><rect width="6" height="6"/></g>
<g transform="translate(440,320) scale(3.3333333333333)"><rect width="6" height="6"/></g>
<g transform="translate(520,320) scale(3.3333333333333)"><rect width="6" height="6"/></g>
<g transform="translate(540,320) scale(3.3333333333333)"><rect width="6" height="6"/></g>
<g transform="translate(600,320) scale(3.3333333333333)"><rect width="6" height="6"/></g>
<g transform="translate(700,320) scale(3.3333333333333)"><rect width="6" height="6"/></g>
<g transform="translate(720,320) scale(3.3333333333333)"><rect width="6" height="6"/></g>
<g transform="translate(740,320) scale(3.3333333333333)"><rect width="6" height="6"/></g>
<g transform="translate(760,320) scale(3.3333333333333)"><rect width="6" height="6"/></g>
<g transform="translate(780,320) scale(3.3333333333333)"><rect width="6" height="6"/></g>
<g transform="translate(800,320) scale(3.3333333333333)"><rect width="6" height="6"/></g>
<g transform="translate(840,320) scale(3.3333333333333)"><rect width="6" height="6"/></g>
<g transform="translate(880,320) scale(3.3333333333333)"><rect width="6" height="6"/></g>
<g transform="translate(900,320) scale(3.3333333333333)"><rect width="6" height="6"/></g>
<g transform="translate(120,340) scale(3.3333333333333)"><rect width="6" height="6"/></g>
<g transform="translate(140,340) scale(3.3333333333333)"><rect width="6" height="6"/></g>
<g transform="translate(220,340) scale(3.3333333333333)"><rect width="6" height="6"/></g>
<g transform="translate(260,340) scale(3.3333333333333)"><rect width="6" height="6"/></g>
<g transform="translate(280,340) scale(3.3333333333333)"><rect width="6" height="6"/></g>
<g transform="translate(320,340) scale(3.3333333333333)"><rect width="6" height="6"/></g>
<g transform="translate(340,340) scale(3.3333333333333)"><rect width="6" height="6"/></g>
<g transform="translate(440,340) scale(3.3333333333333)"><rect width="6" height="6"/></g>
<g transform="translate(460,340) scale(3.3333333333333)"><rect width="6" height="6"/></g>
<g transform="translate(500,340) scale(3.3333333333333)"><rect width="6" height="6"/></g>
<g transform="translate(520,340) scale(3.3333333333333)"><rect width="6" height="6"/></g>
<g transform="translate(540,340) scale(3.3333333333333)"><rect width="6" height="6"/></g>
<g transform="translate(580,340) scale(3.3333333333333)"><rect width="6" height="6"/></g>
<g transform="translate(600,340) scale(3.3333333333333)"><rect width="6" height="6"/></g>
<g transform="translate(620,340) scale(3.3333333333333)"><rect width="6" height="6"/></g>
<g transform="translate(660,340) scale(3.3333333333333)"><rect width="6" height="6"/></g>
<g transform="translate(680,340) scale(3.3333333333333)"><rect width="6" height="6"/></g>
<g transform="translate(720,340) scale(3.3333333333333)"><rect width="6" height="6"/></g>
<g transform="translate(760,340) scale(3.3333333333333)"><rect width="6" height="6"/></g>
<g transform="translate(780,340) scale(3.3333333333333)"><rect width="6" height="6"/></g>
<g transform="translate(840,340) scale(3.3333333333333)"><rect width="6" height="6"/></g>
<g transform="translate(860,340) scale(3.3333333333333)"><rect width="6" height="6"/></g>
<g transform="translate(880,340) scale(3.3333333333333)"><rect width="6" height="6"/></g>
<g transform="translate(920,340) scale(3.3333333333333)"><rect width="6" height="6"/></g>
<g transform="translate(40,360) scale(3.3333333333333)"><rect width="6" height="6"/></g>
<g transform="translate(80,360) scale(3.3333333333333)"><rect width="6" height="6"/></g>
<g transform="translate(100,360) scale(3.3333333333333)"><rect width="6" height="6"/></g>
<g transform="translate(120,360) scale(3.3333333333333)"><rect width="6" height="6"/></g>
<g transform="translate(140,360) scale(3.3333333333333)"><rect width="6" height="6"/></g>
<g transform="translate(160,360) scale(3.3333333333333)"><rect width="6" height="6"/></g>
<g transform="translate(180,360) scale(3.3333333333333)"><rect width="6" height="6"/></g>
<g transform="translate(200,360) scale(3.3333333333333)"><rect width="6" height="6"/></g>
<g transform="translate(240,360) scale(3.3333333333333)"><rect width="6" height="6"/></g>
<g transform="translate(260,360) scale(3.3333333333333)"><rect width="6" height="6"/></g>
<g transform="translate(300,360) scale(3.3333333333333)"><rect width="6" height="6"/></g>
<g transform="translate(320,360) scale(3.3333333333333)"><rect width="6" height="6"/></g>
<g transform="translate(360,360) scale(3.3333333333333)"><rect width="6" height="6"/></g>
<g transform="translate(380,360) scale(3.3333333333333)"><rect width="6" height="6"/></g>
<g transform="translate(420,360) scale(3.3333333333333)"><rect width="6" height="6"/></g>
<g transform="translate(440,360) scale(3.3333333333333)"><rect width="6" height="6"/></g>
<g transform="translate(520,360) scale(3.3333333333333)"><rect width="6" height="6"/></g>
<g transform="translate(540,360) scale(3.3333333333333)"><rect width="6" height="6"/></g>
<g transform="translate(560,360) scale(3.3333333333333)"><rect width="6" height="6"/></g>
<g transform="translate(660,360) scale(3.3333333333333)"><rect width="6" height="6"/></g>
<g transform="translate(700,360) scale(3.3333333333333)"><rect width="6" height="6"/></g>
<g transform="translate(860,360) scale(3.3333333333333)"><rect width="6" height="6"/></g>
<g transform="translate(900,360) scale(3.3333333333333)"><rect width="6" height="6"/></g>
<g transform="translate(920,360) scale(3.3333333333333)"><rect width="6" height="6"/></g>
<g transform="translate(80,380) scale(3.3333333333333)"><rect width="6" height="6"/></g>
<g transform="translate(140,380) scale(3.3333333333333)"><rect width="6" height="6"/></g>
<g transform="translate(200,380) scale(3.3333333333333)"><rect width="6" height="6"/></g>
<g transform="translate(220,380) scale(3.3333333333333)"><rect width="6" height="6"/></g>
<g transform="translate(260,380) scale(3.3333333333333)"><rect width="6" height="6"/></g>
<g transform="translate(280,380) scale(3.3333333333333)"><rect width="6" height="6"/></g>
<g transform="translate(320,380) scale(3.3333333333333)"><rect width="6" height="6"/></g>
<g transform="translate(400,380) scale(3.3333333333333)"><rect width="6" height="6"/></g>
<g transform="translate(420,380) scale(3.3333333333333)"><rect width="6" height="6"/></g>
<g transform="translate(480,380) scale(3.3333333333333)"><rect width="6" height="6"/></g>
<g transform="translate(500,380) scale(3.3333333333333)"><rect width="6" height="6"/></g>
<g transform="translate(540,380) scale(3.3333333333333)"><rect width="6" height="6"/></g>
<g transform="translate(560,380) scale(3.3333333333333)"><rect width="6" height="6"/></g>
<g transform="translate(580,380) scale(3.3333333333333)"><rect width="6" height="6"/></g>
<g transform="translate(600,380) scale(3.3333333333333)"><rect width="6" height="6"/></g>
<g transform="translate(620,380) scale(3.3333333333333)"><rect width="6" height="6"/></g>
<g transform="translate(740,380) scale(3.3333333333333)"><rect width="6" height="6"/></g>
<g transform="translate(760,380) scale(3.3333333333333)"><rect width="6" height="6"/></g>
<g transform="translate(780,380) scale(3.3333333333333)"><rect width="6" height="6"/></g>
<g transform="translate(840,380) scale(3.3333333333333)"><rect width="6" height="6"/></g>
<g transform="translate(880,380) scale(3.3333333333333)"><rect width="6" height="6"/></g>
<g transform="translate(900,380) scale(3.3333333333333)"><rect width="6" height="6"/></g>
<g transform="translate(920,380) scale(3.3333333333333)"><rect width="6" height="6"/></g>
<g transform="translate(40,400) scale(3.3333333333333)"><rect width="6" height="6"/></g>
<g transform="translate(160,400) scale(3.3333333333333)"><rect width="6" height="6"/></g>
<g transform="translate(220,400) scale(3.3333333333333)"><rect width="6" height="6"/></g>
<g transform="translate(240,400) scale(3.3333333333333)"><rect width="6" height="6"/></g>
<g transform="translate(260,400) scale(3.3333333333333)"><rect width="6" height="6"/></g>
<g transform="translate(280,400) scale(3.3333333333333)"><rect width="6" height="6"/></g>
<g transform="translate(340,400) scale(3.3333333333333)"><rect width="6" height="6"/></g>
<g transform="translate(420,400) scale(3.3333333333333)"><rect width="6" height="6"/></g>
<g transform="translate(460,400) scale(3.3333333333333)"><rect width="6" height="6"/></g>
<g transform="translate(480,400) scale(3.3333333333333)"><rect width="6" height="6"/></g>
<g transform="translate(580,400) scale(3.3333333333333)"><rect width="6" height="6"/></g>
<g transform="translate(600,400) scale(3.3333333333333)"><rect width="6" height="6"/></g>
<g transform="translate(640,400) scale(3.3333333333333)"><rect width="6" height="6"/></g>
<g transform="translate(680,400) scale(3.3333333333333)"><rect width="6" height="6"/></g>
<g transform="translate(700,400) scale(3.3333333333333)"><rect width="6" height="6"/></g>
<g transform="translate(720,400) scale(3.3333333333333)"><rect width="6" height="6"/></g>
<g transform="translate(800,400) scale(3.3333333333333)"><rect width="6" height="6"/></g>
<g transform="translate(840,400) scale(3.3333333333333)"><rect width="6" height="6"/></g>
<g transform="translate(880,400) scale(3.3333333333333)"><rect width="6" height="6"/></g>
<g transform="translate(900,400) scale(3.3333333333333)"><rect width="6" height="6"/></g>
<g transform="translate(60,420) scale(3.3333333333333)"><rect width="6" height="6"/></g>
<g transform="translate(80,420) scale(3.3333333333333)"><rect width="6" height="6"/></g>
<g transform="translate(100,420) scale(3.3333333333333)"><rect width="6" height="6"/></g>
<g transform="translate(120,420) scale(3.3333333333333)"><rect width="6" height="6"/></g>
<g transform="translate(180,420) scale(3.3333333333333)"><rect width="6" height="6"/></g>
<g transform="translate(200,420) scale(3.3333333333333)"><rect width="6" height="6"/></g>
<g transform="translate(260,420) scale(3.3333333333333)"><rect width="6" height="6"/></g>
<g transform="translate(300,420) scale(3.3333333333333)"><rect width="6" height="6"/></g>
<g transform="translate(340,420) scale(3.3333333333333)"><rect width="6" height="6"/></g>
<g transform="translate(380,420) scale(3.3333333333333)"><rect width="6" height="6"/></g>
<g transform="translate(420,420) scale(3.3333333333333)"><rect width="6" height="6"/></g>
<g transform="translate(460,420) scale(3.3333333333333)"><rect width="6" height="6"/></g>
<g transform="translate(480,420) scale(3.3333333333333)"><rect width="6" height="6"/></g>
<g transform="translate(520,420) scale(3.3333333333333)"><rect width="6" height="6"/></g>
<g transform="translate(540,420) scale(3.3333333333333)"><rect width="6" height="6"/></g>
<g transform="translate(560,420) scale(3.3333333333333)"><rect width="6" height="6"/></g>
<g transform="translate(640,420) scale(3.3333333333333)"><rect width="6" height="6"/></g>
<g transform="translate(680,420) scale(3.3333333333333)"><rect width="6" height="6"/></g>
<g transform="translate(700,420) scale(3.3333333333333)"><rect width="6" height="6"/></g>
<g transform="translate(740,420) scale(3.3333333333333)"><rect width="6" height="6"/></g>
<g transform="translate(840,420) scale(3.3333333333333)"><rect width="6" height="6"/></g>
<g transform="translate(860,420) scale(3.3333333333333)"><rect width="6" height="6"/></g>
<g transform="translate(880,420) scale(3.3333333333333)"><rect width="6" height="6"/></g>
<g transform="translate(900,420) scale(3.3333333333333)"><rect width="6" height="6"/></g>
<g transform="translate(920,420) scale(3.3333333333333)"><rect width="6" height="6"/></g>
<g transform="translate(80,440) scale(3.3333333333333)"><rect width="6" height="6"/></g>
<g transform="translate(100,440) scale(3.3333333333333)"><rect width="6" height="6"/></g>
<g transform="translate(120,440) scale(3.3333333333333)"><rect width="6" height="6"/></g>
<g transform="translate(140,440) scale(3.3333333333333)"><rect width="6" height="6"/></g>
<g transform="translate(160,440) scale(3.3333333333333)"><rect width="6" height="6"/></g>
<g transform="translate(180,440) scale(3.3333333333333)"><rect width="6" height="6"/></g>
<g transform="translate(200,440) scale(3.3333333333333)"><rect width="6" height="6"/></g>
<g transform="translate(240,440) scale(3.3333333333333)"><rect width="6" height="6"/></g>
<g transform="translate(260,440) scale(3.3333333333333)"><rect width="6" height="6"/></g>
<g transform="translate(280,440) scale(3.3333333333333)"><rect width="6" height="6"/></g>
<g transform="translate(300,440) scale(3.3333333333333)"><rect width="6" height="6"/></g>
<g transform="translate(320,440) scale(3.3333333333333)"><rect width="6" height="6"/></g>
<g transform="translate(340,440) scale(3.3333333333333)"><rect width="6" height="6"/></g>
<g transform="translate(360,440) scale(3.3333333333333)"><rect width="6" height="6"/></g>
<g transform="translate(440,440) scale(3.3333333333333)"><rect width="6" height="6"/></g>
<g transform="translate(460,440) scale(3.3333333333333)"><rect width="6" height="6"/></g>
<g transform="translate(480,440) scale(3.3333333333333)"><rect width="6" height="6"/></g>
<g transform="translate(500,440) scale(3.3333333333333)"><rect width="6" height="6"/></g>
<g transform="translate(520,440) scale(3.3333333333333)"><rect width="6" height="6"/></g>
<g transform="translate(620,440) scale(3.3333333333333)"><rect width="6" height="6"/></g>
<g transform="translate(640,440) scale(3.3333333333333)"><rect width="6" height="6"/></g>
<g transform="translate(660,440) scale(3.3333333333333)"><rect width="6" height="6"/></g>
<g transform="translate(760,440) scale(3.3333333333333)"><rect width="6" height="6"/></g>
<g transform="translate(780,440) scale(3.3333333333333)"><rect width="6" height="6"/></g>
<g transform="translate(800,440) scale(3.3333333333333)"><rect width="6" height="6"/></g>
<g transform="translate(820,440) scale(3.3333333333333)"><rect width="6" height="6"/></g>
<g transform="translate(840,440) scale(3.3333333333333)"><rect width="6" height="6"/></g>
<g transform="translate(900,440) scale(3.3333333333333)"><rect width="6" height="6"/></g>
<g transform="translate(920,440) scale(3.3333333333333)"><rect width="6" height="6"/></g>
<g transform="translate(120,460) scale(3.3333333333333)"><rect width="6" height="6"/></g>
<g transform="translate(200,460) scale(3.3333333333333)"><rect width="6" height="6"/></g>
<g transform="translate(220,460) scale(3.3333333333333)"><rect width="6" height="6"/></g>
<g transform="translate(280,460) scale(3.3333333333333)"><rect width="6" height="6"/></g>
<g transform="translate(300,460) scale(3.3333333333333)"><rect width="6" height="6"/></g>
<g transform="translate(320,460) scale(3.3333333333333)"><rect width="6" height="6"/></g>
<g transform="translate(360,460) scale(3.3333333333333)"><rect width="6" height="6"/></g>
<g transform="translate(380,460) scale(3.3333333333333)"><rect width="6" height="6"/></g>
<g transform="translate(420,460) scale(3.3333333333333)"><rect width="6" height="6"/></g>
<g transform="translate(440,460) scale(3.3333333333333)"><rect width="6" height="6"/></g>
<g transform="translate(520,460) scale(3.3333333333333)"><rect width="6" height="6"/></g>
<g transform="translate(540,460) scale(3.3333333333333)"><rect width="6" height="6"/></g>
<g transform="translate(560,460) scale(3.3333333333333)"><rect width="6" height="6"/></g>
<g transform="translate(640,460) scale(3.3333333333333)"><rect width="6" height="6"/></g>
<g transform="translate(660,460) scale(3.3333333333333)"><rect width="6" height="6"/></g>
<g transform="translate(740,460) scale(3.3333333333333)"><rect width="6" height="6"/></g>
<g transform="translate(760,460) scale(3.3333333333333)"><rect width="6" height="6"/></g>
<g transform="translate(840,460) scale(3.3333333333333)"><rect width="6" height="6"/></g>
<g transform="translate(920,460) scale(3.3333333333333)"><rect width="6" height="6"/></g>
<g transform="translate(60,480) scale(3.3333333333333)"><rect width="6" height="6"/></g>
<g transform="translate(120,480) scale(3.3333333333333)"><rect width="6" height="6"/></g>
<g transform="translate(160,480) scale(3.3333333333333)"><rect width="6" height="6"/></g>
<g transform="translate(200,480) scale(3.3333333333333)"><rect width="6" height="6"/></g>
<g transform="translate(220,480) scale(3.3333333333333)"><rect width="6" height="6"/></g>
<g transform="translate(260,480) scale(3.3333333333333)"><rect width="6" height="6"/></g>
<g transform="translate(280,480) scale(3.3333333333333)"><rect width="6" height="6"/></g>
<g transform="translate(300,480) scale(3.3333333333333)"><rect width="6" height="6"/></g>
<g transform="translate(320,480) scale(3.3333333333333)"><rect width="6" height="6"/></g>
<g transform="translate(340,480) scale(3.3333333333333)"><rect width="6" height="6"/></g>
<g transform="translate(360,480) scale(3.3333333333333)"><rect width="6" height="6"/></g>
<g transform="translate(380,480) scale(3.3333333333333)"><rect width="6" height="6"/></g>
<g transform="translate(400,480) scale(3.3333333333333)"><rect width="6" height="6"/></g>
<g transform="translate(440,480) scale(3.3333333333333)"><rect width="6" height="6"/></g>
<g transform="translate(480,480) scale(3.3333333333333)"><rect width="6" height="6"/></g>
<g transform="translate(520,480) scale(3.3333333333333)"><rect width="6" height="6"/></g>
<g transform="translate(560,480) scale(3.3333333333333)"><rect width="6" height="6"/></g>
<g transform="translate(620,480) scale(3.3333333333333)"><rect width="6" height="6"/></g>
<g transform="translate(640,480) scale(3.3333333333333)"><rect width="6" height="6"/></g>
<g transform="translate(700,480) scale(3.3333333333333)"><rect width="6" height="6"/></g>
<g transform="translate(720,480) scale(3.3333333333333)"><rect width="6" height="6"/></g>
<g transform="translate(760,480) scale(3.3333333333333)"><rect width="6" height="6"/></g>
<g transform="translate(800,480) scale(3.3333333333333)"><rect width="6" height="6"/></g>
<g transform="translate(840,480) scale(3.3333333333333)"><rect width="6" height="6"/></g>
<g transform="translate(860,480) scale(3.3333333333333)"><rect width="6" height="6"/></g>
<g transform="translate(880,480) scale(3.3333333333333)"><rect width="6" height="6"/></g>
<g transform="translate(900,480) scale(3.3333333333333)"><rect width="6" height="6"/></g>
<g transform="translate(60,500) scale(3.3333333333333)"><rect width="6" height="6"/></g>
<g transform="translate(80,500) scale(3.3333333333333)"><rect width="6" height="6"/></g>
<g transform="translate(120,500) scale(3.3333333333333)"><rect width="6" height="6"/></g>
<g transform="translate(200,500) scale(3.3333333333333)"><rect width="6" height="6"/></g>
<g transform="translate(220,500) scale(3.3333333333333)"><rect width="6" height="6"/></g>
<g transform="translate(360,500) scale(3.3333333333333)"><rect width="6" height="6"/></g>
<g transform="translate(380,500) scale(3.3333333333333)"><rect width="6" height="6"/></g>
<g transform="translate(400,500) scale(3.3333333333333)"><rect width="6" height="6"/></g>
<g transform="translate(420,500) scale(3.3333333333333)"><rect width="6" height="6"/></g>
<g transform="translate(440,500) scale(3.3333333333333)"><rect width="6" height="6"/></g>
<g transform="translate(520,500) scale(3.3333333333333)"><rect width="6" height="6"/></g>
<g transform="translate(580,500) scale(3.3333333333333)"><rect width="6" height="6"/></g>
<g transform="translate(640,500) scale(3.3333333333333)"><rect width="6" height="6"/></g>
<g transform="translate(680,500) scale(3.3333333333333)"><rect width="6" height="6"/></g>
<g transform="translate(720,500) scale(3.3333333333333)"><rect width="6" height="6"/></g>
<g transform="translate(760,500) scale(3.3333333333333)"><rect width="6" height="6"/></g>
<g transform="translate(840,500) scale(3.3333333333333)"><rect width="6" height="6"/></g>
<g transform="translate(860,500) scale(3.3333333333333)"><rect width="6" height="6"/></g>
<g transform="translate(880,500) scale(3.3333333333333)"><rect width="6" height="6"/></g>
<g transform="translate(920,500) scale(3.3333333333333)"><rect width="6" height="6"/></g>
<g transform="translate(40,520) scale(3.3333333333333)"><rect width="6" height="6"/></g>
<g transform="translate(80,520) scale(3.3333333333333)"><rect width="6" height="6"/></g>
<g transform="translate(100,520) scale(3.3333333333333)"><rect width="6" height="6"/></g>
<g transform="translate(120,520) scale(3.3333333333333)"><rect width="6" height="6"/></g>
<g transform="translate(140,520) scale(3.3333333333333)"><rect width="6" height="6"/></g>
<g transform="translate(160,520) scale(3.3333333333333)"><rect width="6" height="6"/></g>
<g transform="translate(180,520) scale(3.3333333333333)"><rect width="6" height="6"/></g>
<g transform="translate(200,520) scale(3.3333333333333)"><rect width="6" height="6"/></g>
<g transform="translate(220,520) scale(3.3333333333333)"><rect width="6" height="6"/></g>
<g transform="translate(240,520) scale(3.3333333333333)"><rect width="6" height="6"/></g>
<g transform="translate(280,520) scale(3.3333333333333)"><rect width="6" height="6"/></g>
<g transform="translate(340,520) scale(3.3333333333333)"><rect width="6" height="6"/></g>
<g transform="translate(380,520) scale(3.3333333333333)"><rect width="6" height="6"/></g>
<g transform="translate(400,520) scale(3.3333333333333)"><rect width="6" height="6"/></g>
<g transform="translate(420,520) scale(3.3333333333333)"><rect width="6" height="6"/></g>
<g transform="translate(440,520) scale(3.3333333333333)"><rect width="6" height="6"/></g>
<g transform="translate(460,520) scale(3.3333333333333)"><rect width="6" height="6"/></g>
<g transform="translate(480,520) scale(3.3333333333333)"><rect width="6" height="6"/></g>
<g transform="translate(500,520) scale(3.3333333333333)"><rect width="6" height="6"/></g>
<g transform="translate(520,520) scale(3.3333333333333)"><rect width="6" height="6"/></g>
<g transform="translate(580,520) scale(3.3333333333333)"><rect width="6" height="6"/></g>
<g transform="translate(640,520) scale(3.3333333333333)"><rect width="6" height="6"/></g>
<g transform="translate(760,520) scale(3.3333333333333)"><rect width="6" height="6"/></g>
<g transform="translate(780,520) scale(3.3333333333333)"><rect width="6" height="6"/></g>
<g transform="translate(800,520) scale(3.3333333333333)"><rect width="6" height="6"/></g>
<g transform="translate(820,520) scale(3.3333333333333)"><rect width="6" height="6"/></g>
<g transform="translate(840,520) scale(3.3333333333333)"><rect width="6" height="6"/></g>
<g transform="translate(900,520) scale(3.3333333333333)"><rect width="6" height="6"/></g>
<g transform="translate(920,520) scale(3.3333333333333)"><rect width="6" height="6"/></g>
<g transform="translate(60,540) scale(3.3333333333333)"><rect width="6" height="6"/></g>
<g transform="translate(100,540) scale(3.3333333333333)"><rect width="6" height="6"/></g>
<g transform="translate(140,540) scale(3.3333333333333)"><rect width="6" height="6"/></g>
<g transform="translate(180,540) scale(3.3333333333333)"><rect width="6" height="6"/></g>
<g transform="translate(220,540) scale(3.3333333333333)"><rect width="6" height="6"/></g>
<g transform="translate(240,540) scale(3.3333333333333)"><rect width="6" height="6"/></g>
<g transform="translate(300,540) scale(3.3333333333333)"><rect width="6" height="6"/></g>
<g transform="translate(360,540) scale(3.3333333333333)"><rect width="6" height="6"/></g>
<g transform="translate(380,540) scale(3.3333333333333)"><rect width="6" height="6"/></g>
<g transform="translate(440,540) scale(3.3333333333333)"><rect width="6" height="6"/></g>
<g transform="translate(560,540) scale(3.3333333333333)"><rect width="6" height="6"/></g>
<g transform="translate(580,540) scale(3.3333333333333)"><rect width="6" height="6"/></g>
<g transform="translate(600,540) scale(3.3333333333333)"><rect width="6" height="6"/></g>
<g transform="translate(620,540) scale(3.3333333333333)"><rect width="6" height="6"/></g>
<g transform="translate(680,540) scale(3.3333333333333)"><rect width="6" height="6"/></g>
<g transform="translate(740,540) scale(3.3333333333333)"><rect width="6" height="6"/></g>
<g transform="translate(760,540) scale(3.3333333333333)"><rect width="6" height="6"/></g>
<g transform="translate(800,540) scale(3.3333333333333)"><rect width="6" height="6"/></g>
<g transform="translate(880,540) scale(3.3333333333333)"><rect width="6" height="6"/></g>
<g transform="translate(920,540) scale(3.3333333333333)"><rect width="6" height="6"/></g>
<g transform="translate(60,560) scale(3.3333333333333)"><rect width="6" height="6"/></g>
<g transform="translate(80,560) scale(3.3333333333333)"><rect width="6" height="6"/></g>
<g transform="translate(100,560) scale(3.3333333333333)"><rect width="6" height="6"/></g>
<g transform="translate(120,560) scale(3.3333333333333)"><rect width="6" height="6"/></g>
<g transform="translate(160,560) scale(3.3333333333333)"><rect width="6" height="6"/></g>
<g transform="translate(180,560) scale(3.3333333333333)"><rect width="6" height="6"/></g>
<g transform="translate(200,560) scale(3.3333333333333)"><rect width="6" height="6"/></g>
<g transform="translate(220,560) scale(3.3333333333333)"><rect width="6" height="6"/></g>
<g transform="translate(280,560) scale(3.3333333333333)"><rect width="6" height="6"/></g>
<g transform="translate(320,560) scale(3.3333333333333)"><rect width="6" height="6"/></g>
<g transform="translate(340,560) scale(3.3333333333333)"><rect width="6" height="6"/></g>
<g transform="translate(440,560) scale(3.3333333333333)"><rect width="6" height="6"/></g>
<g transform="translate(460,560) scale(3.3333333333333)"><rect width="6" height="6"/></g>
<g transform="translate(560,560) scale(3.3333333333333)"><rect width="6" height="6"/></g>
<g transform="translate(580,560) scale(3.3333333333333)"><rect width="6" height="6"/></g>
<g transform="translate(600,560) scale(3.3333333333333)"><rect width="6" height="6"/></g>
<g transform="translate(620,560) scale(3.3333333333333)"><rect width="6" height="6"/></g>
<g transform="translate(640,560) scale(3.3333333333333)"><rect width="6" height="6"/></g>
<g transform="translate(660,560) scale(3.3333333333333)"><rect width="6" height="6"/></g>
<g transform="translate(700,560) scale(3.3333333333333)"><rect width="6" height="6"/></g>
<g transform="translate(720,560) scale(3.3333333333333)"><rect width="6" height="6"/></g>
<g transform="translate(740,560) scale(3.3333333333333)"><rect width="6" height="6"/></g>
<g transform="translate(760,560) scale(3.3333333333333)"><rect width="6" height="6"/></g>
<g transform="translate(780,560) scale(3.3333333333333)"><rect width="6" height="6"/></g>
<g transform="translate(820,560) scale(3.3333333333333)"><rect width="6" height="6"/></g>
<g transform="translate(840,560) scale(3.3333333333333)"><rect width="6" height="6"/></g>
<g transform="translate(860,560) scale(3.3333333333333)"><rect width="6" height="6"/></g>
<g transform="translate(880,560) scale(3.3333333333333)"><rect width="6" height="6"/></g>
<g transform="translate(900,560) scale(3.3333333333333)"><rect width="6" height="6"/></g>
<g transform="translate(100,580) scale(3.3333333333333)"><rect width="6" height="6"/></g>
<g transform="translate(120,580) scale(3.3333333333333)"><rect width="6" height="6"/></g>
<g transform="translate(140,580) scale(3.3333333333333)"><rect width="6" height="6"/></g>
<g transform="translate(220,580) scale(3.3333333333333)"><rect width="6" height="6"/></g>
<g transform="translate(240,580) scale(3.3333333333333)"><rect width="6" height="6"/></g>
<g transform="translate(260,580) scale(3.3333333333333)"><rect width="6" height="6"/></g>
<g transform="translate(320,580) scale(3.3333333333333)"><rect width="6" height="6"/></g>
<g transform="translate(340,580) scale(3.3333333333333)"><rect width="6" height="6"/></g>
<g transform="translate(380,580) scale(3.3333333333333)"><rect width="6" height="6"/></g>
<g transform="translate(420,580) scale(3.3333333333333)"><rect width="6" height="6"/></g>
<g transform="translate(440,580) scale(3.3333333333333)"><rect width="6" height="6"/></g>
<g transform="translate(460,580) scale(3.3333333333333)"><rect width="6" height="6"/></g>
<g transform="translate(500,580) scale(3.3333333333333)"><rect width="6" height="6"/></g>
<g transform="translate(540,580) scale(3.3333333333333)"><rect width="6" height="6"/></g>
<g transform="translate(560,580) scale(3.3333333333333)"><rect width="6" height="6"/></g>
<g transform="translate(680,580) scale(3.3333333333333)"><rect width="6" height="6"/></g>
<g transform="translate(720,580) scale(3.3333333333333)"><rect width="6" height="6"/></g>
<g transform="translate(740,580) scale(3.3333333333333)"><rect width="6" height="6"/></g>
<g transform="translate(800,580) scale(3.3333333333333)"><rect width="6" height="6"/></g>
<g transform="translate(840,580) scale(3.3333333333333)"><rect width="6" height="6"/></g>
<g transform="translate(860,580) scale(3.3333333333333)"><rect width="6" height="6"/></g>
<g transform="translate(880,580) scale(3.3333333333333)"><rect width="6" height="6"/></g>
<g transform="translate(900,580) scale(3.3333333333333)"><rect width="6" height="6"/></g>
<g transform="translate(60,600) scale(3.3333333333333)"><rect width="6" height="6"/></g>
<g transform="translate(100,600) scale(3.3333333333333)"><rect width="6" height="6"/></g>
<g transform="translate(140,600) scale(3.3333333333333)"><rect width="6" height="6"/></g>
<g transform="translate(160,600) scale(3.3333333333333)"><rect width="6" height="6"/></g>
<g transform="translate(220,600) scale(3.3333333333333)"><rect width="6" height="6"/></g>
<g transform="translate(240,600) scale(3.3333333333333)"><rect width="6" height="6"/></g>
<g transform="translate(320,600) scale(3.3333333333333)"><rect width="6" height="6"/></g>
<g transform="translate(340,600) scale(3.3333333333333)"><rect width="6" height="6"/></g>
<g transform="translate(440,600) scale(3.3333333333333)"><rect width="6" height="6"/></g>
<g transform="translate(480,600) scale(3.3333333333333)"><rect width="6" height="6"/></g>
<g transform="translate(500,600) scale(3.3333333333333)"><rect width="6" height="6"/></g>
<g transform="translate(520,600) scale(3.3333333333333)"><rect width="6" height="6"/></g>
<g transform="translate(540,600) scale(3.3333333333333)"><rect width="6" height="6"/></g>
<g transform="translate(560,600) scale(3.3333333333333)"><rect width="6" height="6"/></g>
<g transform="translate(580,600) scale(3.3333333333333)"><rect width="6" height="6"/></g>
<g transform="translate(600,600) scale(3.3333333333333)"><rect width="6" height="6"/></g>
<g transform="translate(620,600) scale(3.3333333333333)"><rect width="6" height="6"/></g>
<g transform="translate(640,600) scale(3.3333333333333)"><rect width="6" height="6"/></g>
<g transform="translate(720,600) scale(3.3333333333333)"><rect width="6" height="6"/></g>
<g transform="translate(760,600) scale(3.3333333333333)"><rect width="6" height="6"/></g>
<g transform="translate(780,600) scale(3.3333333333333)"><rect width="6" height="6"/></g>
<g transform="translate(840,600) scale(3.3333333333333)"><rect width="6" height="6"/></g>
<g transform="translate(860,600) scale(3.3333333333333)"><rect width="6" height="6"/></g>
<g transform="translate(920,600) scale(3.3333333333333)"><rect width="6" height="6"/></g>
<g transform="translate(40,620) scale(3.3333333333333)"><rect width="6" height="6"/></g>
<g transform="translate(80,620) scale(3.3333333333333)"><rect width="6" height="6"/></g>
<g transform="translate(140,620) scale(3.3333333333333)"><rect width="6" height="6"/></g>
<g transform="translate(180,620) scale(3.3333333333333)"><rect width="6" height="6"/></g>
<g transform="translate(220,620) scale(3.3333333333333)"><rect width="6" height="6"/></g>
<g transform="translate(260,620) scale(3.3333333333333)"><rect width="6" height="6"/></g>
<g transform="translate(280,620) scale(3.3333333333333)"><rect width="6" height="6"/></g>
<g transform="translate(340,620) scale(3.3333333333333)"><rect width="6" height="6"/></g>
<g transform="translate(360,620) scale(3.3333333333333)"><rect width="6" height="6"/></g>
<g transform="translate(480,620) scale(3.3333333333333)"><rect width="6" height="6"/></g>
<g transform="translate(500,620) scale(3.3333333333333)"><rect width="6" height="6"/></g>
<g transform="translate(580,620) scale(3.3333333333333)"><rect width="6" height="6"/></g>
<g transform="translate(600,620) scale(3.3333333333333)"><rect width="6" height="6"/></g>
<g transform="translate(620,620) scale(3.3333333333333)"><rect width="6" height="6"/></g>
<g transform="translate(660,620) scale(3.3333333333333)"><rect width="6" height="6"/></g>
<g transform="translate(740,620) scale(3.3333333333333)"><rect width="6" height="6"/></g>
<g transform="translate(780,620) scale(3.3333333333333)"><rect width="6" height="6"/></g>
<g transform="translate(880,620) scale(3.3333333333333)"><rect width="6" height="6"/></g>
<g transform="translate(920,620) scale(3.3333333333333)"><rect width="6" height="6"/></g>
<g transform="translate(120,640) scale(3.3333333333333)"><rect width="6" height="6"/></g>
<g transform="translate(160,640) scale(3.3333333333333)"><rect width="6" height="6"/></g>
<g transform="translate(240,640) scale(3.3333333333333)"><rect width="6" height="6"/></g>
<g transform="translate(300,640) scale(3.3333333333333)"><rect width="6" height="6"/></g>
<g transform="translate(340,640) scale(3.3333333333333)"><rect width="6" height="6"/></g>
<g transform="translate(360,640) scale(3.3333333333333)"><rect width="6" height="6"/></g>
<g transform="translate(380,640) scale(3.3333333333333)"><rect width="6" height="6"/></g>
<g transform="translate(460,640) scale(3.3333333333333)"><rect width="6" height="6"/></g>
<g transform="translate(480,640) scale(3.3333333333333)"><rect width="6" height="6"/></g>
<g transform="translate(500,640) scale(3.3333333333333)"><rect width="6" height="6"/></g>
<g transform="translate(520,640) scale(3.3333333333333)"><rect width="6" height="6"/></g>
<g transform="translate(560,640) scale(3.3333333333333)"><rect width="6" height="6"/></g>
<g transform="translate(580,640) scale(3.3333333333333)"><rect width="6" height="6"/></g>
<g transform="translate(620,640) scale(3.3333333333333)"><rect width="6" height="6"/></g>
<g transform="translate(640,640) scale(3.3333333333333)"><rect width="6" height="6"/></g>
<g transform="translate(720,640) scale(3.3333333333333)"><rect width="6" height="6"/></g>
<g transform="translate(740,640) scale(3.3333333333333)"><rect width="6" height="6"/></g>
<g transform="translate(780,640) scale(3.3333333333333)"><rect width="6" height="6"/></g>
<g transform="translate(820,640) scale(3.3333333333333)"><rect width="6" height="6"/></g>
<g transform="translate(860,640) scale(3.3333333333333)"><rect width="6" height="6"/></g>
<g transform="translate(40,660) scale(3.3333333333333)"><rect width="6" height="6"/></g>
<g transform="translate(80,660) scale(3.3333333333333)"><rect width="6" height="6"/></g>
<g transform="translate(180,660) scale(3.3333333333333)"><rect width="6" height="6"/></g>
<g transform="translate(200,660) scale(3.3333333333333)"><rect width="6" height="6"/></g>
<g transform="translate(220,660) scale(3.3333333333333)"><rect width="6" height="6"/></g>
<g transform="translate(260,660) scale(3.3333333333333)"><rect width="6" height="6"/></g>
<g transform="translate(300,660) scale(3.3333333333333)"><rect width="6" height="6"/></g>
<g transform="translate(320,660) scale(3.3333333333333)"><rect width="6" height="6"/></g>
<g transform="translate(340,660) scale(3.3333333333333)"><rect width="6" height="6"/></g>
<g transform="translate(380,660) scale(3.3333333333333)"><rect width="6" height="6"/></g>
<g transform="translate(400,660) scale(3.3333333333333)"><rect width="6" height="6"/></g>
<g transform="translate(460,660) scale(3.3333333333333)"><rect width="6" height="6"/></g>
<g transform="translate(480,660) scale(3.3333333333333)"><rect width="6" height="6"/></g>
<g transform="translate(520,660) scale(3.3333333333333)"><rect width="6" height="6"/></g>
<g transform="translate(560,660) scale(3.3333333333333)"><rect width="6" height="6"/></g>
<g transform="translate(620,660) scale(3.3333333333333)"><rect width="6" height="6"/></g>
<g transform="translate(640,660) scale(3.3333333333333)"><rect width="6" height="6"/></g>
<g transform="translate(680,660) scale(3.3333333333333)"><rect width="6" height="6"/></g>
<g transform="translate(700,660) scale(3.3333333333333)"><rect width="6" height="6"/></g>
<g transform="translate(720,660) scale(3.3333333333333)"><rect width="6" height="6"/></g>
<g transform="translate(740,660) scale(3.3333333333333)"><rect width="6" height="6"/></g>
<g transform="translate(800,660) scale(3.3333333333333)"><rect width="6" height="6"/></g>
<g transform="translate(860,660) scale(3.3333333333333)"><rect width="6" height="6"/></g>
<g transform="translate(880,660) scale(3.3333333333333)"><rect width="6" height="6"/></g>
<g transform="translate(900,660) scale(3.3333333333333)"><rect width="6" height="6"/></g>
<g transform="translate(80,680) scale(3.3333333333333)"><rect width="6" height="6"/></g>
<g transform="translate(120,680) scale(3.3333333333333)"><rect width="6" height="6"/></g>
<g transform="translate(160,680) scale(3.3333333333333)"><rect width="6" height="6"/></g>
<g transform="translate(180,680) scale(3.3333333333333)"><rect width="6" height="6"/></g>
<g transform="translate(200,680) scale(3.3333333333333)"><rect width="6" height="6"/></g>
<g transform="translate(340,680) scale(3.3333333333333)"><rect width="6" height="6"/></g>
<g transform="translate(360,680) scale(3.3333333333333)"><rect width="6" height="6"/></g>
<g transform="translate(380,680) scale(3.3333333333333)"><rect width="6" height="6"/></g>
<g transform="translate(420,680) scale(3.3333333333333)"><rect width="6" height="6"/></g>
<g transform="translate(460,680) scale(3.3333333333333)"><rect width="6" height="6"/></g>
<g transform="translate(480,680) scale(3.3333333333333)"><rect width="6" height="6"/></g>
<g transform="translate(560,680) scale(3.3333333333333)"><rect width="6" height="6"/></g>
<g transform="translate(580,680) scale(3.3333333333333)"><rect width="6" height="6"/></g>
<g transform="translate(640,680) scale(3.3333333333333)"><rect width="6" height="6"/></g>
<g transform="translate(660,680) scale(3.3333333333333)"><rect width="6" height="6"/></g>
<g transform="translate(760,680) scale(3.3333333333333)"><rect width="6" height="6"/></g>
<g transform="translate(800,680) scale(3.3333333333333)"><rect width="6" height="6"/></g>
<g transform="translate(840,680) scale(3.3333333333333)"><rect width="6" height="6"/></g>
<g transform="translate(860,680) scale(3.3333333333333)"><rect width="6" height="6"/></g>
<g transform="translate(900,680) scale(3.3333333333333)"><rect width="6" height="6"/></g>
<g transform="translate(40,700) scale(3.3333333333333)"><rect width="6" height="6"/></g>
<g transform="translate(60,700) scale(3.3333333333333)"><rect width="6" height="6"/></g>
<g transform="translate(100,700) scale(3.3333333333333)"><rect width="6" height="6"/></g>
<g transform="translate(200,700) scale(3.3333333333333)"><rect width="6" height="6"/></g>
<g transform="translate(220,700) scale(3.3333333333333)"><rect width="6" height="6"/></g>
<g transform="translate(240,700) scale(3.3333333333333)"><rect width="6" height="6"/></g>
<g transform="translate(320,700) scale(3.3333333333333)"><rect width="6" height="6"/></g>
<g transform="translate(340,700) scale(3.3333333333333)"><rect width="6" height="6"/></g>
<g transform="translate(360,700) scale(3.3333333333333)"><rect width="6" height="6"/></g>
<g transform="translate(380,700) scale(3.3333333333333)"><rect width="6" height="6"/></g>
<g transform="translate(440,700) scale(3.3333333333333)"><rect width="6" height="6"/></g>
<g transform="translate(480,700) scale(3.3333333333333)"><rect width="6" height="6"/></g>
<g transform="translate(520,700) scale(3.3333333333333)"><rect width="6" height="6"/></g>
<g transform="translate(540,700) scale(3.3333333333333)"><rect width="6" height="6"/></g>
<g transform="translate(600,700) scale(3.3333333333333)"><rect width="6" height="6"/></g>
<g transform="translate(620,700) scale(3.3333333333333)"><rect width="6" height="6"/></g>
<g transform="translate(740,700) scale(3.3333333333333)"><rect width="6" height="6"/></g>
<g transform="translate(800,700) scale(3.3333333333333)"><rect width="6" height="6"/></g>
<g transform="translate(860,700) scale(3.3333333333333)"><rect width="6" height="6"/></g>
<g transform="translate(880,700) scale(3.3333333333333)"><rect width="6" height="6"/></g>
<g transform="translate(920,700) scale(3.3333333333333)"><rect width="6" height="6"/></g>
<g transform="translate(120,720) scale(3.3333333333333)"><rect width="6" height="6"/></g>
<g transform="translate(160,720) scale(3.3333333333333)"><rect width="6" height="6"/></g>
<g transform="translate(200,720) scale(3.3333333333333)"><rect width="6" height="6"/></g>
<g transform="translate(220,720) scale(3.3333333333333)"><rect width="6" height="6"/></g>
<g transform="translate(260,720) scale(3.3333333333333)"><rect width="6" height="6"/></g>
<g transform="translate(320,720) scale(3.3333333333333)"><rect width="6" height="6"/></g>
<g transform="translate(340,720) scale(3.3333333333333)"><rect width="6" height="6"/></g>
<g transform="translate(420,720) scale(3.3333333333333)"><rect width="6" height="6"/></g>
<g transform="translate(540,720) scale(3.3333333333333)"><rect width="6" height="6"/></g>
<g transform="translate(560,720) scale(3.3333333333333)"><rect width="6" height="6"/></g>
<g transform="translate(580,720) scale(3.3333333333333)"><rect width="6" height="6"/></g>
<g transform="translate(600,720) scale(3.3333333333333)"><rect width="6" height="6"/></g>
<g transform="translate(620,720) scale(3.3333333333333)"><rect width="6" height="6"/></g>
<g transform="translate(640,720) scale(3.3333333333333)"><rect width="6" height="6"/></g>
<g transform="translate(660,720) scale(3.3333333333333)"><rect width="6" height="6"/></g>
<g transform="translate(720,720) scale(3.3333333333333)"><rect width="6" height="6"/></g>
<g transform="translate(740,720) scale(3.3333333333333)"><rect width="6" height="6"/></g>
<g transform="translate(760,720) scale(3.3333333333333)"><rect width="6" height="6"/></g>
<g transform="translate(780,720) scale(3.3333333333333)"><rect width="6" height="6"/></g>
<g transform="translate(820,720) scale(3.3333333333333)"><rect width="6" height="6"/></g>
<g transform="translate(840,720) scale(3.3333333333333)"><rect width="6" height="6"/></g>
<g transform="translate(880,720) scale(3.3333333333333)"><rect width="6" height="6"/></g>
<g transform="translate(60,740) scale(3.3333333333333)"><rect width="6" height="6"/></g>
<g transform="translate(80,740) scale(3.3333333333333)"><rect width="6" height="6"/></g>
<g transform="translate(100,740) scale(3.3333333333333)"><rect width="6" height="6"/></g>
<g transform="translate(120,740) scale(3.3333333333333)"><rect width="6" height="6"/></g>
<g transform="translate(180,740) scale(3.3333333333333)"><rect width="6" height="6"/></g>
<g transform="translate(200,740) scale(3.3333333333333)"><rect width="6" height="6"/></g>
<g transform="translate(220,740) scale(3.3333333333333)"><rect width="6" height="6"/></g>
<g transform="translate(240,740) scale(3.3333333333333)"><rect width="6" height="6"/></g>
<g transform="translate(260,740) scale(3.3333333333333)"><rect width="6" height="6"/></g>
<g transform="translate(280,740) scale(3.3333333333333)"><rect width="6" height="6"/></g>
<g transform="translate(320,740) scale(3.3333333333333)"><rect width="6" height="6"/></g>
<g transform="translate(360,740) scale(3.3333333333333)"><rect width="6" height="6"/></g>
<g transform="translate(380,740) scale(3.3333333333333)"><rect width="6" height="6"/></g>
<g transform="translate(400,740) scale(3.3333333333333)"><rect width="6" height="6"/></g>
<g transform="translate(420,740) scale(3.3333333333333)"><rect width="6" height="6"/></g>
<g transform="translate(460,740) scale(3.3333333333333)"><rect width="6" height="6"/></g>
<g transform="translate(520,740) scale(3.3333333333333)"><rect width="6" height="6"/></g>
<g transform="translate(540,740) scale(3.3333333333333)"><rect width="6" height="6"/></g>
<g transform="translate(560,740) scale(3.3333333333333)"><rect width="6" height="6"/></g>
<g transform="translate(580,740) scale(3.3333333333333)"><rect width="6" height="6"/></g>
<g transform="translate(680,740) scale(3.3333333333333)"><rect width="6" height="6"/></g>
<g transform="translate(700,740) scale(3.3333333333333)"><rect width="6" height="6"/></g>
<g transform="translate(720,740) scale(3.3333333333333)"><rect width="6" height="6"/></g>
<g transform="translate(740,740) scale(3.3333333333333)"><rect width="6" height="6"/></g>
<g transform="translate(800,740) scale(3.3333333333333)"><rect width="6" height="6"/></g>
<g transform="translate(820,740) scale(3.3333333333333)"><rect width="6" height="6"/></g>
<g transform="translate(860,740) scale(3.3333333333333)"><rect width="6" height="6"/></g>
<g transform="translate(880,740) scale(3.3333333333333)"><rect width="6" height="6"/></g>
<g transform="translate(920,740) scale(3.3333333333333)"><rect width="6" height="6"/></g>
<g transform="translate(40,760) scale(3.3333333333333)"><rect width="6" height="6"/></g>
<g transform="translate(100,760) scale(3.3333333333333)"><rect width="6" height="6"/></g>
<g transform="translate(120,760) scale(3.3333333333333)"><rect width="6" height="6"/></g>
<g transform="translate(160,760) scale(3.3333333333333)"><rect width="6" height="6"/></g>
<g transform="translate(180,760) scale(3.3333333333333)"><rect width="6" height="6"/></g>
<g transform="translate(200,760) scale(3.3333333333333)"><rect width="6" height="6"/></g>
<g transform="translate(240,760) scale(3.3333333333333)"><rect width="6" height="6"/></g>
<g transform="translate(280,760) scale(3.3333333333333)"><rect width="6" height="6"/></g>
<g transform="translate(300,760) scale(3.3333333333333)"><rect width="6" height="6"/></g>
<g transform="translate(360,760) scale(3.3333333333333)"><rect width="6" height="6"/></g>
<g transform="translate(400,760) scale(3.3333333333333)"><rect width="6" height="6"/></g>
<g transform="translate(420,760) scale(3.3333333333333)"><rect width="6" height="6"/></g>
<g transform="translate(440,760) scale(3.3333333333333)"><rect width="6" height="6"/></g>
<g transform="translate(460,760) scale(3.3333333333333)"><rect width="6" height="6"/></g>
<g transform="translate(480,760) scale(3.3333333333333)"><rect width="6" height="6"/></g>
<g transform="translate(500,760) scale(3.3333333333333)"><rect width="6" height="6"/></g>
<g transform="translate(520,760) scale(3.3333333333333)"><rect width="6" height="6"/></g>
<g transform="translate(540,760) scale(3.3333333333333)"><rect width="6" height="6"/></g>
<g transform="translate(580,760) scale(3.3333333333333)"><rect width="6" height="6"/></g>
<g transform="translate(620,760) scale(3.3333333333333)"><rect width="6" height="6"/></g>
<g transform="translate(660,760) scale(3.3333333333333)"><rect width="6" height="6"/></g>
<g transform="translate(760,760) scale(3.3333333333333)"><rect width="6" height="6"/></g>
<g transform="translate(780,760) scale(3.3333333333333)"><rect width="6" height="6"/></g>
<g transform="translate(800,760) scale(3.3333333333333)"><rect width="6" height="6"/></g>
<g transform="translate(820,760) scale(3.3333333333333)"><rect width="6" height="6"/></g>
<g transform="translate(840,760) scale(3.3333333333333)"><rect width="6" height="6"/></g>
<g transform="translate(860,760) scale(3.3333333333333)"><rect width="6" height="6"/></g>
<g transform="translate(200,780) scale(3.3333333333333)"><rect width="6" height="6"/></g>
<g transform="translate(240,780) scale(3.3333333333333)"><rect width="6" height="6"/></g>
<g transform="translate(300,780) scale(3.3333333333333)"><rect width="6" height="6"/></g>
<g transform="translate(320,780) scale(3.3333333333333)"><rect width="6" height="6"/></g>
<g transform="translate(380,780) scale(3.3333333333333)"><rect width="6" height="6"/></g>
<g transform="translate(440,780) scale(3.3333333333333)"><rect width="6" height="6"/></g>
<g transform="translate(520,780) scale(3.3333333333333)"><rect width="6" height="6"/></g>
<g transform="translate(560,780) scale(3.3333333333333)"><rect width="6" height="6"/></g>
<g transform="translate(580,780) scale(3.3333333333333)"><rect width="6" height="6"/></g>
<g transform="translate(600,780) scale(3.3333333333333)"><rect width="6" height="6"/></g>
<g transform="translate(620,780) scale(3.3333333333333)"><rect width="6" height="6"/></g>
<g transform="translate(740,780) scale(3.3333333333333)"><rect width="6" height="6"/></g>
<g transform="translate(760,780) scale(3.3333333333333)"><rect width="6" height="6"/></g>
<g transform="translate(840,780) scale(3.3333333333333)"><rect width="6" height="6"/></g>
<g transform="translate(920,780) scale(3.3333333333333)"><rect width="6" height="6"/></g>
<g transform="translate(220,800) scale(3.3333333333333)"><rect width="6" height="6"/></g>
<g transform="translate(240,800) scale(3.3333333333333)"><rect width="6" height="6"/></g>
<g transform="translate(260,800) scale(3.3333333333333)"><rect width="6" height="6"/></g>
<g transform="translate(300,800) scale(3.3333333333333)"><rect width="6" height="6"/></g>
<g transform="translate(360,800) scale(3.3333333333333)"><rect width="6" height="6"/></g>
<g transform="translate(400,800) scale(3.3333333333333)"><rect width="6" height="6"/></g>
<g transform="translate(440,800) scale(3.3333333333333)"><rect width="6" height="6"/></g>
<g transform="translate(480,800) scale(3.3333333333333)"><rect width="6" height="6"/></g>
<g transform="translate(520,800) scale(3.3333333333333)"><rect width="6" height="6"/></g>
<g transform="translate(560,800) scale(3.3333333333333)"><rect width="6" height="6"/></g>
<g transform="translate(580,800) scale(3.3333333333333)"><rect width="6" height="6"/></g>
<g transform="translate(600,800) scale(3.3333333333333)"><rect width="6" height="6"/></g>
<g transform="translate(640,800) scale(3.3333333333333)"><rect width="6" height="6"/></g>
<g transform="translate(660,800) scale(3.3333333333333)"><rect width="6" height="6"/></g>
<g transform="translate(700,800) scale(3.3333333333333)"><rect width="6" height="6"/></g>
<g transform="translate(720,800) scale(3.3333333333333)"><rect width="6" height="6"/></g>
<g transform="translate(760,800) scale(3.3333333333333)"><rect width="6" height="6"/></g>
<g transform="translate(800,800) scale(3.3333333333333)"><rect width="6" height="6"/></g>
<g transform="translate(840,800) scale(3.3333333333333)"><rect width="6" height="6"/></g>
<g transform="translate(860,800) scale(3.3333333333333)"><rect width="6" height="6"/></g>
<g transform="translate(880,800) scale(3.3333333333333)"><rect width="6" height="6"/></g>
<g transform="translate(900,800) scale(3.3333333333333)"><rect width="6" height="6"/></g>
<g transform="translate(220,820) scale(3.3333333333333)"><rect width="6" height="6"/></g>
<g transform="translate(260,820) scale(3.3333333333333)"><rect width="6" height="6"/></g>
<g transform="translate(280,820) scale(3.3333333333333)"><rect width="6" height="6"/></g>
<g transform="translate(320,820) scale(3.3333333333333)"><rect width="6" height="6"/></g>
<g transform="translate(340,820) scale(3.3333333333333)"><rect width="6" height="6"/></g>
<g transform="translate(360,820) scale(3.3333333333333)"><rect width="6" height="6"/></g>
<g transform="translate(380,820) scale(3.3333333333333)"><rect width="6" height="6"/></g>
<g transform="translate(420,820) scale(3.3333333333333)"><rect width="6" height="6"/></g>
<g transform="translate(440,820) scale(3.3333333333333)"><rect width="6" height="6"/></g>
<g transform="translate(520,820) scale(3.3333333333333)"><rect width="6" height="6"/></g>
<g transform="translate(620,820) scale(3.3333333333333)"><rect width="6" height="6"/></g>
<g transform="translate(640,820) scale(3.3333333333333)"><rect width="6" height="6"/></g>
<g transform="translate(680,820) scale(3.3333333333333)"><rect width="6" height="6"/></g>
<g transform="translate(740,820) scale(3.3333333333333)"><rect width="6" height="6"/></g>
<g transform="translate(760,820) scale(3.3333333333333)"><rect width="6" height="6"/></g>
<g transform="translate(840,820) scale(3.3333333333333)"><rect width="6" height="6"/></g>
<g transform="translate(860,820) scale(3.3333333333333)"><rect width="6" height="6"/></g>
<g transform="translate(880,820) scale(3.3333333333333)"><rect width="6" height="6"/></g>
<g transform="translate(200,840) scale(3.3333333333333)"><rect width="6" height="6"/></g>
<g transform="translate(300,840) scale(3.3333333333333)"><rect width="6" height="6"/></g>
<g transform="translate(360,840) scale(3.3333333333333)"><rect width="6" height="6"/></g>
<g transform="translate(400,840) scale(3.3333333333333)"><rect width="6" height="6"/></g>
<g transform="translate(440,840) scale(3.3333333333333)"><rect width="6" height="6"/></g>
<g transform="translate(460,840) scale(3.3333333333333)"><rect width="6" height="6"/></g>
<g transform="translate(480,840) scale(3.3333333333333)"><rect width="6" height="6"/></g>
<g transform="translate(500,840) scale(3.3333333333333)"><rect width="6" height="6"/></g>
<g transform="translate(520,840) scale(3.3333333333333)"><rect width="6" height="6"/></g>
<g transform="translate(600,840) scale(3.3333333333333)"><rect width="6" height="6"/></g>
<g transform="translate(620,840) scale(3.3333333333333)"><rect width="6" height="6"/></g>
<g transform="translate(660,840) scale(3.3333333333333)"><rect width="6" height="6"/></g>
<g transform="translate(700,840) scale(3.3333333333333)"><rect width="6" height="6"/></g>
<g transform="translate(760,840) scale(3.3333333333333)"><rect width="6" height="6"/></g>
<g transform="translate(780,840) scale(3.3333333333333)"><rect width="6" height="6"/></g>
<g transform="translate(800,840) scale(3.3333333333333)"><rect width="6" height="6"/></g>
<g transform="translate(820,840) scale(3.3333333333333)"><rect width="6" height="6"/></g>
<g transform="translate(840,840) scale(3.3333333333333)"><rect width="6" height="6"/></g>
<g transform="translate(900,840) scale(3.3333333333333)"><rect width="6" height="6"/></g>
<g transform="translate(200,860) scale(3.3333333333333)"><rect width="6" height="6"/></g>
<g transform="translate(280,860) scale(3.3333333333333)"><rect width="6" height="6"/></g>
<g transform="translate(400,860) scale(3.3333333333333)"><rect width="6" height="6"/></g>
<g transform="translate(460,860) scale(3.3333333333333)"><rect width="6" height="6"/></g>
<g transform="translate(500,860) scale(3.3333333333333)"><rect width="6" height="6"/></g>
<g transform="translate(540,860) scale(3.3333333333333)"><rect width="6" height="6"/></g>
<g transform="translate(580,860) scale(3.3333333333333)"><rect width="6" height="6"/></g>
<g transform="translate(620,860) scale(3.3333333333333)"><rect width="6" height="6"/></g>
<g transform="translate(680,860) scale(3.3333333333333)"><rect width="6" height="6"/></g>
<g transform="translate(820,860) scale(3.3333333333333)"><rect width="6" height="6"/></g>
<g transform="translate(840,860) scale(3.3333333333333)"><rect width="6" height="6"/></g>
<g transform="translate(860,860) scale(3.3333333333333)"><rect width="6" height="6"/></g>
<g transform="translate(900,860) scale(3.3333333333333)"><rect width="6" height="6"/></g>
<g transform="translate(920,860) scale(3.3333333333333)"><rect width="6" height="6"/></g>
<g transform="translate(200,880) scale(3.3333333333333)"><rect width="6" height="6"/></g>
<g transform="translate(220,880) scale(3.3333333333333)"><rect width="6" height="6"/></g>
<g transform="translate(240,880) scale(3.3333333333333)"><rect width="6" height="6"/></g>
<g transform="translate(260,880) scale(3.3333333333333)"><rect width="6" height="6"/></g>
<g transform="translate(280,880) scale(3.3333333333333)"><rect width="6" height="6"/></g>
<g transform="translate(320,880) scale(3.3333333333333)"><rect width="6" height="6"/></g>
<g transform="translate(360,880) scale(3.3333333333333)"><rect width="6" height="6"/></g>
<g transform="translate(420,880) scale(3.3333333333333)"><rect width="6" height="6"/></g>
<g transform="translate(440,880) scale(3.3333333333333)"><rect width="6" height="6"/></g>
<g transform="translate(460,880) scale(3.3333333333333)"><rect width="6" height="6"/></g>
<g transform="translate(480,880) scale(3.3333333333333)"><rect width="6" height="6"/></g>
<g transform="translate(520,880) scale(3.3333333333333)"><rect width="6" height="6"/></g>
<g transform="translate(560,880) scale(3.3333333333333)"><rect width="6" height="6"/></g>
<g transform="translate(580,880) scale(3.3333333333333)"><rect width="6" height="6"/></g>
<g transform="translate(600,880) scale(3.3333333333333)"><rect width="6" height="6"/></g>
<g transform="translate(640,880) scale(3.3333333333333)"><rect width="6" height="6"/></g>
<g transform="translate(660,880) scale(3.3333333333333)"><rect width="6" height="6"/></g>
<g transform="translate(700,880) scale(3.3333333333333)"><rect width="6" height="6"/></g>
<g transform="translate(720,880) scale(3.3333333333333)"><rect width="6" height="6"/></g>
<g transform="translate(760,880) scale(3.3333333333333)"><rect width="6" height="6"/></g>
<g transform="translate(780,880) scale(3.3333333333333)"><rect width="6" height="6"/></g>
<g transform="translate(800,880) scale(3.3333333333333)"><rect width="6" height="6"/></g>
<g transform="translate(860,880) scale(3.3333333333333)"><rect width="6" height="6"/></g>
<g transform="translate(220,900) scale(3.3333333333333)"><rect width="6" height="6"/></g>
<g transform="translate(260,900) scale(3.3333333333333)"><rect width="6" height="6"/></g>
<g transform="translate(280,900) scale(3.3333333333333)"><rect width="6" height="6"/></g>
<g transform="translate(300,900) scale(3.3333333333333)"><rect width="6" height="6"/></g>
<g transform="translate(340,900) scale(3.3333333333333)"><rect width="6" height="6"/></g>
<g transform="translate(360,900) scale(3.3333333333333)"><rect width="6" height="6"/></g>
<g transform="translate(380,900) scale(3.3333333333333)"><rect width="6" height="6"/></g>
<g transform="translate(420,900) scale(3.3333333333333)"><rect width="6" height="6"/></g>
<g transform="translate(460,900) scale(3.3333333333333)"><rect width="6" height="6"/></g>
<g transform="translate(560,900) scale(3.3333333333333)"><rect width="6" height="6"/></g>
<g transform="translate(600,900) scale(3.3333333333333)"><rect width="6" height="6"/></g>
<g transform="translate(620,900) scale(3.3333333333333)"><rect width="6" height="6"/></g>
<g transform="translate(640,900) scale(3.3333333333333)"><rect width="6" height="6"/></g>
<g transform="translate(660,900) scale(3.3333333333333)"><rect width="6" height="6"/></g>
<g transform="translate(680,900) scale(3.3333333333333)"><rect width="6" height="6"/></g>
<g transform="translate(720,900) scale(3.3333333333333)"><rect width="6" height="6"/></g>
<g transform="translate(740,900) scale(3.3333333333333)"><rect width="6" height="6"/></g>
<g transform="translate(880,900) scale(3.3333333333333)"><rect width="6" height="6"/></g>
<g transform="translate(300,920) scale(3.3333333333333)"><rect width="6" height="6"/></g>
<g transform="translate(320,920) scale(3.3333333333333)"><rect width="6" height="6"/></g>
<g transform="translate(360,920) scale(3.3333333333333)"><rect width="6" height="6"/></g>
<g transform="translate(380,920) scale(3.3333333333333)"><rect width="6" height="6"/></g>
<g transform="translate(460,920) scale(3.3333333333333)"><rect width="6" height="6"/></g>
<g transform="translate(500,920) scale(3.3333333333333)"><rect width="6" height="6"/></g>
<g transform="translate(520,920) scale(3.3333333333333)"><rect width="6" height="6"/></g>
<g transform="translate(540,920) scale(3.3333333333333)"><rect width="6" height="6"/></g>
<g transform="translate(560,920) scale(3.3333333333333)"><rect width="6" height="6"/></g>
<g transform="translate(620,920) scale(3.3333333333333)"><rect width="6" height="6"/></g>
<g transform="translate(740,920) scale(3.3333333333333)"><rect width="6" height="6"/></g>
<g transform="translate(780,920) scale(3.3333333333333)"><rect width="6" height="6"/></g>
<g transform="translate(800,920) scale(3.3333333333333)"><rect width="6" height="6"/></g>
<g transform="translate(900,920) scale(3.3333333333333)"><rect width="6" height="6"/></g>
</g></mask></defs>
<rect width="980" height="980" fill="#ffffff" x="0" y="0" />
<rect x="0" y="0" width="980" height="980" mask="url(#qrmask)" fill="#000000" />
<g transform="translate(40,40)"  fill="#000000"><g transform="scale(10)"><path d="M0,0v14h14V0H0z M12,12H2V2h10V12z"/></g></g>
<g transform="translate(800,40)"  fill="#000000"><g transform="scale(10)"><path d="M0,0v14h14V0H0z M12,12H2V2h10V12z"/></g></g>
<g transform="translate(40,800)"  fill="#000000"><g transform="scale(10)"><path d="M0,0v14h14V0H0z M12,12H2V2h10V12z"/></g></g>
<g transform="translate(80,80)"  fill="#000000"><g transform="scale(10)"><rect width="6" height="6"/></g></g>
<g transform="translate(840,80)"  fill="#000000"><g transform="scale(10)"><rect width="6" height="6"/></g></g>
<g transform="translate(80,840)"  fill="#000000"><g transform="scale(10)"><rect width="6" height="6"/></g></g>
</svg>