<svg xmlns="http://www.w3.org/2000/svg" width="86.833" height="80.422" viewBox="0 0 86.833 80.422">
  <path id="Caminho_597" data-name="Caminho 597" d="M81.6,52.86h0V6.3A1.092,1.092,0,0,0,80.52,5.218H6.3A1.092,1.092,0,0,0,5.218,6.3V52.86A1.093,1.093,0,0,0,6.3,53.942H19.983a24.449,24.449,0,0,0,2.165,2.363,29.869,29.869,0,0,0,21.164,8.76A30.182,30.182,0,0,0,56.5,62.014l.2.2,5.315,5.315H53.156c.1,1.28.788,6.89,9.252,7.974h-.394a2.461,2.461,0,1,1,0,4.922H24.806a2.461,2.461,0,0,1,0-4.922h-.3c8.466-1.083,9.155-6.694,9.254-7.974H5.513A5.53,5.53,0,0,1,0,62.211V6.3A6.345,6.345,0,0,1,6.3,0H80.52a6.344,6.344,0,0,1,6.3,6.3V62.211a4.736,4.736,0,0,1-.689,2.362L75.6,53.942H80.52A1.093,1.093,0,0,0,81.6,52.86m3.838,24.607a4.751,4.751,0,0,1-6.693,0l-18.7-18.7.886-.886-2.757-2.756A24.991,24.991,0,0,1,25.3,17.62a24.873,24.873,0,0,1,17.719-7.284A24.969,24.969,0,0,1,63,50.4l2.756,2.757.886-.886,18.7,18.7a4.381,4.381,0,0,1,.1,6.5M56.305,22.148a18.456,18.456,0,1,0,0,26.085,18.4,18.4,0,0,0,0-26.085M45.871,24.117H40.458v8.368H32.09V37.9h8.368v8.368h5.413V37.9h8.368V32.484H45.871Z" fill="#294667"/>
</svg>
