<svg id="_1" data-name="1" xmlns="http://www.w3.org/2000/svg" viewBox="0 0 774.353 334.882"><defs><style>.cls-1{fill:#f7a613;isolation:isolate;}.cls-2{fill:#284666;}.cls-3{fill:#fff;}</style></defs><rect class="cls-1" x="58.337" width="25.412" height="50.118" rx="12.706"/><rect class="cls-1" x="128.22" width="25.412" height="50.118" rx="12.706"/><rect class="cls-1" x="198.102" width="25.412" height="50.118" rx="12.706"/><rect class="cls-1" x="267.985" width="25.412" height="50.118" rx="12.706"/><rect class="cls-1" x="337.867" width="25.412" height="50.118" rx="12.706"/><rect class="cls-1" x="407.749" width="25.412" height="50.118" rx="12.706"/><rect class="cls-1" x="477.632" width="25.412" height="50.118" rx="12.706"/><rect class="cls-1" x="547.514" width="25.412" height="50.118" rx="12.706"/><rect class="cls-1" x="617.396" width="25.412" height="50.118" rx="12.706"/><rect class="cls-1" x="687.279" width="25.412" height="50.118" rx="12.706"/><path class="cls-2" d="M733.176,21.7V40.761a18.706,18.706,0,1,1-37.411,0V21.7H663.294V40.761a18.706,18.706,0,0,1-37.412,0V21.7h-32.47V40.761a18.706,18.706,0,1,1-37.412,0V21.7H523.529V40.761a18.706,18.706,0,1,1-37.411,0V21.7H453.647V40.761a18.706,18.706,0,0,1-37.412,0V21.7h-32.47V40.761a18.706,18.706,0,1,1-37.412,0V21.7H313.882V40.761a18.706,18.706,0,1,1-37.411,0V21.7H244V40.761a18.706,18.706,0,1,1-37.412,0V21.7h-32.47V40.761a18.706,18.706,0,1,1-37.412,0V21.7H104.235V40.761a18.706,18.706,0,1,1-37.411,0V21.7H14.486v316.53H788.839V21.7Z" transform="translate(-14.486 -3.349)"/><rect class="cls-3" x="159.631" y="27.353" width="32.471" height="2"/><path class="cls-3" d="M23.486,31.7v296.53a1,1,0,0,0,1,1H778.839a1,1,0,0,0,1-1V31.7a1,1,0,0,0-1-1H733.176v2h44.663v294.53H25.486V32.7H66.824v-2H24.486A1,1,0,0,0,23.486,31.7Z" transform="translate(-14.486 -3.349)"/><rect class="cls-3" x="89.749" y="27.353" width="32.471" height="2"/><rect class="cls-3" x="299.396" y="27.353" width="32.471" height="2"/><rect class="cls-3" x="229.514" y="27.353" width="32.471" height="2"/><rect class="cls-3" x="578.926" y="27.353" width="32.471" height="2"/><rect class="cls-3" x="648.808" y="27.353" width="32.471" height="2"/><rect class="cls-3" x="439.161" y="27.353" width="32.471" height="2"/><rect class="cls-3" x="509.043" y="27.353" width="32.471" height="2"/><rect class="cls-3" x="369.279" y="27.353" width="32.471" height="2"/></svg>