<svg xmlns="http://www.w3.org/2000/svg" width="40.875" height="40.875" viewBox="0 0 40.875 40.875">
  <path id="Icon_awesome-plus-circle" data-name="Icon awesome-plus-circle" d="M21,.563A20.437,20.437,0,1,0,41.437,21,20.434,20.434,0,0,0,21,.563ZM32.867,23.307a.992.992,0,0,1-.989.989H24.3v7.582a.992.992,0,0,1-.989.989H18.693a.992.992,0,0,1-.989-.989V24.3H10.122a.992.992,0,0,1-.989-.989V18.693a.992.992,0,0,1,.989-.989H17.7V10.122a.992.992,0,0,1,.989-.989h4.615a.992.992,0,0,1,.989.989V17.7h7.582a.992.992,0,0,1,.989.989Z" transform="translate(-0.563 -0.563)" fill="#ffc400"/>
</svg>
